<svg width="200" height="120" viewBox="0 0 200 120" fill="none" xmlns="http://www.w3.org/2000/svg">
<g clip-path="url(#clip0_654_885)">
<g clip-path="url(#clip1_654_885)">
<path d="M23 41.0619C33.1573 41.0619 43.2836 41.0619 53.4409 41.0619C57.6032 41.0619 61.7655 42.4572 65.0581 44.9689C68.5371 47.5735 71.0842 51.4185 72.1403 55.6355C73.1032 59.4495 72.8858 63.5425 71.488 67.2324C70.0591 71.0464 67.3878 74.3332 63.9709 76.5658C60.8026 78.6433 57.013 79.7596 53.2234 79.6665C43.1593 79.6665 33.0952 79.6665 23 79.6665C23 66.7983 23 53.9301 23 41.0619ZM32.6603 50.7363C32.6603 57.1859 32.6603 63.6045 32.6603 70.0541C39.525 70.0541 46.3898 70.0541 53.2545 70.0541C54.6212 70.0541 56.019 69.7751 57.2615 69.2169C60.6162 67.7596 63.008 64.3177 63.0701 60.6278C63.1944 57.558 61.6723 54.4883 59.2184 52.6588C57.6343 51.4805 55.6774 50.7363 53.7204 50.7363C46.6693 50.7363 39.6493 50.7363 32.6603 50.7363ZM78.1353 41.372C79.9369 40.7208 81.987 41.279 83.3226 42.5813C93.8838 50.2402 104.476 57.8371 115.037 65.465C115.037 57.341 115.037 49.1859 115.037 41.0619C118.236 41.0619 121.467 41.0619 124.666 41.0619C124.666 52.1317 124.666 63.1704 124.666 74.2402C124.697 75.3875 124.511 76.5658 123.859 77.527C122.772 79.2014 120.597 80.0386 118.64 79.5425C117.553 79.3255 116.745 78.5813 115.938 77.9301C105.47 70.3952 95.0331 62.8603 84.5651 55.2945C84.5651 63.4185 84.5651 71.5425 84.5651 79.6665C81.3657 79.6665 78.1353 79.6665 74.9359 79.6665C74.9359 68.4107 74.9359 57.1549 74.9359 45.9301C74.9048 43.9146 76.2405 41.9921 78.1353 41.372ZM136.625 41.341C138.147 41.0309 139.7 41.0619 141.222 41.0619C150.51 41.0619 159.829 41.0619 169.116 41.0619C170.421 41.0619 171.725 41.465 172.657 42.3642C173.869 43.4805 174.397 45.2479 174.086 46.8603C173.682 48.9379 171.725 50.6433 169.582 50.6743C159.58 50.6743 149.609 50.6743 139.607 50.6743C138.613 50.6123 137.464 50.9534 136.967 51.8836C136.377 52.7828 136.532 54.0541 137.309 54.7983C137.868 55.4495 138.8 55.6355 139.607 55.6045C148.211 55.5735 156.847 55.6355 165.451 55.5735C169.054 55.7906 172.44 57.7441 174.521 60.6588C176.261 63.1084 177.006 66.2402 176.602 69.2479C176.167 72.5348 174.273 75.6355 171.539 77.496C169.582 78.8603 167.221 79.6045 164.83 79.6355C153.772 79.6355 142.744 79.6355 131.686 79.6355C129.885 79.6045 128.145 78.4883 127.431 76.8448C126.685 75.2634 126.903 73.2479 127.99 71.8836C128.891 70.6743 130.413 69.9921 131.904 70.0231C142.807 70.0231 153.678 70.0231 164.581 70.0231C166.041 70.1162 167.346 68.5968 167.035 67.1704C166.818 66.0231 165.762 65.1549 164.612 65.1549C155.977 65.1549 147.373 65.1549 138.737 65.1549C135.6 65.1239 132.556 63.7286 130.382 61.496C127.679 58.7363 126.468 54.6433 127.213 50.8914C128.052 46.2092 131.935 42.2402 136.625 41.341ZM46.514 92.5658C46.514 91.3255 48.1603 90.8293 49.0301 91.5735C49.4339 91.9146 49.5271 92.4727 49.496 92.9999C49.496 95.5425 49.496 98.1162 49.496 100.659C50.987 100.659 52.478 100.659 53.9689 100.659C53.9689 97.8991 53.9379 95.1084 54 92.3487C54.1553 91.0464 56.2365 90.8293 56.7645 91.9766C56.9509 92.2867 56.9198 92.6588 56.9198 93.0309C56.9198 95.5735 56.9198 98.0852 56.9198 100.628C57.6653 100.597 58.4729 101.062 58.5351 101.868C58.5972 102.829 58.6283 103.822 58.504 104.783C58.3798 106.023 56.516 106.333 55.8327 105.372C55.4289 104.783 55.5842 104.008 55.5531 103.325C52.9749 103.325 50.3657 103.356 47.7876 103.325C46.9178 103.325 46.4208 102.426 46.483 101.651C46.514 98.6123 46.4519 95.5735 46.514 92.5658ZM59.498 92.3177C59.7154 90.8603 62.2004 90.8603 62.3868 92.3177C62.4489 94.2092 62.3868 96.1007 62.3868 98.0231C64.002 95.9456 65.5862 93.8371 67.2014 91.7906C67.7605 91.0464 69.0962 91.0154 69.6242 91.8216C69.9349 92.2867 69.8727 92.9069 69.9038 93.465C69.8727 96.3177 69.9349 99.2014 69.8727 102.054C69.8727 103.263 68.2575 103.822 67.3878 103.077C66.9218 102.736 66.8908 102.147 66.8908 101.62C66.8908 99.9766 66.8908 98.3332 66.8908 96.6898C65.2756 98.7673 63.6914 100.876 62.014 102.922C61.2375 103.884 59.4048 103.325 59.4669 102.023C59.498 98.8293 59.4359 95.5735 59.498 92.3177ZM76.2094 92.5658C76.3337 91.8216 76.9238 91.1704 77.7315 91.2324C78.5391 91.1394 79.1603 91.7906 79.2535 92.5658C80.5271 92.4107 81.8938 92.6278 82.8567 93.527C85.0932 95.4185 85.0311 99.3565 82.7014 101.124C81.7695 101.899 80.4649 102.116 79.2846 101.93C79.2535 102.891 78.2906 103.667 77.3277 103.356C76.6443 103.232 76.3026 102.55 76.2094 101.93C74.8427 102.147 73.3828 101.806 72.4198 100.783C70.3387 98.7983 70.525 95.0154 72.8547 93.31C73.7866 92.5968 75.0291 92.4417 76.2094 92.5658ZM74.8116 95.7596C73.8176 96.4728 73.8487 98.1782 74.8737 98.8603C75.2776 99.2014 75.8056 99.2014 76.3026 99.2324C76.3337 97.9301 76.3026 96.6278 76.3026 95.2945C75.7745 95.3255 75.2154 95.3565 74.8116 95.7596ZM79.1603 95.3255C79.1603 96.6278 79.1293 97.9301 79.1603 99.2324C80.0922 99.2945 81.1172 98.7673 81.3347 97.7751C81.7385 96.4728 80.496 95.1084 79.1603 95.3255ZM99.5371 91.2635C101.245 90.9224 103.109 91.2324 104.445 92.3797C107.24 94.6433 107.427 99.2945 104.973 101.837C102.923 104.039 99.009 104.07 96.8968 101.961C94.3808 99.5115 94.4118 94.9224 97.021 92.5658C97.7044 91.9146 98.6052 91.4495 99.5371 91.2635ZM100.034 94.0541C97.984 94.8293 97.7044 97.62 98.5742 99.3565C99.3196 100.969 101.836 101.217 102.861 99.7906C103.793 98.4572 103.824 96.5658 103.016 95.1704C102.457 94.1162 101.152 93.651 100.034 94.0541ZM121.156 91.7596C121.964 90.8293 123.672 90.9534 124.325 92.0076C124.666 92.5658 124.822 93.2169 125.07 93.8371C125.971 96.3177 126.841 98.7983 127.741 101.248C127.897 101.713 128.021 102.24 127.804 102.705C127.338 103.698 125.691 103.698 125.225 102.705C124.977 102.178 124.853 101.62 124.666 101.062C123.331 101.062 121.995 101.062 120.628 101.062C120.442 101.651 120.287 102.302 120.007 102.86C119.479 103.667 118.143 103.636 117.584 102.86C117.18 102.395 117.305 101.744 117.491 101.217C118.516 98.4572 119.541 95.6976 120.566 92.9379C120.69 92.5348 120.877 92.1007 121.156 91.7596ZM122.616 94.9844C122.212 96.0697 121.871 97.1859 121.529 98.3022C122.275 98.3022 123.02 98.3022 123.766 98.3022C123.362 97.1859 123.113 96.0386 122.616 94.9844ZM144.298 92.4728C144.36 91.2634 145.975 90.8603 146.783 91.5735C147.124 91.8836 147.28 92.3487 147.248 92.7828C147.248 94.5193 147.248 96.2557 147.248 98.0231C148.833 95.9456 150.417 93.8681 152.032 91.7906C152.746 90.7983 154.703 91.2324 154.672 92.5658C154.672 95.7286 154.672 98.9224 154.672 102.085C154.734 103.015 153.678 103.636 152.84 103.418C152.218 103.294 151.721 102.736 151.721 102.085C151.69 100.287 151.721 98.5193 151.721 96.7208C150.137 98.7363 148.553 100.814 146.969 102.829C146.41 103.605 145.136 103.636 144.546 102.891C144.173 102.333 144.267 101.62 144.235 100.969C144.267 98.1162 144.204 95.2945 144.298 92.4728ZM85.6212 92.7828C85.5281 92.0696 86.0872 91.3565 86.8327 91.3255C87.9509 91.2634 89.1002 91.2945 90.2184 91.3255C91.5852 91.3565 92.9519 92.0076 93.6974 93.1239C94.3808 94.1162 94.505 95.4185 94.2254 96.5658C93.8527 98.0852 92.4239 99.2634 90.9018 99.4495C90.1253 99.5425 89.3487 99.4805 88.5411 99.4805C88.479 100.504 88.6653 101.527 88.4479 102.519C88.013 103.791 85.7766 103.605 85.6212 102.24C85.5902 99.1394 85.6212 95.9456 85.6212 92.7828ZM88.5721 94.0231C88.5721 94.9534 88.5721 95.9146 88.5721 96.8448C89.3176 96.7828 90.1563 96.9999 90.7775 96.5348C91.6162 95.9146 91.4299 94.3952 90.4048 94.0852C89.8146 93.9921 89.1934 94.0541 88.5721 94.0231ZM108.359 91.6976C108.98 91.2014 109.85 91.3565 110.595 91.3255C111.931 91.3875 113.453 91.1084 114.602 91.9456C116.155 92.9999 116.28 95.4805 114.851 96.6898C115.689 97.0929 116.435 97.7751 116.683 98.7053C116.994 100.101 116.621 101.713 115.41 102.581C114.105 103.574 112.366 103.263 110.813 103.325C110.067 103.294 109.291 103.449 108.607 103.139C108.048 102.86 107.862 102.24 107.862 101.651C107.831 98.8603 107.862 96.0696 107.862 93.2479C107.893 92.6898 107.924 92.0696 108.359 91.6976ZM110.906 94.0231C110.906 94.6433 110.906 95.2324 110.906 95.8526C111.496 95.8216 112.241 96.0076 112.707 95.5115C113.018 95.1084 112.987 94.3642 112.428 94.1472C111.962 93.9611 111.403 94.0541 110.906 94.0231ZM110.906 98.5503C110.906 99.2324 110.906 99.9456 110.906 100.659C111.62 100.628 112.366 100.721 113.08 100.535C113.826 100.287 114.012 99.0774 113.267 98.7363C112.521 98.4262 111.682 98.6123 110.906 98.5503ZM130.226 92.0076C131.624 91.1394 133.333 91.3565 134.886 91.3255C135.569 91.3565 136.346 91.2014 136.936 91.6355C137.34 91.9456 137.402 92.5038 137.371 92.9999C137.371 96.0386 137.371 99.0774 137.371 102.085C137.402 103.015 136.377 103.636 135.538 103.387C134.917 103.294 134.42 102.736 134.451 102.116C134.42 101.124 134.451 100.163 134.451 99.1704C133.426 100.411 132.432 101.651 131.376 102.891C130.848 103.543 129.761 103.667 129.17 103.046C128.642 102.581 128.487 101.682 128.953 101.155C129.729 100.225 130.599 99.3875 131.407 98.4883C130.258 98.1782 129.17 97.403 128.86 96.1937C128.549 94.7053 128.86 92.8759 130.226 92.0076ZM132.463 94.2402C131.593 94.5813 131.655 95.9766 132.525 96.2867C133.146 96.4417 133.799 96.3487 134.451 96.3487C134.451 95.6045 134.451 94.8293 134.451 94.0852C133.768 94.1162 133.084 94.0231 132.463 94.2402ZM34.2445 109.155C34.99 108.318 36.6673 108.628 36.8537 109.806C36.9469 110.922 36.8537 112.039 36.8848 113.186C38.2826 113.186 39.7735 113.031 40.985 113.837C42.6623 114.86 42.9419 117.248 42.1343 118.891C41.513 120.132 40.0531 120.814 38.7174 120.752C37.506 120.721 36.2946 120.783 35.0832 120.721C34.2756 120.628 33.8407 119.791 33.9028 119.046C33.8717 116.318 33.9028 113.589 33.9028 110.86C33.9028 110.302 33.8717 109.651 34.2445 109.155ZM36.9158 115.822C36.9158 116.566 36.9158 117.341 36.9158 118.085C37.4749 118.085 38.0651 118.147 38.6242 118.023C39.3697 117.899 39.8357 116.814 39.2455 116.256C38.6553 115.636 37.6924 115.884 36.9158 115.822ZM44.2776 108.783C44.8367 108.628 45.5511 108.69 45.9549 109.155C46.3587 109.558 46.3277 110.147 46.3277 110.705C46.2966 113.651 46.3587 116.566 46.2966 119.512C46.3277 120.38 45.4269 121.062 44.5882 120.907C43.7806 120.876 43.2525 120.101 43.3146 119.325C43.3146 116.287 43.3146 113.279 43.3146 110.24C43.2836 109.589 43.6563 108.938 44.2776 108.783ZM59.9329 108.814C61.8277 108.287 64.0331 108.659 65.4619 110.054C67.978 112.287 68.1022 116.535 65.9589 119.077C64.0331 121.434 60.1503 121.651 57.8828 119.667C55.0872 117.248 55.0872 112.318 57.8828 109.93C58.4729 109.403 59.1874 109.031 59.9329 108.814ZM60.8337 111.512C58.7836 112.256 58.4729 115.077 59.3427 116.814C60.0882 118.457 62.6042 118.674 63.6603 117.217C64.5922 115.884 64.6232 113.992 63.8156 112.628C63.2254 111.574 61.9208 111.139 60.8337 111.512ZM81.4279 110.054C81.7074 109.217 82.484 108.504 83.3848 108.566C84.3166 108.535 85.1242 109.186 85.3727 110.054C86.4599 113.062 87.5471 116.039 88.6032 119.046C89.007 120.039 88.013 121.093 87.019 120.845C85.8387 120.752 85.7455 119.387 85.4038 118.519C84.0681 118.519 82.7325 118.519 81.3657 118.519C81.1794 119.108 81.024 119.698 80.7445 120.256C80.1232 121.217 78.477 121 78.1042 119.946C77.8868 119.325 78.1974 118.705 78.4148 118.147C79.4399 115.449 80.4339 112.752 81.4279 110.054ZM83.3848 112.411C82.981 113.496 82.6703 114.612 82.2976 115.729C83.0431 115.729 83.7886 115.729 84.5341 115.729C84.1303 114.612 83.8507 113.465 83.3848 112.411ZM122.212 109.341C122.709 108.535 124.014 108.411 124.604 109.155C125.319 109.992 125.878 110.984 126.561 111.853C127.213 110.984 127.773 110.054 128.456 109.217C128.984 108.535 130.164 108.504 130.755 109.155C131.251 109.682 131.22 110.55 130.786 111.108C129.978 112.225 129.139 113.31 128.363 114.426C129.388 115.791 130.413 117.155 131.438 118.519C131.811 119.046 131.904 119.822 131.469 120.349C130.91 121.062 129.667 121.093 129.108 120.349C128.238 119.232 127.462 118.054 126.592 116.907C125.754 118.023 124.977 119.17 124.138 120.287C123.548 121.124 122.057 121.062 121.591 120.101C121.343 119.481 121.498 118.767 121.902 118.271C122.865 116.969 123.859 115.667 124.822 114.364C124.014 113.248 123.144 112.132 122.337 111.015C121.964 110.55 121.902 109.868 122.212 109.341ZM132.68 109.992C132.68 108.907 134.016 108.38 134.886 108.845C135.414 109.093 135.631 109.682 135.631 110.24C135.662 111.263 135.631 112.318 135.631 113.341C137.091 113.341 138.582 113.341 140.042 113.341C140.073 112.163 139.949 110.984 140.104 109.806C140.291 108.628 141.968 108.318 142.713 109.186C143.086 109.589 143.055 110.178 143.055 110.705C143.024 113.651 143.055 116.597 143.055 119.543C143.055 120.628 141.75 121.217 140.85 120.752C140.291 120.504 140.073 119.884 140.073 119.325C140.042 118.271 140.073 117.186 140.073 116.132C138.613 116.132 137.122 116.132 135.662 116.132C135.631 117.341 135.756 118.55 135.6 119.76C135.476 121 133.643 121.31 132.929 120.349C132.587 119.915 132.649 119.356 132.649 118.86C132.711 115.884 132.649 112.938 132.68 109.992ZM145.571 108.876C146.441 108.318 147.87 108.876 147.87 110.023C147.932 111.822 147.87 113.651 147.901 115.449C149.485 113.403 151.038 111.356 152.622 109.31C153.15 108.535 154.424 108.473 155.014 109.186C155.387 109.589 155.325 110.178 155.325 110.674C155.294 113.62 155.325 116.597 155.325 119.543C155.356 120.349 154.517 121 153.74 120.876C153.026 120.876 152.343 120.256 152.405 119.543C152.374 117.744 152.405 115.946 152.405 114.147C150.79 116.194 149.205 118.302 147.559 120.349C146.814 121.341 144.919 120.876 144.919 119.574C144.888 116.535 144.919 113.496 144.888 110.457C144.857 109.868 144.981 109.186 145.571 108.876ZM157.064 110.209C157.033 109.434 157.654 108.69 158.462 108.69C159.238 108.566 160.046 109.186 160.046 109.992C160.077 110.953 160.046 111.915 160.077 112.876C161.289 111.636 162.438 110.302 163.68 109.093C164.395 108.38 165.762 108.721 166.072 109.682C166.352 110.364 165.886 111.046 165.42 111.512C164.457 112.504 163.463 113.465 162.438 114.426C163.68 115.76 164.985 117.031 166.227 118.395C166.724 118.922 166.942 119.822 166.414 120.411C165.824 121.124 164.643 121.062 164.053 120.38C162.686 118.984 161.382 117.558 160.108 116.132C160.077 117.341 160.17 118.581 160.077 119.791C159.922 120.938 158.307 121.31 157.53 120.535C157.095 120.194 157.095 119.605 157.095 119.108C157.064 116.101 157.064 113.155 157.064 110.209ZM171.135 109.279C171.757 108.473 172.999 108.38 173.838 108.907C174.304 109.217 174.552 109.775 174.77 110.302C175.795 113.124 176.789 115.946 177.814 118.767C178 119.263 178.093 119.915 177.72 120.349C177.192 121.093 175.888 121.062 175.36 120.318C175.08 119.76 174.925 119.139 174.707 118.55C173.372 118.55 172.036 118.55 170.669 118.55C170.421 119.201 170.328 119.915 169.893 120.473C169.178 121.186 167.749 120.938 167.408 119.946C167.221 119.512 167.377 119.046 167.532 118.612C168.464 116.101 169.396 113.558 170.328 111.015C170.576 110.426 170.763 109.806 171.135 109.279ZM172.688 112.287C172.285 113.434 171.943 114.581 171.57 115.698C172.316 115.698 173.061 115.698 173.807 115.698C173.403 114.581 173.061 113.434 172.688 112.287ZM24.4599 109.124C24.8948 108.721 25.485 108.845 26.013 108.814C27.5972 108.845 29.1814 108.752 30.7655 108.845C32.0391 109.093 32.008 111.232 30.7655 111.512C29.492 111.698 28.2184 111.543 26.9449 111.574C26.9449 112.132 26.9449 112.721 26.9449 113.279C28.5601 113.279 30.4238 113.155 31.7285 114.271C33.002 115.387 33.1263 117.434 32.4429 118.891C31.8216 120.163 30.3617 120.814 28.9639 120.752C27.6904 120.721 26.3858 120.783 25.1122 120.721C24.3046 120.659 23.8697 119.791 23.9008 119.077C23.9008 116.194 23.9008 113.31 23.9008 110.426C23.9008 109.93 24.0251 109.403 24.4599 109.124ZM26.9138 116.008C26.9138 116.69 26.9138 117.403 26.9138 118.085C27.6283 118.054 28.3737 118.178 29.0571 117.961C29.7715 117.713 30.02 116.566 29.3056 116.194C28.5912 115.853 27.7214 116.039 26.9138 116.008ZM47.7565 111.387C46.7625 110.798 47.0421 108.969 48.2224 108.845C50.3347 108.814 52.4469 108.814 54.5591 108.814C55.7705 108.783 56.2365 110.519 55.3667 111.263C54.6834 111.791 53.7515 111.512 52.9749 111.574C52.9749 114.24 53.006 116.876 52.9439 119.543C52.9439 120.442 51.9499 121.062 51.1112 120.845C50.3657 120.752 49.8998 120.008 49.9619 119.294C49.9619 116.721 49.9619 114.147 49.9619 111.605C49.2475 111.543 48.4399 111.729 47.7565 111.387ZM69.1583 109.124C69.7796 108.597 70.6493 108.845 71.3948 108.783C72.7305 108.876 74.2214 108.504 75.3707 109.372C76.9549 110.395 77.0792 112.938 75.6503 114.147C76.5511 114.55 77.3277 115.325 77.514 116.318C77.6693 117.31 77.5762 118.364 76.986 119.201C76.3026 120.225 75.0601 120.752 73.8798 120.752C72.7305 120.752 71.6122 120.752 70.4629 120.752C69.997 120.752 69.4689 120.721 69.1273 120.38C68.6924 120.008 68.6613 119.387 68.6613 118.829C68.6613 116.101 68.6613 113.372 68.6613 110.674C68.6613 110.147 68.6924 109.496 69.1583 109.124ZM71.6743 111.449C71.6743 112.07 71.6743 112.659 71.6743 113.279C72.1092 113.279 72.5441 113.279 72.9479 113.248C73.5691 113.155 73.9108 112.256 73.4449 111.791C72.979 111.325 72.2645 111.512 71.6743 111.449ZM71.6743 116.008C71.6743 116.69 71.6743 117.403 71.6743 118.085C72.4198 118.054 73.1653 118.209 73.8798 117.961C74.5942 117.682 74.7495 116.535 74.0351 116.163C73.2896 115.884 72.4509 116.039 71.6743 116.008ZM90.0942 110.364C90.7775 109.248 92.1443 108.814 93.3868 108.814C94.5982 108.814 95.7786 108.783 96.99 108.814C97.6733 108.845 98.1703 109.527 98.1393 110.178C98.1393 113.341 98.1703 116.535 98.1082 119.698C97.9529 121.124 95.6543 121.248 95.2505 119.915C95.0952 118.798 95.2194 117.682 95.1884 116.566C94.1323 117.837 93.1072 119.139 92.02 120.38C91.3677 121.093 90.0321 120.938 89.6283 120.07C89.3487 119.543 89.4108 118.829 89.8457 118.426C90.6222 117.558 91.4299 116.752 92.2064 115.915C91.1192 115.605 90.0321 114.86 89.6904 113.713C89.3798 112.628 89.504 111.356 90.0942 110.364ZM93.2315 111.667C92.3617 112.008 92.3928 113.341 93.2004 113.713C93.8216 113.93 94.505 113.806 95.1573 113.837C95.1573 113.093 95.1573 112.318 95.1573 111.574C94.5361 111.605 93.8838 111.512 93.2315 111.667ZM104.818 111.449C103.73 110.953 103.917 108.969 105.159 108.845C107.365 108.814 109.57 108.814 111.776 108.845C112.987 109.093 113.142 110.984 112.024 111.48C111.341 111.698 110.626 111.574 109.912 111.605C109.912 114.271 109.943 116.938 109.912 119.605C109.881 120.783 108.359 121.279 107.489 120.628C106.992 120.287 106.93 119.636 106.899 119.077C106.899 116.597 106.899 114.085 106.899 111.605C106.215 111.543 105.501 111.698 104.818 111.449ZM113.639 110.426C113.608 109.744 113.981 108.907 114.726 108.814C116 108.752 117.305 108.814 118.578 108.783C119.106 108.814 119.727 108.659 120.162 109.093C120.97 109.775 120.628 111.387 119.51 111.512C118.547 111.605 117.584 111.512 116.652 111.574C116.652 112.163 116.652 112.752 116.652 113.31C117.646 113.372 118.702 113.186 119.665 113.434C120.69 113.899 120.659 115.543 119.634 115.977C118.64 116.194 117.646 116.039 116.652 116.07C116.652 116.69 116.652 117.31 116.652 117.93C117.708 117.961 118.765 117.837 119.821 117.992C121.125 118.302 121.032 120.473 119.696 120.69C118.174 120.752 116.683 120.69 115.161 120.721C114.354 120.814 113.577 120.101 113.639 119.263C113.639 116.349 113.639 113.403 113.639 110.426Z" fill="#F08B1F"/>
</g>
</g>
<rect x="0.5" y="0.5" width="199" height="119" stroke="black"/>
<defs>
<clipPath id="clip0_654_885">
<rect width="200" height="38" fill="white" transform="translate(0 41)"/>
</clipPath>
<clipPath id="clip1_654_885">
<rect width="155" height="80" fill="white" transform="translate(23 41)"/>
</clipPath>
</defs>
</svg>
