<?xml version="1.0" encoding="utf-8"?>
<!-- Generator: Adobe Illustrator 24.0.1, SVG Export Plug-In . SVG Version: 6.00 Build 0)  -->
<svg version="1.1" id="Слой_1" xmlns="http://www.w3.org/2000/svg" xmlns:xlink="http://www.w3.org/1999/xlink" x="0px" y="0px"
	 viewBox="0 0 200 120" style="enable-background:new 0 0 200 120;" xml:space="preserve">
<style type="text/css">
	.st0{fill-rule:evenodd;clip-rule:evenodd;fill:#DD0031;}
	.st1{fill-rule:evenodd;clip-rule:evenodd;}
</style>
<title>LOGO_HANSA_MONOCHROM_haushaltsgerate P199</title>
<desc>Created with Sketch.</desc>
<g id="Page-1">
	<g id="LOGO_HANSA_MONOCHROM_haushaltsgerate-P199" transform="translate(-1.000000, 0.000000)">
		<circle id="Oval" class="st0" cx="23.8" cy="52" r="6.4"/>
		<circle id="Oval_1_" class="st0" cx="39.6" cy="52" r="6.4"/>
		<circle id="Oval_2_" class="st0" cx="23.8" cy="67.9" r="6.4"/>
		<circle id="Oval_3_" class="st0" cx="39.6" cy="67.9" r="6.4"/>
		<polygon id="Shape" class="st1" points="74.1,46.3 84.7,46.3 84.7,73.8 74.1,73.8 74.1,63.6 67.1,63.6 67.1,73.8 56.6,73.8 
			56.6,46.3 67.1,46.3 67.1,55.8 74.1,55.8 		"/>
		<path id="Shape_1_" class="st1" d="M122,56.8h0.2c1.4-3.5,4.6-4,6.6-4c7,0,7.2,5.2,7.2,6.8v14.3h-9.9V61.9c0-1.1,0-2.8-1.7-2.8
			c-1.8,0-1.8,1.7-1.8,2.8v11.9h-9.9V53.2h9.4L122,56.8L122,56.8z"/>
		<path id="Shape_2_" class="st1" d="M138.4,67.4c1.7,0.7,4.4,1.6,7.3,1.6c2.6,0,3.6-0.5,3.6-1.4c0-1.3-2.4-1.2-3.7-1.5
			c-4.2-0.7-8.1-2-8.1-6.5c0-3.7,2.7-7,11.8-7c1.8,0,3.8,0.1,6.7,0.7c0.2,0,1.1,0.2,1.5,0.3v5.4c-1-0.3-1.2-0.4-1.5-0.4
			c-1.9-0.6-4-0.9-5.8-0.9c-1.5,0-3.4,0.1-3.4,1.4c0,0.8,1,1.1,3.2,1.3c3.5,0.4,8.5,1.1,8.5,6.3c0,2.6-1.7,7.4-11.8,7.4
			c-1.7,0-4.9-0.2-8.4-1.2V67.4z"/>
		<path id="Shape_3_" class="st1" d="M99.1,52.7c-2.9,0-6.6,0.4-9.7,1.3v5.4c3.7-1.5,7-1.6,7.2-1.6c2,0,4.8,0.4,4.8,2.5v0.6H100
			c-5.2,0-13.1,0.1-13.1,7.2c0,3.4,2.3,6.2,7.2,6.2c2.2,0,5.2-0.4,7.2-3h0.2v2.5h9V60.7C110.4,54.5,104.6,52.7,99.1,52.7z
			 M99.6,68.9c-1.3,0-2.3-1-2.3-2.3c0-1.3,1-2.3,2.3-2.3c1.3,0,2.3,1,2.3,2.3C101.8,67.9,100.8,68.9,99.6,68.9z"/>
		<path id="Shape_4_" class="st1" d="M172.3,52.7c-5.6,0-9.7,0.9-10.4,1.1v5.4c0.7-0.3,4.7-1.5,7.8-1.5c2,0,4.8,0.4,4.8,2.5v0.6
			h-1.4c-5.2,0-13.1,0.1-13.1,7.2c0,3.4,2.3,6.2,7.2,6.2c2.2,0,5.2-0.4,7.2-3h0.2v2.5h9V60.7C183.6,54.5,177.8,52.7,172.3,52.7z
			 M172.8,68.9c-1.3,0-2.3-1-2.3-2.3c0-1.3,1-2.3,2.3-2.3c1.3,0,2.3,1,2.3,2.3C175.1,67.9,174.1,68.9,172.8,68.9z"/>
	</g>
</g>
</svg>
