<?xml version="1.0" encoding="utf-8"?>
<!-- Generator: Adobe Illustrator 24.0.1, SVG Export Plug-In . SVG Version: 6.00 Build 0)  -->
<svg version="1.1" id="Слой_1" xmlns="http://www.w3.org/2000/svg" xmlns:xlink="http://www.w3.org/1999/xlink" x="0px" y="0px"
	 viewBox="0 0 200 120" style="enable-background:new 0 0 200 120;" xml:space="preserve">
<style type="text/css">
	.st0{fill:#00539B;}
</style>
<path class="st0" d="M191.5,45.2c0-2.3,1.8-4.1,4.1-4.1c1.1,0,2.1,0.4,2.9,1.2c0.8,0.8,1.2,1.8,1.2,2.9c0,1.1-0.4,2.1-1.2,2.9
	c-0.8,0.8-1.8,1.2-2.9,1.2C193.3,49.3,191.5,47.5,191.5,45.2 M191.2,45.2c0,2.5,2,4.5,4.4,4.5c1.2,0,2.3-0.4,3.1-1.3
	c0.8-0.9,1.3-2,1.3-3.2s-0.4-2.3-1.3-3.2s-1.9-1.3-3.1-1.3C193.1,40.7,191.2,42.7,191.2,45.2 M193.9,47.8h0.6v-2.1h1.4
	c0.2,0,0.4,0,0.6,0.1c0.2,0.1,0.3,0.3,0.3,0.6l0.1,0.8v0.4c0,0.1,0,0.1,0.1,0.1h0.8v-0.1c-0.1,0-0.1-0.1-0.2-0.3c0-0.1,0-0.2,0-0.4
	l0-0.6c0-0.3-0.1-0.5-0.1-0.6c-0.1-0.1-0.3-0.2-0.4-0.3c0.2-0.1,0.4-0.3,0.5-0.4s0.1-0.4,0.1-0.7c0-0.6-0.2-0.9-0.6-1.2
	c-0.2-0.1-0.5-0.1-0.9-0.1H194L193.9,47.8z M194.5,45.2v-1.7h1.5c0.2,0,0.4,0,0.5,0.1c0.2,0.1,0.3,0.4,0.3,0.7
	c0,0.3-0.1,0.6-0.3,0.7c-0.1,0.1-0.4,0.2-0.7,0.2H194.5z M18.1,51.3L0,79.8h12.4l17.4-27.2L18.1,51.3z M92.6,50.7V40.2H57.4
	c-4.8,0.3-6.9,2.6-8.5,4.2c-1.7,1.8-2.6,5.4-2.6,5.4v-9.6H27.6c-1.4,0-2.8,0.6-3.8,2c-1,1.4-5.3,8.5-5.3,8.5H92.6z M188.3,50.7V40.2
	h-37.6c-4.8,0.3-6.9,2.6-8.5,4.2c-1.7,1.8-2.6,5.4-2.6,5.4v0.9H188.3z M105,40.2H94.4v10.5H105V40.2z M139.5,40.2H129v10.5h10.5
	V40.2z M139.5,54.5l-10.4-0.6V66c0,0,0,3.5-3.4,3.5H108c0,0-3-0.3-3-3.5V52.2l-10.4-0.7v18.7c1.7,8.9,9.8,9.6,9.8,9.6s0.8,0,1,0.1
	h24c0,0,10.3-0.8,10.3-10.7L139.5,54.5z M35.6,79.8h49.2c8.6-1.7,9.5-9.5,9.5-9.5c0.4-2.3,0.2-4.2,0.2-4.2c-0.3-1.6-3.2-8.5-9.6-9.1
	c-3.8-0.4-38-3.1-38-3.1c0.7,3.4,2.2,5.2,3.2,6.1c2.4,2.3,6.1,2.9,6.1,2.9l26.3,2.2c0.8,0,2.3,0.3,2.3,2.3c0,0.3-0.2,2-2.2,2H45.9
	V53.8L35.7,53C35.6,53,35.6,79.8,35.6,79.8z M139.6,79.8h37.7c9.5-0.6,10.8-9.5,10.8-9.5c0.3-2.3,0.1-4.3,0.1-4.3
	c-0.3-2.1-3.3-8.5-9.7-9.2c-3.8-0.4-38.2-2.4-38.2-2.4c1,3.5,2.4,4.6,3.4,5.6c2.4,2.3,5.9,2.8,5.9,2.8c0.9,0.1,26.6,2.2,26.6,2.2
	c0.8,0,2.5,0.1,2.5,2.1c0,0.6-0.3,1.2-0.7,1.6c0,0-0.9,0.5-1.8,0.5h-36.6L139.6,79.8z"/>
</svg>
