<?xml version="1.0" encoding="utf-8"?>
<!-- Generator: Adobe Illustrator 24.0.1, SVG Export Plug-In . SVG Version: 6.00 Build 0)  -->
<svg version="1.1" id="Слой_1" xmlns="http://www.w3.org/2000/svg" xmlns:xlink="http://www.w3.org/1999/xlink" x="0px" y="0px"
	 viewBox="0 0 200 120" style="enable-background:new 0 0 200 120;" xml:space="preserve">
<path d="M162.3,59l21.1-13.9c0.8-0.5,0.5-1.5-0.4-1.5h-7.5c-0.5,0-0.9,0.1-1.2,0.4l-20.1,13.6V44.7c0-0.6-0.5-1.1-1.1-1.1h-4.9
	c-0.6,0-1.1,0.5-1.1,1.1v30.7c0,0.6,0.5,1.1,1.1,1.1h4.9c0.6,0,1.1-0.5,1.1-1.1V61.2l21.2,14.9c0.3,0.2,0.8,0.4,1.2,0.4h7.6
	c0.9,0,1.2-1.1,0.5-1.6L162.3,59z"/>
<path d="M97.1,63.2h-7.4v7.5h-23v-7.5h-7.4v6.9c0,4.3,2.2,6.4,7.1,6.4l0,0c0.3,0,23.4,0,23.7,0l0,0c4.9,0,7.1-1.9,7.1-6.4L97.1,63.2
	z"/>
<path d="M89.9,43.6L89.9,43.6c-0.3,0-23.4,0-23.7,0l0,0c-4.9,0-7.1,1.9-7.1,6.4v4.2v2.6h7.4v-7.5h22.9v7.5h7.4v-2.6V50
	C97.1,45.7,94.9,43.6,89.9,43.6"/>
<path d="M46.9,59.9L46.9,59.9L46.9,59.9c2.7-0.4,4.7-2.6,4.7-5.3V50c0-4.3-2.2-6.4-7.1-6.4H16.3c-0.6,0-1.2,0.6-1.2,1.2v30.3
	c0,0.8,0.6,1.3,1.2,1.3h27.3c5.4,0,8.3-2.2,8.3-6.5v-4.8C51.9,62.4,49.7,60.1,46.9,59.9 M22.1,49.2h19.6c1.9,0,2.9,0.9,2.9,2.8v2.5
	c0,1.8-1,2.7-2.9,2.7H22.1V49.2z M44.7,68.1c0,1.8-1,2.7-2.9,2.7H22.1v-8h19.7c1.9,0,2.9,0.9,2.9,2.8L44.7,68.1L44.7,68.1z"/>
<path d="M140.8,74.8l-12.7-10.8c0,0,4.2,0,4.3,0l0,0c4.9,0,7.1-1.9,7.1-6.4V50c0-4.3-2.2-6.4-7.1-6.4h-26.7c-0.7,0-1.3,0.6-1.3,1.3
	v30.5c0,0.6,0.5,1.1,1.1,1.1h4.9c0.6,0,1.1-0.5,1.1-1.1V64h6.9l0,0l14,11.9c0.4,0.3,0.8,0.5,1.4,0.5h6.5
	C141.2,76.4,141.6,75.4,140.8,74.8 M111.5,49.2h18c1.9,0,2.9,0.9,2.9,2.8v3.9c0,1.8-1,2.7-2.9,2.7h-18
	C111.5,58.6,111.5,49.2,111.5,49.2z"/>
</svg>
