<?xml version="1.0" encoding="utf-8"?>
<!-- Generator: Adobe Illustrator 24.0.1, SVG Export Plug-In . SVG Version: 6.00 Build 0)  -->
<svg version="1.1"
	 id="svg1956" inkscape:version="0.44" sodipodi:docbase="R:\Logos" sodipodi:docname="BenQ-Logo.svg" sodipodi:version="0.32" xmlns:cc="http://web.resource.org/cc/" xmlns:dc="http://purl.org/dc/elements/1.1/" xmlns:inkscape="http://www.inkscape.org/namespaces/inkscape" xmlns:rdf="http://www.w3.org/1999/02/22-rdf-syntax-ns#" xmlns:sodipodi="http://sodipodi.sourceforge.net/DTD/sodipodi-0.dtd" xmlns:svg="http://www.w3.org/2000/svg"
	 xmlns="http://www.w3.org/2000/svg" xmlns:xlink="http://www.w3.org/1999/xlink" x="0px" y="0px" viewBox="0 0 200 120"
	 style="enable-background:new 0 0 200 120;" xml:space="preserve">
<style type="text/css">
	.st0{fill:#482A91;}
</style>
<g id="layer1" transform="translate(48.00996,-536.7671)" inkscape:groupmode="layer" inkscape:label="Ebene 1">
	<g id="g2093" transform="translate(3.546199,3.545002)">
		<path id="path8" class="st0" d="M23.7,579.7c3.3,0,5.7,2.5,6.3,5.7H17.4C18,582.1,20.3,579.7,23.7,579.7 M23.8,570.7
			c-10.5,0-17.9,7.8-17.9,18.8v1.2c0,11.2,7.7,18.5,19.7,18.5c2.7,0,9.1,0,15.2-4.7v-8.2c-5,3.8-8.3,4.3-12.6,4.3
			c-6.3,0-10.3-2.5-11.1-8.1h24.3c0-0.6,0-1.2,0-1.7C41.7,577.9,33.6,570.7,23.8,570.7"/>
		<path id="path10" class="st0" d="M54.9,576.8c3.5-4.2,6.9-6,11.3-6c5.4,0,12.7,3.2,12.7,14.1v23.2H68v-21.5c0-5.2-2.3-7.4-5.4-7.4
			c-2.7,0-4.8,1.5-7.6,6.1v22.8H44v-36.3h11L54.9,576.8"/>
		<path id="path12" class="st0" d="M-20.4,600.1h9.1c2.3,0,4.4-0.8,4.4-3.8c0-2.8-2.1-3.8-4.4-3.8h-9.1V600.1 M-20.3,585.6h8.4
			c1.8,0,4.4-0.1,4.4-2.8c0-2.5-2.5-2.9-4.4-2.9h-8.4V585.6 M4.6,597.4c0,2.6-1,6-4.1,8.5c-3.1,2.3-6.3,2.5-9.2,2.5h-22.1V571h21.4
			c2.2,0,3.9,0,5.8,0.7c3.4,1.1,7.1,3.4,7.1,8.7c0,3.7-1.8,6.5-4.8,8.1c1,0.5,1.9,1,2.8,1.8C3,591.7,4.6,594,4.6,597.4"/>
		<path id="path14" class="st0" d="M106.6,598.3c-1.5,1.8-3.6,2.7-5.8,2.7c-2.9,0-5-1.3-6.6-3.6c-1.2-1.8-1.8-4.2-1.8-6.8
			c0-3.3,1.1-6.1,2.8-8.1c1.5-1.9,3.2-2.6,5.7-2.6c1.6,0,3.2,0.4,4.5,1.4c2.4,1.9,3.9,5.5,3.9,9.2
			C109.2,593.5,108.2,596.4,106.6,598.3 M109.9,607.3L109.9,607.3c6.5-2.4,11-8.7,11-17.4c0-14.3-11.2-19.4-19.9-19.4
			c-10.5,0-20,6.6-20,19.3c0,11.6,8.4,19.3,20,19.3c1.7,2,11,10,25,5.5l1.7-12.1C120.9,608.2,111.5,607.7,109.9,607.3"/>
	</g>
</g>
</svg>
