<svg width="200" height="120" viewBox="0 0 200 120" fill="none" xmlns="http://www.w3.org/2000/svg">
<g clip-path="url(#clip0_654_820)">
<mask id="mask0_654_820" style="mask-type:luminance" maskUnits="userSpaceOnUse" x="13" y="39" width="175" height="58">
<path d="M188 39.2095H13V96.6406H188V39.2095Z" fill="white"/>
</mask>
<g mask="url(#mask0_654_820)">
<path d="M52.3847 72.2204L49.5307 66.0765H49.4933L46.6779 72.2204H52.3847ZM36.9552 80.188L48.7046 55.1301C48.8178 54.9069 49.0803 54.7205 49.3428 54.7205H49.7186C49.9811 54.7205 50.2448 54.9069 50.3568 55.1301L62.1076 80.188C62.3327 80.673 62.0317 81.1555 61.4693 81.1555H57.3027C56.6259 81.1555 56.3261 80.9334 55.9877 80.225L54.6366 77.2832H44.4261L43.0737 80.262C42.8858 80.7086 42.4728 81.1555 41.7227 81.1555H37.5933C37.0298 81.1555 36.7287 80.673 36.9552 80.188Z" fill="black"/>
<path d="M77.2975 66.0127C78.8584 66.0127 80.1915 64.577 80.1915 62.9905C80.1915 61.4042 78.8584 60.1216 77.2975 60.1216H71.6615V66.0127H77.2975ZM65.6831 55.4377C65.6831 55.06 65.9881 54.7205 66.4076 54.7205H77.7929C82.3609 54.7205 86.0925 58.3834 86.0925 62.8783C86.0925 66.3522 83.77 69.1471 80.4577 70.4681L85.6744 80.0616C85.9406 80.5518 85.6742 81.1566 85.0271 81.1566H79.9624C79.6575 81.1566 79.4284 80.9679 79.3525 80.8171L74.289 70.8088H71.6615V80.4382C71.6615 80.8171 71.3191 81.1566 70.9382 81.1566H66.4076C65.9881 81.1566 65.6831 80.8171 65.6831 80.4382V55.4377Z" fill="black"/>
<path d="M89.5493 55.4376C89.5493 55.0597 89.8929 54.719 90.2738 54.719H94.8418C95.2227 54.719 95.5663 55.0597 95.5663 55.4376V80.4393C95.5663 80.8158 95.2227 81.1565 94.8418 81.1565H90.2738C89.8929 81.1565 89.5493 80.8158 89.5493 80.4393V55.4376Z" fill="black"/>
<path d="M103.426 55.3165C103.462 54.9809 103.8 54.7205 104.1 54.7205H104.701C104.89 54.7205 105.227 54.8685 105.339 55.0919L114.049 71.1777H114.124L122.833 55.0919C122.946 54.8685 123.283 54.7205 123.472 54.7205H124.072C124.373 54.7205 124.71 54.9809 124.749 55.3165L128.99 80.3373C129.066 80.821 128.728 81.1566 128.277 81.1566H123.848C123.51 81.1566 123.171 80.858 123.134 80.5606L121.445 69.0553H121.37L115.063 80.7521C114.95 80.9755 114.613 81.1617 114.425 81.1617H113.748C113.523 81.1617 113.223 80.9755 113.111 80.7521L106.766 69.0553H106.69L105.04 80.5606C105.002 80.858 104.701 81.1566 104.327 81.1566H99.8964C99.446 81.1566 99.1077 80.821 99.1835 80.3373L103.426 55.3165Z" fill="black"/>
<path d="M148.153 72.2204L145.3 66.0765H145.263L142.447 72.2204H148.153ZM132.725 80.188L144.474 55.1301C144.587 54.9069 144.85 54.7205 145.112 54.7205H145.488C145.751 54.7205 146.013 54.9069 146.126 55.1301L157.877 80.188C158.102 80.673 157.801 81.1555 157.239 81.1555H153.071C152.395 81.1555 152.096 80.9334 151.757 80.225L150.406 77.2832H140.196L138.843 80.262C138.655 80.7086 138.242 81.1555 137.492 81.1555H133.362C132.799 81.1555 132.498 80.673 132.725 80.188Z" fill="black"/>
<path d="M161.599 55.4523C161.599 55.0796 161.899 54.7454 162.312 54.7454H166.779C167.155 54.7454 167.492 55.0796 167.492 55.4523V75.6821H176.427C176.84 75.6821 177.14 76.0177 177.14 76.3904V80.4476C177.14 80.8203 176.84 81.1559 176.427 81.1559H162.312C161.899 81.1559 161.599 80.8203 161.599 80.4476V55.4523Z" fill="black"/>
<path d="M180.779 55.4523C180.779 55.0796 181.118 54.7454 181.492 54.7454H185.997C186.371 54.7454 186.711 55.0796 186.711 55.4523V80.4476C186.711 80.8203 186.371 81.1559 185.997 81.1559H181.492C181.118 81.1559 180.779 80.8203 180.779 80.4476V55.4523Z" fill="black"/>
<path d="M26.9661 52.7292C23.1071 56.5566 20.7085 61.8287 20.6635 67.6573C20.5709 79.4959 30.6565 89.1827 42.5939 89.1827H185.98C186.386 89.1827 186.714 89.5081 186.714 89.9113V94.6232C186.714 95.0252 186.386 95.352 185.98 95.352H41.9389C26.6676 95.352 14.2876 83.0732 14.2876 67.9229C14.2876 60.3495 17.3848 53.4923 22.3839 48.5329C27.3933 43.5656 34.6391 40.4976 42.2747 40.4976H48.5296C48.9364 40.4976 49.2645 40.8243 49.2645 41.2276V45.748C49.2645 46.15 48.9364 46.4768 48.5296 46.4768H42.5295C36.5846 46.4768 30.8625 48.8646 26.9661 52.7292Z" fill="black"/>
</g>
</g>
<rect x="0.5" y="0.5" width="199" height="119" stroke="black"/>
<defs>
<clipPath id="clip0_654_820">
<rect width="175" height="73" fill="white" transform="translate(13 24)"/>
</clipPath>
</defs>
</svg>
