<?xml version="1.0" encoding="utf-8"?>
<!-- Generator: Adobe Illustrator 24.0.1, SVG Export Plug-In . SVG Version: 6.00 Build 0)  -->
<svg version="1.1" id="Слой_1" xmlns="http://www.w3.org/2000/svg" xmlns:xlink="http://www.w3.org/1999/xlink" x="0px" y="0px"
	 viewBox="0 0 200 120" style="enable-background:new 0 0 200 120;" xml:space="preserve">
<style type="text/css">
	.st0{fill:#FFFFFF;}
</style>
<path d="M57.4,64.7c0,1.8-1.1,3.1-3.3,4c-1.7,0.7-3.8,1-6.3,1H37.5c-2.7,0-4.9-0.3-6.7-0.9c-2.5-0.8-3.8-2.2-3.8-4v-9.9
	c0-1.8,1.3-3.1,3.8-3.9c2-0.6,4.3-1,6.7-1h4.1c1.1,0,1.6,0.5,1.6,1.5c0,1-0.5,1.5-1.6,1.5h-1.2c-0.1,0-0.2,0-0.2,0
	c-0.3,0-0.6,0-0.8,0c-0.2,0-0.4,0-0.6,0c-4.8,0-7.3,0.7-7.3,2v9.9c0,1.3,2,2,6.1,2h10.2c1,0,2-0.1,3.1-0.4c1.4-0.4,2.1-0.9,2.1-1.5
	v-2.1h-6.3c-0.8,0-1.5-0.7-1.5-1.6c0-0.9,0.7-1.6,1.5-1.6h7.6c0.4,0,0.9,0,1.6,0c1.1,0,1.6,0.4,1.6,1.3V64.7 M83.9,64.8v-6
	c0-1.2-1.7-1.9-5.3-1.9h-7c-1.3,0-2.4,0.1-3.5,0.4c-1.5,0.4-2.2,1-2.2,1.7v5.7c0,0.7,0.7,1.3,2.2,1.6c1,0.2,2.2,0.3,3.5,0.3h6.9
	c1.1,0,2.1-0.1,3.2-0.4C83.2,66.1,83.9,65.5,83.9,64.8 M88.3,64.8c0,1.8-1.1,3.1-3.3,3.9c-1.5,0.6-3.6,1-6.2,1h-7.1
	c-2.4,0-4.5-0.3-6.4-1c-2.4-0.8-3.5-2.1-3.5-3.9v-5.7c0-1.7,1.2-3.1,3.5-4c1.7-0.7,3.9-1,6.4-1h7.1c6.3,0,9.5,1.6,9.5,5L88.3,64.8
	L88.3,64.8z M140,55.7c0,0.9-0.7,1.3-1.9,1.3c-0.2,0-0.4,0-0.7,0h-0.8c-3.3,0-4.9,0.6-4.9,2v9.5c0,0.6-0.3,1-0.9,1.2
	c-0.3,0.1-0.9,0.1-1.9,0.1c-1,0-1.5-0.4-1.5-1.3v-9.5c0-2.1,1.3-3.4,3.9-4.2c1.6-0.5,3.9-0.7,7.1-0.7C139.4,54.1,140,54.6,140,55.7
	 M165.1,64.8v-6c0-1.2-1.7-1.9-5.3-1.9h-7c-1.3,0-2.4,0.1-3.5,0.4c-1.5,0.4-2.2,1-2.2,1.7v5.7c0,0.7,0.7,1.3,2.2,1.6
	c1,0.2,2.2,0.3,3.5,0.3h6.9c1.1,0,2.2-0.1,3.2-0.4C164.4,66.1,165.1,65.5,165.1,64.8 M169.4,64.8c0,1.8-1.1,3.1-3.3,3.9
	c-1.5,0.6-3.6,1-6.2,1h-7.1c-2.4,0-4.5-0.3-6.4-1c-2.4-0.8-3.5-2.1-3.5-3.9v-5.7c0-1.7,1.2-3.1,3.5-4c1.7-0.7,3.9-1,6.4-1h7.1
	c6.3,0,9.5,1.6,9.5,5L169.4,64.8L169.4,64.8L169.4,64.8z M119,57.2v-2.7c0-1.1-2-1.7-5.9-1.7H97.2v6.9h15.9
	C117,59.6,119,58.8,119,57.2 M123.5,57.3c0,2-1.2,3.4-3.7,4.3c-1.9,0.6-4.2,0.9-6.9,0.9H97.2v5.8c0,0.6-0.3,1-1,1.2
	c-0.2,0.1-0.8,0.1-2,0.1c-1,0-1.6-0.4-1.6-1.3V51.1c0-0.8,0.5-1.3,1.6-1.3h18.8c2.5,0,4.7,0.3,6.5,0.8c2.6,0.8,3.9,2,3.9,3.6
	L123.5,57.3L123.5,57.3z"/>
<path class="st0" d="M171.3,69.6h0.5c0.1,0,0.2,0,0.2,0c0.1,0,0.1-0.1,0.1-0.1c0,0,0-0.1,0-0.2c0-0.1,0-0.1-0.1-0.2
	c-0.1-0.1-0.2-0.1-0.3-0.1h-0.5L171.3,69.6"/>
</svg>
