<?xml version="1.0" encoding="utf-8"?>
<!-- Generator: Adobe Illustrator 24.0.1, SVG Export Plug-In . SVG Version: 6.00 Build 0)  -->
<svg version="1.1" id="logo" xmlns="http://www.w3.org/2000/svg" xmlns:xlink="http://www.w3.org/1999/xlink" x="0px" y="0px"
	 viewBox="0 0 200 120" style="enable-background:new 0 0 200 120;" xml:space="preserve">
<style type="text/css">
	.st0{fill-rule:evenodd;clip-rule:evenodd;fill:#531C5D;}
</style>
<g>
	<path class="st0" d="M37,52.1l0,9c0,6.3-4.9,11.5-10.9,11.5c-6,0-10.9-5.1-10.9-11.5c0-1.9,0-5.3,0-8.6l8.1,5.3l2.9,1.9l2.9-2
		L37,52.1L37,52.1z M42.3,41.6L26.1,53.2L9.9,42.4c0,0,0,14,0,18.7c0,9.4,7.3,17,16.2,17c9,0,16.2-7.6,16.2-17
		C42.3,56.8,42.3,41.6,42.3,41.6L42.3,41.6z M103,73.3V47.9c0.3,0,0.6-0.1,0.8-0.1c6.4,0,12.8,0,19.2,0c2.5,0,4.8,0.6,6.8,2.4
		c3,2.7,3.1,7.4,0.2,9.6c-0.1,0.1-0.2,0.1-0.4,0.2c0.6,0.5,1.1,0.8,1.6,1.2c3.3,2.9,2.8,8.2-1,10.6c-1.6,1-3.3,1.5-5,1.5
		c-7.2,0-14.5,0-21.7,0C103.3,73.4,103.2,73.4,103,73.3 M108.9,68.4c0.2,0,0.4,0.1,0.6,0.1c4.7,0,9.3,0,14,0c0.6,0,1.1-0.1,1.7-0.2
		c1.3-0.3,2.1-1.2,2.2-2.4c0.1-1.2-0.6-2.4-1.8-2.8c-0.7-0.3-1.5-0.4-2.2-0.4c-4.5,0-9,0-13.5,0h-1V68.4 M108.9,57.8
		c5.1,0,10.1,0,15.1,0c1.1,0,1.9-0.9,2.1-2c0.3-1.7-0.7-3-2.6-3c-4.6,0-9.2,0-13.8,0c-0.3,0-0.5,0.1-0.8,0.1L108.9,57.8 M67.5,73.3
		V47.9c0.3,0,0.6-0.1,0.9-0.1c6.2,0,12.5-0.1,18.7,0c1.5,0,3,0.3,4.4,0.8c3.3,1.1,5.1,4,5.1,7.7c0,3.8-1.6,6.1-5,7.4
		c-0.1,0-0.2,0.1-0.5,0.2l6.1,9.5c-2.2,0-4.3,0-6.3,0c-0.3,0-0.6-0.3-0.8-0.6c-1.7-2.6-3.4-5.2-5.1-7.7c-0.2-0.3-0.6-0.6-0.9-0.6
		c-3.5,0-7,0-10.6,0v8.9C73.4,73.3,67.5,73.3,67.5,73.3z M73.4,59.4c1.3,0,2.5,0,3.7,0c3.5,0,7,0,10.4-0.1c2.4-0.1,3.8-2.4,2.9-4.6
		c-0.6-1.5-1.9-2-3.3-2c-4.4,0-8.8,0-13.2,0c-0.2,0-0.3,0.1-0.5,0.1L73.4,59.4L73.4,59.4z M180.2,50.7l-3.3,4.1
		c-2.1-0.7-4-1.6-6.1-2.1c-3.1-0.8-6.3-0.8-9.5-0.1c-0.7,0.1-1.4,0.4-2,0.8c-0.4,0.3-0.9,1-0.8,1.6c0,0.5,0.6,1.2,1,1.3
		c1.7,0.4,3.4,0.7,5.1,0.9c3.3,0.4,6.6,0.7,9.9,1.1c0.8,0.1,1.7,0.5,2.5,0.8c5.2,2,4.8,8.6,1.9,11.4c-1.9,1.8-4.1,2.7-6.6,3.1
		c-5.7,0.9-11.4,0.6-16.8-1.7c-1.6-0.7-3.1-1.6-4.7-2.5c1.2-1.5,2.2-2.9,3.1-4c2.8,1.1,5.5,2.3,8.2,3.1c3.2,0.9,6.4,1,9.6-0.1
		c0.9-0.3,1.7-0.8,2.3-1.4c1.1-1.1,0.8-2.7-0.7-3.2c-1.1-0.4-2.4-0.6-3.6-0.6c-3.9-0.3-7.9-0.2-11.8-1.3c-0.8-0.2-1.6-0.5-2.3-0.9
		c-4.8-2.3-4.3-8.1-1.1-10.7c1.9-1.5,4-2.3,6.3-2.6c4.7-0.6,9.4-0.6,13.9,0.9C176.6,49,178.3,49.9,180.2,50.7 M53.7,73.3h5.7V47.8
		h-5.7L53.7,73.3z M139.2,73.3h5.8V47.9h-5.8V73.3z M187,53.9L187,53.9c-1.6,0-2.9,1.4-2.9,3c0,1.7,1.3,3,2.9,3c1.6,0,2.9-1.4,2.9-3
		C189.9,55.3,188.6,53.9,187,53.9 M187,59.4c-1.3,0-2.3-1.1-2.3-2.4c0-1.3,1-2.4,2.3-2.4v0c1.3,0,2.3,1.1,2.3,2.4
		C189.3,58.3,188.3,59.4,187,59.4"/>
	<path class="st0" d="M186.6,55.9v0.8h0.4c0.1,0,0.2,0,0.3,0c0.1,0,0.1-0.1,0.2-0.1c0.1-0.1,0.1-0.2,0.1-0.2c0-0.1,0-0.2-0.1-0.2
		c0-0.1-0.1-0.1-0.2-0.1c-0.1,0-0.2,0-0.3,0H186.6L186.6,55.9z M186.6,57.3v1.2h-0.7v-3.1h1.3c0.2,0,0.4,0,0.6,0.1
		c0.1,0.1,0.3,0.2,0.4,0.3c0.1,0.2,0.1,0.3,0.1,0.5c0,0.4-0.2,0.6-0.5,0.8l0.5,1.4h-0.8l-0.5-1.2L186.6,57.3L186.6,57.3z"/>
</g>
</svg>
