<?xml version="1.0" encoding="utf-8"?>
<!-- Generator: Adobe Illustrator 24.0.1, SVG Export Plug-In . SVG Version: 6.00 Build 0)  -->
<svg version="1.1" id="Слой_1" xmlns="http://www.w3.org/2000/svg" xmlns:xlink="http://www.w3.org/1999/xlink" x="0px" y="0px"
	 viewBox="0 0 200 120" style="enable-background:new 0 0 200 120;" xml:space="preserve">
<style type="text/css">
	.st0{fill:url(#SVGID_1_);}
	.st1{fill:url(#SVGID_2_);}
	.st2{fill:url(#SVGID_3_);}
	.st3{fill:url(#SVGID_4_);}
	.st4{fill:url(#SVGID_5_);}
	.st5{fill:url(#SVGID_6_);}
	.st6{fill:url(#SVGID_7_);}
	.st7{clip-path:url(#SVGID_9_);fill:#CC171E;}
	.st8{clip-path:url(#SVGID_11_);fill:#FBD5D7;}
	.st9{clip-path:url(#SVGID_13_);fill:url(#SVGID_14_);}
	.st10{clip-path:url(#SVGID_16_);fill:url(#SVGID_17_);}
	.st11{clip-path:url(#SVGID_19_);fill:url(#SVGID_20_);}
	.st12{clip-path:url(#SVGID_22_);fill:url(#SVGID_23_);}
	.st13{clip-path:url(#SVGID_25_);fill:url(#SVGID_26_);}
	.st14{clip-path:url(#SVGID_28_);fill:url(#SVGID_29_);}
</style>
<linearGradient id="SVGID_1_" gradientUnits="userSpaceOnUse" x1="1584.9271" y1="-974.3761" x2="1584.9271" y2="-975.4612" gradientTransform="matrix(5.1808 0 0 5.1808 -8118.9316 5079.918)">
	<stop  offset="0" style="stop-color:#780A0B"/>
	<stop  offset="1" style="stop-color:#ED1C24"/>
</linearGradient>
<path class="st0" d="M84.2,31.9h-0.6v-1.8c0-0.1,0-0.1,0-0.1l0-0.1l0,0l0,0c0,0,0-0.1,0-0.1c0,0,0-0.1,0-0.1l0,0l0-0.1l0-0.1h0l0,0
	l0,0l0-0.1l0,0l0,0l0,0l0,0l0.1-0.1c0,0,0,0,0,0l0,0l0,0l0,0c0,0,0,0,0.1,0l0.1,0l0,0l0.1,0l0.1,0l0.1-0.1l0.1,0c0,0,0.1,0,0.1-0.1
	l0.1-0.1l0.1-0.1l0.1-0.1h0l0,0l0.1-0.1l0.1,0l0.1,0l0.1,0l0.1,0l0.1,0l0.1,0c0.1,0,0.2-0.1,0.3-0.1c0,0,0,0,0.1,0l0.1,0l0.1,0
	l0.2-0.1c0,0,0,0,0,0l0,0c0.1-0.1,0.3-0.1,0.4-0.2l0,0l0.1,0c0.1,0,0.2-0.1,0.4-0.1c0.2-0.1,0.3-0.1,0.5-0.2c0,0,0.1,0,0.1,0l0,0
	c0.2-0.1,0.4-0.1,0.6-0.2l0.1,0l0.1,0l0.1,0c0.2-0.1,0.5-0.2,0.7-0.2c0.2-0.1,0.5-0.1,0.7-0.2l0.1,0l0.1,0l0.1,0
	c0.2,0,0.4-0.1,0.6-0.1l0,0c0,0,0.1,0,0.1,0c0.1,0,0.2,0,0.3,0c0.4-0.1,0.7-0.1,1.1-0.1h0.2c0.3,0,0.6,0,1,0.1
	c0.4,0,0.8,0.1,1.3,0.2c0.5,0.1,0.9,0.2,1.4,0.4c0.5,0.2,1,0.3,1.6,0.6c0.5,0.2,1,0.4,1.4,0.6c0.4,0.2,0.8,0.4,1.1,0.6
	c0.3,0.2,0.5,0.4,0.7,0.6c0.2,0.2,0.3,0.5,0.3,0.7v1.8h-0.6c0-0.1,0-0.2-0.1-0.3c-0.1-0.2-0.3-0.3-0.5-0.5c-0.3-0.2-0.7-0.4-1-0.6
	c-0.5-0.2-0.9-0.4-1.4-0.6c-0.5-0.2-1-0.4-1.5-0.5c-0.4-0.1-0.9-0.3-1.3-0.4c-0.4-0.1-0.8-0.2-1.2-0.2c-0.3,0-0.6-0.1-0.9-0.1H92
	c-0.3,0-0.7,0-1,0.1c-0.3,0.1-0.6,0.1-0.9,0.2l-0.1,0c-0.1,0-0.1,0-0.2,0c-0.2,0.1-0.4,0.1-0.6,0.2c-0.2,0.1-0.5,0.1-0.7,0.2
	l-0.2,0.1l-0.1,0c-0.2,0.1-0.4,0.1-0.6,0.2c-0.2,0.1-0.4,0.2-0.6,0.2l-0.4,0.1l0,0c-0.2,0.1-0.3,0.1-0.4,0.2l-0.1,0L86,30.5l0,0
	l-0.1,0l-0.1,0c-0.1,0-0.2,0.1-0.2,0.1l0,0l-0.2,0.1l-0.1,0c-0.1,0-0.1,0.1-0.2,0.1C85,31,85,31,84.9,31.1c-0.1,0-0.1,0.1-0.2,0.1
	c0,0-0.1,0.1-0.1,0.1c0,0-0.1,0.1-0.1,0.1c0,0-0.1,0.1-0.1,0.1c0,0-0.1,0.1-0.1,0.1c0,0,0,0.1-0.1,0.1c0,0,0,0.1,0,0.1
	C84.2,31.8,84.2,31.8,84.2,31.9C84.2,31.9,84.2,31.9,84.2,31.9L84.2,31.9z"/>
<linearGradient id="SVGID_2_" gradientUnits="userSpaceOnUse" x1="1583.2095" y1="-973.0466" x2="1583.2095" y2="-974.6278" gradientTransform="matrix(5.1808 0 0 5.1808 -8118.9316 5079.918)">
	<stop  offset="0" style="stop-color:#780A0B"/>
	<stop  offset="1" style="stop-color:#ED1C24"/>
</linearGradient>
<path class="st1" d="M63.5,38.8L63.5,38.8c-0.3,0-0.6,0-0.9-0.1c-0.3-0.1-0.5-0.2-0.8-0.3l-1.2-0.8c-0.1-0.1-0.2-0.1-0.2-0.2
	c0-0.1,0-0.1,0-0.2l0-2.1l1.8,1c0.2,0.1,0.4,0.2,0.6,0.3c0.2,0.1,0.4,0.1,0.7,0.1c0.2,0,0.3,0,0.5,0c0.1,0,0.3,0,0.4-0.1
	c0.1,0,0.3-0.1,0.5-0.1l0.1,0c0.2,0,0.3-0.1,0.5-0.2l11.6-4.4l0,0l0.1,0l0.1,0l0,0l0,0l0.1,0c0,0,0,0,0.1,0l0,0l0,0l0.1,0l0,0
	c0,0,0,0,0.1,0l0,0l0,0c0.1,0,0.2,0,0.2,0l0.1,0c0.1,0,0.2,0,0.3,0c0.8,0,2,0.2,3.4,1.3c0.3,0.2,0.8,0.5,1.2,0.7
	c0,0,0.1,0.1,0.3,0.2c0.2,0.1,0.5,0.3,0.6,0.3l0.2,0.1c1.3,0.7,2.6,1.3,3.9,1.7c1.5,0.4,3,0.6,4.5,0.6l0.2,0l0.2,0c0.3,0,0.6,0,1,0
	c0.1,0,0.1,0,0.2,0l0.1,0c0.2,0,0.4,0,0.7-0.1l0.2,0l0.1,0c0.2,0,0.4-0.1,0.6-0.1c0.4-0.1,0.8-0.1,1.3-0.2c0.1,0,0.3-0.1,0.4-0.1
	l0.1,0l0.1,0c0.1,0,0.3-0.1,0.4-0.1l0.1,0l0,0c0.2-0.1,0.3-0.1,0.5-0.2c0.1,0,0.2-0.1,0.3-0.1l0.1,0l0.1,0l0.1,0
	c0.2-0.1,0.5-0.2,0.7-0.3l0.2-0.1c0.4-0.2,0.8-0.4,1.2-0.6l0.1-0.1c0.2-0.1,0.3-0.1,0.4-0.2c0.2-0.1,0.4-0.2,0.5-0.3l0,0l0,0l0,0
	c0.4-0.2,0.9-0.5,1.3-0.7l0.1,0c0.1-0.1,0.2-0.1,0.3-0.2l0.1,0c0.1-0.1,0.2-0.1,0.3-0.2l0,0c0.1-0.1,0.2-0.1,0.3-0.2
	c0.2-0.1,0.3-0.3,0.5-0.4c0.1-0.1,0.1-0.1,0.2-0.2c0.1-0.1,0.2-0.2,0.2-0.4c0-0.1,0-0.1,0.1-0.2c0-0.1,0.1-0.2,0.1-0.3l0.6,0v1.8
	c0,0.1,0,0.1,0,0.2c0,0,0,0.1,0,0.1c0,0,0,0,0,0.1l0,0.1c0,0,0,0,0,0.1l0,0l0,0.1l0,0.1l0,0c0,0,0,0.1,0,0.1l0,0l0,0l0,0l0,0.1l0,0
	c0,0,0,0.1-0.1,0.1l0,0.1l0,0l0,0c0,0,0,0.1-0.1,0.1l-0.1,0.1l-0.1,0.1l0,0l0,0l0,0l0,0v0l0,0c0,0-0.1,0.1-0.1,0.1l-0.1,0.1l0,0l0,0
	l0,0l0,0l-0.1,0l-0.1,0.1l0,0l0,0l0,0l0,0l0,0l-0.1,0c0,0-0.1,0.1-0.1,0.1l-0.1,0l0,0l0,0l-0.1,0.1l-0.2,0.1l-0.1,0l-0.1,0.1l0,0
	l0,0c-0.1,0-0.1,0.1-0.2,0.1c-0.2,0.1-0.3,0.2-0.5,0.3l0,0l0,0c-0.1,0.1-0.3,0.2-0.4,0.2c-0.2,0.1-0.3,0.2-0.5,0.3l-0.1,0
	c-0.2,0.1-0.4,0.2-0.6,0.3l-0.1,0c-0.1,0.1-0.2,0.1-0.4,0.2l-0.3,0.1c-0.4,0.2-0.7,0.3-1.1,0.5l-0.1,0l0,0l0,0l0,0
	c-0.2,0.1-0.5,0.2-0.7,0.3l-0.1,0l0,0c-0.2,0.1-0.3,0.1-0.5,0.2c-0.2,0.1-0.4,0.1-0.5,0.2l-0.1,0l0,0l-0.1,0c-0.1,0-0.2,0.1-0.3,0.1
	l-0.1,0c-0.1,0-0.1,0-0.2,0l0,0l-0.1,0c-0.1,0-0.1,0-0.2,0c-0.1,0-0.2,0-0.2,0.1c-0.2,0.1-0.5,0.1-0.7,0.1c0,0-0.1,0-0.1,0l-0.1,0
	c-0.1,0-0.3,0-0.4,0.1c-0.2,0-0.4,0.1-0.7,0.1c-0.1,0-0.2,0-0.4,0c-0.2,0-0.5,0-0.7,0.1l-0.1,0c-0.4,0-0.8,0-1.2,0l-0.2,0l-0.2,0
	c-1.6,0-3.1-0.2-4.6-0.6c-1.4-0.4-2.8-1.1-4.1-1.7l-0.3-0.1c-0.3-0.1-0.6-0.3-0.8-0.4c-0.4-0.2-0.9-0.5-1.3-0.7
	c-1.3-1-2.3-1.2-3-1.2c-0.1,0-0.2,0-0.3,0l-0.1,0c-0.1,0-0.1,0-0.2,0l-0.1,0l-0.1,0l0,0l-0.1,0l-0.1,0l0,0l0,0l-11.6,4.4l0,0l-0.1,0
	c-0.1,0-0.2,0.1-0.3,0.1l-0.1,0l0,0l-0.1,0l-0.1,0c-0.1,0-0.2,0.1-0.3,0.1l-0.1,0h0l0,0c-0.1,0-0.1,0-0.2,0c0,0-0.1,0-0.1,0l-0.1,0
	l0,0l-0.1,0C63.8,38.8,63.7,38.8,63.5,38.8L63.5,38.8z"/>
<linearGradient id="SVGID_3_" gradientUnits="userSpaceOnUse" x1="1589.2296" y1="-972.4009" x2="1589.2296" y2="-973.825" gradientTransform="matrix(5.1808 0 0 5.1808 -8118.9316 5079.918)">
	<stop  offset="0" style="stop-color:#780A0B"/>
	<stop  offset="1" style="stop-color:#ED1C24"/>
</linearGradient>
<path class="st2" d="M125.1,42.1h-0.6c0-0.1,0-0.1,0-0.2c-0.1-0.2-0.2-0.4-0.4-0.6c-0.2-0.2-0.6-0.5-1-0.7c-0.5-0.3-1-0.6-1.5-0.8
	c-0.7-0.3-1.3-0.6-2-0.9c-0.7-0.3-1.4-0.5-2.1-0.8c-0.6-0.2-1.2-0.4-1.8-0.5c-0.5-0.1-1-0.2-1.6-0.3c-0.4-0.1-0.8-0.1-1.2-0.1h-0.1
	c-0.4,0-0.7,0-1.2,0.1c-0.2,0-0.4,0.1-0.6,0.1c-0.2,0.1-0.4,0.1-0.7,0.2c-0.2,0.1-0.4,0.1-0.6,0.2l-0.1,0l-0.1,0
	c-0.2,0.1-0.4,0.2-0.7,0.3c-0.2,0.1-0.4,0.2-0.7,0.3l-0.3,0.2c-0.2,0.1-0.4,0.2-0.6,0.3L107,39l-0.2,0.1l-0.1,0.1
	c-0.1,0-0.1,0.1-0.2,0.1l-0.1,0.1l-0.1,0.1l-0.1,0l0,0c-0.1,0.1-0.2,0.1-0.3,0.2c-0.2,0.2-0.5,0.3-0.7,0.5c-0.1,0.1-0.1,0.1-0.2,0.2
	c-0.1,0.1-0.2,0.2-0.3,0.3c-0.1,0.1-0.1,0.2-0.2,0.3c0,0.1-0.1,0.1-0.1,0.2c0,0.1,0,0.1,0,0.2h-0.6v-1.8l0,0c0,0,0-0.1,0-0.1
	c0-0.1,0-0.1,0-0.1v0c0,0,0,0,0,0c0,0,0-0.1,0-0.1l0,0c0,0,0,0,0-0.1l0,0l0-0.1l0-0.1l0,0l0,0l0,0l0,0c0,0,0-0.1,0-0.1
	c0,0,0,0,0-0.1l0-0.1c0,0,0,0,0-0.1l0-0.1l0-0.1l0-0.1c0,0,0-0.1,0.1-0.1c0,0,0,0,0.1-0.1l0-0.1l0.1-0.1l0.1-0.1l0,0
	c0,0,0.1-0.1,0.1-0.1l0.1-0.1l0.1-0.1l0,0l0.1-0.1l0.1,0l0.1-0.1l0.1,0l0,0l0,0l0,0c0.1,0,0.2-0.1,0.2-0.1l0.1,0l0.1,0l0.1,0
	l0.1-0.1l0,0c0.1,0,0.1-0.1,0.2-0.1l0,0l0.1,0l0.3-0.1l0,0l0.1,0l0.1,0l0.1,0c0.1-0.1,0.2-0.1,0.3-0.2l0.1-0.1l0.1-0.1
	c0.1-0.1,0.2-0.1,0.3-0.2l0.1,0l0.1,0c0.2-0.1,0.3-0.2,0.5-0.2c0.2-0.1,0.4-0.2,0.6-0.2l0.1,0l0.2-0.1l0.1,0l0.1,0
	c0.1,0,0.1,0,0.2-0.1c0.1,0,0.2-0.1,0.3-0.1l0.2,0c0.2-0.1,0.3-0.1,0.5-0.1l0,0c0.2-0.1,0.4-0.1,0.6-0.1c0,0,0,0,0.1,0
	c0.4-0.1,0.8-0.1,1.2-0.1h0.2c0.4,0,0.8,0,1.3,0.1c0.5,0.1,1,0.2,1.6,0.3c0.6,0.1,1.2,0.3,1.9,0.6c0.7,0.2,1.4,0.5,2.2,0.8
	c0.7,0.3,1.4,0.6,2.1,0.9c0.5,0.3,1.1,0.5,1.6,0.9c0.5,0.3,0.8,0.6,1.1,0.8c0.3,0.3,0.5,0.6,0.6,0.8c0,0.1,0.1,0.2,0.1,0.4V42.1
	L125.1,42.1z"/>
<linearGradient id="SVGID_4_" gradientUnits="userSpaceOnUse" x1="1591.0374" y1="-970.7091" x2="1591.0374" y2="-972.5255" gradientTransform="matrix(5.1808 0 0 5.1808 -8118.9316 5079.918)">
	<stop  offset="0" style="stop-color:#780A0B"/>
	<stop  offset="1" style="stop-color:#ED1C24"/>
</linearGradient>
<path class="st3" d="M118.3,50.9c-0.8,0-1.5,0-2.3-0.1l-0.3,0v-2.4l0.3,0c1.1,0.1,2.2,0.1,3.3,0.1c0.2,0,0.5,0,0.7-0.1
	c0.1,0,0.1,0,0.2,0c0.2,0,0.3,0,0.5-0.1l0.2,0c0.2,0,0.3-0.1,0.5-0.1l0.1,0l0.1,0c0.2,0,0.5-0.1,0.7-0.1c0.2,0,0.3-0.1,0.5-0.1
	c0.1,0,0.3-0.1,0.4-0.1c0.1,0,0.3-0.1,0.4-0.1l0.1,0l0.2-0.1c0.2-0.1,0.3-0.1,0.5-0.2l0.1,0l0,0c0.7-0.2,1.3-0.5,1.9-0.9l0,0l0,0
	c0.2-0.1,0.4-0.2,0.5-0.3l0.1,0c0.2-0.1,0.4-0.2,0.6-0.4c0.2-0.1,0.3-0.2,0.5-0.3l0,0l0.1-0.1c0.1-0.1,0.3-0.2,0.4-0.3l0,0
	c0.1-0.1,0.3-0.2,0.4-0.3l0,0l0,0c0.1-0.1,0.3-0.2,0.4-0.3c0.1-0.1,0.2-0.2,0.3-0.3l0,0c0.1-0.1,0.2-0.2,0.3-0.3
	c0.2-0.2,0.4-0.4,0.5-0.6c0.1-0.1,0.1-0.2,0.2-0.3c0.1-0.1,0.1-0.2,0.2-0.3c0-0.1,0.1-0.2,0.1-0.3c0-0.1,0.1-0.2,0.1-0.3
	c0-0.1,0-0.1,0-0.2l0-0.1v0l0,0c0,0,0-0.1,0-0.1h0.6v1.8l0,0.1l0,0.1l0,0c0,0,0,0.1,0,0.1c0,0.1,0,0.1,0,0.2v0l0,0l0,0.1l0,0.1
	l0,0.1l0,0c0,0.1,0,0.1,0,0.1l0,0.1l0,0l0,0l0,0.1l0,0.1v0l0,0c0,0,0,0.1-0.1,0.1c0,0,0,0.1-0.1,0.1l0,0.1l0,0c0,0,0,0.1-0.1,0.1
	l-0.1,0.1c0,0,0,0,0,0.1l-0.1,0.1l-0.1,0.1l-0.1,0.1l0,0l-0.1,0.2c0,0-0.1,0.1-0.1,0.1l0,0l-0.1,0.1l0,0l0,0
	c-0.1,0.1-0.1,0.1-0.2,0.2l-0.1,0.1l-0.1,0l-0.1,0.1c-0.1,0.1-0.1,0.1-0.2,0.2l0,0l-0.1,0.1l-0.1,0.1c-0.1,0.1-0.1,0.1-0.2,0.2
	l-0.1,0.1l-0.1,0.1l0,0l-0.1,0c-0.1,0.1-0.2,0.2-0.3,0.2l0,0l0,0c-0.1,0.1-0.2,0.2-0.3,0.2c0,0,0,0-0.1,0.1l0,0c0,0-0.1,0.1-0.2,0.1
	l-0.1,0l-0.1,0.1c-0.1,0.1-0.2,0.2-0.3,0.2c-0.2,0.1-0.3,0.2-0.5,0.3l-0.1,0.1l0,0l-0.1,0l-0.1,0.1c-0.1,0.1-0.2,0.1-0.4,0.2l0,0
	l-0.1,0l0,0l0,0c-0.1,0-0.1,0.1-0.2,0.1c-0.1,0.1-0.3,0.1-0.4,0.2l0,0c-0.1,0.1-0.3,0.1-0.4,0.2l-0.3,0.1l-0.2,0.1
	c-0.2,0.1-0.3,0.1-0.5,0.2l-0.1,0l0,0l-0.1,0c-0.1,0-0.2,0.1-0.3,0.1l-0.1,0l-0.1,0l-0.3,0.1l-0.1,0l-0.1,0l-0.1,0l-0.1,0
	c-0.1,0-0.3,0.1-0.4,0.1l-0.1,0c0,0-0.1,0-0.1,0c-0.1,0-0.2,0.1-0.3,0.1c-0.2,0-0.4,0.1-0.7,0.1h0l-0.1,0l-0.1,0l-0.1,0
	c-0.2,0-0.3,0.1-0.5,0.1l-0.2,0c-0.2,0-0.4,0-0.5,0.1l-0.1,0l-0.1,0c-0.2,0-0.5,0-0.8,0.1C119,50.9,118.6,50.9,118.3,50.9
	L118.3,50.9z"/>
<linearGradient id="SVGID_5_" gradientUnits="userSpaceOnUse" x1="1586.1094" y1="-970.666" x2="1586.1094" y2="-972.3181" gradientTransform="matrix(5.1808 0 0 5.1808 -8118.9316 5079.918)">
	<stop  offset="0" style="stop-color:#780A0B"/>
	<stop  offset="1" style="stop-color:#ED1C24"/>
</linearGradient>
<path class="st4" d="M109.9,51.1h-0.6c0-0.1,0-0.2,0-0.3c-0.1-0.2-0.2-0.5-0.4-0.8c-0.2-0.3-0.5-0.6-0.9-0.9c-0.4-0.4-0.9-0.7-1.4-1
	c-0.6-0.4-1.2-0.7-1.8-1l-0.1-0.1l-0.1,0l-0.1,0c-0.6-0.3-1.3-0.6-1.9-0.9c-0.6-0.2-1.1-0.5-1.7-0.6c-0.5-0.2-1-0.3-1.5-0.4
	C98.9,45.1,98.5,45,98,45c-0.1,0-0.1,0-0.2,0c-0.6,0-1.2,0.1-1.8,0.2c-0.1,0-0.2,0-0.3,0.1c-0.2,0-0.4,0.1-0.6,0.1
	c-0.2,0.1-0.5,0.1-0.7,0.2l-0.1,0c-0.3,0.1-0.5,0.2-0.8,0.3c-0.3,0.1-0.5,0.2-0.8,0.3l-0.1,0l-0.1,0c-0.3,0.1-0.5,0.2-0.8,0.4
	l-0.3,0.1l-0.1,0c-0.2,0.1-0.4,0.2-0.7,0.3l0,0c-0.2,0.1-0.3,0.2-0.5,0.3c-0.1,0.1-0.2,0.1-0.4,0.2l-0.1,0.1l-0.1,0.1
	c-0.1,0.1-0.2,0.1-0.2,0.2l-0.2,0.1l0,0l-0.1,0.1c-0.1,0.1-0.2,0.1-0.3,0.2c-0.1,0.1-0.2,0.2-0.3,0.2c-0.1,0.1-0.2,0.1-0.3,0.2
	c-0.1,0.1-0.2,0.2-0.2,0.2c-0.1,0.1-0.1,0.1-0.2,0.2c-0.1,0.1-0.1,0.1-0.2,0.2c0,0.1-0.1,0.1-0.1,0.2c-0.1,0.1-0.1,0.2-0.2,0.3
	c0,0.1,0,0.1,0,0.2c0,0.1,0,0.1,0,0.2h-0.6v-1.8l0-0.1c0-0.1,0-0.1,0-0.2c0,0,0-0.1,0-0.1l0-0.1c0,0,0-0.1,0-0.1c0,0,0,0,0-0.1
	l0-0.1c0,0,0,0,0-0.1l0,0l0-0.1l0-0.1l0,0c0,0,0-0.1,0-0.1l0-0.1l0-0.1l0-0.1l0-0.1l0-0.1c0,0,0,0,0.1-0.1l0.1-0.1l0.1-0.1
	c0,0,0-0.1,0.1-0.1c0,0,0,0,0,0l0,0l0,0l0.1-0.1l0.1-0.1l0.1-0.1c0,0,0.1-0.1,0.1-0.1l0.1,0c0,0,0.1-0.1,0.1-0.1
	c0,0,0.1-0.1,0.1-0.1l0.1,0l0.1-0.1l0.1-0.1c0,0,0,0,0.1,0c0.1-0.1,0.2-0.1,0.2-0.2l0,0l0,0l0.1-0.1l0.1,0l0,0l0.1-0.1l0,0l0,0l0,0
	l0.1-0.1l0.1-0.1l0.1,0l0.1,0l0.1,0l0,0c0.1-0.1,0.2-0.1,0.3-0.2l0,0l0,0c0.2-0.1,0.3-0.2,0.5-0.3c0,0,0,0,0,0
	c0.2-0.1,0.4-0.2,0.7-0.4l0,0l0,0l0,0c0.1,0,0.1-0.1,0.2-0.1c0.1-0.1,0.2-0.1,0.4-0.2l0.3-0.1l0.1-0.1l0.1,0l0.1,0l0,0l0.1,0
	c0.2-0.1,0.5-0.2,0.7-0.3l0,0l0,0l0.1,0l0.1-0.1c0.2-0.1,0.4-0.1,0.6-0.2l0.1,0c0.2-0.1,0.4-0.1,0.5-0.2l0.2-0.1l0.1,0
	c0.1,0,0.2-0.1,0.4-0.1l0.1,0l0.1,0c0.1,0,0.2,0,0.3-0.1l0.1,0l0.1,0c0.6-0.1,1.2-0.2,1.8-0.2c0.1,0,0.1,0,0.2,0
	c0.5,0,1,0.1,1.5,0.2c0.5,0.1,1.1,0.2,1.6,0.4c0.6,0.2,1.2,0.4,1.8,0.7c0.6,0.2,1.2,0.5,2,0.9l0.1,0l0.1,0l0.1,0.1
	c0.6,0.3,1.3,0.7,1.9,1.1c0.5,0.3,1,0.7,1.4,1c0.4,0.3,0.7,0.7,1,1c0.3,0.4,0.4,0.7,0.5,1c0,0.1,0,0.3,0,0.4L109.9,51.1L109.9,51.1
	L109.9,51.1z"/>
<linearGradient id="SVGID_6_" gradientUnits="userSpaceOnUse" x1="1585.9049" y1="-968.3962" x2="1585.9049" y2="-971.4214" gradientTransform="matrix(5.1808 0 0 5.1808 -8118.9316 5079.918)">
	<stop  offset="0" style="stop-color:#780A0B"/>
	<stop  offset="1" style="stop-color:#ED1C24"/>
</linearGradient>
<path class="st5" d="M100.6,62.9c-1.1,0-2.2-0.1-3.2-0.3c-1.2-0.2-2.4-0.6-3.6-1c-1.2-0.4-2.4-1-3.7-1.6c-1.3-0.7-2.5-1.4-3.6-2.3
	c-1.6-1.1-8-5.8-8.5-7.5c-0.1-0.2-0.2-0.7-0.2-1.6c0-0.8,0-1.1,0.1-1.3c0.9,2.7,7.5,7,9,8.1c1.1,0.8,2.3,1.6,3.6,2.2
	c1.2,0.7,2.4,1.2,3.6,1.7c1.2,0.4,2.4,0.8,3.5,1c1,0.2,2.1,0.3,3.1,0.3c0.1,0,0.2,0,0.3,0c0.2,0,0.4,0,0.6,0l0.1,0l0.1,0
	c0.1,0,0.3,0,0.4,0l0.2,0c0.1,0,0.3,0,0.4-0.1c0.1,0,0.2,0,0.2,0c0.2,0,0.4-0.1,0.5-0.1c0.2,0,0.4-0.1,0.6-0.1
	c0.5-0.1,1-0.3,1.5-0.4c0.2-0.1,0.4-0.2,0.7-0.2c0.2-0.1,0.5-0.2,0.7-0.3l0.1,0l0.1,0c0.2-0.1,0.4-0.2,0.6-0.2l0.1-0.1l0.1,0l0.1,0
	c0.1-0.1,0.2-0.1,0.4-0.2c0.1,0,0.2-0.1,0.3-0.1l0,0l0,0c0.2-0.1,0.3-0.2,0.5-0.2c0.3-0.2,0.6-0.3,0.9-0.5l0.1,0
	c0.1-0.1,0.3-0.1,0.4-0.2l0.2-0.1l0.1-0.1l0.1,0c0.1-0.1,0.2-0.1,0.3-0.2c0.1-0.1,0.2-0.1,0.3-0.2c0.2-0.1,0.4-0.2,0.5-0.3
	c0.2-0.2,0.5-0.3,0.7-0.5l0.1,0c0.2-0.2,0.4-0.3,0.6-0.5l0,0c0.2-0.2,0.4-0.3,0.6-0.5c0.2-0.2,0.4-0.3,0.5-0.5
	c0.2-0.2,0.3-0.3,0.4-0.5c0.3-0.3,0.5-0.6,0.7-1c0.1-0.2,0.2-0.3,0.3-0.5c0.1-0.3,0.2-0.5,0.3-0.8l0,0c0-0.1,0-0.2,0.1-0.3
	c0,0,0-0.1,0-0.1l0,0c0-0.1,0-0.2,0-0.3h0.6v1.8c0,0,0,0.1,0,0.1c0,0,0,0.1,0,0.1l0,0.1l0,0c0,0,0,0.1,0,0.1c0,0,0,0,0,0.1
	c0,0.1,0,0.2,0,0.3l0,0.1l0,0l0,0l0,0.1l0,0.1c0,0.1,0,0.1-0.1,0.2c0,0.1,0,0.1-0.1,0.2c0,0.1,0,0.1-0.1,0.2c0,0.1,0,0.1-0.1,0.2
	l-0.1,0.1l-0.1,0.2l0,0.1l0,0.1c0,0-0.1,0.1-0.1,0.2l0,0.1l0,0.1c0,0.1-0.1,0.1-0.1,0.1l-0.1,0.1l-0.1,0.2c0,0.1-0.1,0.1-0.1,0.2
	l0,0l-0.1,0.1l-0.1,0.1l0,0l0,0l-0.1,0.1l-0.1,0.1l0,0c0,0-0.1,0.1-0.1,0.1c-0.1,0.1-0.1,0.1-0.2,0.2l-0.1,0.1l-0.1,0.1l-0.1,0.1
	l-0.2,0.2c-0.1,0.1-0.1,0.1-0.2,0.2v0l0,0l0,0l-0.1,0.1c-0.1,0.1-0.2,0.1-0.3,0.2l-0.1,0.1l-0.1,0h0l0,0l-0.1,0
	c-0.1,0.1-0.2,0.2-0.3,0.2l-0.1,0.1l-0.1,0.1l0,0l0,0l0,0c-0.1,0.1-0.3,0.2-0.4,0.3c-0.1,0.1-0.2,0.1-0.3,0.2
	c-0.1,0.1-0.2,0.1-0.3,0.2l-0.1,0.1l-0.1,0.1c-0.1,0.1-0.2,0.2-0.4,0.2l-0.1,0l-0.1,0.1l-0.1,0.1l-0.1,0.1c-0.1,0.1-0.2,0.2-0.4,0.2
	l0,0l-0.1,0.1l-0.2,0.1l-0.1,0c-0.1,0.1-0.2,0.1-0.3,0.2l-0.1,0l-0.1,0c-0.2,0.1-0.3,0.2-0.5,0.3l0,0l-0.1,0.1
	c-0.1,0-0.2,0.1-0.2,0.1l-0.1,0.1l-0.1,0.1l-0.2,0.1c0,0-0.1,0-0.1,0c-0.1,0-0.2,0.1-0.2,0.1l-0.1,0.1l-0.1,0.1l-0.1,0.1h0l0,0
	c-0.2,0.1-0.3,0.1-0.5,0.2l-0.1,0l-0.1,0.1c-0.2,0.1-0.5,0.2-0.7,0.3l0,0c-0.2,0.1-0.5,0.2-0.7,0.2c-0.2,0.1-0.4,0.1-0.6,0.2l-0.1,0
	l-0.1,0l0,0l0,0c-0.2,0.1-0.5,0.1-0.7,0.2l-0.1,0c-0.2,0-0.4,0.1-0.6,0.1c-0.1,0-0.3,0.1-0.4,0.1c0,0-0.1,0-0.1,0l-0.1,0l-0.3,0
	c-0.1,0-0.3,0-0.4,0.1l-0.1,0c-0.1,0-0.1,0-0.2,0c-0.1,0-0.3,0-0.4,0l-0.1,0l-0.1,0c-0.2,0-0.4,0-0.6,0
	C100.8,62.9,100.7,62.9,100.6,62.9L100.6,62.9z"/>
<linearGradient id="SVGID_7_" gradientUnits="userSpaceOnUse" x1="-113.2052" y1="611.6627" x2="-99.3841" y2="611.6627" gradientTransform="matrix(5.1808 0 0 5.1808 646.9229 -3126.4138)">
	<stop  offset="0" style="stop-color:#931619"/>
	<stop  offset="1" style="stop-color:#EF3B41"/>
</linearGradient>
<path class="st6" d="M100.6,60.8c-1,0-2.1-0.1-3.2-0.3c-1.2-0.2-2.4-0.6-3.6-1c-1.2-0.4-2.4-1-3.7-1.7c-1.3-0.7-2.5-1.4-3.6-2.3l0,0
	l0,0l0,0c-1.7-1.3-8.6-6.4-8.6-8c0-0.3,0-1.1,8.2-5.2c3.8-1.9,7.6-3.7,8-3.9l0.1,0l0,0l0,0l8.2-4c0.8-0.4,1.6-0.7,2.4-1.1
	c0.7-0.3,1.4-0.5,2.1-0.7c0.6-0.2,1.3-0.3,2-0.4c0.6-0.1,1.2-0.2,1.9-0.2c0.8,0,1.7,0,2.5,0.1c0.9,0.1,1.8,0.2,2.7,0.4
	c1,0.2,2,0.5,3.1,0.8c1.2,0.4,2.3,0.8,3.5,1.2c1.7,0.7,2.9,1.1,3.9,1.6c1,0.5,1.9,1,2.7,1.4c0.8,0.5,1.4,1,1.9,1.4
	c0.5,0.5,0.8,1,1,1.5c0.1,0.4,0.2,0.8,0.1,1.3c-0.1,0.4-0.3,0.9-0.6,1.3c-0.3,0.4-0.8,0.9-1.3,1.4c-0.6,0.5-1.2,1-2,1.5
	c-0.8,0.6-1.7,1-2.6,1.4c-0.9,0.4-1.9,0.7-2.9,1c-1.1,0.2-2.1,0.4-3.2,0.4c-0.4,0-0.7,0-1.1,0c-0.6,0-1.2,0-1.8-0.1
	c0.2,0.5,0.3,1,0.4,1.5c0,0.7-0.1,1.4-0.4,2.1c-0.3,0.7-0.8,1.4-1.5,2.1c-0.7,0.7-1.5,1.4-2.6,2.1c-1,0.6-2,1.2-3,1.8
	c-1,0.5-1.9,1-2.9,1.3c-1,0.4-1.9,0.7-2.8,0.8c-0.9,0.2-1.8,0.3-2.7,0.3C100.8,60.8,100.7,60.8,100.6,60.8L100.6,60.8z M97.8,42.9
	c-0.4,0-0.7,0-1.2,0.1c-0.5,0.1-1,0.2-1.5,0.3c-0.5,0.1-1,0.3-1.6,0.5c-0.6,0.2-1.1,0.5-1.7,0.8c-0.6,0.3-1.2,0.7-1.8,1
	c-0.6,0.3-1,0.7-1.4,0.9c-0.4,0.3-0.7,0.6-0.9,0.8c-0.2,0.2-0.3,0.5-0.4,0.7c0,0.2,0,0.5,0.1,0.7c0.1,0.3,0.3,0.6,0.6,0.9
	c0.3,0.4,0.7,0.7,1.2,1.1c0.6,0.5,1.2,0.9,1.9,1.3c0.7,0.5,1.4,0.9,2.1,1.3c0.7,0.3,1.3,0.7,2,0.9c0.6,0.2,1.3,0.4,1.9,0.6
	c0.6,0.1,1.1,0.2,1.6,0.2c0.5,0,1.1-0.1,1.6-0.2c0.6-0.1,1.2-0.3,1.8-0.5c0.7-0.2,1.3-0.5,1.9-0.9c0.7-0.4,1.4-0.8,2.1-1.2
	c0.6-0.4,1.1-0.7,1.5-1.1c0.4-0.3,0.8-0.7,1-1c0.2-0.3,0.4-0.6,0.5-0.9c0.1-0.2,0.1-0.5,0-0.7c-0.1-0.2-0.2-0.5-0.4-0.8
	c-0.2-0.3-0.5-0.6-0.9-0.9c-0.4-0.4-0.9-0.7-1.4-1c-0.6-0.4-1.2-0.7-1.8-1l-0.1-0.1l-0.1,0l-0.1,0c-0.6-0.3-1.3-0.6-1.9-0.9
	c-0.6-0.2-1.1-0.5-1.7-0.6c-0.5-0.2-1-0.3-1.5-0.4c-0.5-0.1-0.9-0.1-1.4-0.1C97.9,42.9,97.9,42.9,97.8,42.9L97.8,42.9z M112.7,35.1
	L112.7,35.1c-0.4,0-0.7,0.1-1.2,0.1c-0.4,0.1-0.8,0.2-1.3,0.3c-0.5,0.1-1,0.3-1.4,0.5c-0.5,0.2-1.1,0.5-1.6,0.7
	c-0.4,0.2-0.8,0.5-1.3,0.7c-0.3,0.2-0.6,0.4-0.9,0.7c-0.2,0.2-0.4,0.4-0.4,0.6c-0.1,0.2-0.1,0.3-0.1,0.5c0,0.2,0.1,0.4,0.3,0.6
	c0.2,0.2,0.4,0.5,0.7,0.7c0.4,0.3,0.8,0.6,1.2,0.8c0.6,0.3,1.2,0.6,1.8,0.9l0.1,0l0.1,0l0.1,0l0.1,0c0.6,0.3,1.3,0.6,2,0.9
	c0.7,0.3,1.3,0.5,1.9,0.7c0.6,0.2,1.1,0.3,1.7,0.4c0.5,0.1,1.1,0.2,1.5,0.2c0.1,0,0.1,0,0.2,0h0c0.4,0,0.8,0,1.2-0.1
	c0.5-0.1,1-0.2,1.5-0.3c0.5-0.2,1-0.3,1.5-0.6c0.5-0.2,1-0.5,1.5-0.8c0.6-0.4,1-0.7,1.4-1c0.4-0.3,0.7-0.6,0.9-0.8
	c0.2-0.2,0.4-0.5,0.4-0.7c0.1-0.2,0.1-0.3,0-0.5c-0.1-0.2-0.2-0.4-0.4-0.6c-0.2-0.2-0.6-0.5-1-0.7c-0.5-0.3-1-0.6-1.5-0.8
	c-0.7-0.3-1.3-0.6-2-0.9c-0.7-0.3-1.4-0.5-2.1-0.8c-0.6-0.2-1.2-0.4-1.8-0.5c-0.5-0.1-1-0.2-1.6-0.3c-0.4-0.1-0.8-0.1-1.2-0.1
	L112.7,35.1L112.7,35.1z M63.5,36.7L63.5,36.7c-0.3,0-0.6,0-0.9-0.1c-0.3-0.1-0.5-0.2-0.8-0.3l-1.2-0.8c-0.1-0.1-0.2-0.1-0.2-0.2
	c-0.1-0.1-0.1-0.2,0-0.3c0-0.1,0.1-0.2,0.2-0.2c0.1,0,0.1-0.1,0.3-0.1l14.4-5.4l1.2-0.4l7-2.6c0.8-0.3,1.5-0.6,2.3-0.8
	c0.6-0.2,1.3-0.4,1.9-0.5c0.6-0.1,1.2-0.3,1.8-0.3c0.7-0.1,1.5-0.2,2.2-0.2c0.4,0,0.9,0,1.4,0.1c0.7,0.1,1.4,0.2,2.2,0.3
	c0.7,0.1,1.5,0.3,2.3,0.6c0.8,0.2,1.6,0.5,2.5,0.9c1.2,0.4,2,0.8,2.7,1.2c0.7,0.3,1.3,0.7,1.8,1c0.5,0.4,0.9,0.7,1.1,1.1
	c0.3,0.4,0.4,0.8,0.4,1.1c0,0.3-0.1,0.6-0.3,0.9c-0.2,0.3-0.5,0.6-0.9,0.9c-0.4,0.3-0.8,0.6-1.4,1c-0.7,0.4-1.3,0.7-2,1.1l-0.2,0.1
	C99.9,35,98.5,35.7,97,36c-1.4,0.3-2.9,0.5-4.3,0.5l-0.2,0l-0.2,0c-1.6,0-3.1-0.2-4.6-0.6c-1.4-0.4-2.8-1.1-4.1-1.7L83.4,34
	c0,0-0.3-0.2-0.5-0.3l-0.3-0.2c-0.4-0.2-0.9-0.5-1.3-0.7c-1.3-1-2.3-1.2-3-1.2c-0.6,0-1,0.2-1,0.2l-11.6,4.4
	c-0.4,0.1-0.7,0.3-1.1,0.3C64.2,36.6,63.9,36.7,63.5,36.7L63.5,36.7z M92.1,26.6c-0.3,0-0.7,0-1,0.1c-0.4,0.1-0.8,0.1-1.2,0.2
	c-0.5,0.1-0.9,0.3-1.3,0.4c-0.5,0.2-1,0.3-1.5,0.6c-0.4,0.2-0.8,0.3-1.2,0.5c-0.3,0.2-0.6,0.3-0.9,0.5c-0.2,0.2-0.4,0.3-0.5,0.4
	c-0.1,0.1-0.2,0.2-0.2,0.3c0,0.1,0,0.2,0.1,0.3c0.1,0.1,0.2,0.3,0.4,0.5c0.2,0.2,0.5,0.4,0.8,0.6c0.3,0.2,0.7,0.4,1.2,0.6l0.1,0
	l0.1,0l0,0c0.5,0.2,0.9,0.4,1.4,0.6c0.5,0.2,0.9,0.3,1.3,0.4c0.4,0.1,0.8,0.2,1.3,0.3c0.4,0.1,0.8,0.1,1.2,0.1H92
	c0.3,0,0.7,0,1.1-0.1c0.4-0.1,0.8-0.1,1.3-0.2c0.5-0.1,0.9-0.2,1.3-0.4c0.5-0.2,0.9-0.4,1.4-0.6c0.5-0.2,1-0.5,1.4-0.7
	c0.4-0.2,0.7-0.4,1-0.6c0.3-0.2,0.4-0.4,0.6-0.5c0.1-0.2,0.2-0.3,0.2-0.3c0-0.1,0-0.2-0.1-0.3c-0.1-0.2-0.3-0.3-0.6-0.5
	c-0.3-0.2-0.7-0.4-1-0.6c-0.5-0.2-0.9-0.4-1.4-0.6c-0.5-0.2-1-0.4-1.5-0.5c-0.4-0.1-0.9-0.3-1.3-0.4c-0.4-0.1-0.8-0.2-1.2-0.2
	c-0.3,0-0.6-0.1-0.9-0.1L92.1,26.6L92.1,26.6L92.1,26.6L92.1,26.6z"/>
<g>
	<defs>
		<path id="SVGID_8_" d="M81.4,32.5c0.4,0.2,0.8,0.5,1.3,0.7c0,0,0.8,0.4,0.8,0.4c1.4,0.7,2.8,1.5,4.3,1.8c1.5,0.4,3,0.6,4.5,0.6
			c0.1,0,0.2,0,0.3,0c1.4,0,2.9-0.2,4.3-0.5c1.5-0.3,3-1.1,4.4-1.7c0.8-0.4,1.4-0.7,2-1c0.6-0.3,1-0.6,1.4-1
			c0.4-0.3,0.6-0.6,0.8-0.9c0.2-0.3,0.3-0.5,0.3-0.8c0-0.3-0.1-0.6-0.4-1c-0.2-0.3-0.6-0.7-1.1-1c-0.5-0.3-1-0.7-1.7-1
			c-0.7-0.3-1.5-0.7-2.7-1.1c-0.8-0.3-1.7-0.6-2.5-0.8c-0.8-0.2-1.5-0.4-2.3-0.6c-0.7-0.1-1.4-0.2-2.1-0.3c-0.5,0-0.9-0.1-1.4-0.1
			c-0.7,0-1.4,0.1-2.1,0.2c-0.6,0.1-1.2,0.2-1.7,0.3c-0.6,0.2-1.3,0.3-1.9,0.5c-0.8,0.2-1.5,0.5-2.3,0.8l-7,2.6l-1.2,0.4l-14.4,5.4
			c-0.1,0-0.1,0.1-0.2,0.1c-0.1,0-0.1,0.1-0.1,0.1c0,0,0,0.1,0,0.1c0,0,0.1,0.1,0.1,0.1L62,36c0.2,0.1,0.4,0.2,0.7,0.3
			c0.2,0.1,0.5,0.1,0.8,0.1c0.3,0,0.6,0,0.9-0.1c0.3-0.1,0.7-0.2,1.1-0.3l11.6-4.4c0,0,0.4-0.2,1.2-0.2C79,31.3,80.1,31.6,81.4,32.5
			L81.4,32.5z M83.9,29.7c0-0.2,0.1-0.3,0.2-0.5c0.1-0.2,0.3-0.3,0.6-0.5c0.3-0.2,0.6-0.4,0.9-0.5c0.4-0.2,0.8-0.4,1.3-0.5
			c0.5-0.2,1-0.4,1.5-0.6c0.5-0.1,0.9-0.3,1.4-0.4c0.4-0.1,0.8-0.2,1.2-0.3c0.4-0.1,0.7-0.1,1-0.1h0.2c0.3,0,0.6,0,0.9,0.1
			c0.4,0,0.8,0.1,1.2,0.2c0.4,0.1,0.9,0.2,1.4,0.4c0.5,0.2,1,0.3,1.5,0.6c0.5,0.2,1,0.4,1.4,0.6c0.4,0.2,0.8,0.4,1,0.6
			c0.3,0.2,0.5,0.4,0.6,0.6c0.1,0.2,0.2,0.3,0.2,0.5c0,0.1-0.1,0.3-0.2,0.5c-0.1,0.2-0.4,0.4-0.6,0.6c-0.3,0.2-0.6,0.4-1,0.6
			c-0.5,0.3-1,0.5-1.5,0.7c-0.5,0.2-1,0.4-1.4,0.6c-0.5,0.2-0.9,0.3-1.4,0.4c-0.5,0.1-0.9,0.2-1.3,0.2c-0.4,0.1-0.8,0.1-1.1,0.1
			h-0.1c-0.4,0-0.8,0-1.2-0.1c-0.4-0.1-0.9-0.2-1.3-0.3c-0.5-0.1-0.9-0.3-1.4-0.4c-0.5-0.2-0.9-0.4-1.4-0.6l0,0l0,0l-0.1,0
			c-0.5-0.2-0.9-0.4-1.2-0.7c-0.3-0.2-0.6-0.4-0.8-0.6c-0.2-0.2-0.4-0.4-0.5-0.5C83.9,30,83.8,29.9,83.9,29.7L83.9,29.7z
			 M131.6,40.6c-0.2-0.5-0.5-0.9-1-1.4c-0.5-0.5-1.1-0.9-1.8-1.4c-0.7-0.5-1.6-0.9-2.6-1.4c-1-0.5-2.1-0.9-3.9-1.6
			c-1.1-0.4-2.3-0.8-3.5-1.2c-1-0.3-2-0.6-3-0.8c-0.9-0.2-1.8-0.3-2.7-0.4c-0.6-0.1-1.3-0.1-1.9-0.1c-0.8,0-1.6,0.1-2.4,0.2
			c-0.6,0.1-1.3,0.3-1.9,0.4c-0.7,0.2-1.4,0.4-2.1,0.7c-0.7,0.3-1.5,0.6-2.4,1.1l-8.2,4l-0.1,0.1c0,0-16.2,7.7-16.1,8.8
			c0,1.1,5.3,5.4,8.5,7.7l0.1,0c1.2,0.8,2.4,1.6,3.6,2.2c1.2,0.7,2.4,1.2,3.6,1.7c1.2,0.5,2.4,0.8,3.6,1c1.1,0.2,2.1,0.3,3.1,0.3
			c0.1,0,0.2,0,0.3,0c0.9,0,1.7-0.1,2.6-0.3c1-0.2,1.9-0.5,2.8-0.8c1-0.4,2-0.8,2.9-1.3c1-0.5,2-1.1,3-1.8c1-0.7,1.9-1.4,2.5-2
			c0.7-0.7,1.1-1.3,1.4-2c0.3-0.6,0.4-1.3,0.4-1.9c0-0.6-0.2-1.3-0.6-1.9c0.8,0.1,1.5,0.1,2.3,0.1c0.3,0,0.7,0,1,0
			c1.1-0.1,2.1-0.2,3.1-0.4c1-0.2,2-0.5,2.9-0.9c0.9-0.4,1.8-0.9,2.6-1.4c0.8-0.5,1.4-1,2-1.5c0.5-0.5,0.9-0.9,1.2-1.3
			c0.3-0.4,0.5-0.8,0.6-1.2C131.8,41.3,131.7,40.9,131.6,40.6L131.6,40.6z M109.5,49.6c-0.1,0.3-0.3,0.6-0.5,1
			c-0.3,0.3-0.6,0.7-1.1,1c-0.4,0.4-1,0.7-1.6,1.1c-0.7,0.4-1.4,0.8-2.1,1.2c-0.6,0.3-1.3,0.6-2,0.9c-0.6,0.2-1.2,0.4-1.8,0.5
			c-0.5,0.1-1.1,0.2-1.6,0.2c-0.5,0-1.1-0.1-1.7-0.2c-0.7-0.1-1.3-0.3-1.9-0.6c-0.7-0.3-1.3-0.6-2.1-0.9c-0.7-0.4-1.5-0.8-2.2-1.3
			c-0.7-0.5-1.4-0.9-1.9-1.4c-0.5-0.4-0.9-0.8-1.3-1.2c-0.3-0.4-0.5-0.7-0.7-1c-0.1-0.3-0.2-0.6-0.1-0.9c0.1-0.3,0.2-0.5,0.4-0.8
			c0.2-0.3,0.5-0.6,0.9-0.9c0.4-0.3,0.9-0.6,1.4-1c0.6-0.4,1.2-0.7,1.9-1c0.6-0.3,1.1-0.6,1.7-0.8c0.5-0.2,1.1-0.4,1.6-0.5
			c0.5-0.1,1-0.2,1.5-0.3c0.4-0.1,0.8-0.1,1.2-0.1c0.1,0,0.1,0,0.2,0c0.5,0,0.9,0.1,1.4,0.2c0.5,0.1,1,0.2,1.6,0.4
			c0.6,0.2,1.1,0.4,1.7,0.6c0.7,0.3,1.3,0.6,1.9,0.9l0.1,0l0.1,0l0.1,0.1c0.7,0.4,1.3,0.7,1.8,1c0.5,0.3,1,0.7,1.4,1
			c0.4,0.3,0.7,0.6,0.9,0.9c0.2,0.3,0.4,0.6,0.4,0.9C109.6,49,109.6,49.3,109.5,49.6L109.5,49.6z M124.7,40.4
			c-0.1,0.2-0.3,0.5-0.5,0.8c-0.2,0.3-0.6,0.6-1,0.9c-0.4,0.3-0.9,0.6-1.5,1c-0.5,0.3-1,0.6-1.5,0.8c-0.5,0.2-1,0.4-1.5,0.6
			c-0.5,0.1-1,0.3-1.5,0.3c-0.4,0.1-0.8,0.1-1.3,0.1c-0.1,0-0.2,0-0.2,0c-0.5,0-1-0.1-1.6-0.2c-0.6-0.1-1.2-0.2-1.7-0.4
			c-0.6-0.2-1.3-0.4-1.9-0.7c-0.7-0.3-1.3-0.6-2-0.9l-0.1,0l-0.1,0l-0.1,0l-0.1,0c-0.6-0.3-1.2-0.6-1.8-0.9
			c-0.4-0.3-0.9-0.5-1.3-0.9c-0.3-0.3-0.6-0.5-0.8-0.8c-0.2-0.2-0.3-0.5-0.3-0.7c0-0.2,0-0.4,0.1-0.7c0.1-0.2,0.3-0.5,0.5-0.7
			c0.3-0.3,0.6-0.5,0.9-0.7c0.4-0.3,0.8-0.5,1.3-0.7c0.5-0.3,1.1-0.5,1.6-0.8c0.5-0.2,1-0.4,1.5-0.5c0.4-0.1,0.9-0.2,1.3-0.3
			c0.4-0.1,0.8-0.1,1.2-0.1h0.1c0.4,0,0.8,0,1.2,0.1c0.5,0.1,1,0.2,1.6,0.3c0.6,0.2,1.2,0.3,1.9,0.5c0.7,0.2,1.4,0.5,2.1,0.8
			c0.7,0.3,1.4,0.6,2,0.9c0.5,0.3,1.1,0.5,1.6,0.8c0.4,0.3,0.8,0.5,1,0.8c0.3,0.2,0.4,0.5,0.5,0.7C124.8,40,124.8,40.2,124.7,40.4
			L124.7,40.4z"/>
	</defs>
	<clipPath id="SVGID_9_">
		<use xlink:href="#SVGID_8_"  style="overflow:visible;"/>
	</clipPath>
	<path class="st7" d="M60.7,60h71v0.5h-71V60z"/>
</g>
<g>
	<defs>
		<path id="SVGID_10_" d="M81.4,32.5c0.4,0.2,0.8,0.5,1.3,0.7c0,0,0.8,0.4,0.8,0.4c1.4,0.7,2.8,1.5,4.3,1.8c1.5,0.4,3,0.6,4.5,0.6
			c0.1,0,0.2,0,0.3,0c1.4,0,2.9-0.2,4.3-0.5c1.5-0.3,3-1.1,4.4-1.7c0.8-0.4,1.4-0.7,2-1c0.6-0.3,1-0.6,1.4-1
			c0.4-0.3,0.6-0.6,0.8-0.9c0.2-0.3,0.3-0.5,0.3-0.8c0-0.3-0.1-0.6-0.4-1c-0.2-0.3-0.6-0.7-1.1-1c-0.5-0.3-1-0.7-1.7-1
			c-0.7-0.3-1.5-0.7-2.7-1.1c-0.8-0.3-1.7-0.6-2.5-0.8c-0.8-0.2-1.5-0.4-2.3-0.6c-0.7-0.1-1.4-0.2-2.1-0.3c-0.5,0-0.9-0.1-1.4-0.1
			c-0.7,0-1.4,0.1-2.1,0.2c-0.6,0.1-1.2,0.2-1.7,0.3c-0.6,0.2-1.3,0.3-1.9,0.5c-0.8,0.2-1.5,0.5-2.3,0.8l-7,2.6l-1.2,0.4l-14.4,5.4
			c-0.1,0-0.1,0.1-0.2,0.1c-0.1,0-0.1,0.1-0.1,0.1c0,0,0,0.1,0,0.1c0,0,0.1,0.1,0.1,0.1L62,36c0.2,0.1,0.4,0.2,0.7,0.3
			c0.2,0.1,0.5,0.1,0.8,0.1c0.3,0,0.6,0,0.9-0.1c0.3-0.1,0.7-0.2,1.1-0.3l11.6-4.4c0,0,0.4-0.2,1.2-0.2C79,31.3,80.1,31.6,81.4,32.5
			L81.4,32.5z M83.9,29.7c0-0.2,0.1-0.3,0.2-0.5c0.1-0.2,0.3-0.3,0.6-0.5c0.3-0.2,0.6-0.4,0.9-0.5c0.4-0.2,0.8-0.4,1.3-0.5
			c0.5-0.2,1-0.4,1.5-0.6c0.5-0.1,0.9-0.3,1.4-0.4c0.4-0.1,0.8-0.2,1.2-0.3c0.4-0.1,0.7-0.1,1-0.1h0.2c0.3,0,0.6,0,0.9,0.1
			c0.4,0,0.8,0.1,1.2,0.2c0.4,0.1,0.9,0.2,1.4,0.4c0.5,0.2,1,0.3,1.5,0.6c0.5,0.2,1,0.4,1.4,0.6c0.4,0.2,0.8,0.4,1,0.6
			c0.3,0.2,0.5,0.4,0.6,0.6c0.1,0.2,0.2,0.3,0.2,0.5c0,0.1-0.1,0.3-0.2,0.5c-0.1,0.2-0.4,0.4-0.6,0.6c-0.3,0.2-0.6,0.4-1,0.6
			c-0.5,0.3-1,0.5-1.5,0.7c-0.5,0.2-1,0.4-1.4,0.6c-0.5,0.2-0.9,0.3-1.4,0.4c-0.5,0.1-0.9,0.2-1.3,0.2c-0.4,0.1-0.8,0.1-1.1,0.1
			h-0.1c-0.4,0-0.8,0-1.2-0.1c-0.4-0.1-0.9-0.2-1.3-0.3c-0.5-0.1-0.9-0.3-1.4-0.4c-0.5-0.2-0.9-0.4-1.4-0.6l0,0l0,0l-0.1,0
			c-0.5-0.2-0.9-0.4-1.2-0.7c-0.3-0.2-0.6-0.4-0.8-0.6c-0.2-0.2-0.4-0.4-0.5-0.5C83.9,30,83.8,29.9,83.9,29.7L83.9,29.7z
			 M131.6,40.6c-0.2-0.5-0.5-0.9-1-1.4c-0.5-0.5-1.1-0.9-1.8-1.4c-0.7-0.5-1.6-0.9-2.6-1.4c-1-0.5-2.1-0.9-3.9-1.6
			c-1.1-0.4-2.3-0.8-3.5-1.2c-1-0.3-2-0.6-3-0.8c-0.9-0.2-1.8-0.3-2.7-0.4c-0.6-0.1-1.3-0.1-1.9-0.1c-0.8,0-1.6,0.1-2.4,0.2
			c-0.6,0.1-1.3,0.3-1.9,0.4c-0.7,0.2-1.4,0.4-2.1,0.7c-0.7,0.3-1.5,0.6-2.4,1.1l-8.2,4l-0.1,0.1c0,0-16.2,7.7-16.1,8.8
			c0,1.1,5.3,5.4,8.5,7.7l0.1,0c1.2,0.8,2.4,1.6,3.6,2.2c1.2,0.7,2.4,1.2,3.6,1.7c1.2,0.5,2.4,0.8,3.6,1c1.1,0.2,2.1,0.3,3.1,0.3
			c0.1,0,0.2,0,0.3,0c0.9,0,1.7-0.1,2.6-0.3c1-0.2,1.9-0.5,2.8-0.8c1-0.4,2-0.8,2.9-1.3c1-0.5,2-1.1,3-1.8c1-0.7,1.9-1.4,2.5-2
			c0.7-0.7,1.1-1.3,1.4-2c0.3-0.6,0.4-1.3,0.4-1.9c0-0.6-0.2-1.3-0.6-1.9c0.8,0.1,1.5,0.1,2.3,0.1c0.3,0,0.7,0,1,0
			c1.1-0.1,2.1-0.2,3.1-0.4c1-0.2,2-0.5,2.9-0.9c0.9-0.4,1.8-0.9,2.6-1.4c0.8-0.5,1.4-1,2-1.5c0.5-0.5,0.9-0.9,1.2-1.3
			c0.3-0.4,0.5-0.8,0.6-1.2C131.8,41.3,131.7,40.9,131.6,40.6L131.6,40.6z M109.5,49.6c-0.1,0.3-0.3,0.6-0.5,1
			c-0.3,0.3-0.6,0.7-1.1,1c-0.4,0.4-1,0.7-1.6,1.1c-0.7,0.4-1.4,0.8-2.1,1.2c-0.6,0.3-1.3,0.6-2,0.9c-0.6,0.2-1.2,0.4-1.8,0.5
			c-0.5,0.1-1.1,0.2-1.6,0.2c-0.5,0-1.1-0.1-1.7-0.2c-0.7-0.1-1.3-0.3-1.9-0.6c-0.7-0.3-1.3-0.6-2.1-0.9c-0.7-0.4-1.5-0.8-2.2-1.3
			c-0.7-0.5-1.4-0.9-1.9-1.4c-0.5-0.4-0.9-0.8-1.3-1.2c-0.3-0.4-0.5-0.7-0.7-1c-0.1-0.3-0.2-0.6-0.1-0.9c0.1-0.3,0.2-0.5,0.4-0.8
			c0.2-0.3,0.5-0.6,0.9-0.9c0.4-0.3,0.9-0.6,1.4-1c0.6-0.4,1.2-0.7,1.9-1c0.6-0.3,1.1-0.6,1.7-0.8c0.5-0.2,1.1-0.4,1.6-0.5
			c0.5-0.1,1-0.2,1.5-0.3c0.4-0.1,0.8-0.1,1.2-0.1c0.1,0,0.1,0,0.2,0c0.5,0,0.9,0.1,1.4,0.2c0.5,0.1,1,0.2,1.6,0.4
			c0.6,0.2,1.1,0.4,1.7,0.6c0.7,0.3,1.3,0.6,1.9,0.9l0.1,0l0.1,0l0.1,0.1c0.7,0.4,1.3,0.7,1.8,1c0.5,0.3,1,0.7,1.4,1
			c0.4,0.3,0.7,0.6,0.9,0.9c0.2,0.3,0.4,0.6,0.4,0.9C109.6,49,109.6,49.3,109.5,49.6L109.5,49.6z M124.7,40.4
			c-0.1,0.2-0.3,0.5-0.5,0.8c-0.2,0.3-0.6,0.6-1,0.9c-0.4,0.3-0.9,0.6-1.5,1c-0.5,0.3-1,0.6-1.5,0.8c-0.5,0.2-1,0.4-1.5,0.6
			c-0.5,0.1-1,0.3-1.5,0.3c-0.4,0.1-0.8,0.1-1.3,0.1c-0.1,0-0.2,0-0.2,0c-0.5,0-1-0.1-1.6-0.2c-0.6-0.1-1.2-0.2-1.7-0.4
			c-0.6-0.2-1.3-0.4-1.9-0.7c-0.7-0.3-1.3-0.6-2-0.9l-0.1,0l-0.1,0l-0.1,0l-0.1,0c-0.6-0.3-1.2-0.6-1.8-0.9
			c-0.4-0.3-0.9-0.5-1.3-0.9c-0.3-0.3-0.6-0.5-0.8-0.8c-0.2-0.2-0.3-0.5-0.3-0.7c0-0.2,0-0.4,0.1-0.7c0.1-0.2,0.3-0.5,0.5-0.7
			c0.3-0.3,0.6-0.5,0.9-0.7c0.4-0.3,0.8-0.5,1.3-0.7c0.5-0.3,1.1-0.5,1.6-0.8c0.5-0.2,1-0.4,1.5-0.5c0.4-0.1,0.9-0.2,1.3-0.3
			c0.4-0.1,0.8-0.1,1.2-0.1h0.1c0.4,0,0.8,0,1.2,0.1c0.5,0.1,1,0.2,1.6,0.3c0.6,0.2,1.2,0.3,1.9,0.5c0.7,0.2,1.4,0.5,2.1,0.8
			c0.7,0.3,1.4,0.6,2,0.9c0.5,0.3,1.1,0.5,1.6,0.8c0.4,0.3,0.8,0.5,1,0.8c0.3,0.2,0.4,0.5,0.5,0.7C124.8,40,124.8,40.2,124.7,40.4
			L124.7,40.4z"/>
	</defs>
	<clipPath id="SVGID_11_">
		<use xlink:href="#SVGID_10_"  style="overflow:visible;"/>
	</clipPath>
	<path class="st8" d="M60.7,24.4h71v3h-71V24.4z"/>
</g>
<g>
	<defs>
		<path id="SVGID_12_" d="M81.4,32.5c0.4,0.2,0.8,0.5,1.3,0.7c0,0,0.8,0.4,0.8,0.4c1.4,0.7,2.8,1.5,4.3,1.8c1.5,0.4,3,0.6,4.5,0.6
			c0.1,0,0.2,0,0.3,0c1.4,0,2.9-0.2,4.3-0.5c1.5-0.3,3-1.1,4.4-1.7c0.8-0.4,1.4-0.7,2-1c0.6-0.3,1-0.6,1.4-1
			c0.4-0.3,0.6-0.6,0.8-0.9c0.2-0.3,0.3-0.5,0.3-0.8c0-0.3-0.1-0.6-0.4-1c-0.2-0.3-0.6-0.7-1.1-1c-0.5-0.3-1-0.7-1.7-1
			c-0.7-0.3-1.5-0.7-2.7-1.1c-0.8-0.3-1.7-0.6-2.5-0.8c-0.8-0.2-1.5-0.4-2.3-0.6c-0.7-0.1-1.4-0.2-2.1-0.3c-0.5,0-0.9-0.1-1.4-0.1
			c-0.7,0-1.4,0.1-2.1,0.2c-0.6,0.1-1.2,0.2-1.7,0.3c-0.6,0.2-1.3,0.3-1.9,0.5c-0.8,0.2-1.5,0.5-2.3,0.8l-7,2.6l-1.2,0.4l-14.4,5.4
			c-0.1,0-0.1,0.1-0.2,0.1c-0.1,0-0.1,0.1-0.1,0.1c0,0,0,0.1,0,0.1c0,0,0.1,0.1,0.1,0.1L62,36c0.2,0.1,0.4,0.2,0.7,0.3
			c0.2,0.1,0.5,0.1,0.8,0.1c0.3,0,0.6,0,0.9-0.1c0.3-0.1,0.7-0.2,1.1-0.3l11.6-4.4c0,0,0.4-0.2,1.2-0.2C79,31.3,80.1,31.6,81.4,32.5
			L81.4,32.5z M83.9,29.7c0-0.2,0.1-0.3,0.2-0.5c0.1-0.2,0.3-0.3,0.6-0.5c0.3-0.2,0.6-0.4,0.9-0.5c0.4-0.2,0.8-0.4,1.3-0.5
			c0.5-0.2,1-0.4,1.5-0.6c0.5-0.1,0.9-0.3,1.4-0.4c0.4-0.1,0.8-0.2,1.2-0.3c0.4-0.1,0.7-0.1,1-0.1h0.2c0.3,0,0.6,0,0.9,0.1
			c0.4,0,0.8,0.1,1.2,0.2c0.4,0.1,0.9,0.2,1.4,0.4c0.5,0.2,1,0.3,1.5,0.6c0.5,0.2,1,0.4,1.4,0.6c0.4,0.2,0.8,0.4,1,0.6
			c0.3,0.2,0.5,0.4,0.6,0.6c0.1,0.2,0.2,0.3,0.2,0.5c0,0.1-0.1,0.3-0.2,0.5c-0.1,0.2-0.4,0.4-0.6,0.6c-0.3,0.2-0.6,0.4-1,0.6
			c-0.5,0.3-1,0.5-1.5,0.7c-0.5,0.2-1,0.4-1.4,0.6c-0.5,0.2-0.9,0.3-1.4,0.4c-0.5,0.1-0.9,0.2-1.3,0.2c-0.4,0.1-0.8,0.1-1.1,0.1
			h-0.1c-0.4,0-0.8,0-1.2-0.1c-0.4-0.1-0.9-0.2-1.3-0.3c-0.5-0.1-0.9-0.3-1.4-0.4c-0.5-0.2-0.9-0.4-1.4-0.6l0,0l0,0l-0.1,0
			c-0.5-0.2-0.9-0.4-1.2-0.7c-0.3-0.2-0.6-0.4-0.8-0.6c-0.2-0.2-0.4-0.4-0.5-0.5C83.9,30,83.8,29.9,83.9,29.7L83.9,29.7z
			 M131.6,40.6c-0.2-0.5-0.5-0.9-1-1.4c-0.5-0.5-1.1-0.9-1.8-1.4c-0.7-0.5-1.6-0.9-2.6-1.4c-1-0.5-2.1-0.9-3.9-1.6
			c-1.1-0.4-2.3-0.8-3.5-1.2c-1-0.3-2-0.6-3-0.8c-0.9-0.2-1.8-0.3-2.7-0.4c-0.6-0.1-1.3-0.1-1.9-0.1c-0.8,0-1.6,0.1-2.4,0.2
			c-0.6,0.1-1.3,0.3-1.9,0.4c-0.7,0.2-1.4,0.4-2.1,0.7c-0.7,0.3-1.5,0.6-2.4,1.1l-8.2,4l-0.1,0.1c0,0-16.2,7.7-16.1,8.8
			c0,1.1,5.3,5.4,8.5,7.7l0.1,0c1.2,0.8,2.4,1.6,3.6,2.2c1.2,0.7,2.4,1.2,3.6,1.7c1.2,0.5,2.4,0.8,3.6,1c1.1,0.2,2.1,0.3,3.1,0.3
			c0.1,0,0.2,0,0.3,0c0.9,0,1.7-0.1,2.6-0.3c1-0.2,1.9-0.5,2.8-0.8c1-0.4,2-0.8,2.9-1.3c1-0.5,2-1.1,3-1.8c1-0.7,1.9-1.4,2.5-2
			c0.7-0.7,1.1-1.3,1.4-2c0.3-0.6,0.4-1.3,0.4-1.9c0-0.6-0.2-1.3-0.6-1.9c0.8,0.1,1.5,0.1,2.3,0.1c0.3,0,0.7,0,1,0
			c1.1-0.1,2.1-0.2,3.1-0.4c1-0.2,2-0.5,2.9-0.9c0.9-0.4,1.8-0.9,2.6-1.4c0.8-0.5,1.4-1,2-1.5c0.5-0.5,0.9-0.9,1.2-1.3
			c0.3-0.4,0.5-0.8,0.6-1.2C131.8,41.3,131.7,40.9,131.6,40.6L131.6,40.6z M109.5,49.6c-0.1,0.3-0.3,0.6-0.5,1
			c-0.3,0.3-0.6,0.7-1.1,1c-0.4,0.4-1,0.7-1.6,1.1c-0.7,0.4-1.4,0.8-2.1,1.2c-0.6,0.3-1.3,0.6-2,0.9c-0.6,0.2-1.2,0.4-1.8,0.5
			c-0.5,0.1-1.1,0.2-1.6,0.2c-0.5,0-1.1-0.1-1.7-0.2c-0.7-0.1-1.3-0.3-1.9-0.6c-0.7-0.3-1.3-0.6-2.1-0.9c-0.7-0.4-1.5-0.8-2.2-1.3
			c-0.7-0.5-1.4-0.9-1.9-1.4c-0.5-0.4-0.9-0.8-1.3-1.2c-0.3-0.4-0.5-0.7-0.7-1c-0.1-0.3-0.2-0.6-0.1-0.9c0.1-0.3,0.2-0.5,0.4-0.8
			c0.2-0.3,0.5-0.6,0.9-0.9c0.4-0.3,0.9-0.6,1.4-1c0.6-0.4,1.2-0.7,1.9-1c0.6-0.3,1.1-0.6,1.7-0.8c0.5-0.2,1.1-0.4,1.6-0.5
			c0.5-0.1,1-0.2,1.5-0.3c0.4-0.1,0.8-0.1,1.2-0.1c0.1,0,0.1,0,0.2,0c0.5,0,0.9,0.1,1.4,0.2c0.5,0.1,1,0.2,1.6,0.4
			c0.6,0.2,1.1,0.4,1.7,0.6c0.7,0.3,1.3,0.6,1.9,0.9l0.1,0l0.1,0l0.1,0.1c0.7,0.4,1.3,0.7,1.8,1c0.5,0.3,1,0.7,1.4,1
			c0.4,0.3,0.7,0.6,0.9,0.9c0.2,0.3,0.4,0.6,0.4,0.9C109.6,49,109.6,49.3,109.5,49.6L109.5,49.6z M124.7,40.4
			c-0.1,0.2-0.3,0.5-0.5,0.8c-0.2,0.3-0.6,0.6-1,0.9c-0.4,0.3-0.9,0.6-1.5,1c-0.5,0.3-1,0.6-1.5,0.8c-0.5,0.2-1,0.4-1.5,0.6
			c-0.5,0.1-1,0.3-1.5,0.3c-0.4,0.1-0.8,0.1-1.3,0.1c-0.1,0-0.2,0-0.2,0c-0.5,0-1-0.1-1.6-0.2c-0.6-0.1-1.2-0.2-1.7-0.4
			c-0.6-0.2-1.3-0.4-1.9-0.7c-0.7-0.3-1.3-0.6-2-0.9l-0.1,0l-0.1,0l-0.1,0l-0.1,0c-0.6-0.3-1.2-0.6-1.8-0.9
			c-0.4-0.3-0.9-0.5-1.3-0.9c-0.3-0.3-0.6-0.5-0.8-0.8c-0.2-0.2-0.3-0.5-0.3-0.7c0-0.2,0-0.4,0.1-0.7c0.1-0.2,0.3-0.5,0.5-0.7
			c0.3-0.3,0.6-0.5,0.9-0.7c0.4-0.3,0.8-0.5,1.3-0.7c0.5-0.3,1.1-0.5,1.6-0.8c0.5-0.2,1-0.4,1.5-0.5c0.4-0.1,0.9-0.2,1.3-0.3
			c0.4-0.1,0.8-0.1,1.2-0.1h0.1c0.4,0,0.8,0,1.2,0.1c0.5,0.1,1,0.2,1.6,0.3c0.6,0.2,1.2,0.3,1.9,0.5c0.7,0.2,1.4,0.5,2.1,0.8
			c0.7,0.3,1.4,0.6,2,0.9c0.5,0.3,1.1,0.5,1.6,0.8c0.4,0.3,0.8,0.5,1,0.8c0.3,0.2,0.4,0.5,0.5,0.7C124.8,40,124.8,40.2,124.7,40.4
			L124.7,40.4z"/>
	</defs>
	<clipPath id="SVGID_13_">
		<use xlink:href="#SVGID_12_"  style="overflow:visible;"/>
	</clipPath>
	
		<linearGradient id="SVGID_14_" gradientUnits="userSpaceOnUse" x1="1585.7053" y1="-968.8599" x2="1585.7053" y2="-972.1287" gradientTransform="matrix(5.1808 0 0 5.1808 -8118.9316 5079.918)">
		<stop  offset="0" style="stop-color:#CC171E"/>
		<stop  offset="1" style="stop-color:#ED1C24"/>
	</linearGradient>
	<path class="st9" d="M60.7,43.5h71v16.9h-71V43.5z"/>
</g>
<g>
	<defs>
		<path id="SVGID_15_" d="M81.4,32.5c0.4,0.2,0.8,0.5,1.3,0.7c0,0,0.8,0.4,0.8,0.4c1.4,0.7,2.8,1.5,4.3,1.8c1.5,0.4,3,0.6,4.5,0.6
			c0.1,0,0.2,0,0.3,0c1.4,0,2.9-0.2,4.3-0.5c1.5-0.3,3-1.1,4.4-1.7c0.8-0.4,1.4-0.7,2-1c0.6-0.3,1-0.6,1.4-1
			c0.4-0.3,0.6-0.6,0.8-0.9c0.2-0.3,0.3-0.5,0.3-0.8c0-0.3-0.1-0.6-0.4-1c-0.2-0.3-0.6-0.7-1.1-1c-0.5-0.3-1-0.7-1.7-1
			c-0.7-0.3-1.5-0.7-2.7-1.1c-0.8-0.3-1.7-0.6-2.5-0.8c-0.8-0.2-1.5-0.4-2.3-0.6c-0.7-0.1-1.4-0.2-2.1-0.3c-0.5,0-0.9-0.1-1.4-0.1
			c-0.7,0-1.4,0.1-2.1,0.2c-0.6,0.1-1.2,0.2-1.7,0.3c-0.6,0.2-1.3,0.3-1.9,0.5c-0.8,0.2-1.5,0.5-2.3,0.8l-7,2.6l-1.2,0.4l-14.4,5.4
			c-0.1,0-0.1,0.1-0.2,0.1c-0.1,0-0.1,0.1-0.1,0.1c0,0,0,0.1,0,0.1c0,0,0.1,0.1,0.1,0.1L62,36c0.2,0.1,0.4,0.2,0.7,0.3
			c0.2,0.1,0.5,0.1,0.8,0.1c0.3,0,0.6,0,0.9-0.1c0.3-0.1,0.7-0.2,1.1-0.3l11.6-4.4c0,0,0.4-0.2,1.2-0.2C79,31.3,80.1,31.6,81.4,32.5
			L81.4,32.5z M83.9,29.7c0-0.2,0.1-0.3,0.2-0.5c0.1-0.2,0.3-0.3,0.6-0.5c0.3-0.2,0.6-0.4,0.9-0.5c0.4-0.2,0.8-0.4,1.3-0.5
			c0.5-0.2,1-0.4,1.5-0.6c0.5-0.1,0.9-0.3,1.4-0.4c0.4-0.1,0.8-0.2,1.2-0.3c0.4-0.1,0.7-0.1,1-0.1h0.2c0.3,0,0.6,0,0.9,0.1
			c0.4,0,0.8,0.1,1.2,0.2c0.4,0.1,0.9,0.2,1.4,0.4c0.5,0.2,1,0.3,1.5,0.6c0.5,0.2,1,0.4,1.4,0.6c0.4,0.2,0.8,0.4,1,0.6
			c0.3,0.2,0.5,0.4,0.6,0.6c0.1,0.2,0.2,0.3,0.2,0.5c0,0.1-0.1,0.3-0.2,0.5c-0.1,0.2-0.4,0.4-0.6,0.6c-0.3,0.2-0.6,0.4-1,0.6
			c-0.5,0.3-1,0.5-1.5,0.7c-0.5,0.2-1,0.4-1.4,0.6c-0.5,0.2-0.9,0.3-1.4,0.4c-0.5,0.1-0.9,0.2-1.3,0.2c-0.4,0.1-0.8,0.1-1.1,0.1
			h-0.1c-0.4,0-0.8,0-1.2-0.1c-0.4-0.1-0.9-0.2-1.3-0.3c-0.5-0.1-0.9-0.3-1.4-0.4c-0.5-0.2-0.9-0.4-1.4-0.6l0,0l0,0l-0.1,0
			c-0.5-0.2-0.9-0.4-1.2-0.7c-0.3-0.2-0.6-0.4-0.8-0.6c-0.2-0.2-0.4-0.4-0.5-0.5C83.9,30,83.8,29.9,83.9,29.7L83.9,29.7z
			 M131.6,40.6c-0.2-0.5-0.5-0.9-1-1.4c-0.5-0.5-1.1-0.9-1.8-1.4c-0.7-0.5-1.6-0.9-2.6-1.4c-1-0.5-2.1-0.9-3.9-1.6
			c-1.1-0.4-2.3-0.8-3.5-1.2c-1-0.3-2-0.6-3-0.8c-0.9-0.2-1.8-0.3-2.7-0.4c-0.6-0.1-1.3-0.1-1.9-0.1c-0.8,0-1.6,0.1-2.4,0.2
			c-0.6,0.1-1.3,0.3-1.9,0.4c-0.7,0.2-1.4,0.4-2.1,0.7c-0.7,0.3-1.5,0.6-2.4,1.1l-8.2,4l-0.1,0.1c0,0-16.2,7.7-16.1,8.8
			c0,1.1,5.3,5.4,8.5,7.7l0.1,0c1.2,0.8,2.4,1.6,3.6,2.2c1.2,0.7,2.4,1.2,3.6,1.7c1.2,0.5,2.4,0.8,3.6,1c1.1,0.2,2.1,0.3,3.1,0.3
			c0.1,0,0.2,0,0.3,0c0.9,0,1.7-0.1,2.6-0.3c1-0.2,1.9-0.5,2.8-0.8c1-0.4,2-0.8,2.9-1.3c1-0.5,2-1.1,3-1.8c1-0.7,1.9-1.4,2.5-2
			c0.7-0.7,1.1-1.3,1.4-2c0.3-0.6,0.4-1.3,0.4-1.9c0-0.6-0.2-1.3-0.6-1.9c0.8,0.1,1.5,0.1,2.3,0.1c0.3,0,0.7,0,1,0
			c1.1-0.1,2.1-0.2,3.1-0.4c1-0.2,2-0.5,2.9-0.9c0.9-0.4,1.8-0.9,2.6-1.4c0.8-0.5,1.4-1,2-1.5c0.5-0.5,0.9-0.9,1.2-1.3
			c0.3-0.4,0.5-0.8,0.6-1.2C131.8,41.3,131.7,40.9,131.6,40.6L131.6,40.6z M109.5,49.6c-0.1,0.3-0.3,0.6-0.5,1
			c-0.3,0.3-0.6,0.7-1.1,1c-0.4,0.4-1,0.7-1.6,1.1c-0.7,0.4-1.4,0.8-2.1,1.2c-0.6,0.3-1.3,0.6-2,0.9c-0.6,0.2-1.2,0.4-1.8,0.5
			c-0.5,0.1-1.1,0.2-1.6,0.2c-0.5,0-1.1-0.1-1.7-0.2c-0.7-0.1-1.3-0.3-1.9-0.6c-0.7-0.3-1.3-0.6-2.1-0.9c-0.7-0.4-1.5-0.8-2.2-1.3
			c-0.7-0.5-1.4-0.9-1.9-1.4c-0.5-0.4-0.9-0.8-1.3-1.2c-0.3-0.4-0.5-0.7-0.7-1c-0.1-0.3-0.2-0.6-0.1-0.9c0.1-0.3,0.2-0.5,0.4-0.8
			c0.2-0.3,0.5-0.6,0.9-0.9c0.4-0.3,0.9-0.6,1.4-1c0.6-0.4,1.2-0.7,1.9-1c0.6-0.3,1.1-0.6,1.7-0.8c0.5-0.2,1.1-0.4,1.6-0.5
			c0.5-0.1,1-0.2,1.5-0.3c0.4-0.1,0.8-0.1,1.2-0.1c0.1,0,0.1,0,0.2,0c0.5,0,0.9,0.1,1.4,0.2c0.5,0.1,1,0.2,1.6,0.4
			c0.6,0.2,1.1,0.4,1.7,0.6c0.7,0.3,1.3,0.6,1.9,0.9l0.1,0l0.1,0l0.1,0.1c0.7,0.4,1.3,0.7,1.8,1c0.5,0.3,1,0.7,1.4,1
			c0.4,0.3,0.7,0.6,0.9,0.9c0.2,0.3,0.4,0.6,0.4,0.9C109.6,49,109.6,49.3,109.5,49.6L109.5,49.6z M124.7,40.4
			c-0.1,0.2-0.3,0.5-0.5,0.8c-0.2,0.3-0.6,0.6-1,0.9c-0.4,0.3-0.9,0.6-1.5,1c-0.5,0.3-1,0.6-1.5,0.8c-0.5,0.2-1,0.4-1.5,0.6
			c-0.5,0.1-1,0.3-1.5,0.3c-0.4,0.1-0.8,0.1-1.3,0.1c-0.1,0-0.2,0-0.2,0c-0.5,0-1-0.1-1.6-0.2c-0.6-0.1-1.2-0.2-1.7-0.4
			c-0.6-0.2-1.3-0.4-1.9-0.7c-0.7-0.3-1.3-0.6-2-0.9l-0.1,0l-0.1,0l-0.1,0l-0.1,0c-0.6-0.3-1.2-0.6-1.8-0.9
			c-0.4-0.3-0.9-0.5-1.3-0.9c-0.3-0.3-0.6-0.5-0.8-0.8c-0.2-0.2-0.3-0.5-0.3-0.7c0-0.2,0-0.4,0.1-0.7c0.1-0.2,0.3-0.5,0.5-0.7
			c0.3-0.3,0.6-0.5,0.9-0.7c0.4-0.3,0.8-0.5,1.3-0.7c0.5-0.3,1.1-0.5,1.6-0.8c0.5-0.2,1-0.4,1.5-0.5c0.4-0.1,0.9-0.2,1.3-0.3
			c0.4-0.1,0.8-0.1,1.2-0.1h0.1c0.4,0,0.8,0,1.2,0.1c0.5,0.1,1,0.2,1.6,0.3c0.6,0.2,1.2,0.3,1.9,0.5c0.7,0.2,1.4,0.5,2.1,0.8
			c0.7,0.3,1.4,0.6,2,0.9c0.5,0.3,1.1,0.5,1.6,0.8c0.4,0.3,0.8,0.5,1,0.8c0.3,0.2,0.4,0.5,0.5,0.7C124.8,40,124.8,40.2,124.7,40.4
			L124.7,40.4z"/>
	</defs>
	<clipPath id="SVGID_16_">
		<use xlink:href="#SVGID_15_"  style="overflow:visible;"/>
	</clipPath>
	
		<linearGradient id="SVGID_17_" gradientUnits="userSpaceOnUse" x1="1585.7053" y1="-972.1287" x2="1585.7053" y2="-972.1984" gradientTransform="matrix(5.1808 0 0 5.1808 -8118.9316 5079.918)">
		<stop  offset="0" style="stop-color:#ED1C24"/>
		<stop  offset="1" style="stop-color:#F15F66"/>
	</linearGradient>
	<path class="st10" d="M60.7,43.2h71v0.4h-71V43.2z"/>
</g>
<g>
	<defs>
		<path id="SVGID_18_" d="M81.4,32.5c0.4,0.2,0.8,0.5,1.3,0.7c0,0,0.8,0.4,0.8,0.4c1.4,0.7,2.8,1.5,4.3,1.8c1.5,0.4,3,0.6,4.5,0.6
			c0.1,0,0.2,0,0.3,0c1.4,0,2.9-0.2,4.3-0.5c1.5-0.3,3-1.1,4.4-1.7c0.8-0.4,1.4-0.7,2-1c0.6-0.3,1-0.6,1.4-1
			c0.4-0.3,0.6-0.6,0.8-0.9c0.2-0.3,0.3-0.5,0.3-0.8c0-0.3-0.1-0.6-0.4-1c-0.2-0.3-0.6-0.7-1.1-1c-0.5-0.3-1-0.7-1.7-1
			c-0.7-0.3-1.5-0.7-2.7-1.1c-0.8-0.3-1.7-0.6-2.5-0.8c-0.8-0.2-1.5-0.4-2.3-0.6c-0.7-0.1-1.4-0.2-2.1-0.3c-0.5,0-0.9-0.1-1.4-0.1
			c-0.7,0-1.4,0.1-2.1,0.2c-0.6,0.1-1.2,0.2-1.7,0.3c-0.6,0.2-1.3,0.3-1.9,0.5c-0.8,0.2-1.5,0.5-2.3,0.8l-7,2.6l-1.2,0.4l-14.4,5.4
			c-0.1,0-0.1,0.1-0.2,0.1c-0.1,0-0.1,0.1-0.1,0.1c0,0,0,0.1,0,0.1c0,0,0.1,0.1,0.1,0.1L62,36c0.2,0.1,0.4,0.2,0.7,0.3
			c0.2,0.1,0.5,0.1,0.8,0.1c0.3,0,0.6,0,0.9-0.1c0.3-0.1,0.7-0.2,1.1-0.3l11.6-4.4c0,0,0.4-0.2,1.2-0.2C79,31.3,80.1,31.6,81.4,32.5
			L81.4,32.5z M83.9,29.7c0-0.2,0.1-0.3,0.2-0.5c0.1-0.2,0.3-0.3,0.6-0.5c0.3-0.2,0.6-0.4,0.9-0.5c0.4-0.2,0.8-0.4,1.3-0.5
			c0.5-0.2,1-0.4,1.5-0.6c0.5-0.1,0.9-0.3,1.4-0.4c0.4-0.1,0.8-0.2,1.2-0.3c0.4-0.1,0.7-0.1,1-0.1h0.2c0.3,0,0.6,0,0.9,0.1
			c0.4,0,0.8,0.1,1.2,0.2c0.4,0.1,0.9,0.2,1.4,0.4c0.5,0.2,1,0.3,1.5,0.6c0.5,0.2,1,0.4,1.4,0.6c0.4,0.2,0.8,0.4,1,0.6
			c0.3,0.2,0.5,0.4,0.6,0.6c0.1,0.2,0.2,0.3,0.2,0.5c0,0.1-0.1,0.3-0.2,0.5c-0.1,0.2-0.4,0.4-0.6,0.6c-0.3,0.2-0.6,0.4-1,0.6
			c-0.5,0.3-1,0.5-1.5,0.7c-0.5,0.2-1,0.4-1.4,0.6c-0.5,0.2-0.9,0.3-1.4,0.4c-0.5,0.1-0.9,0.2-1.3,0.2c-0.4,0.1-0.8,0.1-1.1,0.1
			h-0.1c-0.4,0-0.8,0-1.2-0.1c-0.4-0.1-0.9-0.2-1.3-0.3c-0.5-0.1-0.9-0.3-1.4-0.4c-0.5-0.2-0.9-0.4-1.4-0.6l0,0l0,0l-0.1,0
			c-0.5-0.2-0.9-0.4-1.2-0.7c-0.3-0.2-0.6-0.4-0.8-0.6c-0.2-0.2-0.4-0.4-0.5-0.5C83.9,30,83.8,29.9,83.9,29.7L83.9,29.7z
			 M131.6,40.6c-0.2-0.5-0.5-0.9-1-1.4c-0.5-0.5-1.1-0.9-1.8-1.4c-0.7-0.5-1.6-0.9-2.6-1.4c-1-0.5-2.1-0.9-3.9-1.6
			c-1.1-0.4-2.3-0.8-3.5-1.2c-1-0.3-2-0.6-3-0.8c-0.9-0.2-1.8-0.3-2.7-0.4c-0.6-0.1-1.3-0.1-1.9-0.1c-0.8,0-1.6,0.1-2.4,0.2
			c-0.6,0.1-1.3,0.3-1.9,0.4c-0.7,0.2-1.4,0.4-2.1,0.7c-0.7,0.3-1.5,0.6-2.4,1.1l-8.2,4l-0.1,0.1c0,0-16.2,7.7-16.1,8.8
			c0,1.1,5.3,5.4,8.5,7.7l0.1,0c1.2,0.8,2.4,1.6,3.6,2.2c1.2,0.7,2.4,1.2,3.6,1.7c1.2,0.5,2.4,0.8,3.6,1c1.1,0.2,2.1,0.3,3.1,0.3
			c0.1,0,0.2,0,0.3,0c0.9,0,1.7-0.1,2.6-0.3c1-0.2,1.9-0.5,2.8-0.8c1-0.4,2-0.8,2.9-1.3c1-0.5,2-1.1,3-1.8c1-0.7,1.9-1.4,2.5-2
			c0.7-0.7,1.1-1.3,1.4-2c0.3-0.6,0.4-1.3,0.4-1.9c0-0.6-0.2-1.3-0.6-1.9c0.8,0.1,1.5,0.1,2.3,0.1c0.3,0,0.7,0,1,0
			c1.1-0.1,2.1-0.2,3.1-0.4c1-0.2,2-0.5,2.9-0.9c0.9-0.4,1.8-0.9,2.6-1.4c0.8-0.5,1.4-1,2-1.5c0.5-0.5,0.9-0.9,1.2-1.3
			c0.3-0.4,0.5-0.8,0.6-1.2C131.8,41.3,131.7,40.9,131.6,40.6L131.6,40.6z M109.5,49.6c-0.1,0.3-0.3,0.6-0.5,1
			c-0.3,0.3-0.6,0.7-1.1,1c-0.4,0.4-1,0.7-1.6,1.1c-0.7,0.4-1.4,0.8-2.1,1.2c-0.6,0.3-1.3,0.6-2,0.9c-0.6,0.2-1.2,0.4-1.8,0.5
			c-0.5,0.1-1.1,0.2-1.6,0.2c-0.5,0-1.1-0.1-1.7-0.2c-0.7-0.1-1.3-0.3-1.9-0.6c-0.7-0.3-1.3-0.6-2.1-0.9c-0.7-0.4-1.5-0.8-2.2-1.3
			c-0.7-0.5-1.4-0.9-1.9-1.4c-0.5-0.4-0.9-0.8-1.3-1.2c-0.3-0.4-0.5-0.7-0.7-1c-0.1-0.3-0.2-0.6-0.1-0.9c0.1-0.3,0.2-0.5,0.4-0.8
			c0.2-0.3,0.5-0.6,0.9-0.9c0.4-0.3,0.9-0.6,1.4-1c0.6-0.4,1.2-0.7,1.9-1c0.6-0.3,1.1-0.6,1.7-0.8c0.5-0.2,1.1-0.4,1.6-0.5
			c0.5-0.1,1-0.2,1.5-0.3c0.4-0.1,0.8-0.1,1.2-0.1c0.1,0,0.1,0,0.2,0c0.5,0,0.9,0.1,1.4,0.2c0.5,0.1,1,0.2,1.6,0.4
			c0.6,0.2,1.1,0.4,1.7,0.6c0.7,0.3,1.3,0.6,1.9,0.9l0.1,0l0.1,0l0.1,0.1c0.7,0.4,1.3,0.7,1.8,1c0.5,0.3,1,0.7,1.4,1
			c0.4,0.3,0.7,0.6,0.9,0.9c0.2,0.3,0.4,0.6,0.4,0.9C109.6,49,109.6,49.3,109.5,49.6L109.5,49.6z M124.7,40.4
			c-0.1,0.2-0.3,0.5-0.5,0.8c-0.2,0.3-0.6,0.6-1,0.9c-0.4,0.3-0.9,0.6-1.5,1c-0.5,0.3-1,0.6-1.5,0.8c-0.5,0.2-1,0.4-1.5,0.6
			c-0.5,0.1-1,0.3-1.5,0.3c-0.4,0.1-0.8,0.1-1.3,0.1c-0.1,0-0.2,0-0.2,0c-0.5,0-1-0.1-1.6-0.2c-0.6-0.1-1.2-0.2-1.7-0.4
			c-0.6-0.2-1.3-0.4-1.9-0.7c-0.7-0.3-1.3-0.6-2-0.9l-0.1,0l-0.1,0l-0.1,0l-0.1,0c-0.6-0.3-1.2-0.6-1.8-0.9
			c-0.4-0.3-0.9-0.5-1.3-0.9c-0.3-0.3-0.6-0.5-0.8-0.8c-0.2-0.2-0.3-0.5-0.3-0.7c0-0.2,0-0.4,0.1-0.7c0.1-0.2,0.3-0.5,0.5-0.7
			c0.3-0.3,0.6-0.5,0.9-0.7c0.4-0.3,0.8-0.5,1.3-0.7c0.5-0.3,1.1-0.5,1.6-0.8c0.5-0.2,1-0.4,1.5-0.5c0.4-0.1,0.9-0.2,1.3-0.3
			c0.4-0.1,0.8-0.1,1.2-0.1h0.1c0.4,0,0.8,0,1.2,0.1c0.5,0.1,1,0.2,1.6,0.3c0.6,0.2,1.2,0.3,1.9,0.5c0.7,0.2,1.4,0.5,2.1,0.8
			c0.7,0.3,1.4,0.6,2,0.9c0.5,0.3,1.1,0.5,1.6,0.8c0.4,0.3,0.8,0.5,1,0.8c0.3,0.2,0.4,0.5,0.5,0.7C124.8,40,124.8,40.2,124.7,40.4
			L124.7,40.4z"/>
	</defs>
	<clipPath id="SVGID_19_">
		<use xlink:href="#SVGID_18_"  style="overflow:visible;"/>
	</clipPath>
	
		<linearGradient id="SVGID_20_" gradientUnits="userSpaceOnUse" x1="1585.7053" y1="-972.1982" x2="1585.7053" y2="-975.3281" gradientTransform="matrix(5.1808 0 0 5.1808 -8118.9316 5079.918)">
		<stop  offset="0" style="stop-color:#F15F66"/>
		<stop  offset="1" style="stop-color:#FBD5D7"/>
	</linearGradient>
	<path class="st11" d="M60.7,27h71v16.2h-71V27z"/>
</g>
<g>
	<defs>
		<path id="SVGID_21_" d="M108.9,50.6c-0.3,0.3-0.6,0.7-1.1,1c-0.4,0.4-1,0.7-1.6,1.1c-0.7,0.4-1.4,0.8-2.1,1.2
			c-0.6,0.3-1.3,0.6-2,0.9c-0.6,0.2-1.2,0.4-1.8,0.5c-0.5,0.1-1.1,0.2-1.6,0.2c-0.5,0-1.1-0.1-1.7-0.2c-0.7-0.1-1.3-0.3-1.9-0.6
			c-0.7-0.3-1.3-0.6-2.1-0.9c-0.7-0.4-1.5-0.8-2.2-1.3c-0.7-0.5-1.4-0.9-1.9-1.4c-0.5-0.4-0.9-0.8-1.3-1.2c-0.3-0.4-0.5-0.7-0.7-1
			c-0.1-0.1-0.1-0.3-0.1-0.4c0,0.3,0,0.5,0.1,0.7c0.1,0.3,0.3,0.7,0.7,1c0.3,0.4,0.7,0.8,1.3,1.2c0.5,0.4,1.2,0.9,1.9,1.4
			c0.7,0.5,1.4,0.9,2.2,1.3c0.7,0.4,1.4,0.7,2.1,0.9c0.6,0.2,1.3,0.4,1.9,0.6c0.6,0.1,1.2,0.2,1.7,0.2c0.5,0,1.1-0.1,1.6-0.2
			c0.6-0.1,1.2-0.3,1.8-0.5c0.7-0.3,1.3-0.5,2-0.9c0.7-0.4,1.4-0.8,2.1-1.2c0.6-0.4,1.1-0.7,1.6-1.1c0.4-0.4,0.8-0.7,1.1-1
			c0.3-0.3,0.4-0.6,0.5-1c0.1-0.2,0.1-0.5,0.1-0.7c0,0.1,0,0.3-0.1,0.4C109.4,49.9,109.2,50.2,108.9,50.6L108.9,50.6z M131.6,40.6
			c-0.2-0.5-0.5-0.9-1-1.4c-0.5-0.5-1.1-0.9-1.8-1.4c-0.7-0.5-1.6-0.9-2.6-1.4c-1-0.5-2.1-0.9-3.9-1.6c-1.1-0.4-2.3-0.8-3.5-1.2
			c-1-0.3-2-0.6-3-0.8c-0.9-0.2-1.8-0.3-2.7-0.4c-0.6-0.1-1.3-0.1-1.9-0.1c-0.8,0-1.6,0.1-2.4,0.2c-0.6,0.1-1.3,0.3-1.9,0.4
			c-0.7,0.2-1.4,0.4-2.1,0.7c-0.7,0.3-1.5,0.6-2.4,1.1l-8.2,4l-6.9,3.3c-1,0.5-8.7,4.5-9.2,5.4c0.5-0.5,8.2-4.6,9.2-5.1l6.9-3.3
			l8.2-4c0.9-0.5,1.7-0.8,2.4-1.1c0.7-0.3,1.4-0.5,2.1-0.7c0.6-0.2,1.3-0.3,1.9-0.4c0.8-0.1,1.6-0.2,2.4-0.2c0.6,0,1.2,0,1.9,0.1
			c0.9,0.1,1.8,0.2,2.7,0.4c1,0.2,2,0.5,3,0.8c1.1,0.3,2.2,0.7,3.5,1.2c1.7,0.7,2.9,1.1,3.9,1.6c1,0.5,1.9,0.9,2.6,1.4
			c0.8,0.5,1.4,0.9,1.8,1.4c0.5,0.5,0.8,0.9,1,1.4c0.1,0.2,0.1,0.3,0.1,0.5C131.8,41.1,131.7,40.8,131.6,40.6L131.6,40.6z
			 M124.7,40.4c-0.1,0.2-0.3,0.5-0.5,0.8c-0.2,0.3-0.6,0.6-1,0.9c-0.4,0.3-0.9,0.6-1.5,1c-0.5,0.3-1,0.6-1.5,0.8
			c-0.5,0.2-1,0.4-1.5,0.6c-0.5,0.1-1,0.3-1.5,0.3c-0.4,0.1-0.8,0.1-1.3,0.1c-0.1,0-0.2,0-0.2,0c-0.5,0-1-0.1-1.6-0.2
			c-0.6-0.1-1.2-0.2-1.7-0.4c-0.6-0.2-1.3-0.4-1.9-0.7c-0.7-0.3-1.3-0.6-2-0.9l-0.1,0l-0.1,0l-0.1,0l-0.1,0
			c-0.6-0.3-1.2-0.6-1.8-0.9c-0.4-0.3-0.9-0.5-1.3-0.9c-0.3-0.3-0.6-0.5-0.8-0.8c-0.2-0.2-0.3-0.5-0.3-0.7c0,0,0,0,0,0
			c0,0.1,0,0.2,0,0.3c0,0.2,0.1,0.5,0.3,0.7c0.2,0.2,0.5,0.5,0.8,0.8c0.4,0.3,0.8,0.6,1.3,0.9c0.6,0.3,1.2,0.7,1.8,0.9l0.1,0l0.1,0
			l0.1,0l0.1,0c0.7,0.3,1.3,0.6,2,0.9c0.7,0.3,1.3,0.5,1.9,0.7c0.6,0.2,1.2,0.3,1.7,0.4c0.5,0.1,1.1,0.2,1.6,0.2c0.1,0,0.2,0,0.2,0
			c0.4,0,0.8,0,1.3-0.1c0.5-0.1,1-0.2,1.5-0.3c0.5-0.2,1-0.4,1.5-0.6c0.5-0.2,1-0.5,1.5-0.8c0.6-0.4,1.1-0.7,1.5-1
			c0.4-0.3,0.7-0.6,1-0.9c0.2-0.3,0.4-0.5,0.5-0.8c0.1-0.2,0.1-0.4,0.1-0.6C124.8,40.3,124.7,40.4,124.7,40.4L124.7,40.4z M116,48.7
			c0.3,0.6,0.5,1.2,0.6,1.8c0-0.1,0-0.2,0-0.3c0-0.5-0.2-1-0.4-1.6C116.1,48.7,116,48.7,116,48.7L116,48.7z M99.7,30.9
			c-0.3,0.2-0.6,0.4-1,0.6c-0.5,0.3-1,0.5-1.5,0.7c-0.5,0.2-1,0.4-1.4,0.6c-0.5,0.2-0.9,0.3-1.4,0.4c-0.5,0.1-0.9,0.2-1.3,0.2
			c-0.4,0.1-0.8,0.1-1.1,0.1h-0.1c-0.4,0-0.8,0-1.2-0.1c-0.4-0.1-0.9-0.2-1.3-0.3c-0.5-0.1-0.9-0.3-1.4-0.4
			c-0.5-0.2-0.9-0.4-1.4-0.6l0,0l0,0l-0.1,0c-0.5-0.2-0.9-0.4-1.2-0.7c-0.3-0.2-0.6-0.4-0.8-0.6c-0.2-0.2-0.4-0.4-0.5-0.5
			c0-0.1-0.1-0.1-0.1-0.2c0,0,0,0,0,0c0,0.2,0,0.3,0.1,0.5c0.1,0.2,0.2,0.4,0.5,0.5c0.2,0.2,0.5,0.4,0.8,0.6
			c0.3,0.2,0.7,0.4,1.2,0.7l0.1,0l0,0l0,0c0.5,0.2,0.9,0.4,1.4,0.6c0.4,0.2,0.9,0.3,1.4,0.4c0.4,0.1,0.9,0.2,1.3,0.3
			c0.4,0.1,0.8,0.1,1.2,0.1H92c0.4,0,0.7,0,1.1-0.1c0.4-0.1,0.9-0.1,1.3-0.2c0.4-0.1,0.9-0.2,1.4-0.4c0.5-0.2,0.9-0.4,1.4-0.6
			c0.5-0.2,1-0.5,1.5-0.7c0.4-0.2,0.8-0.4,1-0.6c0.3-0.2,0.5-0.4,0.6-0.6c0.1-0.2,0.2-0.3,0.2-0.5c0-0.1,0-0.1,0-0.2
			c0,0.1-0.1,0.2-0.2,0.4C100.2,30.5,100,30.7,99.7,30.9L99.7,30.9z M85.9,25.8c0.6-0.2,1.3-0.4,1.9-0.5c0.6-0.1,1.1-0.2,1.7-0.3
			c0.7-0.1,1.4-0.2,2.1-0.2c0.5,0,0.9,0,1.4,0.1c0.7,0.1,1.4,0.2,2.1,0.3c0.7,0.1,1.5,0.3,2.3,0.6c0.8,0.3,1.7,0.5,2.5,0.9
			c1.2,0.5,2,0.8,2.7,1.1c0.7,0.3,1.3,0.7,1.7,1c0.5,0.3,0.8,0.7,1.1,1c0.2,0.3,0.3,0.5,0.3,0.8c0,0,0-0.1,0-0.1
			c0-0.3-0.1-0.6-0.4-1c-0.2-0.3-0.6-0.7-1.1-1c-0.5-0.3-1-0.7-1.7-1c-0.7-0.3-1.5-0.7-2.7-1.1c-0.8-0.3-1.7-0.6-2.5-0.8
			c-0.8-0.2-1.5-0.4-2.3-0.6c-0.7-0.1-1.4-0.2-2.1-0.3c-0.5,0-0.9-0.1-1.4-0.1c-0.7,0-1.4,0.1-2.1,0.2c-0.6,0.1-1.2,0.2-1.7,0.3
			c-0.6,0.2-1.3,0.3-1.9,0.5c-0.8,0.2-1.5,0.5-2.3,0.8l-7,2.6l-1.2,0.4l-14.4,5.4c-0.1,0-0.1,0.1-0.2,0.1c-0.1,0-0.1,0.1-0.1,0.1
			c0,0,0,0.1,0,0.1c0,0,0.1,0.1,0.1,0.1l0,0c0,0,0,0,0,0c0,0,0.1-0.1,0.2-0.1l14.4-5.4l1.2-0.4l7-2.6C84.4,26.3,85.2,26,85.9,25.8z"
			/>
	</defs>
	<clipPath id="SVGID_22_">
		<use xlink:href="#SVGID_21_"  style="overflow:visible;"/>
	</clipPath>
	
		<linearGradient id="SVGID_23_" gradientUnits="userSpaceOnUse" x1="1584.8501" y1="-970.0206" x2="1585.5637" y2="-972.6835" gradientTransform="matrix(5.1808 0 0 5.1808 -8118.9316 5079.918)">
		<stop  offset="0" style="stop-color:#F15F66"/>
		<stop  offset="1" style="stop-color:#F26F66"/>
	</linearGradient>
	<path class="st12" d="M57.9,45.4l3.7-13.3l67.9,17.7l-3.7,13.3L57.9,45.4z"/>
</g>
<g>
	<g>
		<defs>
			<path id="SVGID_24_" d="M108.9,50.6c-0.3,0.3-0.6,0.7-1.1,1c-0.4,0.4-1,0.7-1.6,1.1c-0.7,0.4-1.4,0.8-2.1,1.2
				c-0.6,0.3-1.3,0.6-2,0.9c-0.6,0.2-1.2,0.4-1.8,0.5c-0.5,0.1-1.1,0.2-1.6,0.2c-0.5,0-1.1-0.1-1.7-0.2c-0.7-0.1-1.3-0.3-1.9-0.6
				c-0.7-0.3-1.3-0.6-2.1-0.9c-0.7-0.4-1.5-0.8-2.2-1.3c-0.7-0.5-1.4-0.9-1.9-1.4c-0.5-0.4-0.9-0.8-1.3-1.2c-0.3-0.4-0.5-0.7-0.7-1
				c-0.1-0.1-0.1-0.3-0.1-0.4c0,0.3,0,0.5,0.1,0.7c0.1,0.3,0.3,0.7,0.7,1c0.3,0.4,0.7,0.8,1.3,1.2c0.5,0.4,1.2,0.9,1.9,1.4
				c0.7,0.5,1.4,0.9,2.2,1.3c0.7,0.4,1.4,0.7,2.1,0.9c0.6,0.2,1.3,0.4,1.9,0.6c0.6,0.1,1.2,0.2,1.7,0.2c0.5,0,1.1-0.1,1.6-0.2
				c0.6-0.1,1.2-0.3,1.8-0.5c0.7-0.3,1.3-0.5,2-0.9c0.7-0.4,1.4-0.8,2.1-1.2c0.6-0.4,1.1-0.7,1.6-1.1c0.4-0.4,0.8-0.7,1.1-1
				c0.3-0.3,0.4-0.6,0.5-1c0.1-0.2,0.1-0.5,0.1-0.7c0,0.1,0,0.3-0.1,0.4C109.4,49.9,109.2,50.2,108.9,50.6L108.9,50.6z M131.6,40.6
				c-0.2-0.5-0.5-0.9-1-1.4c-0.5-0.5-1.1-0.9-1.8-1.4c-0.7-0.5-1.6-0.9-2.6-1.4c-1-0.5-2.1-0.9-3.9-1.6c-1.1-0.4-2.3-0.8-3.5-1.2
				c-1-0.3-2-0.6-3-0.8c-0.9-0.2-1.8-0.3-2.7-0.4c-0.6-0.1-1.3-0.1-1.9-0.1c-0.8,0-1.6,0.1-2.4,0.2c-0.6,0.1-1.3,0.3-1.9,0.4
				c-0.7,0.2-1.4,0.4-2.1,0.7c-0.7,0.3-1.5,0.6-2.4,1.1l-8.2,4l-6.9,3.3c-1,0.5-8.7,4.5-9.2,5.4c0.5-0.5,8.2-4.6,9.2-5.1l6.9-3.3
				l8.2-4c0.9-0.5,1.7-0.8,2.4-1.1c0.7-0.3,1.4-0.5,2.1-0.7c0.6-0.2,1.3-0.3,1.9-0.4c0.8-0.1,1.6-0.2,2.4-0.2c0.6,0,1.2,0,1.9,0.1
				c0.9,0.1,1.8,0.2,2.7,0.4c1,0.2,2,0.5,3,0.8c1.1,0.3,2.2,0.7,3.5,1.2c1.7,0.7,2.9,1.1,3.9,1.6c1,0.5,1.9,0.9,2.6,1.4
				c0.8,0.5,1.4,0.9,1.8,1.4c0.5,0.5,0.8,0.9,1,1.4c0.1,0.2,0.1,0.3,0.1,0.5C131.8,41.1,131.7,40.8,131.6,40.6L131.6,40.6z
				 M124.7,40.4c-0.1,0.2-0.3,0.5-0.5,0.8c-0.2,0.3-0.6,0.6-1,0.9c-0.4,0.3-0.9,0.6-1.5,1c-0.5,0.3-1,0.6-1.5,0.8
				c-0.5,0.2-1,0.4-1.5,0.6c-0.5,0.1-1,0.3-1.5,0.3c-0.4,0.1-0.8,0.1-1.3,0.1c-0.1,0-0.2,0-0.2,0c-0.5,0-1-0.1-1.6-0.2
				c-0.6-0.1-1.2-0.2-1.7-0.4c-0.6-0.2-1.3-0.4-1.9-0.7c-0.7-0.3-1.3-0.6-2-0.9l-0.1,0l-0.1,0l-0.1,0l-0.1,0
				c-0.6-0.3-1.2-0.6-1.8-0.9c-0.4-0.3-0.9-0.5-1.3-0.9c-0.3-0.3-0.6-0.5-0.8-0.8c-0.2-0.2-0.3-0.5-0.3-0.7c0,0,0,0,0,0
				c0,0.1,0,0.2,0,0.3c0,0.2,0.1,0.5,0.3,0.7c0.2,0.2,0.5,0.5,0.8,0.8c0.4,0.3,0.8,0.6,1.3,0.9c0.6,0.3,1.2,0.7,1.8,0.9l0.1,0l0.1,0
				l0.1,0l0.1,0c0.7,0.3,1.3,0.6,2,0.9c0.7,0.3,1.3,0.5,1.9,0.7c0.6,0.2,1.2,0.3,1.7,0.4c0.5,0.1,1.1,0.2,1.6,0.2c0.1,0,0.2,0,0.2,0
				c0.4,0,0.8,0,1.3-0.1c0.5-0.1,1-0.2,1.5-0.3c0.5-0.2,1-0.4,1.5-0.6c0.5-0.2,1-0.5,1.5-0.8c0.6-0.4,1.1-0.7,1.5-1
				c0.4-0.3,0.7-0.6,1-0.9c0.2-0.3,0.4-0.5,0.5-0.8c0.1-0.2,0.1-0.4,0.1-0.6C124.8,40.3,124.7,40.4,124.7,40.4L124.7,40.4z
				 M116,48.7c0.3,0.6,0.5,1.2,0.6,1.8c0-0.1,0-0.2,0-0.3c0-0.5-0.2-1-0.4-1.6C116.1,48.7,116,48.7,116,48.7L116,48.7z M99.7,30.9
				c-0.3,0.2-0.6,0.4-1,0.6c-0.5,0.3-1,0.5-1.5,0.7c-0.5,0.2-1,0.4-1.4,0.6c-0.5,0.2-0.9,0.3-1.4,0.4c-0.5,0.1-0.9,0.2-1.3,0.2
				c-0.4,0.1-0.8,0.1-1.1,0.1h-0.1c-0.4,0-0.8,0-1.2-0.1c-0.4-0.1-0.9-0.2-1.3-0.3c-0.5-0.1-0.9-0.3-1.4-0.4
				c-0.5-0.2-0.9-0.4-1.4-0.6l0,0l0,0l-0.1,0c-0.5-0.2-0.9-0.4-1.2-0.7c-0.3-0.2-0.6-0.4-0.8-0.6c-0.2-0.2-0.4-0.4-0.5-0.5
				c0-0.1-0.1-0.1-0.1-0.2c0,0,0,0,0,0c0,0.2,0,0.3,0.1,0.5c0.1,0.2,0.2,0.4,0.5,0.5c0.2,0.2,0.5,0.4,0.8,0.6
				c0.3,0.2,0.7,0.4,1.2,0.7l0.1,0l0,0l0,0c0.5,0.2,0.9,0.4,1.4,0.6c0.4,0.2,0.9,0.3,1.4,0.4c0.4,0.1,0.9,0.2,1.3,0.3
				c0.4,0.1,0.8,0.1,1.2,0.1H92c0.4,0,0.7,0,1.1-0.1c0.4-0.1,0.9-0.1,1.3-0.2c0.4-0.1,0.9-0.2,1.4-0.4c0.5-0.2,0.9-0.4,1.4-0.6
				c0.5-0.2,1-0.5,1.5-0.7c0.4-0.2,0.8-0.4,1-0.6c0.3-0.2,0.5-0.4,0.6-0.6c0.1-0.2,0.2-0.3,0.2-0.5c0-0.1,0-0.1,0-0.2
				c0,0.1-0.1,0.2-0.2,0.4C100.2,30.5,100,30.7,99.7,30.9L99.7,30.9z M85.9,25.8c0.6-0.2,1.3-0.4,1.9-0.5c0.6-0.1,1.1-0.2,1.7-0.3
				c0.7-0.1,1.4-0.2,2.1-0.2c0.5,0,0.9,0,1.4,0.1c0.7,0.1,1.4,0.2,2.1,0.3c0.7,0.1,1.5,0.3,2.3,0.6c0.8,0.3,1.7,0.5,2.5,0.9
				c1.2,0.5,2,0.8,2.7,1.1c0.7,0.3,1.3,0.7,1.7,1c0.5,0.3,0.8,0.7,1.1,1c0.2,0.3,0.3,0.5,0.3,0.8c0,0,0-0.1,0-0.1
				c0-0.3-0.1-0.6-0.4-1c-0.2-0.3-0.6-0.7-1.1-1c-0.5-0.3-1-0.7-1.7-1c-0.7-0.3-1.5-0.7-2.7-1.1c-0.8-0.3-1.7-0.6-2.5-0.8
				c-0.8-0.2-1.5-0.4-2.3-0.6c-0.7-0.1-1.4-0.2-2.1-0.3c-0.5,0-0.9-0.1-1.4-0.1c-0.7,0-1.4,0.1-2.1,0.2c-0.6,0.1-1.2,0.2-1.7,0.3
				c-0.6,0.2-1.3,0.3-1.9,0.5c-0.8,0.2-1.5,0.5-2.3,0.8l-7,2.6l-1.2,0.4l-14.4,5.4c-0.1,0-0.1,0.1-0.2,0.1c-0.1,0-0.1,0.1-0.1,0.1
				c0,0,0,0.1,0,0.1c0,0,0.1,0.1,0.1,0.1l0,0c0,0,0,0,0,0c0,0,0.1-0.1,0.2-0.1l14.4-5.4l1.2-0.4l7-2.6C84.4,26.3,85.2,26,85.9,25.8z
				"/>
		</defs>
		<clipPath id="SVGID_25_">
			<use xlink:href="#SVGID_24_"  style="overflow:visible;"/>
		</clipPath>
		
			<linearGradient id="SVGID_26_" gradientUnits="userSpaceOnUse" x1="1585.5541" y1="-972.6105" x2="1585.5829" y2="-972.7181" gradientTransform="matrix(5.1808 0 0 5.1808 -8118.9316 5079.918)">
			<stop  offset="0" style="stop-color:#F26F66"/>
			<stop  offset="1" style="stop-color:#F4848B"/>
		</linearGradient>
		<path class="st13" d="M61.6,32.1l0.1-0.3l67.9,17.7l-0.1,0.3L61.6,32.1z"/>
	</g>
</g>
<g>
	<g>
		<defs>
			<path id="SVGID_27_" d="M108.9,50.6c-0.3,0.3-0.6,0.7-1.1,1c-0.4,0.4-1,0.7-1.6,1.1c-0.7,0.4-1.4,0.8-2.1,1.2
				c-0.6,0.3-1.3,0.6-2,0.9c-0.6,0.2-1.2,0.4-1.8,0.5c-0.5,0.1-1.1,0.2-1.6,0.2c-0.5,0-1.1-0.1-1.7-0.2c-0.7-0.1-1.3-0.3-1.9-0.6
				c-0.7-0.3-1.3-0.6-2.1-0.9c-0.7-0.4-1.5-0.8-2.2-1.3c-0.7-0.5-1.4-0.9-1.9-1.4c-0.5-0.4-0.9-0.8-1.3-1.2c-0.3-0.4-0.5-0.7-0.7-1
				c-0.1-0.1-0.1-0.3-0.1-0.4c0,0.3,0,0.5,0.1,0.7c0.1,0.3,0.3,0.7,0.7,1c0.3,0.4,0.7,0.8,1.3,1.2c0.5,0.4,1.2,0.9,1.9,1.4
				c0.7,0.5,1.4,0.9,2.2,1.3c0.7,0.4,1.4,0.7,2.1,0.9c0.6,0.2,1.3,0.4,1.9,0.6c0.6,0.1,1.2,0.2,1.7,0.2c0.5,0,1.1-0.1,1.6-0.2
				c0.6-0.1,1.2-0.3,1.8-0.5c0.7-0.3,1.3-0.5,2-0.9c0.7-0.4,1.4-0.8,2.1-1.2c0.6-0.4,1.1-0.7,1.6-1.1c0.4-0.4,0.8-0.7,1.1-1
				c0.3-0.3,0.4-0.6,0.5-1c0.1-0.2,0.1-0.5,0.1-0.7c0,0.1,0,0.3-0.1,0.4C109.4,49.9,109.2,50.2,108.9,50.6L108.9,50.6z M131.6,40.6
				c-0.2-0.5-0.5-0.9-1-1.4c-0.5-0.5-1.1-0.9-1.8-1.4c-0.7-0.5-1.6-0.9-2.6-1.4c-1-0.5-2.1-0.9-3.9-1.6c-1.1-0.4-2.3-0.8-3.5-1.2
				c-1-0.3-2-0.6-3-0.8c-0.9-0.2-1.8-0.3-2.7-0.4c-0.6-0.1-1.3-0.1-1.9-0.1c-0.8,0-1.6,0.1-2.4,0.2c-0.6,0.1-1.3,0.3-1.9,0.4
				c-0.7,0.2-1.4,0.4-2.1,0.7c-0.7,0.3-1.5,0.6-2.4,1.1l-8.2,4l-6.9,3.3c-1,0.5-8.7,4.5-9.2,5.4c0.5-0.5,8.2-4.6,9.2-5.1l6.9-3.3
				l8.2-4c0.9-0.5,1.7-0.8,2.4-1.1c0.7-0.3,1.4-0.5,2.1-0.7c0.6-0.2,1.3-0.3,1.9-0.4c0.8-0.1,1.6-0.2,2.4-0.2c0.6,0,1.2,0,1.9,0.1
				c0.9,0.1,1.8,0.2,2.7,0.4c1,0.2,2,0.5,3,0.8c1.1,0.3,2.2,0.7,3.5,1.2c1.7,0.7,2.9,1.1,3.9,1.6c1,0.5,1.9,0.9,2.6,1.4
				c0.8,0.5,1.4,0.9,1.8,1.4c0.5,0.5,0.8,0.9,1,1.4c0.1,0.2,0.1,0.3,0.1,0.5C131.8,41.1,131.7,40.8,131.6,40.6L131.6,40.6z
				 M124.7,40.4c-0.1,0.2-0.3,0.5-0.5,0.8c-0.2,0.3-0.6,0.6-1,0.9c-0.4,0.3-0.9,0.6-1.5,1c-0.5,0.3-1,0.6-1.5,0.8
				c-0.5,0.2-1,0.4-1.5,0.6c-0.5,0.1-1,0.3-1.5,0.3c-0.4,0.1-0.8,0.1-1.3,0.1c-0.1,0-0.2,0-0.2,0c-0.5,0-1-0.1-1.6-0.2
				c-0.6-0.1-1.2-0.2-1.7-0.4c-0.6-0.2-1.3-0.4-1.9-0.7c-0.7-0.3-1.3-0.6-2-0.9l-0.1,0l-0.1,0l-0.1,0l-0.1,0
				c-0.6-0.3-1.2-0.6-1.8-0.9c-0.4-0.3-0.9-0.5-1.3-0.9c-0.3-0.3-0.6-0.5-0.8-0.8c-0.2-0.2-0.3-0.5-0.3-0.7c0,0,0,0,0,0
				c0,0.1,0,0.2,0,0.3c0,0.2,0.1,0.5,0.3,0.7c0.2,0.2,0.5,0.5,0.8,0.8c0.4,0.3,0.8,0.6,1.3,0.9c0.6,0.3,1.2,0.7,1.8,0.9l0.1,0l0.1,0
				l0.1,0l0.1,0c0.7,0.3,1.3,0.6,2,0.9c0.7,0.3,1.3,0.5,1.9,0.7c0.6,0.2,1.2,0.3,1.7,0.4c0.5,0.1,1.1,0.2,1.6,0.2c0.1,0,0.2,0,0.2,0
				c0.4,0,0.8,0,1.3-0.1c0.5-0.1,1-0.2,1.5-0.3c0.5-0.2,1-0.4,1.5-0.6c0.5-0.2,1-0.5,1.5-0.8c0.6-0.4,1.1-0.7,1.5-1
				c0.4-0.3,0.7-0.6,1-0.9c0.2-0.3,0.4-0.5,0.5-0.8c0.1-0.2,0.1-0.4,0.1-0.6C124.8,40.3,124.7,40.4,124.7,40.4L124.7,40.4z
				 M116,48.7c0.3,0.6,0.5,1.2,0.6,1.8c0-0.1,0-0.2,0-0.3c0-0.5-0.2-1-0.4-1.6C116.1,48.7,116,48.7,116,48.7L116,48.7z M99.7,30.9
				c-0.3,0.2-0.6,0.4-1,0.6c-0.5,0.3-1,0.5-1.5,0.7c-0.5,0.2-1,0.4-1.4,0.6c-0.5,0.2-0.9,0.3-1.4,0.4c-0.5,0.1-0.9,0.2-1.3,0.2
				c-0.4,0.1-0.8,0.1-1.1,0.1h-0.1c-0.4,0-0.8,0-1.2-0.1c-0.4-0.1-0.9-0.2-1.3-0.3c-0.5-0.1-0.9-0.3-1.4-0.4
				c-0.5-0.2-0.9-0.4-1.4-0.6l0,0l0,0l-0.1,0c-0.5-0.2-0.9-0.4-1.2-0.7c-0.3-0.2-0.6-0.4-0.8-0.6c-0.2-0.2-0.4-0.4-0.5-0.5
				c0-0.1-0.1-0.1-0.1-0.2c0,0,0,0,0,0c0,0.2,0,0.3,0.1,0.5c0.1,0.2,0.2,0.4,0.5,0.5c0.2,0.2,0.5,0.4,0.8,0.6
				c0.3,0.2,0.7,0.4,1.2,0.7l0.1,0l0,0l0,0c0.5,0.2,0.9,0.4,1.4,0.6c0.4,0.2,0.9,0.3,1.4,0.4c0.4,0.1,0.9,0.2,1.3,0.3
				c0.4,0.1,0.8,0.1,1.2,0.1H92c0.4,0,0.7,0,1.1-0.1c0.4-0.1,0.9-0.1,1.3-0.2c0.4-0.1,0.9-0.2,1.4-0.4c0.5-0.2,0.9-0.4,1.4-0.6
				c0.5-0.2,1-0.5,1.5-0.7c0.4-0.2,0.8-0.4,1-0.6c0.3-0.2,0.5-0.4,0.6-0.6c0.1-0.2,0.2-0.3,0.2-0.5c0-0.1,0-0.1,0-0.2
				c0,0.1-0.1,0.2-0.2,0.4C100.2,30.5,100,30.7,99.7,30.9L99.7,30.9z M85.9,25.8c0.6-0.2,1.3-0.4,1.9-0.5c0.6-0.1,1.1-0.2,1.7-0.3
				c0.7-0.1,1.4-0.2,2.1-0.2c0.5,0,0.9,0,1.4,0.1c0.7,0.1,1.4,0.2,2.1,0.3c0.7,0.1,1.5,0.3,2.3,0.6c0.8,0.3,1.7,0.5,2.5,0.9
				c1.2,0.5,2,0.8,2.7,1.1c0.7,0.3,1.3,0.7,1.7,1c0.5,0.3,0.8,0.7,1.1,1c0.2,0.3,0.3,0.5,0.3,0.8c0,0,0-0.1,0-0.1
				c0-0.3-0.1-0.6-0.4-1c-0.2-0.3-0.6-0.7-1.1-1c-0.5-0.3-1-0.7-1.7-1c-0.7-0.3-1.5-0.7-2.7-1.1c-0.8-0.3-1.7-0.6-2.5-0.8
				c-0.8-0.2-1.5-0.4-2.3-0.6c-0.7-0.1-1.4-0.2-2.1-0.3c-0.5,0-0.9-0.1-1.4-0.1c-0.7,0-1.4,0.1-2.1,0.2c-0.6,0.1-1.2,0.2-1.7,0.3
				c-0.6,0.2-1.3,0.3-1.9,0.5c-0.8,0.2-1.5,0.5-2.3,0.8l-7,2.6l-1.2,0.4l-14.4,5.4c-0.1,0-0.1,0.1-0.2,0.1c-0.1,0-0.1,0.1-0.1,0.1
				c0,0,0,0.1,0,0.1c0,0,0.1,0.1,0.1,0.1l0,0c0,0,0,0,0,0c0,0,0.1-0.1,0.2-0.1l14.4-5.4l1.2-0.4l7-2.6C84.4,26.3,85.2,26,85.9,25.8z
				"/>
		</defs>
		<clipPath id="SVGID_28_">
			<use xlink:href="#SVGID_27_"  style="overflow:visible;"/>
		</clipPath>
		
			<linearGradient id="SVGID_29_" gradientUnits="userSpaceOnUse" x1="1585.5707" y1="-972.6439" x2="1586.1227" y2="-974.7043" gradientTransform="matrix(5.1808 0 0 5.1808 -8118.9316 5079.918)">
			<stop  offset="0" style="stop-color:#F4848B"/>
			<stop  offset="1" style="stop-color:#FFFFFF"/>
		</linearGradient>
		<path class="st14" d="M61.6,31.8l2.8-10.2l67.9,17.7l-2.8,10.2L61.6,31.8z"/>
	</g>
</g>
<path d="M188.9,86.3h-0.2v-0.5c0,0,0.1,0,0.2,0c0.3,0,0.4,0.1,0.4,0.3C189.4,86.2,189.2,86.3,188.9,86.3L188.9,86.3z M189.4,86.4
	L189.4,86.4c0.2-0.1,0.4-0.2,0.4-0.4c0-0.2-0.1-0.3-0.2-0.4c-0.1-0.1-0.3-0.1-0.6-0.1c-0.3,0-0.5,0-0.7,0.1v1.8h0.4v-0.7h0.2
	c0.2,0,0.3,0.1,0.4,0.3c0.1,0.2,0.1,0.4,0.1,0.4h0.4c0-0.1-0.1-0.2-0.1-0.4C189.7,86.6,189.6,86.5,189.4,86.4L189.4,86.4z
	 M188.9,86.3h-0.2v-0.5c0,0,0.1,0,0.2,0c0.3,0,0.4,0.1,0.4,0.3C189.4,86.2,189.2,86.3,188.9,86.3L188.9,86.3z M189.4,86.4
	L189.4,86.4c0.2-0.1,0.4-0.2,0.4-0.4c0-0.2-0.1-0.3-0.2-0.4c-0.1-0.1-0.3-0.1-0.6-0.1c-0.3,0-0.5,0-0.7,0.1v1.8h0.4v-0.7h0.2
	c0.2,0,0.3,0.1,0.4,0.3c0.1,0.2,0.1,0.4,0.1,0.4h0.4c0-0.1-0.1-0.2-0.1-0.4C189.7,86.6,189.6,86.5,189.4,86.4L189.4,86.4z
	 M188.9,86.3h-0.2v-0.5c0,0,0.1,0,0.2,0c0.3,0,0.4,0.1,0.4,0.3C189.4,86.2,189.2,86.3,188.9,86.3L188.9,86.3z M189.4,86.4
	L189.4,86.4c0.2-0.1,0.4-0.2,0.4-0.4c0-0.2-0.1-0.3-0.2-0.4c-0.1-0.1-0.3-0.1-0.6-0.1c-0.3,0-0.5,0-0.7,0.1v1.8h0.4v-0.7h0.2
	c0.2,0,0.3,0.1,0.4,0.3c0.1,0.2,0.1,0.4,0.1,0.4h0.4c0-0.1-0.1-0.2-0.1-0.4C189.7,86.6,189.6,86.5,189.4,86.4L189.4,86.4z
	 M188.9,86.3h-0.2v-0.5c0,0,0.1,0,0.2,0c0.3,0,0.4,0.1,0.4,0.3C189.4,86.2,189.2,86.3,188.9,86.3L188.9,86.3z M189.4,86.4
	L189.4,86.4c0.2-0.1,0.4-0.2,0.4-0.4c0-0.2-0.1-0.3-0.2-0.4c-0.1-0.1-0.3-0.1-0.6-0.1c-0.3,0-0.5,0-0.7,0.1v1.8h0.4v-0.7h0.2
	c0.2,0,0.3,0.1,0.4,0.3c0.1,0.2,0.1,0.4,0.1,0.4h0.4c0-0.1-0.1-0.2-0.1-0.4C189.7,86.6,189.6,86.5,189.4,86.4L189.4,86.4z
	 M189.4,86.4L189.4,86.4c0.2-0.1,0.4-0.2,0.4-0.4c0-0.2-0.1-0.3-0.2-0.4c-0.1-0.1-0.3-0.1-0.6-0.1c-0.3,0-0.5,0-0.7,0.1v1.8h0.4
	v-0.7h0.2c0.2,0,0.3,0.1,0.4,0.3c0.1,0.2,0.1,0.4,0.1,0.4h0.4c0-0.1-0.1-0.2-0.1-0.4C189.7,86.6,189.6,86.5,189.4,86.4L189.4,86.4z
	 M188.9,86.3h-0.2v-0.5c0,0,0.1,0,0.2,0c0.3,0,0.4,0.1,0.4,0.3C189.4,86.2,189.2,86.3,188.9,86.3L188.9,86.3z M189,87.8
	c-0.8,0-1.4-0.6-1.4-1.4c0-0.8,0.6-1.4,1.4-1.4h0c0.8,0,1.4,0.6,1.4,1.4C190.4,87.2,189.8,87.8,189,87.8z M189,84.6L189,84.6
	c-1,0-1.9,0.8-1.9,1.8c0,1,0.8,1.8,1.9,1.8c1,0,1.9-0.8,1.9-1.8C190.9,85.4,190.1,84.6,189,84.6z M189,87.8c-0.8,0-1.4-0.6-1.4-1.4
	c0-0.8,0.6-1.4,1.4-1.4h0c0.8,0,1.4,0.6,1.4,1.4C190.4,87.2,189.8,87.8,189,87.8z M189,84.6L189,84.6c-1,0-1.9,0.8-1.9,1.8
	c0,1,0.8,1.8,1.9,1.8c1,0,1.9-0.8,1.9-1.8C190.9,85.4,190.1,84.6,189,84.6z M189,87.8c-0.8,0-1.4-0.6-1.4-1.4c0-0.8,0.6-1.4,1.4-1.4
	h0c0.8,0,1.4,0.6,1.4,1.4C190.4,87.2,189.8,87.8,189,87.8z M189,84.6L189,84.6c-1,0-1.9,0.8-1.9,1.8c0,1,0.8,1.8,1.9,1.8
	c1,0,1.9-0.8,1.9-1.8C190.9,85.4,190.1,84.6,189,84.6z M189,87.8c-0.8,0-1.4-0.6-1.4-1.4c0-0.8,0.6-1.4,1.4-1.4h0
	c0.8,0,1.4,0.6,1.4,1.4C190.4,87.2,189.8,87.8,189,87.8z M189,84.6L189,84.6c-1,0-1.9,0.8-1.9,1.8c0,1,0.8,1.8,1.9,1.8
	c1,0,1.9-0.8,1.9-1.8C190.9,85.4,190.1,84.6,189,84.6z M189,84.6L189,84.6c-1,0-1.9,0.8-1.9,1.8c0,1,0.8,1.8,1.9,1.8
	c1,0,1.9-0.8,1.9-1.8C190.9,85.4,190.1,84.6,189,84.6z M189,87.8c-0.8,0-1.4-0.6-1.4-1.4c0-0.8,0.6-1.4,1.4-1.4h0
	c0.8,0,1.4,0.6,1.4,1.4C190.4,87.2,189.8,87.8,189,87.8z M188.9,86.3h-0.2v-0.5c0,0,0.1,0,0.2,0c0.3,0,0.4,0.1,0.4,0.3
	C189.4,86.2,189.2,86.3,188.9,86.3L188.9,86.3z M189.4,86.4L189.4,86.4c0.2-0.1,0.4-0.2,0.4-0.4c0-0.2-0.1-0.3-0.2-0.4
	c-0.1-0.1-0.3-0.1-0.6-0.1c-0.3,0-0.5,0-0.7,0.1v1.8h0.4v-0.7h0.2c0.2,0,0.3,0.1,0.4,0.3c0.1,0.2,0.1,0.4,0.1,0.4h0.4
	c0-0.1-0.1-0.2-0.1-0.4C189.7,86.6,189.6,86.5,189.4,86.4L189.4,86.4z M188.9,86.3h-0.2v-0.5c0,0,0.1,0,0.2,0c0.3,0,0.4,0.1,0.4,0.3
	C189.4,86.2,189.2,86.3,188.9,86.3L188.9,86.3z M189.4,86.4L189.4,86.4c0.2-0.1,0.4-0.2,0.4-0.4c0-0.2-0.1-0.3-0.2-0.4
	c-0.1-0.1-0.3-0.1-0.6-0.1c-0.3,0-0.5,0-0.7,0.1v1.8h0.4v-0.7h0.2c0.2,0,0.3,0.1,0.4,0.3c0.1,0.2,0.1,0.4,0.1,0.4h0.4
	c0-0.1-0.1-0.2-0.1-0.4C189.7,86.6,189.6,86.5,189.4,86.4L189.4,86.4z M188.9,86.3h-0.2v-0.5c0,0,0.1,0,0.2,0c0.3,0,0.4,0.1,0.4,0.3
	C189.4,86.2,189.2,86.3,188.9,86.3L188.9,86.3z M189.4,86.4L189.4,86.4c0.2-0.1,0.4-0.2,0.4-0.4c0-0.2-0.1-0.3-0.2-0.4
	c-0.1-0.1-0.3-0.1-0.6-0.1c-0.3,0-0.5,0-0.7,0.1v1.8h0.4v-0.7h0.2c0.2,0,0.3,0.1,0.4,0.3c0.1,0.2,0.1,0.4,0.1,0.4h0.4
	c0-0.1-0.1-0.2-0.1-0.4C189.7,86.6,189.6,86.5,189.4,86.4L189.4,86.4z M189.4,86.4L189.4,86.4c0.2-0.1,0.4-0.2,0.4-0.4
	c0-0.2-0.1-0.3-0.2-0.4c-0.1-0.1-0.3-0.1-0.6-0.1c-0.3,0-0.5,0-0.7,0.1v1.8h0.4v-0.7h0.2c0.2,0,0.3,0.1,0.4,0.3
	c0.1,0.2,0.1,0.4,0.1,0.4h0.4c0-0.1-0.1-0.2-0.1-0.4C189.7,86.6,189.6,86.5,189.4,86.4L189.4,86.4z M188.9,86.3h-0.2v-0.5
	c0,0,0.1,0,0.2,0c0.3,0,0.4,0.1,0.4,0.3C189.4,86.2,189.2,86.3,188.9,86.3L188.9,86.3z M189,87.8c-0.8,0-1.4-0.6-1.4-1.4
	c0-0.8,0.6-1.4,1.4-1.4h0c0.8,0,1.4,0.6,1.4,1.4C190.4,87.2,189.8,87.8,189,87.8z M189,84.6L189,84.6c-1,0-1.9,0.8-1.9,1.8
	c0,1,0.8,1.8,1.9,1.8c1,0,1.9-0.8,1.9-1.8C190.9,85.4,190.1,84.6,189,84.6z M189,87.8c-0.8,0-1.4-0.6-1.4-1.4c0-0.8,0.6-1.4,1.4-1.4
	h0c0.8,0,1.4,0.6,1.4,1.4C190.4,87.2,189.8,87.8,189,87.8z M189,84.6L189,84.6c-1,0-1.9,0.8-1.9,1.8c0,1,0.8,1.8,1.9,1.8
	c1,0,1.9-0.8,1.9-1.8C190.9,85.4,190.1,84.6,189,84.6z M189,87.8c-0.8,0-1.4-0.6-1.4-1.4c0-0.8,0.6-1.4,1.4-1.4h0
	c0.8,0,1.4,0.6,1.4,1.4C190.4,87.2,189.8,87.8,189,87.8z M189,84.6L189,84.6c-1,0-1.9,0.8-1.9,1.8c0,1,0.8,1.8,1.9,1.8
	c1,0,1.9-0.8,1.9-1.8C190.9,85.4,190.1,84.6,189,84.6z M189,84.6L189,84.6c-1,0-1.9,0.8-1.9,1.8c0,1,0.8,1.8,1.9,1.8
	c1,0,1.9-0.8,1.9-1.8C190.9,85.4,190.1,84.6,189,84.6z M189,87.8c-0.8,0-1.4-0.6-1.4-1.4c0-0.8,0.6-1.4,1.4-1.4h0
	c0.8,0,1.4,0.6,1.4,1.4C190.4,87.2,189.8,87.8,189,87.8z M188.9,86.3h-0.2v-0.5c0,0,0.1,0,0.2,0c0.3,0,0.4,0.1,0.4,0.3
	C189.4,86.2,189.2,86.3,188.9,86.3L188.9,86.3z M189.4,86.4L189.4,86.4c0.2-0.1,0.4-0.2,0.4-0.4c0-0.2-0.1-0.3-0.2-0.4
	c-0.1-0.1-0.3-0.1-0.6-0.1c-0.3,0-0.5,0-0.7,0.1v1.8h0.4v-0.7h0.2c0.2,0,0.3,0.1,0.4,0.3c0.1,0.2,0.1,0.4,0.1,0.4h0.4
	c0-0.1-0.1-0.2-0.1-0.4C189.7,86.6,189.6,86.5,189.4,86.4L189.4,86.4z M188.9,86.3h-0.2v-0.5c0,0,0.1,0,0.2,0c0.3,0,0.4,0.1,0.4,0.3
	C189.4,86.2,189.2,86.3,188.9,86.3L188.9,86.3z M189.4,86.4L189.4,86.4c0.2-0.1,0.4-0.2,0.4-0.4c0-0.2-0.1-0.3-0.2-0.4
	c-0.1-0.1-0.3-0.1-0.6-0.1c-0.3,0-0.5,0-0.7,0.1v1.8h0.4v-0.7h0.2c0.2,0,0.3,0.1,0.4,0.3c0.1,0.2,0.1,0.4,0.1,0.4h0.4
	c0-0.1-0.1-0.2-0.1-0.4C189.7,86.6,189.6,86.5,189.4,86.4L189.4,86.4z M189.4,86.4L189.4,86.4c0.2-0.1,0.4-0.2,0.4-0.4
	c0-0.2-0.1-0.3-0.2-0.4c-0.1-0.1-0.3-0.1-0.6-0.1c-0.3,0-0.5,0-0.7,0.1v1.8h0.4v-0.7h0.2c0.2,0,0.3,0.1,0.4,0.3
	c0.1,0.2,0.1,0.4,0.1,0.4h0.4c0-0.1-0.1-0.2-0.1-0.4C189.7,86.6,189.6,86.5,189.4,86.4L189.4,86.4z M188.9,86.3h-0.2v-0.5
	c0,0,0.1,0,0.2,0c0.3,0,0.4,0.1,0.4,0.3C189.4,86.2,189.2,86.3,188.9,86.3L188.9,86.3z M189,87.8c-0.8,0-1.4-0.6-1.4-1.4
	c0-0.8,0.6-1.4,1.4-1.4h0c0.8,0,1.4,0.6,1.4,1.4C190.4,87.2,189.8,87.8,189,87.8z M189,84.6L189,84.6c-1,0-1.9,0.8-1.9,1.8
	c0,1,0.8,1.8,1.9,1.8c1,0,1.9-0.8,1.9-1.8C190.9,85.4,190.1,84.6,189,84.6z M189,87.8c-0.8,0-1.4-0.6-1.4-1.4c0-0.8,0.6-1.4,1.4-1.4
	h0c0.8,0,1.4,0.6,1.4,1.4C190.4,87.2,189.8,87.8,189,87.8z M189,84.6L189,84.6c-1,0-1.9,0.8-1.9,1.8c0,1,0.8,1.8,1.9,1.8
	c1,0,1.9-0.8,1.9-1.8C190.9,85.4,190.1,84.6,189,84.6z M189,84.6L189,84.6c-1,0-1.9,0.8-1.9,1.8c0,1,0.8,1.8,1.9,1.8
	c1,0,1.9-0.8,1.9-1.8C190.9,85.4,190.1,84.6,189,84.6z M189,87.8c-0.8,0-1.4-0.6-1.4-1.4c0-0.8,0.6-1.4,1.4-1.4h0
	c0.8,0,1.4,0.6,1.4,1.4C190.4,87.2,189.8,87.8,189,87.8z M188.9,86.3h-0.2v-0.5c0,0,0.1,0,0.2,0c0.3,0,0.4,0.1,0.4,0.3
	C189.4,86.2,189.2,86.3,188.9,86.3L188.9,86.3z M189.4,86.4L189.4,86.4c0.2-0.1,0.4-0.2,0.4-0.4c0-0.2-0.1-0.3-0.2-0.4
	c-0.1-0.1-0.3-0.1-0.6-0.1c-0.3,0-0.5,0-0.7,0.1v1.8h0.4v-0.7h0.2c0.2,0,0.3,0.1,0.4,0.3c0.1,0.2,0.1,0.4,0.1,0.4h0.4
	c0-0.1-0.1-0.2-0.1-0.4C189.7,86.6,189.6,86.5,189.4,86.4L189.4,86.4z M189.4,86.4L189.4,86.4c0.2-0.1,0.4-0.2,0.4-0.4
	c0-0.2-0.1-0.3-0.2-0.4c-0.1-0.1-0.3-0.1-0.6-0.1c-0.3,0-0.5,0-0.7,0.1v1.8h0.4v-0.7h0.2c0.2,0,0.3,0.1,0.4,0.3
	c0.1,0.2,0.1,0.4,0.1,0.4h0.4c0-0.1-0.1-0.2-0.1-0.4C189.7,86.6,189.6,86.5,189.4,86.4L189.4,86.4z M188.9,86.3h-0.2v-0.5
	c0,0,0.1,0,0.2,0c0.3,0,0.4,0.1,0.4,0.3C189.4,86.2,189.2,86.3,188.9,86.3L188.9,86.3z M189,87.8c-0.8,0-1.4-0.6-1.4-1.4
	c0-0.8,0.6-1.4,1.4-1.4h0c0.8,0,1.4,0.6,1.4,1.4C190.4,87.2,189.8,87.8,189,87.8z M189,84.6L189,84.6c-1,0-1.9,0.8-1.9,1.8
	c0,1,0.8,1.8,1.9,1.8c1,0,1.9-0.8,1.9-1.8C190.9,85.4,190.1,84.6,189,84.6z M189,84.6L189,84.6c-1,0-1.9,0.8-1.9,1.8
	c0,1,0.8,1.8,1.9,1.8c1,0,1.9-0.8,1.9-1.8C190.9,85.4,190.1,84.6,189,84.6z M189,87.8c-0.8,0-1.4-0.6-1.4-1.4c0-0.8,0.6-1.4,1.4-1.4
	h0c0.8,0,1.4,0.6,1.4,1.4C190.4,87.2,189.8,87.8,189,87.8z M189,84.6L189,84.6c-1,0-1.9,0.8-1.9,1.8c0,1,0.8,1.8,1.9,1.8
	c1,0,1.9-0.8,1.9-1.8C190.9,85.4,190.1,84.6,189,84.6z M189,87.8c-0.8,0-1.4-0.6-1.4-1.4c0-0.8,0.6-1.4,1.4-1.4h0
	c0.8,0,1.4,0.6,1.4,1.4C190.4,87.2,189.8,87.8,189,87.8z M189.4,86.4L189.4,86.4c0.2-0.1,0.4-0.2,0.4-0.4c0-0.2-0.1-0.3-0.2-0.4
	c-0.1-0.1-0.3-0.1-0.6-0.1c-0.3,0-0.5,0-0.7,0.1v1.8h0.4v-0.7h0.2c0.2,0,0.3,0.1,0.4,0.3c0.1,0.2,0.1,0.4,0.1,0.4h0.4
	c0-0.1-0.1-0.2-0.1-0.4C189.7,86.6,189.6,86.5,189.4,86.4L189.4,86.4z M188.9,86.3h-0.2v-0.5c0,0,0.1,0,0.2,0c0.3,0,0.4,0.1,0.4,0.3
	C189.4,86.2,189.2,86.3,188.9,86.3L188.9,86.3z"/>
<g>
	<path d="M70,87.8c0,0.3-0.1,0.4-0.4,0.4h-2.9c-0.3,0-0.4-0.1-0.4-0.4V68c0-1,0.6-1.5,1.7-1.5h1.7c0.3,0,0.4,0.1,0.4,0.4V87.8z"/>
	<path d="M81.3,87.9c0,0.2-0.1,0.3-0.4,0.3h-3.6c-0.3,0-0.6-0.1-0.8-0.4l-6-6.7c-0.4-0.4-0.6-0.9-0.6-1.3c0-0.4,0.2-0.8,0.6-1.2
		l6-5.3c0.2-0.2,0.5-0.3,0.8-0.3h3.5c0.2,0,0.3,0.1,0.3,0.3c0,0.2-0.1,0.3-0.2,0.4l-7.2,6l7.3,7.7C81.2,87.7,81.3,87.8,81.3,87.9
		L81.3,87.9z"/>
</g>
<path d="M180,87.8c0,0.3-0.1,0.4-0.4,0.4h-2.9c-0.3,0-0.4-0.1-0.4-0.4V68c0-1,0.6-1.5,1.7-1.5h1.7c0.3,0,0.4,0.1,0.4,0.4V87.8z
	 M186,87.8c0,0.3-0.1,0.4-0.4,0.4h-2.9c-0.3,0-0.4-0.1-0.4-0.4V68c0-1,0.6-1.5,1.7-1.5h1.7c0.3,0,0.4,0.1,0.4,0.4L186,87.8L186,87.8
	z M110.8,75.5c0,0.3-0.2,0.4-0.5,0.4c-0.4,0-1.6-0.1-3.7-0.1c-1.8,0-2.7,0.7-2.7,2.1v9.9c0,0.3-0.2,0.4-0.5,0.4h-2.9
	c-0.3,0-0.5-0.1-0.5-0.4v-9.4c0-3.7,2.2-5.5,6.7-5.5c2.2,0,3.4,0.1,3.7,0.4c0.2,0.1,0.3,0.4,0.3,0.8L110.8,75.5L110.8,75.5z
	 M161.8,82c0,0,3.6,0.3,7.1-0.2c3.5-0.5,5.6-2.1,5.6-4.5c0-3-2.6-4.5-7.9-4.5c-2.8,0-4.8,0.5-6.1,1.6c-1.5,1.2-2.3,3.2-2.3,5.9
	c0,2.6,0.6,4.5,1.7,5.7c1.3,1.4,3.6,2.1,6.9,2.1c3.6,0,5.7-0.2,6.2-0.5c0.4-0.2,0.5-0.5,0.5-0.9v-1.4c0-0.2-0.2-0.3-0.5-0.3
	l-2.2,0.1c-1.4,0.1-2.6,0.1-3.4,0.1c-3,0-4.7-0.9-5.1-2.6c-0.3-1.4-0.3-2.5-0.3-2.5v-0.5c0-1.6,0.4-2.7,1.1-3.3
	c0.7-0.6,2-0.9,3.8-0.9c2.5,0,3.8,0.6,3.8,1.8c0,0.7-0.4,1.2-1.1,1.5c-0.4,0.2-1.3,0.4-2.2,0.5c-2.1,0.2-5.7,0.1-5.7,0.1L161.8,82z
	 M65.1,87.1c0,0.7-0.8,1.2-2.4,1.3c-0.6,0.1-2.3,0.1-3.8,0.1c-5.7,0-8.5-2.7-8.5-8.1c0-4.6,2.4-7,7.2-7.4c0.8-0.1,1.6-0.1,2.4-0.1
	c1,0,2.1,0.1,2.7,0.1c1.2,0.1,2.2,0.3,2.2,1.3v1.4c0,0.2-0.1,0.3-0.3,0.3c-0.5,0-2.5-0.3-4.4-0.2c-2,0-4.1,0.3-4.9,1
	c-0.8,0.7-1.1,1.9-1.1,3.6c0,1.9,0.3,3.2,1,3.9c0.8,0.8,2.9,1.2,5,1.2c0.8,0,1.7,0,2.8-0.1l1.5-0.1c0.3,0,0.4,0.1,0.4,0.4L65.1,87.1
	L65.1,87.1z M98.7,80.8c0-2.7-0.5-4.6-1.5-5.7c-1.3-1.4-3.8-2.1-7.4-2.1c-0.1,0-0.1,0-0.2,0c-0.1,0-0.1,0-0.2,0
	c-3.6,0-6,0.7-7.4,2.1c-1,1.1-1.5,3-1.5,5.7c0,5,2.9,7.5,8.6,7.5c0.2,0,0.3,0,0.5,0c0.2,0,0.3,0,0.5,0c2,0,3.7-0.3,5-1
	c0.2,0.5,0.7,0.8,1.5,0.8h1.7c0.2,0,0.4-0.1,0.4-0.3v-6.8C98.7,80.9,98.7,80.8,98.7,80.8L98.7,80.8z M89.7,85.5h-0.2
	c-2,0-3.4-0.3-4.1-1c-0.8-0.7-1.1-1.9-1.1-3.6c0-2,0.3-3.3,1-4c0.7-0.7,2.2-1.1,4.4-1.1c2.2,0,3.7,0.4,4.4,1.1c0.6,0.7,1,2,1,4
	c0,1.7-0.4,2.9-1.1,3.6C93.1,85.1,91.7,85.5,89.7,85.5z M49.5,80.8c0-2.7-0.5-4.6-1.5-5.7c-1.3-1.4-3.8-2.1-7.4-2.1
	c-0.1,0-0.1,0-0.2,0c-0.1,0-0.1,0-0.2,0c-3.6,0-6,0.7-7.4,2.1c-1,1.1-1.5,3-1.5,5.7c0,5,2.9,7.5,8.6,7.5c0.2,0,0.3,0,0.5,0
	c0.1,0,0.3,0,0.5,0c2,0,3.7-0.3,5-1c0.2,0.5,0.7,0.8,1.5,0.8h1.7c0.3,0,0.4-0.1,0.4-0.3v-6.8C49.5,80.9,49.5,80.8,49.5,80.8
	L49.5,80.8z M40.5,85.5h-0.2c-2,0-3.4-0.3-4.1-1c-0.8-0.7-1.1-1.9-1.1-3.6c0-2,0.3-3.3,1-4c0.7-0.7,2.2-1.1,4.4-1.1
	c2.2,0,3.7,0.4,4.4,1.1c0.6,0.7,1,2,1,4c0,1.7-0.4,2.9-1.1,3.6C43.9,85.1,42.5,85.5,40.5,85.5z M148.5,72.9h-0.9
	c-2.1,0-3.8,0.3-5.2,0.9V68c0-1.1-0.5-1.6-1.6-1.6h-1.6c-0.3,0-0.4,0.1-0.4,0.4v7.3h0v6.2c0,0,0,0.1,0,0.2c0,2.7,0.5,4.6,1.6,5.7
	c1.4,1.4,3.9,2.1,7.6,2.1h0.4c3.7,0,6.2-0.7,7.6-2.1c1.1-1.1,1.6-3,1.6-5.7C157.4,75.4,154.4,72.9,148.5,72.9L148.5,72.9z
	 M152.6,84.4c-0.7,0.7-2.2,1.1-4.5,1.1c-2.3,0-3.8-0.4-4.5-1.1c-0.7-0.7-1-2-1-4c0-1.7,0.4-2.9,1.2-3.6c0.8-0.7,2.2-1,4.3-1h0.2
	c2.1,0,3.5,0.3,4.2,1c0.8,0.7,1.2,1.9,1.2,3.6C153.6,82.4,153.2,83.7,152.6,84.4z M110.3,80.4c0,2.7,0.5,4.6,1.6,5.7
	c1.4,1.4,3.9,2.1,7.6,2.1h0.4c3.7,0,6.2-0.7,7.6-2.1c1-1.1,1.6-3,1.6-5.7c0-0.1,0-0.1,0-0.2v-6.2h0v-7.3c0-0.2-0.2-0.4-0.4-0.4H127
	c-1.1,0-1.6,0.5-1.6,1.6v5.8c-1.4-0.6-3.1-0.9-5.2-0.9h-0.9C113.3,72.9,110.3,75.4,110.3,80.4L110.3,80.4z M114.2,80.4
	c0-1.7,0.4-2.9,1.2-3.6c0.8-0.7,2.2-1,4.2-1h0.2c2.1,0,3.5,0.3,4.3,1c0.8,0.7,1.2,1.9,1.2,3.6c0,2-0.3,3.3-1,4
	c-0.7,0.7-2.2,1.1-4.5,1.1c-2.3,0-3.8-0.4-4.5-1.1C114.5,83.7,114.2,82.4,114.2,80.4L114.2,80.4z M28.7,75c-1.4-1.4-3.9-2.1-7.6-2.1
	h-0.4c-3.7,0-6.2,0.7-7.6,2.1c-1,1.1-1.6,3-1.6,5.7c0,0.1,0,0.1,0,0.2h0l0,13.5c0,0.2,0.1,0.4,0.4,0.4h1.6c1.1,0,1.6-0.5,1.6-1.6
	l0-5.9c1.4,0.6,3.1,1,5.2,1h0.9c5.9,0,8.9-2.5,8.9-7.5C30.2,78,29.7,76.1,28.7,75L28.7,75z M25.2,84.4c-0.8,0.7-2.2,1-4.3,1h-0.2
	c-2.1,0-3.5-0.3-4.3-1c-0.8-0.7-1.2-1.9-1.2-3.6c0-2,0.3-3.3,1-4c0.7-0.7,2.2-1.1,4.5-1.1c2.3,0,3.8,0.4,4.5,1.1c0.7,0.7,1,2,1,4
	C26.4,82.6,26,83.8,25.2,84.4z"/>
</svg>
