<svg width="200" height="120" viewBox="0 0 200 120" fill="none" xmlns="http://www.w3.org/2000/svg">
<path d="M27.1491 48.2727H33.5966L40.4062 64.8864H40.696L47.5057 48.2727H53.9531V73H48.8821V56.9055H48.6768L42.2777 72.8793H38.8246L32.4254 56.8452H32.2202V73H27.1491V48.2727ZM62.5225 73H56.9203L65.4565 48.2727H72.1937L80.7179 73H75.1156L68.9217 53.9233H68.7285L62.5225 73ZM62.1724 63.2805H75.4054V67.3615H62.1724V63.2805ZM83.6941 73V48.2727H93.4498C95.3172 48.2727 96.9109 48.6068 98.231 49.2749C99.5591 49.9349 100.569 50.8726 101.262 52.0881C101.962 53.2955 102.312 54.7161 102.312 56.3501C102.312 57.9922 101.958 59.4048 101.249 60.5881C100.541 61.7633 99.5149 62.6648 98.1706 63.2926C96.8345 63.9205 95.2166 64.2344 93.3169 64.2344H86.785V60.0327H92.4718C93.4699 60.0327 94.2989 59.8958 94.959 59.6222C95.619 59.3485 96.11 58.938 96.432 58.3906C96.762 57.8433 96.927 57.1631 96.927 56.3501C96.927 55.5291 96.762 54.8369 96.432 54.2734C96.11 53.71 95.615 53.2834 94.9469 52.9936C94.2869 52.6958 93.4538 52.5469 92.4476 52.5469H88.9221V73H83.6941ZM97.0478 61.7472L103.193 73H97.4221L91.4093 61.7472H97.0478ZM106.007 73V48.2727H111.235V59.1754H111.561L120.459 48.2727H126.725L117.549 59.3445L126.834 73H120.58L113.806 62.8338L111.235 65.973V73H106.007ZM144.721 48.2727H149.949V64.331C149.949 66.134 149.519 67.7116 148.657 69.0639C147.804 70.4162 146.609 71.4706 145.072 72.2273C143.534 72.9759 141.743 73.3501 139.699 73.3501C137.646 73.3501 135.851 72.9759 134.314 72.2273C132.776 71.4706 131.581 70.4162 130.728 69.0639C129.875 67.7116 129.448 66.134 129.448 64.331V48.2727H134.676V63.8842C134.676 64.826 134.881 65.6631 135.292 66.3956C135.71 67.1281 136.298 67.7036 137.055 68.1222C137.811 68.5407 138.693 68.75 139.699 68.75C140.713 68.75 141.594 68.5407 142.343 68.1222C143.099 67.7036 143.683 67.1281 144.094 66.3956C144.512 65.6631 144.721 64.826 144.721 63.8842V48.2727ZM167.665 55.3842C167.568 54.4103 167.154 53.6536 166.421 53.1143C165.689 52.575 164.695 52.3054 163.439 52.3054C162.586 52.3054 161.865 52.4261 161.278 52.6676C160.69 52.901 160.239 53.227 159.925 53.6456C159.62 54.0642 159.467 54.5391 159.467 55.0703C159.451 55.513 159.543 55.8994 159.744 56.2294C159.954 56.5594 160.239 56.8452 160.602 57.0866C160.964 57.3201 161.382 57.5253 161.857 57.7024C162.332 57.8714 162.839 58.0163 163.379 58.1371L165.6 58.6683C166.679 58.9098 167.669 59.2318 168.57 59.6342C169.472 60.0367 170.253 60.5317 170.913 61.1193C171.573 61.7069 172.084 62.3991 172.446 63.196C172.816 63.9929 173.005 64.9065 173.013 65.9368C173.005 67.45 172.619 68.7621 171.854 69.8729C171.098 70.9756 170.003 71.8329 168.57 72.4446C167.146 73.0483 165.427 73.3501 163.415 73.3501C161.419 73.3501 159.68 73.0443 158.199 72.4325C156.726 71.8208 155.575 70.9152 154.746 69.7159C153.925 68.5085 153.494 67.0154 153.454 65.2365H158.513C158.569 66.0656 158.807 66.7578 159.225 67.3132C159.652 67.8606 160.219 68.2751 160.928 68.5568C161.644 68.8305 162.453 68.9673 163.354 68.9673C164.24 68.9673 165.009 68.8385 165.661 68.581C166.321 68.3234 166.832 67.9652 167.194 67.5064C167.556 67.0476 167.737 66.5204 167.737 65.9247C167.737 65.3693 167.572 64.9025 167.242 64.5241C166.92 64.1458 166.445 63.8239 165.817 63.5582C165.198 63.2926 164.437 63.0511 163.536 62.8338L160.843 62.1577C158.758 61.6506 157.112 60.8577 155.905 59.7791C154.697 58.7005 154.098 57.2476 154.106 55.4205C154.098 53.9233 154.496 52.6153 155.301 51.4964C156.114 50.3776 157.229 49.5043 158.646 48.8764C160.062 48.2486 161.672 47.9347 163.475 47.9347C165.31 47.9347 166.912 48.2486 168.281 48.8764C169.657 49.5043 170.728 50.3776 171.492 51.4964C172.257 52.6153 172.651 53.9112 172.675 55.3842H167.665Z" fill="#3AA0FF"/>
<rect x="0.5" y="0.5" width="199" height="119" stroke="black"/>
</svg>
