<svg width="200" height="120" viewBox="0 0 200 120" fill="none" xmlns="http://www.w3.org/2000/svg">
<g clip-path="url(#clip0_662_275)">
<path d="M28.5367 83.413H8L18.3532 65.6087H38.8899L28.5367 83.413ZM49.2431 83.413H69.7798L59.4266 65.6087H38.8899L49.2431 83.413ZM49.2431 47.8043L38.8899 30L28.5367 47.8043L38.8899 65.6087L49.2431 47.8043Z" fill="#FF0000"/>
<path d="M78.9448 75.7826H87.2613V72.9H78.9448V69.1695H88.2796V66.1174H75.5503V83.413H88.4494V80.3608H78.9448V75.7826ZM78.7751 50.5174L82.3393 63.4043H85.7338L89.4677 50.5174V63.4043H92.6925V46.1087H87.7705L84.0365 58.1478L80.4723 46.1087H75.5503V63.4043H78.7751V50.5174ZM154.642 46.1087H158.037V63.4043H154.642V46.1087ZM157.527 66.1174H160.922V83.413H157.527V66.1174ZM188.926 46.1087H192.321V63.4043H188.926V46.1087ZM94.0503 46.1087H97.4448V63.4043H94.0503V46.1087ZM184.174 52.8913H177.215V46.1087H173.821V63.4043H177.215V55.7739H184.174V63.4043H187.569V46.1087H184.174V52.8913ZM102.706 63.4043H106.27V49.1608H110.344V46.1087H98.4631V49.1608H102.706V63.4043ZM134.275 83.413H137.839V69.1695H142.082V66.1174H130.202V69.1695H134.275V83.413ZM131.899 63.7434C136.312 63.7434 138.858 61.7087 138.858 57.8087V45.9391H135.463V58.1478C135.463 59.6739 134.275 60.8608 132.069 60.8608C129.523 60.8608 128.674 59.3347 128.674 58.1478V46.1087H125.28V57.9782C125.11 62.0478 127.826 63.7434 131.899 63.7434ZM105.761 75.7826H113.908V72.9H105.761V69.1695H114.926V66.1174H102.197V83.413H115.266V80.3608H105.761V75.7826ZM143.61 63.4043H148.532C151.757 63.4043 153.793 61.5391 153.793 58.8261C153.793 56.6217 152.266 54.7565 150.399 54.2478C151.926 53.9087 153.115 52.3826 153.115 50.3478C153.115 47.8043 151.248 46.1087 147.683 46.1087H139.876V63.4043H143.61ZM147.683 60.6913H143.61V55.7739H147.683C149.211 55.7739 150.399 56.6217 150.399 58.3174C150.229 59.6739 149.041 60.6913 147.683 60.6913ZM147.853 48.8217C148.871 48.8217 149.89 49.6695 149.89 50.8565C149.89 51.8739 149.211 53.0608 147.683 53.0608H143.61V48.8217H147.853ZM153.284 75.1043C154.812 74.5956 156.339 73.4087 156.339 70.8652C156.339 67.813 154.303 66.1174 150.738 66.1174H142.931V83.413H146.495V76.6304H149.381C151.248 76.6304 152.096 77.4782 152.436 78.8347C152.775 80.1913 152.605 82.2261 152.945 83.413H156.509C156.17 82.0565 156 80.3608 155.83 78.8347C155.83 76.4608 154.642 75.613 153.284 75.1043ZM146.495 73.9174V69.1695H150.569C151.926 69.1695 152.945 70.1869 152.945 71.5434C152.945 72.5608 152.096 73.9174 150.738 73.9174H146.495ZM93.0319 66.1174H89.6374V83.413H101.179V80.3608H93.0319V66.1174ZM116.284 56.113C119.17 56.6217 120.697 57.1304 120.697 58.8261C120.697 60.013 119.509 61.0304 117.303 61.0304C115.096 61.0304 113.738 59.6739 113.738 58.1478H110.344C110.344 61.2 112.211 63.913 117.303 63.913C122.055 63.913 124.261 61.3695 124.261 58.4869C124.261 55.7739 122.564 54.0782 119.339 53.4C116.284 52.7217 114.248 52.7217 114.248 50.6869C114.248 49.3304 115.436 48.6521 117.303 48.6521C119.339 48.6521 120.358 49.6695 120.358 51.3652H123.752C123.752 48.6521 121.715 45.7695 117.133 45.7695C113.908 45.7695 110.683 47.6347 110.683 51.0261C110.683 53.7391 112.72 55.4347 116.284 56.113ZM164.826 56.113C167.541 56.6217 169.238 57.1304 169.238 58.8261C169.238 60.013 168.05 61.0304 165.844 61.0304C163.468 61.0304 162.28 59.6739 162.28 58.1478H158.885C158.885 61.2 160.752 63.913 165.844 63.913C170.596 63.913 172.803 61.3695 172.803 58.4869C172.803 55.7739 171.105 54.0782 167.881 53.4C164.826 52.7217 162.789 52.7217 162.789 50.6869C162.789 49.3304 163.977 48.6521 165.844 48.6521C167.881 48.6521 168.899 49.6695 168.899 51.3652H172.293C172.293 48.6521 170.257 45.7695 165.674 45.7695C162.449 45.7695 159.225 47.6347 159.225 51.0261C159.225 53.7391 161.431 55.4347 164.826 56.113Z" fill="black"/>
<path d="M123.074 80.7003C120.188 80.7003 118.661 77.9873 118.661 74.596C118.661 71.3742 120.188 68.4916 123.074 68.4916C125.28 68.4916 126.298 69.8481 126.807 71.3742H130.372C129.863 67.9829 127.147 65.4395 122.904 65.4395C117.642 65.4395 114.927 69.509 114.927 74.4264C114.927 79.3438 117.642 83.4134 122.904 83.4134C126.977 83.4134 129.863 81.0395 130.372 77.309H126.807C126.298 79.5134 125.28 80.7003 123.074 80.7003ZM169.748 80.7003C166.863 80.7003 165.335 77.9873 165.335 74.596C165.335 71.3742 166.863 68.4916 169.748 68.4916C171.954 68.4916 172.973 69.8481 173.482 71.3742H177.046C176.537 67.9829 173.821 65.4395 169.578 65.4395C164.317 65.4395 161.601 69.509 161.601 74.4264C161.601 79.3438 164.317 83.4134 169.578 83.4134C173.652 83.4134 176.537 81.0395 177.046 77.309H173.482C172.973 79.5134 171.954 80.7003 169.748 80.7003Z" fill="black"/>
</g>
<rect x="0.5" y="0.5" width="199" height="119" stroke="black"/>
<defs>
<clipPath id="clip0_662_275">
<rect width="185" height="60" fill="white" transform="translate(8 30)"/>
</clipPath>
</defs>
</svg>
