<svg width="200" height="120" viewBox="0 0 200 120" fill="none" xmlns="http://www.w3.org/2000/svg">
<g clip-path="url(#clip0_662_644)">
<path d="M24.5 46.7998C19.3 46.7998 15.3 48.2998 12.4 51.1998C9.4 54.0998 8 58.1998 8 63.3998C8 67.1998 8.7 70.2998 10.2 72.7998C11.7 75.2998 13.6 77.0998 16 78.2998C18.4 79.3998 21.3 79.9998 24.9 79.9998C28.4 79.9998 31.4 79.2998 33.8 77.9998C36.2 76.6998 38 74.7998 39.2 72.3998C40.5 69.9998 41.1 66.8998 41.1 63.1998C41.1 57.9998 39.7 53.9998 36.8 51.1998C33.9 48.1998 29.8 46.7998 24.5 46.7998ZM29.5 70.4998C28.3 71.8998 26.7 72.5998 24.6 72.5998C22.5 72.5998 20.9 71.8998 19.7 70.4998C18.5 69.0998 17.9 66.7998 17.9 63.4998C17.9 60.1998 18.5 57.8998 19.7 56.4998C20.9 55.0998 22.5 54.3998 24.5 54.3998C26.6 54.3998 28.2 55.0998 29.4 56.4998C30.6 57.8998 31.2 60.0998 31.2 63.0998C31.2 66.5998 30.7 69.0998 29.5 70.4998Z" fill="#3AA0FF"/>
<path d="M72.6 51.8998C71.4 50.3998 70 49.2998 68.2 48.4998C66.4 47.6998 64.1 47.2998 61.2 47.2998H46.5V79.3998H61.2C63 79.3998 64.9 79.0998 67.1 78.4998C68.7 78.0998 70.2 77.1998 71.5 75.8998C72.9 74.5998 74 72.9998 74.7 71.0998C75.5 69.1998 75.9 66.5998 75.9 63.0998C75.9 60.8998 75.6 58.7998 75.1 56.8998C74.6 55.0998 73.8 53.3998 72.6 51.8998ZM65.3 68.9998C64.8 70.0998 64.1 70.9998 63.3 71.3998C62.4 71.8998 61 72.0998 58.9 72.0998H56.5V54.5998H59C61.6 54.5998 63.4 55.1998 64.5 56.4998C65.6 57.7998 66.2 60.0998 66.2 63.4998C66 65.9998 65.8 67.8998 65.3 68.9998Z" fill="#3AA0FF"/>
<path d="M91.0001 65.7998H106.4V59.1998H91.0001V54.0998H107.6V47.2998H81.1001V79.3998H108.1V72.0998H91.0001V65.7998Z" fill="#3AA0FF"/>
<path d="M128.6 46.7002C123.4 46.7002 119.4 48.2002 116.5 51.1002C113.6 54.0002 112.1 58.1002 112.2 63.3002C112.2 67.1002 112.9 70.2002 114.4 72.7002C115.9 75.2002 117.8 77.0002 120.1 78.2002C122.5 79.4002 125.4 79.9002 129.1 79.9002C132.6 79.9002 135.6 79.2002 138 77.9002C140.4 76.6002 142.2 74.7002 143.4 72.3002C144.7 69.9002 145.3 66.8002 145.3 63.1002C145.3 57.9002 143.9 53.9002 141 51.1002C138 48.1002 133.9 46.7002 128.6 46.7002ZM133.6 70.4002C132.4 71.8002 130.8 72.5002 128.7 72.5002C126.6 72.5002 125 71.8002 123.8 70.4002C122.6 69.0002 122 66.7002 122 63.4002C122 60.1002 122.6 57.8002 123.8 56.4002C125 55.0002 126.6 54.3002 128.6 54.3002C130.7 54.3002 132.3 55.0002 133.5 56.4002C134.7 57.8002 135.3 60.0002 135.3 63.0002C135.4 66.5002 134.8 69.0002 133.6 70.4002Z" fill="#3AA0FF"/>
<path d="M171.9 65.0002L159.8 47.2002H150.6V79.3002H159.9V61.7002L171.9 79.3002H181.2V47.2002H171.9V65.0002Z" fill="#3AA0FF"/>
<path d="M192.5 43C192.1 42.4 191.6 41.9 191 41.5C190.4 41.2 189.7 41 189 41C188.3 41 187.7 41.2 187 41.5C186.4 41.8 185.8 42.3 185.5 43C185.1 43.6 185 44.3 185 45C185 45.7 185.2 46.4 185.5 47C185.9 47.6 186.4 48.1 187 48.5C187.6 48.9 188.3 49 189 49C189.7 49 190.4 48.8 191 48.5C191.6 48.1 192.1 47.6 192.5 47C192.9 46.4 193 45.7 193 45C193 44.3 192.8 43.7 192.5 43ZM191.9 46.7C191.6 47.2 191.2 47.7 190.7 48C190.2 48.3 189.6 48.4 189 48.4C188.4 48.4 187.9 48.3 187.3 48C186.8 47.7 186.4 47.3 186.1 46.8C185.8 46.3 185.7 45.7 185.7 45.1C185.7 44.5 185.8 44 186.1 43.4C186.4 42.9 186.8 42.4 187.4 42.2C187.9 41.9 188.5 41.8 189.1 41.8C189.7 41.8 190.2 41.9 190.7 42.2C191.2 42.5 191.7 42.9 192 43.4C192.3 43.9 192.5 44.5 192.5 45.1C192.3 45.6 192.2 46.2 191.9 46.7Z" fill="#3AA0FF"/>
<path d="M189.7 45.6001C189.6 45.5001 189.5 45.4001 189.3 45.4001C189.7 45.4001 190 45.2001 190.2 45.0001C190.4 44.8001 190.5 44.5001 190.5 44.2001C190.5 44.0001 190.4 43.8001 190.3 43.6001C190.2 43.4001 190 43.3001 189.8 43.2001C189.6 43.1001 189.2 43.1001 188.7 43.1001H187.2V47.4001H187.9V45.6001H188.3C188.5 45.6001 188.7 45.6001 188.9 45.7001C189.1 45.8001 189.3 46.2001 189.6 46.7001L190 47.4001H190.9L190.4 46.5001C190.1 46.0001 189.9 45.7001 189.7 45.6001ZM188.8 44.8001H187.9V43.5001H188.7C189 43.5001 189.3 43.5001 189.4 43.6001C189.5 43.7001 189.6 43.7001 189.7 43.8001C189.8 43.9001 189.8 44.0001 189.8 44.1001C189.8 44.3001 189.7 44.5001 189.6 44.6001C189.4 44.8001 189.2 44.8001 188.8 44.8001Z" fill="#3AA0FF"/>
</g>
<rect x="0.5" y="0.5" width="199" height="119" stroke="black"/>
<defs>
<clipPath id="clip0_662_644">
<rect width="185" height="39" fill="white" transform="translate(8 41)"/>
</clipPath>
</defs>
</svg>
