<svg width="200" height="120" viewBox="0 0 200 120" fill="none" xmlns="http://www.w3.org/2000/svg">
<g clip-path="url(#clip0_654_534)">
<path d="M178.2 43C177.7 42.3 177.1 41.7 174.4 41.5C173.7 41.5 171.5 41.2999 167.6 41.2999C157.6 41.2999 150.6 44.4 147.1 50.4C148 44.4 142.2 41.2999 129.4 41.2999C114.4 41.2999 104.9 47.2999 101.1 59.5999C99.6 64.1999 99.6 67.7999 100.7 70.6999H97C94.3 70.8999 90.6 71.0999 88.2 71.0999C82.7 71.0999 79.2 70.2 78 68.4C76.9 66.7 76.9 63.5999 78.4 59.0999C80.8 51.5999 86.4 48.2999 95.6 48.2999C100.4 48.2999 104.9 48.7999 104.9 48.7999C105.4 48.7999 105.8 48.1 105.8 47.5L105.6 46.9L105.2 44.2999C105 42.6999 103.7 41.7 101.5 41.4C99.5 41.2 97.8 41.2 95.7 41.2H95.5C83.6 41.2 75.2 45.2 70.7 52.9C72.3 45 66.9 41.2 54.3 41.2C47.2 41.2 42.1 41.4 39.1 41.7C36.7 42.1 35.3 42.9999 34.7 44.5999L33.6 47.9C33.4 48.4 33.8 48.7999 34.5 48.7999C35 48.7999 37.2 48.3999 40.9 48.2999C45.8 47.8999 49.3 47.7 51.7 47.7C58.6 47.7 61.7 49.5 60.7 53C60.5 53.7 60 54.3 59.1 54.5C52.5 55.6 47.2 56.3 43.4 56.9C32.4 58.4 26 61.6999 24.4 67.0999C22 74.5999 27.9 78.1999 41.9 78.1999C48.8 78.1999 54.9 77.8 59.6 76.9C62.3 76.3 63.8 75.7999 64.4 74L67 65.5999C66.8 73.9999 72.5 78.1999 84.5 78.1999C89.6 78.1999 94.5 77.9999 96.9 77.6999C99.3 77.2999 100.6 76.7999 101.1 75L101.7 72.4C104.3 76.4 109.9 78.4 118.5 78.4C127.6 78.4 132.9 78.1999 134.4 77.6999C135.7 77.2999 136.4 76.5999 136.8 75.6999C136.8 75.4999 136.8 75.2999 137 75.1999L138.1 71.6999C138.3 71.1999 137.9 70.8 137.2 70.8L131.4 71.1999C127.6 71.3999 124.5 71.5999 122.3 71.5999C118.1 71.5999 115.4 71.1999 113.7 70.6999C111.3 69.7999 110.2 68.1 110.4 65.4L128.9 63C137.1 61.9 142.8 59.2999 145.5 55.2999L139.1 76.6999C138.9 77.0999 139.1 77.3999 139.3 77.5999C139.5 77.7999 139.8 78 140.6 78H148.3C149.6 78 150.1 77.2999 150.3 76.6999L157.1 53.0999C158 49.9999 160.8 48.5 165.9 48.5C170.5 48.5 173.8 48.5 175.9 48.7H176.1C176.5 48.7 177.2 48.4999 177.7 47.5999L178.8 44.2999C178.5 43.8999 178.5 43.4 178.2 43ZM55 71.0999C52.6 71.4999 49.2 71.5999 44.8 71.5999C36.9 71.5999 33.7 70 34.6 66.8C35.3 64.6 37.3 63.0999 40.6 62.7999L58.3 60.4L55 71.0999ZM136.7 52.0999C136 54.4999 132.5 56.1 126.3 57L111.5 59L111.9 57.7C113.2 53.7 114.8 51.1 117 49.7C119.2 48.2 122.8 47.5 128 47.5C134.7 47.8 137.6 49.1999 136.7 52.0999Z" fill="#83B81A"/>
</g>
<rect x="0.5" y="0.5" width="199" height="119" stroke="black"/>
<defs>
<clipPath id="clip0_654_534">
<rect width="200" height="120" fill="white"/>
</clipPath>
</defs>
</svg>
