<?xml version="1.0" encoding="utf-8"?>
<!-- Generator: Adobe Illustrator 24.0.1, SVG Export Plug-In . SVG Version: 6.00 Build 0)  -->
<svg version="1.1" id="Слой_1" xmlns="http://www.w3.org/2000/svg" xmlns:xlink="http://www.w3.org/1999/xlink" x="0px" y="0px"
	 viewBox="0 0 200 120" style="enable-background:new 0 0 200 120;" xml:space="preserve">
<style type="text/css">
	.st0{fill:#005BAA;}
</style>
<path class="st0" d="M155.4,68.1c0.1-0.6,0.1-1.2,0.1-1.8c0-9.3-7.7-16.9-17.3-16.9c-9.5,0-17.3,7.6-17.3,16.9
	c0,9.3,7.7,16.9,17.3,16.9c7.3,0,13.5-4.4,16-10.6l-7.4-1.3c-1.6,3-4.8,5.1-8.3,5.1c-4.7,0-8.7-3.6-9.4-8.2L155.4,68.1L155.4,68.1z
	 M138.5,56.4c4,0,7.5,2.6,8.9,6.3h-17.8C130.9,59,134.4,56.4,138.5,56.4z M107.5,50.1h8.8v32.5h-8.8V50.1z M111.9,36.8
	c-2.7,0-4.9,2.2-4.9,4.9c0,2.7,2.2,4.9,4.9,4.9c2.7,0,4.9-2.2,4.9-4.9C116.8,39,114.6,36.8,111.9,36.8 M53.5,39.7v17.5h-19V39.7
	h-9.6v42.9h9.6V65h19v17.5h9.7V39.7H53.5z M93.3,50.1v1.7c-2.6-1.6-5.6-2.4-8.8-2.4c-9.4,0-16.9,7.6-16.9,16.9
	c0,9.3,7.6,16.9,16.9,16.9c3,0,6-0.8,8.6-2.3v1.7h8.6V50.1L93.3,50.1z M84.9,76c-5.5,0-9.9-4.4-9.9-9.8c0-5.4,4.4-9.8,9.9-9.8
	c5.5,0,9.9,4.4,9.9,9.8C94.8,71.7,90.4,76,84.9,76z M173.8,47.1c-8.1,1.4-14.3,8.5-14.4,17v18.5h8.5l0-18.8c0-4.3,3.2-7.9,7.4-8.4
	L173.8,47.1z"/>
</svg>
