<?xml version="1.0" encoding="utf-8"?>
<!-- Generator: Adobe Illustrator 24.0.1, SVG Export Plug-In . SVG Version: 6.00 Build 0)  -->
<svg version="1.1" id="Слой_1" xmlns="http://www.w3.org/2000/svg" xmlns:xlink="http://www.w3.org/1999/xlink" x="0px" y="0px"
	 viewBox="0 0 200 120" style="enable-background:new 0 0 200 120;" xml:space="preserve">
<style type="text/css">
	.st0{fill:#0083CA;}
</style>
<g>
	<path class="st0" d="M98.6,16.6h2.7c13.1,0.7,22.5,5.7,29.4,12.7c6.9,7,12.1,16.2,12.7,29.4v2.6c-0.7,13.4-5.9,22.2-12.7,29.4
		c-7.2,6.8-16.1,12-29.5,12.7h-2.7c-13.1-0.7-22.5-5.7-29.4-12.7c-6.9-7-12.1-16.2-12.7-29.4v-2.6c0,0,0.1,0,0-0.1
		c0.7-13.1,5.8-22.4,12.7-29.3C76.2,22.4,85.6,17.3,98.6,16.6L98.6,16.6z M90.1,22.8c-2.6,0.7-4.9,1.6-7,2.6
		c-6.4,3.2-11.7,7.7-15.4,13.5c-3.6,5.7-6.7,12.9-6.3,22.5c0.3,6,1.7,11.1,3.8,15.4c4.3,8.5,10.8,14.8,19.8,18.6
		c4.5,1.9,10,3.2,16.2,2.9c6-0.3,11.2-1.6,15.4-3.8c8.4-4.2,15-10.8,18.7-19.8c1.9-4.6,3.3-9.8,3-16.2c-0.6-12.1-5.5-20.3-12-26.5
		c-3.2-3.1-7.1-5.7-11.6-7.6c-4.4-1.8-10.2-3.2-16.3-2.9C95.6,21.8,92.7,22.1,90.1,22.8L90.1,22.8z"/>
	<path class="st0" d="M96,48.7c1.4,0.9,2.8,1.8,4.1,2.8c-2.9,1.8-5.8,3.7-8.7,5.6c0.4,0.3,0.9,0.6,1.4,1c2.9-1.9,5.9-3.7,8.8-5.6
		c1.3,0.8,2.6,1.7,3.8,2.6c-2.9,1.9-5.8,3.8-8.7,5.7c0.4,0.4,1,0.6,1.4,0.9c3-1.8,6-3.8,8.9-5.7v-6.2h6.5v12.3c1.8,0.1,3.9,0,5.8,0
		V68H107v-5.9c-3.6,2.2-7.3,4.7-11,7c-3.8-2.5-7.4-5.1-11.2-7.5c-1.1,3.5-3.7,6.1-8,6.4c-2.7,0.2-5.7-0.1-8.8,0V49.8
		c3.9,0.3,8.1-0.5,11.2,0.4c2.7,0.8,4.6,3,5.5,5.7C88.5,53.6,92.2,51.1,96,48.7L96,48.7z M74.2,55.6v6.5c1.6,0,2.7,0.1,3.7-0.6
		c1.4-1.1,1.6-3.7,0.4-5c-0.8-0.9-2.2-1.1-4-1C74.2,55.5,74.2,55.6,74.2,55.6z M121.1,49.8h6.5v12.4h5.7V68H121v-18
		C121,49.9,121,49.8,121.1,49.8L121.1,49.8z"/>
</g>
</svg>
