<svg width="200" height="120" viewBox="0 0 200 120" fill="none" xmlns="http://www.w3.org/2000/svg">
<path d="M21 76.5392V44H27.8452V57.4256H41.741V44H48.5704V76.5392H41.741V63.0977H27.8452V76.5392H21Z" fill="#3AA0FF"/>
<path d="M52.317 44H59.9842L67.3669 58.0135H67.6831L75.0657 44H82.733L70.9239 65.0361V76.5392H64.1261V65.0361L52.317 44Z" fill="#3AA0FF"/>
<path d="M106.47 44H113.315V65.1314C113.315 67.5041 112.751 69.5802 111.623 71.3597C110.506 73.1391 108.941 74.5267 106.928 75.5224C104.915 76.5075 102.57 77 99.8933 77C97.2058 77 94.8556 76.5075 92.8426 75.5224C90.8296 74.5267 89.2646 73.1391 88.1474 71.3597C87.0303 69.5802 86.4717 67.5041 86.4717 65.1314V44H93.3169V64.5436C93.3169 65.7829 93.5856 66.8844 94.1231 67.8483C94.6712 68.8122 95.4405 69.5696 96.4312 70.1204C97.4219 70.6712 98.5759 70.9466 99.8933 70.9466C101.221 70.9466 102.375 70.6712 103.355 70.1204C104.346 69.5696 105.11 68.8122 105.648 67.8483C106.196 66.8844 106.47 65.7829 106.47 64.5436V44Z" fill="#3AA0FF"/>
<path d="M146.027 44V76.5392H140.115L126.029 56.0592H125.792V76.5392H118.947V44H124.954L138.929 64.4641H139.213V44H146.027Z" fill="#3AA0FF"/>
<path d="M163.16 76.5392H151.683V44H163.255C166.511 44 169.315 44.6514 171.665 45.9543C174.015 47.2465 175.822 49.1054 177.087 51.5311C178.362 53.9567 179 56.8589 179 60.2378C179 63.6273 178.362 66.5402 177.087 68.9764C175.822 71.4126 174.004 73.2821 171.633 74.585C169.272 75.8878 166.448 76.5392 163.16 76.5392ZM158.528 70.6447H162.875C164.899 70.6447 166.601 70.2845 167.981 69.5643C169.373 68.8334 170.416 67.7053 171.111 66.1801C171.818 64.6442 172.171 62.6635 172.171 60.2378C172.171 57.8334 171.818 55.8686 171.111 54.3433C170.416 52.818 169.378 51.6952 167.997 50.975C166.617 50.2547 164.914 49.8946 162.891 49.8946H158.528V70.6447Z" fill="#3AA0FF"/>
<rect x="0.5" y="0.5" width="199" height="119" stroke="black"/>
</svg>
