<svg width="200" height="120" viewBox="0 0 200 120" fill="none" xmlns="http://www.w3.org/2000/svg">
<g clip-path="url(#clip0_654_1031)">
<path d="M14 45V75H19.9217V61.3356H32.4757V56.3356H19.9217V50H34.1676V45H14Z" fill="black"/>
<path d="M34.7427 63.2192C34.7427 61.3014 35.1826 59.4179 36.0624 57.6371C36.9422 55.822 38.1942 54.4521 39.8184 53.5275C41.4427 52.5686 43.2361 52.0891 45.2325 52.0891C48.3118 52.0891 50.8497 53.1508 52.8123 55.3083C54.7749 57.4658 55.7563 60.1713 55.7563 63.459C55.7563 66.7809 54.7749 69.5206 52.7785 71.6782C50.782 73.8699 48.278 74.9316 45.2664 74.9316C43.4053 74.9316 41.6118 74.4864 39.9199 73.5617C38.228 72.6713 36.9422 71.3357 36.0624 69.5891C35.1826 67.8768 34.7427 65.7535 34.7427 63.2192ZM40.2922 63.5275C40.2922 65.685 40.7659 67.3631 41.7472 68.5275C42.6947 69.6919 43.879 70.274 45.3002 70.274C46.7214 70.274 47.8719 69.6919 48.8532 68.5275C49.8007 67.3631 50.2744 65.685 50.2744 63.4932C50.2744 61.3357 49.8007 59.6919 48.8532 58.5617C47.9058 57.3973 46.7214 56.8151 45.3002 56.8151C43.879 56.8151 42.6947 57.3973 41.7472 58.5617C40.7659 59.6919 40.2922 61.3699 40.2922 63.5275Z" fill="black"/>
<path d="M63.9453 67.9109C64.3852 69.6574 65.8741 70.4793 68.1074 70.4793C70.3069 70.4793 71.0514 69.8287 71.0514 68.493C71.0514 67.0889 70.1377 66.541 67.0246 65.7533C59.9863 64.0067 58.8357 61.7807 58.8357 58.6985C58.8357 55.4793 61.0691 52.0547 67.5999 52.0547C74.1645 52.0547 76.3978 55.6848 76.567 58.6643H70.8822C70.6792 57.8424 70.1716 56.3355 67.3292 56.3355C65.3327 56.3355 64.7236 57.2259 64.7236 58.2191C64.7236 59.315 65.4004 59.8287 68.9196 60.6506C76.1271 62.3629 77.1423 64.8629 77.1423 68.0478C77.1423 71.678 74.4014 74.9656 67.8367 74.9656C61.2721 74.9656 58.565 71.7465 58.0913 67.8766H63.9453V67.9109Z" fill="black"/>
<path d="M100.288 64.8288C100.288 67.5686 101.607 70.2398 104.484 70.2398C106.886 70.2398 107.597 69.2124 108.138 67.911H113.924C113.18 70.5823 110.913 75.0001 104.314 75.0001C97.4114 75.0001 94.4336 69.5891 94.4336 63.8699C94.4336 56.9864 97.8174 52.0891 104.517 52.0891C111.691 52.0891 114.161 57.5343 114.161 63.0138C114.161 63.7672 114.161 64.2466 114.094 64.8631H100.288V64.8288ZM108.375 61.096C108.341 58.5617 107.36 56.4042 104.551 56.4042C101.777 56.4042 100.66 58.4247 100.423 61.096H108.375Z" fill="black"/>
<path d="M79.4093 52.0889H83.03V47.4314H88.5457V52.0547H92.1664V56.3013H88.5457V68.1506C88.5457 69.7944 89.0532 70.2054 90.8128 70.2054H92.1664V74.5204C90.982 74.9314 89.3578 74.9314 88.1396 74.9314C83.9437 74.9314 82.9962 72.7054 82.9962 68.904V56.3355H79.3755V52.0889H79.4093Z" fill="black"/>
<path d="M128.543 52.0891C128.171 52.0891 127.765 52.1234 127.392 52.1919C124.956 52.5686 122.926 54.1782 121.944 56.3357V52.0891H116.429V74.0754V75.0343H121.944V61.9521C121.944 58.4247 124.719 57.7055 128.509 57.7055L128.543 52.0891Z" fill="black"/>
<path d="M148.676 75.0001H148.71V74.8289L148.676 75.0001Z" fill="black"/>
<path d="M138.762 52.0891L136.833 59.1097L136.461 60.5823H149.556L149.962 59.1097L151.891 52.0891H138.762Z" fill="black"/>
<path d="M154.903 52.0891L152.974 59.1097L152.602 60.5823H183.631L184.037 59.1097L186 52.0891H154.903Z" fill="black"/>
<path d="M135.648 63.5273L133.314 72.0205L132.501 74.9999H145.631L146.443 72.0205L148.744 63.5273H135.648Z" fill="black"/>
<path d="M149.455 72.0205H180.484L182.819 63.5273H151.789L149.455 72.0205Z" fill="black"/>
</g>
<rect x="0.5" y="0.5" width="199" height="119" stroke="black"/>
<defs>
<clipPath id="clip0_654_1031">
<rect width="172" height="30" fill="white" transform="translate(14 45)"/>
</clipPath>
</defs>
</svg>
