<?xml version="1.0" encoding="utf-8"?>
<!-- Generator: Adobe Illustrator 24.0.1, SVG Export Plug-In . SVG Version: 6.00 Build 0)  -->
<svg version="1.1" id="Слой_1" xmlns="http://www.w3.org/2000/svg" xmlns:xlink="http://www.w3.org/1999/xlink" x="0px" y="0px"
	 viewBox="0 0 200 120" style="enable-background:new 0 0 200 120;" xml:space="preserve">
<style type="text/css">
	.st0{display:none;fill-rule:evenodd;clip-rule:evenodd;fill:#FFFFFF;}
	.st1{fill-rule:evenodd;clip-rule:evenodd;fill:#CC2229;}
</style>
<g>
	<path class="st0" d="M40,0h154.2v154.2H40V0z"/>
	<path class="st1" d="M32.1,70.9c2.2,0,4.1-1.8,4.1-4.1s-1.8-4.1-4.1-4.1h-9.5v-6.1h8.7l0,0c2.1,0,3.7-1.7,3.7-3.7
		c0-2.1-1.7-3.7-3.7-3.7l0,0l-10.8,0v21.7L32.1,70.9z M37.3,59.1c3,1.4,4.9,4.4,4.9,7.7h-0.1l0,0C42.2,72.4,37.6,77,32,77l-11.5,0
		h-6.1V43.2h6.1l10.7,0c5.4,0,9.8,4.5,9.8,9.8l0-0.1C41.1,55.5,39.6,57.9,37.3,59.1L37.3,59.1L37.3,59.1z M69.5,76.9l0-10.8H56V60
		h13.6l0-3.7c0-4.3-3.5-7.8-7.8-7.8S54,52,54,56.3l0,0l0,20.6l-6,0l-0.1-20.6c0-7.7,6.2-13.9,13.9-13.9s13.9,6.2,13.9,13.9l0,20.6
		C75.6,76.9,69.5,76.9,69.5,76.9z M104.9,59.1L104.9,59.1c3,1.4,5,4.4,5,7.7l0,10.1h-6.1l0-10.1c0-2.2-1.8-4.1-4.1-4.1c0,0,0,0,0,0
		h-9.5v-6.1h8.7l0,0c2.1,0,3.7-1.7,3.7-3.8c0-2-1.7-3.6-3.7-3.7l-10.8,0l0,27.8h-6.1V43.2h6.1l10.7,0c5.4,0,9.8,4.5,9.8,9.8l0-0.1
		C108.7,55.5,107.2,57.9,104.9,59.1L104.9,59.1z M130,76.9c-9.3,0-16.9-7.6-16.9-16.9c0-9.3,7.6-16.9,16.9-16.9h10.1l0,6.1H130
		c-6,0-10.8,4.8-10.8,10.8S124,70.8,130,70.8h10.1l0,6.1H130L130,76.9z"/>
	<path class="st1" d="M159.9,71.5c6.3,0,11.5-5.1,11.5-11.5c0-6.3-5.1-11.5-11.5-11.5c-6.3,0-11.5,5.1-11.5,11.5
		C148.4,66.3,153.5,71.5,159.9,71.5z M159.9,66.8c3.7,0,6.8-3,6.8-6.8c0-3.7-3-6.8-6.8-6.8c-3.7,0-6.8,3-6.8,6.8
		C153.1,63.7,156.1,66.8,159.9,66.8C159.9,66.8,159.9,66.8,159.9,66.8z M143.6,53.6c2.6-6.5,8.9-11.2,16.4-11.2
		c7.5,0,13.9,4.7,16.4,11.2l0,0c0.7,1.8,2.5,3,4.4,3l0.1,0h5.2v6.8h-5.2l-0.1,0c-1.9,0-3.7,1.2-4.4,2.9l0,0
		c-2.5,6.6-8.9,11.3-16.4,11.3c-7.4,0-13.8-4.6-16.4-11.1c-0.7-1.8-2.4-3-4.4-3l-5.5,0v-6.8l5.5,0C141.1,56.7,142.9,55.4,143.6,53.6
		L143.6,53.6z"/>
</g>
</svg>
