<svg width="200" height="120" viewBox="0 0 200 120" fill="none" xmlns="http://www.w3.org/2000/svg">
<g clip-path="url(#clip0_643_283)">
<path fill-rule="evenodd" clip-rule="evenodd" d="M17.9976 -21.4211H181.002V140.423H17.9976V-21.4211Z" fill="#AD0322"/>
<path fill-rule="evenodd" clip-rule="evenodd" d="M69.9697 61.0618V68.6818V70.4305H67.3641H54.8742C53.7257 70.4305 52.5749 69.9309 51.9624 69.4312C50.8882 68.4929 50.735 66.7442 50.735 65.745C50.735 63.373 51.4242 62.4976 51.7326 62.1848C52.7281 61.1248 54.4148 61.0618 55.0274 61.0618H69.9697ZM44.4518 42.9478L47.3003 48.5694H64.4522C65.8327 48.5694 67.5894 48.7606 68.8211 50.0074C69.8122 51.0088 69.9697 52.1297 69.9697 53.1289V55.4401H52.3452C50.199 55.4401 47.4403 55.5661 44.9113 57.3755C41.8462 59.5629 41.4634 62.4976 41.4634 65.4344C41.4634 67.8694 41.6931 72.1161 44.9878 74.4273C47.2872 76.0521 50.1225 76.0521 52.3452 76.0521H71.733H78.935V53.3157C78.935 49.6316 77.6333 46.9468 75.9466 45.5088C74.1089 43.947 70.9673 42.9478 67.5172 42.9478H44.4518ZM119.432 76.0521L116.446 70.4305H101.887C98.1325 70.4305 93.687 70.1177 91.6962 66.9332C90.622 65.1824 90.3923 61.998 90.3923 60.0625C90.3923 59.0633 90.4645 55.5639 91.0814 53.8175C92.0724 51.0045 94.9909 48.5694 101.044 48.5694H114.394L111.546 42.9478H98.1325C90.8539 42.9478 87.3819 45.1178 85.7171 46.508C81.1753 50.3007 81.1206 56.0027 81.1206 59.9366C81.1206 64.622 81.4269 68.7448 84.7982 71.9923C88.478 75.5525 93.8401 76.0521 96.9074 76.0521H119.432ZM123.359 42.9478H114.086L129.566 73.4911L130.905 76.0521H140.741L157.536 42.9478H148.265L135.849 68.8057L123.359 42.9478Z" fill="white"/>
</g>
<defs>
<clipPath id="clip0_643_283">
<rect width="163" height="75" fill="white" transform="translate(18 22)"/>
</clipPath>
</defs>
</svg>
