<?xml version="1.0" encoding="utf-8"?>
<!-- Generator: Adobe Illustrator 24.0.1, SVG Export Plug-In . SVG Version: 6.00 Build 0)  -->
<svg version="1.1" id="Слой_1" xmlns="http://www.w3.org/2000/svg" xmlns:xlink="http://www.w3.org/1999/xlink" x="0px" y="0px"
	 viewBox="0 0 200 120" style="enable-background:new 0 0 200 120;" xml:space="preserve">
<style type="text/css">
	.st0{display:none;fill-rule:evenodd;clip-rule:evenodd;fill:#FFFFFF;}
	.st1{fill-rule:evenodd;clip-rule:evenodd;fill:#CC2229;}
</style>
<g>
	<path class="st0" d="M6.1-33.9h187.9v187.9H6.1V-33.9z"/>
	<path class="st1" d="M183,68c-1.2,0-2.1,1-2.1,2.1c0,1.2,1,2.1,2.1,2.1c1.2,0,2.1-1,2.1-2.1c0,0,0,0,0,0C185.2,69,184.2,68,183,68
		C183,68,183,68,183,68z M183,72.1c-1,0-1.9-0.8-1.9-1.9c0,0,0,0,0,0c0-1,0.8-1.9,1.9-1.9s1.9,0.8,1.9,1.9
		C184.9,71.2,184.1,72.1,183,72.1C183,72.1,183,72.1,183,72.1L183,72.1z"/>
	<path class="st1" d="M184.1,69.6c0-0.2-0.1-0.4-0.3-0.5c-0.2-0.1-0.4-0.1-0.6-0.1h-1v2.4h0.3v-1.1h0.5l0.7,1.1h0.3l-0.7-1.1
		C183.8,70.3,184.1,70.1,184.1,69.6L184.1,69.6z M183,70h-0.4v-0.8h0.7c0.3,0,0.6,0,0.6,0.4C183.8,70.1,183.3,70,183,70L183,70z
		 M168.8,47.4c-2.5,0-9.6,0.3-14.2,0.9v23.4h7.5v-8.5c0.9,0.3,6.3,0.8,8.2,0.8c1.9,0,15.4-0.6,15.4-8.6
		C185.6,47,171.3,47.4,168.8,47.4L168.8,47.4z M169.2,60.1c-2.4,0-5.2-0.2-7.2-0.9v-7.2c2.5-0.2,6.5-0.4,7.6-0.4s7.1,0.3,7.2,4.1
		C176.9,59.7,171.6,60.1,169.2,60.1z M40.3,57.8c-2-0.5-9.6-1.7-11.6-1.9c-2.6-0.3-4.1-0.8-4.1-2.3c0-2,3.9-1.6,7-1.5
		c3.9,0.2,11.1,2.6,13.2,3.5l2.5-5.4c-4-2-11.8-2.9-16.7-2.9c-3.6,0.1-15.4,0.9-15.6,7.2c-0.1,4.5,3.8,6.1,8.8,7.4
		c4.3,0.9,9.1,1.3,12.3,2c4.2,0.9,4.1,3.8,0.8,4.1c-5.7,0.4-15.3-2.4-19.7-4.6l-2.8,5.8c6.1,3,15.6,3.7,18.8,3.7
		c4.2-0.1,15.3-0.5,15.3-7.1C48.5,61.3,44.7,58.8,40.3,57.8z M73.5,57.5H58v-9.1h-8v23.4h8v-9.6h15.5v9.6h8V48.4h-8V57.5z
		 M105.9,48.4h-9.8L82.4,71.8h6.2l3.2-5.3h15.5l3.2,5.3h9.6L105.9,48.4L105.9,48.4z M94.5,61.8l4.9-8.4l5.1,8.4H94.5z M152.2,55.2
		c-0.1-8.6-14.6-7.8-17.1-7.8c-2.5,0-9.6,0.3-14.2,0.9v23.4h7.6V51.9c2.7-0.2,6.6-0.4,7.7-0.4c1.2,0,7.1-0.2,7.1,4
		c0,4-5.5,4.1-7.9,4.1c-1.5,0-2.8-0.3-4.1-0.6l-1.4,2.4l11.7,10.4h11.2l-10.2-9C147,62,152.3,60,152.2,55.2L152.2,55.2z"/>
</g>
</svg>
