<svg width="200" height="120" viewBox="0 0 200 120" fill="none" xmlns="http://www.w3.org/2000/svg">
<g clip-path="url(#clip0_654_1226)">
<path fill-rule="evenodd" clip-rule="evenodd" d="M84.1501 43.1294C76.7556 43.1294 71.5615 43.8718 67.7234 45.0493C63.9423 46.292 60.6715 48.7373 58.4099 52.0123C54.2648 57.6442 51.1433 68.0119 50.8618 77.9188H60.3289C59.8809 75.2754 59.8809 72.5753 60.3289 69.9319H68.9004L67.7235 74.9493L66.9814 78.0724H75.7065L84.1501 43.1294ZM73.199 52.4475L70.973 61.6377H62.2479C63.5784 58.0794 65.3695 55.5707 67.7235 53.9323C69.4024 53.0037 71.2809 52.4943 73.199 52.4475Z" fill="#FF0025"/>
<path fill-rule="evenodd" clip-rule="evenodd" d="M179 43.1294C171.605 43.1294 166.437 43.8718 162.573 45.0493C158.792 46.292 155.521 48.7373 153.26 52.0123C149.115 57.6442 145.993 68.0119 145.865 77.9188H155.332C154.884 75.2754 154.884 72.5753 155.332 69.9319H163.904L162.727 74.9493L161.985 78.0724H170.71L179 43.1294ZM168.049 52.4475L165.823 61.6377H157.098C158.025 58.5364 159.95 55.8278 162.573 53.9323C164.252 53.0037 166.131 52.4943 168.049 52.4475Z" fill="#FF0025"/>
<path fill-rule="evenodd" clip-rule="evenodd" d="M30.2905 43.2827H39.0155L35.7658 57.0556H43.7489L46.9986 43.2827H55.7487L47.4591 77.9193H38.7341L41.6765 65.4778H33.6934L30.725 77.9193H22L30.2905 43.2827Z" fill="#FF0025"/>
<path fill-rule="evenodd" clip-rule="evenodd" d="M88.1417 43.283L79.8516 78.0724H88.7302L94.7942 52.4475C98.9392 52.4475 100.73 52.4475 101.012 53.3435C101.754 56.1594 99.8348 57.0554 93.6172 61.3305L95.8432 77.9188H105.899L102.496 64.3C107.69 60.4601 109.762 57.6442 110.479 52.6011C111.528 45.9453 105.157 43.1294 101.012 43.1294H88.1417V43.283Z" fill="#FF0025"/>
<path fill-rule="evenodd" clip-rule="evenodd" d="M111.682 43.2827L113.012 77.9193H122.914L141.131 43.2827H131.051L120.841 65.7851L121.737 43.2827H111.682Z" fill="#FF0025"/>
<path fill-rule="evenodd" clip-rule="evenodd" d="M141.72 43.2827H150.598L142.155 77.9193H133.43L141.72 43.2827Z" fill="#FF0025"/>
</g>
<rect x="0.5" y="0.5" width="199" height="119" stroke="black"/>
<defs>
<clipPath id="clip0_654_1226">
<rect width="157" height="35" fill="white" transform="translate(22 43)"/>
</clipPath>
</defs>
</svg>
