<svg width="200" height="120" viewBox="0 0 200 120" fill="none" xmlns="http://www.w3.org/2000/svg">
<path d="M103.4 27C108.7 20 116.1 20 116.1 20C116.1 20 117.2 26.6 111.9 32.9C106.3 39.7 99.8 38.6 99.8 38.6C99.8 38.6 98.7 33.2 103.4 27ZM100.6 43.2C103.3 43.2 108.4 39.4 115 39.4C126.4 39.4 130.9 47.5 130.9 47.5C130.9 47.5 122.1 52 122.1 62.8C122.1 75.1 133 79.3 133 79.3C133 79.3 125.4 100.8 115.1 100.8C110.4 100.8 106.7 97.6 101.7 97.6C96.6 97.6 91.6 100.9 88.3 100.9C78.9 100.9 67 80.5 67 64.2C67 48.1 77.1 39.7 86.5 39.7C92.6 39.6 97.4 43.2 100.6 43.2Z" fill="#999999"/>
<rect x="0.5" y="0.5" width="199" height="119" stroke="black"/>
</svg>
