<svg width="200" height="120" viewBox="0 0 200 120" fill="none" xmlns="http://www.w3.org/2000/svg">
<g clip-path="url(#clip0_662_482)">
<path d="M140.039 75.3264C139.032 75.3264 138.164 75.3264 137.017 75.3264C137.017 74.2317 137.017 73.165 137.017 72.1264C136.961 68.2528 137.045 64.351 136.821 60.5054C136.625 57.3054 134.247 55.3405 131.225 55.4808C127.811 55.6492 125.572 57.8668 125.572 61.151C125.544 65.8106 125.572 70.4984 125.572 75.2984C124.565 75.2984 123.669 75.2984 122.606 75.2984C122.578 74.8212 122.522 74.3159 122.522 73.8387C122.522 69.7685 122.578 65.6984 122.494 61.6282C122.466 59.2703 121.711 57.165 119.444 56.0422C117.261 54.9756 115.163 55.4247 113.26 56.8282C111.861 57.8668 111.189 59.2984 111.189 61.0668C111.189 65.2773 111.189 69.4878 111.161 73.6984C111.161 74.2317 111.105 74.7931 111.077 75.3826C110.07 75.3826 109.202 75.3826 108.251 75.3826C108.251 67.944 108.251 60.5896 108.251 53.1229C109.174 53.1229 110.07 53.1229 111.049 53.1229C111.133 53.7405 111.189 54.3299 111.273 55.144C116.002 51.6352 120.423 51.5791 124.089 55.7615C126.244 54.7229 128.119 53.3756 130.189 52.8984C135.226 51.7475 139.536 54.7791 139.899 59.9159C140.319 64.9405 140.039 70.0492 140.039 75.3264Z" fill="#F5C13E"/>
<path d="M164.777 64.744C161.419 64.744 158.396 64.744 155.402 64.744C152.38 64.744 149.358 64.744 146.42 64.744C145.832 67.13 147.371 70.1896 149.666 71.5089C153.835 73.9229 156.662 73.2493 161.503 68.6458C162.258 69.1229 163.07 69.6282 163.937 70.1896C162.482 72.8843 160.383 74.5124 157.613 75.2984C152.352 76.8142 146.812 74.6808 144.433 70.2457C141.691 65.137 142.698 58.6528 146.896 55.1159C153.052 49.9229 162.958 52.6177 164.301 61.0107C164.469 62.1335 164.609 63.2843 164.777 64.744ZM161.307 61.9089C161.251 58.1194 157.753 55.2001 153.723 55.3966C149.834 55.5931 146.168 58.8773 146.448 61.9089C151.373 61.9089 156.298 61.9089 161.307 61.9089Z" fill="#F5C13E"/>
<path d="M68.1521 68.6457C68.5719 68.8702 68.9356 69.0667 69.2714 69.2913C69.6632 69.5439 70.027 69.8246 70.4747 70.1615C69.1595 72.9404 66.9209 74.5966 64.1506 75.2422C59.8133 76.2527 55.7558 75.6913 52.4818 72.1825C49.012 68.4492 48.5923 61.3194 51.6983 57.0808C54.9163 52.6738 60.7087 51.2141 65.6617 53.6001C69.3274 55.3404 71.7899 60.3088 71.0343 64.7439C65.0181 64.7439 58.9458 64.7439 52.9016 64.7439C52.5098 67.5509 54.3007 70.6106 57.015 71.958C60.7367 73.8387 64.0107 72.8843 68.1521 68.6457ZM68.0682 61.9088C67.5925 57.9229 64.5144 55.2562 60.6808 55.3124C56.8191 55.3685 53.2654 58.372 52.9575 61.9088C57.9664 61.9088 62.9753 61.9088 68.0682 61.9088Z" fill="#F5C13E"/>
<path d="M92.4694 55.0596C92.5533 54.414 92.6093 53.7965 92.6932 53.0947C93.6167 53.0947 94.4841 53.0947 95.4915 53.0947C95.4915 60.4772 95.4915 67.8035 95.4915 75.2982C94.624 75.2982 93.7286 75.2982 92.7212 75.2982C92.6373 74.7087 92.5253 74.1193 92.3854 73.3052C88.8876 75.8877 85.1379 76.3368 81.1924 75.1017C78.8418 74.3719 77.0509 72.8 75.7078 70.7509C73.0214 66.7087 73.4132 60.0561 76.5193 56.5754C80.6047 52 85.3058 51.5228 92.4694 55.0596ZM93.085 64.2947C93.1409 59.1298 89.9789 55.7333 85.054 55.6772C80.5488 55.621 76.939 59.3263 76.883 64.0421C76.8271 68.9824 80.2689 72.6596 84.97 72.7438C89.6991 72.828 93.029 69.3473 93.085 64.2947Z" fill="#F5C13E"/>
<path d="M39.2741 55.7333C39.2741 62.414 39.2741 68.8421 39.2741 75.3544C38.2107 75.3544 37.2873 75.3544 36.252 75.3544C36.252 67.9158 36.252 60.5052 36.252 53.0667C40.7292 53.0667 45.1225 53.0667 49.5997 53.0667C49.5997 53.9649 49.5997 54.7789 49.5997 55.7614C46.1858 55.7333 42.8559 55.7333 39.2741 55.7333Z" fill="#F5C13E"/>
<path d="M103.298 75.3263C102.347 75.3263 101.479 75.3263 100.5 75.3263C100.5 64.9404 100.5 54.6106 100.5 44.1404C101.367 44.1404 102.263 44.1404 103.298 44.1404C103.298 54.4702 103.298 64.8562 103.298 75.3263Z" fill="#F5C13E"/>
</g>
<rect x="0.5" y="0.5" width="199" height="119" stroke="black"/>
<defs>
<clipPath id="clip0_662_482">
<rect width="129" height="32" fill="white" transform="translate(36 44)"/>
</clipPath>
</defs>
</svg>
