<?xml version="1.0" encoding="utf-8"?>
<!-- Generator: Adobe Illustrator 24.0.1, SVG Export Plug-In . SVG Version: 6.00 Build 0)  -->
<svg version="1.1" id="Слой_1" xmlns="http://www.w3.org/2000/svg" xmlns:xlink="http://www.w3.org/1999/xlink" x="0px" y="0px"
	 viewBox="0 0 200 120" style="enable-background:new 0 0 200 120;" xml:space="preserve">
<style type="text/css">
	.st0{fill-rule:evenodd;clip-rule:evenodd;fill:#CC2229;}
</style>
<path class="st0" d="M148.7,81.2c-21.2-1.4-28.3-26-12.4-38.7c6.6-5.8,16.4-3.1,24.4-3.5c4,0,7.1,10.9,4.6,12.8
	c-5.2-0.1-8.8-8.4-15-6.8c-12.9,0-11.7,33.1,2.9,30.1c1-0.1,3.3-0.9,3.3-2l-0.1-9.7c-2.2-0.9-4.1-3.7-2-5.1l14.5-0.5
	c5,0.6,1,4.2,0.2,5.6c0.2,2.4-0.1,5,0.2,7.3c2.4,1.1,1.2,3.5-0.2,4.3C165.1,79.3,154.3,81.2,148.7,81.2z M84.3,80.9
	c-3.3,0-3.2-4.1-0.9-5.2c2.5-0.7,0.9-27.9,0.6-31.2c-1.5-0.6-4-2.2-2.1-4.6l34.8-0.1c2.2,1.6,10.2,10,2.7,10
	c-3.5-1.4-6.1-4.5-10.5-4.1c-3.7-0.1-7.2-0.1-10.5,0.2v10.8l13.9,0.1c1-0.9,4-2.7,5.7-2.4c3,1.5-2.4,11.4-6.6,11.4
	c-1.9-0.2-1.2-1.9-2.5-2.6H98.4l0.1,11c7.6,1.2,15.5,0,21.8-4.3c5.8,1.6-1.7,10.5-4.3,11C116,81,84.3,80.9,84.3,80.9z M31.1,80.9
	c-5.5-2.1-0.5-4.6,2.1-5.7l12.8-26.8c0-4.3-8.8-5.8-3.3-9.1h14.9l18.6,37.1c4.5,2.6,3.1,4.1-1.6,4l-13.3,0.1l-4.6-7.2H42.3l-1.1,2.6
	c1.1,0.5,2.5,1.9,1.4,3.3C42.6,81.4,32.7,80.9,31.1,80.9z M45.1,66.2l4.1-8.8l4.5,9.2C53.6,66.6,45.1,66.2,45.1,66.2z"/>
</svg>
