<svg width="200" height="120" viewBox="0 0 200 120" fill="none" xmlns="http://www.w3.org/2000/svg">
<g clip-path="url(#clip0_45_305)">
<path fill-rule="evenodd" clip-rule="evenodd" d="M32.7148 70.8569C30.9973 70.8569 29.2798 70.5424 27.7184 70.0707C26.157 69.5989 24.1273 68.6554 23.0343 68.3409L21.9414 70.5424H18.5063V63.7808H21.3168C22.4098 64.7243 23.815 65.6678 24.7518 66.1395C25.6886 66.7685 26.6255 67.3975 27.7184 67.8692C28.8114 68.3409 30.5289 68.6554 32.0902 68.8127C34.12 68.9699 35.8375 68.9699 36.9305 68.3409C37.7112 68.0265 38.9603 67.3975 38.9603 66.1395C38.9603 65.0388 37.8673 64.567 37.0866 64.2526C35.9937 63.9381 33.9639 63.7808 32.0902 63.4663C30.8412 62.9946 29.7482 62.8373 28.6552 62.5229C27.5623 62.3656 26.6255 62.2084 25.6886 62.0511C23.5027 61.5794 21.9414 60.7931 20.8484 59.8497C19.7554 58.9062 19.287 57.8055 19.287 56.7048C19.287 55.9185 19.5993 55.2895 20.0677 54.6606C20.5361 54.0316 21.3168 53.4026 22.4098 52.7736C23.5027 52.3019 24.7518 51.9874 26.3132 51.6729C27.8746 51.3584 29.5921 51.3584 31.3096 51.3584C33.0271 51.3584 34.9007 51.8301 36.4621 52.3019C38.0234 52.7736 38.8041 53.0881 39.5848 53.4026L40.6778 51.5156H43.3321V57.9627H40.5216C39.7409 57.0192 38.9603 56.0758 37.8673 55.2895C37.0866 54.8178 36.4621 54.3461 35.3691 54.0316C34.5884 53.7171 33.1832 53.2453 31.9341 53.2453C30.3727 53.2453 28.6552 53.5598 27.7184 54.0316C27.0939 54.3461 26.3132 55.1323 26.3132 55.9185C26.3132 56.7048 26.6255 56.862 27.5623 57.3337C28.6552 57.8055 30.3727 57.8055 32.2464 58.2772C33.3393 58.4345 34.4323 58.749 35.6814 58.9062C36.7743 59.0634 37.8673 59.3779 38.8041 59.6924C40.99 60.1642 42.5514 60.7931 43.8005 61.7366C44.8935 62.5229 45.518 63.6236 45.518 65.0388C45.518 65.825 45.2057 66.6112 44.5812 67.3975C43.9566 68.1837 43.176 68.8127 41.7707 69.2844C40.3655 69.9134 39.4287 70.2279 37.8673 70.5424C35.9937 70.6996 34.2762 70.8569 32.7148 70.8569ZM179.952 70.3851H164.65V68.4982C165.431 68.4982 166.68 68.3409 167.773 68.1837C168.866 68.0265 168.866 67.8692 168.866 67.712C168.866 67.712 168.866 67.5547 168.866 67.3975C168.866 67.2402 168.71 67.2402 168.71 67.083L166.836 64.0953C166.524 63.6236 166.368 63.3091 166.056 62.8373C164.026 62.8373 159.186 62.8373 157.156 62.8373C156.844 63.3091 156.687 63.6236 156.375 64.0953C156.375 64.2526 156.219 64.2526 156.219 64.4098C155.907 64.8815 155.751 65.3533 155.438 65.6678C155.126 66.1395 154.97 66.454 154.97 66.7685C154.97 66.9257 154.97 67.083 154.97 67.2402C154.97 67.5547 155.282 67.712 156.063 68.0265C156.687 68.1837 157.936 68.3409 159.498 68.4982V70.3851H146.07V68.4982C146.538 68.4982 147.007 68.4982 147.631 68.3409C148.256 68.3409 148.724 68.1837 149.037 68.0265C149.661 67.8692 150.13 67.5547 150.442 67.2402C150.91 66.9257 151.223 66.6112 151.379 66.1395C152.94 63.6236 154.658 61.2649 156.219 58.749C157.624 56.3903 160.435 53.4026 154.658 53.4026C154.658 52.7736 154.658 51.8301 154.658 51.5156H166.68C169.178 55.2895 171.052 58.2772 172.457 60.4787C174.019 62.9946 175.268 65.0388 176.361 66.6112C176.517 66.9257 176.829 67.083 176.985 67.3975C177.297 67.5547 177.61 67.8692 178.234 68.0265C178.703 68.1837 179.015 68.3409 179.639 68.3409C179.796 68.3409 179.952 68.3409 180.108 68.3409V70.3851H179.952ZM164.806 60.9504L161.684 56.0758C160.591 57.6482 159.654 59.3779 158.561 60.9504C159.81 61.1076 163.714 60.9504 164.806 60.9504ZM142.947 70.3851H133.891C131.862 68.4982 130.3 67.083 128.895 65.825C127.958 65.0388 126.709 63.9381 125.304 62.9946C124.992 62.9946 122.337 62.9946 121.869 62.9946V66.7685C121.869 67.083 122.025 67.3975 122.181 67.5547C122.337 67.712 122.806 68.0265 123.274 68.1837C123.586 68.1837 123.899 68.3409 124.523 68.3409C125.148 68.3409 125.616 68.4982 125.928 68.4982V70.3851H110.159V68.4982C110.627 68.4982 111.095 68.4982 111.72 68.3409C112.345 68.3409 112.813 68.1837 113.125 68.1837C113.594 68.0265 114.062 67.8692 114.218 67.712C114.374 67.5547 114.53 67.2402 114.53 66.9257V55.2895C114.53 54.9751 114.374 54.6606 114.218 54.5033C114.062 54.3461 113.75 54.0316 113.125 53.8743C112.813 53.7171 112.188 53.7171 111.564 53.5598C110.939 53.5598 110.471 53.4026 110.159 53.4026V51.6729H126.865C130.613 51.6729 133.423 51.9874 135.453 52.7736C137.326 53.5598 140.137 54.9751 140.137 57.491C140.137 59.0634 139.2 59.6924 138.263 60.3214C137.17 61.1076 136.546 61.2649 134.36 62.0511C134.36 63.1518 134.36 62.2084 134.36 62.9946C135.609 64.0953 136.546 65.0388 137.795 66.1395C138.263 66.454 138.888 66.9257 139.512 67.3975C140.293 67.8692 140.918 68.1837 141.542 68.3409C141.854 68.3409 142.323 68.4982 142.791 68.6554C142.947 68.9699 142.947 69.5989 142.947 70.3851ZM132.33 57.491C132.33 56.3903 131.862 55.4468 130.925 54.6606C129.988 54.0316 128.427 53.7171 126.085 53.7171H121.869V61.1076H125.148C127.49 61.1076 129.207 60.7931 130.456 60.1642C131.862 59.3779 132.33 58.5917 132.33 57.491ZM108.597 57.3337C108.597 58.4345 108.285 59.2207 107.504 60.0069C106.724 60.7931 105.631 61.2649 104.538 61.7366C103.289 62.2084 102.04 62.5229 100.478 62.6801C98.9168 62.8373 97.0431 62.9946 95.0134 62.9946H92.5152V66.7685C92.5152 67.083 92.6713 67.3975 92.8274 67.5547C92.9836 67.8692 93.452 68.0265 94.0765 68.1837C94.5449 68.3409 95.0134 68.3409 95.3256 68.3409H96.887V70.0707H80.6488V68.1837C81.1172 68.1837 81.5856 68.1837 82.2101 68.0265C82.8347 68.0265 83.3031 67.8692 83.6154 67.8692C84.0838 67.712 84.5522 67.5547 84.7083 67.3975C84.8645 67.2402 85.0206 66.9257 85.0206 66.6112V55.2895C85.0206 54.9751 84.8645 54.6606 84.7083 54.5033C84.5522 54.3461 84.2399 54.0316 83.6154 53.8743C83.147 53.7171 82.6786 53.7171 82.054 53.5598C81.4295 53.4026 80.961 53.4026 80.6488 53.4026V51.6729H97.0431C100.01 51.6729 102.82 52.3019 104.694 53.0881C106.88 53.7171 108.597 55.7613 108.597 57.3337ZM100.478 57.491C100.478 56.3903 100.01 55.4468 99.0729 54.6606C98.1361 54.0316 96.5747 53.7171 94.2327 53.7171H92.5152V61.1076H93.452C95.794 61.1076 97.5115 60.7931 98.7606 60.1642C100.01 59.3779 100.478 58.5917 100.478 57.491ZM77.8383 53.4026C76.7454 53.5598 76.2769 53.7171 75.8085 54.0316C75.4963 54.3461 75.0278 54.8178 74.8717 55.2895C74.5594 55.9185 74.5594 56.7048 74.5594 57.8055V64.0953C74.5594 66.1395 73.4665 68.0265 71.2806 69.1272C69.0947 70.3851 66.9087 70.8569 63.3176 70.8569C59.1019 70.8569 56.7599 70.2279 54.5739 69.1272C52.2319 67.8692 51.1389 66.2968 51.1389 64.0953V55.1323C51.1389 54.8178 50.9828 54.5033 50.8267 54.3461C50.6705 54.1888 50.2021 53.8743 49.7337 53.7171C49.2653 53.7171 48.7969 53.5598 48.1723 53.5598C47.7039 53.5598 47.2355 53.4026 46.9232 53.4026V51.6729H62.5369V53.4026C62.0685 53.4026 61.6001 53.4026 61.1317 53.5598C60.6633 53.5598 60.1949 53.7171 59.7264 53.7171C59.258 53.8743 58.7896 54.0316 58.6335 54.1888C58.4774 54.5033 58.3212 54.6606 58.3212 54.9751V63.7808C58.3212 65.6678 58.9458 67.2402 59.7264 68.0265C60.9755 69.1272 62.2246 68.9699 64.7228 68.9699C66.7526 68.9699 67.6894 68.4982 68.6262 67.712C69.5631 66.9257 69.7192 65.196 69.7192 63.4663V57.9627C69.7192 56.862 69.5631 55.9185 69.4069 55.4468C69.2508 54.9751 69.0947 54.5033 68.7824 54.1888C68.6262 54.0316 68.4701 53.8743 68.0017 53.7171C67.5333 53.5598 67.0649 53.4026 66.7526 53.4026V51.6729H77.8383V53.4026Z" fill="#D10A10"/>
<path fill-rule="evenodd" clip-rule="evenodd" d="M172.925 49V49.7862H174.331V52.9311H175.267V49.7862H176.673V49H172.925ZM177.141 49V53.0884H178.078V50.258L179.327 52.9311H180.108L181.357 50.258V52.9311H182.293V49H181.044L179.795 51.8304L178.39 49H177.141Z" fill="#D10A10"/>
</g>
<defs>
<clipPath id="clip0_45_305">
<rect width="200" height="120" fill="white"/>
</clipPath>
</defs>
</svg>
