<svg width="200" height="120" viewBox="0 0 200 120" fill="none" xmlns="http://www.w3.org/2000/svg">
<path fill-rule="evenodd" clip-rule="evenodd" d="M44.918 64.656H44.9152C37.7339 64.5802 33.0935 61.1753 33.0935 55.9817C33.0935 50.7882 37.7339 47.3831 44.9152 47.3075C52.0997 47.3831 56.7394 50.7882 56.7394 55.9817C56.7394 61.1753 52.0997 64.5802 44.918 64.656ZM45.1278 43.1147C45.126 43.115 44.9832 43.1125 44.9113 43.1111C44.8377 43.112 44.6947 43.1147 44.6947 43.1147C34.8641 43.2744 28 48.5653 28 55.9817C28 63.398 34.8641 68.6891 44.6924 68.8487C44.6924 68.8487 44.8377 68.85 44.9092 68.8495C44.9844 68.8502 45.1283 68.8487 45.1283 68.8487C54.9564 68.6891 61.8203 63.398 61.8203 55.9817C61.8203 48.5653 54.9564 43.2744 45.1278 43.1147Z" fill="#282828"/>
<path fill-rule="evenodd" clip-rule="evenodd" d="M153.614 64.656H153.611C146.43 64.5802 141.79 61.1753 141.79 55.9817C141.79 50.7882 146.43 47.3831 153.611 47.3075C160.796 47.3831 165.436 50.7882 165.436 55.9817C165.436 61.1753 160.796 64.5802 153.614 64.656ZM153.824 43.1147C153.822 43.115 153.679 43.1125 153.607 43.1111C153.534 43.112 153.39 43.1147 153.39 43.1147C143.56 43.2744 136.696 48.5653 136.696 55.9817C136.696 63.398 143.56 68.6891 153.389 68.8487C153.389 68.8487 153.534 68.85 153.605 68.8495C153.68 68.8502 153.824 68.8487 153.824 68.8487C163.652 68.6891 170.516 63.398 170.516 55.9817C170.516 48.5653 163.652 43.2744 153.824 43.1147Z" fill="#282828"/>
<path fill-rule="evenodd" clip-rule="evenodd" d="M117.448 64.656H117.446C110.264 64.5802 105.624 61.1753 105.624 55.9817C105.624 50.7882 110.264 47.3831 117.446 47.3075C124.63 47.3831 129.27 50.7882 129.27 55.9817C129.27 61.1753 124.63 64.5802 117.448 64.656ZM117.658 43.1147C117.656 43.115 117.514 43.1125 117.441 43.1111C117.368 43.112 117.225 43.1147 117.225 43.1147C112.542 43.1908 108.533 44.4322 105.618 46.5122V44.3187H100.53V76.8889H105.618V65.4515C108.532 67.5314 112.541 68.7727 117.223 68.8487C117.223 68.8489 117.368 68.85 117.439 68.8495C117.515 68.8502 117.658 68.8487 117.658 68.8487C127.486 68.6891 134.351 63.398 134.351 55.9817C134.351 48.5653 127.486 43.2744 117.658 43.1147Z" fill="#282828"/>
<path fill-rule="evenodd" clip-rule="evenodd" d="M81.1785 64.656H81.1759C73.9945 64.5802 69.3541 61.1753 69.3541 55.9817C69.3541 50.7882 73.9945 47.3831 81.1759 47.3075C88.3602 47.3831 93.0002 50.7882 93.0002 55.9817C93.0002 61.1753 88.3602 64.5802 81.1785 64.656ZM81.3968 43.1147C81.3947 43.115 81.2521 43.1125 81.1799 43.1111C81.1065 43.112 80.9635 43.1147 80.9635 43.1147C76.2801 43.1908 72.2712 44.4322 69.3561 46.5122V44.3187H64.269V76.8889H69.3561V65.4515C72.271 67.5314 76.2793 68.7727 80.9612 68.8487C80.9612 68.8487 81.1065 68.85 81.178 68.8495C81.2534 68.8502 81.397 68.8487 81.397 68.8487C91.225 68.6891 98.0889 63.398 98.0889 55.9817C98.0889 48.5653 91.225 43.2744 81.3968 43.1147Z" fill="#282828"/>
<rect x="0.5" y="0.5" width="199" height="119" stroke="black"/>
</svg>
