<svg width="200" height="120" viewBox="0 0 200 120" fill="none" xmlns="http://www.w3.org/2000/svg">
<g clip-path="url(#clip0_654_1232)">
<path fill-rule="evenodd" clip-rule="evenodd" d="M80.5999 61.2C80.5999 61.2 83.2999 60.6 83.2999 56.4C83.2999 52.1 78.8999 51.1 76.8999 51C71.6999 51 66.5999 51 61.3999 51V69.1H68.6999V62C68.6999 62 69.5999 62 71.9999 62H72.2999C74.3999 62.1 74.3999 63.4 74.9999 64.4C75.5999 65.3 77.2999 69.2 77.2999 69.2H84.7999C84.7999 69.2 84.3999 68.2 83.2999 65.3C82.0999 62.4 80.5999 61.2 80.5999 61.2ZM73.0999 58.1H68.6999V54.9H72.9999C74.1999 54.9 75.7999 55 75.7999 56.4C75.7999 57.9 74.5999 58.1 73.0999 58.1Z" fill="#0152F9"/>
<path fill-rule="evenodd" clip-rule="evenodd" d="M137.3 51H121.1C120.3 51 116.7 51.7 116.7 56.5C116.7 58.2 116.7 61.9 116.7 63.6C116.7 68.4 120.3 69.1 121.1 69.1H137.3C138.1 69.1 141.7 68.4 141.7 63.6C141.7 61.9 141.7 58.2 141.7 56.5C141.8 51.7 138.1 51 137.3 51ZM135.1 63C135.1 64.3 134.8 65.2 133.2 65.2H125.3C123.7 65.2 123.4 64.2 123.4 63C123.4 62.6 123.4 57.5 123.4 57.1C123.4 55.8 123.7 54.9 125.3 54.9H133.2C134.8 54.9 135.1 55.9 135.1 57.1C135.1 57.6 135.1 62.6 135.1 63Z" fill="#0152F9"/>
<path fill-rule="evenodd" clip-rule="evenodd" d="M55.0999 51H38.7999C37.9999 51 34.3999 51.7 34.3999 56.5C34.3999 58.2 34.3999 61.9 34.3999 63.6C34.3999 68.4 37.9999 69.1 38.7999 69.1H54.9999C55.7999 69.1 59.3999 68.4 59.3999 63.6C59.3999 61.9 59.3999 58.2 59.3999 56.5C59.4999 51.7 55.8999 51 55.0999 51ZM52.8999 63C52.8999 64.3 52.5999 65.2 50.9999 65.2H42.9999C41.3999 65.2 41.0999 64.2 41.0999 63C41.0999 62.6 41.0999 57.5 41.0999 57.1C41.0999 55.8 41.3999 54.9 42.9999 54.9H50.8999C52.4999 54.9 52.7999 55.9 52.7999 57.1C52.8999 57.6 52.8999 62.6 52.8999 63Z" fill="#0152F9"/>
<path fill-rule="evenodd" clip-rule="evenodd" d="M161.6 51C160.8 51 143.6 51 143.6 51V69.1H150.1V54.9C150.1 54.9 155.8 54.9 157.4 54.9C159 54.9 159.3 55.9 159.3 57.1C159.3 58.4 159.3 69.1 159.3 69.1H165.9C165.9 69.1 165.9 61.3 165.9 56.5C166 51.7 162.4 51 161.6 51Z" fill="#0152F9"/>
<path d="M92.9001 51H86.1001V69.1H92.9001V51Z" fill="#0152F9"/>
<path fill-rule="evenodd" clip-rule="evenodd" d="M114.2 52C113.3 50.8 111.3 51 111.3 51H95.2002V54.9H106.6L96.8002 63.1L96.2002 63.7C96.2002 63.7 94.2002 65.6 96.0002 68C97.0002 69.2001 98.6002 69.1 98.6002 69.1H115.1V65.2H103.6L113.7 56.8C113.7 56.8 116.4 54.8 114.2 52Z" fill="#0152F9"/>
<path fill-rule="evenodd" clip-rule="evenodd" d="M167.5 51.1001V54.9001H175.5V69.2001H182.1V54.9001H190V51.1001H167.5Z" fill="#0152F9"/>
<path fill-rule="evenodd" clip-rule="evenodd" d="M25.7 51V58.1H16.7V51H10V69.1H16.7V62H25.7V69.1H32.5V51H25.7Z" fill="#0152F9"/>
</g>
<rect x="0.5" y="0.5" width="199" height="119" stroke="black"/>
<defs>
<clipPath id="clip0_654_1232">
<rect width="180" height="18.2" fill="white" transform="translate(10 51)"/>
</clipPath>
</defs>
</svg>
