<?xml version="1.0" encoding="utf-8"?>
<!-- Generator: Adobe Illustrator 24.0.1, SVG Export Plug-In . SVG Version: 6.00 Build 0)  -->
<svg version="1.1" id="Слой_1" xmlns="http://www.w3.org/2000/svg" xmlns:xlink="http://www.w3.org/1999/xlink" x="0px" y="0px"
	 viewBox="0 0 200 120" style="enable-background:new 0 0 200 120;" xml:space="preserve">
<style type="text/css">
	.st0{display:none;fill-rule:evenodd;clip-rule:evenodd;fill:#FFFFFF;}
	.st1{fill-rule:evenodd;clip-rule:evenodd;}
</style>
<g>
	<path class="st0" d="M-1150-1190h2500v2500h-2500V-1190z"/>
	<path class="st1" d="M39.2,39.4H15.8V47h12.8L14.9,74.8v8.7h24.3v-7.9H25.5L39.2,47L39.2,39.4L39.2,39.4z M56.9,75.4l1.1,8.1h9.7
		l-8.3-44H47.4c-2.7,14.7-5.4,29.4-8.1,44h9.6l1.2-8.1H56.9L56.9,75.4z M50.9,68l2.5-17.7L56,68H50.9z M93.9,39.4l0,44H83.3l-6.3-24
		v24l-9.3,0l0-44h10.5L85,64.1l0-24.6L93.9,39.4L93.9,39.4z M117.9,81.3c0.4-0.3,0.7-0.7,1-1.1s0.6-0.9,0.8-1.3
		c0.2-0.5,0.4-1,0.5-1.5c0.3-1.5,0.5-2.9,0.5-4.4l0.1-1.4V39.4h-9.6l0,32.1c0,0.7-0.1,1.4-0.1,2.1c0,0.2-0.1,0.4-0.1,0.6
		c0,0.2-0.1,0.4-0.1,0.6c-0.1,0.4-0.3,0.8-0.7,1.1c-0.3,0.3-0.8,0.5-1.2,0.6c-0.5,0.1-0.9,0.1-1.4,0c-0.2-0.1-0.5-0.1-0.7-0.3
		c-0.2-0.1-0.4-0.3-0.6-0.4c-0.3-0.4-0.5-0.7-0.6-1.1c-0.1-0.2-0.1-0.5-0.1-0.7c0-0.3-0.1-0.7-0.1-1.2c0-0.4,0-0.8,0-6.4
		c0-5.6,0-16.3,0-27h-9.4l0,32.1c0.1,2.3,0,4.6,1.2,7c0.4,0.8,1,1.6,1.6,2.2c0.8,0.8,1.7,1.5,2.7,2c0.5,0.3,1,0.5,1.9,0.7
		s2.1,0.5,3.3,0.6c1.2,0.1,2.5,0.1,3.7,0c1.2-0.1,2.4-0.4,3.3-0.6s1.3-0.4,1.7-0.6c0.4-0.2,0.9-0.4,1.3-0.7
		C117.1,81.9,117.5,81.6,117.9,81.3L117.9,81.3z M125.4,41.2c-0.4,0.3-0.8,0.7-1.2,1.1c-0.4,0.4-0.7,0.9-1,1.4
		c-0.3,0.5-0.5,1.1-0.7,1.6c-0.6,1.8-0.8,3.6-0.6,5.5c0.1,1.2,0.3,2.5,0.8,3.7c0.2,0.6,0.5,1.2,0.8,1.8c0.4,0.6,0.8,1.3,1.3,1.9
		c1,1.3,2,2.4,3.3,3.5c0.6,0.6,1.3,1.1,2,1.7c0.7,0.6,1.3,1.1,2,1.7c0.6,0.5,1.2,1,1.8,1.6c0.6,0.5,1.1,1.1,1.7,1.7
		c0.2,0.2,0.3,0.4,0.4,0.6c0.1,0.2,0.3,0.4,0.4,0.7s0.4,0.8,0.6,1.4c0.2,0.5,0.3,1.1,0.3,1.6c0.1,0.5,0.1,1.1,0,1.5
		c0,0.4-0.1,0.7-0.2,1c-0.1,0.3-0.3,0.5-0.5,0.8c-0.2,0.2-0.5,0.4-0.8,0.6c-0.6,0.3-1.4,0.4-2.2,0.3c-0.3-0.1-0.7-0.2-1-0.4
		c-0.5-0.2-0.8-0.6-1.1-1.1c-0.4-0.9-0.5-2-0.5-3v-4h-9.6c0,1.4,0,2.7,0,4.1c0,0.2,0,0.5,0,0.9c0,0.8,0.1,1.9,0.3,2.9
		c0.1,0.5,0.2,1,0.4,1.4c0.2,0.5,0.3,0.9,0.6,1.3c0.2,0.4,0.5,0.8,0.8,1.2c0.3,0.4,0.6,0.7,0.9,1c0.5,0.4,1,0.8,1.5,1.1
		c1.6,1,3.5,1.5,5.2,1.8c2.3,0.4,4.6,0.4,7,0c0.5-0.1,1.1-0.2,1.6-0.4c0.5-0.1,0.9-0.3,1.3-0.5c0.4-0.2,0.8-0.4,1.1-0.6
		c0.4-0.2,0.7-0.5,1.2-0.9c0.5-0.4,1.1-1.1,1.7-1.8c0.5-0.7,1-1.5,1.3-2.3c0.3-0.8,0.5-1.7,0.5-2.6c0.1-1.5,0.1-3-0.1-4.4
		c-0.1-0.8-0.3-1.6-0.5-2.3c-0.1-0.4-0.3-0.8-0.5-1.2c-0.6-1.1-1.2-2.2-2-3.2c-0.4-0.5-0.8-1-1.5-1.7c-0.6-0.7-1.5-1.5-2.3-2.3
		c-1.6-1.6-3.3-3-5-4.5c-0.9-0.8-1.7-1.7-2.4-2.5c-0.2-0.3-0.4-0.5-0.5-0.8c-0.4-0.7-0.7-1.5-0.7-2.3c0-0.4,0-0.8,0.1-1.2
		c0.1-0.3,0.1-0.6,0.2-0.8c0.1-0.2,0.3-0.4,0.4-0.6c0.2-0.2,0.4-0.3,0.6-0.4c0.8-0.4,1.7-0.5,2.5-0.3c0.3,0.1,0.6,0.2,0.8,0.4
		c0.5,0.3,0.8,0.9,1,1.5c0.2,0.7,0.3,1.3,0.3,2v3.5h9.1c0-0.7,0-1.4,0-2.2c0-0.7,0-1.4-0.1-2c-0.1-1.2-0.2-2-0.4-2.9
		c-0.2-0.9-0.5-1.8-1-2.7c-0.3-0.4-0.5-0.8-0.9-1.2c-0.6-0.7-1.3-1.2-2-1.7c-0.3-0.2-0.7-0.4-1-0.6c-0.3-0.2-0.7-0.3-1.5-0.6
		c-0.8-0.3-2.1-0.6-3.4-0.8c-1.3-0.2-2.6-0.2-4-0.1c-1.3,0.2-2.6,0.5-3.4,0.7c-0.8,0.2-1.1,0.4-1.4,0.5c-0.3,0.2-0.6,0.3-0.9,0.5
		C126,40.7,125.7,41,125.4,41.2L125.4,41.2z M147.8,71.6c0,1.5,0,3,0.3,4.5c0.1,0.5,0.2,1,0.4,1.4c0.2,0.5,0.3,0.9,0.6,1.3
		c0.2,0.4,0.5,0.8,0.8,1.2s0.6,0.7,0.9,1c0.5,0.4,1,0.8,1.5,1.1c1.6,1,3.5,1.5,5.2,1.8c2.3,0.4,4.6,0.4,7,0c0.5-0.1,1.1-0.2,1.6-0.4
		c0.5-0.1,0.9-0.3,1.3-0.5c0.4-0.2,0.8-0.4,1.1-0.6s0.7-0.5,1.2-0.9c0.5-0.4,1.1-1.1,1.7-1.8c0.5-0.7,1-1.5,1.2-2.3
		c0.3-0.8,0.4-1.7,0.5-2.4c0.1-0.7,0.1-1.2,0.1-1.7c0-0.5,0-1,0-1.5c0-0.5-0.1-1-0.1-1.4c-0.1-0.8-0.3-1.6-0.5-2.3
		c-0.1-0.4-0.3-0.8-0.5-1.2c-0.6-1.1-1.2-2.2-2-3.2c-0.5-0.6-0.9-1.1-1.5-1.7c-0.8-0.8-1.5-1.6-2.3-2.3c-1.6-1.6-3.3-3-5-4.5
		c-1.1-1-2.2-2.2-2.9-3.3c-0.7-1.1-0.9-2.4-0.7-3.7c0-0.2,0.1-0.5,0.2-0.7c0.1-0.2,0.3-0.4,0.4-0.6c0.2-0.2,0.4-0.3,0.6-0.4
		c0.8-0.4,1.7-0.5,2.5-0.3c0.3,0.1,0.6,0.2,0.8,0.4c0.5,0.3,0.8,0.9,1,1.5c0.2,0.7,0.3,1.3,0.3,2v3.5h9.1c0-0.7,0-1.4,0-2.2
		c0-0.7,0-1.4-0.1-2c-0.1-1.2-0.2-2-0.4-2.9c-0.2-0.9-0.5-1.8-1-2.7c-0.3-0.4-0.5-0.8-0.9-1.2c-0.6-0.7-1.3-1.2-2-1.7
		c-0.3-0.2-0.7-0.4-1-0.6c-0.3-0.2-0.7-0.3-1.5-0.6c-0.8-0.3-2.1-0.6-3.4-0.8c-1.3-0.2-2.6-0.2-4-0.1c-1.3,0.2-2.6,0.5-3.4,0.7
		c-0.8,0.2-1.1,0.4-1.4,0.5c-0.3,0.2-0.6,0.3-0.9,0.5c-0.3,0.2-0.6,0.4-0.9,0.7c-0.4,0.3-0.8,0.7-1.2,1.1c-0.4,0.4-0.7,0.9-1,1.4
		c-0.3,0.5-0.5,1.1-0.7,1.6c-0.6,1.8-0.8,3.6-0.6,5.5c0.1,1.2,0.3,2.5,0.8,3.7c0.2,0.6,0.5,1.2,0.8,1.8c0.4,0.6,0.8,1.3,1.3,1.9
		c1,1.3,2,2.4,3.3,3.5c0.6,0.6,1.3,1.1,2,1.7c0.7,0.6,1.3,1.1,2,1.7c0.6,0.5,1.2,1,1.8,1.6c0.6,0.5,1.1,1.1,1.5,1.5
		c0.3,0.4,0.5,0.6,0.6,0.8c0.1,0.2,0.3,0.4,0.4,0.7c0.2,0.3,0.4,0.8,0.6,1.4c0.3,1,0.5,2.1,0.4,3.1c0,0.4-0.1,0.7-0.2,1
		c-0.3,0.6-0.7,1-1.2,1.3c-0.7,0.3-1.5,0.4-2.2,0.3c-0.3-0.1-0.7-0.2-1-0.4c-0.2-0.1-0.4-0.3-0.6-0.5c-0.2-0.2-0.3-0.4-0.4-0.6
		c-0.4-0.9-0.5-2-0.5-3v-4h-9.6L147.8,71.6L147.8,71.6L147.8,71.6z M183.7,39.4h-9.5v44h9.5V39.4L183.7,39.4z"/>
</g>
</svg>
