<svg width="200" height="120" viewBox="0 0 200 120" fill="none" xmlns="http://www.w3.org/2000/svg">
<g clip-path="url(#clip0_654_1039)">
<mask id="mask0_654_1039" style="mask-type:luminance" maskUnits="userSpaceOnUse" x="6" y="45" width="188" height="35">
<path d="M193.295 45.6218H6.09375V79.898H193.295V45.6218Z" fill="white"/>
</mask>
<g mask="url(#mask0_654_1039)">
<path fill-rule="evenodd" clip-rule="evenodd" d="M141.643 45.6218C151.085 45.6218 158.74 53.2949 158.74 62.7599C158.74 72.2251 151.085 79.898 141.643 79.898C132.2 79.898 124.545 72.2249 124.545 62.7599C124.545 53.2947 132.2 45.6218 141.643 45.6218ZM15.6589 46.6267C6.48414 46.6267 6.09375 45.9531 6.09375 54.4261L6.33963 54.4263L6.33914 54.4283C15.8681 54.4283 25.3973 54.4283 34.9264 54.4283V46.6267C28.5039 46.6267 22.0814 46.6267 15.6589 46.6267ZM15.9846 58.8591H30.1113V66.6607H15.9846V78.8931H6.09387V58.8591H15.9846ZM96.8664 78.8931H75.6191V71.12H94.2665C97.1723 71.12 97.174 66.6947 94.2665 66.6941C90.9007 66.6933 87.6073 66.6954 84.2563 66.6601C71.1597 66.5222 71.2571 46.6266 84.3514 46.6266H105.634V54.3996H86.9514C84.0456 54.3996 84.0445 58.8249 86.9514 58.8255C90.2565 58.8263 93.5613 58.8591 96.8664 58.8591C110.023 58.8591 110.023 78.8931 96.8664 78.8931ZM51.7347 78.8931C44.908 78.8931 39.374 73.3457 39.374 66.5028V46.6266H49.2647C49.2647 73.572 46.7437 71.0915 60.3511 71.0915H70.2419V78.8931H51.7347ZM60.3511 66.6607V46.6267H70.2419V66.6607H60.3511ZM162.426 46.6267H180.934C187.76 46.6267 193.295 52.1741 193.295 59.017V78.8932H183.403C183.403 51.929 185.917 54.4283 172.317 54.4283H162.426V46.6267ZM172.317 58.8591V78.8931H162.426V58.8591H172.317ZM117.184 46.6267H111.023V78.8932H120.914V50.3648C120.914 48.3002 119.244 46.6267 117.184 46.6267ZM141.032 53.8489C149.512 53.8489 149.114 59.6108 149.114 64.7949C149.114 74.0001 134.172 74.0001 134.172 64.7949C134.172 61.0589 133.738 53.8489 141.032 53.8489Z" fill="#6AD400"/>
</g>
</g>
<rect x="0.5" y="0.5" width="199" height="119" stroke="black"/>
<defs>
<clipPath id="clip0_654_1039">
<rect width="187.662" height="34.2761" fill="white" transform="translate(6.09424 45.6208)"/>
</clipPath>
</defs>
</svg>
