<svg width="200" height="120" viewBox="0 0 200 120" fill="none" xmlns="http://www.w3.org/2000/svg">
<path fill-rule="evenodd" clip-rule="evenodd" d="M72.1513 79H98.9508V41H72.1513V79ZM77.4494 48.0588H84.4214V66.7028H93.8249V72.0542H77.4494V48.0542V48.0588ZM43.0814 79H69.8923V41H43.0814V79ZM47.1524 48.0588H65.787V53.4101H59.8697V72.0542H53.0696V53.4101H47.1524V48.0542V48.0588ZM14 79H40.7994V41H14V79ZM23.9881 48.0588H30.6048C34.9432 55.4387 37.8391 63.583 39.1367 72.0542H32.1759C31.8479 70.6895 31.6142 69.3037 31.4764 67.9067H24.6877C25.0317 66.3514 25.3872 64.7961 25.9032 62.9009H30.0888C29.4178 60.4715 28.5432 58.1036 27.4742 55.8226C26.2821 58.3281 25.2928 60.926 24.5157 63.591C23.653 66.3663 22.956 69.1908 22.4285 72.0496H15.6284C16.7866 64.0496 19.6419 54.8284 23.9881 48.0542V48.0588ZM101.175 79H127.986V41H101.175V79ZM111.232 48.0588H117.849C122.425 55.6118 124.489 63.591 126.392 72.0542H119.42C119.083 70.6915 118.849 69.305 118.721 67.9067H111.932C112.104 66.3514 112.631 64.7961 112.975 62.9009H117.333C116.676 60.4425 115.741 58.0676 114.546 55.8226C112.31 61.0266 110.674 66.4712 109.673 72.0496H102.701C104.467 63.8906 106.691 55.1394 111.232 48.0542V48.0588ZM159.201 41V79H186V41H159.201ZM181.769 53.4101H176.012V72.0542H169.051V53.4101H163.306V48.0542H181.769V53.4055V53.4101ZM130.234 79H157.033V41H130.234V79ZM131.954 48.0588H138.926C142.452 49.6931 145.641 51.9768 148.329 54.7915V48.0542H155.29V72.0496H148.329V64.2811C145.779 60.9142 142.581 58.0965 138.926 55.9954V72.0496H131.954V48.0542V48.0588Z" fill="black"/>
<rect x="0.5" y="0.5" width="199" height="119" stroke="black"/>
</svg>
