<?xml version="1.0" encoding="utf-8"?>
<!-- Generator: Adobe Illustrator 24.0.1, SVG Export Plug-In . SVG Version: 6.00 Build 0)  -->
<svg version="1.1" id="Слой_1" xmlns="http://www.w3.org/2000/svg" xmlns:xlink="http://www.w3.org/1999/xlink" x="0px" y="0px"
	 viewBox="0 0 200 120" style="enable-background:new 0 0 200 120;" xml:space="preserve">
<style type="text/css">
	.st0{display:none;fill-rule:evenodd;clip-rule:evenodd;fill:#FFFFFF;}
	.st1{fill-rule:evenodd;clip-rule:evenodd;}
	.st2{fill-rule:evenodd;clip-rule:evenodd;fill:#FFFFFF;}
</style>
<g>
	<path class="st0" d="M11.7-28.3h176.7v176.7H11.7V-28.3z"/>
	<path class="st1" d="M87.8,49.2c-2.2,1.1-4.4,2.2-6.7,3.2l-1.8-3.7l6.7-3.3C86.6,46.7,87.2,48,87.8,49.2L87.8,49.2z M47,57.2
		L47,57.2l6.8-10.6h16.7v4.1h-3.1l0,18.6l3.2,0v4.1H49.7v-4.1H53l0-12.4l0,0L42,74.3h0L29,57.3l-0.1,0l0,12l3.6,0v4.1H20.3v-4.1h3.6
		l0-18.6l-3.6,0v-4.1h18.5L47,57.2z M144.4,69.4l3.4,0v4.1h-21v-4.1h3.5l0-18.6l-3.5,0v-4.1h17.5L144.4,69.4L144.4,69.4z M124.4,58
		c1.4,1.9,1.7,4.5,1.4,7.1h-17.4c-0.3,2,0.6,3.9,2.4,4.9c1.3,0.8,3.4,0.6,4.6-0.3c0.9-0.7,1.5-1.7,1.7-2.8h8.1
		c-1.3,3.1-4.5,5.8-7.6,6.6c-5.4,1.5-12.2,1.3-17-1.2c-3.7-1.8-5.9-5.5-5.5-9.7c0.1-3.7,3.2-7,6.5-8.2c5.8-2.2,13.8-2.4,19.3,0.6
		C122.2,55.7,123.5,56.7,124.4,58L124.4,58z M177.3,57.1c2.1,2.1,2.6,5,2.2,8h-17.4c-0.3,2,0.5,3.7,2.2,4.8c1.3,0.8,3.3,0.8,4.6-0.1
		c0.9-0.7,1.6-1.7,1.9-2.8l8.2,0c-1.4,3-4.4,5.7-7.6,6.5c-5.4,1.6-12.4,1.4-17.3-1.3c-3.8-1.9-5.8-5.9-5.2-10.2
		c0.3-3.7,3.8-6.9,7.2-7.9c6.3-2.1,14.9-2.2,20.3,1.9L177.3,57.1L177.3,57.1z M90.8,69.4l3.6,0v4.1H73.2v-4.1h3.3l0-11.9l-3.3,0
		v-4.1h17.6V69.4z"/>
	<path class="st2" d="M166.4,56.9c0.8,1,0.5,1.9,0.5,4.4h-4.7l0-3.4c0.1-0.7,0.7-1.3,1.3-1.6C164.5,55.9,165.7,56.1,166.4,56.9z
		 M112.6,56.9c0.8,1,0.5,1.9,0.5,4.4h-4.7l0-3.4c0.1-0.7,0.7-1.3,1.3-1.6C110.7,55.9,111.9,56.1,112.6,56.9z"/>
</g>
</svg>
