<?xml version="1.0" encoding="utf-8"?>
<!-- Generator: Adobe Illustrator 24.0.1, SVG Export Plug-In . SVG Version: 6.00 Build 0)  -->
<svg version="1.1" id="Слой_1" xmlns="http://www.w3.org/2000/svg" xmlns:xlink="http://www.w3.org/1999/xlink" x="0px" y="0px"
	 viewBox="0 0 200 120" style="enable-background:new 0 0 200 120;" xml:space="preserve">
<style type="text/css">
	.st0{fill:none;}
	.st1{fill-rule:evenodd;clip-rule:evenodd;}
	.st2{fill-rule:evenodd;clip-rule:evenodd;fill:#0D0909;}
</style>
<g id="Layer_x0020_1">
	<polygon class="st0" points="-14.9,104 216.2,104 216.2,18.8 -14.9,18.8 	"/>
	<path class="st1" d="M28.4,47.6c1.7,0,3.6,0.2,4.5,0.6c1.1,0.5,1.6,1.7,1.6,3.1v4.8c0,1.5-0.5,2.2-1.6,2.8
		c-0.9,0.5-2.8,0.6-4.5,0.6H13.6v-12C18.6,47.6,23.5,47.6,28.4,47.6z M163.3,71.5L163.3,71.5c0,1.4-0.5,2-1.5,2h-1
		c-1,0-1.5-0.6-1.5-2V53.1c0-1.4,0.5-2,1.5-2h1c1,0,1.5,0.6,1.5,2V71.5z M52.7,51.6L52.7,51.6c0,1.4-0.5,2-1.5,2h-1.8
		c-3,0-4.5,1.1-4.5,3.1v14.7c0,1.4-0.5,2-1.5,2h-1.1c-1,0-1.5-0.6-1.5-2L41,56.7c0-2.8,1-4.8,3-6.1c1.5-1.1,3.4-1.5,5.7-1.5h1.6
		c1,0,1.5,0.6,1.5,1.9V51.6z M78.9,61.8L78.9,61.8c0,1.5-0.4,2.2-1.2,2.2H58.1c0,3.3,1.7,5,5.1,5h2.9c1.1,0,1.5,0.6,1.5,2v0.4
		c0,1.4-0.4,2-1.5,2h-2.5c-2.6,0-4.6-0.4-6.3-1.3c-2.2-1.4-3.4-3.4-3.4-6.4v-9c0-2.8,1.2-4.9,3.4-6.3c1.7-1,3.7-1.5,6.1-1.5h7.5
		c1.9,0,3.7,0.5,5.1,1.4c1.9,1.3,2.9,3.1,2.9,5.4V61.8z M75.1,59.3L75.1,59.3v-3c0-1-0.9-1.6-2.4-2.1c-1.1-0.3-2.1-0.5-3.1-0.5h-5.8
		c-4,0-6,1-6,2.9v2.8H75.1z M90,53.6L90,53.6c-1.5,0-2.5,0-2.7,0.1c-1.4,0.2-2,0.7-2,1.6v1.3c0,1,0.4,1.5,1.3,1.8
		c0.7,0.3,1.9,0.4,3.6,0.4h6.6c4.9,0,7.4,2.1,7.4,6.6v1.1c0,4.6-2.7,6.9-7.9,6.9H82.9c-1,0-1.4-0.6-1.4-2v-0.4c0-1.4,0.4-2,1.4-2
		h13.6c2.5,0,3.6-0.9,3.6-2.5v-1c0-1.4-1.1-2.1-3.4-2.1h-6.4c-2.5,0-4.4-0.4-5.8-1.1c-2-1-3.1-2.9-3.1-5.7v-1.4
		c0-4.2,2.9-6.2,8.5-6.2h17.7v-4.1c0-1.3,0.4-1.9,1.4-1.9h1.1c1,0,1.5,0.6,1.5,1.9v4.3h6.3c1,0,1.5,0.6,1.5,1.9v0.5
		c0,1.3-0.5,1.8-1.5,1.8h-6.3v17.8c0,1.4-0.5,2-1.5,2H109c-1,0-1.4-0.6-1.4-2V53.6H90z M126.5,71.5L126.5,71.5c0,1.4-0.4,2-1.4,2
		H124c-1,0-1.5-0.6-1.5-2V53.1c0-1.4,0.5-2,1.5-2h1.1c1,0,1.4,0.6,1.4,2V71.5z M155.3,72.8L155.3,72.8c0,2.8-1.3,4.3-3.8,5.6
		c-1.8,1-4.1,1.3-6.5,1.3h-1.7c-1,0-1.4-0.6-1.4-1.9v-0.5c0-1.4,0.4-2,1.4-2h2.9c0.7,0,2.5-0.1,3.3-0.5c1-0.3,1.8-0.7,1.8-1.3h-10.9
		c-2.6,0-4.6-0.4-6.3-1.3c-2.5-1.3-3.6-3.3-3.6-6.2v-9.1c0-2.6,1-4.5,2.9-5.9c1.7-1.2,3.6-1.7,6-1.7h5.9c2.6,0,4.7,0.4,6.4,1.4
		c2.6,1.3,3.7,3.4,3.7,6.3V72.8z M151.3,68.9L151.3,68.9V57.1c0-1.3-0.7-2.2-2.2-2.8c-1.1-0.4-2.1-0.6-3.3-0.6h-6.3
		c-1.4,0-2.5,0.1-3.1,0.3c-1.4,0.4-2,1.3-2,2.7v9.1c0,2.1,2,3.2,5.9,3.2H151.3z M191.8,65.9L191.8,65.9c0,2.9-1.1,4.9-3.2,6.3
		c-1.4,0.9-3.3,1.3-5.6,1.3h-6.6c-4.3,0-7.1-1.4-8.4-4.3c-0.5-1.1-0.7-2.1-0.7-3.3v-9c0-2,0.6-3.7,2-5.1c1.7-1.8,4.1-2.7,7.2-2.7
		h6.6c5.9,0,8.8,2.6,8.8,7.8V65.9z M187.8,65.9L187.8,65.9v-9.4c0-1.9-1.6-2.9-4.8-2.9h-6.5c-1.2,0-2.2,0.2-3.1,0.5
		c-1.5,0.6-2.1,1.5-2.1,2.8v9c0,1.2,0.6,2,2.1,2.6c1,0.3,1.9,0.5,3.1,0.5h6.5c1,0,1.9-0.2,2.9-0.5C187.1,67.8,187.8,67.1,187.8,65.9
		z M38.6,51.4L38.6,51.4c0-3.1-1.1-5.4-3.4-6.8c-1.6-1-4.5-1.4-7.1-1.4H10.9c-1,0-1.4,0.6-1.4,1.9v26.4c0,1.4,0.4,2,1.4,2h1.3
		c1,0,1.5-0.6,1.5-2V64h14.5c2.6,0,5.4-0.4,7.1-1.5c2.4-1.4,3.4-3.1,3.4-6.2V51.4z"/>
	<path class="st2" d="M124.2,44h0.6c1.2,0,2.1,1,2.1,2.1l0,0c0,1.2-1,2.1-2.1,2.1h-0.6c-1.2,0-2.1-1-2.1-2.1l0,0
		C122.1,45,123,44,124.2,44z"/>
	<path class="st2" d="M161.1,44h0.6c1.2,0,2.1,1,2.1,2.1l0,0c0,1.2-1,2.1-2.1,2.1h-0.6c-1.2,0-2.1-1-2.1-2.1l0,0
		C158.9,45,159.9,44,161.1,44z"/>
</g>
</svg>
