<svg width="200" height="120" viewBox="0 0 200 120" fill="none" xmlns="http://www.w3.org/2000/svg">
<path d="M23.9943 62.7747V66.6923H32.7343V71.5577H19V49.4423H32.5783V54.3077H23.9943V57.9725H31.7979V62.7747H23.9943Z" fill="#3AA0FF"/>
<path d="M55.2099 71.5577H49.7474L48.6549 68.0824H40.5391L39.4466 71.5577H33.9841L41.4131 49.4423H47.7809L55.2099 71.5577ZM44.597 55.2239L42.0374 63.3434H47.1566L44.597 55.2239Z" fill="#3AA0FF"/>
<path d="M64.2633 72C62.0783 72 60.2366 71.5261 58.7383 70.5783C57.24 69.6094 56.1684 68.2614 55.5233 66.5343L59.8308 64.0069C60.7048 66.0499 62.2343 67.0714 64.4194 67.0714C66.3963 67.0714 67.3847 66.4712 67.3847 65.2706C67.3847 64.5966 67.0622 64.0911 66.4171 63.7541C65.7512 63.3539 64.565 62.9222 62.8586 62.4588C61.1106 61.9744 59.6331 61.2793 58.4262 60.3736C57.0944 59.2784 56.4285 57.7303 56.4285 55.7294C56.4285 53.6864 57.1464 52.054 58.5823 50.8324C60.0389 49.6108 61.7661 49 63.7639 49C65.5535 49 67.135 49.4318 68.5084 50.2953C69.8819 51.1378 70.964 52.37 71.7547 53.9918L67.5408 56.4876C66.75 54.7816 65.491 53.9286 63.7639 53.9286C63.0355 53.9286 62.4633 54.0865 62.0471 54.4025C61.6309 54.7184 61.4228 55.1186 61.4228 55.603C61.4228 56.1296 61.6725 56.6035 62.1719 57.0247C62.713 57.446 63.7743 57.8883 65.3558 58.3516L67.3847 59.0151C67.905 59.1836 68.5084 59.4679 69.1952 59.8681C69.9443 60.2473 70.5062 60.658 70.8807 61.1003C71.8796 62.1955 72.379 63.5646 72.379 65.2074C72.379 67.2926 71.6299 68.9565 70.1316 70.1992C68.6333 71.3997 66.6772 72 64.2633 72Z" fill="#3AA0FF"/>
<path d="M72.5217 49.4423H88.7532V54.3077H83.1346V71.5577H78.1403V54.3077H72.5217V49.4423Z" fill="#3AA0FF"/>
<path d="M104.205 49.4423V54.3077H95.9337V58.5728H104.049V63.4382H95.9337V71.5577H90.9394V49.4423H104.205Z" fill="#3AA0FF"/>
<path d="M124.012 71.5577H118.643L114.523 64.2912H112.151V71.5577H107.156V49.4423H115.896C117.977 49.4423 119.746 50.1795 121.203 51.6538C122.659 53.1282 123.388 54.9185 123.388 57.0247C123.388 58.3516 123.013 59.5943 122.264 60.7527C121.536 61.9112 120.568 62.8063 119.361 63.4382L124.012 71.5577ZM115.896 54.1813H112.151V59.8681H115.896C116.583 59.8681 117.166 59.5943 117.644 59.0467C118.144 58.4991 118.393 57.8251 118.393 57.0247C118.393 56.2244 118.144 55.5504 117.644 55.0027C117.166 54.4551 116.583 54.1813 115.896 54.1813Z" fill="#3AA0FF"/>
<path d="M144.534 68.6827C142.329 70.8942 139.644 72 136.481 72C133.318 72 130.634 70.8942 128.428 68.6827C126.222 66.4712 125.119 63.7436 125.119 60.5C125.119 57.2564 126.222 54.5288 128.428 52.3173C130.634 50.1058 133.318 49 136.481 49C139.644 49 142.329 50.1058 144.534 52.3173C146.74 54.5288 147.843 57.2564 147.843 60.5C147.843 63.7436 146.74 66.4712 144.534 68.6827ZM130.113 60.5C130.113 62.4377 130.717 64.0174 131.924 65.239C133.131 66.4606 134.65 67.0714 136.481 67.0714C138.292 67.0714 139.8 66.4606 141.007 65.239C142.235 63.9963 142.849 62.4167 142.849 60.5C142.849 58.5833 142.235 57.0037 141.007 55.761C139.8 54.5394 138.292 53.9286 136.481 53.9286C134.65 53.9286 133.131 54.5394 131.924 55.761C130.717 56.9826 130.113 58.5623 130.113 60.5Z" fill="#3AA0FF"/>
<path d="M157.51 72C155.325 72 153.483 71.5261 151.985 70.5783C150.487 69.6094 149.415 68.2614 148.77 66.5343L153.078 64.0069C153.952 66.0499 155.481 67.0714 157.666 67.0714C159.643 67.0714 160.632 66.4712 160.632 65.2706C160.632 64.5966 160.309 64.0911 159.664 63.7541C158.998 63.3539 157.812 62.9222 156.105 62.4588C154.357 61.9744 152.88 61.2793 151.673 60.3736C150.341 59.2784 149.675 57.7303 149.675 55.7294C149.675 53.6864 150.393 52.054 151.829 50.8324C153.286 49.6108 155.013 49 157.011 49C158.8 49 160.382 49.4318 161.755 50.2953C163.129 51.1378 164.211 52.37 165.002 53.9918L160.788 56.4876C159.997 54.7816 158.738 53.9286 157.011 53.9286C156.282 53.9286 155.71 54.0865 155.294 54.4025C154.878 54.7184 154.67 55.1186 154.67 55.603C154.67 56.1296 154.919 56.6035 155.419 57.0247C155.96 57.446 157.021 57.8883 158.603 58.3516L160.632 59.0151C161.152 59.1836 161.755 59.4679 162.442 59.8681C163.191 60.2473 163.753 60.658 164.128 61.1003C165.126 62.1955 165.626 63.5646 165.626 65.2074C165.626 67.2926 164.877 68.9565 163.378 70.1992C161.88 71.3997 159.924 72 157.51 72Z" fill="#3AA0FF"/>
<path d="M165.769 49.4423H182V54.3077H176.381V71.5577H171.387V54.3077H165.769V49.4423Z" fill="#3AA0FF"/>
<rect x="0.5" y="0.5" width="199" height="119" stroke="black"/>
</svg>
