<?xml version="1.0" encoding="utf-8"?>
<!-- Generator: Adobe Illustrator 24.0.1, SVG Export Plug-In . SVG Version: 6.00 Build 0)  -->
<svg version="1.1" id="logo-two" xmlns="http://www.w3.org/2000/svg" xmlns:xlink="http://www.w3.org/1999/xlink" x="0px" y="0px"
	 viewBox="0 0 200 120" style="enable-background:new 0 0 200 120;" xml:space="preserve">
<style type="text/css">
	.st0{fill:#FF4D4F;}
	.st1{fill:#4E4F51;}
</style>
<g>
	<path class="st0" d="M39.1,59.8l12.3,2.9c0.8,0.2,1.3,1,1.1,1.9c-0.1,0.4-0.3,0.7-0.6,0.9l-10.2,7.3c-1.4,1-3.1,1.3-4.8,0.9
		l-9.7-2.3c-0.8-0.2-1.4-1-1.2-1.9c0.1-0.4,0.3-0.7,0.6-0.9L39.1,59.8z M36.5,40.8l14.9,3.5c1.3,0.3,2.1,1.6,1.8,2.9
		c-0.1,0.6-0.5,1.1-0.9,1.4l-19,13.6l-18.9-4.5c-1.3-0.3-2.1-1.6-1.8-2.9c0.1-0.6,0.5-1.1,0.9-1.4l15.7-11.2
		C31.3,40.7,34,40.2,36.5,40.8"/>
</g>
<g>
	<path class="st1" d="M78.2,55.4c4.3,1,8.4,2.8,8.4,7.1c0,2.4-1.9,7.5-10,7.5c-5,0-8.6-2.4-10.4-4.4l3.9-4c2.1,2,3.7,3.1,6.3,3.2
		c2.5,0.1,4.1-1,4.1-2.4c0-1.6-2.5-2-5-2.6c-3.7-0.9-8.6-2.4-8.6-7.2c0-2.3,1.2-4.1,3-5.5c1.8-1.4,4.1-2,6.8-2
		c3.7,0,7.1,1.6,9.4,4.5l-4.4,3.4c-1.2-1.4-2.9-2.7-5.1-2.7s-3.8,0.8-3.8,2.1C72.9,54.1,75.7,54.8,78.2,55.4L78.2,55.4z M88.6,69.4
		V45.9h6.1v23.5H88.6z M116.4,45.9h5.9v22.4c0,3.6-1.2,6.4-3.6,8.3s-5.3,2.9-8.7,2.9c-5.1,0-9.1-2-11.1-5.7l5.2-3
		c1.2,2.2,3.2,3.3,6.2,3.3c3.8,0,6.2-2.1,6.2-5.8v-2.5c-1.8,2.4-4.3,3.6-7.5,3.6c-3.2,0.1-6.2-1.2-8.4-3.5c-2.2-2.3-3.4-5.4-3.3-8.6
		c-0.1-3.2,1.2-6.2,3.4-8.5c2.1-2.3,5.2-3.6,8.3-3.5c3.2,0,5.7,1.2,7.5,3.6L116.4,45.9L116.4,45.9z M114.5,52.7
		c-1.2-1.2-2.8-1.8-4.7-1.8c-1.8-0.1-3.5,0.6-4.7,1.8c-1.2,1.2-1.9,2.9-1.8,4.6c0,3.8,2.8,6.4,6.6,6.4c3.8,0,6.6-2.7,6.6-6.4
		C116.5,55.5,115.8,53.9,114.5,52.7L114.5,52.7z M160.2,54.9v14.5h-6.1V55.3c0-2.8-1.5-4.5-4-4.5c-2.8,0-4.4,1.9-4.4,5.3v13.2h-6.1
		V55.3c0-2.8-1.5-4.5-4-4.5c-2.7,0-4.4,1.9-4.4,5.3v13.2h-6.1V45.9h6.1v2.5c1.4-2.1,3.6-3.2,6.5-3.2c2.9,0,5,1.1,6.4,3.4
		c1.6-2.3,3.9-3.4,7-3.4C156.7,45.2,160.2,49,160.2,54.9L160.2,54.9z M181.4,45.9h6.1v23.5h-6.1v-2.8c-1.8,2.3-4.4,3.4-7.7,3.4
		c-3.2,0-5.8-1.2-8.1-3.6s-3.3-5.4-3.3-8.8s1.1-6.4,3.3-8.8c2.2-2.4,4.9-3.6,8.1-3.6c3.3,0,5.8,1.1,7.7,3.4V45.9z M174.8,64.3
		c1.7,0.1,3.4-0.6,4.7-1.8c1.3-1.3,1.9-3,1.9-4.8c0-1.9-0.6-3.5-1.9-4.8c-2.6-2.5-6.7-2.5-9.3,0c-1.2,1.2-1.8,2.8-1.8,4.8
		c-0.1,1.8,0.6,3.5,1.8,4.8C171.4,63.6,173.1,64.3,174.8,64.3L174.8,64.3z"/>
</g>
</svg>
