<svg width="200" height="120" viewBox="0 0 200 120" fill="none" xmlns="http://www.w3.org/2000/svg">
<path d="M97.3576 64.3557L97.2451 64.581L97.058 64.9056L96.9205 65.0936L96.7703 65.2803L96.5955 65.4806L96.3829 65.6809L96.2704 65.7806L96.1576 65.8803L96.0205 65.9796L95.8953 66.0674L95.7451 66.1548L95.6076 66.2427L95.4455 66.3178L95.283 66.3925L95.1078 66.4544L94.9325 66.5168L94.7458 66.5669L94.5451 66.6046L94.3453 66.642L94.1331 66.6674L93.9205 66.6925H93.4202L93.1707 66.6674L92.92 66.6297L92.6955 66.5919L92.4702 66.5295L92.2453 66.4676L92.0454 66.3802L91.8456 66.2923L91.6584 66.1935L91.4832 66.0933L91.3207 65.9686L91.1582 65.8434L91.008 65.7186L90.8709 65.5807L90.7334 65.4305L90.6087 65.2803L90.4958 65.1178L90.3834 64.9676L90.2832 64.7923L90.1962 64.6294L90.1084 64.455L90.0337 64.2797L89.9713 64.1049L89.9094 63.9301L89.8593 63.7549L89.8092 63.5805L89.7719 63.3925L89.7469 63.2185L89.7214 63.0433L89.6959 62.8684V62.7059L89.6836 62.5307L89.6959 62.2561L89.7087 61.9816L89.7337 61.7198L89.7838 61.4567L89.8339 61.1945L89.8839 60.9318L89.959 60.6696L90.046 60.4192L90.1334 60.182L90.2336 59.944L90.3464 59.7064L90.4716 59.4815L90.5964 59.257L90.7334 59.0444L90.8836 58.8437L91.0338 58.6439L91.2087 58.4567L91.3712 58.2815L91.5583 58.1071L91.7459 57.9442L91.9461 57.7939L92.1468 57.6565L92.359 57.5317L92.5839 57.4193L92.8088 57.3187L93.0337 57.219L93.2836 57.1439L93.5212 57.0815L93.772 57.0319L94.0338 56.9945L94.296 56.9686L94.5714 56.9563L94.8583 56.9686L95.1332 56.9814L95.3836 57.0187L95.6335 57.0565L95.8711 57.1184L96.096 57.1808L96.2959 57.2555L96.4966 57.331L96.6833 57.4188L96.8585 57.5177L97.0211 57.6183L97.184 57.718L97.3206 57.8304L97.4585 57.9437L97.5833 58.0566L97.6962 58.1818L97.8964 58.4194L98.0708 58.6574L98.2083 58.8951L98.308 59.1072L98.3959 59.3075L98.4583 59.4828L98.4956 59.6202L98.5206 59.7204H103.133L103.146 59.5451L103.157 59.358V59.1454L103.146 58.921L103.12 58.6829L103.082 58.4326L103.02 58.1703L102.957 57.8962L102.87 57.6212L102.771 57.3336L102.658 57.0454L102.52 56.7463L102.358 56.4582L102.183 56.1582L101.996 55.8705L101.771 55.5828L101.533 55.2947L101.271 55.0201L100.983 54.7452L100.671 54.4834L100.334 54.233L99.9714 54.0085L99.5836 53.7832L99.1715 53.5834L98.7213 53.3962L98.2465 53.2214L97.7462 53.0835L97.2082 52.9588L96.646 52.8595L96.0455 52.7839L95.4082 52.7458L94.7458 52.7343L94.2456 52.7458L93.7584 52.7839L93.2836 52.8336L92.8088 52.921L92.3335 53.0339L91.8833 53.159L91.4331 53.3088L90.9961 53.4841L90.5709 53.6839L90.1585 53.8965L89.7587 54.1214L89.3709 54.3836L88.9962 54.6467L88.6339 54.9336L88.2838 55.2467L87.946 55.5713L87.6337 55.9091L87.3337 56.2715L87.046 56.6461L86.7838 57.034L86.5339 57.4333L86.2963 57.8461L86.0964 58.2832L85.8957 58.7207L85.7332 59.1832L85.583 59.6465L85.4455 60.1337L85.3458 60.6208L85.2579 61.1211L85.196 61.6337L85.1574 62.1462L85.1459 62.6834L85.1574 63.1086L85.1832 63.5461L85.2206 63.9585L85.2825 64.3718L85.3572 64.7711L85.4574 65.1708L85.5571 65.5582L85.6823 65.9338L85.8325 66.2961L85.9827 66.6585L86.1571 67.009L86.3574 67.3336L86.5576 67.6591L86.7825 67.9714L87.0206 68.2714L87.2828 68.5463L87.5446 68.8204L87.8344 69.0818L88.1348 69.3199L88.4595 69.5448L88.7845 69.7569L89.1346 69.9576L89.5097 70.1329L89.8852 70.2954L90.2726 70.4325L90.6846 70.5695L91.1098 70.6692L91.5473 70.7566L92.0094 70.8317L92.4719 70.8818L92.9594 70.9196H93.4597L94.0712 70.9069L94.6588 70.8695L95.2215 70.7944L95.7595 70.6947L96.2594 70.5695L96.7469 70.4325L97.1967 70.2691L97.6342 70.0824L98.0339 69.8825L98.4222 69.6576L98.7846 69.4323L99.1215 69.1828L99.4465 68.9325L99.7346 68.6702L100.022 68.4076L100.272 68.1335L100.51 67.8454L100.734 67.5708L100.935 67.2831L101.122 67.009L101.285 66.7336L101.448 66.4591L101.572 66.1973L101.698 65.935L101.81 65.6847L101.898 65.4471L101.985 65.2218L102.06 65.0096L102.16 64.6472L102.222 64.3595H97.3588V64.3557H97.3576ZM62.0096 65.6431L62.0223 65.3932L62.0724 65.0181L62.1717 64.4936L62.3219 63.7935L62.397 63.4311L62.5349 62.7946L62.7216 61.9197L62.9597 60.8325L63.2227 59.5952L63.5223 58.2446L63.8342 56.8201L64.1465 55.3579L64.4588 53.9203L64.7592 52.5323L65.0333 51.2445L65.2837 50.0946L65.4958 49.1199L65.6584 48.382L65.7585 47.8953L65.7958 47.7328H61.4839L57.897 64.2691L57.8347 64.5318L57.7973 64.7821L57.76 65.0444L57.7222 65.2943L57.7099 65.5438L57.6849 65.7823L57.6726 66.0199V66.2575L57.6849 66.5813L57.7099 66.9067L57.7473 67.2063L57.7973 67.494L57.8724 67.769L57.9471 68.0316L58.0472 68.2811L58.1465 68.5188L58.2603 68.7441L58.3973 68.9562L58.5348 69.1442L58.685 69.3309L58.8352 69.5062L59.0105 69.6683L59.173 69.8185L59.3601 69.9555L59.5472 70.0926L59.7339 70.2054L59.9338 70.3183L60.1468 70.4185L60.3467 70.5054L60.5593 70.5929L60.7714 70.6552L60.984 70.7172L61.2089 70.7791L61.4215 70.8173L61.6455 70.8551L61.8708 70.8929L62.083 70.9179L62.2956 70.9302L62.5205 70.9425H63.0208L63.308 70.917L63.5834 70.9043L63.821 70.8793L64.2203 70.8173L64.4579 70.7791L64.5208 70.5296L64.6086 70.0922L64.7338 69.5176L64.8708 68.8926L64.996 68.2799L65.1207 67.7427L65.2086 67.3553L65.2459 67.18H65.108L64.8581 67.1923L64.508 67.2042L64.1206 67.2169L63.8329 67.2042L63.5707 67.1792L63.3208 67.1418L63.1082 67.0917L62.921 67.0298L62.7467 66.9547L62.5964 66.8669L62.459 66.7667L62.3465 66.6543L62.2464 66.5291L62.1713 66.4048L62.1093 66.2669L62.0592 66.1171L62.0342 65.9669L62.0087 65.8043V65.6423H62.0096V65.6431ZM123.407 52.7818H117.369L109.632 59.756L112.244 47.6946H107.882L102.945 70.581H107.294L108.494 65.0189L111.17 62.8935L114.87 70.581H119.719L114.47 60.2813L123.407 52.7818ZM52.6227 54.0064L52.6104 53.7938L52.5849 53.5931L52.5353 53.4064L52.4606 53.2057L52.36 53.0305L52.2476 52.8561L52.1097 52.7059L51.9472 52.5557L51.7469 52.4186L51.5347 52.2938L51.2967 52.1937L51.034 52.1063L50.7467 52.0308L50.4217 51.9811L50.0716 51.9438L49.7093 51.931H45.2976L44.2974 56.5562H49.1228L49.335 56.5435L49.5476 56.5307L49.7598 56.5061L49.9596 56.4688L50.1476 56.4429L50.3347 56.3937L50.5214 56.3436L50.6839 56.2935L50.8469 56.2435L51.0094 56.1815L51.1592 56.106L51.2971 56.0313L51.4341 55.9562L51.5593 55.8815L51.6845 55.7937L51.7969 55.7058L51.9098 55.6057L51.9977 55.506L52.0974 55.4058L52.1729 55.3066L52.2603 55.1937L52.3223 55.0935L52.3842 54.9811L52.4466 54.8559L52.4839 54.743L52.534 54.6306L52.5595 54.5054L52.5841 54.3803L52.6095 54.2555L52.6218 54.1312V54.0064H52.6227ZM51.1482 63.2308L51.1354 63.0182L51.11 62.818L51.0603 62.6054L50.9848 62.3932L50.9474 62.2931L50.8851 62.1806L50.835 62.0805L50.7599 61.9812L50.6844 61.881L50.6097 61.7941L50.5104 61.6939L50.4103 61.6065L50.3105 61.5195L50.1854 61.4325L50.0606 61.357L49.9227 61.2819L49.7729 61.2064L49.61 61.144L49.4475 61.082L49.2603 61.0197L49.0732 60.9692L48.8606 60.9204L48.648 60.8822L48.4236 60.8448L48.1728 60.8194L47.9233 60.8075L47.6606 60.7948H43.3864L42.186 66.3195H46.9736L47.2355 66.3067L47.4977 66.2817L47.7357 66.2558L47.9734 66.2308L48.1987 66.1935L48.4236 66.1434L48.6362 66.081L48.8364 66.0314L49.0363 65.9558L49.2234 65.8939L49.3987 65.8065L49.5612 65.7314L49.7233 65.6312L49.8858 65.5434L50.0233 65.4441L50.1607 65.3317L50.2855 65.2184L50.3979 65.1055L50.5112 64.9803L50.6105 64.8556L50.7107 64.7308L50.7858 64.5929L50.8605 64.4563L50.9228 64.3188L50.9852 64.1686L51.0349 64.0184L51.0722 63.8682L51.11 63.7184L51.1223 63.5554L51.135 63.3925L51.1482 63.2308ZM38.2483 63.5062L38.3488 63.0556L38.4986 62.3563L38.6989 61.444L38.9365 60.3433L39.1987 59.1187L39.4864 57.7812L39.7987 56.3937L40.0992 54.9934L40.3992 53.6059L40.6868 52.268L40.9618 51.0434L41.1994 49.9435L41.3866 49.0181L41.5491 48.3188L41.6488 47.8567L41.6743 47.7065H50.4616L50.9865 47.7438L51.4732 47.7812L51.948 47.844L52.3982 47.9318L52.823 48.0188L53.2227 48.1316L53.5978 48.256L53.9602 48.3939L54.2856 48.5318L54.5979 48.6934L54.8979 48.8564L55.1725 49.0312L55.4224 49.2188L55.6604 49.4186L55.8853 49.6189L56.0856 49.8192L56.2608 50.0318L56.4357 50.2439L56.5859 50.4692L56.711 50.6937L56.8354 50.9063L56.9487 51.1312L57.0357 51.3557L57.1235 51.5806L57.1859 51.7927L57.2478 52.018L57.2852 52.2302L57.3225 52.4428L57.348 52.6426L57.3598 52.8429V53.0432L57.348 53.4433L57.3098 53.8426L57.2601 54.2054L57.1854 54.5678L57.0849 54.8928L56.9724 55.2179L56.8345 55.5183L56.6979 55.8056L56.535 56.0801L56.3724 56.3304L56.1857 56.5681L55.9978 56.7934L55.8106 57.0055L55.6104 57.1927L55.3982 57.3798L55.1983 57.5546L54.9857 57.7048L54.7732 57.8546L54.561 57.9794L54.3607 58.1045L53.961 58.3167L53.5859 58.492L53.26 58.629L52.9855 58.7292L52.7733 58.7911L52.6354 58.8412L52.7479 58.8785L52.91 58.9434L53.1102 59.0309L53.3347 59.156L53.5855 59.3062L53.8596 59.4815L53.9975 59.5944L54.1346 59.7068L54.2848 59.832L54.4218 59.9572L54.5597 60.0942L54.6964 60.2567L54.8215 60.4192L54.9594 60.5822L55.0723 60.7697L55.1971 60.9692L55.3095 61.1699L55.4092 61.3825L55.5089 61.6201L55.584 61.8581L55.6592 62.1204L55.7211 62.383L55.7712 62.6576L55.8089 62.9571L55.8348 63.2576L55.8463 63.583L55.8348 63.9327L55.8089 64.295L55.7593 64.6328L55.6838 64.982L55.5968 65.3198L55.4835 65.6452L55.3592 65.9707L55.2085 66.283L55.046 66.5953L54.8593 66.8944L54.659 67.1949L54.4464 67.4694L54.2088 67.7444L53.9593 68.0189L53.6966 68.2688L53.4094 68.5069L53.109 68.7445L52.7967 68.9694L52.4597 69.182L52.122 69.3687L51.7596 69.5558L51.3849 69.731L50.9852 69.8813L50.5855 70.0315L50.1726 70.1562L49.7352 70.2687L49.2977 70.3565L48.8356 70.4443L48.3726 70.5063L47.8855 70.5436L47.3984 70.5691L46.8858 70.5818H44.4107L43.986 70.5691L43.5727 70.5436L43.1734 70.5063L42.7983 70.4443L42.4232 70.3692L42.0608 70.2687L41.7239 70.1562L41.3984 70.0315L41.0734 69.894L40.7734 69.7315L40.4857 69.569L40.2235 69.3818L39.9608 69.1943L39.7232 68.9821L39.4983 68.7572L39.2857 68.5188L39.0854 68.2811L38.9111 68.0193L38.7481 67.7567L38.6106 67.4826L38.4736 67.1944L38.3734 66.894L38.2741 66.5949L38.199 66.2826L38.1367 65.9567L38.0993 65.6189L38.0743 65.282V64.9434L38.0862 64.5933L38.1235 64.231L38.1736 63.8813L38.2483 63.5062ZM135.793 54.0064V53.7938L135.756 53.5931L135.706 53.4064L135.631 53.2057L135.543 53.0305L135.418 52.8561L135.281 52.7059L135.118 52.5557L134.931 52.4186L134.706 52.2938L134.468 52.1937L134.206 52.1063L133.918 52.0308L133.593 51.9811L133.243 51.9438L132.868 51.931H128.468L127.468 56.5562H132.293L132.506 56.5435L132.718 56.5307L132.931 56.5061L133.132 56.4688L133.318 56.4429L133.505 56.3937L133.693 56.3436L133.856 56.2935L134.018 56.2435L134.181 56.1815L134.331 56.106L134.468 56.0313L134.606 55.9562L134.73 55.8815L134.856 55.7937L134.969 55.7058L135.081 55.6057L135.169 55.506L135.268 55.4058L135.355 55.3066L135.431 55.1937L135.493 55.0935L135.556 54.9811L135.618 54.8559L135.668 54.743L135.705 54.6306L135.743 54.5054L135.769 54.3803L135.781 54.2555L135.793 54.1312L135.793 54.0064ZM134.319 63.2308L134.306 63.0182L134.281 62.818L134.231 62.6054L134.156 62.3932L134.119 62.2931L134.057 62.1806L134.006 62.0805L133.931 61.9812L133.856 61.881L133.781 61.7941L133.681 61.6939L133.581 61.6065L133.481 61.5195L133.356 61.4325L133.231 61.357L133.095 61.2819L132.944 61.2064L132.782 61.144L132.619 61.082L132.432 61.0197L132.244 60.9692L132.032 60.9204L131.82 60.8822L131.595 60.8448L131.357 60.8194L131.094 60.8075L130.833 60.7948H126.557L125.358 66.3199H130.157L130.408 66.3072L130.67 66.2821L130.908 66.2563L131.145 66.2312L131.383 66.1939L131.596 66.1438L131.808 66.0819L132.008 66.0318L132.209 65.9563L132.396 65.8943L132.571 65.8069L132.746 65.7318L132.896 65.6316L133.059 65.5438L133.196 65.4449L133.334 65.3321L133.458 65.2188L133.571 65.1059L133.684 64.9807L133.784 64.856L133.883 64.7312L133.958 64.5933L134.034 64.4567L134.109 64.3192L134.159 64.169L134.209 64.0188L134.247 63.8686L134.284 63.7188L134.296 63.5559L134.308 63.3933L134.319 63.2308ZM121.419 63.5062L121.519 63.0556L121.669 62.3563L121.87 61.444L122.107 60.3433L122.37 59.1187L122.657 57.7812L122.957 56.3937L123.269 54.9934L123.57 53.6059L123.857 52.268L124.12 51.0434L124.357 49.9435L124.558 49.0181L124.721 48.3188L124.808 47.8567L124.846 47.7065H133.632L134.157 47.7438L134.657 47.7812L135.12 47.844L135.57 47.9318L135.996 48.0188L136.395 48.1316L136.77 48.256L137.132 48.3939L137.47 48.5318L137.782 48.6934L138.07 48.8564L138.344 49.0312L138.594 49.2188L138.832 49.4186L139.057 49.6189L139.258 49.8192L139.432 50.0318L139.607 50.2439L139.757 50.4692L139.895 50.6937L140.02 50.9063L140.12 51.1312L140.219 51.3557L140.295 51.5806L140.357 51.7927L140.419 52.018L140.469 52.2302L140.494 52.4428L140.519 52.6426L140.532 52.8429L140.544 53.0432L140.532 53.4433L140.494 53.8426L140.432 54.2054L140.357 54.5678L140.257 54.8928L140.144 55.2179L140.019 55.5183L139.869 55.8056L139.719 56.0801L139.544 56.3304L139.369 56.5681L139.182 56.7934L138.982 57.0055L138.782 57.1927L138.569 57.3798L138.369 57.5546L138.156 57.7048L137.944 57.8546L137.731 57.9794L137.531 58.1045L137.131 58.3167L136.769 58.492L136.432 58.629L136.157 58.7292L135.945 58.7911L135.808 58.8412L135.92 58.8785L136.081 58.9434L136.281 59.0309L136.506 59.156L136.756 59.3062L137.031 59.4815L137.167 59.5944L137.305 59.7068L137.455 59.832L137.593 59.9572L137.73 60.0942L137.868 60.2567L137.993 60.4192L138.13 60.5822L138.255 60.7697L138.367 60.9692L138.48 61.1699L138.58 61.3825L138.68 61.6201L138.767 61.8581L138.843 62.1204L138.904 62.383L138.954 62.6576L138.991 62.9571L139.018 63.2576V63.583L139.005 63.9327L138.98 64.295L138.93 64.6328L138.855 64.982L138.767 65.3198L138.655 65.6452L138.529 65.9707L138.392 66.283L138.217 66.5953L138.042 66.8944L137.842 67.1949L137.617 67.4694L137.379 67.7444L137.129 68.0189L136.867 68.2688L136.579 68.5069L136.28 68.7445L135.967 68.9694L135.63 69.182L135.292 69.3687L134.93 69.5558L134.555 69.731L134.155 69.8813L133.755 70.0315L133.343 70.1562L132.906 70.2687L132.468 70.3565L132.005 70.4443L131.543 70.5063L131.055 70.5436L130.569 70.5691L130.056 70.5818H127.582L127.156 70.5691L126.743 70.5436L126.344 70.5063L125.969 70.4443L125.594 70.3692L125.231 70.2687L124.894 70.1562L124.568 70.0315L124.243 69.894L123.943 69.7315L123.655 69.569L123.393 69.3818L123.131 69.1943L122.893 68.9821L122.668 68.7572L122.456 68.5188L122.256 68.2811L122.08 68.0193L121.917 67.7567L121.781 67.4826L121.643 67.1944L121.543 66.894L121.444 66.5949L121.368 66.2826L121.306 65.9567L121.269 65.6189L121.243 65.282V64.9434L121.255 64.5933L121.293 64.231L121.343 63.8813L121.419 63.5062ZM170.429 52.7937L169.992 52.8064L169.579 52.8315L169.166 52.8688L168.767 52.9189L168.367 52.994L167.992 53.0818L167.617 53.1815L167.254 53.3067L166.892 53.4319L166.555 53.5821L166.217 53.7569L165.892 53.9322L165.566 54.1329L165.267 54.3327L164.967 54.5576L164.692 54.8075L164.417 55.057L164.142 55.332L163.893 55.6197L163.655 55.9201L163.417 56.232L163.192 56.5579L162.992 56.9075L162.791 57.2572L162.605 57.6323L162.429 58.0201L162.267 58.4321L162.104 58.845L161.967 59.2697L161.842 59.7204L161.717 60.1829L161.617 60.6454L161.517 61.1202L161.393 61.7079L161.255 62.383L161.092 63.1336L160.918 63.9335L160.743 64.758L160.568 65.6083L160.381 66.4464L160.206 67.2581L160.043 68.0333L159.893 68.7326L159.757 69.3449L159.643 69.8575L159.568 70.2572L159.506 70.5071L159.494 70.5946H163.806L163.831 70.5071L163.882 70.2687L163.956 69.894L164.069 69.4073L164.195 68.8192L164.344 68.1441L164.495 67.4066L164.669 66.6199L164.844 65.8196L165.019 64.9952L165.194 64.183L165.369 63.4078L165.519 62.6711L165.67 61.9956L165.795 61.4075L165.908 60.9212L165.97 60.6463L166.046 60.3721L166.121 60.1214L166.196 59.871L166.284 59.647L166.371 59.4217L166.47 59.2095L166.57 59.0088L166.682 58.8221L166.796 58.6341L166.909 58.4593L167.021 58.3091L167.147 58.147L167.283 58.0091L167.421 57.8712L167.558 57.7587L167.696 57.634L167.846 57.5343L167.996 57.4345L168.158 57.3471L168.308 57.272L168.483 57.1965L168.646 57.1214L168.821 57.0717L168.995 57.0217L169.171 56.9716L169.358 56.9343L169.545 56.9092L169.733 56.8833L169.933 56.8715L170.12 56.8587H170.333L170.807 56.8715L171.182 56.8965L171.482 56.9338L171.695 56.9712L171.757 56.6461L171.856 56.1836L171.981 55.6087L172.119 54.9836L172.244 54.3586L172.381 53.7713L172.48 53.2965L172.556 52.9465L172.369 52.921L172.157 52.8964L171.919 52.8705L171.668 52.8455L171.381 52.8332L171.081 52.8081H170.769L170.429 52.7937ZM185.128 77.3927L199.628 52.7937H194.953L188.29 64.3684L186.741 52.781H181.741L181.217 52.7929L180.704 52.8056L180.204 52.8429L179.729 52.9049L179.267 52.9672L178.816 53.0551L178.379 53.1544L177.954 53.2672L177.554 53.3924L177.167 53.5422L176.792 53.6924L176.429 53.8672L176.08 54.0539L175.754 54.2665L175.429 54.4791L175.129 54.7172L174.841 54.9548L174.554 55.2174L174.291 55.5051L174.041 55.7933L173.803 56.0933L173.578 56.4183L173.366 56.7552L173.166 57.0934L172.979 57.4689L172.804 57.844L172.641 58.2314L172.505 58.6311L172.354 59.0563L172.23 59.4938L172.117 59.9436L172.017 60.4069L171.904 60.931L171.766 61.5569L171.616 62.2693L171.442 63.0441L171.266 63.8682L171.079 64.7185L170.892 65.5807L170.718 66.4311L170.531 67.2555L170.368 68.0185L170.218 68.7309L170.08 69.3432L169.968 69.8677L169.88 70.2555L169.831 70.5054L169.806 70.5929H174.13L174.155 70.5054L174.205 70.267L174.28 69.8923L174.392 69.4056L174.518 68.8056L174.668 68.1186L174.83 67.3671L175.006 66.5677L175.193 65.7301L175.368 64.8797L175.555 64.0175L175.742 63.1795L175.917 62.3796L176.08 61.6167L176.217 60.9293L176.354 60.3297L176.416 60.0671L176.478 59.8167L176.565 59.5791L176.641 59.3546L176.74 59.1297L176.84 58.9299L176.953 58.73L177.066 58.5548L177.191 58.3804L177.328 58.2174L177.454 58.0672L177.603 57.9174L177.754 57.7922L177.904 57.6679L178.066 57.5546L178.229 57.4553L178.404 57.3675L178.579 57.2797L178.754 57.205L178.941 57.1426L179.128 57.0925L179.315 57.0425L179.502 57.0051L179.703 56.9801L179.903 56.9674L180.115 56.9551H180.315L180.528 56.9674L180.728 56.9801L180.94 57.0051L181.153 57.0425L181.378 57.0798L182.278 52.8807L182.428 53.7306L182.59 54.7554L182.778 55.9053L182.99 57.1804L183.215 58.5301L183.44 59.9304L183.678 61.3426L183.902 62.7424L184.127 64.1049L184.327 65.3796L184.515 66.5422L184.69 67.567L184.827 68.4173L184.926 69.0547L185.001 69.4675L185.014 69.6178L180.501 77.3914H185.127V77.3927H185.128ZM72.8715 58.3689L72.9593 58.2314L73.1464 57.9934L73.2835 57.8563L73.446 57.6938L73.6463 57.5313L73.8716 57.356L74.1211 57.1935L74.4088 57.0314L74.559 56.9555L74.7342 56.8804L74.8968 56.8184L75.0835 56.7433L75.2706 56.6937L75.4709 56.6313L75.6835 56.594L75.8961 56.5566L76.1209 56.5184L76.359 56.493L76.6089 56.4807H77.1711L77.4711 56.5061L77.733 56.5435L77.996 56.5935L78.2205 56.6432L78.4454 56.7183L78.6325 56.7938L78.8073 56.8808L78.9576 56.9809L79.0942 57.0934L79.2071 57.2063L79.2949 57.3314L79.3696 57.4562L79.4196 57.5928L79.457 57.7184L79.4697 57.8682L79.457 57.9688L79.4443 58.0562L79.4192 58.144L79.3819 58.231L79.3314 58.3184L79.2813 58.3939L79.2189 58.4686L79.1443 58.531L79.0564 58.6061L78.9686 58.6681L78.8693 58.7309L78.7564 58.7809L78.5061 58.8934L78.2184 58.9931L77.8929 59.0928L77.5433 59.1798L77.1559 59.2553L76.7311 59.3423L75.7806 59.4925L74.7181 59.6427L74.2433 59.7178L73.7685 59.7929L73.3179 59.8808L72.8676 59.9682L72.4425 60.0675L72.0177 60.1676L71.6176 60.2673L71.2183 60.3798L70.8436 60.505L70.4812 60.6297L70.1189 60.7676L69.7811 60.9178L69.4561 61.068L69.1433 61.2182L68.8433 61.3935L68.5684 61.5679L68.3062 61.7559L68.0431 61.9426L67.8186 62.1433L67.5937 62.3559L67.3939 62.5799L67.2059 62.818L67.0311 63.056L66.8808 63.3063L66.7438 63.5682L66.6186 63.8431L66.5189 64.1308L66.4434 64.4304L66.3683 64.7308L66.3305 65.0563L66.2932 65.3809V65.9809L66.319 66.2189L66.3441 66.4688L66.3941 66.7069L66.4438 66.9572L66.5193 67.1949L66.594 67.4329L66.6937 67.6574L66.7939 67.8818L66.9182 68.1072L67.0429 68.3321L67.1931 68.5446L67.3434 68.7445L67.5059 68.9448L67.6807 69.1455L67.8682 69.3322L68.069 69.5074L68.2811 69.6818L68.506 69.8443L68.7441 69.9946L68.9817 70.1325L69.2439 70.2687L69.5061 70.3938L69.7811 70.5071L70.0688 70.6069L70.3692 70.6943L70.6811 70.7698L71.0066 70.8317L71.3312 70.8818L71.6689 70.9196L72.019 70.945H72.6814L72.9691 70.9196L73.2568 70.8945L73.5317 70.8568L73.7939 70.819L74.0443 70.7694L74.2819 70.7066L74.5195 70.6446L74.7444 70.5691L74.9693 70.494L75.1819 70.4066L75.3813 70.3192L75.7441 70.1443L76.0819 69.9441L76.3819 69.7565L76.6446 69.5698L76.869 69.3946L77.0693 69.2325L77.3438 68.9698L77.469 68.8446L77.4818 69.2325L77.5191 69.6691L77.5564 70.1325L77.5938 70.5827H82.0564L81.9944 70.2572L81.9325 69.8694L81.8952 69.6445L81.8693 69.4073L81.8442 69.1451L81.8315 68.8701L81.8188 68.5697L81.8315 68.2582V67.9205L81.8688 67.5704L81.9062 67.1953L81.9563 66.8083L82.0309 66.395L82.1188 65.9575L82.2439 65.383L82.4069 64.6459L82.594 63.771L82.8066 62.8209L83.0188 61.8458L83.2314 60.8711L83.4185 59.9588L83.5937 59.1458L83.6557 58.7958L83.6934 58.4589L83.7312 58.1211L83.7435 57.7961L83.7312 57.471L83.7193 57.1583L83.682 56.8583L83.6319 56.5587L83.5568 56.2833L83.469 55.9961L83.3561 55.7334L83.2437 55.4712L83.093 55.2213L82.9432 54.9836L82.7684 54.7587L82.5686 54.5462L82.356 54.334L82.1311 54.146L81.8812 53.9593L81.6189 53.7841L81.344 53.6339L81.044 53.4841L80.7185 53.3462L80.3812 53.2218L80.0307 53.1217L79.656 53.0224L79.2686 52.9469L78.8557 52.8714L78.431 52.8217L77.9803 52.7844L77.5182 52.7589L77.0311 52.7462L76.4057 52.7721L75.8175 52.8094L75.243 52.8714L74.705 52.9592L74.1924 53.0721L73.7053 53.2091L73.2423 53.3593L72.8053 53.5218L72.3924 53.709L71.9931 53.9092L71.6307 54.1095L71.2807 54.3348L70.9429 54.5597L70.6429 54.7974L70.3552 55.0354L70.093 55.2858L69.8431 55.5234L69.6054 55.7729L69.3928 56.0237L69.2057 56.2613L69.0186 56.5116L68.8561 56.7361L68.7182 56.961L68.5815 57.1736L68.3562 57.5733L68.1937 57.9111L68.0694 58.186L67.9934 58.3727H72.871V58.3689H72.8715ZM74.4966 63.0059L74.9214 62.9304L75.484 62.8553L76.1086 62.7552L76.7587 62.6559L77.3842 62.5561L77.9341 62.4806L78.3593 62.4187L78.6088 62.3813L78.5464 62.6312L78.4717 62.9189L78.4093 63.2194L78.3474 63.4935L78.2854 63.6938L78.2226 63.8945L78.1607 64.0812L78.0728 64.2683L77.985 64.4558L77.8853 64.6302L77.7847 64.7932L77.6723 64.9557L77.5471 65.1186L77.4224 65.2689L77.2853 65.4191L77.1351 65.5693L76.9849 65.7059L76.8347 65.8311L76.6717 65.9558L76.4965 66.0691L76.3221 66.1816L76.1468 66.2944L75.9597 66.3942L75.7726 66.482L75.585 66.5694L75.3847 66.6445L75.1849 66.72L74.9723 66.782L74.7597 66.8444L74.5599 66.8936L74.335 66.9318L74.1224 66.9691L73.8979 66.9946L73.6734 67.02L73.4481 67.0323H73.2237L72.9491 67.02L72.6865 66.9946L72.4242 66.9572L72.1993 66.8944L71.9744 66.8079L71.7742 66.7205L71.5993 66.6203L71.4241 66.4951L71.287 66.3708L71.1491 66.2329L71.0367 66.0827L70.9488 65.9198L70.8737 65.7572L70.8241 65.582L70.7986 65.4076L70.7859 65.2201L70.7986 65.0698L70.8241 64.9073L70.8737 64.7448L70.9488 64.5946L71.0486 64.4321L71.1733 64.2696L71.3354 64.1194L71.5234 63.9691L71.7614 63.8194L72.0232 63.6815L72.3237 63.5444L72.6606 63.4196L73.048 63.2945L73.4855 63.1943L73.9603 63.095L74.4966 63.0059ZM150.568 56.6809H150.842L151.093 56.6937L151.343 56.7187L151.581 56.756L151.805 56.8061L152.018 56.8562L152.23 56.9181L152.43 56.9809L152.617 57.056L152.793 57.1307L152.955 57.2186L153.118 57.3183L153.268 57.4188L153.405 57.5177L153.53 57.631L153.655 57.7439L153.768 57.8682L153.881 57.9934L153.968 58.1186L154.055 58.2433L154.131 58.3685L154.206 58.5055L154.268 58.6434L154.318 58.7813L154.368 58.918L154.405 59.0559L154.443 59.1929L154.456 59.3308L154.467 59.4679L154.48 59.6054V59.8803H146.155L146.205 59.6932L146.293 59.4806L146.393 59.243L146.543 58.9931L146.705 58.7309L146.906 58.4678L147.006 58.3307L147.131 58.206L147.256 58.0681L147.393 57.9437L147.53 57.8186L147.668 57.6934L147.83 57.5686L147.993 57.4562L148.167 57.3433L148.343 57.2436L148.53 57.1439L148.717 57.0565L148.929 56.9686L149.13 56.894L149.355 56.8316L149.579 56.7819L149.817 56.7319L150.055 56.7068L150.305 56.6814H150.567L150.568 56.6809ZM153.13 65.2434L153.092 65.3312L153.03 65.4305L152.943 65.543L152.844 65.6809L152.706 65.8311L152.556 65.9813L152.381 66.1315L152.18 66.294L151.943 66.4442L151.693 66.5809L151.405 66.7188L151.106 66.8312L150.93 66.8813L150.768 66.9309L150.581 66.9683L150.393 67.0065L150.206 67.0315L150.006 67.0438L149.793 67.0561L149.581 67.068L149.269 67.0561L148.969 67.0306L148.694 66.9929L148.432 66.9428L148.169 66.8677L147.932 66.793L147.707 66.7052L147.507 66.6059L147.306 66.4926L147.119 66.3797L146.944 66.2546L146.782 66.1179L146.631 65.98L146.481 65.8298L146.356 65.6796L146.243 65.5294L146.131 65.3792L146.031 65.2167L145.943 65.0664L145.856 64.9167L145.794 64.7533L145.732 64.6035L145.669 64.4533L145.632 64.3158L145.557 64.0409L145.519 63.7909L145.494 63.5788L145.506 63.4035H158.681L158.718 63.2533L158.768 63.0153L158.83 62.7276L158.893 62.3902L158.955 62.0024L159.005 61.5904L159.042 61.1529L159.054 60.7023L159.042 60.3153L159.017 59.9283L158.979 59.5405L158.917 59.1654L158.842 58.7898L158.754 58.4275L158.642 58.0528L158.517 57.7031L158.379 57.3526L158.217 57.003L158.042 56.6775L157.855 56.3525L157.642 56.0275L157.417 55.7271L157.18 55.4398L156.93 55.1517L156.655 54.8771L156.354 54.6272L156.055 54.3769L155.73 54.1524L155.38 53.9398L155.03 53.7399L154.655 53.5524L154.255 53.3899L153.856 53.2397L153.43 53.1022L152.98 52.9893L152.53 52.89L152.055 52.8145L151.555 52.7644L151.055 52.739L150.517 52.7271L150.042 52.739L149.555 52.7772L149.092 52.8391L148.617 52.9142L148.167 53.0267L147.717 53.1646L147.279 53.3148L146.854 53.4896L146.442 53.6899L146.028 53.902L145.641 54.1274L145.254 54.3892L144.892 54.6514L144.542 54.9391L144.192 55.2395L143.867 55.5645L143.555 55.9023L143.267 56.2519L142.992 56.6143L142.73 56.9894L142.48 57.3768L142.255 57.777L142.054 58.189L141.868 58.6146L141.692 59.0521L141.555 59.4895L141.417 59.9521L141.318 60.4023L141.243 60.8771L141.181 61.3523L141.143 61.8267L141.131 62.3139L141.143 62.7768L141.169 63.2393L141.206 63.6895L141.268 64.127L141.343 64.5517L141.444 64.9765L141.556 65.3894L141.681 65.7768L141.831 66.1646L141.994 66.5397L142.168 66.9021L142.369 67.2517L142.581 67.5895L142.806 67.9018L143.056 68.2137L143.306 68.5018L143.581 68.7763L143.881 69.0386L144.181 69.2885L144.506 69.5265L144.844 69.7395L145.193 69.9394L145.556 70.1142L145.943 70.2767L146.331 70.4269L146.743 70.5517L147.169 70.665L147.606 70.7524L148.056 70.8275L148.531 70.8776L149.006 70.9153H149.506L150.106 70.9026L150.681 70.8653L151.231 70.7902L151.756 70.7023L152.256 70.578L152.731 70.4405L153.181 70.2776L153.606 70.1023L154.006 69.9152L154.381 69.703L154.731 69.4905L155.068 69.2528L155.381 69.0152L155.668 68.7772L155.943 68.5268L156.193 68.2646L156.43 68.0147L156.644 67.7643L156.844 67.5148L157.019 67.2645L157.181 67.0137L157.332 66.7896L157.469 66.5512L157.582 66.3386L157.782 65.9512L157.919 65.6261L158.007 65.3881L158.069 65.2379H153.132V65.2434H153.13ZM10.912 45.0948L10.8997 44.8813L10.8742 44.6692L10.8246 44.4566L10.7622 44.244L10.6629 44.0318L10.5492 43.8192L10.4745 43.7199L10.3994 43.6194L10.3116 43.5315L10.2246 43.4318L10.1117 43.3444L10.012 43.2566L9.88681 43.1815L9.76163 43.1064L9.62457 43.0317L9.47479 42.9566L9.31185 42.8938L9.14975 42.8446L8.97451 42.7822L8.78781 42.7448L8.58752 42.6943L8.37494 42.6689L8.15047 42.6447L7.91285 42.6197L7.6748 42.6069H3.06281L1.82506 48.3192H6.68782L7.00055 48.3065L7.28824 48.2819L7.57509 48.2441L7.83774 48.2067L8.1004 48.1567L8.3376 48.1066L8.56249 48.0315L8.77508 47.9691L8.98766 47.8944L9.17479 47.8066L9.35004 47.7065L9.52401 47.6186L9.67422 47.5062L9.82443 47.4065L9.96149 47.294L10.0867 47.1689L10.1995 47.056L10.312 46.9308L10.3998 46.7937L10.4877 46.6686L10.5628 46.5315L10.6379 46.3936L10.7007 46.2566L10.7503 46.1068L10.7876 45.9689L10.8254 45.8186L10.8628 45.6812L10.9001 45.3816L10.912 45.0948ZM22.6242 45.0948L22.6115 44.8813L22.5856 44.6692L22.5359 44.4566L22.4736 44.244L22.4239 44.1315L22.3738 44.0318L22.3238 43.9194L22.2618 43.8192L22.1867 43.7199L22.1108 43.6194L22.0238 43.5315L21.9368 43.4318L21.8243 43.3444L21.7115 43.2566L21.5986 43.1815L21.4734 43.1064L21.3364 43.0317L21.1862 42.9566L21.0245 42.8942L20.862 42.8446L20.6867 42.7822L20.4992 42.7448L20.2993 42.6948L20.0867 42.6693L19.8618 42.6447L19.6369 42.6192L19.3866 42.6069H14.7742L13.5496 48.3188H18.3996L18.7119 48.306L18.9996 48.2814L19.2877 48.2437L19.5495 48.2063L19.8118 48.1563L20.0498 48.1062L20.2747 48.0311L20.4996 47.9687L20.6999 47.894L20.8866 47.8062L21.0746 47.706L21.2362 47.6182L21.3987 47.5058L21.5366 47.406L21.6737 47.2936L21.7985 47.1684L21.9109 47.0556L22.0238 46.9304L22.1108 46.7933L22.1986 46.6681L22.2741 46.5311L22.3488 46.3932L22.4112 46.2561L22.4613 46.1063L22.4986 45.9684L22.5359 45.8182L22.5733 45.6807L22.611 45.3812L22.6242 45.0948ZM9.33731 53.6941L9.32458 53.4943L9.29954 53.2817L9.2622 53.0568L9.18667 52.8442L9.14933 52.7441L9.09926 52.6316L9.03731 52.5315L8.97451 52.4313L8.8994 52.332L8.82472 52.2319L8.73689 52.1326L8.64948 52.0452L8.54976 51.9574L8.43731 51.8704L8.31214 51.783L8.18696 51.7079L8.04906 51.6319L7.89927 51.5699L7.74906 51.5076L7.57381 51.4452L7.39899 51.3951L7.21144 51.3455L7.01116 51.3081L6.79899 51.2704L6.57453 51.2445L6.34921 51.2195L6.09928 51.2067H1.50003L0.262695 56.9313H4.7877L5.11273 56.9186L5.42503 56.9067L5.72545 56.8808L5.99999 56.8558L6.27495 56.8184L6.52488 56.7684L6.7625 56.706L7.00055 56.6436L7.21271 56.5681L7.41257 56.493L7.60054 56.4051L7.78767 56.3181L7.95019 56.218L8.11313 56.1183L8.25019 56.0054L8.38809 55.8925L8.51284 55.7801L8.63802 55.6549L8.73774 55.5297L8.83788 55.4046L8.92486 55.2675L8.99997 55.13L9.06234 54.993L9.12429 54.8555L9.17437 54.7184L9.22444 54.5682L9.26178 54.4307L9.28681 54.2805L9.32415 53.9928L9.33731 53.6941ZM21.0491 53.6941L21.0368 53.4943L21.0113 53.2817L20.974 53.0568L20.8989 52.8442L20.8615 52.7441L20.8115 52.6316L20.7491 52.5319L20.6871 52.4322L20.612 52.3325L20.5365 52.2315L20.4487 52.1322L20.3608 52.0448L20.2615 51.9569L20.1487 51.8699L20.0235 51.7825L19.8988 51.7074L19.7617 51.6315L19.6115 51.5695L19.4613 51.5071L19.2869 51.4448L19.1116 51.3947L18.9241 51.3442L18.7238 51.3069L18.5112 51.2691L18.2986 51.2432L18.0606 51.2182L17.8111 51.2055H13.2118L11.9745 56.9304H16.4995L16.8245 56.9177L17.1368 56.9058L17.4364 56.8799L17.7109 56.8549L17.9859 56.8176L18.2358 56.7675L18.4739 56.7051L18.7115 56.6428L18.9241 56.5672L19.1239 56.4921L19.3246 56.4043L19.499 56.3173L19.6616 56.2172L19.8241 56.1174L19.9739 56.0046L20.1118 55.8917L20.2246 55.7792L20.3498 55.6541L20.4491 55.5289L20.5492 55.4037L20.6371 55.2667L20.7122 55.1292L20.7741 54.9921L20.8365 54.8546L20.8862 54.7176L20.9362 54.5674L20.974 54.4299L20.9986 54.2797L21.0364 53.992L21.0491 53.6941ZM33.2989 50.2066V49.9944L33.2735 49.7818L33.2238 49.5688L33.161 49.3567L33.1118 49.2438L33.0617 49.1441L33.0117 49.0444L32.9493 48.9442L32.8742 48.8318L32.7986 48.7439L32.7117 48.6442L32.6111 48.5568L32.5118 48.4567L32.3985 48.3816L32.2861 48.2937L32.1609 48.2186L32.0238 48.1439L31.8736 48.0688L31.7107 48.0065L31.5482 47.9564L31.3729 47.8944L31.1862 47.8571L30.9855 47.8193L30.7729 47.7812L30.5485 47.7565L30.3104 47.7315L30.0728 47.7188H25.4612L24.2239 53.4315H29.0739L29.3862 53.4192L29.6867 53.3937L29.9612 53.3564L30.2362 53.319L30.4861 53.2689L30.7237 53.2193L30.9617 53.1569L31.1739 53.0814L31.3742 53.0067L31.5745 52.9189L31.7493 52.8315L31.9122 52.7317L32.0748 52.632L32.2245 52.5192L32.362 52.4067L32.4868 52.2943L32.5996 52.1691L32.6994 52.0443L32.7991 51.9069L32.8869 51.7821L32.962 51.6442L33.0367 51.5067L33.0868 51.3692L33.1496 51.2326L33.1869 51.0824L33.2242 50.9449L33.2493 50.7951L33.2866 50.4947L33.2989 50.2066ZM31.611 59.1688V58.9562L31.5855 58.7432L31.5354 58.531L31.4608 58.3184L31.3729 58.1062L31.2477 57.8937L31.1858 57.7939L31.1103 57.6942L31.0224 57.6064L30.9231 57.5071L30.823 57.4197L30.711 57.331L30.5981 57.2555L30.4606 57.1808L30.3236 57.1057L30.1857 57.0306L30.0231 56.9678L29.8606 56.9177L29.6735 56.8558L29.4864 56.8184L29.2861 56.7811L29.0862 56.7433L28.8613 56.7179L28.6237 56.6928L28.3738 56.6801H23.7741L22.5364 62.3932H27.386L27.6978 62.3809L27.9978 62.3559L28.286 62.3177L28.5478 62.2803L28.7981 62.2307L29.0485 62.1806L29.2729 62.1182L29.4855 62.0427L29.6858 61.968L29.8857 61.8802L30.0605 61.7809L30.2357 61.6931L30.3855 61.5806L30.5357 61.4809L30.6732 61.368L30.7984 61.2433L30.9108 61.1304L31.0105 61.0052L31.1103 60.8682L31.1981 60.743L31.2736 60.6059L31.3356 60.468L31.3984 60.331L31.4476 60.1808L31.4977 60.0433L31.535 59.8935L31.5609 59.7556L31.5855 59.6054L31.5982 59.4556L31.6101 59.3054V59.1688H31.611ZM19.362 62.6559V62.4433L19.3361 62.2311L19.2869 62.0185L19.2245 61.8059L19.1248 61.5938L19.0119 61.3808L18.9368 61.2815L18.8621 61.1813L18.7743 61.0935L18.6746 60.9946L18.5744 60.9068L18.462 60.8194L18.3495 60.7443L18.2248 60.6564L18.0873 60.5945L17.9371 60.5198L17.7746 60.457L17.6121 60.3951L17.4368 60.3446L17.2497 60.2949L17.0498 60.2571L16.8372 60.2325L16.6124 60.1948L16.3879 60.182L16.138 60.1697H11.526L10.2874 65.8812H15.1501L15.4497 65.8684L15.7501 65.8434L16.037 65.806L16.3001 65.7683L16.5496 65.7186L16.7999 65.6558L17.0248 65.5939L17.2374 65.5319L17.45 65.4441L17.6367 65.369L17.8119 65.2693L17.9867 65.1819L18.137 65.0686L18.2872 64.9697L18.4242 64.8564L18.5494 64.7317L18.6618 64.6192L18.762 64.494L18.8617 64.3561L18.9487 64.231L19.0242 64.0939L19.0993 63.9564L19.1494 63.8198L19.2113 63.6696L19.2487 63.5321L19.2869 63.3819L19.3119 63.2444L19.3369 63.0942L19.3497 62.944L19.3624 62.8065L19.362 62.6559Z" fill="black" stroke="#2F2C29" stroke-width="0.424749" stroke-miterlimit="2.613"/>
<rect x="0.5" y="0.5" width="199" height="119" stroke="black"/>
</svg>
