<?xml version="1.0" encoding="utf-8"?>
<!-- Generator: Adobe Illustrator 24.0.1, SVG Export Plug-In . SVG Version: 6.00 Build 0)  -->
<svg version="1.1" id="Слой_1" xmlns="http://www.w3.org/2000/svg" xmlns:xlink="http://www.w3.org/1999/xlink" x="0px" y="0px"
	 viewBox="0 0 200 120" style="enable-background:new 0 0 200 120;" xml:space="preserve">
<style type="text/css">
	.st0{fill:#F22936;}
</style>
<path class="st0" d="M134,37.9c-0.7,0.4-2.8,1.5-4.6,2.5c-2.2,1.1-3.3,1.9-3.3,2.3c-0.1,0.3,0.4,1.6,0.9,2.8
	c0.6,1.2,1.1,2.5,1.1,2.8c0,0.6-0.8,2.9-1.6,4.6c-0.2,0.5-0.8,1.9-1.3,3.2c-0.5,1.3-1,2.6-1.1,2.8c-0.1,0.2-1.3,3-2.7,6.2
	c-5.1,12.2-5.9,13.4-8.6,13.6l-1.5,0.1v3.8l7.6,0.1c8.4,0.1,8.1,0.1,8.1-1.7c0-1.9-0.3-2.4-1.3-2.4c-0.7,0-1.3-0.3-1.9-0.9
	c-0.9-0.8-0.9-1-0.8-2.2c0.2-1.8,0.8-2.8,1.6-3.3c0.8-0.4,10.8-0.6,12.6-0.2c1.3,0.3,2.1,1.7,2.1,3.8c0,1.4-0.1,1.6-0.8,2.1
	c-0.5,0.3-1.3,0.6-1.9,0.7l-1,0.1l-0.1,2l-0.1,2l10.5-0.1l10.5-0.1v-3.7l-1.6-0.7c-1.6-0.6-1.7-0.8-2.9-3.1
	c-0.7-1.4-2.3-5.1-3.6-8.2c-1.3-3.1-2.7-6.4-3.1-7.3c-0.4-0.8-0.7-1.6-0.7-1.8c0-0.1-0.5-1.2-1-2.3c-0.6-1.1-1-2.2-1-2.4
	s-0.1-0.6-0.3-0.9c-0.4-0.6-2.4-5.7-3.5-8.6c-1.8-4.7-2.6-6.5-3.2-6.4C135.4,37.1,134.7,37.5,134,37.9L134,37.9z M131.6,56.6
	c0.3,0.4,0.5,0.8,0.6,0.9c0,0.1,0.2,0.7,0.5,1.3c0.2,0.6,0.6,1.5,0.9,2.1c0.2,0.5,0.6,1.4,0.9,1.9c0.2,0.5,0.6,1.4,0.9,2
	c0.9,2.1,0.9,2.2-4.4,2.2c-4.4,0-4.7,0-4.8-0.6c-0.1-0.3,0-0.8,0.2-1.2c0.3-0.5,0.7-1.5,1.8-4.1c1-2.3,2.5-5.1,2.7-5.1
	C130.9,55.9,131.3,56.2,131.6,56.6z M34.4,41.1c-2.3,1.1-4.2,2.3-4.4,2.6c-0.2,0.3,0,1.1,0.8,2.8c1.4,3.2,1.4,3.5-0.6,7.9
	c-0.2,0.5-0.4,1-0.4,1.2s-0.7,2.1-1.6,4.2c-0.9,2.2-1.8,4.5-2,5.1c-0.3,1-0.8,2.2-2.1,5.3c-0.2,0.5-0.6,1.5-0.9,2.4
	c-0.3,0.8-0.6,1.6-0.7,1.8c-0.1,0.1-0.4,0.9-0.7,1.7c-0.7,2.2-1.4,2.8-3.3,2.8c-1.8,0-2,0.3-1.8,2.7l0.1,1.3h14.1v-3.8l-1.2-0.2
	c-1.8-0.4-2.2-1.1-1.8-3.2c0.2-1,0.6-2.1,1.1-2.5c0.6-0.7,0.7-0.7,6.3-0.7c6.2,0,6.3,0.1,7.3,2c1.1,2.2,0.4,4-1.7,4.4l-1.2,0.2v3.5
	l9.9,0.1l9.9,0.1l0.2-1.3c0.3-1.9-0.1-2.8-1.3-2.8c-0.5,0-1.1-0.2-1.4-0.4c-1.5-1.1-2.4-2.3-2.9-3.9c-0.3-0.9-0.8-2.3-1.1-3.1
	c-1.8-4.2-2-4.8-2.5-5.7c-0.2-0.5-0.4-1-0.4-1.1c0-0.1-0.6-1.6-1.4-3.3c-0.7-1.7-1.5-3.4-1.7-3.9c-0.2-0.5-0.6-1.4-0.8-1.9
	c-1.1-2.6-2.3-5.4-2.3-5.7c0-0.2-0.2-0.7-0.4-1.2c-0.2-0.5-0.9-2.2-1.5-3.7c-0.6-1.5-1.2-2.9-1.3-3.1c-0.1-0.1-0.3-0.7-0.4-1.2
	c-0.3-1.1-0.7-1.6-1.3-1.6C38.7,38.9,36.6,39.9,34.4,41.1z M35.4,58.1c0.3,0.2,0.6,0.7,0.7,1.1c0.1,0.4,0.5,1.3,0.9,2
	c0.4,0.7,0.7,1.4,0.7,1.6c0,0.2,0.4,1.1,0.9,2.2c1.5,3.3,1.3,3.5-3.4,3.6c-3.8,0-4.5-0.2-4.5-1.5c0-0.5,0.2-1.2,0.4-1.5
	c0.2-0.3,0.4-0.8,0.4-1.1s0.1-0.8,0.3-1.1c0.8-1.6,1.5-3.1,1.5-3.4c0-0.5,1.1-2.3,1.4-2.3C34.9,57.7,35.2,57.9,35.4,58.1z
	 M63.7,41.3c-0.2,0.2-0.4,1.1-0.4,2.1v1.7h1.1c0.7,0,1.5,0.3,2.1,0.7l1,0.7l0.1,15.4c0.1,17.4,0.1,16.8-2,16.8
	c-1.5,0-1.9,0.5-1.7,2.4l0.1,1.6l8.9,0.1l8.9,0.1v-2.1c0-1.9-0.1-2.1-0.8-2.6c-1.5-0.9-1.6-1.1-1.6-6c0-3.8,0.1-4.7,0.4-5
	c0.6-0.5,1.2,0.1,2.9,2.6c0.7,1.1,1.8,2.6,2.4,3.4c0.6,0.8,1.2,1.7,1.5,2.1c0.2,0.3,0.4,1,0.5,1.5c0.1,0.7-0.1,0.9-0.7,1.3
	c-0.8,0.4-0.8,0.5-0.8,2.6v2.2h20.5l0.2-0.8c0.1-0.4,0.1-1.5,0-2.3l-0.2-1.6l-1.8-0.1c-2-0.1-2.3-0.4-4.6-3.9
	c-0.7-1.1-1.5-2.2-1.7-2.4c-0.2-0.2-1.3-1.8-2.5-3.6c-1.2-1.8-3.4-5-5-7.1c-1.6-2.2-2.9-4-2.9-4.1s0.3-0.6,0.6-1.1
	c0.8-1,10.2-10.3,11.1-10.9c0.4-0.2,1.7-0.5,3.3-0.6l2.7-0.2l-0.1-1.5l-0.1-1.5L96.1,41c-10.2-0.1-9.8-0.1-9.6,1.9
	c0,0.5,0.1,1,0.1,1.2c0,0.2,0.6,0.4,1.4,0.5c0.7,0.1,1.5,0.3,1.8,0.5c1.1,0.9,0.3,2.1-5.6,8.2c-2.7,2.7-3.4,3.3-4,3.2l-0.8-0.1
	l-0.1-5c-0.1-5.8,0-6.2,2.1-6.6c1.4-0.3,1.3-0.1,1.2-2.7l-0.1-1.2h-9.2C66.5,40.9,64,41,63.7,41.3z M160.9,41.4
	c-0.1,0.2-0.2,0.9-0.2,1.5c0,0.8,0.1,1.1,0.7,1.3c0.4,0.1,0.9,0.2,1.1,0.1c0.5-0.2,1.9,0.5,2.6,1.3c0.5,0.5,0.5,1.8,0.6,15.4
	c0.1,11.1,0,15-0.3,15.6c-0.4,1-1.8,1.8-3.1,1.8c-1.5,0-1.7,0.5-1.5,2.6l0.2,1.8h1.1c5.7,0,16.3,0.1,18.5,0l2.7,0l-0.1-2.2l-0.1-2.1
	l-1.6-0.1c-2-0.2-2.9-0.7-3.1-1.7c-0.3-1-0.3-29.4,0-30.4c0.3-1.1,1.3-1.7,3.2-1.8l1.6-0.1v-3.2L172.2,41
	C162.3,40.9,161.1,41,160.9,41.4L160.9,41.4z"/>
</svg>
