<svg width="200" height="120" viewBox="0 0 200 120" fill="none" xmlns="http://www.w3.org/2000/svg">
<path d="M13 75.8912V44.525H24.4178C27.9175 44.525 30.608 45.1666 32.489 46.4498C34.3701 47.733 35.3107 49.5412 35.3107 51.8744C35.3107 53.5659 34.7347 55.046 33.5827 56.3146C32.4453 57.5833 30.9871 58.4655 29.2081 58.9613V59.0488C31.4391 59.3258 33.2182 60.1497 34.5451 61.5205C35.8867 62.8912 36.5575 64.5608 36.5575 66.5294C36.5575 69.4021 35.5294 71.6842 33.4733 73.3758C31.4173 75.0527 28.6102 75.8912 25.0522 75.8912H13ZM20.0651 49.7308V57.1677H23.1711C24.6293 57.1677 25.774 56.8177 26.6052 56.1178C27.4509 55.4032 27.8738 54.4262 27.8738 53.1868C27.8738 50.8828 26.1531 49.7308 22.7117 49.7308H20.0651ZM20.0651 62.4173V70.6853H23.8929C25.5261 70.6853 26.802 70.3062 27.7207 69.5479C28.6539 68.7897 29.1206 67.7543 29.1206 66.4419C29.1206 65.1879 28.6612 64.2036 27.7426 63.489C26.8385 62.7745 25.5698 62.4173 23.9366 62.4173H20.0651Z" fill="black"/>
<path d="M60.5524 75.8912H41.7414V44.525H59.8306V50.2776H48.8065V57.2552H59.065V62.986H48.8065V70.1604H60.5524V75.8912Z" fill="black"/>
<path d="M84.263 75.8912H65.5833V44.525H72.6483V70.1604H84.263V75.8912Z" fill="black"/>
<path d="M107.186 75.8912H88.5064V44.525H95.5714V70.1604H107.186V75.8912Z" fill="black"/>
<path d="M121.119 44.525V49.9933H118.495V70.4229H121.119V75.8912H108.805V70.4229H111.43V49.9933H108.805V44.525H121.119Z" fill="black"/>
<path d="M153.864 75.8912H146.733L133.806 56.1834C133.048 55.0314 132.523 54.1638 132.231 53.5805H132.144C132.26 54.6887 132.318 56.3802 132.318 58.6551V75.8912H125.647V44.525H133.259L145.705 63.6203C146.274 64.4806 146.799 65.3337 147.28 66.1795H147.367C147.251 65.4503 147.192 64.014 147.192 61.8704V44.525H153.864V75.8912Z" fill="black"/>
<path d="M186.783 73.7913C183.721 75.5558 179.915 76.438 175.365 76.438C170.32 76.438 166.339 75.0454 163.422 72.2602C160.52 69.4604 159.069 65.6108 159.069 60.7111C159.069 55.7824 160.659 51.765 163.838 48.659C167.017 45.553 171.246 44 176.524 44C179.849 44 182.78 44.4593 185.317 45.378V52.0056C182.897 50.6057 179.937 49.9058 176.437 49.9058C173.506 49.9058 171.114 50.8609 169.262 52.7712C167.425 54.6668 166.506 57.2041 166.506 60.3831C166.506 63.6057 167.33 66.0993 168.978 67.8637C170.64 69.6281 172.879 70.5104 175.693 70.5104C177.385 70.5104 178.726 70.2698 179.718 69.7885V63.664H173.44V58.0207H186.783V73.7913Z" fill="black"/>
<rect x="0.5" y="0.5" width="199" height="119" stroke="black"/>
</svg>
