<svg width="200" height="120" viewBox="0 0 200 120" fill="none" xmlns="http://www.w3.org/2000/svg">
<path d="M62.9096 47.1684C62.2942 43.3575 57.6522 41.0744 52.1275 42.1776C48.8339 42.7966 45.6376 44.8535 43.5747 47.1927C46.0823 47.4103 48.4678 48.3719 50.4252 49.9541C52.3826 51.5363 53.8226 53.667 54.5607 56.073C61.2039 54.794 63.4931 51.4431 62.9096 47.1684Z" fill="#9CC716"/>
<path d="M49.1947 56.5686H49.55C48.9367 55.2117 47.9453 54.0601 46.6946 53.2516C45.4438 52.4431 43.9866 52.012 42.4972 52.0098C42.0849 52.0129 41.6734 52.0485 41.2666 52.1164C41.2673 52.2916 41.2804 52.4665 41.3059 52.6399C41.867 55.5607 45.1007 56.5686 49.1947 56.5686Z" fill="#9CC716"/>
<path d="M42.4973 51.1106C44.2215 51.1132 45.9056 51.6308 47.3336 52.597C48.7615 53.5632 49.8681 54.934 50.5114 56.5334C51.5083 56.4866 52.5407 56.3931 53.5899 56.2566L53.674 56.2417C52.9424 53.9278 51.5108 51.8977 49.5766 50.4315C47.6425 48.9652 45.3011 48.135 42.8751 48.0552C42.0971 49.1061 41.5659 50.185 41.3564 51.1948C41.7344 51.1411 42.1156 51.113 42.4973 51.1106Z" fill="#9CC716"/>
<path d="M35.7982 62.9321C35.6823 62.9321 35.5607 62.9321 35.4429 62.9321C36.0568 64.2889 37.0486 65.4402 38.2997 66.2483C39.5507 67.0564 41.0081 67.4872 42.4975 67.4891C42.9093 67.4869 43.3203 67.4512 43.7263 67.3825C43.7265 67.2079 43.7134 67.0335 43.687 66.8608C43.1222 63.9419 39.8922 62.9321 35.7982 62.9321Z" fill="#E51473"/>
<path d="M42.4975 68.392C40.773 68.3895 39.0886 67.872 37.6603 66.9058C36.2321 65.9396 35.1251 64.5688 34.4815 62.9692C33.4846 63.016 32.4522 63.1114 31.403 63.246L31.3188 63.2609C32.0503 65.575 33.4818 67.6052 35.416 69.0715C37.3502 70.5378 39.6918 71.3679 42.1178 71.4474C42.8977 70.3966 43.427 69.3176 43.6383 68.3097C43.2602 68.3617 42.8791 68.3892 42.4975 68.392Z" fill="#E51473"/>
<path d="M30.4324 63.4199C23.7892 64.7083 21.5019 68.0592 22.0835 72.3413C22.6989 76.1466 27.3409 78.4372 32.8656 77.334C36.1592 76.7094 39.3555 74.6563 41.4184 72.3189C38.9087 72.0991 36.5219 71.1346 34.5644 69.5489C32.6069 67.9633 31.168 65.829 30.4324 63.4199Z" fill="#E51473"/>
<path d="M39.2283 52.7373C37.8916 53.3592 36.7602 54.3495 35.9667 55.592C35.1733 56.8344 34.7509 58.2773 34.749 59.7514C34.7519 60.1687 34.7882 60.5852 34.8575 60.9967C35.6771 60.8178 36.4204 60.3876 36.984 59.7663C38.2072 58.478 38.9702 55.7198 39.2283 52.7373Z" fill="#00A0E8"/>
<path d="M33.8548 59.7515C33.8573 58.0244 34.3768 56.3375 35.3464 54.9082C36.316 53.4788 37.6914 52.3724 39.2954 51.7314C39.3474 50.6556 39.3318 49.5777 39.2487 48.5039C36.8091 49.2091 34.6642 50.6868 33.1365 52.7151C31.6087 54.7433 30.7805 57.2124 30.7764 59.7515C30.7764 59.7982 30.7764 59.8431 30.7764 59.8898C31.8069 60.6079 32.8973 61.0455 33.9558 61.0754C33.8881 60.6373 33.8543 60.1947 33.8548 59.7515Z" fill="#00A0E8"/>
<path d="M39.1629 47.5933C38.9309 45.6729 38.4559 43.9769 37.719 42.8961C36.5295 41.1533 34.9641 40.2427 33.2304 40.2427C31.3937 40.2427 29.3701 41.2693 27.4026 43.4215C23.5854 47.6064 25.3303 53.1919 27.7766 56.784C28.3804 57.6743 29.0929 58.4859 29.8975 59.1999C30.0182 56.5349 30.9796 53.9765 32.6441 51.8915C34.3085 49.8065 36.5905 48.3019 39.1629 47.5933Z" fill="#00A0E8"/>
<path d="M45.832 71.9079C46.0621 73.8376 46.5427 75.5205 47.274 76.607C48.4654 78.3479 50.0289 79.2604 51.7627 79.2604C53.5993 79.2604 55.6229 78.2338 57.5904 76.0815C61.4076 71.8966 59.6627 66.3093 57.2164 62.7191C56.6138 61.8284 55.9026 61.0162 55.0992 60.3013C54.9785 62.9665 54.0168 65.5251 52.352 67.6101C50.6871 69.6952 48.4048 71.1997 45.832 71.9079Z" fill="#F9BE00"/>
<path d="M45.7646 66.7652C47.3021 66.0625 48.5642 64.8715 49.3547 63.3774C50.1451 61.8834 50.4196 60.17 50.1355 58.5039C49.3159 58.6829 48.5725 59.113 48.009 59.7343C46.7858 61.0246 46.0227 63.7827 45.7646 66.7652Z" fill="#F9BE00"/>
<path d="M51.1399 59.7511C51.137 61.4781 50.617 63.1647 49.6471 64.5937C48.6771 66.0227 47.3015 67.1287 45.6975 67.7694C45.6442 68.8456 45.6586 69.9242 45.7405 70.9987C48.1796 70.2929 50.3239 68.815 51.8512 66.7868C53.3786 64.7587 54.2066 62.2899 54.2109 59.7511C54.2109 59.7044 54.2109 59.6577 54.2109 59.6109C53.1804 58.8947 52.09 58.4572 51.0315 58.4272C51.1009 58.8652 51.1371 59.3077 51.1399 59.7511Z" fill="#F9BE00"/>
<path d="M95.6633 53.7116H110.231C110.269 53.7093 110.307 53.719 110.34 53.7392C110.373 53.7595 110.399 53.7893 110.414 53.8247C110.429 53.8601 110.433 53.8993 110.425 53.9369C110.417 53.9746 110.397 54.0088 110.369 54.0351C110.369 54.0351 100.907 63.0107 95.854 68.0595C94.9525 68.9589 95.2256 70.4904 96.4974 70.4904H116.745V67.893H102.146C102.107 67.8957 102.069 67.8864 102.036 67.8663C102.002 67.8462 101.976 67.8163 101.961 67.7809C101.946 67.7454 101.942 67.706 101.95 67.6682C101.958 67.6303 101.977 67.5959 102.005 67.5695L116.547 53.5452C117.441 52.6457 117.173 51.1143 115.905 51.1143H95.6633V53.7116Z" fill="#717171"/>
<path d="M151.231 53.7116H165.799C165.837 53.7089 165.876 53.7183 165.909 53.7383C165.942 53.7584 165.968 53.7883 165.983 53.8237C165.999 53.8592 166.003 53.8986 165.995 53.9364C165.987 53.9743 165.967 54.0087 165.939 54.0351C165.939 54.0351 156.477 63.0107 151.424 68.0595C150.522 68.9589 150.794 70.4904 152.067 70.4904H172.315V67.893H157.715C157.677 67.8957 157.638 67.8864 157.605 67.8663C157.572 67.8462 157.546 67.8163 157.531 67.7809C157.516 67.7454 157.512 67.706 157.519 67.6682C157.527 67.6303 157.547 67.5959 157.575 67.5695L172.117 53.5452C173.011 52.6457 172.741 51.1143 171.473 51.1143H151.231V53.7116Z" fill="#717171"/>
<path d="M145.082 51.1177H144.261V70.4844H145.082H147.751H148.34V51.1177H147.751H145.082Z" fill="#717171"/>
<path d="M93.2226 59.4277H77.8677V61.9297H93.2226V59.4277Z" fill="#717171"/>
<path d="M76.061 56.9575C76.061 55.1343 77.2467 53.7095 79.2105 53.7095H93.5106V51.1196H77.5291C72.8534 51.1196 71.0112 54.3901 71.0112 57.4194V64.1885C71.0112 67.2159 72.8478 70.4882 77.5291 70.4882H93.5106V67.9003H79.2105C77.2467 67.9003 76.061 66.4717 76.061 64.6504V56.9575Z" fill="#717171"/>
<path d="M138.186 51.1196L130.443 65.3871C130.431 65.4077 130.414 65.4249 130.394 65.4369C130.374 65.4489 130.351 65.4552 130.327 65.4552C130.303 65.4552 130.28 65.4489 130.26 65.4369C130.239 65.4249 130.222 65.4077 130.211 65.3871L122.475 51.1196H117.8L128.245 69.8076C128.359 70.0135 128.526 70.185 128.728 70.3041C128.931 70.4232 129.162 70.4855 129.397 70.4845H131.268C131.502 70.4852 131.733 70.4227 131.935 70.3036C132.138 70.1845 132.304 70.0132 132.418 69.8076L142.861 51.1196H138.186Z" fill="#717171"/>
<path d="M175.877 51.5198H175.144V53.7132H174.622V51.5198H173.893V51.1196H175.877V51.5198Z" fill="#717171"/>
<path d="M176.846 51.1196L177.508 53.0307L178.176 51.1196H178.855V53.7132H178.335V52.9391L178.386 51.7947H178.374L177.681 53.7151H177.331L176.639 51.8021L176.687 52.9391V53.7132H176.167V51.1196H176.846Z" fill="#717171"/>
<rect x="0.5" y="0.5" width="199" height="119" stroke="black"/>
</svg>
