<?xml version="1.0" encoding="utf-8"?>
<!-- Generator: Adobe Illustrator 24.0.1, SVG Export Plug-In . SVG Version: 6.00 Build 0)  -->
<svg version="1.1" id="Слой_1" xmlns="http://www.w3.org/2000/svg" xmlns:xlink="http://www.w3.org/1999/xlink" x="0px" y="0px"
	 viewBox="0 0 200 120" style="enable-background:new 0 0 200 120;" xml:space="preserve">
<style type="text/css">
	.st0{display:none;fill-rule:evenodd;clip-rule:evenodd;fill:#FFFFFF;}
	.st1{fill-rule:evenodd;clip-rule:evenodd;}
</style>
<g>
	<path class="st0" d="M13.5-26.5h173v173h-173V-26.5z"/>
	<path class="st1" d="M49.6,41.3c-2.2-0.7-3.8,1.8-2.5,3.2c5.7,3,9.6,9,9.6,15.8c0,9.9-8.2,18-18.3,18h-0.2
		c-10-0.1-18.2-8.2-18.2-18c0-6.7,3.8-12.6,9.3-15.7c1.2-1.6-0.2-3.6-2-3.4C20.6,45,16.1,52.1,16.1,60.3c0,12,9.9,21.9,22.2,22h0.2
		c12.3,0,22.3-9.9,22.3-22C60.7,52.2,56.2,45.1,49.6,41.3z M70.3,71.2h4.3V51.1h-4.3V71.2z"/>
	<path class="st1" d="M38.2,43.7C38.3,43.7,38.3,43.8,38.2,43.7c1.7,0,3.1-1.4,3.1-3c0-1.7-1.3-3-3-3c0,0,0,0,0,0h-0.1
		c-1.6,0-3,1.4-3,3C35.3,42.4,36.6,43.7,38.2,43.7L38.2,43.7z M88.8,51.1H79v20.1h4.3V55.1h5c2.6,0,4.3,1.3,4.3,4.2v11.9h4.3V58
		C96.9,53.7,93.2,51.1,88.8,51.1z M38.2,48.5c-1.3,0-2.4,1.1-2.4,2.4c0,0,0,0,0,0v20.7c0,1.3,1.1,2.4,2.4,2.4c1.3,0,2.4-1.1,2.4-2.4
		V50.8C40.6,49.5,39.5,48.5,38.2,48.5z M131,50.6c-5.2,0.2-8.6,3.7-9.1,10.3c-0.3,5.1,2.4,10.3,9.1,10.8c0.1,0,0.3,0,0.5,0
		c3,0,5.1-0.2,7.1-1l0.1-3.8c-2.6,1.1-5.4,1.4-7.6,1c-2.7-0.5-4.6-2.1-4.5-4.9h12.8C140.9,55.6,137,50.6,131,50.6L131,50.6z
		 M135.7,59.5h-9.6v-0.1c0-3,2.2-5.3,4.8-5.3C133.6,54.1,135.7,56.5,135.7,59.5L135.7,59.5L135.7,59.5z M161.9,71.2h4.3V51.1h-4.3
		V71.2z M151.4,59.6c-7.3-1.2-5.4-7.4,5.6-4.5v-3.6c-3.1-1-8-1.2-10.7,0c-5.5,2.7-5.1,11,4,11.9c5.9,0.7,4.9,7.5-7.5,3.5v3.9
		c3.9,1.1,8.8,1.6,12.2,0c2.2-1.4,3.1-3.2,3.1-5.1C158.3,62.6,156.2,60.3,151.4,59.6z M178.9,51.1h-9.3v4h5v16.1h4.3V55.1h5v-4
		H178.9z M110.1,51.3c-0.6-0.1-1.3-0.1-2-0.1h-6.8v20.1h6.9c0.7,0,1.3,0,1.9-0.1c7.2-0.8,8.8-6,8.7-9.6
		C118.8,56,115.9,52,110.1,51.3z M110.1,67.3c-0.6,0.1-1.3,0.2-2.2,0.2h-2.3V54.9h2.2c0.8,0,1.6,0.1,2.2,0.3c3,0.7,4.4,3.1,4.5,6.3
		C114.6,63.5,113.7,66.4,110.1,67.3L110.1,67.3z"/>
</g>
</svg>
