<svg width="200" height="120" viewBox="0 0 200 120" fill="none" xmlns="http://www.w3.org/2000/svg">
<path fill-rule="evenodd" clip-rule="evenodd" d="M162.3 48H180.3C185.9 48 188.1 51.8 188.1 55.1C188.1 60.7 183 61.7 183 61.7L189.5 72.1H176.3L173.5 65.2V72.1H149.6L146.8 65.2V72.1H135.5V48H153.5C159.1 48 161.3 51.8 161.3 55.1C161.3 60.7 156.2 61.7 156.2 61.7L162.2 71.3V48H162.3ZM72.5 52.6V57.2H74.1C75 57.2 75.6 56.7 75.9 56.1C76.1 55.6 76.3 54.7 75.9 53.8C75.4 52.7 74.4 52.7 74.1 52.7L72.5 52.6ZM61 48C61 48 77.4 48 80.2 48C85.6 48 86.8 52 86.8 54.4C86.8 58.6 83.8 59.7 83.8 59.7C83.8 59.7 87 60.9 87 65.4C87 72.4 80.5 72.2 79.5 72.2H61V48ZM134.4 72.2V66.7H129.2V62.3H134.4V57.5H129.2V52.9H134.4V48.2H117.3V72.3L134.4 72.2ZM103.8 72.2H115.7V48H103.8V57.1H99.9V48H87.8V72.1H100V62H103.9L103.8 72.2ZM59.9 72.2V66.7H54.7V62.3H59.9V57.5H54.7V52.9H59.9V48.2H42.7V72.3L59.9 72.2ZM29.5 48H41.2V72.1H29.5V48ZM28.3 72.2V65.5H23.1V48H11V72.1L28.3 72.2ZM146.6 52.6V58.3H148C149.5 58.3 150.1 57.6 150.4 56.8C150.7 56.2 150.8 55.1 150.4 53.9C150.2 53.3 149.5 52.5 148 52.5H146.6V52.6ZM173.4 52.6V58.3H174.8C176.3 58.3 176.9 57.6 177.2 56.8C177.5 56.2 177.6 55.1 177.2 53.9C177 53.3 176.3 52.5 174.8 52.5H173.4V52.6ZM72.4 62.4V67.3H74C74.9 67.3 75.7 66.7 76.1 66.1C76.4 65.6 76.5 64.5 76.1 63.6C75.5 62.3 74.2 62.4 74.1 62.4H72.4Z" fill="black"/>
<rect x="0.5" y="0.5" width="199" height="119" stroke="black"/>
</svg>
