<svg width="200" height="120" viewBox="0 0 200 120" fill="none" xmlns="http://www.w3.org/2000/svg">
<path d="M59.5713 57.0893C58.6593 57.7273 57.04 58.0447 54.7033 58.0447H46.0747V49.6247H54.7033C57.086 49.6247 58.722 49.9393 59.606 50.5687C60.4953 51.198 60.9387 52.2787 60.9387 53.8153C60.9387 55.362 60.4833 56.452 59.5713 57.0893ZM61.302 63.1413C63.49 62.6727 65.1573 61.628 66.324 60.004C67.4853 58.3793 68.0633 56.286 68.0633 53.7207C68.0633 50.2627 67.122 47.72 65.2433 46.0953C63.3613 44.4733 60.4 43.6613 56.3627 43.6613H39.044V77.1193H46.0747V63.9627H54.36L61.7333 77.1193H69.6593L61.302 63.1413ZM86.1267 77.12H98.0307V71.2907H86.4667C83.4493 71.2907 81.3247 70.5413 80.0947 69.0373C78.8707 67.5353 78.2527 64.95 78.2527 61.2773C78.2527 57.0413 78.8907 54.0013 80.1747 52.1507C81.456 50.3 83.558 49.3733 86.4667 49.3733H98.0307V43.662H86.3327C80.944 43.662 76.9687 45.0687 74.4087 47.8833C71.84 50.698 70.5587 55.0653 70.5587 60.9833C70.5587 64.032 70.9853 66.6513 71.8453 68.848C72.7013 71.0393 73.988 72.8147 75.7013 74.182C77.0253 75.246 78.4327 75.9987 79.9373 76.4473C81.436 76.894 83.5013 77.12 86.1267 77.12ZM128.917 77.12V43.662H121.881V57.2267H108.973V43.662H101.947V77.12H108.973V63.1453H121.881V77.12H128.917ZM156.29 69.1873C154.814 71.0893 152.543 72.0447 149.483 72.0447C146.374 72.0447 144.1 71.0807 142.65 69.1647C141.203 67.2453 140.479 64.222 140.479 60.0953C140.479 56.2853 141.226 53.4393 142.719 51.5573C144.212 49.6787 146.468 48.7373 149.483 48.7373C152.543 48.7373 154.814 49.684 156.29 51.5833C157.766 53.4767 158.507 56.414 158.507 60.39C158.507 64.3507 157.766 67.2827 156.29 69.1873ZM162.07 47.2587C159.35 44.4213 155.151 43 149.483 43C143.854 43 139.667 44.404 136.915 47.2133C134.164 50.0187 132.785 54.3 132.785 60.0467C132.785 66.164 134.135 70.6547 136.839 73.5233C139.532 76.3893 143.751 77.8247 149.483 77.8247C155.151 77.8247 159.351 76.398 162.07 73.5433C164.793 70.6947 166.155 66.31 166.155 60.39C166.155 54.472 164.793 50.096 162.07 47.2587ZM170.904 61.1973C172.686 62.736 175.503 63.5107 179.361 63.5107H187.664C189.486 63.5107 190.776 63.8027 191.523 64.3947C192.275 64.9893 192.649 65.9793 192.649 67.3747C192.649 68.7247 192.243 69.6973 191.419 70.278C190.601 70.8647 189.191 71.156 187.186 71.156H169.571V77.1193H188.302C192.338 77.1193 195.298 76.3127 197.183 74.694C199.059 73.078 200 70.5473 200 67.1033C200 63.7053 199.185 61.2767 197.555 59.8187C195.924 58.3653 193.181 57.636 189.326 57.636H180.019C178.549 57.636 177.437 57.3327 176.695 56.724C175.949 56.1173 175.583 55.208 175.583 53.9953C175.583 52.4767 176.018 51.3693 176.887 50.672C177.759 49.9707 179.133 49.622 180.997 49.622H198.384V43.662H179.973C175.889 43.662 172.912 44.4793 171.038 46.1153C169.168 47.7573 168.227 50.3513 168.227 53.904C168.227 57.23 169.116 59.658 170.904 61.1973ZM26.908 52.532L28.1667 52.5207L28.1233 63.192H18.4933L26.908 52.532ZM13.9487 69.152H28.1407L28.112 77.1233H35.3713L35.2733 43.66H25.5927L0 77.1233H7.75333L13.9487 69.152Z" fill="black"/>
<rect x="0.5" y="0.5" width="199" height="119" stroke="black"/>
</svg>
