<?xml version="1.0" encoding="utf-8"?>
<!-- Generator: Adobe Illustrator 24.0.1, SVG Export Plug-In . SVG Version: 6.00 Build 0)  -->
<svg version="1.1" id="Слой_1" xmlns="http://www.w3.org/2000/svg" xmlns:xlink="http://www.w3.org/1999/xlink" x="0px" y="0px"
	 viewBox="0 0 200 120" style="enable-background:new 0 0 200 120;" xml:space="preserve">
<style type="text/css">
	.st0{fill:#EEB111;}
</style>
<path d="M44.2,71.9l-5.9-22.6l-6,22.6h-4.8l-8.4-31.1h4.8l5.9,22.6l6-22.6h4.8l6,22.6l5.9-22.6h4.8L49,71.9H44.2z M59.6,40.9
	l4.8-0.4v7.6L64.4,51h0.2c2.2-0.8,4-1.3,6.2-1.3c3.9,0,6.5,1.8,6.5,8.6v13.6h-4.8V58.7c0-4.1-2-4.6-4.2-4.6c-1.4,0-2.6,0.3-3.8,0.7
	v17.1h-4.8L59.6,40.9z M83.8,41.2c2.5,0,2.9,1.5,2.9,3.1c0,1.6-0.5,3.2-2.9,3.2c-2.4,0-2.8-1.5-2.8-3.2S81.4,41.2,83.8,41.2
	 M81.4,50.1h4.8v21.9h-4.8V50.1z M90.3,50.1h3.3l0.6,1.8h0.3c1.3-1.1,3.3-2.1,5.9-2.1c0.3,0,0.6,0,1,0v4.8c-0.9-0.1-1.8-0.3-2.7-0.3
	c-1.3,0-2.4,0.3-3.6,0.9v16.7h-4.8L90.3,50.1L90.3,50.1z M103.5,71.9v-31l4.8-0.4v31.4H103.5z M142.5,49.7c6.8,0,9.4,4.1,9.4,11.4
	c0,6.8-2.5,11.3-9.5,11.3s-9.6-4.5-9.6-11.3C132.8,53.8,135.7,49.7,142.5,49.7 M147,61.1c0-4.1-0.6-7.5-4.5-7.5
	c-3.9,0-4.9,3.2-4.9,7.5c0,4,0.8,7.4,4.6,7.4C146.2,68.5,147,65.2,147,61.1 M164.1,49.7c6.8,0,9.4,4.1,9.4,11.4
	c0,6.8-2.5,11.3-9.5,11.3c-7.1,0-9.6-4.5-9.6-11.3C154.4,53.8,157.2,49.7,164.1,49.7 M168.6,61.1c0-4.1-0.6-7.5-4.5-7.5
	c-3.9,0-4.9,3.2-4.9,7.5c0,4,0.8,7.4,4.6,7.4C167.7,68.5,168.6,65.2,168.6,61.1 M176.7,71.9v-31l4.8-0.4v31.4H176.7z M129.9,81.9
	c-0.3,0.1-0.9,0.2-1.3,0.2c-1.7,0-2.6-0.7-2.6-2.7c0-2,1.3-2.7,2.8-2.7c0.5,0,0.8,0.1,1.1,0.2v1c-0.2,0-0.7-0.1-1.1-0.1
	c-0.9,0-1.6,0.1-1.6,1.7c0,1.6,0.7,1.7,1.6,1.7c0.4,0,0.8-0.1,1.2-0.2L129.9,81.9z M131.1,79.4c0-2,1-2.7,2.4-2.7
	c1.4,0,2.4,0.7,2.4,2.7c0,1.9-0.9,2.7-2.4,2.7C132,82.1,131.1,81.4,131.1,79.4 M134.6,79.4c0-1.4-0.5-1.8-1.2-1.8
	c-0.7,0-1.2,0.5-1.2,1.8c0,1.3,0.5,1.8,1.2,1.8S134.6,80.8,134.6,79.4 M137.2,76.8h1.4c1.6,0,2.2,0.4,2.2,1.6c0,1-0.5,1.3-1.1,1.4
	v0.1l0.2,0c0.5,0.2,0.9,1.3,1.2,1.9V82h-1.2c-0.2-0.7-0.5-1.8-1-1.9h-0.6V82h-1.1L137.2,76.8z M138.7,79.3c0.6,0,1-0.2,1-0.8
	s-0.4-0.8-1-0.8h-0.4v1.6H138.7z M142.5,76.8h1.4c1.5,0,2.3,0.4,2.3,1.7c0,1.3-0.9,1.7-2,1.7h-0.6V82h-1.1L142.5,76.8L142.5,76.8z
	 M143.6,79.4h0.4c0.6,0,1-0.2,1-0.9c0-0.7-0.3-0.8-0.9-0.8h-0.5V79.4z M147.1,79.4c0-2,1-2.7,2.4-2.7c1.4,0,2.4,0.7,2.4,2.7
	c0,1.9-0.9,2.7-2.4,2.7C148,82.1,147.1,81.4,147.1,79.4 M150.6,79.4c0-1.4-0.5-1.8-1.2-1.8c-0.7,0-1.2,0.5-1.2,1.8
	c0,1.3,0.5,1.8,1.2,1.8S150.6,80.8,150.6,79.4 M153.3,76.8h1.4c1.6,0,2.2,0.4,2.2,1.6c0,1-0.5,1.3-1.1,1.4v0.1l0.2,0
	c0.5,0.2,0.9,1.3,1.2,1.9V82h-1.2c-0.2-0.7-0.5-1.8-1-1.9h-0.6V82h-1.1L153.3,76.8z M154.7,79.3c0.6,0,1-0.2,1-0.8s-0.4-0.8-1-0.8
	h-0.4v1.6H154.7z M158,81.9l1.8-5.2h1.1l1.9,5.2V82h-1.2l-0.4-1.2h-1.6l-0.4,1.2H158L158,81.9z M161,80.1l-0.5-1.8l-0.1-0.3h-0.1
	l-0.1,0.3l-0.5,1.8H161z M164.8,77.7l-1.4,0v-0.9h4v0.9l-1.5,0V82h-1.1L164.8,77.7L164.8,77.7z M168.6,76.8h1.1V82h-1.1V76.8z
	 M171,79.4c0-2,1-2.7,2.4-2.7s2.4,0.7,2.4,2.7c0,1.9-0.9,2.7-2.4,2.7C171.9,82.1,171,81.4,171,79.4 M174.6,79.4
	c0-1.4-0.5-1.8-1.2-1.8c-0.7,0-1.2,0.5-1.2,1.8c0,1.3,0.5,1.8,1.2,1.8C174.1,81.2,174.6,80.8,174.6,79.4 M177.2,76.8h1l1.9,2.8
	l0.3,0.5h0.1v-3.2h1.1V82h-1l-1.9-2.9l-0.2-0.4h-0.1V82h-1.1L177.2,76.8L177.2,76.8z"/>
<path class="st0" d="M143.7,26.2c-4-4.3-19,3.9-34.3,16.8v1.7c15-12.7,29.1-20.2,32.3-16.7c1.7,1.8,0.2,7.4-3.5,13.8
	c-0.5,0.3-1.1,0.8-1.7,1.6c-4.7,7-11.7,15.4-19.3,22.7C97.7,84.8,78.8,96.1,75,92c-2.2-2.4,1.4-10,7.9-19h-1.8
	c-6.9,9.6-10.6,17.9-7.9,20.9c4.8,5.2,26.6-7.5,46.1-26.2c8.8-8.5,15.5-15.6,19.6-22c1.2-1.8,1.2-3.2,0.7-3.7
	C144.4,34.5,146,28.8,143.7,26.2"/>
<path d="M117,55.1c1.2-0.4,2.4-0.6,3.6-0.6c2.5,0,4.1,0.7,4.7,3.2c1.2-1.4,2.4-2.8,3.6-4.2c-1.3-2.5-3.5-3.7-6.1-3.7
	c-2.4,0-4.9,1.1-6.3,1.9h-0.2l-0.4-1.6h-3.6v20.6c1.6-1.4,3.1-2.8,4.6-4.3C117,61.7,117,59.4,117,55.1 M125.4,61.7
	c-0.3,5-2.2,6.3-4.9,6.3c-0.5,0-1,0-1.5,0c-2.2,2.1-4.5,4.2-6.8,6.2v8.2l4.8-0.5v-10h0.1c1.3,0.3,2.8,0.4,4.2,0.4
	c5.6,0,9-3.8,9-11.4c0-1.5-0.1-2.8-0.3-3.9C128.5,58.5,127,60.1,125.4,61.7"/>
</svg>
