<svg width="200" height="120" viewBox="0 0 200 120" fill="none" xmlns="http://www.w3.org/2000/svg">
<g clip-path="url(#clip0_654_1195)">
<mask id="mask0_654_1195" style="mask-type:luminance" maskUnits="userSpaceOnUse" x="28" y="87" width="144" height="19">
<path d="M28 87.3191H171.705V105.403H28V87.3191Z" fill="#636466"/>
</mask>
<g mask="url(#mask0_654_1195)">
<path fill-rule="evenodd" clip-rule="evenodd" d="M90.3979 88.271V104.452H117.816V101.596H94.1792V97.7894H110.252V94.9327H94.1792V91.1259H117.816V88.271H90.3979ZM146.179 88.271H119.707V91.1259H131.052V104.452H134.833V91.1259H146.179V88.271ZM157.524 88.271H151.851L137.67 104.452H142.397L146.568 99.6923H162.808L166.977 104.452H171.705L157.524 88.271ZM149.07 96.8365L154.687 90.4279L160.304 96.8365H149.07ZM88.5077 93.0307C88.5077 90.4016 86.3904 88.271 83.7808 88.271H61.0891V104.452H64.8714V97.7894H73.8813L79.1824 101.734C81.8832 103.45 85.0773 104.451 88.5077 104.451L79.5537 97.7894H83.7808C86.3904 97.7894 88.5077 95.6579 88.5077 93.0307ZM43.1756 105.403H43.0974C34.7576 105.394 28 101.35 28 96.3615C28 91.3667 34.7725 87.3191 43.1262 87.3191C48.888 87.3191 53.896 89.2454 56.4507 92.0787H51.2724C49.3227 90.9479 46.5474 90.1749 43.1262 90.1749C36.0922 90.1749 31.7823 93.4411 31.7823 96.3615C31.7823 99.2819 36.0922 102.547 43.1262 102.547C49.0239 102.547 53.0053 100.252 54.1389 97.7894H39.3458V94.9327H58.2534V104.452H54.4711V101.279C52.2813 103.752 48.4692 105.393 43.1756 105.403ZM64.8714 94.9327V91.1259H82.8343C83.8776 91.1259 84.7255 91.9804 84.7255 93.0307C84.7255 94.0791 83.8776 94.9327 82.8343 94.9327H64.8714Z" fill="#636466"/>
</g>
<path fill-rule="evenodd" clip-rule="evenodd" d="M126.527 14.0002C126.125 20.2768 123.006 26.3201 117.489 30.2093L117.43 30.2505L101.003 41.8311L101.012 41.8246C101.009 41.8264 101.006 41.8292 101.003 41.8311C93.3388 47.2345 90.0349 56.5645 91.8878 65.2275C88.9116 63.8427 86.248 61.6783 84.2359 58.785C78.1567 50.0462 80.2749 37.9587 88.9534 31.8396C94.8995 27.6487 102.404 27.3301 108.495 30.3508L113.047 27.1436C105.022 21.9755 94.3672 21.863 86.0786 27.7058C75.1162 35.4337 72.4526 50.644 80.1288 61.6802C87.805 72.7164 102.914 75.3979 113.875 67.671C124.484 60.1933 127.32 45.7091 120.537 34.7797C125.954 29.2611 128.125 21.3899 126.527 14.0002ZM111 63.5363C105.197 67.626 97.9112 68.0252 91.9009 65.234C92.3122 58.9724 95.4309 52.946 100.935 49.0662L116.615 38.014C121.548 46.6011 119.218 57.7422 111 63.5363Z" fill="#00A5CF"/>
</g>
<rect x="0.5" y="0.5" width="199" height="119" stroke="black"/>
<defs>
<clipPath id="clip0_654_1195">
<rect width="144" height="92" fill="white" transform="translate(28 14)"/>
</clipPath>
</defs>
</svg>
