<?xml version="1.0" encoding="utf-8"?>
<!-- Generator: Adobe Illustrator 24.0.1, SVG Export Plug-In . SVG Version: 6.00 Build 0)  -->
<svg version="1.1" id="Слой_1" xmlns="http://www.w3.org/2000/svg" xmlns:xlink="http://www.w3.org/1999/xlink" x="0px" y="0px"
	 viewBox="0 0 200 120" style="enable-background:new 0 0 200 120;" xml:space="preserve">
<style type="text/css">
	.st0{display:none;fill-rule:evenodd;clip-rule:evenodd;fill:#FFFFFF;}
	.st1{fill-rule:evenodd;clip-rule:evenodd;fill:#2866AD;}
</style>
<g>
	<path class="st0" d="M-6-46H206V166H-6V-46z"/>
	<path class="st1" d="M52.1,53.9h7.1l0.3,2.4c0.5-1.9,4.2-3.2,6.4-3.2c5.1,0,7.1,3.1,7.1,8.6v11.9h-7.9V62.9c0-2.1-0.4-3.7-2.5-3.7
		c-2,0-3,2.1-3,3.6v10.7h-7.5L52.1,53.9L52.1,53.9z M5.9,73.6V45.8h13.3c7.9,0,11.5,3.8,11.5,9.4c0,6-3.3,10.1-11.5,10.1h-4.5v8.3
		L5.9,73.6L5.9,73.6L5.9,73.6z M18.2,58.5c2.1,0,4.4-0.5,4.4-2.9c0-2.5-2.4-3.1-4.4-3.1h-3.5v6H18.2z M139.5,53.9h7.2l0.2,2.4
		c0.6-1.9,4.2-3.2,6.4-3.2c5,0,7.1,3.1,7.1,8.6v11.9h-7.9V62.9c0-2.1-0.5-3.7-2.6-3.7c-1.9,0-2.9,2.1-2.9,3.6v10.8h-7.6L139.5,53.9
		L139.5,53.9L139.5,53.9z M103,66.6c0,0.8,0.4,2,0.9,2.4c0.5,0.4,1.3,0.8,2.1,0.8c1.4,0,2.5-0.4,2.5-1.7c0.1-3.3-11.9-0.4-11.9-8.2
		c0-5.5,4.2-6.8,8.6-6.8c4.4,0,10.4,0.9,10.2,6.8h-6.7c0-0.5-0.2-0.9-0.5-1.4c-0.5-0.5-1-0.8-2-0.9c-1.3-0.1-2.6,0.2-2.6,1.2
		c0.1,3.1,12.4,1,12.4,8.2c0,5-3.5,7.3-10.4,7.3c-4.3-0.1-9.7-2.3-9.7-7.7L103,66.6L103,66.6L103,66.6z M184.3,61.5
		c0-0.5,0-1.1-0.6-1.9c-0.3-0.4-1-1.3-2.1-1.3c-3,0-3.8,2.9-3.8,5.3c0,2.7,1.3,5,3.6,5c2,0,3.1-1.9,3.1-3.5h6.9
		c0.2,4.1-2.7,9-10.3,9c-6.2,0-10.6-4.3-10.6-10.6c0-7.6,5.7-10.5,10.5-10.5c6.6,0,10.4,4,10.3,8.5L184.3,61.5L184.3,61.5
		L184.3,61.5z M43.7,73.6L42.9,72c-1.5,1.3-3.1,2-5.6,2c-2.4-0.1-7.2-0.4-7.2-5.7c0-8.6,12.9-4.7,12.9-9c0-1.4-1.6-1.3-2.4-1.3
		c-1.6,0-2.6,0.3-2.8,2.7h-6.6c0-4.1,1.3-7.5,9.9-7.5c8.4,0,9.3,4.4,9.3,8.7v9c0,1.2,0.1,1.7,0.9,2.6v0.2L43.7,73.6z M43.1,64.6
		c-2.7,1.3-6,1.2-6.1,3.1c0,1.3,0.7,1.9,2.3,1.9C41.8,69.6,43.3,67,43.1,64.6z M88,73.6L87.2,72c-1.5,1.3-3.1,2-5.6,2
		c-2.5-0.1-7.3-0.4-7.3-5.7c0-8.6,12.9-4.7,13-9c0-1.4-1.6-1.3-2.4-1.3c-1.6,0-2.6,0.3-2.8,2.7h-6.6c0-4.1,1.2-7.5,9.9-7.5
		c8.3,0,9.2,4.4,9.2,8.7v9c0,1.2,0.1,1.7,0.9,2.6v0.2L88,73.6L88,73.6z M87.4,64.6c-2.7,1.3-6.1,1.2-6.1,3.1c0,1.3,0.6,1.9,2.3,1.9
		C86.1,69.6,87.6,67,87.4,64.6z M169.2,73.6V53.9h-7.3v19.7H169.2z M161.9,51.4h7.3v-5.7h-7.3V51.4z M127.7,53.2
		c6.5,0,10.5,4.6,10.5,10.5c0,6-4,10.5-10.5,10.5c-6.5,0-10.6-4.5-10.6-10.5C117.1,57.8,121.2,53.2,127.7,53.2L127.7,53.2z
		 M124.2,63.7c0,2.4,0.8,5.4,3.5,5.5c2.7,0,3.4-3.1,3.4-5.5c0-2.4-0.7-5.4-3.4-5.4C125,58.3,124.3,61.4,124.2,63.7z M196,69.8
		c0.5,0,1.2,0.1,1.2-0.5c0-0.5-0.5-0.6-0.9-0.6h-0.9v1.2H196L196,69.8z M197.6,71.7h-0.5l-0.9-1.6h-0.8v1.6H195v-3.4h1.4
		c0.6,0,1.2,0.2,1.2,0.9c0,0.6-0.4,0.9-1,0.9L197.6,71.7L197.6,71.7z M198.7,70.1c0-1.5-1.2-2.7-2.6-2.7c-1.5,0-2.7,1.2-2.7,2.6
		c0,0,0,0,0,0c0,1.4,1.2,2.6,2.7,2.6C197.6,72.6,198.7,71.5,198.7,70.1z M193.1,70c0-1.6,1.3-3,3-3s3,1.3,3,3c0,1.7-1.3,3-3,3
		C194.5,73,193.1,71.7,193.1,70z"/>
</g>
</svg>
