<?xml version="1.0" encoding="utf-8"?>
<!-- Generator: Adobe Illustrator 24.0.1, SVG Export Plug-In . SVG Version: 6.00 Build 0)  -->
<svg version="1.1" id="Слой_1" xmlns="http://www.w3.org/2000/svg" xmlns:xlink="http://www.w3.org/1999/xlink" x="0px" y="0px"
	 viewBox="0 0 200 120" style="enable-background:new 0 0 200 120;" xml:space="preserve">
<style type="text/css">
	.st0{display:none;fill:#FE660B;}
	.st1{fill:#FE660B;}
</style>
<g>
	<path class="st0" d="M-1150-1190h2500v2500h-2500V-1190z"/>
	<g>
		<path class="st1" d="M118.8,87V48.3c0-8.8-7.1-15.9-15.9-15.9H58.2c-0.3,0-0.6,0.3-0.6,0.6V87c0,0.3,0.3,0.6,0.6,0.6c0,0,0,0,0,0
			h11.9c0.3,0,0.6-0.3,0.6-0.6V44.6c0-0.3,0.3-0.6,0.6-0.6H97c4.8,0,8.7,3.9,8.7,8.7V87c0,0.3,0.3,0.6,0.6,0.6h11.8
			C118.5,87.6,118.8,87.3,118.8,87"/>
		<path class="st1" d="M94.7,87L94.7,87c0,0.3-0.3,0.6-0.6,0.6H82.1c-0.3,0-0.6-0.3-0.6-0.6c0,0,0,0,0,0V54.5c0-0.3,0.3-0.6,0.6-0.6
			h11.9c0.3,0,0.6,0.3,0.6,0.6V87L94.7,87z M142.4,87c0,0.3-0.3,0.6-0.6,0.6h-11.9c-0.3,0-0.6-0.3-0.6-0.6V33c0-0.3,0.3-0.6,0.6-0.6
			h11.9c0.3,0,0.6,0.3,0.6,0.6v0V87z"/>
	</g>
</g>
</svg>
