<?xml version="1.0" encoding="utf-8"?>
<!-- Generator: Adobe Illustrator 24.0.1, SVG Export Plug-In . SVG Version: 6.00 Build 0)  -->
<svg version="1.1" id="svg2985" xmlns="http://www.w3.org/2000/svg" xmlns:xlink="http://www.w3.org/1999/xlink" x="0px" y="0px"
	 viewBox="0 0 200 120" style="enable-background:new 0 0 200 120;" xml:space="preserve">
<style type="text/css">
	.st0{fill:#002D62;}
</style>
<path id="path3363" class="st0" d="M0,82.8h45.9V37.2H0V82.8z M29.4,40.7c8.1,2.6,14,10.3,14,19.3c0,8.9-5.7,16.5-14,19.3V40.7
	L29.4,40.7z M22.9,39.6c1.5,0,3,0.2,4.3,0.5c0,10.3-10.1,18.8-20.4,18.8H2.5C3.2,48.3,12,39.6,22.9,39.6 M6.8,61.1
	c10.4,0,20.4,8.5,20.4,18.8c-1.3,0.3-2.9,0.5-4.3,0.5c-10.9,0-20-8.7-20.5-19.3H6.8z"/>
<path id="path3365" class="st0" d="M61.3,64v-2.9h9.6v-3.7h-9.6v-5.3h10.2v-3.6H57.4v15.4c0,3.9,1.7,6.5,5.6,7.1c0.1,0,0.2,0,0.2,0
	h0.1c0.4,0,0.8,0.1,1.2,0.1h7.2v-3.6h-7.2C63.3,67.4,61.3,66.8,61.3,64"/>
<path id="path3367" class="st0" d="M74.5,59.1V71h3.9V48.5h-3.9V59.1z"/>
<path id="path3369" class="st0" d="M89.6,54.2c-4.9,0-8.6,3.4-8.6,8.6V63c0,5.1,3.6,8.5,8.7,8.5c2.5,0,4.8-0.7,6.9-2.9l-2.4-2.3
	c-1.2,1.2-2.5,1.9-4.5,1.9c-2.9,0-4.8-1.7-5-4.3h12.8c0.1-0.6,0.1-1.4,0.1-1.4C97.8,57.9,94.5,54.2,89.6,54.2 M85,61.1
	c0.2-2,2.2-3.6,4.6-3.6c2.3,0,4.2,1.6,4.2,3.6H85z"/>
<path id="path3371" class="st0" d="M108.8,57.7c1.8,0,3.1,0.6,4.2,1.8l2.4-2.5c-1.9-2-4.2-2.8-6.6-2.8c-5,0-9,3.7-9,8.7s4,8.7,9,8.7
	c2.4,0,4.7-0.8,6.6-2.8l-2.4-2.5c-1.1,1.1-2.4,1.8-4.2,1.8c-2.9,0-5.1-2.2-5.1-5.1C103.7,59.9,105.9,57.7,108.8,57.7"/>
<path id="path3373" class="st0" d="M121.8,64v-5.7h3.6v-3.5h-3.5v-6.2h-3.9v15.8c0.1,3.7,1.8,6.2,5.6,6.7c0.1,0,0.2,0,0.2,0h0.1
	c0.4,0,0.8,0.1,1.2,0.1h0.4v-3.6H125C123.7,67.4,121.8,66.8,121.8,64"/>
<path id="path3375" class="st0" d="M132.5,57.1v-2.4h-3.9V71h3.9v-8.6c0-2.7,1.7-4.4,4.4-4.4c0.6,0,1.2,0.1,1.6,0.2v-3.8
	c-0.2,0-0.7-0.1-1.2-0.1C135,54.4,133.3,55.5,132.5,57.1"/>
<path id="path3377" class="st0" d="M148.1,54.2c-5,0-9,3.8-9,8.6s4,8.6,9,8.6c4.9,0,9-3.8,9-8.6S153.1,54.2,148.1,54.2 M148.1,68
	c-2.9,0-5.1-2.2-5.1-5.1c0-2.9,2.2-5.1,5.1-5.1c2.9,0,5.1,2.2,5.1,5.1C153.2,65.8,151,68,148.1,68"/>
<path id="path3379" class="st0" d="M159.5,58.7V71h3.9V48.5h-3.9V58.7L159.5,58.7z"/>
<path id="path3381" class="st0" d="M177.5,64.2c0,2.6-1.5,3.7-3.6,3.7c-2,0-3.6-1.1-3.6-3.6v-9.5h-3.9v9.9c0,4.7,3.4,6.9,7.5,6.9
	c4.1,0,7.6-2.3,7.6-7v-5v-4.7h-3.9V64.2L177.5,64.2z"/>
<path id="path3383" class="st0" d="M196.3,65.8l-2.5-3.4l3.1-4.1l2.6-3.5h-4.3l-3.6,4.9l-3.6-4.9h-4.2l2.4,3.3l3.2,4.4l-3.4,4.7
	l-2.8,3.9h4.2l4.2-5.8l4.2,5.8h4.2L196.3,65.8L196.3,65.8z"/>
</svg>
