<?xml version="1.0" encoding="utf-8"?>
<!-- Generator: Adobe Illustrator 24.0.1, SVG Export Plug-In . SVG Version: 6.00 Build 0)  -->
<svg version="1.1" id="Слой_1" xmlns="http://www.w3.org/2000/svg" xmlns:xlink="http://www.w3.org/1999/xlink" x="0px" y="0px"
	 viewBox="0 0 200 120" style="enable-background:new 0 0 200 120;" xml:space="preserve">
<style type="text/css">
	.st0{display:none;fill-rule:evenodd;clip-rule:evenodd;fill:#FFFFFF;}
	.st1{fill-rule:evenodd;clip-rule:evenodd;}
</style>
<g>
	<path class="st0" d="M10.2-29.8h179.6v179.6H10.2V-29.8z"/>
	<path class="st1" d="M66.6,57.2L62,49.9h-8.3l8.9,12.5v6.8h7.7v-6.9l9-12.4h-8.2L66.6,57.2L66.6,57.2z M150.7,61.7
		c0,2.1-0.9,3.9-4.1,3.9c-3.6,0-4.1-2-4.1-3.9V49.9h-7.8V61c0,6.8,3.4,8.8,11.6,8.8c8.8,0,12.1-2.4,12.1-8.7V49.9h-7.8L150.7,61.7
		L150.7,61.7L150.7,61.7z M168.4,55c0-0.7,0.9-1.5,2.8-1.5c0.9,0,1.9,0.1,2.6,0.4c0.5,0.2,1.1,0.7,1.4,1.3l8.4,0
		c-0.8-3.3-4.2-5.9-11.3-5.9c-6.7,0-11.6,2.1-11.5,6.3c0,8,15.2,4.9,15.3,8.5c0,0.9-1.4,1.9-3.6,1.9c-0.9,0-2.2-0.5-2.8-0.9
		c-0.7-0.4-1.3-0.9-1.4-1.6h-8.4c0.2,3.6,5.1,6.6,12.1,6.6c7.3,0,12.4-2.2,12.5-6.8C184.4,56,168.4,58.2,168.4,55L168.4,55z"/>
	<path class="st1" d="M50.4,49.9h-8.3v19.3h18.6v-4.3H50.4V49.9z M93.7,62l-5.4-12.1H80v19.3H87v-9.8l4.4,9.8h4.5l4.3-9.6v9.6h6.9
		V49.9h-8L93.7,62L93.7,62z M26.8,49.4c-8.3,0-14,4-14,10.3c0,6.7,5.6,11,14,11c7.9,0,14-4.2,14-11C40.8,54.4,36.3,49.4,26.8,49.4z
		 M26.8,66.2c-4.4,0-5.4-3.6-5.4-6.4c0-2.8,1.2-6,5.4-6c4-0.1,5.5,3.1,5.5,6C32.3,63.4,30.7,66.2,26.8,66.2z M125.1,49.9h-15v19.3
		h7.7v-7h6.3c7.7,0,9.4-2.2,9.4-6.5C133.4,51.7,130.9,49.9,125.1,49.9L125.1,49.9z M121.8,57.9h-4.1v-4h4c1.9,0,3.6,0.1,3.6,2
		C125.4,57.6,123.9,57.9,121.8,57.9z M185.5,49.8c-0.9,0-1.7,0.8-1.7,1.7s0.8,1.7,1.7,1.7c0.9,0,1.7-0.8,1.7-1.7
		C187.2,50.6,186.4,49.8,185.5,49.8z M185.5,53c-0.8,0-1.5-0.7-1.5-1.5c0-0.8,0.7-1.5,1.5-1.5s1.5,0.7,1.5,1.5
		C187,52.3,186.3,53,185.5,53z"/>
	<path class="st1" d="M186.3,51c0-0.2-0.1-0.3-0.2-0.4c-0.1-0.1-0.3-0.1-0.5-0.1h-0.8v1.9h0.2v-0.9h0.4l0.5,0.9h0.3l-0.6-0.9
		C186.1,51.5,186.3,51.4,186.3,51L186.3,51z M185.4,51.4h-0.4v-0.7h0.5c0.2,0,0.5,0,0.5,0.3C186.1,51.4,185.7,51.4,185.4,51.4
		L185.4,51.4z"/>
</g>
</svg>
