<svg width="200" height="120" viewBox="0 0 200 120" fill="none" xmlns="http://www.w3.org/2000/svg">
<g clip-path="url(#clip0_662_285)">
<path fill-rule="evenodd" clip-rule="evenodd" d="M32.061 34.595L73.0579 43.3919L64.3485 84.7291L23.3516 75.9333L32.0621 34.595" fill="#FBD034"/>
<path fill-rule="evenodd" clip-rule="evenodd" d="M32.0623 34.5847L73.0592 43.3783L72.8295 44.4731H34.8443V47.4231L72.6213 45.4557L71.1913 52.2455H34.8443V55.1966L70.9842 53.2246L69.553 60.0179H34.8443V62.969L69.346 60.9993L67.9159 67.7902H34.8443V70.7414L67.7089 68.7729L64.3486 84.7177L23.3506 75.9231L23.5814 74.8294L62.1798 72.9073V71.9258H24.1935L25.2196 67.0547L62.1786 65.1348V64.1522H25.8317L26.8556 59.2868L62.1775 57.3624V56.381H27.4688L28.4905 51.5337L62.1786 49.59V48.6086H29.1071L32.0611 34.5847M98.6217 48.6086V71.9258H94.6223L83.4103 56.5045V71.9258H78.8406V48.6086H82.96L94.0634 63.8768V48.6086H98.6229H98.6217ZM152.054 52.5673H157.81V48.6086H141.788V52.5673H147.546V71.9258H152.054V52.5673ZM138.888 49.3509C137.324 48.4851 135.546 47.9909 133.735 47.9909C126.958 47.9909 122.327 53.8355 122.327 60.453C122.327 66.8847 127.142 72.5446 133.644 72.5446C135.514 72.5446 137.201 71.9575 138.888 71.1529V65.7412C137.631 67.1941 135.698 68.2152 133.766 68.2152C129.565 68.2152 126.989 64.2882 126.989 60.3612C126.989 56.3402 129.472 52.3191 133.797 52.3191C135.729 52.3191 137.631 53.2484 138.888 54.7943V49.3509ZM118.512 52.5673V48.6086H104.362V71.9258H118.512V67.967H108.868V61.6589H118.235V57.7013H108.868V52.5673H118.512ZM170.085 63.2988H164.595L167.141 54.8249L170.085 63.2988ZM156.652 71.9258L165.435 48.6086H169.392L177.935 71.9258H173.12L171.342 67.0094H163.307L161.406 71.9258H156.652Z" fill="#004A86"/>
</g>
<rect x="0.5" y="0.5" width="199" height="119" stroke="black"/>
<defs>
<clipPath id="clip0_662_285">
<rect width="155" height="51" fill="white" transform="translate(23 34)"/>
</clipPath>
</defs>
</svg>
