<?xml version="1.0" encoding="utf-8"?>
<!-- Generator: Adobe Illustrator 24.0.1, SVG Export Plug-In . SVG Version: 6.00 Build 0)  -->
<svg version="1.1" id="Layer_1" xmlns="http://www.w3.org/2000/svg" xmlns:xlink="http://www.w3.org/1999/xlink" x="0px" y="0px"
	 viewBox="0 0 200 120" style="enable-background:new 0 0 200 120;" xml:space="preserve">
<style type="text/css">
	.st0{fill:#FF0000;}
</style>
<g>
	<path class="st0" d="M184.6,73.6h8l-8.3-27.2H173l-8.3,27.2h8l1.5-5h9L184.6,73.6 M175.9,62.5l2.7-9.4h0l2.7,9.4H175.9z M47.3,74.1
		c8.2,0,12.2-1.4,12.7-8.9c0.1-1.8,0.2-3.6,0.2-5.2c0-1.7,0-3.5-0.2-5.2c-0.6-7.4-4.5-8.9-12.7-8.9s-12.2,1.4-12.7,8.9
		c-0.1,1.8-0.2,3.6-0.2,5.2c0,1.7,0,3.5,0.2,5.2C35.2,72.7,39.1,74.1,47.3,74.1 M42.2,60c0-1.5,0-2.4,0.1-3c0.2-4.2,1.9-4.7,5.1-4.7
		c3.2,0,4.9,0.5,5.1,4.7c0,0.7,0.1,1.5,0.1,3c0,1.5,0,2.4-0.1,3c-0.2,4.2-1.9,4.7-5.1,4.7c-3.2,0-4.9-0.5-5.1-4.7
		C42.2,62.4,42.2,61.5,42.2,60L42.2,60z M7.4,46.4v6.8h8.1v20.4h8.1V53.2h8.1v-6.8H7.4z M132.4,73.6V46.4h-7.7v27.2H132.4z
		 M101.3,56.3v-9.9h-7.7v27.2h7.7V63.1h8.9v10.5h7.7V46.4h-7.7v9.9H101.3z M157.8,59.4c3.4-0.9,4.4-2.9,4.4-5.9c0-6-3.8-7.1-9.1-7.1
		h-13.9v27.2h14.6c6.7,0,9-2.9,9-7.3C162.7,63.2,162,60.5,157.8,59.4 M146.9,62.4h5.3c2.2,0,2.6,0.9,2.6,2.5c0,1.5-0.8,2.5-2.6,2.5
		h-5.3V62.4z M146.9,52.6h5.3c1.4,0,2.2,0.7,2.2,2.2c0,1.4-0.8,2.2-2.2,2.2h-5.3V52.6z M64.7,64.7H72c0,1.3,0.2,2.2,0.8,2.7
		c0.7,0.6,1.4,0.7,3.5,0.7c2.1,0,4.4,0,4.4-2.6c0-2-1.3-2.5-3.6-2.6c-5.8-0.3-7.9-0.5-10.1-2.1c-1.5-1.1-2.2-3.2-2.2-6.1
		c0-4.9,1.7-6.7,4.2-7.9c2.6-1.2,12.6-1.2,15.3,0c3.4,1.6,3.5,5,3.5,8.1h-7.3c0-1.6-0.4-2.1-0.7-2.4c-0.8-0.7-1.8-0.8-3.4-0.8
		c-1.9,0-4.1,0.1-4.1,2.4c0,1.7,0.8,2.5,2.7,2.6c2.7,0.2,8.1,0.3,10,1.5c2.7,1.6,3.4,3.7,3.4,7.2c0,5.1-1.8,6.6-4.3,7.7
		c-2.9,1.3-12.6,1.3-15.8-0.1C64.8,71.5,64.7,68.4,64.7,64.7"/>
</g>
</svg>
