<svg width="200" height="120" viewBox="0 0 200 120" fill="none" xmlns="http://www.w3.org/2000/svg">
<path d="M34.1572 52.3774V47.7147C34.1572 47.3504 34.4542 47.0552 34.8214 47.0552H39.5206C39.887 47.0552 40.1847 47.3504 40.1847 47.7147V52.3774C40.1842 52.4646 40.1665 52.5507 40.1329 52.631C40.0992 52.7113 40.0501 52.7841 39.9884 52.8453C39.9267 52.9065 39.8536 52.9548 39.7734 52.9876C39.6931 53.0204 39.6072 53.0369 39.5206 53.0362H34.8214C34.7348 53.0369 34.6489 53.0204 34.5686 52.9876C34.4883 52.9548 34.4153 52.9065 34.3536 52.8453C34.2919 52.7841 34.2428 52.7113 34.2091 52.631C34.1754 52.5507 34.1578 52.4646 34.1572 52.3774ZM165.767 71.9953L152.801 47.3993C152.744 47.2922 152.659 47.2027 152.555 47.1405C152.451 47.0782 152.333 47.0455 152.212 47.0458H140.653C140.533 47.0454 140.415 47.0778 140.312 47.1394C140.209 47.201 140.124 47.2896 140.067 47.3957L128.495 69.0433C128.472 69.0863 128.439 69.1237 128.4 69.1528C128.361 69.1819 128.316 69.2019 128.268 69.2116C128.22 69.2213 128.17 69.2203 128.123 69.2088C128.076 69.1972 128.031 69.1754 127.993 69.1448L117.064 60.368C116.99 60.309 116.93 60.2346 116.887 60.1499C116.845 60.0652 116.821 59.9722 116.818 59.8774C116.815 59.7826 116.832 59.6882 116.869 59.6009C116.906 59.5135 116.961 59.4352 117.031 59.3715L129.224 48.1827C129.668 47.7766 129.378 47.0408 128.773 47.0408H120.649C120.095 47.0408 119.56 47.2496 119.154 47.6254L109.617 56.7205C109.555 56.7775 109.474 56.8092 109.39 56.809H106.593C106.55 56.8094 106.507 56.8012 106.467 56.7848C106.427 56.7685 106.39 56.7444 106.359 56.7138C106.329 56.6832 106.304 56.6468 106.287 56.6067C106.27 56.5666 106.261 56.5235 106.261 56.48V47.7183C106.26 47.5424 106.189 47.3741 106.065 47.2506C105.94 47.1271 105.772 47.0583 105.597 47.0595H98.9082C98.8216 47.0588 98.7357 47.0753 98.6554 47.1081C98.5752 47.1409 98.5021 47.1892 98.4404 47.2504C98.3787 47.3116 98.3296 47.3844 98.296 47.4647C98.2623 47.545 98.2446 47.6311 98.2441 47.7183V72.2962C98.2441 72.6598 98.5411 72.955 98.9082 72.955H105.597C105.963 72.955 106.261 72.6598 106.261 72.2962V63.1429C106.261 62.9607 106.41 62.8131 106.593 62.8131H109.281C109.361 62.8131 109.437 62.8412 109.498 62.8923L120.412 72.4417C120.803 72.7729 121.301 72.955 121.814 72.9601H135.082C135.204 72.9604 135.324 72.9268 135.429 72.863C135.533 72.7993 135.618 72.7078 135.674 72.5986L137.636 68.7553C137.664 68.7007 137.707 68.6549 137.759 68.623C137.811 68.5912 137.871 68.5744 137.932 68.5745H154.802C154.927 68.5745 155.042 68.6444 155.098 68.7545L157.06 72.5993C157.116 72.7084 157.201 72.7997 157.306 72.8633C157.41 72.927 157.53 72.9604 157.652 72.9601H165.179C165.677 72.9601 165.998 72.4345 165.767 71.9953ZM151.671 62.8973H141.102C141.046 62.898 140.99 62.8841 140.941 62.8568C140.891 62.8296 140.85 62.79 140.82 62.7419C140.79 62.6937 140.773 62.6387 140.771 62.5821C140.768 62.5254 140.78 62.4691 140.806 62.4185L146.1 52.1117C146.128 52.0574 146.171 52.012 146.223 51.9802C146.275 51.9485 146.335 51.9318 146.396 51.9318C146.457 51.9318 146.517 51.9485 146.569 51.9802C146.621 52.012 146.663 52.0574 146.692 52.1117L151.967 62.4193C151.993 62.4697 152.005 62.5259 152.002 62.5825C152 62.6391 151.983 62.694 151.953 62.7421C151.923 62.7902 151.882 62.8297 151.833 62.8569C151.783 62.8841 151.728 62.898 151.671 62.8973ZM77.9479 53.0362H95.2318C95.5989 53.0362 95.8959 52.741 95.8959 52.3774V47.7147C95.8953 47.6275 95.8777 47.5414 95.844 47.4611C95.8103 47.3808 95.7612 47.308 95.6996 47.2468C95.6379 47.1856 95.5648 47.1373 95.4845 47.1045C95.4043 47.0717 95.3184 47.0552 95.2318 47.0559H42.427C42.3404 47.0553 42.2546 47.0719 42.1744 47.1047C42.0942 47.1375 42.0212 47.1859 41.9596 47.2471C41.898 47.3082 41.849 47.381 41.8154 47.4613C41.7817 47.5415 41.7641 47.6276 41.7635 47.7147V52.3774C41.7635 52.741 42.0606 53.0362 42.427 53.0362H48.8123C48.8557 53.0358 48.8987 53.0441 48.9389 53.0605C48.979 53.0768 49.0156 53.101 49.0465 53.1317C49.0773 53.1623 49.1019 53.1988 49.1187 53.239C49.1355 53.2792 49.1442 53.3224 49.1444 53.366V72.2948C49.1444 72.6591 49.4414 72.9543 49.8086 72.9543H56.4716C56.8388 72.9543 57.1365 72.6591 57.1365 72.2955V53.366C57.1367 53.3224 57.1454 53.2792 57.1622 53.239C57.179 53.1988 57.2036 53.1623 57.2344 53.1317C57.2653 53.101 57.3018 53.0768 57.342 53.0605C57.3822 53.0441 57.4252 53.0358 57.4686 53.0362H69.2917C69.3351 53.0358 69.3781 53.0441 69.4182 53.0605C69.4584 53.0768 69.495 53.101 69.5258 53.1317C69.5567 53.1623 69.5812 53.1988 69.598 53.239C69.6148 53.2792 69.6236 53.3224 69.6238 53.366V72.2948C69.6238 72.6591 69.9215 72.9543 70.2879 72.9543H95.2318C95.5989 72.9543 95.8959 72.6591 95.8959 72.2955V67.3174C95.8953 67.2303 95.8777 67.1441 95.844 67.0638C95.8103 66.9835 95.7612 66.9107 95.6996 66.8495C95.6379 66.7883 95.5648 66.74 95.4845 66.7072C95.4043 66.6745 95.3184 66.6579 95.2318 66.6586H77.9479C77.9046 66.659 77.8617 66.6508 77.8216 66.6344C77.7814 66.6181 77.7449 66.594 77.714 66.5634C77.6832 66.5328 77.6586 66.4964 77.6418 66.4563C77.6249 66.4162 77.6161 66.3731 77.6158 66.3296V63.05C77.6158 62.8678 77.7647 62.7202 77.9479 62.7202H92.0412C92.4076 62.7202 92.7054 62.425 92.7054 62.0614V57.7133C92.7041 57.5374 92.6334 57.3692 92.5088 57.2457C92.3843 57.1221 92.2161 57.0534 92.0412 57.0545H77.9479C77.9046 57.0549 77.8617 57.0467 77.8216 57.0304C77.7814 57.014 77.7449 56.9899 77.714 56.9593C77.6832 56.9287 77.6586 56.8924 77.6418 56.8522C77.6249 56.8121 77.6161 56.769 77.6158 56.7255V53.3653C77.6161 53.3217 77.6249 53.2786 77.6418 53.2385C77.6586 53.1984 77.6832 53.162 77.714 53.1314C77.7449 53.1009 77.7814 53.0767 77.8216 53.0604C77.8617 53.044 77.9046 53.0358 77.9479 53.0362Z" fill="#C8102E"/>
<rect x="0.5" y="0.5" width="199" height="119" stroke="black"/>
</svg>
