<svg width="200" height="120" viewBox="0 0 200 120" fill="none" xmlns="http://www.w3.org/2000/svg">
<path d="M86.4512 48.1656C86.9032 48.1183 87.2601 48.071 87.5931 48.071C94.0166 48.071 100.44 48 106.84 48.142C108.862 48.1893 110.765 48.9938 111.883 50.9341C112.05 51.2181 112.121 51.573 112.216 51.9043C112.24 52.0226 112.24 52.1409 112.216 52.2592C112.193 54.6255 112.692 57.0864 110.646 59.0741C112.288 60.2808 112.621 61.8189 112.502 63.5463C112.454 64.2798 112.502 65.037 112.502 65.7942C112.478 68.3971 111.003 70.2191 108.458 70.6924C107.553 70.858 106.602 70.9527 105.65 70.9527C99.6312 70.9763 93.6122 70.9527 87.5931 70.9527C87.2363 70.9527 86.9032 70.9053 86.4512 70.8817V48.1656ZM91.3758 66.9537C91.5662 67.0483 91.6375 67.1193 91.7089 67.1193C96.467 67.143 101.201 67.1666 105.959 67.1193C107.22 67.0957 107.91 66.1965 107.934 64.9187C107.934 64.5164 107.934 64.1378 107.934 63.7356C107.934 61.6296 107.387 61.0617 105.293 61.0617C101.13 61.0617 96.9904 61.0617 92.8271 61.0854C92.375 61.0854 91.8992 61.18 91.3758 61.2273V66.9537ZM106.602 56.9918C107.149 56.7788 107.506 56.2582 107.506 55.6903C107.53 54.7911 107.553 54.0103 107.435 53.2294C107.363 52.7798 106.792 52.2356 106.34 52.0936C105.626 51.857 104.794 51.8333 104.009 51.8333C100.25 51.8097 96.4908 51.8097 92.7319 51.857C92.2561 51.857 91.7803 52.0463 91.4234 52.1409V57.1337C91.7803 57.2047 92.0182 57.2994 92.2323 57.2994C96.6574 57.2994 101.106 57.323 105.531 57.2757C105.888 57.252 106.221 57.1337 106.602 56.9918Z" fill="#40BFEB"/>
<path d="M138.434 48.0947C139.814 48.1656 141.241 48.4496 142.55 48.8992C144.762 49.6327 145.547 51.4547 145.547 53.6317C145.571 57.7253 145.547 61.8189 145.547 65.9362C145.547 68.4918 143.382 70.5977 141.122 70.6687C135.151 70.9054 129.179 70.8817 123.184 70.929C122.232 70.929 121.305 70.787 120.353 70.6924C118.402 70.5031 115.952 68.3735 115.999 65.8416C116.094 61.5113 116.023 57.1811 116.047 52.8508C116.071 51.3601 116.713 50.0587 118.021 49.4434C119.377 48.8045 120.876 48.2366 122.351 48.1183C125.182 47.929 135.912 47.9763 138.434 48.0947ZM120.591 65.5576C121.233 66.9774 122.232 67.1903 123.374 67.1903C128.37 67.1903 133.366 67.1903 138.362 67.1903C138.981 67.1903 139.6 67.0484 140.313 66.9537C140.504 66.2675 140.837 65.6523 140.837 65.037C140.884 61.4877 140.86 57.9383 140.86 54.3889C140.86 53.0401 139.956 52.1173 138.577 52.07C135.936 51.9753 133.271 51.9043 130.63 51.857C128.251 51.8097 125.872 51.8333 123.493 51.857C121.757 51.8807 120.615 52.7089 120.615 54.0576C120.567 57.9619 120.591 61.9136 120.591 65.5576Z" fill="#40BFEB"/>
<path d="M54.1198 48.1421C55.69 48.1421 57.1888 48.1421 58.8066 48.1421C58.8304 48.639 58.9018 49.1359 58.9018 49.6328C58.9256 54.7203 58.9018 59.8077 58.9256 64.8952C58.9256 66.5989 59.4489 67.1668 61.2095 67.1668C66.039 67.1904 70.8922 67.1904 75.7217 67.1668C76.2213 67.1668 76.721 67.0248 77.506 66.8828C77.6726 66.0546 78.0056 65.2265 78.0056 64.3746C78.0532 59.4765 78.0294 54.602 78.0532 49.7038C78.0532 49.2306 78.0532 48.7573 78.0532 48.1658C79.6948 48.1658 81.2412 48.1658 82.8351 48.1658C82.8589 48.568 82.9065 48.8756 82.9065 49.1832C82.9065 54.5073 83.0017 59.8314 82.8827 65.1555C82.7876 69.0598 81.3601 70.8581 77.173 70.9291C71.5822 71.0238 65.9914 70.9528 60.4006 70.9291C57.7598 70.9055 55.5711 70.0536 54.4053 67.4744C54.1912 67.0248 54.0247 66.5042 54.0247 66.0073C54.0009 60.2573 54.0009 54.4837 54.0247 48.7337C54.0485 48.6153 54.0723 48.4734 54.1198 48.1421Z" fill="#40BFEB"/>
<path d="M29.9247 65.7706C30.4957 66.8354 31.3045 67.0721 32.3513 67.0721C38.0611 67.0484 43.7708 67.0721 49.4568 67.0721C49.885 67.0721 50.3133 67.0721 50.908 67.0721C50.908 68.3972 50.908 69.604 50.908 70.9291C50.4322 70.9527 50.0516 71 49.6709 71C43.6995 71 37.7042 71 31.7328 70.9764C29.3775 70.9764 27.2126 70.4321 25.9517 68.2079C25.4758 67.356 25.119 66.3149 25.0952 65.3447C25 61.4404 24.9762 57.5361 25.0952 53.6554C25.1666 50.2007 27.3791 48.284 30.4957 48.1657C37.0619 47.9291 43.6519 48.0947 50.2181 48.0947C50.456 48.0947 50.6701 48.142 50.9794 48.1893C50.9794 49.3725 50.9794 50.4846 50.9794 51.7387C50.4322 51.7624 49.9326 51.8097 49.433 51.8097C43.8898 51.8097 38.3466 51.8097 32.8034 51.8334C30.7098 51.8334 29.9247 52.5906 29.9247 54.6729C29.9247 58.4116 29.9247 62.1502 29.9247 65.7706Z" fill="#40BFEB"/>
<path d="M175 48.1655C175 49.3723 175 50.4845 175 51.8096C171.217 51.8096 167.53 51.8096 163.723 51.8096C163.676 52.5431 163.604 53.0873 163.604 53.6316C163.604 58.861 163.604 64.1141 163.604 69.3435C163.604 70.7633 163.628 70.9762 163.628 70.9762C163.628 70.9762 159.964 70.9526 158.775 70.9526C158.751 70.361 158.703 69.4618 158.703 69.4618C158.703 69.4618 158.703 58.9083 158.68 53.6316C158.68 53.0637 158.537 52.4958 158.442 51.8332C154.588 51.8332 150.876 51.8332 146.975 51.8332C146.975 50.5791 146.975 49.4433 146.975 48.1892C156.229 48.1655 165.508 48.1655 175 48.1655Z" fill="#40BFEB"/>
<rect x="0.5" y="0.5" width="199" height="119" stroke="black"/>
</svg>
