<svg width="200" height="120" viewBox="0 0 200 120" fill="none" xmlns="http://www.w3.org/2000/svg">
<path d="M18.2585 79.0315L19.1634 66.2472V48.8787L18 40.3559L18.5817 40.2913C23.2782 39.4304 27.0484 39 29.8922 39C38.1219 39 42.2368 42.4005 42.2368 49.2016C42.2368 53.2478 40.6856 56.2609 37.5833 58.2409C42.4953 59.7906 44.9513 63.0835 44.9513 68.1197C44.9513 71.7354 43.4432 74.6194 40.4271 76.7717C37.4541 78.9239 33.4254 80 28.341 80C24.5493 80 21.1885 79.6772 18.2585 79.0315ZM25.3033 75.674C26.8545 75.9323 28.5565 76.0614 30.4092 76.0614C32.3051 76.0614 34.4164 75.7171 36.7431 75.0283C38.2512 73.3066 39.0052 71.1543 39.0052 68.5717C39.0052 65.989 38.2512 64.095 36.7431 62.8898C35.235 61.6845 32.8652 61.0819 29.6337 61.0819H24.5924V66.3118L25.1741 74.7701L25.3033 75.674ZM24.5924 52.7528V57.337H27.5654C33.3823 57.294 36.2907 54.7974 36.2907 49.8472C36.2907 45.1984 33.8562 42.874 28.9873 42.874C27.8671 42.874 26.6175 42.9816 25.2387 43.1969L24.5924 52.7528Z" fill="black"/>
<path d="M59.6792 52.7528V56.8205H65.8838L72.0238 56.1748L71.5067 61.0173H59.6792V66.3118L60.2609 74.5118H68.7922L75.837 73.737L75.1907 79.4189L68.1459 79.0315H60.584L53.3453 79.4189L54.2501 66.2472V52.6882L53.3453 39.9685H75.2554L74.6737 45.263L67.435 44.4882H60.2609L59.6792 52.7528Z" fill="black"/>
<path d="M103.276 72.8331L92.676 59.2094V58.5638L102.241 47.1354L105.408 39.9685H113.293V40.485L98.3636 57.5307L109.739 72.4457L115.232 78.4504V79.0961L106.507 79.548L103.276 72.8331ZM84.2093 79.0315L85.1142 66.2472V52.6882L84.2093 39.9685H91.448L90.5432 52.7528V66.3118L91.448 79.0315H84.2093Z" fill="black"/>
<path d="M115.535 79.0961L129.302 44.5528L130.53 40.0976L135.636 39.7102L149.855 79.0315H142.293L140.354 69.2819H124.39L122.063 79.0961H115.535ZM132.727 46.2961L126.2 64.7622H138.867L132.727 46.2961Z" fill="black"/>
<path d="M164.512 61.4693V59.8551C168.088 59.8551 170.63 59.231 172.138 57.9827C173.646 56.7344 174.4 54.6467 174.4 51.7197C174.4 45.8226 171.664 42.874 166.192 42.874C165.417 42.874 164.318 42.9816 162.896 43.1969L162.25 52.7528V66.3118L163.155 79.0315H155.916L156.821 66.2472V48.8787L155.657 40.3559C160.742 39.452 164.727 39 167.614 39C176.361 39 180.734 43.0247 180.734 51.074C180.734 54.1302 179.98 56.6483 178.472 58.6283C176.964 60.5654 174.788 61.8567 171.944 62.5024L179.506 72.4457L185 78.4504V79.0961L176.275 79.548L173.043 72.8331L164.512 61.4693Z" fill="black"/>
<rect x="0.5" y="0.5" width="199" height="119" stroke="black"/>
</svg>
