<svg width="200" height="120" viewBox="0 0 200 120" fill="none" xmlns="http://www.w3.org/2000/svg">
<path d="M27.276 64.5V73H23.196V49.88H30.914C33.2487 49.88 35.0393 50.4807 36.286 51.682C37.5553 52.8607 38.19 54.4473 38.19 56.442V57.904C38.19 59.2187 37.9067 60.3747 37.34 61.372C36.7733 62.3693 35.9573 63.1287 34.892 63.65C36.7507 66.8233 38.3373 69.94 39.652 73H34.994C33.8607 70.1667 32.512 67.3333 30.948 64.5H27.276ZM30.914 53.62H27.276V60.76H30.914C31.9113 60.76 32.6707 60.5107 33.192 60.012C33.736 59.4907 34.008 58.788 34.008 57.904V56.442C34.008 55.5807 33.736 54.9007 33.192 54.402C32.6707 53.8807 31.9113 53.62 30.914 53.62ZM60.2688 58.992V63.854C60.2688 66.8007 59.5321 69.124 58.0588 70.824C56.5854 72.5013 54.4321 73.34 51.5988 73.34C48.7428 73.34 46.5781 72.5013 45.1048 70.824C43.6541 69.124 42.9288 66.8007 42.9288 63.854V58.992C42.9288 56.0453 43.6541 53.7333 45.1048 52.056C46.5781 50.3787 48.7428 49.54 51.5988 49.54C54.4321 49.54 56.5854 50.3787 58.0588 52.056C59.5321 53.7333 60.2688 56.0453 60.2688 58.992ZM56.0868 58.992C56.0868 57.1333 55.7241 55.7393 54.9988 54.81C54.2734 53.858 53.1401 53.382 51.5988 53.382C50.0574 53.382 48.9241 53.858 48.1988 54.81C47.4734 55.7393 47.1108 57.1333 47.1108 58.992V63.854C47.1108 65.7127 47.4734 67.118 48.1988 68.07C48.9241 69.022 50.0574 69.498 51.5988 69.498C53.1401 69.498 54.2734 69.022 54.9988 68.07C55.7241 67.118 56.0868 65.7127 56.0868 63.854V58.992ZM81.3488 49.88L74.0048 73H69.8228L62.4448 49.88H66.9328L70.4348 61.508L72.0328 67.492L73.7328 61.474L77.2008 49.88H81.3488ZM98.4162 69.09V73H85.0202V49.88H98.0762V53.79H89.1002V59.332H97.0562V63.242H89.1002V69.09H98.4162ZM107.329 64.5V73H103.249V49.88H110.967C113.301 49.88 115.092 50.4807 116.339 51.682C117.608 52.8607 118.243 54.4473 118.243 56.442V57.904C118.243 59.2187 117.959 60.3747 117.393 61.372C116.826 62.3693 116.01 63.1287 114.945 63.65C116.803 66.8233 118.39 69.94 119.705 73H115.047C113.913 70.1667 112.565 67.3333 111.001 64.5H107.329ZM110.967 53.62H107.329V60.76H110.967C111.964 60.76 112.723 60.5107 113.245 60.012C113.789 59.4907 114.061 58.788 114.061 57.904V56.442C114.061 55.5807 113.789 54.9007 113.245 54.402C112.723 53.8807 111.964 53.62 110.967 53.62ZM123.967 73V49.88H131.583C134.009 49.88 135.822 50.492 137.023 51.716C138.247 52.94 138.859 54.572 138.859 56.612V58.414C138.859 60.454 138.247 62.0973 137.023 63.344C135.822 64.568 134.009 65.18 131.583 65.18H128.047V73H123.967ZM131.583 53.79H128.047V61.27H131.583C132.581 61.27 133.34 61.0207 133.861 60.522C134.405 60.0233 134.677 59.3207 134.677 58.414V56.612C134.677 55.728 134.405 55.0367 133.861 54.538C133.34 54.0393 132.581 53.79 131.583 53.79ZM154.272 73L152.844 68.478H144.922L143.494 73H139.448L147.166 49.88H150.77L158.522 73H154.272ZM147.132 61.406L146.078 64.738H151.654L150.6 61.406L148.9 55.558L147.132 61.406ZM162.384 73V49.88H170.204C172.969 49.88 175.077 50.6507 176.528 52.192C177.978 53.7333 178.704 56 178.704 58.992V63.854C178.704 66.8687 177.978 69.1467 176.528 70.688C175.077 72.2293 172.969 73 170.204 73H162.384ZM170.034 53.79H166.464V69.09H170.034C171.643 69.09 172.788 68.6933 173.468 67.9C174.17 67.1067 174.522 65.758 174.522 63.854V58.992C174.522 57.1107 174.17 55.7733 173.468 54.98C172.788 54.1867 171.643 53.79 170.034 53.79Z" fill="black"/>
<rect x="0.5" y="0.5" width="199" height="119" stroke="black"/>
</svg>
