<?xml version="1.0" encoding="utf-8"?>
<!-- Generator: Adobe Illustrator 24.0.1, SVG Export Plug-In . SVG Version: 6.00 Build 0)  -->
<svg version="1.1" id="Слой_1" xmlns="http://www.w3.org/2000/svg" xmlns:xlink="http://www.w3.org/1999/xlink" x="0px" y="0px"
	 viewBox="0 0 200 120" style="enable-background:new 0 0 200 120;" xml:space="preserve">
<style type="text/css">
	.st0{display:none;fill-rule:evenodd;clip-rule:evenodd;fill:#FFFFFF;}
	.st1{fill-rule:evenodd;clip-rule:evenodd;}
	.st2{fill-rule:evenodd;clip-rule:evenodd;fill:#FFFFFF;}
</style>
<g>
	<path class="st0" d="M17.6-22.4h164.9v164.9H17.6V-22.4z"/>
	<path class="st1" d="M37.1,83L36.9,83c-3.8-1.4-7.3-3.7-10-6.8c-4.1-4.6-6.4-10.6-6.4-16.8c0-13.8,11.3-25.1,25.1-25.1
		c13.8,0,25.1,11.3,25.1,25.1c0,7.1-3.1,13.9-8.3,18.7c-2.4,2.1-5.2,3.8-8.1,4.9L54.1,83h17.1v2.7H20V83L37.1,83L37.1,83z M76.3,68
		V50.3H106v2.9H93.7v4.6H106v2.8H93.7v4.8H106V68H76.3L76.3,68z M114.7,68V50.3h29.7v2.9h-12.4v4.6h12.4v2.8h-12.4V68H114.7
		L114.7,68z M150.4,68V50.3H180v2.9h-12.4v4.6H180v2.8h-12.4V68H150.4L150.4,68z"/>
	<path class="st2" d="M45.6,37c-12.3,0-22.4,10.1-22.4,22.4c0,12.3,10.1,22.4,22.4,22.4S68,71.7,68,59.4C68,47.1,57.9,37,45.6,37z"
		/>
	<path class="st1" d="M28.3,68V50.2h22.6L60,65.4V50.2h2.7V68H39.4l-8.2-13.8V68H28.3L28.3,68z"/>
</g>
</svg>
