<svg width="200" height="120" viewBox="0 0 200 120" fill="none" xmlns="http://www.w3.org/2000/svg">
<g clip-path="url(#clip0_662_573)">
<path d="M181.9 57.8001C181.5 57.8001 181.3 57.5001 181.3 57.2001C181.3 56.8001 181.6 56.6001 181.9 56.6001C182.3 56.6001 182.5 56.9001 182.5 57.2001C182.5 57.5001 182.2 57.8001 181.9 57.8001ZM181.1 54.7001C181.1 54.6001 181.2 54.4001 181.4 54.4001C181.5 54.4001 181.7 54.5001 181.7 54.7001C181.7 54.8001 181.6 55.0001 181.4 55.0001C181.2 55.0001 181.1 54.8001 181.1 54.7001ZM180.3 53.1001C180.2 53.1001 180 53.0001 180 52.8001C180 52.7001 180.1 52.5001 180.3 52.5001C180.4 52.5001 180.6 52.6001 180.6 52.8001C180.5 53.0001 180.4 53.1001 180.3 53.1001ZM176.3 58.7001H174.3V56.7001L179.7 53.3001L179.9 53.5001L176.3 58.7001ZM173.4 51.8001C173.3 51.8001 173.1 51.7001 173.1 51.5001C173.1 51.3001 173.2 51.2001 173.4 51.2001C173.5 51.2001 173.7 51.3001 173.7 51.5001C173.7 51.7001 173.5 51.8001 173.4 51.8001ZM171.6 53.1001C171.5 53.1001 171.3 53.0001 171.3 52.8001C171.3 52.7001 171.4 52.5001 171.6 52.5001C171.7 52.5001 171.9 52.6001 171.9 52.8001C171.8 53.0001 171.7 53.1001 171.6 53.1001ZM170.4 55.0001C170.3 55.0001 170.1 54.9001 170.1 54.7001C170.1 54.6001 170.2 54.4001 170.4 54.4001C170.5 54.4001 170.7 54.5001 170.7 54.7001C170.7 54.8001 170.6 55.0001 170.4 55.0001ZM170 57.8001C169.6 57.8001 169.4 57.5001 169.4 57.2001C169.4 56.8001 169.7 56.6001 170 56.6001C170.4 56.6001 170.6 56.9001 170.6 57.2001C170.7 57.5001 170.4 57.8001 170 57.8001ZM176 50.5001C176.4 50.5001 176.6 50.8001 176.6 51.1001C176.6 51.5001 176.3 51.7001 176 51.7001C175.6 51.7001 175.4 51.4001 175.4 51.1001C175.4 50.7001 175.6 50.5001 176 50.5001ZM178.5 51.3001C178.6 51.3001 178.8 51.4001 178.8 51.6001C178.8 51.8001 178.7 51.9001 178.5 51.9001C178.4 51.9001 178.2 51.8001 178.2 51.6001C178.2 51.4001 178.4 51.3001 178.5 51.3001ZM176 49.6001C173.5 49.6001 171.3 50.8001 169.9 52.7001V49.8001H158.7V54.4001H164.1L159.2 64.5001H164.9L168.5 57.2001C168.5 61.3001 171.9 64.7001 176.1 64.7001C180.3 64.7001 183.7 61.3001 183.7 57.1001C183.6 53.0001 180.2 49.6001 176 49.6001Z" fill="#ED1C24"/>
<path d="M158.3 68.5C158.3 68.2 158.1 68.1 157.8 68.1C157.5 68.1 157.4 68.2 157.4 68.4C157.4 68.5 157.5 68.6 157.7 68.7C158.1 68.8 158.5 68.9 158.9 69.1C159.2 69.3 159.4 69.5 159.4 69.9C159.4 70.6 158.8 71 158 71C157.1 71 156.5 70.6 156.5 69.8H157.4C157.4 70.2 157.7 70.3 158.1 70.3C158.4 70.3 158.6 70.2 158.6 70C158.6 69.8 158.5 69.7 158.2 69.6C158 69.5 157.6 69.4 157.4 69.3C157 69.1 156.7 68.9 156.7 68.5C156.7 67.9 157.2 67.5 158.1 67.5C158.9 67.5 159.4 67.9 159.4 68.6H158.3V68.5Z" fill="#ED1C24"/>
<path d="M160.9 67.5H160V70.9H160.9V67.5Z" fill="#ED1C24"/>
<path d="M161.8 67.5H162.7L163.9 69.6V67.5H164.7V70.9H163.9L162.6 68.7L162.7 70.9H161.8V67.5Z" fill="#ED1C24"/>
<path d="M168.5 69.5C168.5 69.8 168.5 69.9 168.3 70.1C168 70.6 167.6 70.9 166.9 70.9C165.9 70.9 165.2 70.1 165.2 69.1C165.2 68.1 165.9 67.3 166.9 67.3C167.7 67.3 168.4 67.8 168.4 68.6H167.5C167.4 68.2 167.2 68.1 166.8 68.1C166.3 68.1 166 68.5 166 69.1C166 69.7 166.3 70.1 166.8 70.1C167.2 70.1 167.4 69.9 167.5 69.5H168.5Z" fill="#ED1C24"/>
<path d="M171.9 68.2H170V68.8H171.7V69.5H170V70.1H171.9V70.9H169.2V67.5H171.9V68.2Z" fill="#ED1C24"/>
<path d="M176.3 70.8H175.5V68.8H174.7V68.2C175.2 68.2 175.6 68.1 175.7 67.5H176.4V70.8H176.3Z" fill="#ED1C24"/>
<path d="M177.7 68.7001C177.7 69.0001 177.9 69.2001 178.2 69.2001C178.5 69.2001 178.7 69.0001 178.7 68.7001C178.7 68.4001 178.5 68.2001 178.2 68.2001C177.9 68.1001 177.7 68.3001 177.7 68.7001ZM177.8 70.0001C177.9 70.2001 178 70.3001 178.2 70.3001C178.6 70.3001 178.8 69.8001 178.8 69.5001C178.6 69.8001 178.4 69.9001 178 69.9001C177.3 69.9001 176.9 69.5001 176.9 68.8001C176.9 68.1001 177.4 67.6001 178.2 67.6001C179.1 67.6001 179.6 68.2001 179.6 69.2001C179.6 70.3001 179.1 71.0001 178.2 71.0001C177.5 71.0001 177.1 70.7001 177 70.1001H177.8V70.0001Z" fill="#ED1C24"/>
<path d="M181.6 68.3001L180.7 69.4001H181.6V68.3001ZM182.8 70.1001H182.4V70.8001H181.6V70.1001H180.2V69.4001L181.7 67.6001H182.5V69.5001H182.9V70.1001H182.8Z" fill="#ED1C24"/>
<path d="M184.1 68.7001C184.1 69.0001 184.3 69.2001 184.6 69.2001C184.9 69.2001 185.1 69.0001 185.1 68.7001C185.1 68.4001 184.9 68.2001 184.6 68.2001C184.3 68.1001 184.1 68.3001 184.1 68.7001ZM184.2 70.0001C184.3 70.2001 184.4 70.3001 184.6 70.3001C185 70.3001 185.2 69.8001 185.2 69.5001C185 69.8001 184.8 69.9001 184.4 69.9001C183.7 69.9001 183.3 69.5001 183.3 68.8001C183.3 68.1001 183.8 67.6001 184.6 67.6001C185.5 67.6001 186 68.2001 186 69.2001C186 70.3001 185.5 71.0001 184.6 71.0001C183.9 71.0001 183.5 70.7001 183.4 70.1001H184.2V70.0001Z" fill="#ED1C24"/>
<path d="M137.8 50.8C136.8 50.8 136 51.6 136 52.6C136 53.6 136.8 54.4 137.8 54.4C138.8 54.4 139.6 53.6 139.6 52.6C139.6 51.6 138.8 50.8 137.8 50.8ZM137.8 54C137 54 136.4 53.4 136.4 52.6C136.4 51.8 137 51.2 137.8 51.2C138.6 51.2 139.2 51.8 139.2 52.6C139.2 53.4 138.6 54 137.8 54Z" fill="#ED1C24"/>
<path d="M137.9 51.8C138.2 51.8 138.4 51.9 138.4 52.2C138.4 52.4 138.3 52.5 138.1 52.6C138.3 52.6 138.3 52.8 138.3 52.9C138.3 53.1 138.3 53.2 138.4 53.3H138.1C138.1 53.2 138.1 53.1 138.1 53C138.1 52.8 138 52.7 137.8 52.7H137.4V53.3H137.1V51.8H137.9ZM137.4 52.5H137.8C138 52.5 138.1 52.5 138.1 52.3C138.1 52.1 137.9 52.1 137.8 52.1H137.4V52.5Z" fill="#ED1C24"/>
<path d="M86.7998 58.9C86.7998 59.2 86.7998 59.4 86.7998 59.7C86.9998 60.4 87.4998 60.8 88.2998 60.9C89.1998 61 89.9998 60.7 90.3998 60.1C90.8998 59.5 90.9998 58.7 90.8998 57.7C90.7998 56.9 90.3998 56.3 89.7998 55.9C88.9998 55.4 88.0998 55.4 86.8998 55.8C86.5998 55.9 86.3998 56 86.0998 56.1C85.9998 56.2 85.7998 56.2 85.6998 56.3H85.5998V55.6H80.2998V58.3H80.6998C81.0998 58.3 81.4998 58.6 81.4998 59.1V65.3C81.4998 65.7 81.1998 66.1 80.6998 66.1H80.2998V68.8H86.6998V66.1H86.3998C85.9998 66.1 85.5998 65.8 85.5998 65.3V64.9C85.5998 64.7 85.5998 64.4 85.5998 64.3V63V62.9C85.5998 61.9 85.5998 61 85.6998 60C85.6998 59.3 86.0998 58.8 86.6998 58.5H86.7998V58.6C86.7998 58.7 86.7998 58.8 86.7998 58.9Z" fill="#ED1C24"/>
<path d="M79.1996 64.5H75.2996V65.2C75.2996 65.8 74.7996 66.2 74.2996 66.2H74.1996C73.5996 66.2 73.1996 65.7 73.1996 65.2V63.4H75.3996H79.2996V60.4C79.2996 57.6 76.9996 55.3 74.1996 55.3C71.3996 55.3 69.0996 57.6 69.0996 60.4V64.1C69.0996 66.9 71.3996 69.2 74.1996 69.2C76.7996 69.2 78.9996 67.1 79.1996 64.5ZM73.1996 59.2C73.1996 58.6 73.6996 58.2 74.1996 58.2H74.2996C74.8996 58.2 75.2996 58.7 75.2996 59.2V60.7H73.0996V59.2H73.1996Z" fill="#ED1C24"/>
<path d="M105.8 59.3999V59.4999V59.5999C105.8 60.2999 105.8 61.0999 105.8 61.7999C105.8 62.8999 105.8 63.9999 105.8 65.0999C105.8 65.5999 105.6 65.8999 105.3 65.8999V68.6999H111V65.9999H110.8C110.4 65.9999 110 65.6999 110 65.1999V65.0999V58.1999C110 57.8999 109.9 57.5999 109.8 57.3999C109.1 55.5999 106.6 54.8999 104.2 55.8999C103.8 55.9999 103.5 56.2999 103.1 56.5999C102.1 55.3999 100 55.0999 98.1 55.8999C97.9 55.9999 97.6 56.0999 97.4 56.2999H97.3V55.5999H92V58.2999H92.4C92.8 58.2999 93.2 58.5999 93.2 59.0999V60.5999C93.2 61.7999 93.2 62.9999 93.2 64.1999V65.2999C93.2 65.6999 92.9 66.0999 92.4 66.0999H92V68.7999H97.8V65.9999C97.4 65.8999 97.3 65.6999 97.3 65.1999C97.3 64.0999 97.3 62.9999 97.3 61.7999C97.3 60.9999 97.3 60.2999 97.3 59.4999V59.3999C97.3 58.7999 97.8 58.2999 98.4 58.2999C99 58.2999 99.5 58.7999 99.5 59.3999V59.4999C99.5 60.1999 99.5 60.8999 99.5 61.4999C99.5 62.6999 99.5 63.7999 99.5 65.0999C99.5 65.5999 99.4 65.7999 99 65.8999V68.6999H104.2V65.9999C103.9 65.8999 103.7 65.5999 103.7 65.1999C103.7 64.2999 103.7 63.3999 103.7 62.4999C103.7 61.5999 103.7 60.6999 103.7 59.7999V59.4999C103.7 58.8999 104.2 58.3999 104.8 58.3999C105.3 58.3999 105.8 58.7999 105.8 59.3999Z" fill="#ED1C24"/>
<path d="M128.4 65.0001C128.5 64.9001 128.6 64.9001 128.6 64.8001C128.7 64.9001 128.8 65.0001 128.8 65.1001C128.9 65.2001 129 65.3001 129.1 65.4001C129.2 65.6001 129.2 65.8001 129.1 65.9001V68.8001H134.8V66.0001C134.2 66.0001 133.8 65.6001 133.6 65.1001C132.5 63.7001 131.3 62.2001 131.2 62.2001C131.2 62.2001 132.3 60.4001 133 59.4001C133.5 58.6001 133.8 58.2001 134.6 58.2001V55.6001H130V58.3001C130.1 58.4001 130.1 58.4001 130.1 58.5001C130.1 58.6001 130.1 58.7001 130 58.8001C129.9 58.9001 129.8 59.1001 129.6 59.2001C129.5 59.3001 129.4 59.3001 129.4 59.4001C129.2 59.3001 129.1 59.2001 129 59.1001C128.9 59.0001 128.8 58.9001 128.7 58.8001C128.6 58.7001 128.6 58.6001 128.6 58.5001C128.6 58.4001 128.7 58.3001 128.8 58.3001V55.6001H123.3V58.2001C123.8 58.2001 124.1 58.6001 124.3 58.9001C124.7 59.4001 125.1 60.0001 125.6 60.6001C126 61.2001 126.5 61.7001 126.9 62.3001C126.7 62.6001 126.5 62.8001 126.4 63.0001C125.9 63.6001 125.5 64.2001 124.6 65.2001C124.4 65.4001 123.9 66.0001 123.4 66.1001V68.9001H128.2V66.0001C128.1 65.9001 128 65.7001 128.2 65.4001C128.2 65.2001 128.3 65.1001 128.4 65.0001Z" fill="#ED1C24"/>
<path d="M118.4 64.5V65.2C118.4 65.8 117.9 66.2 117.4 66.2H117.3C116.7 66.2 116.3 65.7 116.3 65.2V63.4H118.5H122.4V60.4C122.4 57.6 120.1 55.3 117.3 55.3C114.5 55.3 112.2 57.6 112.2 60.4V64.1C112.2 66.9 114.5 69.2 117.3 69.2C119.9 69.2 122.2 67.1 122.4 64.5H118.4ZM116.3 59.2C116.3 58.6 116.8 58.2 117.3 58.2H117.4C118 58.2 118.4 58.7 118.4 59.2V60.7H116.2V59.2H116.3Z" fill="#ED1C24"/>
<path d="M28 46C20.3 46 14 52.3 14 60C14 67.7 20.3 74 28 74C35.7 74 42 67.7 42 60C42 52.3 35.7 46 28 46ZM36.9 66.2C36.9 67.5 35.9 68.5 34.6 68.5H21.6C20.3 68.5 19.3 67.5 19.3 66.2V58.5H23.8V64.1H36.9V66.2ZM36.9 56.8H30.7V62.5H25.4V56.8H19.2V53.9C19.2 52.6 20.3 51.5 21.6 51.5H34.4C35.7 51.5 36.8 52.6 36.8 53.9V56.8H36.9Z" fill="#ED1C24"/>
<path d="M35.2004 53.9C35.2004 53.5 34.9004 53.2 34.5004 53.2H21.6004C21.2004 53.2 20.9004 53.5 20.9004 53.9V55.1H27.1004V60.8H29.0004V55.1H35.2004V53.9Z" fill="#ED1C24"/>
<path d="M47.5004 65.9999C47.5004 67.7999 48.9004 69.1999 50.7004 69.1999H50.9004C52.7004 69.1999 54.1004 67.7999 54.1004 65.9999V65.1999C53.9004 65.1999 53.2004 65.1999 52.6004 65.1999V65.6999C52.6004 65.8999 52.4004 66.0999 52.2004 66.0999C52.0004 66.0999 51.8004 65.8999 51.8004 65.6999V64.7999C51.8004 62.5999 51.8004 58.0999 51.8004 58.0999H53.4004V55.0999H51.8004V50.8999H49.1004V53.3999C49.1004 55.1999 47.1004 55.1999 46.4004 55.1999V57.9999H47.6004C47.6004 57.9999 47.6004 61.9999 47.6004 64.6999V65.9999H47.5004Z" fill="#ED1C24"/>
<path d="M62.6 59.3999V59.5999C62.6 61.3999 62.6 62.9999 62.6 65.0999V65.1999C62.6 65.4999 62.4 65.7999 62.1 65.8999V68.6999H68V65.9999H67.7C67.3 65.9999 66.9 65.6999 66.9 65.1999V62.9999C66.9 61.9999 66.9 60.8999 66.9 59.8999C66.9 59.1999 66.9 58.5999 66.9 58.2999C66.9 58.1999 66.9 57.9999 66.8 57.8999C66.8 57.6999 66.7 57.5999 66.7 57.3999C65.9 55.5999 63.4 54.9999 61 55.8999C60.8 55.9999 60.7 55.9999 60.5 56.0999H60.4V50.8999H55.1V53.5999H55.4C55.7 53.5999 56 53.7999 56.1 54.0999C56.1 54.0999 56.1 54.0999 56.1 54.1999V54.2999C56.1 54.2999 56.1 54.2999 56.1 54.3999C56.1 56.7999 56.1 59.1999 56.1 61.5999C56.1 62.7999 56.1 63.8999 56.1 65.0999V65.1999C56.1 65.5999 55.8 65.9999 55.3 65.9999H55V68.6999H61V65.9999C60.7 65.8999 60.5 65.5999 60.5 65.2999V65.1999C60.5 64.7999 60.5 64.2999 60.5 63.8999C60.5 62.4999 60.5 61.0999 60.5 59.6999C60.5 59.6999 60.5 59.6999 60.5 59.5999V59.3999C60.5 58.7999 61 58.2999 61.6 58.2999C62.2 58.3999 62.6 58.7999 62.6 59.3999Z" fill="#ED1C24"/>
<path d="M147.2 46H146.6V74H147.2V46Z" fill="#ED1C24"/>
</g>
<rect x="0.5" y="0.5" width="199" height="119" stroke="black"/>
<defs>
<clipPath id="clip0_662_573">
<rect width="172" height="28" fill="white" transform="translate(14 46)"/>
</clipPath>
</defs>
</svg>
