<svg width="200" height="120" viewBox="0 0 200 120" fill="none" xmlns="http://www.w3.org/2000/svg">
<path d="M23.3115 53.79L23.9915 49.88H40.9915L40.3115 53.79H33.8515L30.4515 73H26.3715L29.7715 53.79H23.3115Z" fill="#137CF9"/>
<path d="M50.6494 73L50.0034 68.478H42.0814L39.8714 73H35.6554L47.4534 49.88H51.0574L54.7294 73H50.6494ZM45.5494 61.406L43.9174 64.738H49.4934L49.0174 61.406L48.3374 55.558L45.5494 61.406Z" fill="#137CF9"/>
<path d="M56.8467 53.79L57.5267 49.88H74.5267L73.8467 53.79H67.3867L63.9867 73H59.9067L63.3067 53.79H56.8467Z" fill="#137CF9"/>
<path d="M74.0972 73L78.1772 49.88H85.4532C87.1078 49.88 88.4565 50.186 89.4992 50.798C90.5418 51.41 91.2672 52.2487 91.6752 53.314C92.1058 54.3794 92.1965 55.5807 91.9472 56.918L91.6752 58.448C91.1992 61.0547 89.8052 62.8454 87.4932 63.82C88.7852 66.88 89.8052 69.94 90.5532 73H86.1332C85.5212 70.1214 84.6712 67.288 83.5832 64.5H79.6732L78.1772 73H74.0972ZM85.2492 53.62H81.6112L80.3532 60.76H83.9572C84.9545 60.76 85.7592 60.5334 86.3712 60.08C86.9832 59.604 87.3685 58.9807 87.5272 58.21L87.7992 56.748C87.9805 55.7507 87.8445 54.98 87.3912 54.436C86.9605 53.892 86.2465 53.62 85.2492 53.62Z" fill="#137CF9"/>
<path d="M113.584 59.332L112.836 63.514C112.269 66.5967 111.193 69.0107 109.606 70.756C108.019 72.4787 105.832 73.34 103.044 73.34C101.208 73.34 99.6666 72.9207 98.4199 72.082C97.1732 71.2434 96.2892 70.0874 95.7679 68.614C95.2466 67.118 95.1559 65.418 95.4959 63.514L96.2439 59.332C96.7879 56.2947 97.8532 53.9034 99.4399 52.158C101.049 50.4127 103.259 49.54 106.07 49.54C107.906 49.54 109.436 49.9707 110.66 50.832C111.907 51.6707 112.791 52.8267 113.312 54.3C113.833 55.7734 113.924 57.4507 113.584 59.332ZM109.402 59.332C109.719 57.5414 109.583 56.102 108.994 55.014C108.427 53.926 107.362 53.382 105.798 53.382C104.302 53.382 103.112 53.9147 102.228 54.98C101.344 56.0454 100.743 57.496 100.426 59.332L99.6779 63.514C99.3606 65.3727 99.4853 66.8347 100.052 67.9C100.641 68.9654 101.707 69.498 103.248 69.498C104.789 69.498 105.991 68.9767 106.852 67.934C107.713 66.8914 108.314 65.418 108.654 63.514L109.402 59.332Z" fill="#137CF9"/>
<path d="M124.928 49.88L128.6 65.792L137.916 49.88H142.438L138.358 73H134.448L136.012 64.16L137.916 56.272L129.688 70.28H126.05L122.956 56.068L122.038 64.16L120.474 73H116.564L120.644 49.88H124.928Z" fill="#137CF9"/>
<path d="M157.231 73L156.585 68.478H148.663L146.453 73H142.237L154.035 49.88H157.639L161.311 73H157.231ZM152.131 61.406L150.499 64.738H156.075L155.599 61.406L154.919 55.558L152.131 61.406Z" fill="#137CF9"/>
<path d="M163.429 53.79L164.109 49.88H181.109L180.429 53.79H173.969L170.569 73H166.489L169.889 53.79H163.429Z" fill="#137CF9"/>
<rect x="0.5" y="0.5" width="199" height="119" stroke="black"/>
</svg>
