<svg width="200" height="120" viewBox="0 0 200 120" fill="none" xmlns="http://www.w3.org/2000/svg">
<path d="M30.1697 72L27.1996 47.2727H32.9105L34.1662 64.4538H34.3714L41.7244 47.2727H46.6143L48.2805 64.4901H48.4979L55.4283 47.2727H61.1392L49.9588 72H44.8636L42.8594 55.8331H42.6662L35.2649 72H30.1697ZM69.1653 47.2727L65.0602 72H59.8322L63.9373 47.2727H69.1653ZM94.1491 47.2727L90.044 72H85.5284L77.3786 56.4368H77.1854L74.5895 72H69.3615L73.4666 47.2727H78.0547L86.1683 62.8239H86.3736L88.9453 47.2727H94.1491ZM103.25 72H94.3635L98.4686 47.2727H107.186C109.673 47.2727 111.738 47.7798 113.38 48.794C115.03 49.8082 116.193 51.2611 116.869 53.1527C117.545 55.0362 117.666 57.286 117.231 59.902C116.813 62.4295 115.98 64.5987 114.732 66.4098C113.484 68.2128 111.887 69.5973 109.939 70.5632C107.991 71.5211 105.761 72 103.25 72ZM100.34 67.5206H103.552C105.105 67.5206 106.465 67.2308 107.633 66.6513C108.808 66.0717 109.77 65.1783 110.518 63.9709C111.275 62.7635 111.81 61.218 112.124 59.3345C112.422 57.5476 112.402 56.0987 112.064 54.9879C111.734 53.8691 111.094 53.0521 110.144 52.5369C109.194 52.0137 107.947 51.7521 106.401 51.7521H102.96L100.34 67.5206ZM121.967 72H116.365L129.006 47.2727H135.744L140.163 72H134.56L131.554 52.9233H131.361L121.967 72ZM123.247 62.2805H136.48L135.78 66.3615H122.547L123.247 62.2805ZM152.472 47.2727L148.367 72H143.139L147.244 47.2727H152.472ZM152.668 72L156.773 47.2727H166.529C168.396 47.2727 169.934 47.6027 171.141 48.2628C172.357 48.9228 173.21 49.8606 173.701 51.076C174.2 52.2834 174.317 53.7081 174.051 55.3501C173.777 56.9922 173.186 58.4008 172.276 59.576C171.375 60.7512 170.199 61.6567 168.751 62.2926C167.31 62.9205 165.64 63.2344 163.74 63.2344H157.208L157.932 59.0327H163.607C164.605 59.0327 165.458 58.8958 166.167 58.6222C166.875 58.3485 167.434 57.938 167.845 57.3906C168.264 56.8433 168.537 56.1631 168.666 55.3501C168.803 54.5211 168.755 53.8288 168.521 53.2734C168.288 52.71 167.865 52.2834 167.253 51.9936C166.642 51.6958 165.837 51.5469 164.839 51.5469H161.313L157.896 72H152.668ZM167.881 60.7472L172.167 72H166.396L162.243 60.7472H167.881Z" fill="#137CF9"/>
<rect x="0.5" y="0.5" width="199" height="119" stroke="black"/>
</svg>
