<?xml version="1.0" encoding="utf-8"?>
<!-- Generator: Adobe Illustrator 24.0.1, SVG Export Plug-In . SVG Version: 6.00 Build 0)  -->
<svg version="1.1" id="Слой_1" xmlns="http://www.w3.org/2000/svg" xmlns:xlink="http://www.w3.org/1999/xlink" x="0px" y="0px"
	 viewBox="0 0 200 120" style="enable-background:new 0 0 200 120;" xml:space="preserve">
<style type="text/css">
	.st0{display:none;fill-rule:evenodd;clip-rule:evenodd;fill:#FFFFFF;}
	.st1{fill-rule:evenodd;clip-rule:evenodd;}
</style>
<g>
	<path class="st0" d="M20-20h160v160H20V-20z"/>
	<path class="st1" d="M140.7,59.4c-1.1-2.7-3.7-4.9-6.4-5.5c-7.6-2-17.2-1.2-22.4,5.1c-3,3.9-4.8,9.8-2.6,14.7
		c1.1,2.9,4.2,5,7.1,5.5c6.4,0.8,14.6,1.2,19.7-3.5C140.8,71.7,142.4,65.1,140.7,59.4L140.7,59.4z M125,71.1
		c-0.7,0.3-1.9,0.4-2.5-0.1c-1.5-0.8-1-2.7-0.8-4c0.7-2.3,1.5-5.6,4.4-6c0.9-0.1,2.1,0.3,2.5,1.4C128.8,65.8,127.8,69.2,125,71.1
		L125,71.1z M55.9,40.3l-5.4,15.5l-4.1-15.5H35.6L22.4,78.2H35l5-14.5l3.8,14.5h11.5l13.3-37.9L55.9,40.3L55.9,40.3z M76.9,51.6
		c2.2-0.3,4.6-1,5.8-3.2c0.9-1.8,0.6-3.9-0.5-5.4c-1.7-1.8-4.1-2-6.6-1.8c-2.3,0.3-4.7,1.5-5.5,3.9c-0.4,1.5-0.3,3.4,0.7,4.6
		C72.2,51.4,74.6,51.7,76.9,51.6z M67.7,54.2l-8.5,24.1h12l8.5-24.1H67.7z"/>
	<path class="st1" d="M114.1,54.1h-13.9l-7,8.1l7.6-22H88.6L75.3,78.2h12.2l3.4-9.5l1.9,9.5h12.8l-2.1-11.6L114.1,54.1L114.1,54.1z
		 M169,53.8c-5.4,0-8.9,2.4-10.7,4l1.4-3.6H147l-8.5,24.1h12.6l4.1-11.6c0.6-1.8,1.7-2.7,3.5-2.7c1.8,0,2.3,1.8,1.7,3.3l-3.9,10.9
		h12.2l5.5-15.7C175.8,58.3,174.3,53.8,169,53.8L169,53.8z M175.1,73.2c-1.4,0-2.5,1.1-2.5,2.5c0,0,0,0,0,0c0,1.4,1.1,2.5,2.5,2.5
		c0,0,0,0,0,0c1.4,0,2.5-1.1,2.5-2.5c0,0,0,0,0,0C177.6,74.4,176.5,73.2,175.1,73.2C175.1,73.2,175.1,73.2,175.1,73.2z M175.1,78
		c-1.2,0-2.2-1-2.2-2.2c0,0,0,0,0,0c0-1.2,1-2.2,2.2-2.2c0,0,0,0,0,0c1.2,0,2.2,1,2.2,2.2C177.3,77,176.4,78,175.1,78
		C175.1,78,175.1,78,175.1,78z"/>
	<path class="st1" d="M176.4,75.1c0-0.2-0.1-0.5-0.3-0.6c-0.2-0.1-0.4-0.1-0.7-0.1h-1.2v2.8h0.3v-1.3h0.6l0.8,1.3h0.4l-0.9-1.3
		C176,75.8,176.4,75.6,176.4,75.1L176.4,75.1z M175.1,75.6h-0.5v-1h0.8c0.3,0,0.7,0.1,0.7,0.5C176.1,75.6,175.5,75.6,175.1,75.6z"/>
</g>
</svg>
