<?xml version="1.0" encoding="utf-8"?>
<!-- Generator: Adobe Illustrator 24.0.1, SVG Export Plug-In . SVG Version: 6.00 Build 0)  -->
<svg version="1.1" id="Слой_1" xmlns="http://www.w3.org/2000/svg" xmlns:xlink="http://www.w3.org/1999/xlink" x="0px" y="0px"
	 viewBox="0 0 200 120" style="enable-background:new 0 0 200 120;" xml:space="preserve">
<style type="text/css">
	.st0{display:none;fill-rule:evenodd;clip-rule:evenodd;fill:#FFFFFF;}
	.st1{fill-rule:evenodd;clip-rule:evenodd;}
	.st2{fill-rule:evenodd;clip-rule:evenodd;fill:#FFFFFF;}
</style>
<g>
	<path class="st0" d="M4.8-35.2h190.5v190.5H4.8V-35.2z"/>
	<path class="st1" d="M24.8,69.7h3.4V50.2h-3.4v-3.1h22c1.8,0,2.6,1.1,2.6,2.8v6.5c0,1.6-1,2.8-2.6,3.1c0.4,0.1,0.9,0.3,1.3,0.5
		c0.7,0.5,1.3,1.5,1.3,2.3V70c0,1.8-1.6,2.8-3.2,2.8H24.8V69.7z M52.9,54.3h13.8c1.2,0,1.8,0.6,1.8,1.8v10.5h2.4v3.1h-8.1v-2.4
		l-2.4,2.4h-5.7c-1,0-1.9-0.8-1.9-1.8v-6.3c0-1.3,0.9-2.1,2.2-2.1h7.8v-1.2c0-0.8-0.6-0.9-1.2-0.9h-8.7L52.9,54.3L52.9,54.3z"/>
	<path class="st1" d="M62.6,52.4h-3.2c-1.3-2.2-2.8-4.3-4.7-6c-4.5-4.1-10.6-6.1-16.7-6.1c-11.5,0-22,7.7-22,19.9
		c0,5.6,2.2,10.4,6.5,14c4.3,3.7,10,5.8,15.7,5.8c4.4,0,8.7-1.2,12.5-3.5c2.3-1.4,4.3-3.1,6.2-5H60c-1.8,2.6-3.9,4.9-6.5,6.7
		c-5.2,3.7-11.9,5.6-18.3,5.6C22,83.7,7.6,74.5,7.6,60c0-7.2,3.8-13.9,9.5-18.1c5.2-3.8,11.6-5.6,17.9-5.6c7.4,0,14.9,2.2,20.5,7.1
		c1.7,1.5,3.2,3.1,4.5,4.9C61,49.6,61.8,51,62.6,52.4z M70.4,57.4v-3.1h8.2v11c0,0.8,0.6,1.3,1.4,1.3h2.8V54.3h5.6v12.3h2.4v3.1h-8
		v-2.4l-2.4,2.4h-5.3c-1.4,0-2.2-1-2.2-2.4v-10L70.4,57.4L70.4,57.4z M92.9,69.7V50.2h-2.6v-3.1h8.2v12.8l5.9-5.6h3.9v3.1h-3
		l-2.6,2.5h3.2c1.3,0,2.5,1,2.5,2.3v4.4h2.5v3.1h-8.2v-6.1c0-0.8-0.5-1.4-1.3-1.4h-2.8v7.5L92.9,69.7L92.9,69.7z M113,69.7V57.4
		h-2.5v-3.1h8.2v2.4l2.4-2.4h4.7c2.4,0,2.7,0.9,2.7,3.1v9.2h2.4v3.1h-8.1V58.4c0-1-1-1-1.8-1h-2.5v12.3L113,69.7
		C113,69.7,113,69.7,113,69.7z M148.2,66.6v3.1H135c-1.4,0-2.4-0.8-2.4-2.2V56.4c0-1.6,0.9-2.1,2.4-2.1h11c1.4,0,2.2,0.6,2.2,2.1v8
		h-9.9v1.2c0,0.9,0.8,1.1,1.6,1.1L148.2,66.6C148.2,66.6,148.2,66.6,148.2,66.6z M161.6,66.6v3.1h-7.7c-1.3,0-2.6-0.7-2.6-2.2V56.4
		c0-1.5,1.3-2.1,2.6-2.1h7.7v3.1h-3.2c-0.8,0-1.4,0.2-1.4,1.2v6.6c0,1,0.4,1.5,1.4,1.5C158.4,66.6,161.6,66.6,161.6,66.6z"/>
	<path class="st1" d="M163.5,69.7V50.2h-2.6v-3.1h8.2v9.6l2.4-2.4h5.1c1.3,0,2.3,0.7,2.3,2.1v10.3h2.3v3.1h-8V58.2
		c0-0.7-0.4-0.8-1-0.8h-3.1v12.3C169.2,69.7,163.5,69.7,163.5,69.7z M183.8,57.4h-2.5v-3.1h2.5v-4.1h5.6v4.1h3v3.1h-3v8.2
		c0,0.6,0.4,1,1,1h2v3.1h-6.6c-1.2,0-2-0.6-2-1.8V57.4z"/>
	<path class="st2" d="M35.6,50.2v7.3h5.5c0.7,0,1.3-0.3,1.3-1.1v-5.1c0-0.8-0.6-1.1-1.3-1.1C41.1,50.2,35.6,50.2,35.6,50.2z
		 M35.6,69.7h5.1c1.2,0,1.7-0.5,1.7-1.7v-5.7c0-0.8-0.5-1.3-1.3-1.3h-5.5C35.6,61,35.6,69.7,35.6,69.7z M62.8,66.6v-4.3h-3.4
		c-0.6,0-0.9,0.4-0.9,1v2.3c0,0.5,0.4,0.9,0.9,0.9L62.8,66.6L62.8,66.6z M138.3,61.6h4.2v-3.4c0-0.7-0.5-0.8-1.1-0.8h-2.2
		c-0.5,0-1,0.3-1,0.8C138.3,58.2,138.3,61.6,138.3,61.6z"/>
</g>
</svg>
