<?xml version="1.0" encoding="utf-8"?>
<!-- Generator: Adobe Illustrator 24.0.1, SVG Export Plug-In . SVG Version: 6.00 Build 0)  -->
<svg version="1.1" id="Слой_1" xmlns="http://www.w3.org/2000/svg" xmlns:xlink="http://www.w3.org/1999/xlink" x="0px" y="0px"
	 viewBox="0 0 200 120" style="enable-background:new 0 0 200 120;" xml:space="preserve">
<style type="text/css">
	.st0{display:none;fill-rule:evenodd;clip-rule:evenodd;fill:#FFFFFF;}
	.st1{fill-rule:evenodd;clip-rule:evenodd;fill:#AD2D5A;}
	.st2{fill-rule:evenodd;clip-rule:evenodd;}
</style>
<g>
	<path class="st0" d="M6.3-26.2h187.4v187.4H6.3V-26.2z"/>
	<path class="st1" d="M43.5,42.1c-2.1,0.3-2.7,1.1-3.5,3.2l-8.8,22.9H30L19.9,44.9c-1-2.4-1.5-2.5-3.2-2.8v-1h13.2v1
		c-2.5,0.1-3.4,0.1-3.4,1.7c0,0.7,0.7,2.4,1.1,3.4l5.2,12.2l4.9-12.8c0.4-0.8,0.8-1.8,0.8-2.7c0-1.5-1.1-1.7-3.4-1.8v-1h8.3
		L43.5,42.1L43.5,42.1L43.5,42.1z M51.9,67.5h-9.4v-0.8c1.4-0.4,2.1-0.6,2.1-2.4V52.7c0-1.7-0.6-2-2.1-2.2v-1H50v14.9
		c0,1.1,0.3,2,1.8,2.2L51.9,67.5L51.9,67.5z M47.2,40.5c1.7,0,2.9,1.4,2.9,3.1c0,1.7-1.3,2.9-2.9,2.9c-1.8,0-3.1-1.3-3.1-2.9
		C44.2,41.9,45.4,40.5,47.2,40.5z M58,56.4c0-5.2,1.4-6.2,2.8-6.2c1.4,0,2,1,2.1,2c0.4,1.1,0.4,3.1,0.4,4.3L58,56.4L58,56.4z
		 M67.4,62.6c-0.7,1-2.1,2.7-4.5,2.7c-3.6,0-4.5-4.1-4.6-7.4h9.8c-0.1-2-0.6-8.7-7.4-8.7c-4.5,0-8,3.6-8,9.3c0,6.7,3.9,9.7,7.8,9.7
		c3.2,0,5.5-1.3,7.8-4.9L67.4,62.6z M95.7,50.5c-0.7,0.1-1.3,0.1-2,2l-6,15.6h-1l-3.9-11.9h-0.1L77.9,68h-1l-5.7-14.6
		c-1.1-2.5-1.3-2.8-2.2-2.9v-1h8.7v1c-0.6,0-1.5,0.1-1.5,1.1c0,0.8,1.4,3.7,3.4,9l2.7-6.6c-0.4-1.4-0.7-2.1-0.8-2.7
		c-0.4-0.7-0.8-0.7-1.8-0.8v-1h9.2v1c-1,0-2,0.1-2,1s1.7,5.8,2.4,8.9h0.1c1-2.9,3.1-7.6,3.1-8.5c0-1.3-0.8-1.3-2-1.4v-1h5.3V50.5z
		 M113,49.1c-0.7-2.8-3.1-7.3-7.7-7.3c-2,0-4.2,1.1-4.2,3.8c0,2.1,0.8,2.9,4.1,4.5l5.7,2.9c1.4,0.7,4.3,2.9,4.3,7.1
		c0,3.5-2.4,8.1-9.7,8.1c-3.6,0-5.5-1.3-6.6-1.3c-0.8,0-1.1,0.7-1.3,1.3h-1.1v-9.7h1.1c0.8,4.1,3.1,8.4,8.1,8.4
		c4.6,0,4.9-3.8,4.9-4.3c0-2.7-2-3.5-4.5-4.8l-2.5-1.3c-6.7-3.1-6.7-6.5-6.7-8.3c0-2.4,1.1-7.7,8.5-7.7c3.2,0,5,1.4,6.2,1.4
		c1,0,1.1-0.7,1.3-1.4h1.3v8.5L113,49.1L113,49.1L113,49.1z M122.5,58.5c0-4.4,0.3-8.3,3.2-8.3c2.4,0,2.9,2.4,2.9,8.3
		c0,5-0.3,8.3-2.9,8.3C122.5,66.8,122.5,62.7,122.5,58.5z M116.7,58.5c0,5,3.5,9.5,9,9.5c5.3,0,8.7-4.3,8.7-9.5
		c0-5.4-3.6-9.4-8.7-9.4C120.2,49.1,116.7,53.5,116.7,58.5L116.7,58.5z M155.4,67.5h-9.1v-0.8c1.3-0.1,1.8-0.8,1.8-2.2v-9.5
		c0-1,0-3.3-2.2-3.3c-1.5,0-3.2,2-3.2,2.4v10.4c0,0.8,0.1,2,2,2.2v0.8h-9.5v-0.8c1.5-0.3,2.1-0.6,2.1-2.4V52.7
		c0-1.7-0.4-2.1-2.1-2.2v-1h7.6v2.8c0.6-0.8,2.2-3.2,5.6-3.2c2.2,0,5.3,1.1,5.3,5.4v9.9c0,0.8,0,2.1,1.8,2.2L155.4,67.5L155.4,67.5
		L155.4,67.5z M165.7,67.5h-9.2v-0.8c1.4-0.4,2-0.6,2-2.4V52.7c0-1.7-0.6-2-2-2.2v-1h7.4v14.9c0,1.1,0.3,2,1.8,2.2V67.5z
		 M161.2,40.5c1.5,0,2.9,1.4,2.9,3.1c0,1.7-1.4,2.9-2.9,2.9c-1.8,0-3.1-1.3-3.1-2.9S159.4,40.5,161.2,40.5z M182.4,64
		c-1.8,2.5-4.3,4.1-7.4,4.1c-5,0-8.4-4.2-8.4-9c0-7.6,5.6-10,9.2-10c2.8,0,6,1.4,6,4.2c0,2.4-2.2,2.4-2.7,2.4c-2.1,0-2.1-1.9-2.1-4
		c0-1.1-1-1.5-1.7-1.5c-2.9,0-3.2,4.8-3.2,6.5c0,5.6,2.4,8.7,5.3,8.7c2.2,0,3.4-1.1,4.2-2.1L182.4,64z M182.4,48.4
		c0-1.3,1-2.4,2.4-2.4c1.3,0,2.2,1.1,2.2,2.4c0,1.4-1,2.4-2.2,2.4C183.4,50.7,182.4,49.8,182.4,48.4z M184.8,51.3
		c1.5,0,2.8-1.3,2.8-2.9c0-1.5-1.3-2.8-2.8-2.8s-2.9,1.3-2.9,2.8C181.8,50,183.2,51.3,184.8,51.3z M184.1,48.6h0.7l0.8,1.4h0.6
		l-1-1.4c0.6-0.1,0.8-0.3,0.8-1c0-0.6-0.4-0.8-1.1-0.8h-1.3V50h0.4L184.1,48.6L184.1,48.6z M184.1,48.2v-1h0.7c0.4,0,0.7,0,0.7,0.4
		c0,0.6-0.3,0.6-0.7,0.6L184.1,48.2L184.1,48.2z"/>
	<path class="st2" d="M24,87.9c0-1,0.1-2.2,0.4-3.2c0.1-0.1,0.7-0.1,0.8,0c0,0.7,0.1,1.5,0.6,2.4c0.7,1.1,1.7,1.7,2.9,1.7
		s2.5-1,2.5-2.7c0-1.1-0.6-2-1.8-2.9l-0.6-0.3c-1.3-1-2.4-2.2-2.4-3.6c0-2.8,2.4-4.6,5.3-4.6c1.7,0,3.1,0.4,4.1,1.1
		c-0.3,0.7-0.7,1.7-1,2.9c-0.1,0.3-0.7,0.3-0.8,0c0.3-1.5-0.4-3.1-2.4-3.1c-1.5,0-2.5,1.3-2.5,2.4c0,0.7,0.3,1.5,1.8,2.5l0.7,0.6
		c1.3,0.8,2.5,2.1,2.5,4.1c0,2.7-2.1,4.6-5.9,4.6C26.1,89.7,24.4,88.7,24,87.9L24,87.9z M40.8,81.3c0.3,0,0.4,0.3,0.4,0.6
		c0,0.4-0.4,1.3-0.8,1.8c-0.6,0.6-1.3,1-2.1,1.3c0.3-0.8,0.7-2.2,1.5-3.1C40,81.5,40.4,81.3,40.8,81.3z M41.5,80.3
		c-1.2,0-2.4,0.4-3.4,1.3c-1.8,1.4-2.9,3.6-2.9,5.6c0,1.4,0.7,2.5,2.2,2.5c2,0,3.8-1,4.8-2.7c0-0.3-0.1-0.4-0.4-0.4
		c-1,1-2,1.4-2.8,1.4c-0.7,0-1-0.6-1-1.1c0-0.4,0-0.8,0.1-1.1c1.8-0.4,5.5-1.4,5.5-3.6C43.6,81.2,42.8,80.3,41.5,80.3z M49.5,81.3
		c0.3,0,0.4,0.3,0.4,0.6c0,0.4-0.3,1.3-0.7,1.8c-0.7,0.6-1.4,1-2.1,1.3c0.1-0.8,0.7-2.2,1.5-3.1C48.9,81.5,49.2,81.3,49.5,81.3z
		 M50.3,80.3c-1.1,0-2.2,0.3-3.5,1.3c-1.7,1.4-2.9,3.6-2.9,5.6c0,1.4,0.8,2.5,2.4,2.5c2,0,3.6-1,4.8-2.7c0-0.3-0.1-0.4-0.4-0.4
		c-1,1-2.1,1.4-2.8,1.4s-1-0.6-1-1.1c0-0.4,0-0.8,0.1-1.1c1.7-0.4,5.5-1.4,5.5-3.6C52.4,81.2,51.6,80.3,50.3,80.3L50.3,80.3z
		 M63.6,81.7l-2.1,5.7c-0.1,0.3-0.1,0.4,0.1,0.4c0.4,0,1.4-0.7,2.4-1.7c0.3,0.1,0.4,0.3,0.4,0.6c-0.8,1.1-2.9,2.9-4.8,2.9
		c-0.6,0-1-0.6-1-1c0-0.3,0-0.6,0.1-1.1l2-5.9h-1.5c-0.3-0.1-0.1-0.7,0.1-0.8l2-0.3l1.5-2.1c0.1-0.1,0.4-0.3,0.7-0.3
		s0.7,0.1,0.8,0.4l-0.6,2h2c0.4,0.3,0.1,1-0.1,1.1L63.6,81.7L63.6,81.7z M69.2,76.7c0.3-0.8,0.3-1.1-0.1-1.3L68.4,75
		c0-0.1,0-0.3,0.1-0.6c0.7-0.3,2.9-0.7,4.1-0.7c0.1,0,0.1,0.1,0.3,0.3c-0.4,0.8-0.7,1.7-1.1,2.8l-2.4,6.9c0.6-0.8,1.3-1.5,2-2.1
		c1-0.7,2-1.3,2.8-1.3c1,0,1.7,0.7,1.7,2c0,1.8-1.1,4.1-2.1,5.5c-0.8,1-2.1,2-3.4,2c-0.6,0-1.3-0.3-1.3-1c0-0.6,0.6-1,0.8-1
		c0.1,0,0.3,0.1,0.4,0.3c0.3,0.4,0.4,0.4,0.6,0.4s0.1-0.1,0.4-0.6c0.7-1.7,1.7-4.5,1.7-5.6c0-0.3-0.1-0.6-0.4-0.6
		c-0.4,0-1.4,0.8-2.5,2.2c-1.3,1.7-2.5,4.8-2.8,5.3c-0.1,0.3-0.7,0.4-1.1,0.4c-0.6,0-1.4-0.1-1.1-0.8L69.2,76.7L69.2,76.7z
		 M82.1,81.3c0.3,0,0.4,0.3,0.4,0.6c0,0.4-0.3,1.3-0.7,1.8c-0.7,0.6-1.4,1-2.1,1.3c0.1-0.8,0.7-2.2,1.4-3.1
		C81.5,81.5,81.8,81.3,82.1,81.3z M82.9,80.3c-1.1,0-2.2,0.3-3.5,1.3c-1.7,1.4-2.9,3.6-2.9,5.6c0,1.4,0.8,2.5,2.4,2.5
		c2,0,3.6-1,4.8-2.7c0-0.3-0.3-0.4-0.4-0.4c-1.1,1-2.1,1.4-2.9,1.4c-0.6,0-0.8-0.6-0.8-1.1v-1.1c1.8-0.4,5.6-1.4,5.6-3.6
		C85,81.2,84.2,80.3,82.9,80.3L82.9,80.3z M95.1,84c1-1.3,1.7-2,2.1-2.2c0.6-0.4,0.7-0.4,0.8-0.4c0.4,0,0.6,0.7,0.3,1.5
		c-0.4,1.3-1.1,2.2-1.8,3.2c-1,1.3-2.5,2.4-2.9,2.4c-0.1,0-0.3-0.1-0.3-0.4C93.3,87.3,94.1,85.5,95.1,84L95.1,84z M97.8,80.3
		c-1.3,0-2.8,0.6-4.2,1.8c-1.7,1.5-2.8,3.6-2.8,5.5c0,1.3,0.6,2.1,1.5,2.1c2.5,0,4.2-2.4,5.2-3.9l-0.4,1.4c-0.3,0.7-0.4,1.3-0.4,1.5
		c0,0.6,0.1,1,0.8,1c2.1,0,3.9-1.8,4.3-2.7c0.1-0.3,0-0.4-0.3-0.4c-0.7,0.7-1.8,1.4-2,1.4c-0.1,0-0.3-0.1-0.3-0.3
		c0-0.3,0.1-0.7,0.4-1.4l3.1-9.5c0.4-1.1,0.7-2,1.1-2.8c0-0.2-0.1-0.3-0.3-0.3c-1,0-3.2,0.4-3.9,0.7c-0.1,0.3-0.1,0.4-0.1,0.6
		l0.6,0.4c0.4,0.1,0.4,0.4,0.1,1.3l-1.4,4.2C98.7,80.6,98.3,80.3,97.8,80.3L97.8,80.3z M105.7,87.6c-0.1,0.1,0,0.3,0.1,0.3
		c0.3,0,1.4-0.8,2-1.3c0.3,0,0.6,0.1,0.4,0.4c-0.8,1.1-2.8,2.7-4.5,2.7c-0.7,0-1.1-0.6-1.1-0.8c0-0.3,0.1-0.6,0.3-1l2.2-5.5
		c0.1-0.1,0.1-0.3,0-0.3c-0.4,0-1.5,0.8-2,1.3c-0.3-0.1-0.4-0.4-0.3-0.6c1.1-1.4,3.2-2.5,4.3-2.5c0.6,0,1,0.6,1,1
		c0,0.3-0.1,0.6-0.3,1L105.7,87.6L105.7,87.6z M108.3,74.9c0.7,0,1.3,0.6,1.3,1.4c0,1-0.7,1.8-1.7,1.8c-0.8,0-1.4-0.6-1.4-1.4
		C106.4,75.7,107.1,74.9,108.3,74.9z"/>
	<path class="st2" d="M114.3,81.7c-0.8,2.8-1.5,5.3-2.4,8c-0.4,1.4-1,2.8-1.5,3.6c-0.6,1-2,2-3.4,2c-1,0-2.2-0.6-2.2-1.7
		c0-0.7,0.7-1.4,1.3-1.4c0.3,0,0.4,0.3,0.6,0.6c0.6,1,1.1,1.4,1.3,1.4c0.3,0,0.6-0.4,0.8-1.8c1-3.4,2-7,2.9-10.6h-2.1
		c-0.1-0.4,0.1-1,0.4-1.1h2c0.4-1.3,0.8-2.5,1.5-3.6c1-1.8,2.4-3.2,4.4-3.2c1.8,0,2.5,1,2.5,2c0,1.1-1,1.7-1.4,1.7
		c-0.3,0-0.6-0.3-0.6-0.7c-0.4-1.5-0.8-2-1.1-2c-0.3,0-0.8,0.6-1.3,1.7c-0.6,1.3-0.9,2.8-1.3,4.2h2.3c0.3,0.3,0.1,1-0.3,1.1
		L114.3,81.7L114.3,81.7L114.3,81.7z"/>
	<path class="st2" d="M120.8,81.7c-0.8,2.8-1.5,5.3-2.4,8c-0.4,1.4-1,2.8-1.5,3.6c-0.7,1-1.9,2-3.4,2c-1,0-2.1-0.6-2.1-1.7
		c0-0.7,0.6-1.4,1.1-1.4c0.4,0,0.6,0.3,0.7,0.6c0.6,1,1,1.4,1.3,1.4c0.3,0,0.4-0.4,0.8-1.8c1-3.4,1.8-7,2.9-10.6H116
		c-0.1-0.4,0-1,0.3-1.1h2.1c0.4-1.3,0.8-2.5,1.4-3.6c1-1.8,2.5-3.2,4.6-3.2c1.7,0,2.5,1,2.5,2c0,1.1-1,1.7-1.4,1.7
		c-0.4,0-0.6-0.3-0.7-0.7c-0.3-1.5-0.8-2-1.1-2c-0.3,0-0.7,0.6-1.1,1.7c-0.7,1.3-1.1,2.8-1.5,4.2h2.5c0.1,0.3,0,1-0.3,1.1
		L120.8,81.7L120.8,81.7L120.8,81.7z M127.8,81.3c0.3,0,0.4,0.3,0.4,0.6c0,0.4-0.3,1.3-0.7,1.8c-0.7,0.6-1.4,1-2.1,1.3
		c0.1-0.8,0.7-2.2,1.5-3.1C127.2,81.5,127.5,81.3,127.8,81.3L127.8,81.3z M128.6,80.3c-1.1,0-2.2,0.3-3.5,1.3
		c-1.7,1.4-2.9,3.6-2.9,5.6c0,1.4,0.8,2.5,2.4,2.5c2,0,3.6-1,4.8-2.7c0-0.3-0.3-0.4-0.4-0.4c-1,1-2.1,1.4-2.9,1.4
		c-0.6,0-0.8-0.6-0.8-1.1c0-0.4,0-0.8,0.1-1.1c1.7-0.4,5.5-1.4,5.5-3.6C130.7,81.2,129.9,80.3,128.6,80.3z M139.8,81.6
		c0,1.3-0.8,2.2-1.4,2.2c-0.4,0-0.6-0.4-0.7-1c0-0.4-0.1-0.6-0.3-0.6c-0.4,0-1,0.8-1.5,2c-1,1.7-1.5,3.4-2.2,5
		c-0.1,0.3-0.6,0.4-1.1,0.4c-0.6,0-1.4-0.1-1.1-0.8c0.6-2.1,1.4-4.3,2-6.3c0.1-0.3,0.1-0.7,0-0.7c-0.4,0-1.3,0.7-1.8,1.4
		c-0.3,0-0.4-0.3-0.4-0.6c0.4-0.8,1.8-2.4,3.4-2.4c1.3,0,1.4,1,1,2.1l-0.8,2.4h0.1c0.7-1.4,1.3-2.2,1.8-2.9c0.7-1,1.4-1.5,2.1-1.5
		C139.4,80.3,139.8,80.8,139.8,81.6L139.8,81.6z M144.9,81.3c0.3,0,0.4,0.3,0.4,0.6c0,0.4-0.4,1.3-0.8,1.8c-0.6,0.6-1.3,1-2.1,1.3
		c0.3-0.8,0.7-2.2,1.5-3.1C144.1,81.5,144.5,81.3,144.9,81.3z M145.6,80.3c-1.2,0-2.4,0.4-3.4,1.3c-1.8,1.4-2.9,3.6-2.9,5.6
		c0,1.4,0.7,2.5,2.2,2.5c2,0,3.8-1,4.8-2.7c0-0.3-0.1-0.4-0.4-0.4c-1,1-2,1.4-2.8,1.4c-0.7,0-1-0.6-1-1.1c0-0.4,0-0.8,0.1-1.1
		c1.8-0.4,5.5-1.4,5.5-3.6C147.7,81.2,146.8,80.3,145.6,80.3z M153,81.7l-1,2.7c1.3-1.8,2.9-4.1,5.2-4.1c1,0,1.4,0.7,1.4,1.3
		c0,0.6-0.3,1.3-0.6,2c-0.4,1.1-0.8,2.4-1.5,3.9c-0.1,0.3-0.1,0.4,0.1,0.4c0.3,0,1.3-0.8,1.8-1.4c0.3-0.1,0.6,0.1,0.6,0.4
		c-0.7,1.1-2.5,2.8-4.6,2.8c-0.6,0-1-0.4-1-0.8c0-0.4,0.1-0.8,0.3-1.3c0.7-1.5,1.4-2.9,2-4.5c0.1-0.6,0.3-0.8,0.3-1.1
		c0-0.1-0.1-0.3-0.3-0.3c-0.4,0-1,0.4-1.7,1.4c-1.3,1.5-2.4,4.1-3.4,6.2c-0.1,0.3-0.6,0.4-1.1,0.4c-0.6,0-1.4-0.1-1.1-0.8
		c0-0.4,1.7-5,2.1-6c0.1-0.4,0.1-0.7-0.1-0.7c-0.4,0-1.4,0.7-1.8,1.1c-0.3,0-0.4-0.1-0.4-0.3c0.6-1.1,2.4-2.7,4.2-2.7
		C153.3,80.3,153.1,81.2,153,81.7L153,81.7z M159.8,87.2c0-1.4,0.7-3.4,2-4.8c1.4-1.5,2.8-2.1,3.9-2.1c1.3,0,2.2,0.6,2.2,1.7
		c0,0.8-0.7,1.4-1.4,1.4c-0.6,0-1-0.3-1-0.8c0-0.4,0-1.3-0.4-1.3c-0.3,0-0.8,0.4-1.4,1.4c-0.6,1-1,2.4-1,3.9c0,1.1,0.4,1.4,0.8,1.4
		c0.6,0,1.4-0.3,2.4-1.3c0.3,0,0.4,0.1,0.4,0.4c-0.7,1.1-2.5,2.5-4.3,2.5C160.7,89.7,159.8,88.7,159.8,87.2L159.8,87.2z M173.7,81.3
		c0.3,0,0.4,0.3,0.4,0.6c0,0.4-0.3,1.3-0.7,1.8c-0.7,0.6-1.4,1-2.1,1.3c0.1-0.8,0.7-2.2,1.5-3.1C173.1,81.5,173.4,81.3,173.7,81.3
		L173.7,81.3z M174.5,80.3c-1.1,0-2.2,0.3-3.5,1.3c-1.7,1.4-2.9,3.6-2.9,5.6c0,1.4,0.8,2.5,2.4,2.5c2,0,3.6-1,4.8-2.7
		c0-0.3-0.1-0.4-0.4-0.4c-1,1-2.1,1.4-2.8,1.4c-0.7,0-1-0.6-1-1.1c0-0.4,0-0.8,0.1-1.1c1.7-0.4,5.5-1.4,5.5-3.6
		C176.6,81.2,175.8,80.3,174.5,80.3L174.5,80.3z M180.4,81.9c-1,0-1.8-0.8-1.8-1.8c0-0.8,0.8-1.7,1.8-1.7c0.8,0,1.7,0.8,1.7,1.7
		C182.1,81,181.3,81.9,180.4,81.9z M180.4,82.3c1.1,0,2.1-1,2.1-2.2c0-1.1-1-2.1-2.1-2.1c-1.3,0-2.2,1-2.2,2.1
		C178.2,81.3,179.1,82.3,180.4,82.3C180.4,82.3,180.4,82.3,180.4,82.3z M180.8,80.3c0.4,0,0.7-0.3,0.7-0.7c0-0.1-0.1-0.4-0.3-0.6
		c-0.3-0.1-0.4-0.1-0.7-0.1h-1.1v2.4h0.6v-1h0.4l0.4,1h0.6L180.8,80.3L180.8,80.3z M180,79.9v-0.6h0.6c0.1,0,0.4,0,0.4,0.3
		c0,0.3-0.1,0.3-0.4,0.3L180,79.9L180,79.9z M178,86.8c0.5,0,1,0.4,1,0.9c0,0,0,0,0,0c0,0.8-0.6,1.4-1.4,1.4c-0.5,0-1-0.4-1-0.9
		c0,0,0,0,0,0C176.6,87.5,177.2,86.8,178,86.8z"/>
</g>
</svg>
