<svg width="200" height="120" viewBox="0 0 200 120" fill="none" xmlns="http://www.w3.org/2000/svg">
<g clip-path="url(#clip0_654_897)">
<path fill-rule="evenodd" clip-rule="evenodd" d="M19.7042 52.4534L16 70.0322H53.2616L57.0547 52.4534H19.7042Z" fill="#161DBD"/>
<path fill-rule="evenodd" clip-rule="evenodd" d="M155.16 70.0143H161.834L163.6 61.5924L166.575 70.0143H173.071L176.751 52.4592H170.078L168.347 60.7093L165.437 52.4592H158.841L155.16 70.0143Z" fill="#161DBD"/>
<path fill-rule="evenodd" clip-rule="evenodd" d="M143.163 70.548C150.038 70.548 154.282 65.9785 155.272 61.243C156.261 56.5075 153.938 51.938 147.063 51.938C140.188 51.938 135.95 56.5194 134.955 61.2608C133.959 66.0022 136.294 70.5658 143.163 70.5658V70.548ZM144.349 64.9295C142.571 64.9295 141.142 63.6967 141.658 61.243C141.822 60.2297 142.336 59.3058 143.11 58.6315C143.884 57.9571 144.869 57.5747 145.896 57.5506C147.674 57.5506 149.096 58.7834 148.586 61.243C148.419 62.2557 147.904 63.1783 147.129 63.8514C146.354 64.5245 145.369 64.9058 144.343 64.9295H144.349Z" fill="#161DBD"/>
<path fill-rule="evenodd" clip-rule="evenodd" d="M117.271 67.7091C119.884 70.0798 122.148 70.548 124.027 70.548C128.691 70.548 132.372 68.1773 133.202 64.2242C133.895 60.9171 131.536 59.8325 130.831 59.5124C128.828 58.6293 126.789 58.8071 127.056 57.5269C127.216 56.7505 128.099 56.5016 128.899 56.5016C129.985 56.5504 131.033 56.915 131.916 57.5507L134.754 53.6923C134.304 53.3427 132.342 51.9143 128.751 51.9143C123.76 51.9143 120.921 54.9192 120.269 58.0307C119.457 61.9187 122.984 62.7721 124.383 63.1989C125.568 63.5248 126.641 63.7915 126.433 64.7754C126.344 65.2021 125.971 65.7829 124.744 65.7829C123.209 65.7829 122.03 64.9769 120.773 63.7738L117.271 67.7091Z" fill="#161DBD"/>
<path fill-rule="evenodd" clip-rule="evenodd" d="M101.808 67.7091C104.415 70.0798 106.679 70.548 108.564 70.548C113.229 70.548 116.909 68.1773 117.739 64.2242C118.432 60.9171 116.073 59.8325 115.368 59.5124C113.371 58.6293 111.326 58.8071 111.593 57.5269C111.759 56.7505 112.642 56.5016 113.442 56.5016C114.528 56.5514 115.576 56.9159 116.459 57.5507L119.297 53.6923C118.847 53.3427 116.879 51.9143 113.294 51.9143C108.303 51.9143 105.464 54.9192 104.813 58.0307C104.001 61.9187 107.527 62.7721 108.92 63.1989C110.105 63.5248 111.184 63.7915 110.976 64.7754C110.887 65.2021 110.514 65.7829 109.281 65.7829C107.752 65.7829 106.567 64.9769 105.316 63.7738L101.808 67.7091Z" fill="#161DBD"/>
<path fill-rule="evenodd" clip-rule="evenodd" d="M93.2725 70.0143H100.296L103.976 52.4592H96.953L93.2725 70.0143Z" fill="#161DBD"/>
<path fill-rule="evenodd" clip-rule="evenodd" d="M74.2178 70.0143H82.3789C88.8984 70.0143 92.6085 65.9545 93.5983 61.2427C94.4221 57.3014 93.5568 52.4592 86.0535 52.4592H77.8983L74.2178 70.0143ZM82.3078 64.9291L83.8547 57.5503H84.4059C86.3617 57.5503 87.4759 58.706 86.9425 61.2427C86.2135 64.7276 83.6887 64.9291 82.859 64.9291H82.3078Z" fill="#161DBD"/>
<path fill-rule="evenodd" clip-rule="evenodd" d="M59.7686 70.0143H72.0607L73.1275 64.9291H67.8586L68.2083 63.2459H72.9497L73.8328 59.032H69.0914L69.4055 57.5503H74.6684L75.7353 52.4592H63.4491L59.7686 70.0143Z" fill="#161DBD"/>
<path d="M181.54 50C181.052 49.9988 180.574 50.1426 180.168 50.4131C179.761 50.6835 179.445 51.0685 179.257 51.5193C179.07 51.97 179.021 52.4663 179.115 52.9451C179.21 53.4239 179.445 53.8638 179.791 54.2089C180.136 54.5541 180.576 54.789 181.054 54.884C181.533 54.9789 182.029 54.9296 182.48 54.7423C182.931 54.5549 183.316 54.238 183.586 53.8316C183.857 53.4253 184.001 52.9478 183.999 52.4596C183.999 51.8073 183.74 51.1817 183.279 50.7204C182.818 50.2591 182.192 50 181.54 50ZM181.54 54.4391C181.148 54.4391 180.766 54.3231 180.44 54.1055C180.115 53.888 179.861 53.5789 179.711 53.2171C179.561 52.8554 179.522 52.4574 179.598 52.0734C179.675 51.6894 179.863 51.3367 180.14 51.0599C180.417 50.783 180.77 50.5945 181.154 50.5181C181.538 50.4417 181.936 50.4809 182.297 50.6308C182.659 50.7806 182.968 51.0343 183.186 51.3598C183.403 51.6854 183.519 52.0681 183.519 52.4596C183.519 52.9846 183.311 53.4881 182.94 53.8594C182.568 54.2306 182.065 54.4391 181.54 54.4391Z" fill="#161DBD"/>
<path d="M182.743 51.8906C182.75 51.7805 182.732 51.6703 182.691 51.5679C182.65 51.4655 182.587 51.3733 182.506 51.2979C182.405 51.2143 182.289 51.1514 182.164 51.1127C182.039 51.0741 181.908 51.0605 181.777 51.0727H180.592V53.8346H181.084V52.7026H181.783L182.21 53.8346H182.731L182.251 52.6492C182.406 52.5957 182.539 52.492 182.628 52.3545C182.717 52.2171 182.757 52.0538 182.743 51.8906ZM182.097 52.1929C181.981 52.2782 181.838 52.3182 181.694 52.3055H181.102V51.4757H181.759C181.889 51.4694 182.017 51.5093 182.121 51.5883C182.164 51.6245 182.198 51.67 182.22 51.7214C182.243 51.7728 182.254 51.8286 182.251 51.8847C182.251 51.9445 182.237 52.0035 182.211 52.057C182.184 52.1105 182.145 52.157 182.097 52.1929Z" fill="#161DBD"/>
<path fill-rule="evenodd" clip-rule="evenodd" d="M52.0404 58.8898C51.7412 59.9692 51.0333 60.8897 50.0668 61.4561C49.1178 62.0617 48.0159 62.3844 46.8901 62.3866H27.2606C26.4665 62.3866 26.1879 61.9658 26.425 61.1182C26.5005 60.758 26.7059 60.4381 27.0021 60.2195C27.2983 60.0009 27.6646 59.8989 28.0311 59.9329H48.1821C48.4848 59.9428 48.7808 59.8425 49.0152 59.6507C49.2495 59.4588 49.4063 59.1885 49.4564 58.8898C49.646 58.2023 49.3971 57.8585 48.7037 57.8585H28.766C25.4174 57.8585 24.724 58.9431 24.1135 61.1182C23.5031 63.2934 24.321 64.372 26.5435 64.372H49.1126C50.0431 64.372 50.3928 64.7869 50.1617 65.6048C49.9305 66.4227 49.2845 66.8376 48.2295 66.8376H25.9331C21.9325 66.8376 20.6997 64.1705 21.7843 60.3833C22.1375 58.8166 23.0688 57.4409 24.3921 56.5309C25.7256 55.553 27.2725 55.393 29.1335 55.393H48.8104C49.7947 55.3414 50.7615 55.6679 51.513 56.3057C52.153 56.8865 52.3486 57.7518 52.0404 58.8898Z" fill="#EA0A0A"/>
</g>
<rect x="0.5" y="0.5" width="199" height="119" stroke="black"/>
<defs>
<clipPath id="clip0_654_897">
<rect width="168" height="21" fill="white" transform="translate(16 50)"/>
</clipPath>
</defs>
</svg>
