<?xml version="1.0" encoding="utf-8"?>
<!-- Generator: Adobe Illustrator 24.0.1, SVG Export Plug-In . SVG Version: 6.00 Build 0)  -->
<svg version="1.1" id="Слой_1" xmlns="http://www.w3.org/2000/svg" xmlns:xlink="http://www.w3.org/1999/xlink" x="0px" y="0px"
	 viewBox="0 0 200 120" style="enable-background:new 0 0 200 120;" xml:space="preserve">
<style type="text/css">
	.st0{fill-rule:evenodd;clip-rule:evenodd;}
</style>
<path class="st0" d="M162,45.9l18,0c5.6,0,7.8,3.8,7.8,7.1c0,5.6-5.1,6.6-5.1,6.6l6.5,10.4h-13.2l-2.8-6.9l0,6.9h-23.9l-2.8-6.9
	l0,6.9h-11.3V45.9l18,0c5.6,0,7.8,3.8,7.8,7.1c0,5.6-5.1,6.6-5.1,6.6l6,9.6V45.9z M72.2,50.5v4.6h1.6c0.9,0,1.5-0.5,1.8-1.1
	c0.2-0.5,0.4-1.4,0-2.3c-0.5-1.1-1.5-1.1-1.8-1.1L72.2,50.5z M60.7,45.9c0,0,16.4,0,19.2,0c5.4,0,6.6,4,6.6,6.4c0,4.2-3,5.3-3,5.3
	s3.2,1.2,3.2,5.7c0,7-6.5,6.8-7.5,6.8H60.7V45.9z M134.1,70.1v-5.5h-5.2v-4.4h5.2v-4.8h-5.2v-4.6h5.2v-4.7H117v24.1L134.1,70.1z
	 M103.5,70.1h11.9V45.9h-11.9v9.1h-3.9v-9.1H87.5v24.1h12.2V59.9h3.9L103.5,70.1z M59.6,70.1v-5.5h-5.2v-4.4h5.2v-4.8h-5.2v-4.6h5.2
	v-4.7H42.4v24.1L59.6,70.1z M29.2,45.9h11.7v24.1H29.2V45.9z M28,70.1v-6.7h-5.2V45.9H10.7v24.1L28,70.1z M146.3,50.5v5.7h1.4
	c1.5,0,2.1-0.7,2.4-1.5c0.3-0.6,0.4-1.7,0-2.9c-0.2-0.6-0.9-1.4-2.4-1.4H146.3z M173.1,50.5v5.7h1.4c1.5,0,2.1-0.7,2.4-1.5
	c0.3-0.6,0.4-1.7,0-2.9c-0.2-0.6-0.9-1.4-2.4-1.4H173.1z M72.1,60.3v4.9h1.6c0.9,0,1.7-0.6,2.1-1.2c0.3-0.5,0.4-1.6,0-2.5
	c-0.6-1.3-1.9-1.2-2-1.2L72.1,60.3z"/>
</svg>
