<svg width="200" height="120" viewBox="0 0 200 120" fill="none" xmlns="http://www.w3.org/2000/svg">
<path d="M41.3795 63.1199C44.1995 61.5599 45.6395 60.0599 46.6595 56.8199C48.5195 50.0999 45.6395 46.6799 40.8995 46.6799H29.6795L26.0195 69.2999H30.9995L31.8995 64.0199C35.1395 64.3199 38.5595 64.6799 41.3795 63.1199ZM41.4395 50.0999C42.8195 52.0799 42.4595 55.5599 41.3195 57.9599C40.1795 60.4799 39.0995 61.4999 36.4595 62.1599C34.6595 62.5799 34.3595 62.3399 32.1995 62.2199L34.4195 48.5399H37.9595C39.4595 48.5399 40.8395 49.2599 41.4395 50.0999Z" fill="#861D31"/>
<path d="M62.2596 63.1799C63.6996 62.8799 64.4796 62.3999 65.7396 61.3799C66.3396 60.8399 66.9996 59.9999 67.5396 58.3799C67.8996 57.2999 68.1996 56.0399 68.1396 54.9599C68.0196 52.5599 66.7596 51.4799 65.4396 50.7599C64.7796 50.3999 63.3996 49.9199 60.9996 49.9199H51.8196L48.6396 69.7799H53.1996L56.0196 52.3799C57.3996 52.3799 59.6796 52.3199 60.3396 52.4399C61.4196 52.6199 63.0396 53.3399 63.3396 54.7799C63.5796 55.8599 63.5796 57.4199 62.9196 59.0399C62.2596 60.7199 61.4796 61.6199 60.3396 62.2199C59.1996 62.7599 58.4196 62.9399 56.9196 62.7599L63.9996 77.3999H69.3996C69.3996 77.3999 62.7396 64.3199 62.2596 63.1799Z" fill="#861D31"/>
<path d="M92.44 54.66C92.02 53.1 91.06 51.84 89.56 50.82C88.12 49.8 86.08 49.26 83.5 49.26C81.76 49.26 80.14 49.5 78.64 50.04C77.14 50.58 75.76 51.3 74.62 52.2C73.48 53.16 72.52 54.24 71.8 55.56C71.08 56.88 70.6 58.2 70.36 59.58C70 61.68 70.18 63.54 70.84 65.1C71.5 66.66 72.58 67.86 74.08 68.64C75.58 69.42 77.38 69.84 79.54 69.84C81.34 69.84 82.96 69.54 84.46 69C85.96 68.46 87.34 67.68 88.48 66.72C89.62 65.76 90.58 64.68 91.3 63.42C92.02 62.16 92.5 60.84 92.68 59.46C92.98 57.84 92.92 56.22 92.44 54.66ZM85.42 51.54C86.14 51.96 86.74 52.56 87.1 53.34C87.46 54.12 87.76 54.96 87.82 55.92C87.94 56.88 87.94 57.84 87.82 58.8C87.58 60.48 87.16 61.98 86.5 63.42C85.84 64.8 84.94 65.94 83.86 66.84C82.78 67.74 81.52 68.16 80.08 68.22C78.04 68.28 76.6 67.56 75.82 66.06C74.98 64.56 74.74 62.76 75.04 60.72C75.46 57.54 76.36 55.2 77.68 53.58C79 51.96 80.74 51.18 82.78 51.12C83.8 50.94 84.7 51.12 85.42 51.54Z" fill="#861D31"/>
<path d="M102.04 49.9199L99.2197 67.7999L109.6 67.3799L108.94 69.7199H94.1797L97.2397 49.9199H102.04Z" fill="#861D31"/>
<path d="M131.979 54.66C131.559 53.1 130.599 51.84 129.099 50.82C127.659 49.8 125.619 49.26 123.039 49.26C121.299 49.26 119.679 49.5 118.179 50.04C116.679 50.58 115.299 51.3 114.159 52.2C113.019 53.16 112.059 54.24 111.339 55.56C110.619 56.88 110.139 58.2 109.899 59.58C109.539 61.68 109.719 63.54 110.379 65.1C111.039 66.66 112.119 67.86 113.619 68.64C115.119 69.42 116.919 69.84 119.079 69.84C120.879 69.84 122.499 69.54 123.999 69C125.499 68.46 126.879 67.68 128.019 66.72C129.159 65.76 130.119 64.68 130.839 63.42C131.559 62.16 132.039 60.84 132.219 59.46C132.519 57.84 132.459 56.22 131.979 54.66ZM124.959 51.54C125.679 51.96 126.279 52.56 126.639 53.34C126.999 54.12 127.299 54.96 127.419 55.92C127.539 56.88 127.539 57.84 127.419 58.8C127.179 60.48 126.759 61.98 126.099 63.42C125.439 64.8 124.539 65.94 123.459 66.84C122.379 67.74 121.119 68.16 119.679 68.22C117.639 68.28 116.199 67.56 115.419 66.06C114.579 64.56 114.339 62.76 114.579 60.72C114.999 57.54 115.899 55.2 117.219 53.58C118.539 51.96 120.279 51.18 122.319 51.12C123.339 50.94 124.239 51.12 124.959 51.54Z" fill="#861D31"/>
<path d="M153.52 60.7199L152.26 68.6399C149.14 69.4799 146.56 69.9599 144.58 69.9599C142.54 69.9599 140.68 69.5999 139.12 68.8799C137.56 68.1599 136.36 67.0799 135.58 65.5799C134.8 64.0799 134.56 62.2799 134.92 60.1199C135.28 57.7799 136.12 55.8599 137.38 54.2399C138.64 52.6199 140.2 51.4199 142.12 50.5799C143.98 49.7399 146.02 49.3799 148.24 49.3799C150.76 49.3799 152.92 49.9799 154.72 51.1199L153.1 53.9999C152.62 53.0399 151.96 52.3199 151.06 51.8399C150.16 51.3599 149.14 51.0599 148 51.0599C145.78 51.0599 143.92 51.9599 142.42 53.6999C140.92 55.4399 140.02 57.6599 139.6 60.2399C139.24 62.6999 139.48 64.6799 140.44 66.0599C141.4 67.4999 142.96 68.1599 145.06 68.1599C146.2 68.1599 147.28 67.9199 148.24 67.3799L149.26 60.6599H153.52V60.7199Z" fill="#861D31"/>
<path d="M159.64 69.7199L160.78 62.8799L156.22 49.9199H161.5L164.62 59.8799L171.28 49.9199H174.1L165.28 62.3399L164.08 69.7199H159.64Z" fill="#861D31"/>
<rect x="0.5" y="0.5" width="199" height="119" stroke="black"/>
</svg>
