<?xml version="1.0" encoding="utf-8"?>
<!-- Generator: Adobe Illustrator 24.0.1, SVG Export Plug-In . SVG Version: 6.00 Build 0)  -->
<svg version="1.1" id="Слой_1" xmlns="http://www.w3.org/2000/svg" xmlns:xlink="http://www.w3.org/1999/xlink" x="0px" y="0px"
	 viewBox="0 0 200 120" style="enable-background:new 0 0 200 120;" xml:space="preserve">
<style type="text/css">
	.st0{display:none;fill-rule:evenodd;clip-rule:evenodd;fill:#FFFFFF;}
	.st1{fill-rule:evenodd;clip-rule:evenodd;fill:#344B84;}
	.st2{fill-rule:evenodd;clip-rule:evenodd;fill:#5BA653;}
</style>
<g>
	<path class="st0" d="M-6.7-46.7h213.4v213.4H-6.7V-46.7z"/>
	<path class="st1" d="M132.3,42.8c2.1,0,3.8,1.7,3.8,3.8c0,2-1.7,3.7-3.8,3.7s-3.8-1.7-3.8-3.7C128.5,44.5,130.2,42.8,132.3,42.8
		L132.3,42.8z M181.8,59.5c0-4.4,3.9-7,7.9-7.1c2.6,0,5.6,0.7,7.1,2c-0.5,1.2-1.1,2.4-1.6,3.6c-0.9-0.5-3-1.4-5.1-1.4
		c-1.6,0-3.2,0.6-3.2,2.2c0,3.7,10.4,1.7,10.4,9.9c0,3.8-2.9,7.4-8.1,7.4c-3.2,0-5.8-1-8.4-2.5c0.5-1.3,1.2-2.7,1.8-4
		c1,0.3,3.2,1.6,5.5,1.9c1.7,0.2,3.8-0.2,3.8-1.9C191.9,65.1,181.8,67.2,181.8,59.5L181.8,59.5z M77.6,73.7
		c-0.1,0.1-0.2,0.2-0.2,0.3c-1.3,1.6-3,2.3-5.2,2.4c-3.8,0.2-7-3-7-6.9c0-6.4,6-7.9,11.8-8.1v-1.7c0-2-1.8-2.5-3.7-2.5
		c-2.1,0.2-4.4,1.2-5.4,1.7c-0.4-1.3-0.8-2.6-1.3-3.9c1.9-1.3,5.2-2.3,8.3-2.3c3.8,0,7.3,1.5,7.3,5.8v11.3c0,2.1,0.5,3.2,1.5,4.5
		c-1.2,0.5-2.3,1-3.4,1.6c-1,0.5-1,0.7-1.7-0.2C78.1,75,77.7,74.5,77.6,73.7z M76.9,65.4h-1.7c-1.9,0-4.5,0.9-4.5,3.6
		c-0.2,2,1.2,3.6,3,3.6c2.1,0,3.3-1.2,3.3-3V65.4L76.9,65.4z M37.9,52.2c1,0.6,1.5,2.1,1.7,3.6c1.8-2.3,4-3.3,6.4-3.3
		c2.1-0.1,4.2,0.9,5,3.3c1.8-2.3,4.2-3.3,6.5-3.3c2.8-0.1,5.4,1.4,5.4,6.3v17h-5.6V60.5c0-1.9-1-3-2.6-3c-1.5,0-3.3,1.2-3.3,3.3
		v14.9H46V60.5c0-1.9-1-2.7-2.6-2.7c-1.9,0-3.6,1.1-3.6,2.9v15.1h-5.5V58.5c0-1.9-0.2-3-1-4.1C34.6,53.8,36.5,52.8,37.9,52.2z
		 M143.8,52.1c1.1,0.7,1.6,2.2,1.9,3.7c1.9-2.5,5-3.7,7.5-3.3s4.6,2.3,4.6,6.2v17.1h-5.6V60.1c0-1.9-1.5-2.8-3.1-2.8
		c-1.8,0-3.3,1.7-3.3,3.5v15h-5.6V58.4c0-1.9-0.2-3.1-1-4.1C140.7,53.6,142.3,52.8,143.8,52.1L143.8,52.1z M110.6,42.8v12.9
		c1.9-1.9,4.3-3.2,6.8-3.3c2.9-0.1,5.1,1.9,5.1,6.7v16.7h-5.4V60.2c0-1.9-1.2-2.8-2.9-2.7c-2.2,0-3.7,1.6-3.7,3.4v14.9h-5.4V45.3
		L110.6,42.8L110.6,42.8z M179.6,65.6h-13.3c-0.1,3.5,2,6.7,5.8,6.1c1.6-0.2,3.5-1.1,5.2-1.9l1.6,3.8c-2.3,1.6-4.9,2.6-7.8,2.7
		c-7.2,0.2-10.4-5.1-10.5-11.8c-0.1-7.5,3.7-11.8,9.3-12.2C177.8,51.6,179.7,59.3,179.6,65.6L179.6,65.6z M170.2,56.4
		c-2,0-3.5,1.9-3.8,5.2h7.5C173.9,58.3,172.1,56.4,170.2,56.4L170.2,56.4z M96.1,53.1c2.3,0,4.4,0.8,6.2,2.1l-2,3.3
		c-0.3,0.6-0.3,0.9-0.9,0.3c-0.9-0.9-2.1-1.6-3.3-1.6c-3.1,0-4.8,2.3-4.8,7.4c0,5.3,1.7,7.5,4.8,7.5c1.3,0,2.6-0.7,3.6-1.8
		c0.5-0.6,0.3-0.9,0.6-0.1l1.5,4c-1.8,1.2-4.1,2-6.7,2c-6.5,0-9.8-4.7-9.8-11.7C85.3,57.7,90.1,53.1,96.1,53.1L96.1,53.1z
		 M125.2,53.2h9.7v22.6h-5.4V57.6h-4.3L125.2,53.2L125.2,53.2z"/>
	<path class="st2" d="M26.7,53.8c3,0.9,3.7,3,3.3,5.1c-0.9,4.1-4.6,6.1-8.6,6.8c-2.5,0.5-5.1,0.6-7.3,0.5c-0.5,2.1-0.9,3.7,2.8,6.7
		c0.1,0,0.1,0.1,0.2,0.2c-3.3,0.5-7,1.1-10.6,1.6c-0.9,0.2-0.9,0-1.6-0.7c-2.4-2.6-2.7-6.4-1.6-9.7c1.9-5.3,7.5-9,12.8-10.4
		C19.7,53,23.6,52.8,26.7,53.8L26.7,53.8z M25.3,70c-4.7,3.1-9.8,5.7-16.1,6.8c1,0.3,2,0.5,3.3,0.5c7.4,0.2,12-3.3,14.2-5.4L25.3,70
		L25.3,70z M15.8,63.3c1.2-0.1,3.2-0.6,4.7-1.9c1.1-0.9,2.1-2.6,1-3.8c-0.9-1-3-0.9-4.5,1.6C16.1,60.4,15.2,62.3,15.8,63.3
		L15.8,63.3z"/>
</g>
</svg>
