<?xml version="1.0" encoding="utf-8"?>
<!-- Generator: Adobe Illustrator 24.0.1, SVG Export Plug-In . SVG Version: 6.00 Build 0)  -->
<svg version="1.1" id="Layer_1" xmlns="http://www.w3.org/2000/svg" xmlns:xlink="http://www.w3.org/1999/xlink" x="0px" y="0px"
	 viewBox="0 0 200 120" style="enable-background:new 0 0 200 120;" xml:space="preserve">
<style type="text/css">
	.st0{fill:#005DAA;}
</style>
<polygon class="st0" points="182.6,49.2 181.3,49.2 181.3,48.6 184.6,48.6 184.6,49.2 183.2,49.2 183.2,52.9 182.6,52.9 "/>
<polygon class="st0" points="185.2,48.6 186.2,48.6 187.5,52.2 188.8,48.6 189.9,48.6 189.9,52.9 189.2,52.9 189.2,49.2 189.2,49.2 
	187.8,52.9 187.2,52.9 185.8,49.2 185.8,49.2 185.8,52.9 185.2,52.9 "/>
<rect x="36.7" y="48.6" class="st0" width="6.1" height="22.8"/>
<path class="st0" d="M78.8,48.6h7.5l8.8,22.9h-6.7l-1.7-4.9h-8.6l-1.8,4.9h-6.2L78.8,48.6 M82.6,53.3L82.6,53.3l-3,8.9h5.7
	L82.6,53.3"/>
<path class="st0" d="M98.1,48.6h10.5c4.3,0,7.4,1.9,7.4,5.8c0,2.9-1.5,4.5-4,5.3v0.1c3,0.6,4.6,2.3,4.6,5.1c0,5.5-4.8,6.6-8.9,6.6
	h-9.6V48.6 M104.2,67.1h1.8c2.2,0,4.6-0.3,4.6-2.7c0-2.5-2.4-2.7-4.5-2.7h-1.9L104.2,67.1 M104.2,57.6h1.7c2,0,4.1-0.5,4.1-2.4
	c0-2.1-2-2.3-4-2.3h-1.8V57.6"/>
<polyline class="st0" points="124.9,62.8 116.4,48.6 123.4,48.6 127.9,57.7 132.4,48.6 139.4,48.6 131,62.8 131,71.4 124.9,71.4 
	124.9,62.8 "/>
<polyline class="st0" points="147.5,53.1 141.9,53.1 141.9,48.6 159.2,48.6 159.2,53.1 153.6,53.1 153.6,71.4 147.5,71.4 
	147.5,53.1 "/>
<polyline class="st0" points="162.1,48.6 178.3,48.6 178.3,52.9 168.2,52.9 168.2,57.6 177.7,57.6 177.7,61.9 168.2,61.9 
	168.2,67.1 178.6,67.1 178.6,71.4 162.1,71.4 162.1,48.6 "/>
<path class="st0" d="M22.9,53.6c-4.1,0.3-6.3,3-6.3,6.4c0,3.3,3.1,6.2,6.1,6.2l0.7,0h1.1c0,0,0.7,0,0.7-0.7v-7.2h6.3
	c0,4.1,0,13.2,0,13.2s-6.2,0-9.8,0c-6.7,0-11.6-5.6-11.6-11.4c0-6.3,5.2-11.6,11.8-11.4l9.4,0l0,4.9L22.9,53.6"/>
<path class="st0" d="M59.1,53.6c-4.1,0.3-6.3,3-6.3,6.4c0,3.3,3.1,6.2,6.1,6.2l0.7,0h1.1c0,0,0.7,0,0.7-0.7v-7.2h6.2
	c0,4.1,0,13.2,0,13.2s-6.2,0-9.8,0c-6.7,0-11.5-5.6-11.5-11.4c0-6.3,5.2-11.6,11.8-11.4l9.3,0l0,4.9H59.1"/>
</svg>
