<svg width="200" height="120" viewBox="0 0 200 120" fill="none" xmlns="http://www.w3.org/2000/svg">
<g clip-path="url(#clip0_654_887)">
<path d="M125.001 48.5322L127.243 46.9329L127.425 46.8064H127.734H129.097H130.147L129.615 47.2669L126.644 49.8538L126.469 50.0085H126.126H123.873H123.53L123.355 49.8538L120.384 47.2669L119.852 46.8064H120.903H122.269H122.581L122.759 46.9329L125.001 48.5322Z" fill="#A81524"/>
<path d="M178.001 69.8854V70.395H177.454H163.361H162.814V69.8854V51.6254V51.1157H163.361H177.454H178.001V51.6254V53.5621V54.0718H177.454H166.121V59.0278H177.118H177.665V59.5375V61.4004V61.9065H177.118H166.121V67.4636H177.454H178.001V67.9733V69.8854Z" fill="#A81524"/>
<path d="M142.993 57.7308C142.993 56.5428 143.123 55.5305 143.386 54.6869C143.659 53.8081 144.072 53.1157 144.633 52.606C145.193 52.0964 145.953 51.7168 146.917 51.4707C147.835 51.2352 148.942 51.1157 150.238 51.1157H152.588C153.864 51.1157 154.96 51.2177 155.874 51.4215C156.827 51.6324 157.587 51.9558 158.152 52.3952C158.726 52.838 159.157 53.4285 159.437 54.1702C159.707 54.8802 159.844 55.7238 159.844 56.6974V57.4777V57.9733H159.297H157.002H156.456V57.4777V56.9856C156.456 56.3565 156.386 55.8327 156.249 55.425C156.123 55.0524 155.948 54.7748 155.713 54.5885C155.472 54.3951 155.093 54.2475 154.575 54.1421C154.011 54.0261 153.296 53.9698 152.431 53.9698H150.879C150.28 53.9698 149.772 53.9839 149.344 54.0155C148.931 54.0472 148.605 54.0893 148.364 54.1456C148.129 54.2018 147.915 54.2791 147.719 54.3741C147.53 54.4654 147.362 54.5744 147.211 54.6974L147.204 54.7009C147.064 54.8169 146.941 54.954 146.84 55.1122C146.735 55.2739 146.651 55.4566 146.587 55.6605C146.524 55.8714 146.475 56.1877 146.44 56.606V56.6095C146.405 57.0419 146.388 57.5797 146.388 58.2229V63.3055C146.388 63.9452 146.405 64.4794 146.44 64.9083C146.475 65.323 146.524 65.6394 146.591 65.8573C146.654 66.0576 146.738 66.2404 146.84 66.3986C146.941 66.5568 147.064 66.6938 147.204 66.8098L147.211 66.8133C147.362 66.9399 147.53 67.0524 147.712 67.1402H147.715C147.901 67.2316 148.108 67.3089 148.329 67.3652C148.553 67.4214 148.875 67.4636 149.292 67.4952C149.723 67.5269 150.248 67.5409 150.875 67.5409H152.427C153.314 67.5409 154.046 67.4812 154.62 67.3617C155.142 67.2527 155.521 67.0981 155.755 66.8977C155.987 66.7009 156.162 66.3986 156.288 65.9909C156.428 65.5374 156.498 64.968 156.498 64.2756C156.498 64.0893 156.498 64.0049 156.498 63.9838C156.498 63.9135 156.494 63.8397 156.491 63.7765C156.487 63.7308 156.487 63.6816 156.484 63.6077V63.6042C156.484 63.5726 156.477 63.5269 156.473 63.4601L156.424 62.9258H157.016H159.297H159.84V63.4214V64.5954C159.84 65.6323 159.71 66.5216 159.451 67.2633C159.178 68.0401 158.765 68.6516 158.204 69.1016V69.1051C157.654 69.5444 156.897 69.8713 155.93 70.0857C155.009 70.2896 153.895 70.3915 152.588 70.3915H150.238C148.942 70.3915 147.838 70.272 146.917 70.0365C145.957 69.7905 145.197 69.4109 144.633 68.9012C144.072 68.3915 143.655 67.6991 143.386 66.8204C143.126 65.9803 142.993 64.9645 142.993 63.78V57.7308Z" fill="#A81524"/>
<path d="M136.222 70.395V69.8854V51.6254V51.1157H136.768H139.007H139.557V51.6254V69.8854V70.395H139.007H136.768H136.222Z" fill="#A81524"/>
<path d="M132.631 70.395H117.368H116.821V69.8854V67.7061V67.5198L116.951 67.3792L129.107 53.9487H117.949H117.403V53.4426V51.6254V51.1157H117.949H132.631H133.181V51.6254V53.7589V53.9417L133.052 54.0858L120.969 67.4636H132.631H133.181V67.9733V69.8854V70.395H132.631Z" fill="#A81524"/>
<path d="M102.055 62.9012H109.184L105.607 54.1139L102.055 62.9012ZM95.8437 69.7061L103.267 51.4461L103.4 51.1157H103.778H107.436H107.814L107.947 51.4461L115.409 69.7061L115.689 70.3915H114.898H112.603H112.225L112.092 70.0646L110.308 65.7202H100.902L99.1613 70.0611L99.0281 70.3915H98.6498H96.3552H95.5635L95.8437 69.7061Z" fill="#A81524"/>
<path d="M87.1743 54.0718H81.31V60.3635H87.1743C87.9836 60.3635 88.6422 60.3213 89.1536 60.2334C89.6125 60.1561 89.9383 60.0471 90.1275 59.91C90.3027 59.7835 90.4358 59.5972 90.5304 59.3512C90.639 59.07 90.6915 58.715 90.6915 58.2862V56.1526C90.6915 55.7132 90.639 55.3512 90.5339 55.0665C90.4428 54.8204 90.3167 54.6377 90.1485 54.5146H90.145C89.9664 54.3811 89.6476 54.2791 89.1887 54.2018C88.6772 54.1139 88.0046 54.0718 87.1743 54.0718ZM78.0029 69.8854V51.6254V51.1157H78.5494H87.6192C88.7823 51.1157 89.7702 51.1966 90.5864 51.3547C91.4447 51.5235 92.1208 51.7836 92.6148 52.1315L92.6183 52.135C93.1298 52.5006 93.5081 52.9997 93.7568 53.6359C93.9915 54.237 94.1106 54.9575 94.1106 55.7941V58.5533C94.1106 59.0735 94.0511 59.5445 93.932 59.9628C93.8094 60.3986 93.6202 60.7782 93.3645 61.1016V61.1051C93.1298 61.4004 92.8425 61.6464 92.5027 61.8433C92.895 62.0647 93.2068 62.3389 93.438 62.6622C93.6692 62.9856 93.8409 63.3933 93.953 63.8819C94.0581 64.3459 94.1106 64.8801 94.1106 65.4917V69.8819V70.3915H93.5641H91.2415H90.695V69.8819V66.1209C90.695 65.5058 90.6425 64.9961 90.5409 64.5919C90.4498 64.2369 90.3237 63.9733 90.159 63.8116L90.1555 63.8081C89.9979 63.6464 89.7492 63.5234 89.4023 63.432C89.01 63.3301 88.5055 63.2773 87.8925 63.2773H81.3135V69.8819V70.3915H80.767H78.5564H78.0099V69.8854H78.0029Z" fill="#A81524"/>
<path d="M60.2728 67.5726H66.8519C67.7802 67.5726 68.5439 67.5023 69.143 67.3652C69.693 67.2387 70.0993 67.0594 70.3551 66.8239L70.3586 66.8204C70.6143 66.5884 70.814 66.2334 70.9506 65.7554C71.1012 65.2316 71.1783 64.5708 71.1783 63.7765V57.8784C71.1783 57.0384 71.1012 56.3424 70.9506 55.7941C70.814 55.295 70.6178 54.9294 70.3656 54.6974C70.1098 54.4619 69.7035 54.2827 69.1535 54.1561C68.5509 54.019 67.7837 53.9487 66.8519 53.9487H60.2728V67.5726ZM56.9658 69.8854V51.6254V51.1157H57.5123H67.2127C68.5194 51.1157 69.6404 51.2352 70.5758 51.4742C71.5496 51.7238 72.3239 52.1034 72.8984 52.6166C73.4764 53.1333 73.9073 53.8292 74.1876 54.7045C74.4573 55.5445 74.5904 56.5533 74.5904 57.7273V63.7483C74.5904 64.9293 74.4538 65.9416 74.1841 66.7852C73.9003 67.664 73.4694 68.3634 72.8879 68.8801C72.3133 69.3968 71.5391 69.7799 70.5652 70.0295C69.6299 70.272 68.5124 70.3915 67.2092 70.3915H57.5123H56.9658V69.8854Z" fill="#A81524"/>
<path d="M32.9965 54.9189H35.9813L38.6822 51.1157H22V53.5551H33.9634L32.9965 54.9189Z" fill="#A81524"/>
<path d="M27.6892 66.5918H24.7045L22 70.3949H38.6822V67.9521H26.7188L27.6892 66.5918Z" fill="#A81524"/>
<path d="M40.9834 70.3949H44.4235C46.9599 67.344 47.9337 63.9697 47.9337 60.757C47.9337 57.5444 46.9564 54.1701 44.4235 51.1191H40.9834C44.1853 53.7905 45.5551 57.6288 45.506 60.757C45.5551 63.8853 44.1853 67.7236 40.9834 70.3949Z" fill="#A81524"/>
<path d="M39.8313 60.7534C39.8103 59.952 39.6631 59.2772 39.4109 58.7042H24.4277V60.7534V62.8026H39.4109C39.6631 62.2297 39.8138 61.5548 39.8313 60.7534ZM22 56.2825H40.8157C41.8106 57.6884 42.2485 59.1858 42.259 60.757C42.245 62.3281 41.8106 63.8255 40.8157 65.2279H22V60.7534V56.2825Z" fill="#A81524"/>
</g>
<rect x="0.5" y="0.5" width="199" height="119" stroke="black"/>
<defs>
<clipPath id="clip0_654_887">
<rect width="156" height="36" fill="white" transform="translate(22 42)"/>
</clipPath>
</defs>
</svg>
