<?xml version="1.0" encoding="utf-8"?>
<!-- Generator: Adobe Illustrator 24.0.1, SVG Export Plug-In . SVG Version: 6.00 Build 0)  -->
<svg version="1.1" id="Слой_1" xmlns="http://www.w3.org/2000/svg" xmlns:xlink="http://www.w3.org/1999/xlink" x="0px" y="0px"
	 viewBox="0 0 200 120" style="enable-background:new 0 0 200 120;" xml:space="preserve">
<style type="text/css">
	.st0{display:none;fill-rule:evenodd;clip-rule:evenodd;fill:#FFFFFF;}
	.st1{fill-rule:evenodd;clip-rule:evenodd;}
	.st2{fill-rule:evenodd;clip-rule:evenodd;fill:#FFFFFF;}
</style>
<g>
	<polygon class="st0" points="17.8,-21.2 180.9,-21.2 180.9,141.9 17.8,141.9 17.8,-21.2 	"/>
	<path class="st1" d="M35.4,49.5c2.8,1,6,3.4,6.8,6.5H36c-1.7-1.7-4.5-2.3-6.7-1.3c-2.2,0.9-3.7,3.1-3.8,5.5
		c-0.1,2.4,1.4,4.6,3.5,5.6c2,1,4.8,0.7,6.5-0.7c0.7-0.7,1.2-1.5,1.7-2.3l-6.9-0.1v-4.5H43c0.3,3.4-0.2,6.5-2.2,9
		c-2.8,3.5-6.8,5.1-11.2,4.3c-4.1-0.6-8.1-4.3-9.1-8.3c-0.7-3-0.3-6.4,1.2-8.9c2-3.3,5.4-5.3,9.1-5.6C32.5,48.8,34,49,35.4,49.5
		L35.4,49.5z"/>
	<path class="st1" d="M73.9,49.1c3.3,0.8,7,3.4,8,6.9h-6.2c-1.7-1.7-4.2-2.3-6.4-1.4c-2.1,0.7-3.9,2.9-4,5.1
		c-0.2,2.3,0.7,4.3,2.6,5.6c1.8,1.4,5,1.5,6.9,0.2c1-0.6,1.7-1.7,2.2-2.6l-6.8-0.1v-4.5h11.6c0.7-4.2,4.4-8.3,8.6-9.1
		c2.7-0.6,5.7-0.2,8,1c2.2,1.2,4.7,3.4,5.3,5.9h-6.2c-1.7-1.7-4.2-2.3-6.4-1.4c-2.1,0.7-3.9,2.9-4,5.1c-0.2,2.3,0.7,4.3,2.6,5.6
		c1.8,1.3,4.7,1.5,6.6,0.4c1.1-0.6,2-1.8,2.5-2.8l-6.8-0.1v-4.5h12.6c0.3,3.1-0.1,6.1-1.9,8.5c-2.8,4-7.5,5.8-12.2,4.7
		c-3.5-0.7-7-4-8.1-7.4c-1.1,3.5-4.7,6.8-8.3,7.5c-4.9,1-9.6-1-12.3-5.2c-2.3-3.3-2.3-8.7,0-12C64.2,50,69,48.1,73.9,49.1L73.9,49.1
		z"/>
	<path class="st1" d="M56.6,71.4c-0.5-1.1-1-2.3-1.6-3.4h-7.3l-1.6,3.4h-6.8l12-22.3l11.9,22.3H56.6L56.6,71.4z"/>
	<polygon class="st1" points="161.1,71.4 154.4,71.4 152.9,68 145.6,68 144,71.4 138.8,71.4 125.6,61.5 125.6,61.5 125.6,71.4 
		119.8,71.4 119.8,49.7 133.5,59.9 133.5,49.5 139.4,49.5 139.4,67.3 139.4,67.4 149.2,49.1 161.1,71.4 161.1,71.4 	"/>
	<polygon class="st1" points="118.9,54.8 110.9,54.8 110.9,58.1 118.2,58.1 118.2,62.7 110.9,62.7 110.9,66 118.9,66 118.9,71.4 
		105.2,71.4 105.2,49.5 118.9,49.5 118.9,54.8 	"/>
	<path class="st1" d="M163.9,61.9c0.1,1.7,1.2,3.5,2.9,4c1.4,0.7,3.2,0.3,4.4-0.6c2.3-1.8,1.6-5,1.8-7.7v-8.2h5.5l0.1,11.6
		c-0.1,3.9-1.6,7.6-5.1,9.5c-1.2,0.7-2.6,1.2-4.1,1.3c-1,0.1-2.2,0.1-3.1-0.2c-3.2-0.6-6.7-3.4-7.4-6.7c-0.3-1.5-0.5-3.1-0.5-4.8
		l0-10.8h5.6L163.9,61.9L163.9,61.9z"/>
	<polygon class="st2" points="49.4,64.4 51.6,60 53.5,64.4 49.4,64.4 	"/>
	<polygon class="st2" points="147.2,64.4 149.4,60 151.3,64.4 147.2,64.4 	"/>
</g>
</svg>
