<?xml version="1.0" encoding="utf-8"?>
<!-- Generator: Adobe Illustrator 24.0.1, SVG Export Plug-In . SVG Version: 6.00 Build 0)  -->
<svg version="1.1" id="Layer_1" xmlns="http://www.w3.org/2000/svg" xmlns:xlink="http://www.w3.org/1999/xlink" x="0px" y="0px"
	 viewBox="0 0 200 120" style="enable-background:new 0 0 200 120;" xml:space="preserve">
<style type="text/css">
	.st0{fill:#91298D;}
</style>
<g>
	<path class="st0" d="M168.9,60.8c0-23.9-19.5-43.4-43.5-43.4c-12.2,0-23.3,5.1-31.2,13.3c-13-3-25.7-5.5-32.2-5.5
		c-20.1,0-29.9,11.4-29.9,35c0,30,16.3,36.2,29.9,36.2c5.4,0,18.5-2.6,32-5.7c7.9,8.3,19.1,13.5,31.4,13.5c5.4,0,10.5-1,15.2-2.8
		c2.9,2.4,6.6,3.7,10.4,3.7c4.4,0,8.5-1.7,11.6-4.8c3.1-3.1,4.8-7.2,4.8-11.6c0-3.4-1-6.6-2.9-9.3C167.4,73.8,168.9,67.5,168.9,60.8
		z M84.2,52.7c0,2.6-0.8,5.1-2.1,7.1c-0.2,0.3-0.4,0.6-0.7,0.9c0.3,0.3,0.5,0.7,0.7,1c1.4,2.1,2.1,4.5,2.1,7c0,1.3-0.2,2.5-0.5,3.7
		c-1.6,5.4-6.6,9.3-12.4,9.3c-0.1,0-0.1,0-0.2,0H54.7c-2.7,0-4.9-2.2-4.9-4.9c0-2.7,2.2-4.9,4.9-4.9h16.5c0,0,0,0,0.1,0
		c1.7,0,3.1-1.4,3.1-3.1c0-0.9-0.4-1.6-0.7-2c-0.6-0.7-1.4-1.1-2.4-1.2h-0.1h-0.1H58.5c-2.7,0-4.9-2.2-4.9-4.9s2.2-4.9,4.9-4.9h12.7
		c0,0,0,0,0.1,0c1.7,0,3.1-1.4,3.1-3.1c0-0.9-0.4-1.6-0.7-2c-0.6-0.7-1.5-1.2-2.4-1.2H54.7c-2.7,0-4.9-2.2-4.9-4.9s2.2-4.9,4.9-4.9
		h16.5c3.9,0,7.6,1.8,10.1,4.8c1.1,1.3,1.8,2.9,2.3,4.6C84,50.3,84.2,51.5,84.2,52.7z M140.1,69.5c1.5-2.5,2.4-5.5,2.4-8.7
		c0-9.4-7.6-17-17.1-17c-9.4,0-17,7.6-17,17s7.6,17.1,17,17.1c2.7,0,5.2-0.6,7.4-1.7l4,4.4c-2,3.4-2.7,7.4-1.9,11.3
		c-3,0.9-6.2,1.4-9.5,1.4C107.6,93.2,93,78.7,93,60.8s14.6-32.4,32.4-32.4c17.9,0,32.5,14.6,32.5,32.4c0,4.3-0.9,8.4-2.4,12.1
		c-0.3-0.1-0.5-0.2-0.8-0.2c-3.6-0.8-7.3-0.4-10.6,1.2L140.1,69.5z M155,92.6c-1,1-2.4,1.6-3.8,1.6c-1.4,0-2.8-0.6-3.8-1.6
		c-0.8-0.8-1.3-1.7-1.5-2.8c-0.3-1.8,0.2-3.6,1.5-4.9s3.2-1.9,5.1-1.5c1,0.2,1.9,0.7,2.6,1.5c1,1,1.6,2.4,1.6,3.8
		C156.6,90.2,156,91.5,155,92.6z"/>
</g>
</svg>
