<?xml version="1.0" encoding="utf-8"?>
<!-- Generator: Adobe Illustrator 24.0.1, SVG Export Plug-In . SVG Version: 6.00 Build 0)  -->
<svg version="1.1" id="Слой_1" xmlns="http://www.w3.org/2000/svg" xmlns:xlink="http://www.w3.org/1999/xlink" x="0px" y="0px"
	 viewBox="0 0 200 120" style="enable-background:new 0 0 200 120;" xml:space="preserve">
<style type="text/css">
	.st0{fill:#DD1721;}
	.st1{fill:#FFFFFF;}
</style>
<g>
	<path d="M125.3,65.4c-3.3,0-5.9-2.6-5.9-5.9c0-3.3,2.6-5.9,5.9-5.9s5.9,2.6,5.9,5.9C131.2,62.8,128.6,65.4,125.3,65.4 M125.3,50.1
		c-5.2,0-9.4,4.2-9.4,9.4s4.2,9.4,9.4,9.4s9.4-4.2,9.4-9.4C134.8,54.3,130.5,50.1,125.3,50.1 M113.8,65.9h0.8v3.5h-0.8
		c-4.1,0-7.4-3.3-7.4-7.4V45.9h3.5v4.7h4.6v3.5H110v7.9C110,64.1,111.7,65.9,113.8,65.9 M157,65.4c-3.3,0-5.9-2.6-5.9-5.9
		c0-3.3,2.6-5.9,5.9-5.9c3.3,0,5.9,2.6,5.9,5.9C162.8,62.8,160.2,65.4,157,65.4 M157,50.1c-5.2,0-9.4,4.2-9.4,9.4s4.2,9.4,9.4,9.4
		s9.4-4.2,9.4-9.4C166.4,54.3,162.2,50.1,157,50.1 M184.1,65.4c-3.3,0-5.9-2.6-5.9-5.9c0-3.3,2.6-5.9,5.9-5.9c3.3,0,5.9,2.6,5.9,5.9
		C190,62.8,187.3,65.4,184.1,65.4 M184.1,50.1c-5.2,0-9.4,4.2-9.4,9.4s4.2,9.4,9.4,9.4c2.3,0,4.4-0.8,6-2.2v1.9h3.4v-8.8v-0.3
		C193.5,54.3,189.3,50.1,184.1,50.1 M144.5,50.1h1.7v3.5h-1.7c-2.1,0-3.8,1.7-3.8,3.8v11.2h-3.5V57.4
		C137.1,53.4,140.4,50.1,144.5,50.1 M168.7,45.4h3.5v23.2h-3.5V45.4z M82.9,57.9v11.2h-3.5V57.9c0-2.1-1.7-3.8-3.8-3.8
		c-2.1,0-3.8,1.7-3.8,3.8v11.2h-3.5V57.9c0-2.1-1.7-3.8-3.8-3.8c-2.1,0-3.8,1.7-3.8,3.8v11.2H57V57.9c0-4.1,3.3-7.4,7.3-7.4
		c2.3,0,4.2,1,5.6,2.6c1.4-1.6,3.4-2.6,5.6-2.6C79.6,50.6,82.9,53.9,82.9,57.9 M94.7,65.9c-3.3,0-5.9-2.6-5.9-5.9
		c0-3.3,2.6-5.9,5.9-5.9c3.3,0,5.9,2.6,5.9,5.9C100.6,63.2,97.9,65.9,94.7,65.9 M94.7,50.6c-5.2,0-9.4,4.2-9.4,9.4s4.2,9.4,9.4,9.4
		c5.2,0,9.4-4.2,9.4-9.4C104.1,54.8,99.9,50.6,94.7,50.6"/>
	<path class="st0" d="M27.9,38.6C16.1,38.6,6.5,48.2,6.5,60s9.6,21.4,21.4,21.4c11.8,0,21.4-9.6,21.4-21.4
		C49.3,48.2,39.9,38.6,27.9,38.6"/>
	<path class="st1" d="M34.3,43.9l-6.4,21.1l0,0l-0.1,0l-6.4-21.1l-8.2,27h1.5c0,0,1-4.7,2.7-7.5c0.9-1.5,2.3-2.8,4.2-2.7
		c1.3,0,2.5,0.8,3.9,2.8c0.3,0.4,0.7,1.2,1.1,1.9c0.6,1.2,1.1,2.4,1.1,2.4s1.3-3.1,2.2-4.3c1.4-2,2.6-2.7,3.9-2.8
		c1.9,0,3.3,1.2,4.2,2.7c1.7,2.8,2.7,7.5,2.7,7.5h1.5L34.3,43.9z"/>
</g>
</svg>
