<?xml version="1.0" encoding="utf-8"?>
<!-- Generator: Adobe Illustrator 24.0.1, SVG Export Plug-In . SVG Version: 6.00 Build 0)  -->
<svg version="1.1" id="Слой_1" xmlns="http://www.w3.org/2000/svg" xmlns:xlink="http://www.w3.org/1999/xlink" x="0px" y="0px"
	 viewBox="0 0 200 45.6" style="enable-background:new 0 0 200 45.6;" xml:space="preserve">
<style type="text/css">
	.st0{fill-rule:evenodd;clip-rule:evenodd;fill:#1E1E1E;}
</style>
<path id="Authorized" class="st0" d="M68.6,20.3H73L67.2,5.8h-3.9l-5.7,14.5h4.3l0.8-2.4h5.1L68.6,20.3z M66.8,14.8h-3.2l1.6-4.5
	L66.8,14.8z M82.5,20.3c0.7-0.3,1.4-0.7,2-1.2s1-1.2,1.3-1.9c0.3-0.8,0.5-1.6,0.5-2.4V5.9h-4.1v8.8c0,0.6-0.2,1.2-0.6,1.7
	c-0.4,0.4-1,0.7-1.6,0.6c-0.6,0-1.2-0.2-1.6-0.6c-0.4-0.5-0.7-1.1-0.6-1.7V5.9h-4.1v8.9c0,0.8,0.1,1.7,0.5,2.4
	c0.3,0.7,0.7,1.4,1.3,1.9c0.6,0.5,1.3,1,2,1.2c0.8,0.3,1.7,0.4,2.6,0.4C80.8,20.7,81.7,20.6,82.5,20.3z M99.8,5.8H87.9v3.6h3.9v10.9
	h4V9.4h4V5.8z M110,5.8V11h-4.3V5.8h-4v14.5h4v-5.6h4.3v5.6h4V5.8H110L110,5.8z M127.2,20.1c0.9-0.4,1.8-0.9,2.5-1.6
	c0.7-0.7,1.3-1.5,1.6-2.4c0.8-2,0.8-4.2,0-6.1c-0.4-0.9-0.9-1.7-1.6-2.4c-0.7-0.7-1.6-1.2-2.5-1.6c-2.1-0.8-4.3-0.8-6.4,0
	c-0.9,0.4-1.8,0.9-2.5,1.6c-0.7,0.7-1.3,1.5-1.7,2.4c-0.8,2-0.8,4.1,0,6.1c0.4,0.9,0.9,1.7,1.7,2.4c0.7,0.7,1.6,1.2,2.5,1.6
	C122.9,20.9,125.2,20.9,127.2,20.1L127.2,20.1z M122.5,16.7c-0.5-0.2-0.9-0.5-1.2-0.8c-0.3-0.4-0.6-0.8-0.8-1.2
	c-0.4-1-0.4-2.1,0-3.1c0.2-0.5,0.5-0.9,0.8-1.2s0.8-0.6,1.2-0.8c0.5-0.2,1-0.3,1.5-0.3s1,0.1,1.5,0.3c0.9,0.4,1.6,1.1,2,2
	c0.4,1,0.4,2.1,0,3.1c-0.4,0.9-1.1,1.7-2,2c-0.5,0.2-1,0.3-1.5,0.3S123,16.9,122.5,16.7L122.5,16.7z M141.8,20.3h4.5l-2.9-5.3
	c0.7-0.4,1.3-1,1.7-1.7s0.6-1.6,0.6-2.4c0-0.7-0.1-1.4-0.4-2.1c-0.3-0.6-0.6-1.2-1.1-1.6c-0.5-0.5-1.1-0.8-1.7-1.1
	c-0.7-0.3-1.4-0.4-2.2-0.4H134v14.5h4v-4.4h1.4L141.8,20.3z M138,9.4h1.8c0.5,0,0.9,0.1,1.3,0.4c0.6,0.6,0.6,1.6,0,2.3
	c-0.4,0.3-0.8,0.5-1.3,0.4H138V9.4L138,9.4z M148,20.3h4V5.8h-4V20.3z M159.8,16.6l5.3-9.9V5.8h-10.9v3.7h5l-5.4,9.9v0.8h11.5v-3.7
	L159.8,16.6L159.8,16.6z M171.3,16.9v-2.2h4.8v-3.3h-4.8V9.2h5.3V5.7h-9.3v14.5h9.4v-3.5h-5.4V16.9z M179.1,5.8v14.5h5.9
	c1,0,2.1-0.2,3-0.5s1.7-0.8,2.4-1.5s1.2-1.4,1.5-2.3c0.4-0.9,0.6-1.9,0.5-2.9c0-1-0.2-2-0.5-2.9s-0.9-1.6-1.5-2.3
	c-0.7-0.6-1.5-1.2-2.4-1.5c-1-0.4-2-0.6-3-0.5L179.1,5.8L179.1,5.8z M183.1,16.7V9.5h1.7c1,0,1.9,0.3,2.6,1c0.7,0.7,1,1.6,1,2.6
	c0,0.5-0.1,1-0.3,1.5c-0.2,0.4-0.4,0.8-0.7,1.1s-0.7,0.6-1.1,0.7c-0.5,0.2-1,0.3-1.5,0.3L183.1,16.7L183.1,16.7z"/>
<path id="техносправочник" class="st0" d="M63.9,29.7h-6.6v0.5h3.1v9h0.4v-9h3.1V29.7L63.9,29.7z M66.1,38.7v-4.3
	h4.3V34h-4.3v-3.8h4.6v-0.4h-5.1v9.4h5.2v-0.4L66.1,38.7L66.1,38.7z M79.2,39.1l-3.5-4.9l3.2-4.5h-0.5l-2.9,4.2l-2.9-4.2H72l3.2,4.5
	l-3.4,4.9h0.5l3.2-4.6l3.2,4.6H79.2z M87.2,29.7V34h-6v-4.3h-0.4v9.4h0.4v-4.7h6v4.7h0.4v-9.4H87.2L87.2,29.7z M96.6,38.9
	c0.6-0.2,1.1-0.6,1.5-1s0.8-1,1-1.5c0.2-0.6,0.4-1.3,0.4-1.9c0-0.7-0.1-1.3-0.4-1.9c-0.5-1.2-1.4-2.1-2.5-2.6
	c-1.3-0.5-2.6-0.5-3.9,0c-1.2,0.5-2.1,1.4-2.5,2.6c-0.2,0.6-0.4,1.3-0.4,1.9c0,0.7,0.1,1.3,0.4,1.9c0.2,0.6,0.6,1.1,1,1.5
	s1,0.8,1.5,1C94,39.4,95.4,39.4,96.6,38.9L96.6,38.9z M92.9,38.5c-1.1-0.4-1.9-1.3-2.3-2.3c-0.2-0.6-0.3-1.1-0.3-1.7
	s0.1-1.2,0.3-1.7c0.2-0.5,0.5-1,0.9-1.4s0.9-0.7,1.4-0.9c1.1-0.4,2.4-0.4,3.5,0c0.5,0.2,1,0.5,1.4,0.9s0.7,0.9,0.9,1.4
	c0.4,1.1,0.4,2.4,0,3.5c-0.2,0.5-0.5,1-0.9,1.4s-0.9,0.7-1.4,0.9C95.3,39,94.1,39,92.9,38.5L92.9,38.5z M108.6,38.5
	c0.8-0.6,1.4-1.4,1.6-2.3h-0.4c-0.3,0.8-0.8,1.5-1.5,2s-1.6,0.7-2.5,0.7c-0.6,0-1.2-0.1-1.8-0.3c-0.5-0.2-1-0.5-1.4-0.9
	s-0.7-0.9-0.9-1.4c-0.2-0.6-0.3-1.2-0.3-1.8c0-0.6,0.1-1.2,0.3-1.8c0.4-1.1,1.2-1.9,2.3-2.3c0.6-0.2,1.1-0.3,1.7-0.3
	c0.8,0,1.7,0.2,2.4,0.7c0.7,0.5,1.2,1.1,1.5,1.9h0.5c-0.3-0.9-0.9-1.6-1.6-2.2c-0.8-0.5-1.7-0.8-2.7-0.8c-0.7,0-1.3,0.1-1.9,0.4
	c-1.2,0.5-2.1,1.4-2.5,2.5c-0.5,1.2-0.5,2.6,0,3.9c0.2,0.6,0.6,1.1,1,1.5s0.9,0.8,1.5,1s1.3,0.4,1.9,0.4
	C106.8,39.3,107.8,39,108.6,38.5L108.6,38.5z M112.2,29.7v9.4h0.4v-9h5.6v9h0.4v-9.4H112.2L112.2,29.7z M121.5,29.7v9.4h0.4v-3.7
	h2.7c0.4,0,0.8-0.1,1.2-0.2c0.3-0.1,0.7-0.3,0.9-0.6c0.3-0.3,0.5-0.6,0.6-0.9c0.1-0.4,0.2-0.7,0.2-1.1c0-0.8-0.3-1.5-0.9-2
	c-0.3-0.3-0.6-0.5-0.9-0.6c-0.4-0.1-0.8-0.2-1.2-0.2L121.5,29.7L121.5,29.7z M122,35v-4.8h2.7c0.3,0,0.7,0.1,1,0.2s0.6,0.3,0.8,0.5
	c0.2,0.2,0.4,0.5,0.5,0.8s0.2,0.6,0.2,1c0,0.3-0.1,0.7-0.2,1s-0.3,0.5-0.5,0.8c-0.2,0.2-0.5,0.4-0.8,0.5s-0.7,0.2-1,0.2L122,35
	L122,35z M135.8,39.1h0.5l-4.1-9.4h-0.4l-4,9.4h0.5l1.2-2.7h5.2L135.8,39.1z M132,30.4l2.4,5.6h-4.8L132,30.4z M143.7,33.4
	c0.3-0.4,0.4-0.9,0.4-1.3c0-0.3-0.1-0.6-0.2-0.9c-0.1-0.3-0.3-0.5-0.5-0.7s-0.5-0.4-0.8-0.5s-0.7-0.2-1-0.2H138v9.4h3.6
	c0.4,0,0.8-0.1,1.1-0.2s0.6-0.3,0.9-0.5c0.2-0.2,0.4-0.5,0.6-0.8c0.1-0.3,0.2-0.7,0.2-1s0-0.6-0.1-0.8c-0.1-0.3-0.2-0.5-0.4-0.7
	s-0.3-0.4-0.6-0.5c-0.2-0.2-0.5-0.3-0.7-0.3C143.1,34,143.5,33.7,143.7,33.4L143.7,33.4z M141.7,30.2c0.8,0,1.5,0.4,1.8,1.2
	c0.1,0.2,0.2,0.5,0.2,0.7s0,0.5-0.1,0.7s-0.2,0.4-0.4,0.6s-0.4,0.3-0.6,0.4c-0.2,0.1-0.5,0.2-0.7,0.2h-3.3v-3.8H141.7L141.7,30.2z
	 M138.5,38.7v-4.3h3.3c0.9,0,1.7,0.5,2,1.3c0.1,0.3,0.2,0.5,0.2,0.8s-0.1,0.6-0.2,0.9c-0.1,0.3-0.3,0.5-0.5,0.7s-0.4,0.3-0.7,0.5
	c-0.3,0.1-0.6,0.2-0.9,0.2L138.5,38.7L138.5,38.7z M152.8,38.9c0.6-0.2,1.1-0.6,1.5-1s0.8-1,1-1.5c0.2-0.6,0.4-1.3,0.4-1.9
	c0-0.7-0.1-1.3-0.4-1.9c-0.5-1.2-1.4-2.1-2.5-2.6c-1.3-0.5-2.6-0.5-3.9,0c-1.2,0.5-2.1,1.4-2.5,2.6c-0.2,0.6-0.4,1.3-0.4,1.9
	c0,0.7,0.1,1.3,0.4,1.9c0.2,0.6,0.6,1.1,1,1.5s1,0.8,1.5,1C150.2,39.4,151.6,39.4,152.8,38.9z M149.1,38.5c-1.1-0.4-1.9-1.3-2.3-2.3
	c-0.2-0.6-0.3-1.1-0.3-1.7s0.1-1.2,0.3-1.7s0.5-1,0.9-1.4s0.9-0.7,1.4-0.9c1.1-0.4,2.4-0.4,3.5,0c0.5,0.2,1,0.5,1.4,0.9
	s0.7,0.9,0.9,1.4c0.4,1.1,0.4,2.4,0,3.5c-0.2,0.5-0.5,1-0.9,1.4s-0.9,0.7-1.4,0.9C151.5,39,150.2,39,149.1,38.5L149.1,38.5z
	 M163,29.7v4.9c-0.8,0.3-1.7,0.5-2.5,0.5c-0.8,0.1-1.5-0.2-2.1-0.7c-0.5-0.5-0.8-1.3-0.7-2v-2.7h-0.4v2.7c-0.1,0.9,0.3,1.7,0.9,2.3
	c0.6,0.6,1.5,0.9,2.3,0.8c0.9,0,1.8-0.2,2.6-0.5v4.1h0.4v-9.4L163,29.7L163,29.7z M172.7,29.7V34h-6v-4.3h-0.4v9.4h0.4v-4.7h6v4.7
	h0.4v-9.4H172.7L172.7,29.7z M182.7,29.7l-6.2,8.5v-8.5h-0.4v9.4h0.3l6.2-8.5v8.5h0.4v-9.4H182.7L182.7,29.7z M192,39.1h0.6
	l-4.2-4.9l3.8-4.5h-0.6l-3.7,4.3h-1.6v-4.3H186v9.4h0.4v-4.7h1.6L192,39.1z"/>
<path id="Прямоугольник_1" class="st0" d="M12.6,25.2L2.4,43.3h14.4l10.4-18.1"/>
<path id="Прямоугольник_1_копия" class="st0" d="M19.8,13l7.6-13l24.3,43.3H37.3L19.8,13z"/>
</svg>
