<?xml version="1.0" encoding="utf-8"?>
<!-- Generator: Adobe Illustrator 24.0.1, SVG Export Plug-In . SVG Version: 6.00 Build 0)  -->
<svg version="1.1" id="Слой_1" xmlns="http://www.w3.org/2000/svg" xmlns:xlink="http://www.w3.org/1999/xlink" x="0px" y="0px"
	 viewBox="0 0 200 120" style="enable-background:new 0 0 200 120;" xml:space="preserve">
<style type="text/css">
	.st0{fill-rule:evenodd;clip-rule:evenodd;}
</style>
<path class="st0" d="M43.4,60c0-5.3,1.7-7.5,6.1-7.5c4.5,0,6.1,2.1,6.1,7.5c0,5.3-1.7,7.5-6.1,7.5C45,67.4,43.4,65.4,43.4,60
	 M37.6,60c0,8.1,4,12.1,11.9,12.1c7.9,0,11.9-4.1,11.9-12.1c0-8.1-4-12.2-11.9-12.2C41.6,47.8,37.6,51.9,37.6,60 M115.4,60
	c0-5.3,1.7-7.5,6.1-7.5c4.5,0,6.1,2.1,6.1,7.5c0,5.3-1.7,7.5-6.1,7.5C117,67.4,115.4,65.4,115.4,60 M109.5,60
	c0,8.1,4,12.1,11.9,12.1c7.9,0,11.9-4.1,11.9-12.1c0-8.1-4-12.2-11.9-12.2C113.6,47.8,109.5,51.9,109.5,60 M176,42.8v22.1
	c0,4.5,2.7,6.9,7.8,6.9h5c1.3,0,1.9-1.1,1.9-2.2c0-1.1-0.6-2.2-1.9-2.2h-2.9c-2.7,0-4-0.2-4-3.3V53.2h6.5c1.3,0,1.9-1.1,1.9-2.3
	c0-1.1-0.6-2.2-1.9-2.2l-6.5,0v-6c0-1.5-1.1-2.4-2.9-2.4C177.6,40.3,176,41,176,42.8 M65.8,42.8v22.1c0,4.5,2.7,6.9,7.9,6.9h5
	c1.3,0,1.8-1.1,1.8-2.2c0-1.1-0.6-2.2-1.8-2.2h-2.9c-2.7,0-4-0.2-4-3.3V53.2h6.5c1.3,0,1.9-1.1,1.9-2.3c0-1.1-0.6-2.2-1.9-2.2h-6.5
	v-6c0-1.5-1.1-2.4-2.9-2.4C67.4,40.3,65.8,41,65.8,42.8 M158.6,48.3c-6.8,0-9.7,2.7-9.7,9v11.9c0,1.5,1.1,2.4,3,2.4
	c1.8,0,3-0.9,3-2.4V57.7c0-3.4,0.6-4.4,4.3-4.4h1.7c3.7,0,4.3,1.1,4.3,4.4v11.5c0,1.5,1.1,2.4,2.9,2.4c1.9,0,3-0.9,3-2.4v-12
	c0-6.3-2.9-9-9.7-9L158.6,48.3L158.6,48.3z M137.8,50.8v18.3c0,1.9,1.5,2.5,3,2.5c1.4,0,3-0.7,3-2.5V50.8c0-1.9-1.5-2.6-3-2.6
	C139.3,48.3,137.8,48.9,137.8,50.8 M137.4,41.9c0,1.9,1.5,3.4,3.4,3.4s3.4-1.5,3.4-3.4c0-1.9-1.5-3.4-3.4-3.4
	C138.9,38.5,137.4,40,137.4,41.9 M89.7,66.8V53.5c1.2-0.3,2.7-0.4,4.2-0.4c4.7,0,6.6,1.7,6.6,6.6c0,5.5-1.6,7.4-6.7,7.4
	C92.4,67.2,90.7,67.1,89.7,66.8 M87.3,49c-2.3,0.5-3.6,1.9-3.6,4.4v25.3c0,1.8,1.5,2.4,2.9,2.4c1.4,0,3-0.6,3-2.4v-7.4
	c1.4,0.3,2.6,0.4,4.3,0.4c3.6,0,5.5-0.6,7.5-1.8c3-1.8,4.8-5.2,4.8-9.7c0-7.9-4.1-11.9-12.1-11.9C92.1,48.3,89.4,48.5,87.3,49
	 M27.3,42.1v10.7H14.6V42.1c0-1.5-1.1-2.4-2.9-2.4c-1.4,0-3.1,0.6-3.1,2.4v27.1c0,1.5,1.1,2.4,2.9,2.4c1.4,0,3-0.6,3-2.4v-11h12.7
	v11c0,1.5,1.1,2.4,2.9,2.4c1.4,0,3-0.6,3-2.4V42.1c0-1.5-1.1-2.4-2.9-2.4C28.9,39.7,27.3,40.3,27.3,42.1"/>
</svg>
