<?xml version="1.0" encoding="utf-8"?>
<!-- Generator: Adobe Illustrator 24.0.1, SVG Export Plug-In . SVG Version: 6.00 Build 0)  -->
<svg version="1.1" id="Слой_1" xmlns="http://www.w3.org/2000/svg" xmlns:xlink="http://www.w3.org/1999/xlink" x="0px" y="0px"
	 viewBox="0 0 200 120" style="enable-background:new 0 0 200 120;" xml:space="preserve">
<style type="text/css">
	.st0{fill:#706D6E;}
	.st1{fill:#F1511B;}
	.st2{fill:#80CC28;}
	.st3{fill:#00ADEF;}
	.st4{fill:#FBBC09;}
</style>
<path class="st0" d="M195,58.1v-3.3h-4.1v-5.2l-0.1,0l-3.9,1.2l-0.1,0v3.9h-6.2v-2.2c0-1,0.2-1.8,0.7-2.3c0.4-0.5,1.1-0.8,1.9-0.8
	c0.6,0,1.2,0.1,1.8,0.4l0.2,0.1v-3.5l-0.1,0c-0.6-0.2-1.3-0.3-2.3-0.3c-1.2,0-2.3,0.3-3.3,0.8c-1,0.5-1.7,1.3-2.2,2.2
	c-0.5,0.9-0.8,2-0.8,3.3v2.4h-2.9v3.3h2.9v14.1h4.1V58.1h6.2V67c0,3.7,1.7,5.5,5.2,5.5c0.6,0,1.2-0.1,1.8-0.2c0.6-0.1,1-0.3,1.3-0.4
	l0.1,0v-3.4l-0.2,0.1c-0.2,0.1-0.5,0.3-0.8,0.4c-0.3,0.1-0.6,0.1-0.8,0.1c-0.8,0-1.4-0.2-1.8-0.6c-0.4-0.4-0.6-1.2-0.6-2.2v-8.2H195
	L195,58.1z M164.3,69.2c-1.5,0-2.7-0.5-3.5-1.5c-0.8-1-1.3-2.4-1.3-4.2c0-1.8,0.4-3.3,1.3-4.3c0.8-1,2-1.5,3.5-1.5
	c1.4,0,2.6,0.5,3.4,1.4c0.8,1,1.2,2.4,1.2,4.3c0,1.9-0.4,3.3-1.2,4.3C166.9,68.7,165.8,69.2,164.3,69.2 M164.5,54.3
	c-2.9,0-5.2,0.8-6.8,2.5c-1.6,1.7-2.4,4-2.4,6.8c0,2.7,0.8,4.9,2.4,6.5c1.6,1.6,3.7,2.4,6.4,2.4c2.8,0,5-0.9,6.6-2.5
	c1.6-1.7,2.4-4,2.4-6.8c0-2.8-0.8-5-2.3-6.6C169.3,55.1,167.2,54.3,164.5,54.3 M148.5,54.3c-2,0-3.6,0.5-4.8,1.5
	c-1.2,1-1.9,2.3-1.9,3.9c0,0.8,0.1,1.5,0.4,2.2c0.3,0.6,0.7,1.2,1.2,1.6c0.5,0.5,1.4,0.9,2.5,1.4c0.9,0.4,1.6,0.7,2.1,1
	c0.4,0.3,0.7,0.5,0.9,0.8c0.2,0.2,0.3,0.6,0.3,1c0,1.2-0.9,1.7-2.7,1.7c-0.7,0-1.4-0.1-2.3-0.4c-0.8-0.3-1.6-0.7-2.3-1.2l-0.2-0.1v4
	l0.1,0c0.6,0.3,1.3,0.5,2.2,0.7c0.9,0.2,1.7,0.3,2.3,0.3c2.1,0,3.8-0.5,5.1-1.5c1.3-1,1.9-2.3,1.9-4c0-1.2-0.3-2.2-1-3
	c-0.7-0.8-1.8-1.5-3.5-2.2c-1.3-0.5-2.1-0.9-2.5-1.3c-0.3-0.3-0.5-0.8-0.5-1.3c0-0.5,0.2-0.9,0.6-1.2c0.4-0.3,1-0.5,1.8-0.5
	c0.7,0,1.4,0.1,2.1,0.3c0.7,0.2,1.3,0.5,1.8,0.9l0.2,0.1v-3.8l-0.1,0c-0.5-0.2-1.1-0.4-1.9-0.5C149.8,54.4,149.1,54.3,148.5,54.3
	 M131.1,69.2c-1.5,0-2.7-0.5-3.5-1.5c-0.8-1-1.3-2.4-1.3-4.2c0-1.8,0.4-3.3,1.3-4.3c0.8-1,2-1.5,3.5-1.5c1.4,0,2.6,0.5,3.4,1.4
	c0.8,1,1.2,2.4,1.2,4.3c0,1.9-0.4,3.3-1.2,4.3C133.7,68.7,132.6,69.2,131.1,69.2 M131.2,54.3c-2.9,0-5.2,0.8-6.8,2.5
	c-1.6,1.7-2.4,4-2.4,6.8c0,2.7,0.8,4.9,2.4,6.5c1.6,1.6,3.7,2.4,6.4,2.4c2.8,0,5-0.9,6.6-2.5c1.6-1.7,2.4-4,2.4-6.8
	c0-2.8-0.8-5-2.3-6.6C136.1,55.1,133.9,54.3,131.2,54.3 M115.7,57.7v-3h-4.1v17.4h4.1v-8.9c0-1.5,0.3-2.8,1-3.7
	c0.7-0.9,1.6-1.4,2.6-1.4c0.4,0,0.8,0.1,1.2,0.2c0.4,0.1,0.8,0.2,1,0.4l0.2,0.1v-4.1l-0.1,0c-0.4-0.2-0.9-0.2-1.6-0.2
	c-1,0-2,0.3-2.7,1C116.6,56,116.1,56.8,115.7,57.7L115.7,57.7z M104.3,54.3c-1.9,0-3.6,0.4-5,1.2c-1.4,0.8-2.5,1.9-3.3,3.4
	c-0.7,1.4-1.1,3.1-1.1,5c0,1.6,0.4,3.2,1.1,4.5c0.7,1.3,1.8,2.4,3.1,3.1c1.3,0.7,2.8,1.1,4.5,1.1c1.9,0,3.6-0.4,4.9-1.2l0.1,0v-3.8
	l-0.2,0.1c-0.6,0.4-1.3,0.8-2,1c-0.7,0.3-1.4,0.4-2,0.4c-1.6,0-2.9-0.5-3.8-1.5c-0.9-1-1.4-2.4-1.4-4.1c0-1.8,0.5-3.2,1.5-4.3
	c1-1.1,2.3-1.6,3.8-1.6c1.3,0,2.7,0.5,3.9,1.4l0.2,0.1v-4l-0.1,0c-0.5-0.3-1.1-0.5-1.9-0.6C105.8,54.4,105,54.3,104.3,54.3
	 M92.1,54.7H88v17.4h4.1V54.7L92.1,54.7z M90.1,47.3c-0.7,0-1.3,0.2-1.7,0.7c-0.5,0.5-0.7,1-0.7,1.7c0,0.7,0.2,1.2,0.7,1.7
	c0.5,0.4,1.1,0.7,1.8,0.7c0.7,0,1.3-0.2,1.8-0.7c0.5-0.4,0.7-1,0.7-1.7c0-0.7-0.2-1.2-0.7-1.7C91.4,47.5,90.8,47.3,90.1,47.3
	 M79.8,53.4v18.7H84V47.8h-5.8l-7.4,18l-7.1-18h-6v24.3h3.9V53.4h0.1l7.5,18.7h3l7.4-18.7L79.8,53.4L79.8,53.4z"/>
<path class="st1" d="M24.3,59H5V39.7h19.3V59z"/>
<path class="st2" d="M45.6,59H26.3V39.7h19.3L45.6,59L45.6,59z"/>
<path class="st3" d="M24.3,80.3H5V61h19.3V80.3z"/>
<path class="st4" d="M45.6,80.3H26.3V61h19.3L45.6,80.3L45.6,80.3z"/>
</svg>
