<?xml version="1.0" encoding="utf-8"?>
<!-- Generator: Adobe Illustrator 24.0.1, SVG Export Plug-In . SVG Version: 6.00 Build 0)  -->
<svg version="1.1" id="Слой_1" xmlns="http://www.w3.org/2000/svg" xmlns:xlink="http://www.w3.org/1999/xlink" x="0px" y="0px"
	 viewBox="0 0 200 120" style="enable-background:new 0 0 200 120;" xml:space="preserve">
<style type="text/css">
	.st0{display:none;fill:#FFFFFF;stroke:#FFFFFF;stroke-width:9.400000e-02;}
	.st1{fill:#EB0028;stroke:#EB0028;stroke-width:9.400000e-02;}
	.st2{fill:#FFFFFF;stroke:#FFFFFF;stroke-width:9.400000e-02;}
</style>
<path class="st0" d="M21.5,37.3h157.1v45.4H21.5V37.3 M54.1,41.8c0,1.6,0,3.3,0,4.9c-1.7,0-3.4,0-5.1,0v2.5c1.7,0,3.4,0,5.1,0v5
	c0.8,0,1.6,0,2.4,0c0-1.7,0-3.3,0-5c1.6,0,3.3,0,4.9,0c0.1-0.9,0-1.7,0-2.6c-1.6,0-3.3,0-4.9,0v-4.9H54.1 M26.5,46.7v30
	c10,0,20,0,30.1,0c0-6.1,0-12.2,0-18.3h-2.4v15.8c-8.4,0-16.8,0-25.1,0v-25c5.3,0,10.6,0,15.8,0c0-0.8,0-1.7,0-2.5
	C38.6,46.7,32.6,46.7,26.5,46.7 M66,46.7c0,0.1-0.1,0.2-0.2,0.2c0,9.5,0,18.9,0,28.4c0,0.4-0.1,1,0.1,1.4c35.9,0,71.7,0,107.6,0v-30
	C137.7,46.7,101.8,46.7,66,46.7 M36.5,54.3c0,0.8,0,1.6,0,2.4c1.4,0,2.8,0,4.2,0c0,3.4,0,6.7,0,10.1c-1.4,0-2.8,0-4.2,0
	c0,0.8,0,1.6,0,2.4c3.6,0,7.2,0,10.7,0v-2.5c-1.3,0-2.7,0.1-4.1-0.1c0-4.1,0-8.3,0-12.4C40.9,54.3,38.7,54.2,36.5,54.3z"/>
<path class="st1" d="M42.8,37.5h3v6.1c2,0,4.1,0,6.1,0c0,1,0.1,2.1,0,3.2c-2-0.1-4.1-0.1-6.1,0c0,2,0,4.1,0,6.2c-1,0-2,0-3,0v-6.2
	c-2.1-0.1-4.2,0-6.3,0v-3.1c2.1,0,4.2,0,6.3,0C42.8,41.6,42.8,39.5,42.8,37.5L42.8,37.5z M8.4,43.6c7.6,0,15.2,0.1,22.8,0
	c0.1,1,0,2,0.1,3.1c-6.6,0.1-13.2,0-19.7,0v31.2c10.4,0,20.9,0,31.3,0V58.2h3c0,7.6,0.1,15.2,0,22.8c-12.5-0.1-25,0-37.5,0
	C8.4,81,8.4,43.6,8.4,43.6z M57.6,43.6c44.7,0,89.4,0,134.1,0V81c-44.7,0-89.4,0-134.1,0c-0.3-0.5-0.2-1.2-0.2-1.7
	c0-11.8,0-23.6,0-35.4C57.4,43.9,57.5,43.7,57.6,43.6 M73.5,53.2c-2.1,0.5-4,1.7-5.2,3.5c-2.5,3.8-2.1,9.4,1.3,12.6
	c3.8,3.5,10.5,3.2,13.8-0.9c3-3.8,2.7-9.9-0.9-13.2C80,53.1,76.6,52.5,73.5,53.2 M88.6,53c0,6.2,0,12.5,0,18.7c1,0,2.1,0,3.1,0
	c-0.1-4.3,0.1-8.6-0.1-12.9L92,59c3,4,6,8,9,12c0.7,1.1,2.2,0.7,3.2,0.6c-0.1-6.2,0-12.4,0-18.6c-1,0-2.1-0.2-3.2,0
	c0.1,4.3-0.1,8.6,0.1,12.8c-3.3-4-6.4-8.2-9.6-12.3C90.9,52.6,89.5,53.2,88.6,53 M108.3,53c0,6.2,0,12.4,0,18.7
	c3.8,0,7.7,0.1,11.5,0c0-0.9,0-1.8,0-2.7c-2.8,0-5.5-0.1-8.3,0c-0.1-1.9-0.1-3.8,0-5.7c2,0.1,4.1,0,6.1,0c0-0.9,0-1.7,0-2.6
	c-2,0.1-4.1,0-6.1,0.1c-0.2-1.7,0-3.3-0.1-5c2.8-0.2,5.6,0,8.4-0.1c0-0.9,0-1.8,0-2.7C116,52.9,112.1,52.9,108.3,53 M123.9,53
	c0,6.2,0,12.4,0,18.6c0.9,0,1.7,0,2.5,0v-7.3c2-0.1,4.1,0.2,6-0.4c1.5-0.5,2.9-1.6,3.5-3.1c0.9-2,0.6-4.6-1-6.2
	c-1.3-1.3-3.2-1.7-5-1.8C128,53,125.9,52.9,123.9,53 M139.6,71.7c3.5-0.1,6.9,0,10.3,0c0-0.7,0-1.4,0-2.1c-2.6,0.1-5.2,0-7.9,0
	c0-5.5,0-11,0-16.5c-0.8-0.2-1.7-0.1-2.5-0.1C139.5,59.2,139.5,65.5,139.6,71.7 M152.1,53c0,3.6,0,7.1,0,10.7
	c-0.1,1.7,0.2,3.5,1.2,4.9c2,3.3,6.9,4.1,10.1,2.1c2.1-1.3,3.3-3.7,3.3-6.1c0-3.9,0-7.8,0-11.7c-0.8,0-1.7,0-2.5,0v11.4
	c0,1.5-0.5,3.1-1.6,4.1c-1.8,1.6-4.8,1.6-6.6-0.2c-1-1-1.4-2.5-1.4-3.9c0-3.8,0-7.6,0-11.3C153.7,52.9,152.9,52.9,152.1,53
	 M173.4,53.9c-2.4,1.4-3.1,5-1.3,7.2c1.2,1.3,3,1.7,4.6,2.3c1.2,0.4,2.5,0.8,3,2c0.5,1.5-0.2,3.3-1.7,3.9c-1.5,0.6-3.3,0.5-4.7-0.3
	c-0.6-0.3-1.1-0.9-1.9-1.1c-0.7,0.2-0.9,1-1.2,1.6c2.3,2.3,6.2,3.1,9.1,1.5c2.7-1.4,3.7-5.4,1.8-7.8c-1.8-2-4.9-1.9-7-3.5
	c-1.4-1-1.1-3.4,0.4-4.2c1.8-1,4-0.5,5.5,0.7c0.9,0.6,1.3-0.9,1.6-1.4C179.6,52.8,176,52.3,173.4,53.9L173.4,53.9z"/>
<path class="st1" d="M20.8,53c2.8-0.1,5.5,0,8.3,0c0,5.2,0,10.3,0,15.5c1.7,0.2,3.4,0.1,5.1,0.1v3.1c-4.5,0-8.9,0-13.4,0
	c0-1,0-2,0-3c1.7-0.1,3.5,0,5.2,0c0-4.2,0-8.3,0-12.5c-1.7,0-3.5,0-5.2,0C20.9,55,20.9,54,20.8,53z"/>
<path class="st2" d="M73.5,53.2c3.1-0.7,6.5-0.1,8.8,2c3.6,3.3,3.9,9.4,0.9,13.2c-3.2,4.1-10,4.4-13.8,0.9
	c-3.4-3.2-3.8-8.8-1.3-12.6C69.5,55,71.5,53.8,73.5,53.2 M73.8,56.2c-1.8,0.6-3,2.2-3.4,4c-0.4,2.1-0.3,4.4,0.9,6.2
	c2.1,3.2,7.6,3.2,9.6-0.2c0.9-1.5,1.1-3.3,0.9-5c-0.2-1.7-0.9-3.4-2.2-4.3C77.9,55.7,75.7,55.6,73.8,56.2z M88.6,53
	c0.9,0.2,2.3-0.3,2.9,0.6c3.2,4.1,6.3,8.3,9.6,12.3c-0.1-4.3,0-8.5-0.1-12.8c1-0.2,2.1,0,3.2,0c0,6.2,0,12.4,0,18.6
	c-1.1,0.1-2.6,0.5-3.2-0.6c-3-4-6-8-9-12l-0.3-0.2c0.2,4.3,0,8.6,0.1,12.9c-1,0-2.1,0-3.1,0C88.6,65.5,88.6,59.2,88.6,53L88.6,53z
	 M108.3,53c3.8-0.1,7.7-0.1,11.5,0c0,0.9,0,1.8,0,2.7c-2.8,0.1-5.6-0.1-8.4,0.1c0.1,1.7-0.1,3.3,0.1,5c2-0.1,4.1,0,6.1-0.1
	c0,0.9,0,1.8,0,2.6c-2,0-4.1,0-6.1,0c-0.1,1.9-0.1,3.8,0,5.7c2.8-0.1,5.5,0,8.3,0c0,0.9,0,1.8,0,2.7c-3.8,0.1-7.7,0.1-11.5,0
	C108.3,65.4,108.3,59.2,108.3,53L108.3,53z M123.9,53c2-0.1,4-0.1,6.1-0.1c1.8,0.1,3.7,0.5,5,1.8c1.6,1.6,1.9,4.2,1,6.2
	c-0.6,1.5-2,2.6-3.5,3.1c-1.9,0.6-4,0.3-6,0.4v7.3c-0.8,0-1.7,0-2.5,0C123.9,65.4,123.9,59.2,123.9,53 M126.4,54.9v7.5
	c1.3,0,2.5,0,3.8,0c1.3-0.1,2.7-0.7,3.3-1.9c0.9-1.6,0.6-4-1.1-4.9C130.5,54.6,128.4,55,126.4,54.9z M139.6,71.7
	c-0.1-6.2-0.1-12.5,0-18.8c0.8,0,1.7,0,2.5,0.1c-0.1,5.5,0,11,0,16.5c2.6,0,5.2,0,7.9,0c0.1,0.7,0,1.4,0,2.1
	C146.5,71.7,143.1,71.7,139.6,71.7L139.6,71.7z M152.1,53c0.8-0.1,1.7-0.1,2.5,0c0,3.8,0,7.6,0,11.3c0,1.4,0.4,2.9,1.4,3.9
	c1.7,1.7,4.8,1.8,6.6,0.2c1.1-1,1.6-2.6,1.6-4.1V52.9c0.8,0,1.7,0,2.5,0c0,3.9,0,7.8,0,11.7c0,2.4-1.2,4.9-3.3,6.1
	c-3.2,1.9-8,1.2-10.1-2.1c-0.9-1.4-1.2-3.2-1.2-4.9C152.1,60.1,152.1,56.6,152.1,53z M173.4,53.9c2.6-1.6,6.2-1.1,8.5,0.9
	c-0.4,0.6-0.7,2-1.6,1.4c-1.5-1.2-3.8-1.7-5.5-0.7c-1.5,0.8-1.8,3.2-0.4,4.2c2.1,1.5,5.2,1.4,7,3.5c1.9,2.4,0.8,6.4-1.8,7.8
	c-3,1.6-6.8,0.8-9.1-1.5c0.3-0.6,0.6-1.4,1.2-1.6c0.7,0.2,1.2,0.8,1.9,1.1c1.4,0.8,3.2,1,4.7,0.3c1.4-0.6,2.2-2.4,1.7-3.9
	c-0.5-1.2-1.8-1.7-3-2c-1.7-0.6-3.5-0.9-4.6-2.3C170.3,58.9,171,55.3,173.4,53.9L173.4,53.9z"/>
<path class="st1" d="M126.4,54.9c2,0.1,4.1-0.3,5.9,0.6c1.7,0.9,2,3.3,1.1,4.9c-0.6,1.2-2,1.8-3.3,1.9c-1.3,0.1-2.5,0-3.8,0V54.9z
	 M73.8,56.2c1.9-0.6,4.1-0.5,5.7,0.7c1.4,1,2.1,2.7,2.2,4.3c0.2,1.7,0,3.5-0.9,5c-2,3.3-7.5,3.4-9.6,0.2c-1.2-1.8-1.3-4.1-0.9-6.2
	C70.8,58.5,72,56.9,73.8,56.2L73.8,56.2z"/>
</svg>
