<?xml version="1.0" encoding="utf-8"?>
<!-- Generator: Adobe Illustrator 24.0.1, SVG Export Plug-In . SVG Version: 6.00 Build 0)  -->
<svg version="1.1" id="Слой_1" xmlns="http://www.w3.org/2000/svg" xmlns:xlink="http://www.w3.org/1999/xlink" x="0px" y="0px"
	 viewBox="0 0 200 120" style="enable-background:new 0 0 200 120;" xml:space="preserve">
<style type="text/css">
	.st0{display:none;fill-rule:evenodd;clip-rule:evenodd;fill:#FFFFFF;}
	.st1{fill-rule:evenodd;clip-rule:evenodd;}
</style>
<g>
	<path class="st0" d="M15.7-24.3h168.6v168.6H15.7V-24.3z"/>
	<path class="st1" d="M179.3,68.8c-1.4,0-2.5,1.1-2.5,2.4c0,1.4,1.1,2.5,2.4,2.5c0,0,0.1,0,0.1,0c1.4,0,2.5-1.1,2.5-2.5c0,0,0,0,0,0
		C181.8,69.9,180.7,68.8,179.3,68.8C179.3,68.8,179.3,68.8,179.3,68.8z M179.3,73.5c-1.2,0-2.2-1-2.2-2.2c0,0,0,0,0,0
		c0-1.2,1-2.2,2.2-2.2c0,0,0,0,0,0c1.2,0,2.2,1,2.2,2.2c0,0,0,0,0,0C181.5,72.5,180.5,73.5,179.3,73.5
		C179.3,73.5,179.3,73.5,179.3,73.5z"/>
	<path class="st1" d="M180.6,70.6c0-0.2-0.1-0.5-0.3-0.6c-0.2-0.1-0.4-0.1-0.7-0.1h-1.2v2.8h0.3v-1.3h0.6l0.8,1.3h0.4l-0.8-1.3
		C180.2,71.4,180.6,71.2,180.6,70.6L180.6,70.6z M179.2,71.1h-0.5v-1h0.8c0.3,0,0.7,0.1,0.7,0.5C180.2,71.2,179.6,71.1,179.2,71.1z
		 M164.7,57.2l5.1-5.4c0.3-0.4,0.4-0.7,0.4-0.9c0-0.4-0.3-0.6-1.4-0.6h-1.3v-3.4h13.9v3.4h-1.8c-2.1,0-2.5,0.3-5.5,4l-8.1,8.7v5.3
		c0,1.4,0.7,1.8,2.7,1.8h3v3.3h-19.5v-3.3h3c2,0,2.7-0.5,2.7-1.8V63l-9.5-10.5c-1.6-1.8-1.4-2.2-5.7-2.2v-3.4h17.6v3.4h-1.3
		c-1.3,0-1.8,0.2-1.8,0.7c0,0.4,0.4,0.7,0.6,1l4.8,5.2C163.3,57.8,164,57.9,164.7,57.2L164.7,57.2z M46.3,46.8h4.3v9.6h-3.9
		c-0.3-1.9-1.5-2.7-2.6-3.7c-2-1.8-6.2-3.3-9.8-3.3c-4.6,0-8.6,1.4-8.6,3.6c0,5.9,26.5,1.2,26.5,12.3c0,5.8-5.7,9-15.9,9
		c-3.5,0-8.9-1.1-12-2.8c-1-0.6-1.4,0.5-1.6,1.9h-4.4v-9.9h3.9c0.9,2.5,2.1,3,3.2,4c1.9,1.8,6.5,3,10.6,3c6.3-0.1,8.5-1.4,8.5-3.4
		c0-2-2.1-2.5-9-3.6l-5.9-1c-6.6-1-11.4-2.5-11.4-7.8c0-5.5,6.1-8.9,15.7-8.9c4.1,0,7.5,0.5,10.7,2.4C45.5,48.9,46.3,49,46.3,46.8
		L46.3,46.8z M129.4,62.9l0.1-10.7c0-1.4-0.7-1.9-2.8-1.9h-2.4V47h15.5v3.3h-2c-2.1,0-2.8,0.5-2.8,1.9v21.5l-6.1,0L109.1,55v13.5
		c0,1.4,0.7,1.9,2.8,1.9h2.7v3.3H98.5v-3.3h2.7c2.1,0,2.8-0.5,2.8-1.9V52.2c0-1.4-0.7-1.9-2.8-1.9h-2.7V47h14L129.4,62.9z
		 M77.3,45.8c-12.4,0-20.1,5.5-20.1,14.3c0,8.6,7.6,14.1,19.8,14.1c12.9,0,20.4-5.4,20.4-14.5C97.3,51.4,89.2,45.8,77.3,45.8
		L77.3,45.8z M77,70.6c-6.9,0-10.8-4-10.8-10.8c0-6.7,4.1-10.6,11.1-10.6c6.7,0,10.7,4,10.7,10.9C88,66.8,84.1,70.6,77,70.6L77,70.6
		z"/>
</g>
</svg>
