<?xml version="1.0" encoding="utf-8"?>
<!-- Generator: Adobe Illustrator 24.0.1, SVG Export Plug-In . SVG Version: 6.00 Build 0)  -->
<svg version="1.1" id="Слой_1" xmlns="http://www.w3.org/2000/svg" xmlns:xlink="http://www.w3.org/1999/xlink" x="0px" y="0px"
	 viewBox="0 0 200 120" style="enable-background:new 0 0 200 120;" xml:space="preserve">
<style type="text/css">
	.st0{clip-path:url(#SVGID_2_);}
	.st1{fill:#83C221;}
	.st2{fill:none;stroke:#FFFFFF;stroke-width:0.625;stroke-miterlimit:12.5;}
	.st3{fill-rule:evenodd;clip-rule:evenodd;fill:#83C221;}
	.st4{fill-rule:evenodd;clip-rule:evenodd;fill:#FFFFFF;}
	.st5{fill-rule:evenodd;clip-rule:evenodd;fill:#0D5DA9;}
</style>
<g>
	<defs>
		<rect id="SVGID_1_" x="3.4" y="31.9" width="193.2" height="56.3"/>
	</defs>
	<clipPath id="SVGID_2_">
		<use xlink:href="#SVGID_1_"  style="overflow:visible;"/>
	</clipPath>
	<g transform="matrix(1.25 0 0 -1.25 0 147.794)" class="st0">
		<path class="st1" d="M38,73.1c3.1-3.4,2.8-9.5,0.5-14.8C36.3,53,31.4,46.8,25,48c-0.9,0.2-1.8,0.3-3,0.4c-1.2,0-2.2-0.1-3-0.2
			c-2.6-0.3-5.1,0.6-7.2,2.1c-6.3,4.5-13.1,18-5.6,24.1c3.2,2.6,10,3.8,16.3,3.7C28.8,77.9,35.1,76.4,38,73.1"/>
		<path class="st2" d="M38,73.1c3.1-3.4,2.8-9.5,0.5-14.8C36.3,53,31.4,46.8,25,48c-0.9,0.2-1.8,0.3-3,0.4c-1.2,0-2.2-0.1-3-0.2
			c-2.6-0.3-5.1,0.6-7.2,2.1c-6.3,4.5-13.1,18-5.6,24.1c3.2,2.6,10,3.8,16.3,3.7C28.8,77.9,35.1,76.4,38,73.1z"/>
		<path class="st3" d="M31,89.6c0-3.6-3-7.4-7.4-9.2c-2.6-1.1-5.7-1.4-9.2-1.4c-1.7,0-1.9,1-0.4,1.2c3.2,0.3,6.7,2.2,8.8,5.1
			c0.9,1.3,1.5,2.7,1.7,4.3c0.1,0.4,0.1,0.9,0.2,1.3c0.4,1.3,1.7,2.2,3.6,1.9C29.8,92.4,31.1,91.4,31,89.6 M139.6,62.5
			c0.1-4.6,2.8-7,5.6-7c2.8,0,5.5,2.4,5.6,7c-0.1,4.6-2.8,7-5.6,7C142.4,69.5,139.7,67.1,139.6,62.5 M130.3,66.5c-0.5,2-1.9,3-4.1,3
			c-4,0-4.9-3.7-4.9-7c0-3.2,0.9-7,4.9-7c1.6,0,2.8,0.6,3.6,1.8h3.7l0.1-0.4l0.6-1.1l0.7-1l0.4-0.4c-1.9-2.8-5.2-3.9-9.2-3.9
			c-6.9,0-10.6,5-11.2,10.4h-11.9c0.3-2.7,1.5-5.3,4.8-5.3c1.6,0,2.8,0.6,3.6,1.8h3.8l0.2-0.6l0.5-1l0.6-1l0.3-0.4
			c-1.9-2.8-5.2-3.9-9.1-3.9c-15.1,0-15.1,24.1,0,24.1c4.2,0,7.7-1.3,9.5-4.4c1.9,2.6,4.9,4.4,9,4.4c4.2,0,7.7-1.3,9.5-4.4
			c2.3,2.9,6,4.4,9.7,4.4c6.1,0,12.1-4,12.1-12s-6.1-12-12.1-12c-6.1,0-12.1,4-12.1,12c0,1.4,0.2,2.7,0.5,3.9
			C133.6,66.5,130.3,66.5,130.3,66.5z M107.8,64.9H103c0.4,2.5,1.7,4.7,4.7,4.7s4.3-2.2,4.7-4.7H107.8z"/>
		<path class="st4" d="M32.6,50.1c-3.5,0.4-5.9,2.9-5.9,7.5V61H11.5c0.3-2.9,1.6-5.7,5.2-5.7c2.3,0,3.8,1.1,4.4,3.3h5v-0.9l0-1
			l0.1-0.9l0.2-0.9l0.2-0.6c-2-3.2-5.6-4.5-10-4.5c-2.4,0-4.5,0.6-6.1,1.5C8.2,53.2,6.2,56,4.8,59c-1.9,7.4,2,16.6,11.7,16.6
			c4.5,0,8.2-1.4,10.2-4.7v6.8c2.3-0.3,4.5-0.8,6.4-1.5V57.7c0-2.7,1.4-2.8,3.6-2.8h0.2C35.7,53.1,34.2,51.4,32.6,50.1 M16.7,65.2
			h-5.1c0.5,2.7,1.8,5,5.1,5c3.3,0,4.6-2.3,5.1-5L16.7,65.2L16.7,65.2z"/>
		<g>
			<path class="st5" d="M100,74.6v-1.7l-0.8-0.7l-0.8-0.9l-0.7-0.9l-0.6-1l-0.5-1.1l-0.1-0.3c-2.4-1.1-3.8-3.7-3.8-7.2V50.7h-6v22.8
				l-1.9-4.2H82V57.9c0-2.5,1.3-2.6,3.4-2.6l0.4,0v-4.5c-0.1,0-3,0-3.1,0c-2.9-0.1-5.2,1.3-6.1,3.9v-3.9c-0.1,0-3,0-3.1,0
				c-3.9-0.1-6.6,2.3-6.6,7v3.2H52.7c0.3-2.7,1.5-5.3,4.8-5.3c2.1,0,3.5,1,4.1,3h4.7v-0.9l0-0.9l0.1-0.8l0.2-0.8l0.2-0.5
				c-1.8-3-5.2-4.2-9.3-4.2c-15.1,0-15.1,24.1,0,24.1c4.2,0,7.7-1.3,9.5-4.4v8h5.9V57.9c0-2.5,1.3-2.6,3.4-2.6l0.2,0
				C76.1,56,76,56.8,76,57.7v20.4H82v-4.4h10.5v-3.6C93.8,73.4,96.4,74.7,100,74.6"/>
			<path class="st4" d="M57.6,64.9h-4.7c0.4,2.5,1.7,4.7,4.7,4.7c3.1,0,4.3-2.2,4.7-4.7H57.6L57.6,64.9z"/>
		</g>
	</g>
</g>
</svg>
