<svg width="200" height="120" viewBox="0 0 200 120" fill="none" xmlns="http://www.w3.org/2000/svg">
<path fill-rule="evenodd" clip-rule="evenodd" d="M179.3 68.8C177.9 68.8 176.8 69.9 176.8 71.2C176.8 72.6 177.9 73.7 179.2 73.7H179.3C180.7 73.7 181.8 72.6 181.8 71.2C181.8 69.9 180.7 68.8 179.3 68.8ZM179.3 73.5C178.1 73.5 177.1 72.5 177.1 71.3C177.1 70.1 178.1 69.1 179.3 69.1C180.5 69.1 181.5 70.1 181.5 71.3C181.5 72.5 180.5 73.5 179.3 73.5Z" fill="black"/>
<path fill-rule="evenodd" clip-rule="evenodd" d="M180.6 70.6C180.6 70.4 180.5 70.1 180.3 70C180.1 69.9 179.9 69.9001 179.6 69.9001H178.4V72.7H178.7V71.4001H179.3L180.1 72.7H180.5L179.7 71.4001C180.2 71.4001 180.6 71.2 180.6 70.6ZM179.2 71.1H178.7V70.1H179.5C179.8 70.1 180.2 70.2 180.2 70.6C180.2 71.2 179.6 71.1 179.2 71.1ZM164.7 57.2001L169.8 51.8C170.1 51.4 170.2 51.1001 170.2 50.9001C170.2 50.5001 169.9 50.3 168.8 50.3H167.5V46.9001H181.4V50.3H179.6C177.5 50.3 177.1 50.6 174.1 54.3L166 63V68.3001C166 69.7001 166.7 70.1 168.7 70.1H171.7V73.4001H152.2V70.1H155.2C157.2 70.1 157.9 69.6001 157.9 68.3001V63L148.4 52.5C146.8 50.7 147 50.3 142.7 50.3V46.9001H160.3V50.3H159C157.7 50.3 157.2 50.5 157.2 51C157.2 51.4 157.6 51.7 157.8 52L162.6 57.2001C163.3 57.8001 164 57.9001 164.7 57.2001ZM46.3002 46.8H50.6002V56.4001H46.7002C46.4002 54.5001 45.2002 53.7001 44.1002 52.7001C42.1002 50.9001 37.9002 49.4001 34.3002 49.4001C29.7002 49.4001 25.7002 50.8 25.7002 53C25.7002 58.9 52.2002 54.2001 52.2002 65.3001C52.2002 71.1001 46.5002 74.3001 36.3002 74.3001C32.8002 74.3001 27.4002 73.2 24.3002 71.5C23.3002 70.9 22.9002 72.0001 22.7002 73.4001H18.3002V63.5H22.2002C23.1002 66 24.3002 66.5 25.4002 67.5C27.3002 69.3 31.9002 70.5 36.0002 70.5C42.3002 70.4 44.5002 69.1 44.5002 67.1C44.5002 65.1 42.4002 64.6 35.5002 63.5L29.6002 62.5C23.0002 61.5 18.2002 60.0001 18.2002 54.7001C18.2002 49.2001 24.3002 45.8 33.9002 45.8C38.0002 45.8 41.4002 46.3001 44.6002 48.2001C45.5002 48.9001 46.3002 49 46.3002 46.8ZM129.4 62.9001L129.5 52.2001C129.5 50.8001 128.8 50.3 126.7 50.3H124.3V47H139.8V50.3H137.8C135.7 50.3 135 50.8001 135 52.2001V73.7H128.9L109.1 55V68.5C109.1 69.9 109.8 70.4001 111.9 70.4001H114.6V73.7H98.5002V70.4001H101.2C103.3 70.4001 104 69.9 104 68.5V52.2001C104 50.8001 103.3 50.3 101.2 50.3H98.5002V47H112.5L129.4 62.9001ZM77.3002 45.8C64.9002 45.8 57.2002 51.3 57.2002 60.1C57.2002 68.7 64.8002 74.2 77.0002 74.2C89.9002 74.2 97.4002 68.8001 97.4002 59.7001C97.3002 51.4001 89.2002 45.8 77.3002 45.8ZM77.0002 70.6C70.1002 70.6 66.2002 66.6 66.2002 59.8C66.2002 53.1 70.3002 49.2001 77.3002 49.2001C84.0002 49.2001 88.0002 53.2 88.0002 60.1C88.0002 66.8 84.1002 70.6 77.0002 70.6Z" fill="black"/>
<rect x="0.5" y="0.5" width="199" height="119" stroke="black"/>
</svg>
