<?xml version="1.0" encoding="utf-8"?>
<!-- Generator: Adobe Illustrator 24.0.1, SVG Export Plug-In . SVG Version: 6.00 Build 0)  -->
<svg version="1.1" id="Слой_1" xmlns="http://www.w3.org/2000/svg" xmlns:xlink="http://www.w3.org/1999/xlink" x="0px" y="0px"
	 viewBox="0 0 200 120" style="enable-background:new 0 0 200 120;" xml:space="preserve">
<style type="text/css">
	.st0{display:none;fill-rule:evenodd;clip-rule:evenodd;fill:#FFFFFF;}
	.st1{fill-rule:evenodd;clip-rule:evenodd;}
</style>
<g>
	<path class="st0" d="M5.8-34.2h188.4v188.4H5.8V-34.2z"/>
	<path class="st1" d="M91.9,49.4c-0.3-1.5-0.8-3.1-4.3-3.1c-3.5,0-3.9,1.3-3.9,2.3c0,3.8,15.2,1,15.2,9.8c0,7-6.9,8.2-10.7,8.2
		c-5.5,0-11.5-1.9-11.7-8.3h6.6c0,2,1.3,3.5,5.3,3.5c3.3,0,4.1-1.6,4.1-2.5c0-4-15.1-1-15.1-9.9c0-3.5,2.2-8,9.8-8
		c4.8,0,10.4,1.2,10.9,7.9L91.9,49.4L91.9,49.4z M134.9,66h-6.4V51.5c0-3.5-1.6-4.7-3.5-4.7c-3.2,0-4.3,2.1-4.3,4.9V66h-6.4V51.6
		c0-2,0-4.8-3.8-4.8c-3,0-4,2.1-4,4.7V66H100V42.1h6.1v3.5h0.1c0.8-1.6,2.6-4.1,6.9-4.1c3.5,0,5.1,1.3,6.8,3.8
		c0.8-1.2,2.6-3.8,6.5-3.8c4.8,0,8.5,2.7,8.5,8L134.9,66L134.9,66L134.9,66z M159.8,59c-1.7,5.7-6.5,7.6-10.7,7.6
		c-6.9,0-12.1-3.2-12.1-13.1c0-2.9,1-12.1,11.7-12.1c4.8,0,11.4,2.2,11.4,13.1v1.1h-16.7c0.2,1.8,0.5,5.8,5.7,5.8
		c1.8,0,3.6-0.9,4.1-2.6H159.8z M153.4,51.7c-0.4-3.9-2.9-5-4.9-5c-3,0-4.6,1.9-5,5H153.4L153.4,51.7z M185.9,41.3V63
		c0,4-0.3,10.6-12.3,10.6c-5,0-10.3-2-10.6-6.9h7c0.3,1.2,0.8,2.3,4.5,2.3c3.4,0,5.1-1.6,5.1-5.3V61l-0.1-0.1
		c-1.1,1.8-2.7,3.5-6.5,3.5c-5.9,0-10.5-3.8-10.5-11.9c0-7.9,4.8-11.8,10.1-11.8c4.5,0,6.4,2.5,7.1,4h0.1v-3.4L185.9,41.3
		L185.9,41.3L185.9,41.3z M174.1,59.3c4.3,0,5.4-3.5,5.4-6.6c0-3.7-1.9-6.7-5.5-6.7c-2.4,0-5,1.6-5,7
		C169,55.8,170.3,59.3,174.1,59.3L174.1,59.3z M67.2,72.2h-1v3.4c0,0.2,0,0.6,0.4,0.6c0.3,0,0.5-0.4,0.6-0.6l0.3,0.1
		c-0.2,0.5-0.6,1.3-1.5,1.3c-1.1,0-1.1-1-1.2-1.2v-3.7h-0.5v-0.3c0.5-0.5,1-1,1.7-2.1h0.3v1.9h1L67.2,72.2L67.2,72.2L67.2,72.2z
		 M71.8,75.7c-0.6,1.1-1.2,1.4-2,1.4c-1,0-2.1-0.8-2.1-2.8c0-1.7,0.9-2.7,2.1-2.7c1.8,0,1.9,2,1.9,2.6h-2.6c0,1,0.3,2.1,1.2,2.1
		c0.6,0,1-0.5,1.2-0.8L71.8,75.7L71.8,75.7z M70.5,73.8c0-0.4,0-0.9-0.1-1.3c-0.1-0.3-0.2-0.5-0.6-0.5c-0.4,0-0.7,0.3-0.7,1.8H70.5z
		 M76.4,75.9c-0.5,0.7-1.1,1.2-2,1.2c-1.3,0-2.2-1.2-2.2-2.6c0-2.2,1.5-2.9,2.4-2.9c0.7,0,1.6,0.4,1.6,1.2c0,0.7-0.6,0.7-0.7,0.7
		C75,73.6,75,73,75,72.4c0-0.2-0.2-0.4-0.4-0.4c0,0,0,0,0,0c-0.8,0-0.9,1.4-0.9,1.9c0,1.6,0.6,2.5,1.4,2.5c0.6,0,0.8-0.3,1.1-0.6
		L76.4,75.9L76.4,75.9z M82.1,77h-2.4v-0.3c0.3,0,0.5-0.2,0.5-0.6v-2.7c0-0.3,0-0.9-0.6-0.9c-0.4,0-0.8,0.6-0.8,0.7v3
		c0,0.3,0,0.6,0.5,0.6V77h-2.5v-0.3c0.4-0.1,0.5-0.1,0.5-0.7v-3.3c0-0.5-0.1-0.6-0.5-0.7v-0.3h2v0.8h0c0.1-0.3,0.6-1,1.5-1
		c0.6,0,1.4,0.4,1.4,1.6V76c0,0.3,0,0.6,0.5,0.6L82.1,77L82.1,77L82.1,77z M84.8,71.6c1.3,0,2.3,1.2,2.3,2.8c0,1.5-0.9,2.8-2.3,2.8
		c-1.4,0-2.3-1.3-2.3-2.8C82.5,72.9,83.4,71.6,84.8,71.6z M84.8,76.8c0.7,0,0.8-1,0.8-2.4c0-1.7-0.2-2.4-0.8-2.4
		c-0.8,0-0.8,1.1-0.8,2.4C84,75.6,84,76.8,84.8,76.8z M90,77h-2.4v-0.3c0.4,0,0.5-0.4,0.5-0.7v-5.8c0-0.1,0-0.7-0.5-0.7v-0.3h1.9V76
		c0,0.3,0.1,0.7,0.5,0.7V77L90,77z M92.8,71.6c1.3,0,2.3,1.2,2.3,2.8c0,1.5-0.9,2.8-2.3,2.8c-1.4,0-2.3-1.3-2.3-2.8
		C90.5,72.9,91.4,71.6,92.8,71.6z M92.8,76.8c0.7,0,0.8-1,0.8-2.4c0-1.7-0.2-2.4-0.8-2.4c-0.8,0-0.8,1.1-0.8,2.4
		C92,75.6,92,76.8,92.8,76.8L92.8,76.8z M99.4,72.4c0.1,0.1,0.4,0.4,0.4,1.1c0,0.7-0.3,1.3-1.1,1.5c-0.3,0.1-0.3,0.1-1.3,0.1
		c-0.2,0-0.6,0.2-0.6,0.6c0,0.4,0.3,0.4,1,0.4l0.7,0c0.5,0,1.7,0.1,1.7,1.4c0,1.4-1.3,1.7-2.6,1.7c-1.3,0-2-0.4-2-1
		c0-0.5,0.4-0.8,0.9-0.9v0c-0.5-0.2-0.8-0.4-0.8-0.9c0-0.7,0.8-1.2,1.2-1.3v0c-0.8-0.3-1.2-0.9-1.2-1.7c0-0.9,0.7-1.8,2.1-1.8
		c0.4,0,0.7,0.1,1.1,0.2h1.3v0.6L99.4,72.4L99.4,72.4L99.4,72.4z M96.9,77.6c-0.3,0.2-0.4,0.4-0.4,0.6c0,0.7,1.1,0.7,1.2,0.7
		c0.4,0,1.7,0,1.7-0.8c0-0.4-0.3-0.6-0.8-0.6H96.9L96.9,77.6z M97.8,74.9c0.6,0,0.7-0.8,0.7-1.5c0-0.5,0-1.5-0.7-1.5
		c-0.6,0-0.7,0.8-0.7,1.5C97.1,74.2,97.2,74.9,97.8,74.9z M103.1,77h-2.4v-0.3c0.4-0.1,0.5-0.1,0.5-0.7v-3.3c0-0.5-0.2-0.6-0.5-0.7
		v-0.3h2V76c0,0.4,0.1,0.6,0.5,0.6V77L103.1,77z M101.9,69.1c0.4,0,0.8,0.4,0.8,0.9c0,0.5-0.3,0.9-0.8,0.9c-0.5,0-0.8-0.4-0.8-0.9
		C101.1,69.5,101.4,69.1,101.9,69.1z M108.3,76.5c-0.3,0.4-0.7,0.6-1.1,0.6c-0.7,0-0.8-0.5-0.9-0.8c-0.7,0.7-1.4,0.8-1.6,0.8
		c-0.5,0-1.1-0.4-1.1-1.2c0-1.2,1.3-1.6,2.7-2.1V73c0-0.6-0.1-1-0.9-1c-0.4,0-0.6,0.2-0.6,0.4c0,0.2,0.3,0.3,0.3,0.8
		c0,0.2-0.2,0.6-0.7,0.6c-0.1,0-0.7,0-0.7-0.8c0-0.7,0.6-1.4,1.9-1.4c1.1,0,2,0.5,2,1.6v3c0,0.1,0,0.3,0.2,0.3c0,0,0.1,0,0.1,0
		l0.1-0.1L108.3,76.5L108.3,76.5z M106.3,74.2c-0.2,0.1-1.2,0.4-1.2,1.4c0,0.4,0.2,0.8,0.5,0.8c0.3,0,0.6-0.3,0.7-0.5L106.3,74.2
		L106.3,74.2z M115.7,75.9c-0.5,0.7-1.1,1.2-2,1.2c-1.3,0-2.2-1.2-2.2-2.6c0-2.2,1.5-2.9,2.4-2.9c0.7,0,1.6,0.4,1.6,1.2
		c0,0.7-0.6,0.7-0.7,0.7c-0.6,0-0.6-0.6-0.6-1.2c0-0.2-0.2-0.4-0.4-0.4c0,0,0,0,0,0c-0.8,0-0.9,1.4-0.9,1.9c0,1.6,0.6,2.5,1.4,2.5
		c0.6,0,0.8-0.3,1.1-0.6L115.7,75.9L115.7,75.9z M121.3,77h-2.4v-0.3c0.3,0,0.5-0.2,0.5-0.6v-2.7c0-0.3,0-0.9-0.6-0.9
		c-0.4,0-0.8,0.6-0.8,0.7v3c0,0.3,0,0.6,0.5,0.6V77H116v-0.3c0.4-0.1,0.5-0.1,0.5-0.7v-5.8c0-0.5-0.1-0.6-0.5-0.7v-0.3h2v3.2
		c0.5-0.6,0.9-0.9,1.5-0.9c0.6,0,1.4,0.4,1.4,1.6V76c0,0.2,0,0.7,0.5,0.7L121.3,77L121.3,77L121.3,77z M125.9,75.7
		c-0.6,1.1-1.2,1.4-2,1.4c-1,0-2.1-0.8-2.1-2.8c0-1.7,0.9-2.7,2.1-2.7c1.8,0,1.9,2,1.9,2.6h-2.6c0,1,0.3,2.1,1.2,2.1
		c0.6,0,1-0.5,1.2-0.8L125.9,75.7L125.9,75.7z M124.6,73.8c0-0.4,0-0.9-0.1-1.3c-0.1-0.3-0.2-0.5-0.6-0.5c-0.4,0-0.7,0.3-0.7,1.8
		H124.6z M134.7,76.5c-0.3,0.4-0.7,0.6-1.1,0.6c-0.7,0-0.8-0.5-0.9-0.8c-0.7,0.7-1.4,0.8-1.6,0.8c-0.5,0-1.1-0.4-1.1-1.2
		c0-1.2,1.3-1.6,2.7-2.1V73c0-0.6-0.1-1-0.9-1c-0.4,0-0.6,0.2-0.6,0.4c0,0.2,0.3,0.3,0.3,0.8c0,0.2-0.2,0.6-0.7,0.6
		c-0.1,0-0.7,0-0.7-0.8c0-0.7,0.6-1.4,1.9-1.4c1.1,0,2,0.5,2,1.6v3c0,0.1,0,0.3,0.2,0.3c0,0,0.1,0,0.1,0l0.1-0.1L134.7,76.5
		L134.7,76.5z M132.7,74.2c-0.2,0.1-1.2,0.4-1.2,1.4c0,0.4,0.2,0.8,0.5,0.8c0.3,0,0.6-0.3,0.7-0.5L132.7,74.2L132.7,74.2z M137.9,77
		h-2.7v-0.3c0.3-0.1,0.6-0.1,0.6-0.7v-3.3c0-0.6-0.2-0.6-0.6-0.7v-0.3h1.9v0.9h0c0.2-0.4,0.7-1,1.3-1c0.7,0,0.8,0.6,0.8,0.9
		c0,0.3-0.1,0.8-0.7,0.8c-0.6,0-0.6-0.7-0.9-0.7c-0.2,0-0.6,0.2-0.6,1.1v2.1c0,0.7,0.1,0.9,0.7,0.9V77z M142.4,77h-2.7v-0.3
		c0.3-0.1,0.6-0.1,0.6-0.7v-3.3c0-0.6-0.2-0.6-0.6-0.7v-0.3h1.9v0.9h0c0.2-0.4,0.7-1,1.3-1c0.7,0,0.8,0.6,0.8,0.9
		c0,0.3-0.1,0.8-0.7,0.8c-0.6,0-0.6-0.7-0.9-0.7c-0.2,0-0.6,0.2-0.6,1.1v2.1c0,0.7,0.1,0.9,0.7,0.9L142.4,77L142.4,77z M148.1,75.7
		c-0.6,1.1-1.2,1.4-2,1.4c-1,0-2.1-0.8-2.1-2.8c0-1.7,0.9-2.7,2.1-2.7c1.8,0,1.9,2,1.9,2.6h-2.6c0,1,0.3,2.1,1.2,2.1
		c0.6,0,1-0.5,1.2-0.8L148.1,75.7L148.1,75.7z M146.8,73.8c0-0.4,0-0.9-0.1-1.3c-0.1-0.3-0.2-0.5-0.6-0.5c-0.4,0-0.7,0.3-0.7,1.8
		H146.8z M153.8,76.7c-1.3,0.2-1.4,0.2-2,0.4v-0.7c-0.4,0.4-0.7,0.7-1.4,0.7c-0.8,0-1.8-1-1.8-2.6c0-2,1-2.9,2-2.9
		c0.6,0,1,0.4,1.2,0.7v-2.1c0-0.6-0.2-0.6-0.8-0.7v-0.3h2.2v6.5c0,0.3,0,0.6,0.6,0.7V76.7L153.8,76.7z M151.7,72.9
		c0,0-0.2-0.7-0.8-0.7c-0.7,0-0.9,1-0.9,2.1c0,0.7,0,2.1,0.8,2.1c0.5,0,0.8-0.7,0.8-0.8V72.9z M159,76.5c-0.3,0.4-0.7,0.6-1.1,0.6
		c-0.7,0-0.8-0.5-0.9-0.8c-0.7,0.7-1.4,0.8-1.6,0.8c-0.5,0-1.1-0.4-1.1-1.2c0-1.2,1.3-1.6,2.8-2.1V73c0-0.6-0.1-1-0.9-1
		c-0.4,0-0.6,0.2-0.6,0.4c0,0.2,0.3,0.3,0.3,0.8c0,0.2-0.2,0.6-0.7,0.6c-0.1,0-0.7,0-0.7-0.8c0-0.7,0.6-1.4,1.9-1.4
		c1.1,0,2,0.5,2,1.6v3c0,0.1,0,0.3,0.2,0.3c0,0,0.1,0,0.1,0l0.1-0.1L159,76.5L159,76.5z M157,74.2c-0.2,0.1-1.2,0.4-1.2,1.4
		c0,0.4,0.2,0.8,0.5,0.8c0.3,0,0.6-0.3,0.7-0.5L157,74.2L157,74.2z M29.7,65.8c0,4.3-3.5,7.8-7.8,7.8c-4.3,0-7.8-3.5-7.8-7.8
		c0,0,0,0,0,0c0-4.3,3.5-7.8,7.8-7.8C26.2,58,29.7,61.5,29.7,65.8z"/>
	<path class="st1" d="M45.3,65.8c0,4.3-3.5,7.8-7.8,7.8s-7.8-3.5-7.8-7.8s3.5-7.8,7.8-7.8S45.3,61.5,45.3,65.8z"/>
	<path class="st1" d="M60.9,65.8c0,4.3-3.5,7.8-7.8,7.8s-7.8-3.5-7.8-7.8s3.5-7.8,7.8-7.8S60.9,61.5,60.9,65.8z M45.3,50.2
		c0,4.3-3.5,7.8-7.8,7.8s-7.8-3.5-7.8-7.8c0-4.3,3.5-7.8,7.8-7.8S45.3,45.9,45.3,50.2C45.3,50.2,45.3,50.2,45.3,50.2z"/>
	<path class="st1" d="M60.9,50.2c0,4.3-3.5,7.8-7.8,7.8c0,0,0,0,0,0c-4.3,0-7.8-3.5-7.8-7.8s3.5-7.8,7.8-7.8
		C57.4,42.4,60.9,45.9,60.9,50.2C60.9,50.2,60.9,50.2,60.9,50.2z"/>
	<path class="st1" d="M76.5,50.2c0.1,4.3-3.4,7.9-7.7,7.9c-4.3,0.1-7.9-3.4-7.9-7.7c0-0.1,0-0.2,0-0.2c0.1-4.3,3.6-7.7,7.9-7.7
		C73.1,42.6,76.5,46,76.5,50.2z"/>
</g>
</svg>
