<svg width="200" height="120" viewBox="0 0 200 120" fill="none" xmlns="http://www.w3.org/2000/svg">
<path d="M38.4394 45.4125V75.5875H32V45.4125H38.4394Z" fill="black"/>
<path d="M54.5341 75.5875H43.7373V45.4125H54.6233C57.6868 45.4125 60.324 46.0166 62.5349 47.2248C64.7458 48.4232 66.4461 50.147 67.6359 52.3964C68.8355 54.6458 69.4353 57.3371 69.4353 60.4705C69.4353 63.6138 68.8355 66.315 67.6359 68.5741C66.4461 70.8333 64.7359 72.567 62.5052 73.7752C60.2844 74.9834 57.6273 75.5875 54.5341 75.5875ZM50.1767 70.1212H54.2664C56.1699 70.1212 57.7711 69.7872 59.0699 69.1193C60.3786 68.4415 61.3601 67.3954 62.0144 65.981C62.6787 64.5567 63.0108 62.7199 63.0108 60.4705C63.0108 58.2408 62.6787 56.4187 62.0144 55.0043C61.3601 53.5898 60.3835 52.5486 59.0847 51.8807C57.786 51.2128 56.1848 50.8788 54.2812 50.8788H50.1767V70.1212Z" fill="black"/>
<path d="M74.2054 75.5875V45.4125H86.2215C88.5217 45.4125 90.4847 45.8202 92.1107 46.6355C93.7465 47.4409 94.9908 48.5852 95.8434 50.0684C96.706 51.5418 97.1372 53.2755 97.1372 55.2695C97.1372 57.2733 96.701 58.9971 95.8285 60.4411C94.9561 61.8752 93.692 62.9753 92.0363 63.7414C90.3905 64.5076 88.3977 64.8907 86.058 64.8907H78.0125V59.7633H85.0169C86.2463 59.7633 87.2675 59.5963 88.0805 59.2624C88.8935 58.9284 89.4982 58.4274 89.8948 57.7595C90.3013 57.0916 90.5045 56.2616 90.5045 55.2695C90.5045 54.2676 90.3013 53.4228 89.8948 52.7353C89.4982 52.0477 88.8885 51.5271 88.0656 51.1735C87.2526 50.81 86.2265 50.6283 84.9872 50.6283H80.6447V75.5875H74.2054ZM90.6533 61.8555L98.2229 75.5875H91.1143L83.7083 61.8555H90.6533Z" fill="black"/>
<path d="M129.676 60.5C129.676 63.7906 129.047 66.59 127.787 68.8983C126.538 71.2066 124.833 72.9697 122.672 74.1877C120.52 75.3959 118.101 76 115.414 76C112.708 76 110.279 75.391 108.127 74.173C105.976 72.955 104.276 71.1919 103.026 68.8836C101.777 66.5753 101.153 63.7807 101.153 60.5C101.153 57.2094 101.777 54.41 103.026 52.1017C104.276 49.7934 105.976 48.0352 108.127 46.827C110.279 45.609 112.708 45 115.414 45C118.101 45 120.52 45.609 122.672 46.827C124.833 48.0352 126.538 49.7934 127.787 52.1017C129.047 54.41 129.676 57.2094 129.676 60.5ZM123.148 60.5C123.148 58.3685 122.825 56.571 122.181 55.1074C121.546 53.6439 120.649 52.5339 119.489 51.7776C118.329 51.0212 116.971 50.6431 115.414 50.6431C113.858 50.6431 112.5 51.0212 111.34 51.7776C110.18 52.5339 109.277 53.6439 108.633 55.1074C107.998 56.571 107.681 58.3685 107.681 60.5C107.681 62.6315 107.998 64.429 108.633 65.8926C109.277 67.3561 110.18 68.4661 111.34 69.2224C112.5 69.9788 113.858 70.3569 115.414 70.3569C116.971 70.3569 118.329 69.9788 119.489 69.2224C120.649 68.4661 121.546 67.3561 122.181 65.8926C122.825 64.429 123.148 62.6315 123.148 60.5Z" fill="black"/>
<path d="M134.446 75.5875V45.4125H146.462C148.772 45.4125 150.74 45.8497 152.366 46.7239C153.992 47.5882 155.232 48.7915 156.084 50.3336C156.947 51.866 157.378 53.634 157.378 55.6378C157.378 57.6416 156.942 59.4097 156.069 60.942C155.197 62.4743 153.933 63.6678 152.277 64.5223C150.631 65.3769 148.639 65.8042 146.299 65.8042H138.64V60.6915H145.258C146.497 60.6915 147.518 60.4804 148.321 60.058C149.134 59.6258 149.739 59.0315 150.136 58.2752C150.542 57.509 150.745 56.6299 150.745 55.6378C150.745 54.6359 150.542 53.7617 150.136 53.0152C149.739 52.2589 149.134 51.6744 148.321 51.2619C147.508 50.8395 146.477 50.6283 145.228 50.6283H140.886V75.5875H134.446Z" fill="black"/>
<path d="M168 45.4125V75.5875H161.561V45.4125H168Z" fill="black"/>
<rect x="0.5" y="0.5" width="199" height="119" stroke="black"/>
</svg>
