<?xml version="1.0" encoding="utf-8"?>
<!-- Generator: Adobe Illustrator 24.0.1, SVG Export Plug-In . SVG Version: 6.00 Build 0)  -->
<svg version="1.1" id="レイヤー_1" xmlns="http://www.w3.org/2000/svg" xmlns:xlink="http://www.w3.org/1999/xlink" x="0px"
	 y="0px" viewBox="0 0 200 120" style="enable-background:new 0 0 200 120;" xml:space="preserve">
<g>
	<path d="M85.1,41.5l0,34.9c0,0,0,1.5,1.5,1.5h4.2c1.5,0,1.5-1.5,1.5-1.5l0-34.9c0,0,0-1.5-1.5-1.5h-4.2
		C85.1,40,85.1,41.5,85.1,41.5z"/>
	<path d="M102,69.9c0,0.8,0.5,1.8,1.3,2.3c3.8,2.5,13.8,1.5,13.9-5.8c0-0.6-0.6-0.8-1-0.9c-0.8-0.1-9.2-0.3-12.7,1.5
		C102.4,67.7,102,68.6,102,69.9c0,0-6.8,0-6.8,0c0-3.9,2.9-7.6,6.8-8.2c2.7-0.4,4.3-0.8,14.1-1.3c0.6,0,1.8-1.3,1-2.5
		c-1.3-1.9-2.4-2.8-6.5-2.8c-3.7,0-5.6,0.8-6.9,2.8c-0.2,0.4-1,1.1-1.8,1.1l-4.7,0c-0.6,0-1.2-0.6-1-1.2c2.2-5.3,6.7-7.9,13.5-7.9
		c6.1,0,14.1,2.3,14.1,10.8l0,15.7c0,0,0,1.5-1.5,1.5c0,0-1.9,0-2.5,0c-1.2,0-1.8-0.3-2.2-1.5c-0.2-0.5-0.7-0.8-1.2-0.4
		c-4,3.5-12.7,4.3-17.4,0.9c-2.7-1.9-3.9-4.5-3.9-7C95.2,69.9,102,69.9,102,69.9z"/>
	<path d="M157.2,76.3V61c0-6.9-6.1-11.1-10.5-11.1c-4.4,0-8.1,1.1-11,3.5c-0.3,0.2-1,0.4-1-0.2l0-1.6c0,0,0-1.5-1.5-1.5l-3.6,0
		c0,0-1.5,0-1.5,1.5l0,24.8c0,1.5,1.5,1.5,1.5,1.5l3.6,0c1.5,0,1.5-1.5,1.5-1.5l0-12.1c0-3.3,2.3-9.1,9.7-9.1c5.3,0,6.2,3.7,6.2,5.8
		l0,15.4c0,1.5,1.5,1.5,1.5,1.5l3.6,0C155.7,77.9,157.2,77.9,157.2,76.3z"/>
	<path d="M96.3,57.7c0,0.1,0,0.1,0,0.2"/>
	<path d="M65.5,78.8c12.1,0,17.2-7.8,17.2-14.5c0-6.4-5.1-14.5-17.3-14.5c-12.2,0-17.3,8.1-17.3,14.5C48.2,71.1,53.3,78.8,65.5,78.8
		c0,0,0-5.2,0-5.2c-7.1,0-10.3-5.2-10.3-9.3c0-4,3.4-9.3,10.2-9.3c6.8,0,10.3,5.3,10.3,9.3c0,4.1-3.3,9.3-10.2,9.3V78.8z"/>
	<path d="M167,64.3c0,5.4,4,9.4,9.2,9.4c5.2,0,9.4-3.7,9.4-9.4c0-5.5-4.2-9.1-9.4-9.1C171.3,55.3,167,59,167,64.3l-6.8,0
		c0-11.1,14.9-18.6,24.6-11.1c0.4,0.3,0.9,0.1,0.9-0.7l0-11c0-1.5,1.5-1.5,1.5-1.5h3.6c0,0,1.5,0,1.5,1.5v34.9
		c0,1.5-1.5,1.5-1.5,1.5h-3.6c-1.5,0-1.5-1.5-1.5-1.6c0-0.8-0.4-1.1-0.9-0.7c-9.9,7.9-24.6,1.2-24.6-11.2L167,64.3z"/>
	<path d="M20.6,60.8l0-5c0.1,0-1.5,0-1.5-1.5c0-1.9,0-7.8,0-7.8s0-1.5,1.5-1.5H34c0,0,5.9,0,5.9,5.4c0,5.4-5.9,5.4-5.9,5.4l-13.5,0
		C20.6,55.8,20.6,60.8,20.6,60.8l11.3,0c2,0,3.7,0.4,4.5,1.5c3.3,4.6,2.2,9.2,3.8,14c0.3,0.8,1.1,1.5,2.5,1.5l4.4,0
		c0.4,0,0.7-0.6,0.6-0.8c-1.8-3.8-2-7.8-3.2-12.4c-0.7-2.5-0.7-3.8-2.6-5.2c-0.1-0.1,0.1-0.4,0.3-0.5c2.7-1.9,4.7-5.1,4.7-8.5
		c0-7-5.7-10.4-10.7-10.4l-22.1,0c0,0-1.5,0-1.5,1.5l0,34.9c0,1.5,1.5,1.5,1.5,1.5l3.4,0c0,0,1.5,0,1.5-1.5c0-2.5,0-10.5,0-14
		C19,60.8,20.6,60.8,20.6,60.8z"/>
</g>
</svg>
