<?xml version="1.0" encoding="utf-8"?>
<!-- Generator: Adobe Illustrator 24.0.1, SVG Export Plug-In . SVG Version: 6.00 Build 0)  -->
<svg version="1.1" id="Слой_1" xmlns="http://www.w3.org/2000/svg" xmlns:xlink="http://www.w3.org/1999/xlink" x="0px" y="0px"
	 viewBox="0 0 200 120" style="enable-background:new 0 0 200 120;" xml:space="preserve">
<style type="text/css">
	.st0{fill:#1C4598;}
</style>
<g>
	<path class="st0" d="M22.8,74h-8.2v-28h14.2l16.3,20.9V46.1h8.2v28H39.4L22.8,52.8V74 M92.7,65.4c0,3.9-0.7,5.2-1.8,6.5
		c-1.7,1.9-4.3,2.5-9.2,2.5h-14c-4.9,0-7.4-0.6-9.2-2.5c-1.1-1.3-1.8-2.6-1.8-6.5V54.6c0-3.9,0.7-5.2,1.8-6.5
		c1.7-1.9,4.3-2.5,9.2-2.5h14c4.9,0,7.4,0.6,9.2,2.5c1.1,1.3,1.8,2.6,1.8,6.5L92.7,65.4 M81.4,67.3c1.9,0,2.5-0.1,3-0.5
		c0.4-0.4,0.6-0.9,0.6-2.5v-8.5c0-1.6-0.2-2.1-0.6-2.5c-0.4-0.4-1.1-0.5-3-0.5H68c-1.9,0-2.5,0.1-3,0.5c-0.4,0.4-0.6,0.9-0.6,2.5
		v8.5c0,1.6,0.2,2.1,0.6,2.5c0.4,0.4,1.1,0.5,3,0.5L81.4,67.3L81.4,67.3z M104.7,46.1v28h-8.6v-28H104.7 M119.2,46.1h11.3
		l-15.3,13.1L132.5,74h-12.1l-15.7-14.6L119.2,46.1L119.2,46.1z M134.1,46.1h8.6v28h-8.6V46.1z M175.4,74l-2.5-4.9h-16.6l-2.5,4.9
		h-9.5l15.2-28h10.7l15.2,28H175.4 M159.2,63.1h10.7L164.6,53L159.2,63.1z"/>
</g>
</svg>
