<svg width="200" height="120" viewBox="0 0 200 120" fill="none" xmlns="http://www.w3.org/2000/svg">
<path d="M116.239 54.3296C113.925 54.3296 111.748 54.3296 109.502 54.3296C109.502 60.9359 109.502 67.515 109.502 74.1349C107.284 74.1349 105.134 74.1349 102.889 74.1349C102.889 67.5559 102.889 60.9632 102.889 54.3296C100.616 54.3296 98.4388 54.3296 96.1659 54.3296C96.1659 60.9087 96.1659 67.5014 96.1659 74.1349C70.6024 74.1349 45.121 74.1349 19.5985 74.1349C19.5985 72.1462 19.5985 70.1575 19.5985 68.1143C24.2128 63.4967 28.8819 58.8382 33.5921 54.1117C26.5268 54.1117 19.5164 54.1117 12.4648 54.1117C12.4648 52.3818 12.4648 50.7064 12.4648 48.9901C21.7756 48.9901 31.0727 48.9901 40.3972 48.9901C40.3972 50.9515 40.3972 52.8721 40.3972 54.8608C35.7692 59.4921 31.0864 64.1642 26.3488 68.9044C32.9075 68.9044 39.3702 68.9044 45.9151 68.9044C45.9151 62.298 45.9151 55.6917 45.9151 49.0037C53.7335 49.0037 61.4696 49.0037 69.2605 49.0037C69.2605 54.0708 69.2605 59.1107 69.2605 64.2186C63.7288 64.2186 58.2245 64.2186 52.6518 64.2186C52.6518 65.7987 52.6518 67.3379 52.6518 68.8907C60.429 68.8907 68.1925 68.8907 76.0245 68.8907C76.0245 59.7373 76.0245 50.6246 76.0245 41.4575C78.2427 41.4575 80.3924 41.4575 82.6105 41.4575C82.6105 50.5701 82.6105 59.6964 82.6105 68.8771C84.9108 68.8771 87.1564 68.8771 89.4704 68.8771C89.4704 62.2572 89.4704 55.6509 89.4704 48.9901C100.616 48.9901 111.693 48.9901 122.839 48.9901C122.839 55.6373 122.839 62.2572 122.839 68.9044C125.111 68.9044 127.302 68.9044 129.561 68.9044C129.561 62.2572 129.561 55.6645 129.561 49.0173C137.38 49.0173 145.143 49.0173 152.975 49.0173C152.975 54.0572 152.975 59.1107 152.975 64.2459C147.43 64.2459 141.871 64.2459 136.271 64.2459C136.271 65.8396 136.271 67.3515 136.271 68.9044C144.062 68.9044 151.88 68.9044 159.753 68.9044C159.753 62.2708 159.753 55.6509 159.753 48.9901C161.903 48.9901 163.998 48.9901 166.161 48.9901C166.161 50.7608 166.161 52.4907 166.161 54.3841C167.599 53.1854 168.899 52.0957 170.2 51.006C170.378 50.8562 170.584 50.7336 170.721 50.5701C171.939 49.099 173.514 48.8539 175.349 48.922C179.114 49.0446 182.879 48.9628 186.645 48.9628C186.919 48.9628 187.192 48.9628 187.507 48.9628C187.507 50.7608 187.507 52.4907 187.507 54.2751C183.153 54.2751 178.813 54.2751 174.472 54.2751C171.775 56.6588 169.119 59.0017 166.394 61.4127C166.394 65.608 166.394 69.8579 166.394 74.1622C149.648 74.1622 132.985 74.1622 116.239 74.1622C116.239 67.5695 116.239 60.9768 116.239 54.3296ZM52.6381 58.9472C56.4445 58.9472 60.1962 58.9472 63.9616 58.9472C63.9616 57.3944 63.9616 55.8824 63.9616 54.3296C60.1688 54.3296 56.4171 54.3296 52.6381 54.3296C52.6381 55.8824 52.6381 57.3944 52.6381 58.9472ZM136.271 58.9472C140.105 58.9472 143.856 58.9472 147.608 58.9472C147.608 57.3808 147.608 55.8824 147.608 54.3432C143.815 54.3432 140.063 54.3432 136.271 54.3432C136.271 55.8961 136.271 57.408 136.271 58.9472Z" fill="#042B69"/>
<rect x="0.5" y="0.5" width="199" height="119" stroke="black"/>
</svg>
