<?xml version="1.0" encoding="utf-8"?>
<!-- Generator: Adobe Illustrator 24.0.1, SVG Export Plug-In . SVG Version: 6.00 Build 0)  -->
<svg version="1.1" id="Слой_1" xmlns="http://www.w3.org/2000/svg" xmlns:xlink="http://www.w3.org/1999/xlink" x="0px" y="0px"
	 viewBox="0 0 200 120" style="enable-background:new 0 0 200 120;" xml:space="preserve">
<style type="text/css">
	.st0{fill:#0096D6;}
</style>
<g>
	<path class="st0" d="M138.6,60c0-21.3-17.3-38.6-38.6-38.6c-0.6,0-1.2,0-1.7,0l-7.9,21.7h6.9c4.1,0,6.3,3.2,4.9,7l-9.7,26.8l-8.2,0
		l10.5-28.7h-6.1L78.1,76.9h-8.2l12.3-33.8h0l7.4-20.3C73.3,27.4,61.4,42.3,61.4,60C61.4,78.2,74,93.5,91,97.6l7.2-19.7h0l12.6-34.7
		h15.1c4.1,0,6.3,3.2,4.9,7l-8.6,23.5c-0.7,1.8-2.7,3.3-4.7,3.3h-10.9l-7.9,21.7c0.4,0,0.8,0,1.1,0C121.3,98.6,138.6,81.3,138.6,60"
		/>
	<path class="st0" d="M123.4,48.2h-6.1l-8.6,23.6h6.1L123.4,48.2z"/>
</g>
</svg>
