<?xml version="1.0" encoding="utf-8"?>
<!-- Generator: Adobe Illustrator 24.0.1, SVG Export Plug-In . SVG Version: 6.00 Build 0)  -->
<svg version="1.1" id="Слой_1" xmlns="http://www.w3.org/2000/svg" xmlns:xlink="http://www.w3.org/1999/xlink" x="0px" y="0px"
	 viewBox="0 0 200 120" style="enable-background:new 0 0 200 120;" xml:space="preserve">
<style type="text/css">
	.st0{fill:#231F20;}
</style>
<title>logo_vetex</title>
<path class="st0" d="M40.6,49.8c-1-0.7-2.3-0.6-3.1,0.3l-12,14.7l-12-14.7c-0.8-1-2.2-1.1-3.2-0.3C9.4,50.6,9.2,52,10,53l13.7,16.9
	l0,0c0.1,0.1,0.2,0.2,0.3,0.3l0,0c0.2,0.1,0.4,0.3,0.6,0.3h0.1c0.2,0.1,0.4,0.1,0.6,0.1l0,0c0.2,0,0.4,0,0.6-0.1h0.1
	c0.2-0.1,0.4-0.2,0.6-0.3l0,0c0.1-0.1,0.2-0.2,0.3-0.3l0,0L40.9,53C41.7,52.1,41.6,50.7,40.6,49.8C40.6,49.9,40.6,49.8,40.6,49.8z"
	/>
<path class="st0" d="M69,60c0-1.2-1-2.2-2.2-2.2c0,0,0,0,0,0H46.8c1-2.4,3.3-4,5.9-4h13.9c1.2,0,2.2-1,2.2-2.2c0-1.2-1-2.2-2.2-2.2
	c0,0,0,0,0,0H52.8c-6,0-10.8,4.8-10.8,10.7c0,0,0,0,0,0c0.1,5.9,4.9,10.7,10.8,10.7h13.9c1.2,0,2.2-1,2.2-2.2c0-1.2-1-2.2-2.2-2.2
	c0,0,0,0,0,0H52.8c-2.6,0-5-1.6-5.9-4h19.9C68,62.2,69,61.2,69,60z"/>
<path class="st0" d="M151.5,60c0-1.2-1-2.2-2.2-2.2c0,0,0,0,0,0h-19.9c1-2.4,3.3-4,5.9-4h13.9c1.2,0,2.2-1,2.2-2.2
	c0-1.2-1-2.2-2.2-2.2h-13.9c-5.9,0-10.8,4.8-10.8,10.7c0.1,5.9,4.9,10.7,10.9,10.7h13.9c1.2,0,2.2-1,2.2-2.2c0-1.2-1-2.2-2.2-2.2
	h-14c-2.6,0-5-1.6-5.9-4h19.9C150.5,62.2,151.5,61.2,151.5,60z"/>
<path class="st0" d="M122.4,49.3h-22.1c-1.2,0-2.2,1-2.2,2.2s1,2.2,2.2,2.2l0,0h8.7v14.6c-0.1,1.2,0.9,2.3,2.1,2.4
	c1.2,0.1,2.3-0.9,2.4-2.1c0-0.1,0-0.2,0-0.3V53.8h8.9c1.2,0,2.2-1,2.2-2.2C124.6,50.3,123.6,49.3,122.4,49.3z"/>
<path class="st0" d="M97.7,58.1c0-4.9-3.9-8.8-8.8-8.8H75.5c-1.2,0-2.2,1-2.2,2.2c0,0,0,0,0,0v16.9c0,1.2,1,2.2,2.2,2.2
	c1.2,0,2.2-1,2.2-2.2c0,0,0,0,0,0v-1.5h11.2h0.3l3.8,3.2c0.9,0.8,2.3,0.7,3.2-0.3s0.7-2.3-0.3-3.2l-1.8-1.5
	C96.4,63.6,97.7,60.9,97.7,58.1z M77.7,53.8h11.2c2.4,0,4.3,1.9,4.3,4.3c0,2.4-1.9,4.3-4.3,4.3H77.7L77.7,53.8z"/>
<path class="st0" d="M169.8,60l7.8-6.7c0.9-0.9,0.9-2.3,0.1-3.2c-0.8-0.8-2.1-0.9-3-0.2l-8.4,7.2l-8.3-7.2c-1-0.8-2.4-0.6-3.1,0.4
	c-0.7,0.9-0.6,2.2,0.2,3l7.8,6.7l-7.8,6.7c-0.9,0.8-1,2.2-0.2,3.2c0.4,0.5,1,0.8,1.7,0.8c0.5,0,1.1-0.2,1.5-0.5l8.4-7.1l8.4,7.2
	c0.4,0.4,0.9,0.6,1.5,0.6c1.2,0,2.2-1,2.2-2.2c0-0.7-0.3-1.3-0.8-1.7L169.8,60z"/>
<path class="st0" d="M182.7,50.3h-1.4v-1h3.8v1h-1.4V54h-1L182.7,50.3z"/>
<path class="st0" d="M185.9,49.3h1.1l1.2,2l1.2-2h1.1V54h-1v-3l-1.3,2l0,0l-1.3-2v3h-1L185.9,49.3z"/>
</svg>
