<svg width="200" height="120" viewBox="0 0 200 120" fill="none" xmlns="http://www.w3.org/2000/svg">
<g clip-path="url(#clip0_662_566)">
<path fill-rule="evenodd" clip-rule="evenodd" d="M29.9593 69.8789C28.1133 69.8128 26.4249 69.5485 24.6464 69.064C22.9243 68.5904 20.8869 67.6875 19.6488 67.291L18.5232 69.4824H15L15.0338 62.5448H18.0391C19.176 63.5689 20.7068 64.4169 21.6073 64.9895C22.5753 65.5842 23.5996 66.2669 24.759 66.7184C25.8958 67.1699 27.7081 67.5994 29.2952 67.6985C31.4226 67.8416 33.2686 67.7756 34.4504 67.258C35.2609 66.9056 36.5778 66.2669 36.5778 64.9455C36.5778 63.7892 35.4635 63.3377 34.6193 63.0404C33.5274 62.677 31.3888 62.5448 29.3402 62.1594C28.0232 61.9282 26.8188 61.6859 25.7045 61.4877C24.5789 61.2784 23.5321 61.1683 22.5641 60.9371C20.3241 60.4305 18.647 59.7037 17.5551 58.7677C16.4633 57.7986 15.9005 56.7304 15.9005 55.5522C15.9005 54.7923 16.1931 54.0875 16.7559 53.3938C17.33 52.7 18.1404 52.0833 19.2323 51.5327C20.2791 51.0262 21.596 50.6077 23.2282 50.2774C24.849 49.958 26.605 50.0021 28.5185 50.0021C30.387 50.0021 32.3568 50.5196 33.8989 51.0372C35.5198 51.5768 36.2852 51.9182 37.2194 52.2155L38.4013 50.3104H41.2153L41.2603 56.8516H38.3C37.5121 55.8054 36.6566 54.8474 35.531 54.0875C34.7656 53.5479 33.9777 53.0524 32.9647 52.7331C31.9628 52.4247 30.5333 51.9732 29.1713 51.9512C27.4717 51.9182 25.6482 52.3036 24.7477 52.7C23.9711 53.0524 23.1719 53.9334 23.1719 54.7483C23.1719 55.5081 23.4758 55.7283 24.4663 56.1578C25.5582 56.6313 27.3366 56.6974 29.3289 57.0718C30.4883 57.3031 31.6815 57.5233 32.8971 57.7436C34.1015 57.9858 35.1821 58.2832 36.1388 58.4924C38.4238 58.9989 40.1573 59.6927 41.3391 60.5847C42.5323 61.4656 43.1288 62.5668 43.1288 63.8883C43.1288 64.7142 42.7799 65.5071 42.1046 66.2889C41.4404 67.0598 40.63 67.6875 39.1892 68.2821C37.7597 68.8768 36.8029 69.1961 35.1483 69.5045C33.5049 69.8128 31.6815 69.9339 29.9593 69.8789ZM185 69.4053H168.87V67.5443C169.658 67.5113 171.065 67.4122 172.146 67.291C173.226 67.1369 173.294 66.9607 173.294 66.7735C173.294 66.6964 173.294 66.6083 173.271 66.5092C173.238 66.4321 173.193 66.322 173.068 66.1568L171.031 63.1395C170.772 62.699 170.502 62.3246 170.221 61.8951C168.127 61.8951 163.028 61.8951 160.867 61.8951C160.597 62.3356 160.372 62.721 160.124 63.1285C160.045 63.2496 159.978 63.3597 159.91 63.4808C159.606 63.9764 159.336 64.4169 159.122 64.8023C158.841 65.3088 158.672 65.6723 158.616 65.9035C158.571 66.1238 158.537 66.2779 158.537 66.388C158.537 66.6523 158.897 66.8946 159.617 67.1148C160.338 67.302 161.531 67.4562 163.197 67.5443V69.4053H149.026V67.5443C149.51 67.5223 150.061 67.4893 150.68 67.3901C151.288 67.3351 151.761 67.2139 152.133 67.0818C152.729 66.8726 153.247 66.5973 153.674 66.2889C154.08 65.9806 154.44 65.5952 154.721 65.1767C156.421 62.6329 158.154 60.1112 159.877 57.5563C161.43 55.1007 164.379 52.1164 158.177 52.0944C158.177 51.4777 158.177 50.4976 158.177 50.2113L170.806 50.2443C173.361 54.0875 175.387 57.1489 176.896 59.4504C178.528 61.9722 179.923 64.0755 181.072 65.7273C181.263 66.0026 181.511 66.2449 181.803 66.4541C182.107 66.6743 182.524 66.8946 183.075 67.0818C183.492 67.236 183.964 67.3351 184.516 67.4012C184.685 67.4342 184.842 67.4562 185 67.4672V69.4053ZM169.062 59.8909L165.763 54.8914C164.694 56.5543 163.613 58.2391 162.544 59.8909C163.917 59.8909 167.902 59.8909 169.062 59.8909ZM146.043 69.4053L136.498 69.4274C134.415 67.4893 132.682 65.9806 131.309 64.8243C130.262 63.9544 129.013 62.9523 127.572 61.8841C127.268 61.8951 124.465 61.8951 124.026 61.8951V65.8264C124.026 66.1458 124.127 66.4211 124.319 66.6413C124.521 66.8726 124.904 67.0598 125.467 67.2139C125.748 67.291 126.187 67.3681 126.784 67.4452C127.38 67.5223 127.898 67.5663 128.326 67.5773V69.4824H111.554V67.5773C111.982 67.5663 112.545 67.5223 113.243 67.4893C113.952 67.4342 114.447 67.3791 114.751 67.291C115.291 67.1479 115.685 66.9607 115.865 66.7514C116.068 66.5202 116.169 66.2559 116.169 65.9035V53.9554C116.169 53.625 116.079 53.3717 115.91 53.1515C115.753 52.9203 115.359 52.7441 114.751 52.5789C114.267 52.4578 113.716 52.3586 113.074 52.2816C112.432 52.1935 111.926 52.1494 111.554 52.0944V50.3104H129.192C133.143 50.3104 136.126 50.6848 138.175 51.4336C140.223 52.1935 143.094 53.6471 143.038 56.1798C143.004 57.8317 141.979 58.4593 141.135 59.032C139.92 59.8689 139.255 60.0231 137.061 60.882C137.049 61.9612 137.038 60.9921 137.094 61.9061C138.423 62.9413 139.312 63.9544 140.764 65.0556C141.225 65.3859 141.844 65.8264 142.632 66.333C143.42 66.8505 144.118 67.1699 144.726 67.291C145.063 67.3351 145.503 67.4893 146.02 67.5443C146.02 67.9848 146.043 68.7226 146.043 69.4053ZM134.989 56.2129C134.989 55.0346 134.505 54.0435 133.56 53.3608C132.603 52.656 130.903 52.3036 128.483 52.3036H124.037V59.8909H127.56C129.981 59.8909 131.827 59.5606 133.098 58.8888C134.359 58.184 134.989 57.4352 134.989 56.2129ZM109.9 56.1688C109.9 57.248 109.562 58.0959 108.797 58.8228C108.009 59.5716 106.906 60.1222 105.758 60.6067C104.452 61.1463 103.09 61.4436 101.401 61.6088C99.6903 61.774 97.7769 61.8951 95.6497 61.8951H93.0831V65.7493C93.0831 66.0797 93.1844 66.355 93.3759 66.5863C93.6009 66.8726 94.0737 67.1148 94.6253 67.291C95.0756 67.3901 95.6044 67.4893 96.0209 67.4893L97.6644 67.5553V69.3723L80.6003 69.4163V67.5553C81.0391 67.5223 81.6019 67.4893 82.3112 67.4452C83.0091 67.3901 83.5156 67.3351 83.7969 67.258C84.3709 67.1148 84.7537 66.9497 84.9337 66.7294C85.1137 66.5202 85.2153 66.2339 85.2153 65.8595V53.9774C85.2153 53.6691 85.1138 53.3938 84.945 53.1625C84.765 52.9313 84.3709 52.7441 83.7969 52.5899C83.3803 52.4798 82.8403 52.3807 82.1422 52.3036C81.4556 52.2155 80.9378 52.1604 80.6003 52.1274V50.2553H97.9569C101.064 50.2553 104.047 50.9271 106.05 51.7089C108.065 52.5018 109.9 54.5611 109.9 56.1688ZM101.435 56.2129C101.435 55.0236 100.963 54.0435 100.006 53.3608C99.0488 52.656 97.3491 52.3036 94.9178 52.3036H93.0831V59.8909H94.0175C96.4263 59.8909 98.2834 59.5606 99.5441 58.8888C100.805 58.184 101.435 57.4352 101.435 56.2129ZM77.5272 52.0944C76.3678 52.1935 75.8503 52.4798 75.4675 52.7331C75.0622 52.9973 74.6344 53.4598 74.4094 53.9884C74.1394 54.5721 74.0603 55.453 74.0603 56.6313V63.0073C74.0603 65.1217 72.8897 66.9607 70.5597 68.2271C68.2297 69.5265 65.9562 70 62.1066 70C57.6378 70 55.2853 69.3833 52.8316 68.15C50.3891 66.9166 49.1622 65.1877 49.1622 62.9963V53.9334C49.1622 53.603 49.0494 53.3497 48.8581 53.1185C48.6556 52.8872 48.2841 52.689 47.7212 52.5128C47.3275 52.3807 46.8659 52.2926 46.3031 52.2155C45.7402 52.1494 45.29 52.0944 44.9298 52.0833V50.3104H61.42V52.0833C60.9359 52.0833 60.4631 52.1274 59.9678 52.1714C59.4837 52.2155 58.9888 52.3036 58.4934 52.3917C57.9306 52.5128 57.5478 52.689 57.3566 52.9313C57.1763 53.1846 57.0638 53.4709 57.0638 53.7902V62.721C57.0638 64.6151 57.6828 66.2889 58.6059 67.0818C59.8441 68.1279 61.2962 68.0949 63.9187 68.0949C66.0912 68.0949 67.0478 67.5773 68.0384 66.8946C69.0628 66.1678 69.2091 64.3728 69.2091 62.5118V56.7635C69.2091 55.6072 69.0291 54.6382 68.8263 54.1756C68.6238 53.6801 68.4325 53.1846 68.1059 52.9313C67.8359 52.722 67.6556 52.5899 67.1831 52.3917C66.6428 52.1935 66.2262 52.1384 65.8322 52.0944V50.3104H77.5272V52.0944Z" fill="#FF0000"/>
</g>
<rect x="0.5" y="0.5" width="199" height="119" stroke="black"/>
<defs>
<clipPath id="clip0_662_566">
<rect width="170" height="20" fill="white" transform="translate(15 50)"/>
</clipPath>
</defs>
</svg>
