<?xml version="1.0" encoding="utf-8"?>
<!-- Generator: Adobe Illustrator 24.0.1, SVG Export Plug-In . SVG Version: 6.00 Build 0)  -->
<svg version="1.1"
	 id="svg25166" inkscape:version="0.91 r13725" sodipodi:docname="Fujifilm_logo.svg" xmlns:cc="http://creativecommons.org/ns#" xmlns:dc="http://purl.org/dc/elements/1.1/" xmlns:inkscape="http://www.inkscape.org/namespaces/inkscape" xmlns:rdf="http://www.w3.org/1999/02/22-rdf-syntax-ns#" xmlns:sodipodi="http://sodipodi.sourceforge.net/DTD/sodipodi-0.dtd" xmlns:svg="http://www.w3.org/2000/svg"
	 xmlns="http://www.w3.org/2000/svg" xmlns:xlink="http://www.w3.org/1999/xlink" x="0px" y="0px" viewBox="0 0 200 120"
	 style="enable-background:new 0 0 200 120;" xml:space="preserve">
<style type="text/css">
	.st0{fill:#ED1A3A;}
</style>
<sodipodi:namedview  bordercolor="#666666" borderopacity="1" gridtolerance="10" guidetolerance="10" id="namedview4952" inkscape:current-layer="svg25166" inkscape:cx="409.70319" inkscape:cy="-19.745299" inkscape:pageopacity="0" inkscape:pageshadow="2" inkscape:window-height="705" inkscape:window-maximized="1" inkscape:window-width="1366" inkscape:window-x="-8" inkscape:window-y="-8" inkscape:zoom="0.5" objecttolerance="10" pagecolor="#ffffff" showgrid="false">
	</sodipodi:namedview>
<g id="g5512" transform="matrix(2.0661355,0,0,2.0661355,0,-4.1323115)">
	<g id="g24728" transform="matrix(4.3916816,0,0,-4.3916816,379.3486,2.01011)">
		<path id="path24730" inkscape:connector-curvature="0" d="M-70.4-5v-2.5c0-0.2,0.1-0.2,0.2-0.3c0,0,0.8,0,0.8,0V-8
			c0,0,0-0.1-0.1-0.1h-1.3c-0.4,0-0.5,0.2-0.5,0.4v2.5c0,0.1,0,0.2,0.2,0.2L-70.4-5"/>
	</g>
	<g id="g24732" transform="matrix(4.3916816,0,0,-4.3916816,339.47168,2.01011)">
		<path id="path24734" inkscape:connector-curvature="0" d="M-62.8-5l0-2.9c0-0.1-0.1-0.2-0.2-0.2h-0.6v2.9c0,0.1,0,0.2,0.2,0.2
			L-62.8-5"/>
	</g>
	<g id="g24736" transform="matrix(4.3916816,0,0,-4.3916816,0,13.05386)">
		<path id="path24738" inkscape:connector-curvature="0" d="M1.5-2.9c0,0.2,0,0.4,0.4,0.4h1.7v-0.3c0,0,0,0,0,0l-1,0
			C2.4-2.8,2.3-2.9,2.3-3v-0.8h1.2l0-0.3c0,0,0,0,0,0H2.3v-1.2c0-0.1-0.1-0.2-0.2-0.2H1.5V-2.9"/>
	</g>
	<g id="g24740" transform="matrix(4.3916816,0,0,-4.3916816,86.0146,2.00221)">
		<path id="path24742" inkscape:connector-curvature="0" d="M-14.8-5v-2.3c0-0.2,0-0.3,0.2-0.4c0.2-0.1,0.5-0.1,0.7,0
			c0.1,0.1,0.2,0.2,0.2,0.4v2.2c0,0.1,0,0.2,0.2,0.2h0.6l0-2.3c0-0.5-0.3-0.7-0.6-0.8c-0.4-0.1-1-0.1-1.4,0
			c-0.4,0.1-0.6,0.4-0.6,0.8l0,2.1c0,0.1,0,0.2,0.2,0.2H-14.8"/>
	</g>
	<g id="g24744" transform="matrix(4.3916816,0,0,-4.3916816,474.26296,2.01451)">
		<path id="path24746" inkscape:connector-curvature="0" d="M-88.4-5c-0.2,0-0.2-0.1-0.3-0.2l-0.5-2.1l0,0L-89.7-5h-0.7
			c-0.1,0-0.2-0.1-0.2-0.2v-2.9h0.3c0,0,0.1,0,0.1,0.1v2.4h0l0.6-2.5h0.4c0.2,0,0.2,0.1,0.3,0.2l0.6,2.3h0l0-2.5l0.6,0
			c0.1,0,0.2,0.1,0.2,0.2V-5L-88.4-5"/>
	</g>
	<g id="g24748" transform="matrix(4.3916816,0,0,-4.3916816,231.57952,45.55406)">
		<path id="path24750" inkscape:connector-curvature="0" d="M-42.4,3.2h-0.8V1.8h0.6c0.1,0,0.2,0,0.2,0.2C-42.4,2-42.4,2.6-42.4,3.2
			"/>
	</g>
	<g id="g24752" transform="matrix(4.3916816,0,0,-4.3916816,230.38322,29.92143)">
		<path id="path24754" inkscape:connector-curvature="0" class="st0" d="M-42.2,0.3C-42.1,0.3-42.1,0.3-42.2,0.3l0,1.1h-0.6
			c-0.1,0-0.2-0.1-0.2-0.2v-1.5L-42.2,0.3"/>
	</g>
	<g id="g24756" transform="matrix(4.3916816,0,0,-4.3916816,160.01264,75.79827)">
		<path id="path24758" inkscape:connector-curvature="0" d="M-28.8,9c0.3,0,0.5,0.3,0.5,0.5v2.1c0,0.1,0.1,0.2,0.2,0.2h0.6v-2
			c0-0.5-0.1-0.7-0.4-0.9c-0.2-0.1-0.4-0.2-1-0.2c-0.3,0-0.5,0-0.5,0c0,0,0,0,0,0v0.3C-29.4,8.9-29,8.9-28.8,9"/>
	</g>
	<g id="g24760" transform="matrix(4.3916816,0,0,-4.3916816,262.67744,2.00221)">
		<path id="path24762" inkscape:connector-curvature="0" d="M-48.3-5c-0.4,0-0.4-0.2-0.4-0.4v-0.8c0,0,0,0,0,0l-0.5-0.4h0.6v-1.4
			h0.6c0.1,0,0.2,0,0.2,0.2v1.2h1.1c0,0,0,0,0,0v0.3h-1.2v0.8c0,0.1,0.1,0.2,0.2,0.2l1,0c0,0,0,0,0,0V-5H-48.3"/>
	</g>
</g>
</svg>
