<?xml version="1.0" encoding="utf-8"?>
<!-- Generator: Adobe Illustrator 24.0.1, SVG Export Plug-In . SVG Version: 6.00 Build 0)  -->
<svg version="1.1" id="Слой_1" xmlns="http://www.w3.org/2000/svg" xmlns:xlink="http://www.w3.org/1999/xlink" x="0px" y="0px"
	 viewBox="0 0 200 120" style="enable-background:new 0 0 200 120;" xml:space="preserve">
<style type="text/css">
	.st0{fill:#3771C8;}
</style>
<g>
	<path class="st0" d="M138.5,29.7H124l-9.9,14.9V18.5h-11.2v47.2h11.2V49l11.5,16.8h14.5l-16-18.9L138.5,29.7z M77.1,43.6
		c0.3-3,2.2-7.3,6.9-7.3c5.2,0,6.3,4.6,6.3,7.3H77.1z M84.7,28.9c-12.5,0-18.2,10.1-18.2,19.2c0,11.3,7,18.4,19.2,18.4
		c4.9,0,9.4-0.7,13-2.2l-1.5-7.6c-3,1-6.1,1.5-9.9,1.5c-5.2,0-9.8-2.2-10.2-6.9h23.2c0.1-0.8,0.4-2.5,0.4-4.4
		C100.7,37.9,96.3,28.9,84.7,28.9 M46.1,58.5c-4.5,0-7-4-7.3-9.6v-2.4c0.3-4.9,2.4-9.7,7.3-9.7c5.1,0,7.1,5.5,7.1,10.8
		C53.2,54.2,50.4,58.5,46.1,58.5L46.1,58.5z M46.4,28.9c-2.8,0-5.3,0.4-7.6,1.3V18.5H27.1v30.4c0.4,11.1,8.4,17.6,18.6,17.6
		c9.7,0,19-6,19-19.2C64.8,36.5,57.4,28.9,46.4,28.9"/>
	<path class="st0" d="M154.1,58.5c-4.8,0-7.4-4.6-7.4-10.8c0-5.3,2-10.8,7.4-10.8c5.1,0,7.1,5.5,7.1,10.8
		C161.3,54.2,158.5,58.5,154.1,58.5z M154.4,28.9c-11.6,0-19.2,7.4-19.2,19.1c0,11.6,8.1,18.6,18.6,18.6c9.7,0,19-6,19-19.2
		C172.9,36.5,165.5,28.9,154.4,28.9 M27.1,90.2v11.3l141.6-19.9V70.3L27.1,90.2z"/>
</g>
</svg>
