<svg xmlns="http://www.w3.org/2000/svg" viewBox="0 0 150 33"  width="200px" height="120px">
		<path fill="currentColor" fill-rule="evenodd" d="M2043.7,399.961h23.37V366.977H2043.7v32.984Zm4.62-26.857h6.08v16.183h8.2v4.645h-14.28V373.1Zm-29.97,26.857h23.38V366.977h-23.38v32.984Zm3.55-26.857h16.25v4.645h-5.16v16.183h-5.93V377.749h-5.16V373.1Zm-28.91,26.857h23.37V366.977h-23.37v32.984Zm8.71-26.857h5.77a58.434,58.434,0,0,1,7.44,20.828h-6.07a26.462,26.462,0,0,1-.61-3.6h-5.92c0.3-1.35.61-2.7,1.06-4.345h3.65a38.747,38.747,0,0,0-2.28-6.144,44.908,44.908,0,0,0-2.58,6.743,63.389,63.389,0,0,0-1.82,7.342h-5.93C1995.42,386.984,1997.91,378.98,2001.7,373.1Zm67.31,26.857h23.38V366.977h-23.38v32.984Zm8.77-26.857h5.77c3.99,6.556,5.79,13.482,7.45,20.828h-6.08a24.048,24.048,0,0,1-.61-3.6h-5.92c0.15-1.35.61-2.7,0.91-4.345h3.8a28.988,28.988,0,0,0-2.43-6.144,64.347,64.347,0,0,0-4.25,14.085h-6.08C2071.88,386.846,2073.82,379.25,2077.78,373.1Zm41.83-6.127v32.984h23.37V366.977h-23.37Zm19.68,10.772h-5.02v16.183h-6.07V377.749h-5.01V373.1h16.1v4.645Zm-44.94,22.212h23.37V366.977h-23.37v32.984Zm1.5-26.857h6.08a27.1,27.1,0,0,1,8.2,5.844V373.1h6.07v20.828h-6.07v-6.743a27.409,27.409,0,0,0-8.2-7.192v13.935h-6.08V373.1Z" transform="translate(-1993 -366.969)"></path>
	</svg>