<?xml version="1.0" encoding="utf-8"?>
<!-- Generator: Adobe Illustrator 24.0.1, SVG Export Plug-In . SVG Version: 6.00 Build 0)  -->
<svg version="1.1" id="Слой_1" xmlns="http://www.w3.org/2000/svg" xmlns:xlink="http://www.w3.org/1999/xlink" x="0px" y="0px"
	 viewBox="0 0 200 120" style="enable-background:new 0 0 200 120;" xml:space="preserve">
<style type="text/css">
	.st0{display:none;fill-rule:evenodd;clip-rule:evenodd;fill:#FFFFFF;}
	.st1{fill-rule:evenodd;clip-rule:evenodd;fill:#516AAF;}
</style>
<g>
	<path class="st0" d="M18.6-21.4h162.8v162.8H18.6V-21.4z"/>
	<path class="st1" d="M29.7,42.4H41c2.5,0,5.6,2.4,7,3.7l19.8,22.1V42.4h6.7v35.2H62.7c-2,0-4.1-0.5-6.5-2.9L36.4,52.6v25h-6.7V42.4
		L29.7,42.4z M170.3,77.9c-8.1,1.1-16.3,1.2-24.5,0.5c-4.8-0.4-9.5-1.5-13.8-3.7c-5.4-2.8-7.1-9.1-7.1-15c0.1-5.3,1.7-10.9,6.4-14
		c3.2-2,6.5-2.6,9.9-3.3c9.7-1.7,19.3-1.3,28.7-0.3v5c-11.1-2.1-22.8-1.6-26.7,3.4c-2.5,3.2-2.8,6.4-2.8,9c0,4.8,1.6,11.9,11.2,13.4
		c6.4,0.9,12.6,0.3,18.7-0.9L170.3,77.9L170.3,77.9z M101.3,72.3c0.9,0.1,16.1,0.1,21.4,0v5.3c-10.6,0.4-20.6,0.7-31.4,0.1
		c-9-0.4-10.6-4.9-10.7-9.3V42.4h41.6v5H95.3v9h24.5v4.9H95.3c0,2.6,0,5.6,0.1,6.1C95.6,70.8,97.2,72.2,101.3,72.3L101.3,72.3z"/>
</g>
</svg>
