<?xml version="1.0" encoding="utf-8"?>
<!-- Generator: Adobe Illustrator 24.0.1, SVG Export Plug-In . SVG Version: 6.00 Build 0)  -->
<svg version="1.1" id="svg2816" xmlns="http://www.w3.org/2000/svg" xmlns:xlink="http://www.w3.org/1999/xlink" x="0px" y="0px"
	 viewBox="0 0 200 120" style="enable-background:new 0 0 200 120;" xml:space="preserve">
<style type="text/css">
	.st0{fill:#C20E30;stroke:#FFFFFF;stroke-width:0.5;stroke-miterlimit:15.456;}
</style>
<g id="g2826">
	<g id="g2828">
		<g id="g2830">
			<path id="path2832" class="st0" d="M19.2,77.2c-3.2,0-5.8,2.6-5.8,5.8v9.2c0,3.2,2.6,5.8,5.8,5.8h15c3.4,0,3.4-5.2,0-5.2h-15
				c-0.3,0-0.5-0.2-0.5-0.5v-9.2c0-0.3,0.2-0.5,0.5-0.5h15c3.4,0,3.4-5.2,0-5.2H19.2z M44.3,92.1v-9.2c0-0.3,0.2-0.5,0.5-0.5h13.4
				c0.3,0,0.5,0.2,0.5,0.5v9.2c0,0.3-0.2,0.5-0.5,0.5H44.9C44.5,92.7,44.3,92.4,44.3,92.1z M44.9,77.2c-3.2,0-5.8,2.6-5.8,5.8v9.2
				c0,3.2,2.6,5.8,5.8,5.8h13.4c3.2,0,5.8-2.6,5.8-5.8v-9.2c0-3.2-2.6-5.8-5.8-5.8L44.9,77.2L44.9,77.2z M93.2,77.2h-6.1
				c-1.6,0-2.9,0.7-3.9,1.8c-0.9-1.1-2.3-1.8-3.9-1.8h-6.1c-3.2,0-5.8,2.6-5.8,5.8v12.4c0,3.4,5.2,3.4,5.2,0V82.9
				c0-0.3,0.2-0.5,0.5-0.5h6.7c0.3,0,0.5,0.2,0.5,0.5v12.4c0,3.4,5.2,3.4,5.2,0V82.9c0-0.3,0.2-0.5,0.5-0.5h6.7
				c0.3,0,0.5,0.2,0.5,0.5v12.4c0,3.4,5.2,3.4,5.2,0V82.9C99,79.8,96.4,77.2,93.2,77.2z M135.8,87.6v-4.7c0-0.3,0.2-0.5,0.5-0.5
				h13.4c0.3,0,0.5,0.2,0.5,0.5v4.7H135.8z M149.8,77.2h-13.4c-3.2,0-5.8,2.6-5.8,5.8v12.4c0,3.4,5.2,3.4,5.2,0v-2.4h14.5v2.4
				c0,3.4,5.2,3.4,5.2,0V82.9C155.6,79.8,153,77.2,149.8,77.2L149.8,77.2z M107.8,82.9c0-0.3,0.2-0.5,0.5-0.5h13.4
				c0.3,0,0.5,0.2,0.5,0.5v4.2c0,0.3-0.2,0.5-0.5,0.5h-14V82.9z M108.3,77.2c-3.2,0-5.8,2.6-5.8,5.8v12.4c0,3.4,5.2,3.4,5.2,0v-2.4
				h14c3.2,0,5.8-2.6,5.8-5.8v-4.2c0-3.2-2.6-5.8-5.8-5.8H108.3z M181.7,101.2c2.1,2.7,6.2-0.5,4.1-3.2l-2.9-3.8
				c-0.7-0.9-1.8-1.5-3.1-1.5h-14.9c-0.3,0-0.5-0.2-0.5-0.5v-9.2c0-0.3,0.2-0.5,0.5-0.5h13.4c0.3,0,0.5,0.2,0.5,0.5V87
				c0,3.4,5.2,3.4,5.2,0v-4.1c0-3.2-2.6-5.8-5.8-5.8h-13.4c-3.2,0-5.8,2.6-5.8,5.8v9.2c0,3.2,2.6,5.8,5.8,5.8h14
				c0.1,0,0.2,0.1,0.3,0.1L181.7,101.2L181.7,101.2z"/>
			<path id="path2834" class="st0" d="M117.4,64.8c4.1,5.3,12.2-1,8.1-6.3l-5.8-7.4c-1.4-1.8-3.6-3-6.1-3H84.5c-0.6,0-1-0.5-1-1V29
				c0-0.6,0.5-1,1-1h26.4c0.6,0,1,0.5,1,1v8.1c0,6.7,10.2,6.7,10.2,0V29c0-6.2-5.1-11.3-11.3-11.3H84.5c-6.2,0-11.3,5.1-11.3,11.3
				v18.1c0,6.2,5.1,11.3,11.3,11.3H112c0.2,0,0.4,0.1,0.6,0.3L117.4,64.8z"/>
		</g>
	</g>
</g>
</svg>
