<svg width="200" height="120" viewBox="0 0 200 120" fill="none" xmlns="http://www.w3.org/2000/svg">
<g clip-path="url(#clip0_654_542)">
<path d="M168.93 65.8441C163.965 65.8441 159.019 65.8441 153.984 65.8441C153.984 65.1863 153.984 64.5631 153.984 63.8361C157.358 63.8361 160.679 63.8361 164.018 63.8361C164.07 63.7495 164.105 63.663 164.158 63.5764C162.008 61.5685 159.858 59.5778 157.655 57.5352C155.54 59.4566 153.512 61.3088 151.467 63.1437C150.453 64.0611 149.562 65.2902 148.373 65.7402C147.15 66.2076 145.629 65.896 144.231 65.896C142.71 65.896 141.207 65.9133 139.686 65.8614C139.336 65.8441 138.899 65.7575 138.654 65.5498C136.417 63.5764 134.215 61.5685 132.03 59.5778C132.03 59.0238 132.03 58.5045 132.03 57.8641C132.886 57.8641 133.69 57.8987 134.494 57.8467C134.949 57.8294 135.473 57.8121 135.84 57.5871C136.19 57.3448 136.574 56.8601 136.574 56.4619C136.574 56.1157 136.12 55.7522 135.823 55.4233C135.7 55.3021 135.456 55.2502 135.246 55.2502C133.795 55.2329 132.344 55.2502 130.771 55.2502C130.771 58.7815 130.771 62.2609 130.771 65.8095C128.254 65.8095 125.859 65.8095 123.395 65.8095C123.395 61.6204 123.395 57.4659 123.395 53.2076C123.744 53.1903 124.059 53.1384 124.356 53.1384C129.46 53.1384 134.547 53.1211 139.651 53.1557C140.42 53.1557 141.224 53.2942 141.941 53.5538C143.182 54.0039 143.951 54.9559 144.038 56.2888C144.126 57.5871 143.479 58.5738 142.343 59.1969C141.713 59.5432 141.032 59.7509 140.245 60.0798C141.172 60.8934 142.046 61.655 142.989 62.4859C146.363 59.3527 149.667 56.2888 152.953 53.2249C153.74 53.2249 154.491 53.2249 155.365 53.2249C159.875 57.3448 164.455 61.5165 169.035 65.6883C168.982 65.7229 168.947 65.7748 168.93 65.8441Z" fill="#AA2D45"/>
<path d="M96.0909 60.0105C98.2584 61.9147 100.339 63.7322 102.593 65.7229C99.8491 65.7229 97.332 65.7229 94.71 65.7229C92.4551 63.6803 90.1478 61.5858 87.8404 59.5085C87.8404 58.9546 87.8404 58.4526 87.8404 57.8294C88.662 57.8294 89.4486 57.8641 90.2177 57.8121C90.7071 57.7948 91.249 57.7775 91.6511 57.5352C92.0181 57.3101 92.4376 56.8081 92.4202 56.4446C92.4027 56.0811 91.9482 55.683 91.5986 55.3714C91.4238 55.2156 91.1092 55.181 90.847 55.181C89.4486 55.1637 88.0677 55.181 86.5644 55.181C86.5644 58.7469 86.5644 62.2089 86.5644 65.7575C84.0823 65.7575 81.705 65.7575 79.2578 65.7575C79.2578 61.5511 79.2578 57.3794 79.2578 53.1037C79.5725 53.0864 79.8521 53.0345 80.1493 53.0345C85.2709 53.0345 90.3925 52.9999 95.5141 53.0518C96.4056 53.0691 97.367 53.3288 98.1885 53.6923C99.3072 54.177 99.8841 55.1637 99.8841 56.41C99.8841 57.691 99.2024 58.5911 98.1011 59.1796C97.5243 59.5085 96.8775 59.6989 96.0909 60.0105Z" fill="#AA2D45"/>
<path d="M111.439 65.8267C109.831 65.8267 108.24 65.844 106.632 65.8267C103.485 65.7748 101.213 63.8707 100.741 60.7721C100.444 58.7468 100.706 56.7908 102.035 55.1117C103.223 53.623 104.849 53.0517 106.719 53.0344C109.656 53.0171 112.593 53.1037 115.529 53.0171C120.738 52.8613 122.713 56.8427 122.067 60.8067C121.56 63.9053 119.305 65.7748 116.141 65.8094C114.585 65.8613 113.012 65.844 111.439 65.8267ZM108.31 59.3181C108.327 59.3181 108.345 59.3181 108.362 59.3181C108.362 59.8893 108.327 60.4778 108.362 61.0491C108.485 63.1956 109.097 63.7668 111.264 63.7495C111.474 63.7495 111.666 63.7495 111.876 63.7495C113.204 63.7322 114.008 63.1263 114.096 61.828C114.201 60.1663 114.183 58.5045 114.113 56.8427C114.078 55.8214 113.397 55.2501 112.33 55.1982C111.614 55.1636 110.879 55.1636 110.145 55.1982C109.166 55.2501 108.642 55.6829 108.485 56.6523C108.397 57.5351 108.38 58.4352 108.31 59.3181Z" fill="#AA2D45"/>
<path d="M45.1201 63.7322C45.1201 64.4938 45.1201 65.0997 45.1201 65.7575C40.1208 65.7575 35.174 65.7575 30 65.7575C30.2797 65.4459 30.4545 65.2382 30.6468 65.0651C34.8594 61.2222 39.0721 57.3793 43.3022 53.5365C44.0538 52.844 45.8368 52.8094 46.5709 53.5018C50.8011 57.414 55.0137 61.3434 59.2264 65.2728C59.3487 65.3767 59.4361 65.5152 59.6284 65.7575C59.2089 65.7921 58.9467 65.8267 58.667 65.8267C56.2548 65.8267 53.8426 65.8614 51.4129 65.8094C50.9759 65.7921 50.4515 65.5844 50.1193 65.2901C47.2701 62.7455 44.4209 60.1317 41.4668 57.4659C39.2818 59.5085 37.1143 61.5165 34.9468 63.5245C34.9818 63.5937 34.9992 63.663 35.0342 63.7322C38.3554 63.7322 41.6766 63.7322 45.1201 63.7322Z" fill="#AA2D45"/>
<path d="M56.8494 53.1038C59.2791 53.1038 61.7438 53.1038 64.2784 53.1038C64.2958 53.4673 64.3308 53.7615 64.3308 54.0731C64.3308 56.185 64.3308 58.2795 64.3308 60.3914C64.3308 60.7376 64.3308 61.0838 64.3832 61.43C64.6804 63.3687 65.1523 63.7496 67.1276 63.7496C68.7882 63.7496 70.4488 63.7496 72.1093 63.7496C73.4378 63.7496 74.2069 63.2649 74.574 61.9839C74.8362 61.0838 74.9586 60.1144 74.9935 59.1797C75.0634 57.189 75.011 55.2156 75.011 53.1384C76.0074 53.1384 76.9513 53.1384 78.035 53.1384C78.035 53.7962 78.0525 54.4193 78.035 55.0425C77.9651 57.1197 78.07 59.2143 77.7553 61.2396C77.3009 64.0785 75.1508 65.7576 72.2492 65.8095C69.0154 65.8614 65.7816 65.8614 62.5478 65.7922C59.349 65.7229 57.164 63.8534 56.8844 60.6857C56.6571 58.2276 56.8494 55.7003 56.8494 53.1038Z" fill="#AA2D45"/>
</g>
<rect x="0.5" y="0.5" width="199" height="119" stroke="black"/>
<defs>
<clipPath id="clip0_654_542">
<rect width="139" height="13" fill="white" transform="translate(30 53)"/>
</clipPath>
</defs>
</svg>
