<svg width="200" height="120" viewBox="0 0 200 120" fill="none" xmlns="http://www.w3.org/2000/svg">
<path fill-rule="evenodd" clip-rule="evenodd" d="M131.911 22.4345C120.654 24.6002 111.722 28.8308 107.688 33.9074C105.204 37.0334 104.197 39.5216 104.049 42.9021C103.946 45.2768 104.132 46.4103 105.016 48.7684C106.01 51.4221 108.864 54.8771 111.772 56.9471C114.929 59.1936 120.3 61.5758 125.676 63.1134C129.3 64.1499 134.798 65.2003 135.577 65.0049L136.103 64.8728V60.7826C136.103 56.7344 136.099 56.6902 135.643 56.4988C135.39 56.3923 133.757 56.1122 132.014 55.8762C121.579 54.4642 114.554 51.9208 110.796 48.1949C109.006 46.4199 108.423 45.2648 108.435 43.5117C108.445 41.9051 109.016 40.6368 110.385 39.1776C113.969 35.3595 121.368 32.613 132.014 31.1499C133.757 30.9105 135.392 30.6273 135.647 30.5209C136.111 30.3275 136.112 30.3228 136.056 26.184L136.001 22.0407L135.183 22.0016C134.733 21.9801 133.261 22.175 131.911 22.4345ZM72.5316 22.5658C68.4664 23.2862 65.9126 27.3949 64.5967 35.3323C64.1117 38.2577 64.007 46.5639 64.4112 50.0637C65.0169 55.3093 66.3359 59.4299 68.1989 61.8969C71.0231 65.6363 76.7634 65.5968 84.7754 61.7832C92.4788 58.1161 98.4445 52.7725 100.579 47.6268C101.357 45.751 101.562 42.9557 101.064 41.0119C100.117 37.3131 96.7738 33.1253 91.9343 29.5735C85.2909 24.698 77.1305 21.7507 72.5316 22.5658ZM73.8372 30.9411C72.5161 31.2078 71.9787 31.4789 71.172 32.2856C69.0895 34.3681 68.0564 38.8603 68.2848 44.8409C68.465 49.5643 69.2631 52.5512 70.8593 54.4775C73.3144 57.4405 79.4138 56.7121 88.3539 52.3889C92.4796 50.3937 95.1267 48.2345 96.2536 45.9453C96.8331 44.7685 96.8871 44.5012 96.798 43.2571C96.68 41.6141 96.2205 40.6279 94.8766 39.1333C92.5655 36.5627 87.9768 34.034 82.0167 32.0466C78.5832 30.9017 75.8582 30.5334 73.8372 30.9411ZM127.979 39.859C124.419 41.6145 125.187 46.8226 129.117 47.5708C131.342 47.9941 133.854 45.8357 133.854 43.5011C133.854 42.7889 133.268 41.3188 132.773 40.7882C131.65 39.5833 129.416 39.1504 127.979 39.859ZM134.693 76.2465C132.969 76.7103 131.625 77.5327 130.05 79.0888C125.515 83.571 125.576 90.8707 130.185 95.3602C132.415 97.5323 134.991 98.4163 139.091 98.4163C142.104 98.4163 143.294 98.194 145.247 97.2674C149.098 95.44 151.46 91.594 151.464 87.1431C151.47 82.0005 148.289 77.6621 143.479 76.2489C142.003 75.8156 136.302 75.8138 134.693 76.2465ZM161.579 76.1516C160.168 76.4825 158.219 77.5836 156.908 78.7913C152.173 83.1489 152.072 90.6722 156.688 95.2426C158.99 97.5214 161.506 98.4105 165.652 98.4097C170.076 98.4087 172.385 97.5697 174.857 95.0649C176.533 93.3659 177.265 92.0962 177.823 89.9127C178.535 87.1276 178.285 84.8255 176.971 82.0899C175.609 79.2502 173.121 77.1476 170.062 76.2489C168.813 75.8821 163.012 75.8154 161.579 76.1516ZM22 87.0673V97.5983H28.9096C36.4962 97.5983 37.2078 97.5143 39.3648 96.3628C42.5713 94.6508 44.6305 91.5604 45.0133 87.8852C45.1701 86.3784 44.7425 84.1942 43.971 82.5637C43.1862 80.9047 41.1272 78.797 39.4095 77.8944C37.0334 76.6458 36.2181 76.5426 28.6969 76.5393L22 76.5362V87.0673ZM54.8572 76.6896C53.5761 78.8952 43.471 97.4472 43.471 97.5938C43.471 97.7226 44.2857 97.8028 45.5965 97.8028H47.7221L52.0754 89.8961C56.3216 82.1843 56.4367 82.0013 56.7492 82.4667C56.9252 82.7291 58.7905 86.0669 60.8943 89.8841C62.998 93.7012 64.8636 97.0446 65.0398 97.3135C65.3443 97.778 65.4691 97.8028 67.5029 97.8028C68.6811 97.8028 69.6453 97.7517 69.6453 97.6889C69.6453 97.6263 68.1139 94.7968 66.2422 91.4009C64.3706 88.0052 61.7722 83.2716 60.4681 80.8816L58.0971 76.5362H56.5218C55.6554 76.5362 54.9063 76.6051 54.8572 76.6896ZM70.6677 78.3547C70.6677 79.6342 70.7434 80.1949 70.9233 80.2462C71.064 80.2863 75.803 80.2931 81.4544 80.2609L91.7298 80.2025V78.3694V76.5362H81.1987H70.6677V78.3547ZM93.1612 76.6103C93.1612 76.7131 100.01 89.2367 103.521 95.5534L104.715 97.7005L106.929 97.7588C108.705 97.8055 109.131 97.7623 109.076 97.5413C109.039 97.3897 106.432 92.6015 103.283 86.901L97.5578 76.5362H95.3596C94.1505 76.5362 93.1612 76.5696 93.1612 76.6103ZM102.223 76.8192C102.427 77.3495 113.373 97.2834 113.605 97.5472C113.849 97.8245 116.205 97.9022 116.606 97.6464C116.735 97.5637 117.71 95.9317 118.772 94.0198C120.528 90.8591 127.523 78.0991 128.105 76.9963L128.347 76.5362H126.119H123.891L121.892 80.1659C120.793 82.1621 118.837 85.7099 117.546 88.0496L115.197 92.3037L111.828 86.2092C109.975 82.8573 108.028 79.3326 107.502 78.3766L106.546 76.6385L104.328 76.5802C102.455 76.5309 102.127 76.5683 102.223 76.8192ZM136.662 79.6111C134.462 79.9812 132.346 81.6388 131.267 83.8362C130.745 84.9001 130.684 85.2334 130.684 87.0673C130.684 88.888 130.749 89.2516 131.272 90.3844C131.962 91.879 133.58 93.5153 135.03 94.1846C135.893 94.5834 136.342 94.6333 139.068 94.6333C141.965 94.6333 142.2 94.603 143.3 94.0873C144.786 93.3908 146.21 91.9674 146.906 90.4814C147.394 89.4399 147.452 89.0786 147.451 87.0673C147.451 84.9983 147.405 84.7304 146.876 83.726C145.683 81.4578 143.843 80.0438 141.536 79.6213C140.168 79.3708 138.116 79.3665 136.662 79.6111ZM162.742 79.7019C159.984 80.4759 157.946 82.7745 157.343 85.7948C156.657 89.2238 158.793 93.1182 162.023 94.3294C163.063 94.7193 163.526 94.7621 166.061 94.7016C168.549 94.6423 169.048 94.5719 169.877 94.1636C172.167 93.035 173.83 90.7462 174.104 88.3443C174.284 86.7642 174.059 84.9568 173.535 83.7734C172.927 82.3964 171.266 80.7703 169.787 80.1017C168.671 79.5974 168.225 79.5191 166.163 79.4643C164.546 79.4213 163.477 79.4956 162.742 79.7019ZM26.2261 80.3534C26.1511 80.4282 26.0897 83.5184 26.0897 87.22V93.9505L30.844 93.883C35.4846 93.8169 35.6257 93.8024 36.7475 93.2765C38.3252 92.5367 39.4558 91.4553 40.1919 89.9826C40.7307 88.9044 40.8125 88.5214 40.8107 87.0857C40.8082 85.0545 40.2645 83.7299 38.8807 82.3852C37.7428 81.2791 36.5388 80.6748 34.9571 80.4157C33.6054 80.1943 26.4363 80.1432 26.2261 80.3534ZM70.6677 87.0673V89.0099H81.1987H91.7298V87.0673V85.1247H81.1987H70.6677V87.0673ZM70.7111 95.8091L70.77 97.7005L80.7898 97.7572C86.3007 97.7885 91.0165 97.7635 91.2697 97.7022C91.7044 97.5967 91.7298 97.4891 91.7298 95.754V93.9176H81.191H70.6524L70.7111 95.8091Z" fill="#EE3121"/>
<rect x="0.5" y="0.5" width="199" height="119" stroke="black"/>
</svg>
