<?xml version="1.0" encoding="utf-8"?>
<!-- Generator: Adobe Illustrator 24.0.1, SVG Export Plug-In . SVG Version: 6.00 Build 0)  -->
<svg version="1.1" id="Слой_1" xmlns="http://www.w3.org/2000/svg" xmlns:xlink="http://www.w3.org/1999/xlink" x="0px" y="0px"
	 viewBox="0 0 200 120" style="enable-background:new 0 0 200 120;" xml:space="preserve">
<style type="text/css">
	.st0{display:none;fill-rule:evenodd;clip-rule:evenodd;fill:#FFFFFF;}
	.st1{fill-rule:evenodd;clip-rule:evenodd;}
</style>
<g>
	<path class="st0" d="M15.7-24.3h168.6v168.6H15.7V-24.3z"/>
	<path class="st1" d="M148,37.8h6v5.8h-6L148,37.8L148,37.8z M145.3,81.3v-4.8c2.5,0,2.7-0.9,2.7-3.2V46.7h6.2v28.1
		c0,1.1-0.1,2.2-0.3,3.2c-0.5,2.1-3.3,3.3-5.2,3.4C148.3,81.3,145.3,81.3,145.3,81.3L145.3,81.3z M135.7,56.9c0-2.6-1.7-5.4-4.6-5.4
		c-3.8,0-5.2,2.9-5.2,6.5v13.6l-6.3,0V47.2h6v2.9c2.3-3.1,3.5-3.8,7.7-3.8c2,0,3.7,0.7,5.4,1.7c3.1,1.9,2.9,6.1,2.9,9.2v14.3h-6
		V56.9L135.7,56.9z M108.5,56.8c-0.1-1.4-0.5-2.7-1.2-3.6c-0.7-0.9-1.9-1.5-3.7-1.7c-1.7,0.2-2.8,0.7-3.6,1.7
		c-0.7,0.9-1.2,2.2-1.4,3.6L108.5,56.8L108.5,56.8z M175.3,56.8c-0.1-1.4-0.5-2.7-1.2-3.6c-0.7-0.9-1.9-1.5-3.7-1.7
		c-1.6,0.2-2.8,0.7-3.6,1.7c-0.7,0.9-1.2,2.2-1.4,3.6L175.3,56.8L175.3,56.8z M114.7,64.5c-2.4,7.4-6.4,7.8-11.3,7.9
		c-3.7,0-7-1.6-8.7-4C92.9,66,92,63,91.9,59.5v-0.2v-0.2c0-2.1,0.3-4.1,1-6.1c0.7-1.9,1.9-3.6,3.6-4.9c0.8-0.7,1.7-1.1,2.8-1.4
		c1-0.3,2-0.4,3.1-0.4h1.8c0.6,0,1.2,0,1.8,0.1c0.6,0.1,1.2,0.2,1.8,0.4c1.6,0.4,3,1.3,4.2,2.6c1.2,1.3,2.1,2.8,2.5,4.5
		c0.2,0.8,0.3,1.5,0.4,2.3c0.1,0.8,0.1,1.5,0.1,2.3v0.9c0,0.3,0,1.3,0,1.6H98.5c0,3.5,2,6.3,4.9,6.4c2.8,0.1,4.2-0.9,5.2-2.9
		L114.7,64.5L114.7,64.5L114.7,64.5z M181.5,64.5c-2.4,7.4-6.4,7.8-11.3,7.9c-3.7,0-7-1.6-8.8-4c-1.8-2.4-2.7-5.4-2.8-8.9v-0.2v-0.2
		c0-2.1,0.3-4.1,1-6.1c0.7-1.9,1.9-3.6,3.6-4.9c0.9-0.7,1.8-1.1,2.8-1.4c1-0.3,2-0.4,3.1-0.4h1.8c0.6,0,1.2,0,1.8,0.1
		c0.6,0.1,1.2,0.2,1.8,0.4c1.6,0.4,3,1.3,4.2,2.6c1.2,1.3,2,2.8,2.5,4.5c0.2,0.8,0.3,1.5,0.4,2.3c0.1,0.8,0.1,1.5,0.1,2.3v0.9
		c0,0.3,0,1.3,0,1.6h-16.4c0,3.5,2,6.3,5,6.4c2.8,0.1,4.2-0.9,5.2-2.9L181.5,64.5L181.5,64.5L181.5,64.5z M76.1,46.9h6.1v3.9
		c1.2-1.2,2.4-4.8,8.1-4.6v6.5c-1.5,0-4.4,0-6.1,1.5c-1.2,1.1-1.8,2.8-1.9,5.1l0,12.3h-6.2V46.9z M52.8,59.4c0,2,0.5,3.7,1.4,5.2
		c0.9,1.5,2.6,2.4,4.9,2.6c2.3-0.2,3.9-1.1,4.8-2.6c0.9-1.5,1.4-3.2,1.4-5.2v-0.3v-0.4c-0.1-1.6-0.5-3.1-1.3-4.4
		c-0.8-1.4-2.2-2.2-4.2-2.6h-0.3c-0.1,0-0.2,0-0.2-0.1c-0.1,0-0.2,0-0.3,0h-0.2c-2.1,0.2-3.6,1-4.6,2.5
		C53.3,55.7,52.8,57.4,52.8,59.4L52.8,59.4z M46.8,59.6c0-3.9,1-7,2.9-9.3c2-2.4,4.7-3.5,8.2-3.5h1.8c0.5,0,0.9,0,1.4,0
		c0.5,0,1,0.1,1.4,0.2c3,0.5,5.2,2,6.6,4.4c1.4,2.4,2.1,5.1,2.1,7.9v0.3c0,3.6-0.9,6.7-2.8,9.1c-1.9,2.4-4.7,3.6-8.6,3.6l-1.8,0
		c-3.8,0-6.7-1.3-8.5-3.7C47.8,66.3,46.8,63.3,46.8,59.6L46.8,59.6z M25.2,61.2c0.2,1.3,0.7,2.6,1.4,3.7c0.7,1.1,1.7,1.8,3,2
		c0.4,0.1,0.8,0.1,1.3,0.1c1.4-0.1,2.5-0.9,3.3-2c0.7-1.1,1.2-2.5,1.3-4c0.1-1.2,0.1-2.4-0.1-3.6c-0.2-1.2-0.6-2.3-1.1-3.3
		c-0.6-1.1-1.5-1.7-2.7-2.1c-0.7-0.2-1.2-0.3-2-0.1c-1.4,0.3-2.5,1.1-3.2,2.3c-0.7,1.1-1.1,2.4-1.2,3.9C25,59.1,25,60.2,25.2,61.2
		L25.2,61.2z M36.3,70.1c-2.4,1.9-5.7,2-8.7,1.8c-3-0.2-5.3-1.5-6.9-3.9c-1.7-2.6-2.6-5.5-2.6-8.7c0-3.2,0.9-6.1,2.6-8.7
		c1.7-2.5,4.3-3.8,7.8-3.8c5.5,0,5.9,1.4,7.4,3.9v-3.2h6L42,68.8c0,1.9,0.3,7.1-1.6,9.7c-0.9,1.3-2.1,2.2-3.6,2.8
		c-1.4,0.5-2.9,0.8-4.5,0.9c-0.2,0-0.4,0-0.6,0h-0.6l-1.8,0c-0.1,0-0.2,0-0.3,0h-0.8c-2.3,0-4-0.6-5.8-1.6c-1.9-1-2.8-3.2-2.9-5.8
		l6.7,0c0.3,2.7,1.8,3,4.2,3C35.9,77.9,36.3,74.1,36.3,70.1z"/>
</g>
</svg>
