<svg width="200" height="120" viewBox="0 0 200 120" fill="none" xmlns="http://www.w3.org/2000/svg">
<g clip-path="url(#clip0_662_636)">
<path d="M65.2046 72.5306V69.7702C65.2238 69.6387 65.2641 69.5114 65.324 69.3929H65.1862C65.0917 69.5958 64.9843 69.7925 64.8647 69.9818C64.0637 70.9936 63.0309 71.7971 61.8542 72.324C60.6772 72.851 59.3909 73.0861 58.1041 73.0092C56.4868 73.0362 54.8806 72.7383 53.3803 72.1327C51.8801 71.5273 50.5163 70.6265 49.3695 69.4838C48.2228 68.3411 47.3164 66.9796 46.7042 65.48C46.0918 63.9802 45.7858 62.3727 45.8045 60.7525V48.8733H51.1598V60.136C51.0996 61.0982 51.2368 62.0624 51.5631 62.9694C51.8892 63.8762 52.3973 64.7066 53.0561 65.4093C53.7151 66.1119 54.5107 66.6718 55.3938 67.0546C56.277 67.4373 57.229 67.6349 58.1913 67.6349C59.1537 67.6349 60.1057 67.4373 60.9889 67.0546C61.8721 66.6718 62.6676 66.1119 63.3265 65.4093C63.9854 64.7066 64.4936 63.8762 64.8197 62.9694C65.1459 62.0624 65.2831 61.0982 65.223 60.136V48.8733H70.615V72.5306H65.2046ZM135.503 60.2279C135.5 57.6982 136.248 55.2249 137.651 53.1216C139.055 51.0184 141.05 49.3798 143.384 48.4139C145.717 47.448 148.285 47.198 150.761 47.6959C153.237 48.1937 155.51 49.417 157.291 51.2102L153.497 55.0473C152.468 54.02 151.158 53.3209 149.734 53.0386C148.309 52.7564 146.833 52.9034 145.492 53.4612C144.15 54.0189 143.003 54.9625 142.197 56.1725C141.39 57.3827 140.959 58.805 140.959 60.2601C140.959 61.7151 141.39 63.1376 142.197 64.3476C143.003 65.5578 144.15 66.5012 145.492 67.059C146.833 67.6167 148.309 67.7637 149.734 67.4814C151.158 67.1991 152.468 66.5002 153.497 65.4728L157.3 69.2638C155.519 71.058 153.247 72.2823 150.772 72.7819C148.296 73.2813 145.727 73.0336 143.392 72.07C141.058 71.1062 139.059 69.47 137.654 67.3685C136.247 65.2669 135.496 62.7945 135.493 60.2647M30.0974 39H41.0559V44.567H29.8678C24.3564 44.889 21.5457 46.8581 18.7256 49.2965V42.7358C21.4813 40.7023 25.0453 39.3221 30.0974 39Z" fill="#164194"/>
<path fill-rule="evenodd" clip-rule="evenodd" d="M113.751 60.2279C113.76 61.6818 114.199 63.1005 115.011 64.3051C115.824 65.5095 116.975 66.4459 118.319 66.9959C119.662 67.5461 121.138 67.6853 122.561 67.3961C123.983 67.1069 125.288 66.4022 126.311 65.3709C127.334 64.3396 128.03 63.0279 128.309 61.6011C128.59 60.1745 128.441 58.6968 127.884 57.3543C127.327 56.0119 126.385 54.865 125.177 54.0581C123.97 53.2512 122.551 52.8206 121.099 52.8206C120.13 52.8206 119.171 53.0125 118.276 53.3853C117.382 53.7582 116.57 54.3045 115.887 54.9929C115.204 55.6814 114.663 56.4983 114.297 57.3968C113.93 58.2951 113.745 59.2574 113.751 60.2279ZM106.182 57.6054H108.671C109.337 54.5221 111.117 51.794 113.669 49.9465C116.222 48.099 119.366 47.2623 122.498 47.5975C125.629 47.9326 128.525 49.416 130.631 51.7621C132.736 54.1084 133.9 57.1515 133.9 60.3061C133.9 63.4607 132.736 66.5038 130.631 68.8501C128.525 71.1962 125.629 72.6797 122.498 73.0149C119.366 73.3499 116.222 72.5132 113.669 70.6657C111.117 68.8182 109.337 66.0901 108.671 63.0068H106.182V72.5304H100.762V48.8731H106.182V57.6054ZM18 60.2277C18 57.6983 18.7492 55.2258 20.1528 53.1232C21.5564 51.0205 23.5513 49.3824 25.8847 48.4161C28.2183 47.4499 30.7855 47.1989 33.2614 47.6951C35.7375 48.1912 38.0108 49.4122 39.7936 51.2033C41.5765 52.9945 42.7889 55.2753 43.277 57.757C43.7651 60.2386 43.5072 62.8097 42.5358 65.1444C41.5646 67.4792 39.9235 69.4727 37.8204 70.8727C35.7175 72.2727 33.247 73.0161 30.722 73.0089C27.3445 72.9991 24.1088 71.6483 21.724 69.2523C19.3391 66.8566 18 63.6111 18 60.2277ZM23.4286 60.283C23.4286 58.827 23.8597 57.4038 24.6672 56.1932C25.4746 54.9827 26.6223 54.0391 27.965 53.482C29.3078 52.9248 30.7854 52.7791 32.2108 53.0632C33.6362 53.3472 34.9456 54.0482 35.9733 55.0777C37.001 56.1072 37.7009 57.419 37.9845 58.8469C38.268 60.2748 38.1225 61.7549 37.5663 63.1C37.0102 64.4452 36.0683 65.5948 34.8598 66.4037C33.6513 67.2125 32.2306 67.6443 30.7771 67.6443C29.8091 67.6491 28.8495 67.4623 27.9538 67.0946C27.058 66.7267 26.2434 66.1854 25.5573 65.5013C24.871 64.8172 24.3264 64.0041 23.9548 63.1086C23.5832 62.213 23.3919 61.2528 23.3919 60.283L23.4286 60.283Z" fill="#164194"/>
<path d="M176.617 72.5306V69.8621C176.607 69.7149 176.629 69.5674 176.682 69.4297H176.544C175.203 71.6656 171.592 73.009 169.241 73.009C166.734 73.0077 164.285 72.2673 162.197 70.8799C160.108 69.4927 158.473 67.5199 157.496 65.208C156.52 62.8961 156.245 60.3473 156.705 57.8797C157.166 55.4121 158.342 53.1349 160.085 51.3324C161.829 49.5299 164.065 48.2818 166.513 47.7438C168.961 47.206 171.512 47.4019 173.85 48.3075C176.186 49.2132 178.206 50.7881 179.656 52.836C181.104 54.8839 181.92 57.314 182 59.8231V72.5306H176.617ZM176.571 60.2832C176.571 58.8273 176.139 57.404 175.332 56.1935C174.525 54.9829 173.377 54.0394 172.034 53.4822C170.692 52.9251 169.214 52.7793 167.788 53.0633C166.363 53.3474 165.053 54.0485 164.026 55.078C162.998 56.1075 162.298 57.4191 162.014 58.847C161.732 60.2751 161.878 61.7552 162.433 63.1002C162.989 64.4453 163.932 65.5951 165.14 66.4039C166.349 67.2128 167.769 67.6445 169.222 67.6445C171.171 67.6445 173.04 66.8689 174.419 65.4885C175.797 64.1079 176.571 62.2355 176.571 60.2832ZM78.6246 80.407V69.77C78.6219 69.6206 78.6003 69.4721 78.5604 69.3284H78.6246C80.0759 71.5276 83.5757 72.9077 85.918 72.9077C88.4275 72.9158 90.8836 72.1823 92.9792 70.7989C95.0746 69.4157 96.7163 67.4441 97.6989 65.1309C98.6814 62.8176 98.9611 60.2655 98.5031 57.7939C98.045 55.3222 96.8695 53.0407 95.1235 51.2349C93.3778 49.4291 91.139 48.1791 88.6875 47.6415C86.236 47.1038 83.6807 47.3023 81.3412 48.2121C79.0019 49.1219 76.9822 50.7024 75.535 52.7562C74.0878 54.81 73.2773 57.2458 73.2051 59.7586V80.3979H78.6246V80.407ZM78.6246 60.2188C78.6337 58.7648 79.0723 57.346 79.8853 56.1416C80.6983 54.9372 81.849 54.0008 83.1925 53.4506C84.5361 52.9006 86.0122 52.7613 87.4347 53.0505C88.857 53.3397 90.1622 54.0444 91.1853 55.0758C92.2083 56.1071 92.9038 57.4188 93.1835 58.8454C93.4633 60.2722 93.3153 61.7499 92.7578 63.0923C92.2002 64.4347 91.2582 65.5817 90.0509 66.3886C88.8435 67.1955 87.4245 67.6259 85.9731 67.6259C85.0042 67.6261 84.0449 67.4341 83.1502 67.0614C82.2557 66.6885 81.4435 66.1422 80.7606 65.4536C80.0777 64.7653 79.5373 63.9484 79.1707 63.0499C78.8041 62.1514 78.6186 61.1893 78.6246 60.2188Z" fill="#164194"/>
</g>
<rect x="0.5" y="0.5" width="199" height="119" stroke="black"/>
<defs>
<clipPath id="clip0_662_636">
<rect width="164" height="46.0001" fill="white" transform="translate(18 37)"/>
</clipPath>
</defs>
</svg>
