<?xml version="1.0" encoding="utf-8"?>
<!-- Generator: Adobe Illustrator 24.0.1, SVG Export Plug-In . SVG Version: 6.00 Build 0)  -->
<svg version="1.1" id="Слой_1" xmlns="http://www.w3.org/2000/svg" xmlns:xlink="http://www.w3.org/1999/xlink" x="0px" y="0px"
	 viewBox="0 0 200 120" style="enable-background:new 0 0 200 120;" xml:space="preserve">
<style type="text/css">
	.st0{fill-rule:evenodd;clip-rule:evenodd;fill:#3A3A3A;}
</style>
<g>
	<path class="st0" d="M27.9,42.3c1.5,0,3,0.2,4.4,0.6c1.4,0.4,2.8,1,4,1.8c1.2,0.8,2.3,1.8,3.2,3.1c0.9,1.2,1.6,2.7,2,4.5l0,0h-6.3
		c-0.7-1.5-1.7-2.5-2.9-3.1c-1.2-0.6-2.7-0.9-4.4-0.9c-1.4,0-2.7,0.3-3.7,0.8c-1.1,0.5-2,1.2-2.8,2c-0.8,0.9-1.3,1.9-1.7,3.1
		c-0.4,1.2-0.6,2.4-0.6,3.8c0,1.4,0.2,2.7,0.6,3.9c0.4,1.2,1,2.2,1.8,3c0.8,0.8,1.7,1.5,2.8,2c1.1,0.5,2.3,0.7,3.7,0.7
		c1,0,2-0.1,2.9-0.3c0.9-0.2,1.7-0.5,2.4-0.9c0.7-0.4,1.3-1,1.9-1.8c0.5-0.7,1-1.7,1.3-2.8l0,0h-8.2v-5.4h14.1
		c0.1,1.5,0.1,2.9,0,4.3c-0.1,1.4-0.4,2.8-0.9,4.2c-0.6,1.5-1.3,2.8-2.3,3.9c-0.9,1.1-2,2-3.2,2.7c-1.2,0.7-2.4,1.2-3.8,1.5
		c-1.4,0.3-2.8,0.5-4.2,0.5c-2,0-3.9-0.3-5.8-1c-1.9-0.7-3.5-1.7-4.9-3c-1.4-1.3-2.6-2.9-3.4-4.8c-0.9-1.9-1.3-4.1-1.3-6.6
		c0-2.5,0.4-4.7,1.3-6.6c0.9-1.9,2-3.5,3.4-4.8c1.4-1.3,3.1-2.3,4.9-3C24,42.6,25.9,42.3,27.9,42.3z M113,42.6v20
		c0,0.8,0.2,1.5,0.5,2.1c0.3,0.6,0.7,1.1,1.2,1.5c0.5,0.4,1.1,0.7,1.8,0.9c0.7,0.2,1.4,0.3,2.1,0.3c0.7,0,1.5-0.1,2.1-0.3
		c0.7-0.2,1.3-0.5,1.8-0.9c0.5-0.4,0.9-0.9,1.2-1.5c0.3-0.6,0.5-1.3,0.5-2.1l0,0v-20h6.4v20.1c0,1.7-0.3,3.2-1,4.5
		c-0.6,1.3-1.5,2.4-2.6,3.3c-1.1,0.9-2.4,1.6-3.8,2c-1.4,0.4-3,0.7-4.5,0.7c-1.6,0-3.1-0.2-4.6-0.7c-1.5-0.4-2.7-1.1-3.8-2
		c-1.1-0.9-2-2-2.7-3.3c-0.7-1.3-1-2.8-1-4.5l0,0V42.6H113z M187.1,42.6v5.6h-12v6.1h11.2V60h-11.2v6.9h12.3v5.9h-18.8V42.6H187.1z
		 M90.2,42.4L104,71.9v0.9h-6.7l-2.4-5H82.4l-2.3,5h-6.7v-0.9l13.9-29.5H90.2z M148.5,42.7c2.4,0,4.5,0.4,6.4,1.3
		c1.8,0.8,3.4,1.9,4.6,3.3c1.3,1.4,2.2,3,2.8,4.8c0.6,1.8,0.9,3.7,0.9,5.6c0,1.9-0.3,3.8-0.9,5.6c-0.6,1.8-1.6,3.4-2.8,4.8
		c-1.2,1.4-2.8,2.5-4.6,3.4c-1.9,0.9-4,1.3-6.4,1.3l0,0h-11.2V42.7H148.5z M53.8,42.6c2.1,0,4.3,0,6.4,0c1.7,0,3.2,0.3,4.6,0.9
		c1.3,0.6,2.4,1.3,3.3,2.3c0.9,1,1.6,2.1,2,3.3c0.5,1.2,0.7,2.5,0.7,3.9c0,1.9-0.5,3.7-1.4,5.3c-0.9,1.6-2.3,2.8-4,3.6l0,0l6.8,10
		v0.9h-6.9l-6.2-9.9h-5.4v9.9h-6.5V42.6C49.5,42.6,51.7,42.6,53.8,42.6z M148.4,48.5h-4.7V67h4.7c1.4,0,2.6-0.3,3.7-0.8
		c1.1-0.5,1.9-1.2,2.6-2.1c0.7-0.9,1.2-1.9,1.6-3c0.4-1.1,0.5-2.3,0.5-3.5c0-1.2-0.2-2.4-0.6-3.5c-0.4-1.1-0.9-2.1-1.6-2.9
		c-0.7-0.8-1.6-1.5-2.6-2C151,48.8,149.8,48.5,148.4,48.5L148.4,48.5z M88.7,52.4l-4.2,9.9h8.4L88.7,52.4z M60.2,48.2h-6.5v9.3h6.5
		c1.3,0,2.4-0.5,3.3-1.4c0.8-0.9,1.2-2,1.2-3.3c0-1.3-0.4-2.4-1.2-3.3C62.7,48.7,61.6,48.2,60.2,48.2L60.2,48.2z"/>
</g>
</svg>
