<?xml version="1.0" encoding="utf-8"?>
<!-- Generator: Adobe Illustrator 24.0.1, SVG Export Plug-In . SVG Version: 6.00 Build 0)  -->
<svg version="1.1" id="レイヤー_1" xmlns="http://www.w3.org/2000/svg" xmlns:xlink="http://www.w3.org/1999/xlink" x="0px"
	 y="0px" viewBox="0 0 200 120" style="enable-background:new 0 0 200 120;" xml:space="preserve">
<style type="text/css">
	.st0{fill:#DF0522;}
</style>
<g>
	<g>
		<g>
			<rect x="49" y="49.3" width="4.3" height="26.2"/>
			<polygon points="59.1,61.7 67.5,49.3 62.4,49.3 53.9,61.7 63.5,75.5 69.1,75.5 			"/>
		</g>
		<path d="M176.5,64h8.7v7.4h-8.7V64z M175.3,75.5h14.4V52.4c0-1.7-1.4-3.1-3.1-3.1h-13.8v4h12.6v6.8h-9.9c-1.7,0-3.1,1.4-3.1,3.1
			v9.3C172.2,74.1,173.6,75.5,175.3,75.5z M165.7,49.3c1.7,0,3.1,1.4,3.1,3.1V61c0,1.7-1.4,3.1-3.1,3.1h-1.9l6.4,11.5h-4.8
			l-8.5-15.4h7.4v-7h-8.8v22.2h-4.3V49.3C151.1,49.3,165.7,49.3,165.7,49.3z M131.6,52.4c0-1.7,1.4-3.1,3.1-3.1h12.7v4h-11.5v6.8h11
			v4h-11v7.4h11.5v4h-12.7c-1.7,0-3.1-1.4-3.1-3.1C131.6,72.5,131.6,52.4,131.6,52.4z M112.6,52.4c0-1.7,1.4-3.1,3.1-3.1h12.6v4
			h-11.2v18.3h11.2v4h-12.6c-1.7,0-3.1-1.4-3.1-3.1C112.6,72.5,112.6,52.4,112.6,52.4z M95.1,71.4h9.3V53.1h-9.3V71.4z M90.8,52.4
			c0-1.7,1.4-3.1,3.1-3.1H106c1.7,0,3.1,1.4,3.1,3.1v20.2c0,1.7-1.4,3.1-3.1,3.1H93.7c-1.7,0-3.1-1.4-3.1-3.1V52.4H90.8z M69.8,61.4
			V49.3h4.3v11.2h8.4V49.3h4.3v23.1c0,1.7-1.4,3.1-3.1,3.1h-13v-4h11.6v-7.1h-9.6C71.2,64.3,69.8,63.1,69.8,61.4z"/>
	</g>
	<g>
		<polygon class="st0" points="22.1,50.5 10.3,50.5 10.3,50.5 10.3,62.3 		"/>
		<polygon class="st0" points="22.1,74.1 10.3,74.1 10.3,74.1 10.3,62.3 		"/>
		<polygon class="st0" points="22.1,74.1 33.8,62.3 22.1,50.5 		"/>
		<polygon class="st0" points="33.8,50.5 22.1,50.5 29.5,43.1 41.3,43.1 41.3,54.8 33.8,62.3 		"/>
		<polygon class="st0" points="33.8,74.1 22.1,74.1 29.5,81.5 41.3,81.5 41.3,69.7 33.8,62.3 		"/>
	</g>
</g>
</svg>
