<svg xmlns="http://www.w3.org/2000/svg" viewBox="0 0 2528.68 619.77"><defs><style>.cls-1{fill:#fff;}</style></defs><title>Ресурс 1</title><g id="Слой_2" data-name="Слой 2"><g id="Слой_1-2" data-name="Слой 1"><path class="cls-1" d="M783.45,619.45q-62.46,0-124.91,0c-27.64,0-52.4-8.1-73.73-26C562.07,574.42,551,549.54,548.6,520.4c-.57-7.13-.6-14.32-.6-21.48q-.07-87.21,0-174.44c0-22.57,4.15-44.05,16.17-63.5,20.64-33.38,51-49.82,89.87-50.3,41.29-.52,82.6-.17,123.91-.17,44.13,0,88.27-.16,132.41.12a110.62,110.62,0,0,1,63.8,20c27.79,19.32,41.44,46.5,44.15,79.68.58,7.13.56,14.31.57,21.47,0,58.15-.07,116.3.06,174.45.06,27.93-7.19,53.3-25.15,75.09-20.82,25.25-48.13,37.51-80.39,37.94-43.3.59-86.6.15-129.91.15Zm.91-73.84H891.28c7.33,0,14.66.1,22-.17,17.16-.65,27.22-9.1,30.48-25.79A78,78,0,0,0,945,504.76q.13-90.74,0-181.45a103.12,103.12,0,0,0-.62-11c-1.49-14.23-8.88-22.88-22.81-25.94a81.81,81.81,0,0,0-17.28-1.95q-122.18-.18-244.34-.08c-2.16,0-4.33-.05-6.49.12-15.57,1.22-29.21,7.64-31.16,28.57-.37,4-.8,8-.8,11.94q-.07,91.23,0,182.45c0,1.83,0,3.67.08,5.49,1,15,6.22,29,27.45,31.66a109.51,109.51,0,0,0,13.41,1Q723.4,545.67,784.36,545.61Z"/><path class="cls-1" d="M394.58,452.16q0-63.5-.05-127a80.75,80.75,0,0,0-1.2-14.4c-3.1-16.8-12.83-25.15-30.13-26.25-2.83-.18-5.67-.13-8.5-.13H111.3c-26.59,0-51.26-6.37-72-23.64C15.8,241.21,3.07,215.56,1,185.36c-1.49-21.57-.82-43.3-.91-65q-.16-41.25,0-82.49c.07-17.43,10.8-32,26.53-36.46A37,37,0,0,1,73.81,37c.22,44.16,0,88.33.13,132.5a82.73,82.73,0,0,0,1.46,15.87c3.22,16,13.08,24.2,29.47,25,2.82.15,5.66.11,8.49.11q120.71,0,241.4,0c18.35,0,36.28,2.36,53,10.36,34.15,16.38,52.32,44.62,58.68,81.12a132,132,0,0,1,1.63,22.4q.16,127.74.06,255.49c0,19.81-11.07,34.67-28.71,38.76-22.23,5.17-44.64-12.13-44.73-35-.19-43.83-.06-87.67-.06-131.5Z"/><path class="cls-1" d="M73.87,475.41c0,35.49.07,71,0,106.48,0,17.63-11.49,32.56-27.63,36.52A36.9,36.9,0,0,1,.35,586.46a54.29,54.29,0,0,1-.28-6Q0,475,0,369.52c0-10.25,2.62-19.33,9.78-27,10.85-11.56,26.12-15.31,40.59-9.74a37.06,37.06,0,0,1,23.43,34.11C74,403.09,73.86,439.25,73.87,475.41Z"/><path class="cls-1" d="M2164.45,446.88q0-61.49,0-123c0-22.92,4.05-44.78,16.61-64.36,18.49-28.84,45.43-44.12,79.06-48a205.73,205.73,0,0,1,23.43-1q103.44-.11,206.86,0c16.92,0,31.17,9.82,36.26,24.75a37,37,0,0,1-34.94,49.07q-106.68.14-213.35.06a88.49,88.49,0,0,0-12.93.82c-15.56,2.36-24.89,12.21-26.54,28a132.89,132.89,0,0,0-.63,14q-.06,126.21,0,252.43c0,11.81-3.15,21.95-12,30-11.33,10.4-24.61,12.78-38.49,7.23s-22.52-16.07-23.13-31.53c-.55-13.81-.25-27.65-.26-41.48Q2164.42,495.37,2164.45,446.88Z"/><path class="cls-1" d="M1849.51,619.4c-43,0-85.94.44-128.9-.14-33.17-.44-61.19-13.31-82.76-38.81-16.5-19.51-23.55-42.75-23.66-67.94q-.39-97,.09-193.94a124.16,124.16,0,0,1,4.13-30.05c11.27-43.48,47.29-73.44,92-77.22,5.8-.49,11.64-.75,17.46-.76q121.9-.07,243.83-.06c27.89,0,53.19,7.43,75.09,25.17,22.33,18.09,33.77,42,37,70.08a206.48,206.48,0,0,1,1,22.94q.12,89.47.05,179c0,23-5.18,44.58-18,63.93-20.72,31.27-50.33,47.05-87.42,47.66-43.29.71-86.6.16-129.91.16Zm.76-73.79q51.23,0,102.44,0c9,0,18,.34,27-.24,13.41-.87,27.63-6.38,30.22-26.13a100,100,0,0,0,1-12.92q.1-92.47,0-185a60.78,60.78,0,0,0-1-11.91c-2.44-12.09-8.75-20.85-21.7-23a111.34,111.34,0,0,0-17.79-2q-122.42-.19-244.85-.09c-2.16,0-4.33,0-6.49.12-17.48,1-27.26,9.36-30.45,26.5a81.61,81.61,0,0,0-1.11,14.91q-.12,90.24,0,180.47a112.66,112.66,0,0,0,.58,11.47c1.47,13.88,8.92,22.63,22.5,25.7a83,83,0,0,0,17.78,2C1769,545.69,1809.63,545.61,1850.27,545.61Z"/><path class="cls-1" d="M1281.91,210.51h139.43c24.38,0,47.24,5.33,67.49,19.5,27.33,19.12,41.16,46,44.2,78.72.69,7.45.72,15,.73,22.47q.06,124.49.07,249c0,16.92-7.14,29.39-22.54,36.22-24.37,10.8-51-7-51-33.93q-.13-128.49-.06-257a80.83,80.83,0,0,0-.64-12c-2.77-18.66-13.31-28.1-32.21-29.06-2.83-.14-5.66-.1-8.5-.1q-141.18,0-282.37,0c-24.88,0-41.94-20.75-37.16-45.09,3.13-16,18.64-28.63,35.68-28.72,26.82-.14,53.64,0,80.46,0Z"/><path class="cls-1" d="M1098.42,474.91c0-35.84-.07-71.67,0-107.5,0-17.28,12.13-32.51,28.25-36.09a36.93,36.93,0,0,1,45.3,34.95c.18,4.49.06,9,.06,13.49q0,100.26,0,200.5c0,9.86-2.38,18.72-9,26.28-10.56,12.05-26,16.17-40.76,10.72a37.25,37.25,0,0,1-23.88-34.36C1098.35,546.9,1098.42,510.9,1098.42,474.91Z"/></g></g></svg>