<?xml version="1.0" encoding="utf-8"?>
<!-- Generator: Adobe Illustrator 24.0.1, SVG Export Plug-In . SVG Version: 6.00 Build 0)  -->
<svg version="1.1" id="Слой_1" xmlns="http://www.w3.org/2000/svg" xmlns:xlink="http://www.w3.org/1999/xlink" x="0px" y="0px"
	 viewBox="0 0 200 120" style="enable-background:new 0 0 200 120;" xml:space="preserve">
<style type="text/css">
	.st0{display:none;fill-rule:evenodd;clip-rule:evenodd;fill:#FFFFFF;}
	.st1{fill-rule:evenodd;clip-rule:evenodd;}
	.st2{fill-rule:evenodd;clip-rule:evenodd;fill:#F5D130;}
	.st3{fill-rule:evenodd;clip-rule:evenodd;fill:#E0912F;}
	.st4{fill-rule:evenodd;clip-rule:evenodd;fill:#CF432E;}
	.st5{fill-rule:evenodd;clip-rule:evenodd;fill:#CB1862;}
	.st6{fill-rule:evenodd;clip-rule:evenodd;fill:#909E87;}
	.st7{fill-rule:evenodd;clip-rule:evenodd;fill:#958A6F;}
	.st8{fill-rule:evenodd;clip-rule:evenodd;fill:#918264;}
	.st9{fill-rule:evenodd;clip-rule:evenodd;fill:#90845B;}
	.st10{fill-rule:evenodd;clip-rule:evenodd;fill:#5E86B6;}
	.st11{fill-rule:evenodd;clip-rule:evenodd;fill:#698399;}
	.st12{fill-rule:evenodd;clip-rule:evenodd;fill:#648D73;}
	.st13{fill-rule:evenodd;clip-rule:evenodd;fill:#699751;}
	.st14{fill-rule:evenodd;clip-rule:evenodd;fill:#2860AA;}
	.st15{fill-rule:evenodd;clip-rule:evenodd;fill:#1E71B8;}
	.st16{fill-rule:evenodd;clip-rule:evenodd;fill:#307F79;}
	.st17{fill-rule:evenodd;clip-rule:evenodd;fill:#32A45A;}
</style>
<g>
	<path class="st0" d="M3-37H197V157H3V-37z"/>
	<path class="st1" d="M43.7,44.2l3.2,0c2.3,0,4.6,0.2,6.5,1.3c3.3,1.7,5.5,5.2,5.6,9.1c0.1,2.6-0.6,4.9-2,6.8
		c-0.8,1.1-1.4,1.6-1.9,2c-0.5,0.4-1,0.7-1.5,1.1c-1.8,1-4,1.4-6.1,1.4h-6.8l0,9.3h-5.8v-31L43.7,44.2L43.7,44.2z M126,75.2V64.9
		c0-1.2,0-2.6,0.1-3.7c0.3-1.9,1.6-3.4,3.3-4.1c1.3-0.6,2.8-0.6,4.3-0.6l0-4.2c0-0.4,0-0.8,0-1.2c-1.9,0-3.8,0.2-5.3,1
		c-1.1,0.6-1.9,1.5-2.6,2.5l0,0l-0.2-3.1l0-0.1h-5.4l0,4.9l0,18.4l0,0.3L126,75.2L126,75.2z M188.4,44.2l0,3.3l0,6.6l0,0.1l-0.1-0.1
		c-1.5-1.5-3.4-2.5-5.6-2.9c-4.9-0.7-9.6,1.5-12,5.5c-1.8,2.8-2.2,6.8-1.3,10.2c1.1,4.2,4.7,7.5,8.9,8.4c3.4,0.8,6.9,0.1,9.3-2
		c0.3-0.2,0.6-0.6,0.9-0.8c0.1,0.9,0.1,1.8,0.2,2.7v0l5.6,0V75l0-2.9l0-13.2l0-10l0-4.7L188.4,44.2L188.4,44.2z M87.2,75.2h5.7v-31
		h-5.7V75.2z M160.8,75.2h5.7V51.1h-5.7V75.2z M111.3,75.2l5.6,0l0-0.7l0-11l0-2.6l-0.1-1.4c-0.1-1.7-0.7-3.3-1.8-4.6
		c-1.1-1.4-2.6-2.4-4.6-3c-2.3-0.8-5.2-0.9-7.6-0.2c-3.2,0.7-6,3.4-6.7,6.7c0,0.2-0.1,0.4-0.1,0.6l5.8,0l0.2-0.6
		c0.4-0.9,1.2-1.7,2.1-2.1c1.7-0.7,3.6-0.4,4.6,0c1.9,0.8,2.4,2.4,2.3,4l-2.7,0l-3.2,0c-2.3,0.1-4.6,0.4-6.6,1.4
		c-1.6,0.9-2.8,2.6-3.2,4.4c-0.7,3,0.4,6.1,2.6,7.8c2,1.6,4.8,1.9,7.5,1.7c2.2-0.2,4.3-1.3,5.6-3l0,0L111.3,75.2L111.3,75.2z
		 M110.2,68.6c-1,1.5-2.8,2.1-4.6,2.3c-1.8,0.1-3.7-0.4-4.5-2c-0.5-1-0.4-2.5,0.3-3.4c1-1.4,2.8-1.6,4.4-1.7l2-0.1l3.3,0v0.1
		C111.1,65.6,111.1,67.3,110.2,68.6L110.2,68.6z M84.6,65.5c0.2-1.2,0.2-2.5,0.1-3.7c-0.6-4.2-3.3-7.9-7.1-9.6
		c-2.4-1.1-5.4-1.4-8.1-0.9c-4,0.7-7.2,3.3-8.7,6.3c-1.6,3.2-1.5,6.2-1.2,7.9c0.9,5.3,5.3,9.5,11.1,10c2.3,0.2,4.4,0,6.6-0.9
		C81.1,73.1,84,69.5,84.6,65.5L84.6,65.5z M76.9,68.7c-1.7,1.6-4.3,2.4-6.8,1.7c-2.5-0.7-4.5-3-4.9-5.6c-0.3-2.2,0.1-4.4,1.4-6
		c1.7-2.2,4.6-3.2,7.5-2.4c2.6,0.7,4.6,3.2,4.9,5.9C79.3,64.7,78.7,67,76.9,68.7L76.9,68.7z M158.3,65.5c0.2-1.2,0.2-2.5,0.1-3.7
		c-0.6-4.2-3.3-7.9-7.1-9.6c-2.4-1.1-5.4-1.4-8.1-0.9c-4,0.7-7.2,3.3-8.7,6.3c-1.7,3.2-1.5,6.2-1.2,7.9c0.9,5.3,5.3,9.5,11.1,10
		c2.3,0.2,4.4,0,6.6-0.9C154.7,73.1,157.6,69.5,158.3,65.5L158.3,65.5z M150.6,68.7c-1.7,1.6-4.3,2.4-6.8,1.7
		c-2.5-0.7-4.5-3-4.9-5.6c-0.3-2.2,0.1-4.4,1.4-6c1.7-2.2,4.6-3.2,7.4-2.4c2.6,0.7,4.7,3.2,4.9,5.9C153,64.7,152.3,67,150.6,68.7z
		 M49.4,60.3c0.5-0.2,0.9-0.5,1.4-0.8c1.7-1.4,2.6-3.8,1.9-6.1c-0.5-1.7-1.7-3.1-3.4-3.7c-1.3-0.5-2.9-0.5-4.4-0.5l-4.2,0h-0.1v11.6
		h5C46.9,60.8,48.4,60.7,49.4,60.3z M186.5,68.7c-1.8,1.8-4.8,2.5-7.4,1.5c-0.5-0.2-1-0.5-1.4-0.7c-0.8-0.6-1.5-1.3-2-2.2
		c-1.1-1.8-1.2-4.3-0.7-6.4c0.7-2.5,2.9-4.5,5.6-4.9c2.7-0.4,5.3,0.8,6.7,2.9c1.2,1.7,1.4,4.1,1.1,6.3
		C188.1,66.5,187.4,67.7,186.5,68.7L186.5,68.7z M160.8,49h5.6v-4.9h-5.6V49z"/>
	<path class="st2" d="M13.5,60.7l-3.8-3.8l-3.8,3.8l3.8,3.8L13.5,60.7z"/>
	<path class="st3" d="M17.2,56.9l-3.8-3.8l-3.8,3.8l3.8,3.8L17.2,56.9z"/>
	<path class="st4" d="M21,53.1l-3.8-3.8l-3.8,3.8l3.8,3.8L21,53.1z"/>
	<path class="st5" d="M24.8,49.3L21,45.6l-3.8,3.8l3.8,3.8L24.8,49.3z"/>
	<path class="st6" d="M17.2,64.5l-3.8-3.8l-3.8,3.8l3.8,3.8L17.2,64.5z"/>
	<path class="st7" d="M21,60.7l-3.8-3.8l-3.8,3.8l3.8,3.8L21,60.7z"/>
	<path class="st8" d="M24.8,56.9L21,53.1l-3.8,3.8l3.8,3.8L24.8,56.9z"/>
	<path class="st9" d="M28.6,53.1l-3.8-3.8L21,53.1l3.8,3.8L28.6,53.1z"/>
	<path class="st10" d="M21,68.3l-3.8-3.8l-3.8,3.8l3.8,3.8L21,68.3z"/>
	<path class="st11" d="M24.8,64.5L21,60.7l-3.8,3.8l3.8,3.8L24.8,64.5z"/>
	<path class="st12" d="M28.6,60.7l-3.8-3.8L21,60.7l3.8,3.8L28.6,60.7z"/>
	<path class="st13" d="M32.4,56.9l-3.8-3.8l-3.8,3.8l3.8,3.8L32.4,56.9z"/>
	<path class="st14" d="M24.8,72.1L21,68.3l-3.8,3.8l3.8,3.8L24.8,72.1z"/>
	<path class="st15" d="M28.6,68.3l-3.8-3.8L21,68.3l3.8,3.8L28.6,68.3z"/>
	<path class="st16" d="M32.4,64.5l-3.8-3.8l-3.8,3.8l3.8,3.8L32.4,64.5z"/>
	<path class="st17" d="M36.2,60.7l-3.8-3.8l-3.8,3.8l3.8,3.8L36.2,60.7L36.2,60.7z"/>
</g>
</svg>
