<?xml version="1.0" encoding="utf-8"?>
<!-- Generator: Adobe Illustrator 24.0.1, SVG Export Plug-In . SVG Version: 6.00 Build 0)  -->
<svg version="1.1" id="Layer_1" xmlns="http://www.w3.org/2000/svg" xmlns:xlink="http://www.w3.org/1999/xlink" x="0px" y="0px"
	 viewBox="0 0 200 120" style="enable-background:new 0 0 200 120;" xml:space="preserve">
<style type="text/css">
	.st0{fill:#4C75B2;}
</style>
<g>
	<path class="st0" d="M125.8,74.5l8.2-34h-17.6L108.9,71c-1.1,5.9-7.5,8.7-12,8.8H84.4l-4.2,12.3h26.2
		C112.8,92.1,122.4,88.8,125.8,74.5"/>
	<path class="st0" d="M88.9,62.5l8.3-34.6h18.1l-9.4,39.3c-1.8,7.6-7.5,9.4-12.7,9.4H51.5c-4.6,0-8.4-1.9-6.4-10.7l3.8-15.7
		c1.9-8,7.8-9.8,12.1-9.8h29.1l-2.3,9.8H72.9c-2.2,0-3.4,0.5-4,3l-2.4,10c-0.9,3.6,0.4,3.8,3,3.8h13.6C85.6,67.2,87.8,67,88.9,62.5
		 M137.9,40.5l-8.5,36.2H147l8.5-36.2H137.9z"/>
</g>
</svg>
