<?xml version="1.0" encoding="utf-8"?>
<!-- Generator: Adobe Illustrator 24.0.1, SVG Export Plug-In . SVG Version: 6.00 Build 0)  -->
<svg version="1.1" id="Layer_1" xmlns="http://www.w3.org/2000/svg" xmlns:xlink="http://www.w3.org/1999/xlink" x="0px" y="0px"
	 viewBox="0 0 200 120" style="enable-background:new 0 0 200 120;" xml:space="preserve">
<style type="text/css">
	.st0{fill-rule:evenodd;clip-rule:evenodd;fill:#D7102A;}
</style>
<title>Asko</title>
<path class="st0" d="M54.4,45.5v22c0,0,0,7.4-7.4,7.4v-11H32.3v3.6h11c0,0,0,7.3-7.4,7.3h-11v-11c0-7.3,7.4-7.3,7.4-7.3h11
	c3.7,0,3.7-3.6,3.7-3.6H24.9c0,0,0-7.4,7.4-7.4H54.4z"/>
<path class="st0" d="M72.9,45.7h6.5l10.8,28.7h-6.6L81.4,68H70.7l-2.3,6.4H62L72.9,45.7z M72.3,63.3h7.5l-3.6-10.5h-0.1L72.3,63.3
	L72.3,63.3z"/>
<path class="st0" d="M97.5,64.8c0,3.8,3,5.3,6.4,5.3c2.3,0,5.6-0.6,5.6-3.6c0-3.1-4.3-3.6-8.6-4.7c-4.2-1.1-8.6-2.8-8.6-8.2
	c0-5.9,5.6-8.7,10.8-8.7c6,0,11.6,2.6,11.6,9.2h-6.1c-0.2-3.5-2.7-4.3-5.7-4.3c-2,0-4.4,0.8-4.4,3.3c0,2.2,1.4,2.5,8.6,4.3
	c2.1,0.5,8.6,1.8,8.6,8.4c0,5.3-4.2,9.2-12,9.2c-6.4,0-12.4-3.1-12.3-10.2H97.5z"/>
<polygon class="st0" points="120.5,45.7 126.8,45.7 126.8,57.6 138.1,45.7 146,45.7 134.8,57 147.1,74.3 139.2,74.3 130.5,61.4 
	126.8,65.1 126.8,74.3 120.5,74.3 120.5,45.7 "/>
<path class="st0" d="M160.9,45c8.9,0,14.2,6.6,14.2,15.1c0,8.3-5.3,14.9-14.2,14.9c-8.9,0-14.2-6.6-14.2-14.9
	C146.7,51.6,152,45,160.9,45z M160.9,69.7c5.7,0,7.8-4.8,7.8-9.6c0-5-2.1-9.8-7.8-9.8s-7.8,4.8-7.8,9.8
	C153.1,64.9,155.2,69.7,160.9,69.7z"/>
</svg>
