<?xml version="1.0" encoding="utf-8"?>
<!-- Generator: Adobe Illustrator 24.0.1, SVG Export Plug-In . SVG Version: 6.00 Build 0)  -->
<svg version="1.1" id="Слой_1" xmlns="http://www.w3.org/2000/svg" xmlns:xlink="http://www.w3.org/1999/xlink" x="0px" y="0px"
	 viewBox="0 0 200 120" style="enable-background:new 0 0 200 120;" xml:space="preserve">
<style type="text/css">
	.st0{fill:#CE2A1E;}
</style>
<g>
	<path class="st0" d="M158.7,82.8l2.9-4.2l3.2-4.6l6.2,8.8h8.9L169,68.7l10.8-14H171l-6.1,8.7l-3.2-4.6l-2.9-4.1H150l10.8,14
		l-10.9,14.1L158.7,82.8L158.7,82.8z M141.8,82.7L141.8,82.7l7.1,0.1v-28h-7.1V82.7z M141.8,51.1h7.1v-6.6h-7.1V51.1z M107.2,60.5
		h8.8v22.3h7.1V60.5h4.9c1.2,0,2.1,0.3,2.9,1.1c0.7,0.7,1.1,1.7,1.1,2.9v18.3h7.1V63.1c0-2.2-0.8-4-2.3-5.6c-2-2.1-4.5-2.7-7.4-2.7
		h-29.2v28h7.1L107.2,60.5L107.2,60.5z M90.5,44.6h-7.1v10.2H72.7v28h7.1V60.5h3.6V73c0,1.9,0,3.9,0.9,5.7c0.1,0.2,0.2,0.3,0.2,0.5
		c1.6,2.7,4.5,3.6,7.6,3.6h5.2v-5.7h-2.7c-1.3,0-2.3-0.3-3-1c-0.8-0.8-1.1-2.4-1.1-5V60.5h6.8v-5.8h-6.8L90.5,44.6L90.5,44.6z
		 M52.1,87.6c-0.3,0-0.6,0.1-0.9,0.2c-5.4,0.8-11.6,0.4-16.1-3.1c-4.2-3.3-5.8-9-2-16.9c0.6-1.3,1.3-2.5,2-3.8V46.3
		c-6.2,5.2-11.1,11.2-13.5,17.5c-0.8,2.3-1.3,4.4-1.5,6.5v3.3c1.1,12.1,14.3,18.7,28.7,16.3c1.2-0.2,2.3-0.4,3.4-0.6
		c5.8-1.3,9.3-2.9,12.2-4.5h-2.7C59,85.9,56.1,86.9,52.1,87.6z M75.8,34.5c0.2,0,0.3,0,0.5-0.1c2.9-0.4,5.8-0.4,8.3,0.2
		c7.9,1.6,12.6,7.9,8.3,18.2H94c5-9.4,2.1-19.6-9.5-22.4c-2.4-0.6-5.1-0.9-8.2-0.8h-0.1c-7.7,0.3-16.1,2.5-24.2,6.1
		c-4.2,1.9-8.4,4.2-12.2,6.8h16C62.1,38.6,69,35.7,75.8,34.5z M72.7,51.1h7.1v-6.6h-7.1V51.1L72.7,51.1z M70,56.2
		c0-7.3-3.3-11.6-11.3-11.6H37v38.2h8v-15h8.7l7.8,15H71l-8.2-15.5C68.1,65.7,70,61.3,70,56.2z M54.4,61.8H45V51.1h9.4
		c4,0,6,1.8,6,5.3C60.4,60,58.4,61.8,54.4,61.8z"/>
</g>
</svg>
