<?xml version="1.0" encoding="utf-8"?>
<!-- Generator: Adobe Illustrator 24.0.1, SVG Export Plug-In . SVG Version: 6.00 Build 0)  -->
<svg version="1.1" id="Слой_1" xmlns="http://www.w3.org/2000/svg" xmlns:xlink="http://www.w3.org/1999/xlink" x="0px" y="0px"
	 viewBox="0 0 200 120" style="enable-background:new 0 0 200 120;" xml:space="preserve">
<style type="text/css">
	.st0{display:none;fill-rule:evenodd;clip-rule:evenodd;fill:#FFFFFF;}
	.st1{fill-rule:evenodd;clip-rule:evenodd;fill:#CF4037;}
</style>
<g>
	<path class="st0" d="M22.7-17.3h154.7v154.7H22.7V-17.3z"/>
	<path class="st1" d="M38.7,81.6h-9.3c0,0,1.7-0.9,1.7-2.5V51.5c0-1.9-1.7-2.4-1.7-2.4h19.4v5.5c0,0-0.5-1.8-2-1.8H37v8.9H47v5
		c0,0-0.3-1.2-1.7-1.2H37V79C37,80.8,38.7,81.6,38.7,81.6L38.7,81.6z M157.5,82.2c-6.8,0-11.6-4.2-11.6-8.5V51.5
		c0-1.6-1.9-2.4-1.9-2.4h9.3c0,0-1.9,0.8-1.9,2.3v22.3c0,2.1,3,4.9,5.9,4.8c2.8,0,5.7-2.7,5.7-4.8V51.5c0-1.7-1.9-2.3-1.9-2.3h9.3
		c0,0-1.9,0.6-1.9,2.3v22.3C168.6,77.9,163.9,82.2,157.5,82.2L157.5,82.2z M63.5,82.2C56.7,82.2,52,78,52,73.8V51.5
		c0-1.6-1.9-2.4-1.9-2.4h9.3c0,0-1.9,0.8-1.9,2.3v22.3c0,2.1,3,4.9,5.9,4.8c2.8,0,5.7-2.7,5.7-4.8V51.4c0-1.7-1.9-2.3-1.9-2.3h9.3
		c0,0-1.9,0.6-1.9,2.3v22.3C74.6,77.9,69.9,82.2,63.5,82.2L63.5,82.2z M88.2,49.1c0,0-1.9,0.8-1.9,2.5v34.2c0,0-0.1,5.9-10.1,8.5
		c-0.2,0.1,4.5-5,4.5-8.5c0-2.4,0.1-32.9,0-34.2c-0.1-1.7-1.9-2.5-1.9-2.5H88.2L88.2,49.1z M97.7,79.1c0.1,1.7,1.9,2.5,1.9,2.5h-9.4
		c0,0,1.9-0.8,1.9-2.5h0c0-9.8,0-26.5,0-27.5c-0.1-1.7-1.9-2.5-1.9-2.5h9.4c0,0-1.9,0.8-1.9,2.5L97.7,79.1L97.7,79.1z M114.8,52.8
		v26.3c0.1,1.7,1.9,2.5,1.9,2.5h-9.4c0,0,1.9-0.8,1.9-2.5h0c0-8.4,0-22,0-26.3h-6.3c-2,0-3.1,2.2-3.1,2.2l1.9-5.9h22.1l-1.3,5.4
		c0,0-0.1-1.7-2-1.7L114.8,52.8L114.8,52.8z M87.4,39.4c1.1,2.5,4.4,4.4,7.8,4.4c5,0,9.1-4.1,9.1-9.1s-4.1-9.1-9.1-9.1
		c-2.7,0-5.2,1.2-6.8,3.1l0.1,4.8c0.3-3.3,3.9-5.2,6.8-5.1c3.4,0.1,6.2,2.8,6.2,6.2c0,3.4-2.8,6.2-6.2,6.2c-2.2,0-4.1-1.2-5.2-2.9
		l-0.3-0.6c-1.2-2.3-3.8-4.1-6.7-4.1c-4.1,0-7.5,3.4-7.5,7.5c0,0,0,0,0,0c0,4.1,3.4,7.5,7.5,7.5c0,0,0,0,0,0c2.3,0,4.4-1,5.9-2.8
		v-3.4l-2.7,2.3c-0.8,0.6-2,1-3.2,1c-2.5,0-4.6-2.1-4.5-4.7c0-2.5,2-4.5,4.5-4.5C84.9,36.3,86.4,37.5,87.4,39.4L87.4,39.4L87.4,39.4
		z M140.7,54.2v-4c0-0.6-3.6-1.4-5.9-1.4c-1.7,0-11.3,0.4-11.3,8.8c0,6.9,7.3,9.7,8.2,10.1s6.3,2.8,6.3,5.7c0,3.7-3.2,5.6-7,5.6
		c-3.8,0-6.9-2.5-7.8-3.2c-0.1-0.1,1.3,5.7,1.3,5.7s3.4,0.9,6.3,0.9c1.3,0,12.7,0,12.7-9c0-6.8-7-9.3-8.4-10
		c-1.3-0.6-6.2-2.5-6.2-6.1c0-2.8,3.4-5.2,5.9-5.2C138.6,52.1,139.9,53.2,140.7,54.2L140.7,54.2z"/>
</g>
</svg>
