<svg width="200" height="120" viewBox="0 0 200 120" fill="none" xmlns="http://www.w3.org/2000/svg">
<path d="M50.002 59.0661C50.002 31.9991 71.9134 10 99.0681 10C126.135 10 148.129 31.9114 148.129 59.0661C148.129 86.1332 126.218 108.132 99.0681 108.132C71.9134 108.132 50.002 86.1332 50.002 59.0661Z" fill="url(#paint0_linear_654_1230)"/>
<path d="M50.9512 59.1534C50.9512 32.6019 72.5172 11.0359 99.0686 11.0359C125.62 11.0359 147.186 32.6019 147.186 59.1534C147.186 85.7048 125.62 107.271 99.0686 107.271C72.5172 107.271 50.9512 85.7048 50.9512 59.1534Z" fill="url(#paint1_linear_654_1230)"/>
<path d="M91.0764 71.8726C90.6485 74.703 91.9374 76.2548 94.5153 75.4763C96.2321 74.9608 97.8664 73.5894 98.8975 71.8726H96.4899C95.9743 72.5583 95.4587 72.8985 95.0308 72.9913C94.5152 73.1615 93.7419 73.0738 93.7419 71.8726H91.0764ZM101.558 71.8726C102.161 72.6407 103.192 72.8985 104.564 72.4706C105.079 72.3005 105.512 72.1252 106.023 71.8726H101.558Z" fill="#76231F"/>
<path d="M93.7409 71.8726C93.7409 71.5272 93.7409 71.1818 93.8285 70.7538C94.2565 68.5163 95.4629 67.6553 96.1486 67.4852C96.8343 67.315 97.7778 67.4852 97.3498 69.7227C97.1745 70.6662 96.8343 71.3519 96.4888 71.8726H98.8965C99.4121 71.0116 99.84 69.9805 100.01 68.9494C100.613 65.856 99.2368 64.2217 96.5713 64.995C93.9059 65.7684 91.6786 68.5215 91.0754 71.5272C91.0754 71.6148 91.0754 71.785 90.9878 71.8726H93.7409ZM105.939 71.8726C107.919 70.6662 109.46 68.4338 109.976 65.9436C110.574 62.8503 109.208 61.2159 106.537 61.9893C103.877 62.7575 101.639 65.5106 101.041 68.5215C100.783 69.9805 100.954 71.0993 101.469 71.8726H105.939ZM120.463 57.5194L117.369 58.4628L114.363 65.5054L114.1 59.6692L111.095 60.5302L111.956 70.2383L115.132 69.1247L120.463 57.5194ZM121.751 57.0914L127.768 55.287L127.252 57.9524L124.071 59.066L123.814 60.3549L126.479 59.3238L126.046 61.9893L123.386 62.8503L123.123 64.1392L126.391 62.9328L125.701 65.9436L119.596 67.8358L121.751 57.0914ZM103.789 67.743C104.222 65.5054 105.418 64.6496 106.109 64.4794C106.8 64.3093 107.744 64.4794 107.311 66.717C106.877 68.9494 105.681 69.8104 104.99 69.9805C104.3 70.1506 103.361 69.9805 103.789 67.743ZM128.371 64.9125L131.465 64.0515L132.32 59.8445L133.697 59.6692C134.893 59.3238 134.723 60.3549 134.64 61.3036C134.553 61.8191 134.47 62.3347 134.553 62.8503L137.471 62.0769C137.301 61.649 137.564 60.4426 137.641 59.927C137.811 58.6381 137.471 57.8648 136.785 57.7771C137.816 57.0914 138.507 55.8902 138.765 54.7714C139.198 52.7968 137.909 52.1936 136.28 52.7091L130.516 54.3435L128.371 64.9125ZM133.006 55.9727L134.383 55.6324C135.501 55.287 135.759 55.6324 135.672 56.2356C135.501 57.1791 134.723 57.4369 134.125 57.6122L132.578 57.9524L133.006 55.9727Z" fill="#76231F"/>
<path d="M56.2754 60.6121C56.2754 36.4683 75.8668 16.7893 100.098 16.7893C124.242 16.7893 143.921 36.3807 143.921 60.6121C143.921 84.7611 124.33 104.435 100.098 104.435C75.8668 104.347 56.2754 84.7611 56.2754 60.6121ZM139.106 48.8418L90.7305 64.2211L81.8834 97.1346C87.3793 99.8826 93.566 101.429 100.098 101.429C122.613 101.429 140.828 83.2144 140.828 60.705C140.828 56.4876 140.224 52.5384 139.106 48.8418ZM89.2714 21.2592L77.2433 66.2833L87.7299 62.9322L94.855 36.2106L98.3762 35.1794L91.246 61.7309L138.42 46.7796C132.749 31.0549 117.71 19.7125 100.011 19.7125C96.3192 19.8002 92.7102 20.3158 89.2714 21.2592ZM60.7453 71.5266L73.6344 67.4021L85.6625 22.378C70.1956 28.2193 59.2811 43.0882 59.2811 60.5297C59.2811 64.3912 59.7967 68.0878 60.7453 71.5266ZM79.0478 95.5003L87.1267 65.2574L76.5576 68.6034L73.3766 80.2912L69.8553 81.3223L72.9487 69.7221L61.3485 73.4136C64.4368 82.7814 70.7988 90.6024 79.0478 95.5003Z" fill="#76231F"/>
<path d="M118.314 66.8882L124.506 64.996L125.104 61.9903L121.928 63.1967L122.181 61.9027L124.846 61.1293L125.274 58.469L122.696 59.5001L122.872 58.2112L126.047 57.0048L126.563 54.427L120.639 56.2315L118.314 66.8882Z" fill="white"/>
<path d="M95.4579 64.1398C92.7925 64.908 90.5601 67.6611 89.9569 70.6668C89.9569 70.7596 89.9569 70.9297 89.8692 71.0122H92.5347C92.5347 70.7545 92.5347 70.3214 92.6223 69.8935C93.0502 67.6559 94.2567 66.7949 94.9424 66.6248C95.6281 66.4547 96.5715 66.6248 96.1436 68.8623C95.9735 69.811 95.6281 70.4967 95.2878 71.0122C94.7722 71.7031 94.2567 72.0434 93.8287 72.1259C93.3132 72.3011 92.5347 72.2187 92.5347 71.0122H89.8692C89.4413 73.8478 90.8179 75.3945 93.3132 74.6212C95.03 74.1005 96.6643 72.7291 97.6955 71.0122C98.211 70.1512 98.6441 69.1253 98.8142 68.089C99.4123 64.9956 98.1234 63.3664 95.4579 64.1398Z" fill="white"/>
<path d="M137.565 53.9984C137.993 52.0238 136.704 51.4206 135.069 51.9362L129.398 53.4829L127.253 64.1396L130.347 63.2786L131.203 59.0664L132.579 58.8963C133.775 58.5509 133.605 59.582 133.528 60.5255C133.435 61.041 133.435 61.5566 133.435 62.0722L136.353 61.2988C136.188 60.8709 136.446 59.6696 136.528 59.1541C136.704 57.8652 136.358 57.0918 135.673 57.0042C136.621 56.3185 137.302 55.0296 137.565 53.9984ZM134.471 55.375C134.301 56.3236 133.528 56.5763 132.925 56.7516L131.373 57.1795L131.806 55.1172L133.182 54.7718C134.384 54.4264 134.641 54.6841 134.471 55.375Z" fill="white"/>
<path d="M116.168 57.6073L113.245 64.655L112.905 58.8962L109.981 59.6696L110.75 69.3776L114.018 68.2588L119.256 56.6638L116.168 57.6073Z" fill="white"/>
<path d="M105.423 61.1287C102.763 61.902 100.531 64.6551 99.9274 67.6608C99.6696 69.125 99.8398 70.2387 100.355 71.012C100.959 71.7802 101.99 72.0431 103.361 71.6101C103.882 71.4399 104.305 71.2698 104.738 71.012C106.712 69.8107 108.264 67.5732 108.774 65.083C109.46 61.9896 108.089 60.3553 105.423 61.1287ZM106.114 65.8564C105.686 68.0888 104.485 68.9497 103.794 69.125C103.108 69.2952 102.165 69.125 102.598 66.8875C103.021 64.65 104.14 63.789 104.913 63.6188C105.593 63.4487 106.542 63.624 106.114 65.8564Z" fill="white"/>
<path d="M55.0747 59.7564C55.0747 35.6126 74.6661 15.9336 98.8975 15.9336C123.041 15.9336 142.72 35.525 142.72 59.7564C142.72 83.9054 123.124 103.579 98.8975 103.579C74.7486 103.579 55.0747 83.9002 55.0747 59.7564ZM137.91 47.981L89.5298 63.3654L80.6776 96.2737C86.1786 99.0217 92.3654 100.574 98.8975 100.574C121.412 100.574 139.627 82.3587 139.627 59.8441C139.627 55.6319 139.024 51.6776 137.91 47.981ZM88.1532 20.3984L76.1251 65.4276L86.6942 62.0765L93.8244 35.3497L97.3509 34.3186L90.133 60.9577L137.307 46.0064C131.636 30.1941 116.597 18.9393 98.8975 18.9393C95.201 19.027 91.592 19.4549 88.1532 20.3984ZM59.6271 70.6657L72.5162 66.6289L84.5443 21.6048C69.0774 27.4461 58.1629 42.3149 58.1629 59.7564C58.1681 63.5355 58.6836 67.2321 59.6271 70.6657ZM77.842 94.7271L85.9208 64.5666L75.4394 67.9178L72.2584 79.6056L68.732 80.6316L71.8253 69.0314L60.2252 72.728C63.3237 81.9205 69.593 89.7467 77.842 94.7271Z" fill="white"/>
<path d="M141.262 101.348C140.489 102.204 140.056 103.152 140.056 104.348C140.056 105.555 140.489 106.503 141.262 107.359C142.03 108.215 143.066 108.56 144.263 108.56C145.469 108.56 146.418 108.132 147.273 107.359C148.047 106.503 148.475 105.555 148.475 104.348C148.475 103.152 148.047 102.204 147.273 101.348C146.418 100.482 145.469 100.141 144.263 100.141C143.149 100.141 142.118 100.574 141.262 101.348ZM147.789 107.792C146.84 108.736 145.644 109.251 144.355 109.251C142.974 109.251 141.865 108.731 140.917 107.792C139.973 106.844 139.458 105.637 139.458 104.348C139.458 102.977 139.978 101.863 140.917 100.915C141.865 99.966 142.974 99.4556 144.355 99.4556C145.732 99.4556 146.84 99.9711 147.789 100.915C148.738 101.858 149.248 102.977 149.248 104.348C149.166 105.73 148.733 106.844 147.789 107.792ZM145.211 102.461C144.953 102.291 144.613 102.291 144.092 102.291H143.324V104.271H144.185C144.613 104.271 144.871 104.271 145.134 104.178C145.474 104.008 145.649 103.75 145.649 103.322C145.551 102.889 145.469 102.637 145.211 102.461ZM144.18 101.688C144.866 101.688 145.299 101.77 145.639 101.858C146.155 102.116 146.495 102.544 146.495 103.235C146.495 103.75 146.325 104.096 145.979 104.266C145.809 104.348 145.546 104.436 145.206 104.524C145.639 104.611 145.897 104.781 146.155 105.039C146.325 105.297 146.418 105.56 146.418 105.9V106.328C146.418 106.416 146.418 106.586 146.418 106.756C146.418 106.926 146.418 107.019 146.5 107.019V107.101H145.644C145.644 107.101 145.644 107.101 145.644 107.014C145.644 107.014 145.644 107.014 145.644 106.921V106.751V106.328C145.644 105.73 145.474 105.297 145.129 105.127C144.953 105.039 144.608 104.957 144.092 104.957H143.324V107.101H142.376V101.688H144.18Z" fill="#6F6F6E"/>
<rect x="0.5" y="0.5" width="199" height="119" stroke="black"/>
<defs>
<linearGradient id="paint0_linear_654_1230" x1="66.6943" y1="15.1827" x2="146.6" y2="123.545" gradientUnits="userSpaceOnUse">
<stop stop-color="white"/>
<stop offset="0.5148" stop-color="#D42D3F"/>
<stop offset="0.6616" stop-color="#C72C3A"/>
<stop offset="0.9351" stop-color="#A3292D"/>
<stop offset="1" stop-color="#76231D"/>
</linearGradient>
<linearGradient id="paint1_linear_654_1230" x1="67.2992" y1="16.0837" x2="145.713" y2="122.422" gradientUnits="userSpaceOnUse">
<stop stop-color="white"/>
<stop offset="0.2249" stop-color="#D42D3F"/>
<stop offset="0.4595" stop-color="#C72C3A"/>
<stop offset="0.8962" stop-color="#A3292D"/>
<stop offset="1" stop-color="#76231D"/>
</linearGradient>
</defs>
</svg>
