<?xml version="1.0" encoding="utf-8"?>
<!-- Generator: Adobe Illustrator 24.0.1, SVG Export Plug-In . SVG Version: 6.00 Build 0)  -->
<svg version="1.1" id="Слой_1" xmlns="http://www.w3.org/2000/svg" xmlns:xlink="http://www.w3.org/1999/xlink" x="0px" y="0px"
	 viewBox="0 0 200 120" style="enable-background:new 0 0 200 120;" xml:space="preserve">
<style type="text/css">
	.st0{fill:#00BFFE;}
</style>
<path class="st0" d="M46.5,87.1c-1.2-0.2-2.3-0.9-2.8-2c-0.5-1-0.6-2.3-0.1-3.3c0.1-0.2,3.9-6.2,8.5-13.4l12.1-19
	c2.1-3.3,3.8-6.1,3.9-6.3c0.3-0.7,0.2-1.6-0.2-2.3c-0.2-0.4-0.7-0.9-1.1-1c-0.6-0.3-0.3-0.3-9.6-0.3c-9.7,0-9.1,0-10-0.4
	c-1.6-0.8-2.4-2.7-1.9-4.4c0.3-1,1.1-1.9,1.9-2.3c0.9-0.4-0.5-0.4,16.6-0.4l15.4,0l0.4,0.1c1.2,0.4,2.1,1.4,2.5,2.5
	c0.1,0.3,0.1,0.6,0.1,1.1c0,0.8-0.1,1.3-0.4,1.8c-0.1,0.1-5.6,8.8-12.2,19.2S57.4,75.8,57.3,75.9c-0.2,0.3-0.2,1.1-0.1,1.5
	c0.2,0.8,0.7,1.5,1.5,1.8l0.5,0.2l9.9,0c11,0,10.1,0,11.1,0.5c0.6,0.3,1.3,1,1.6,1.6c0.9,1.8,0.4,3.9-1.2,5c-0.5,0.3-1,0.5-1.6,0.6
	C78.3,87.2,47.1,87.2,46.5,87.1L46.5,87.1z M128.2,87.1c-0.5-0.1-1.2-0.4-1.6-0.7c-0.4-0.3-0.9-0.9-1.1-1.3
	c-0.4-0.9-0.4,1.5-0.4-25.7l0-24.5l0.2-0.4c0.2-0.6,0.6-1.2,1.1-1.6c0.4-0.4,1.3-0.8,1.8-0.9c0.2,0,4.4-0.1,13.2-0.1
	c12.6,0,12.9,0,13.3,0.1c0.7,0.2,1.1,0.4,1.7,1c0.4,0.4,0.6,0.6,0.7,1c0.4,0.9,0.5,2,0.2,2.9c-0.2,0.6-0.4,0.9-0.8,1.4
	c-0.5,0.5-1,0.8-1.6,1l-0.5,0.2l-8.9,0c-8.4,0-8.9,0-9.2,0.1c-1.3,0.4-2.4,1.5-2.7,2.8c-0.1,0.6-0.1,9.8,0,10.3
	c0.3,1.4,1.4,2.5,2.8,2.8c0.4,0.1,0.7,0.1,7.6,0.1c8,0,7.6,0,8.5,0.4c0.9,0.4,1.6,1.3,2,2.4c0.2,0.6,0.1,1.6-0.1,2.2
	c-0.4,1.1-1.3,2.1-2.4,2.4l-0.4,0.1l-7.5,0l-7.5,0l-0.5,0.2c-1,0.4-1.8,1-2.2,1.9c-0.4,0.9-0.4,0.6-0.4,6c0,4.6,0,4.8,0.1,5.3
	c0.3,1.4,1.4,2.4,2.8,2.8c0.3,0.1,1,0.1,8.7,0.1c6,0,8.5,0,8.9,0.1c1.7,0.2,3,1.4,3.3,3c0.1,0.6,0.1,0.9,0,1.5
	c-0.3,1.4-1.2,2.4-2.6,2.9l-0.5,0.2l-12.9,0C131,87.2,128.5,87.1,128.2,87.1L128.2,87.1z M102.9,87.1c-0.3-0.1-0.9-0.3-1.3-0.5
	c-0.5-0.3-1.3-1.1-1.6-1.6c-0.1-0.3-0.3-0.5-0.4-0.8l-0.1-0.4l0-20.5c0-18.7,0-20.5-0.1-20.8c-0.4-1.4-1.3-2.2-2.5-2.7l-0.5-0.2
	l-4.1,0c-3.7,0-4.1,0-4.4-0.1c-1.3-0.4-2.3-1.5-2.6-2.8c-0.1-0.4-0.1-1.4,0-1.8c0.3-1.2,1.2-2.2,2.4-2.6l0.4-0.2l15.3,0
	c10.8,0,15.4,0,15.7,0c0.5,0.1,1.4,0.5,1.8,0.9c0.4,0.4,0.9,1.1,1.1,1.6c0.1,0.4,0.1,0.6,0.1,1.3c0,0.7,0,0.9-0.1,1.2
	c-0.4,1.1-1.3,2-2.5,2.4c-0.4,0.1-0.5,0.1-4.4,0.2c-4.5,0-4.3,0-5.1,0.5c-0.9,0.4-1.6,1.3-1.9,2.3C108,42.5,108,46.1,108,63
	c0,19.5,0,20.5-0.1,20.9c-0.5,1.6-1.6,2.7-3.1,3.1C104.3,87.1,103.3,87.1,102.9,87.1L102.9,87.1z"/>
</svg>
