<svg width="200" height="120" viewBox="0 0 200 120" fill="none" xmlns="http://www.w3.org/2000/svg">
<g clip-path="url(#clip0_662_287)">
<path d="M138.8 59.6045H138.94C140.537 59.6045 141.967 59.1022 143.004 58.1813C144.041 57.2324 144.602 55.9487 144.602 54.4976L144.574 50.2278C144.546 49.5301 144.349 48.8325 144.013 48.1348C143.677 47.465 143.172 46.8231 142.556 46.2929C141.939 45.7627 141.238 45.3162 140.509 45.0371C139.753 44.7301 138.996 44.5906 138.239 44.5906H106.118V44.5627H102.586V75.1487H103.707H106.118H137.903C141.406 75.1487 144.574 72.8604 144.574 69.7069L144.602 65.6325C144.602 62.5348 142.163 59.6325 138.8 59.6045ZM132.801 66.9999C132.773 67.3627 132.633 67.6697 132.381 67.9208C132.129 68.1441 131.764 68.2836 131.372 68.2836H113.657V63.0371H131.652C131.792 63.0371 131.933 63.065 132.073 63.1208C132.213 63.1766 132.353 63.2604 132.465 63.372C132.577 63.4836 132.661 63.5952 132.745 63.7348C132.829 63.8743 132.829 64.0138 132.829 64.1255L132.801 66.9999ZM132.998 54.6929C132.998 55.0836 132.857 55.4185 132.605 55.6418C132.353 55.8929 131.961 56.0325 131.568 56.0045H113.657V51.3999H131.82C131.961 51.3999 132.101 51.4278 132.241 51.4836C132.381 51.5394 132.521 51.6231 132.633 51.7348C132.745 51.8464 132.829 51.958 132.914 52.0976C132.97 52.2371 132.998 52.3766 132.998 52.4883V54.6929Z" fill="#3AB7EC"/>
<path d="M38.1198 44.6465V56.2837H18.4713V44.6465H7.34375V75.1488H18.4713V63.0372H38.1198V75.1488H49.2194V44.6465H38.1198Z" fill="#3AB7EC"/>
<path d="M84.4272 68.3117H78.5971H67.6377C67.4696 68.3117 67.2734 68.2838 67.1052 68.2001C66.937 68.1443 66.7688 68.0326 66.6287 67.8931C66.4885 67.7536 66.3764 67.614 66.2923 67.4466C66.2082 67.2791 66.1802 67.1117 66.1802 66.9443V63.0094H96.9002V59.8838L96.9563 51.2605C96.9563 50.5349 96.7881 49.8094 96.5078 49.0838C96.1995 48.3582 95.751 47.6884 95.1904 47.0745C94.6298 46.4605 93.9571 45.9303 93.2284 45.5396C92.4996 45.121 91.6868 44.8419 90.902 44.7024C90.5096 44.6187 90.1171 44.5908 89.7247 44.5908H62.0599C60.0418 44.5908 58.2479 45.2326 56.9586 46.4326C55.6693 47.6326 54.9405 49.2791 54.9405 51.121V68.5349C54.9125 69.3163 55.0806 70.1536 55.445 70.9349C55.8094 71.7163 56.342 72.4698 57.0147 73.1117C57.6874 73.7536 58.4722 74.2559 59.3411 74.6187C60.182 74.9815 61.0789 75.1768 61.9478 75.1768H90.2853C92.2193 75.0652 93.9291 74.3675 95.1344 73.1675C96.3677 71.9675 97.0123 70.3489 97.0123 68.5629V68.507V68.2838H84.4272V68.3117ZM66.1522 52.7675C66.1522 52.4047 66.2923 52.0698 66.5726 51.8187C66.8529 51.5675 67.2173 51.4559 67.6097 51.4559H84.4272C84.5954 51.4559 84.7916 51.4838 84.9598 51.5675C85.1279 51.6512 85.2961 51.7349 85.4363 51.8745C85.5764 52.014 85.6885 52.1535 85.7726 52.321C85.8567 52.4884 85.8847 52.6559 85.8847 52.8233L85.8567 56.1722H66.1242L66.1522 52.7675Z" fill="#3AB7EC"/>
<path d="M191.499 48.8045C191.106 47.9952 190.574 47.2697 189.873 46.6278C189.172 45.9859 188.359 45.4836 187.491 45.1208C186.622 44.758 185.697 44.5906 184.828 44.5627H157.443C155.397 44.5627 153.547 45.2325 152.23 46.4604C150.912 47.6883 150.184 49.3906 150.212 51.2604V51.4278H162.741H167.029H179.642C179.811 51.4278 180.007 51.4557 180.175 51.5394C180.343 51.6231 180.511 51.7069 180.651 51.8464C180.792 51.9859 180.904 52.1255 180.96 52.2929C181.044 52.4604 181.072 52.6278 181.072 52.7673V56.1162H154.78C153.491 56.1162 152.342 56.5348 151.501 57.2883C150.66 58.0418 150.212 59.1022 150.24 60.3022V68.5348C150.24 69.3441 150.408 70.1534 150.8 70.9627C151.165 71.7441 151.725 72.4976 152.398 73.1394C153.071 73.7813 153.884 74.2836 154.724 74.6464C155.593 75.0092 156.49 75.2045 157.359 75.2045H176.503C177.4 75.1487 178.269 74.9534 179.026 74.5627C179.783 74.1999 180.399 73.6697 180.876 73.0278V75.2045H192.059V51.2604C192.059 50.4511 191.863 49.6138 191.499 48.8045ZM180.595 67.9487C180.315 68.1999 179.951 68.3394 179.558 68.3394H162.545C162.376 68.3394 162.236 68.3115 162.068 68.2557C161.9 68.1999 161.76 68.0883 161.648 67.9766C161.536 67.865 161.423 67.7255 161.367 67.5859C161.311 67.4464 161.255 67.3069 161.255 67.1394L161.283 64.3487C161.283 63.9859 161.395 63.6511 161.648 63.4278C161.9 63.2045 162.236 63.065 162.629 63.065H180.988L181.016 66.9999C181.016 67.3627 180.876 67.6976 180.595 67.9487Z" fill="#3AB7EC"/>
</g>
<rect x="0.5" y="0.5" width="199" height="119" stroke="black"/>
<defs>
<clipPath id="clip0_662_287">
<rect width="186" height="38" fill="white" transform="translate(7 41)"/>
</clipPath>
</defs>
</svg>
