<?xml version="1.0" encoding="utf-8"?>
<!-- Generator: Adobe Illustrator 24.0.1, SVG Export Plug-In . SVG Version: 6.00 Build 0)  -->
<svg version="1.1" id="Слой_1" xmlns="http://www.w3.org/2000/svg" xmlns:xlink="http://www.w3.org/1999/xlink" x="0px" y="0px"
	 viewBox="0 0 200 120" style="enable-background:new 0 0 200 120;" xml:space="preserve">
<style type="text/css">
	.st0{fill-rule:evenodd;clip-rule:evenodd;fill:#FFFFFF;fill-opacity:0;}
	.st1{fill-rule:evenodd;clip-rule:evenodd;fill:#13007A;}
</style>
<polygon class="st0" points="-6.7,26.9 216.4,26.9 216.4,92.9 -6.7,92.9 "/>
<polygon class="st1" points="99.3,83.2 102,75.3 109.7,77.6 105.1,73 191.2,71.4 191.2,70.7 105.1,69.1 109.7,64.5 102,66.8 
	99.3,59 96.7,66.8 88.9,64.5 93.6,69.1 7.5,70.7 7.5,71.4 93.6,73 88.9,77.6 96.7,75.3 "/>
<polygon class="st1" points="30.8,38.2 36.1,38.2 36.1,43.8 46.6,43.8 46.6,38.2 51.9,38.2 51.9,52 46.6,52 46.6,46 36.1,46 
	36.1,52 30.8,52 "/>
<path class="st1" d="M68,38c8.2,0,12.9,2.9,12.9,7.1c0,4.2-4.6,7.2-12.9,7.2c-8.4,0-12.9-3-12.9-7.2C55.1,40.9,59.6,38,68,38L68,38
	L68,38z M68,50.1c5.4,0,7.4-2.5,7.4-5c0-2.4-2.1-4.9-7.4-4.9c-5.2,0-7.4,2.5-7.4,4.9C60.6,47.6,62.6,50.1,68,50.1L68,50.1z"/>
<polygon class="st1" points="84.4,38.2 93,38.2 99.3,46.4 99.3,46.4 105.6,38.2 114.3,38.2 114.3,52 109,52 109,40.6 108.9,40.6 
	99.3,52.9 99.3,52.9 89.7,40.6 89.7,40.7 89.7,52 84.4,52 "/>
<path class="st1" d="M153.2,38c8.2,0,12.9,2.9,12.9,7.1c0,4.2-4.6,7.2-12.9,7.2c-8.4,0-12.9-3-12.9-7.2
	C140.3,40.9,144.8,38,153.2,38L153.2,38L153.2,38z M153.2,50.1c5.4,0,7.4-2.5,7.4-5c0-2.4-2.2-4.9-7.4-4.9c-5.2,0-7.4,2.5-7.4,4.9
	C145.8,47.6,147.8,50.1,153.2,50.1L153.2,50.1z"/>
<path class="st1" d="M135.4,40.7c-1.9-0.4-4.1-0.6-6.3-0.6c-2.1,0-4.9,0.4-4.9,1.9c0,2.4,13.5,1.4,13.5,6c0,3-5.3,4.2-11.6,4.2
	c-3.4,0-4.9-0.2-7.9-0.5l0.6-2.5c2.1,0.5,4.6,0.9,7,0.9c2.3,0,5.5-0.5,5.5-1.8c0-2.6-13.5-1.6-13.5-6.1c0-3.1,5.3-4.2,10.8-4.2
	c2.7,0,5.1,0.2,7.4,0.5L135.4,40.7L135.4,40.7z"/>
<polygon class="st1" points="169.2,38.2 175.9,38.2 185.9,48.6 185.9,48.6 185.9,38.2 191.2,38.2 191.2,52 184.6,52 174.5,41.7 
	174.4,41.7 174.4,52 169.2,52 "/>
<polygon class="st1" points="15,40.4 7.5,40.4 7.5,38.2 27.8,38.2 27.8,40.4 20.3,40.4 20.3,52 15,52 "/>
</svg>
