<?xml version="1.0" encoding="utf-8"?>
<!-- Generator: Adobe Illustrator 24.0.1, SVG Export Plug-In . SVG Version: 6.00 Build 0)  -->
<svg version="1.1" id="Слой_1" xmlns="http://www.w3.org/2000/svg" xmlns:xlink="http://www.w3.org/1999/xlink" x="0px" y="0px"
	 viewBox="0 0 200 120" style="enable-background:new 0 0 200 120;" xml:space="preserve">
<style type="text/css">
	.st0{display:none;fill-rule:evenodd;clip-rule:evenodd;fill:#FFFFFF;}
	.st1{fill-rule:evenodd;clip-rule:evenodd;fill:#CC2131;}
	.st2{fill-rule:evenodd;clip-rule:evenodd;fill:#FFFFFF;}
</style>
<g>
	<path class="st0" d="M12.6-27.4h174.7v174.7H12.6V-27.4z"/>
	<path class="st1" d="M37.4,80.9c-13.3,0-22.2-9.4-22.2-20.9c0-11.4,8.9-21,22.2-20.9h125.3c13.3,0,22.2,9.5,22.2,20.9
		c0,11.4-8.9,20.8-22.2,20.9H37.4z"/>
	<path class="st2" d="M37.4,44.3c-10.5,0-17,7.1-17,15.8c0,8.7,6.4,15.8,17,15.8h125.1c10.6,0,17-7.1,17-15.8
		c0-8.7-6.5-15.7-17-15.8L37.4,44.3L37.4,44.3z"/>
	<path class="st1" d="M32,50.1h6.1l8.5,13.7l0-13.7h6.1v19.7h-6.1l-8.5-13.7v13.7H32L32,50.1z M85.8,52.2h5.9v2.6h3.2v1.9h-3.2
		l0,13.1h-5.9l0-13.1h-3.2v-1.9h3.2L85.8,52.2z M56.1,56.7H62v13.1h-5.9V56.7z M56.1,50.1H62v4h-5.9V50.1z M162.1,63.2
		c0,0,0,2,0,2.8c0,2.1-1.2,2.9-2.4,2.9c-1.2,0-2.4-0.9-2.4-2.9c0-0.8,0-2.8,0-2.8s0-1.9,0-2.7c0-2.1,1.2-2.9,2.4-2.9
		c1.2,0,2.4,0.9,2.4,2.9C162.1,61.2,162.1,62.6,162.1,63.2L162.1,63.2L162.1,63.2z M159.7,55.8c-4.8,0-8.6,3.3-8.6,7.3
		c0,4.1,3.9,7.3,8.6,7.3c4.8,0,8.6-3.3,8.6-7.3C168.4,59.1,164.5,55.8,159.7,55.8L159.7,55.8z M143.3,50.1h5.8v19.7h-5.8l0-0.8
		c-2.3,1.4-4.8,1.4-6.8,0.5c-0.5-0.2-4-1.9-4-6.5c0-3.5,3.3-7.2,7.5-6.9c1.4,0.1,2.4,0.6,3.3,1.2L143.3,50.1z M143.4,63.2v-2.3
		c0-2-1.4-2.5-2.3-2.5c-0.9,0-2.3,0.5-2.3,2.5c0,0.7,0,2.3,0,2.3s0,1.6,0,2.3c0,2,1.4,2.5,2.3,2.5c0.9,0,2.3-0.5,2.3-2.5V63.2z
		 M75.9,56.1c2.2-0.1,6.7,1.4,6.7,6.6c0,0.9,0,7.1,0,7.1h-5.9v-8.6c0-1.1-1.1-2.4-2.7-2.4c-1.6,0-2.8,1.3-2.8,2.4l0,8.6h-5.9l0-13.1
		l5.9,0c0,0,0,1.1,0,1.4C72.4,56.9,74.1,56.2,75.9,56.1L75.9,56.1z M123.9,56.1c2.2-0.1,6.7,1.4,6.7,6.6c0,0.9,0,7.1,0,7.1h-5.9
		v-8.6c0-1.1-1.1-2.4-2.7-2.4s-2.8,1.3-2.8,2.4l0,8.6h-5.9l0-13.1l5.9,0c0,0,0,1.1,0,1.4C120.5,56.9,122.2,56.2,123.9,56.1
		L123.9,56.1z M100.4,61.3c0-1.1,0-1.9,0.4-2.6c0.5-0.8,1.3-1.2,2.1-1.2h0c0.8,0,1.6,0.4,2.1,1.2c0.4,0.7,0.4,1.4,0.4,2.6H100.4
		L100.4,61.3z M105.3,65.2c0,0,0,0.1,0,0.8c0,2.4-1.6,2.9-2.4,2.9c-0.9,0-2.5-0.5-2.5-2.9c0-0.7,0-2.7,0-2.7s11.1,0,11.1,0
		c0-4.1-3.9-7.4-8.7-7.4c-4.8,0-8.7,3.3-8.7,7.3c0,4.1,3.9,7.3,8.7,7.3c4,0,7.4-2.3,8.4-5.4L105.3,65.2L105.3,65.2z M168.8,54.8
		h-0.7v-4.5h1.7c1.1,0,1.6,0.4,1.6,1.3c0,0.8-0.5,1.1-1.2,1.2l1.3,2h-0.8l-1.2-1.9h-0.8L168.8,54.8L168.8,54.8z M169.6,52.3
		c0.6,0,1.1,0,1.1-0.7c0-0.6-0.5-0.7-1-0.7h-0.9v1.4H169.6z"/>
	<path class="st1" d="M165.7,52.6c0-2.2,1.8-3.9,3.9-3.9c2.1,0,3.9,1.6,3.9,3.9c0,2.3-1.8,3.9-3.9,3.9
		C167.5,56.5,165.7,54.8,165.7,52.6z M169.6,55.8c1.8,0,3.1-1.4,3.1-3.2c0-1.8-1.4-3.2-3.1-3.2c-1.8,0-3.2,1.4-3.2,3.2
		C166.5,54.4,167.8,55.8,169.6,55.8z"/>
</g>
</svg>
