<?xml version="1.0" encoding="utf-8"?>
<!-- Generator: Adobe Illustrator 24.0.1, SVG Export Plug-In . SVG Version: 6.00 Build 0)  -->
<svg version="1.1" id="Слой_1" xmlns="http://www.w3.org/2000/svg" xmlns:xlink="http://www.w3.org/1999/xlink" x="0px" y="0px"
	 viewBox="0 0 200 120" style="enable-background:new 0 0 200 120;" xml:space="preserve">
<style type="text/css">
	.st0{fill:#00ACEC;}
</style>
<g>
	<path class="st0" d="M115.7,56.4l-4.3,9.7l-5.9-9.7H95.3L89.5,69l-2.9-12.8h-9.2c0,0-1.3,0-2.5,0.5c-0.6,0.3-1.2,0.6-1.7,1
		l-8.6,7.6C59.3,69.5,50,71.9,47.4,72c-12.3,0.6-14.9-7.9-14.1-11.8C35.6,49.9,51.6,47.5,60,47.5c4,0,7.2,0.8,9.8,1.5l2.4-4.3
		l-1.8-0.4c-2.2-0.3-5.7-1-11.5-1c-23.8-0.1-36,6.6-39.7,15.2C14.9,68,22,76.8,41.9,76.8c3.6,0,10.8-0.3,17.5-2.7h6.5l3.3-3h10
		l0.4,3.2h11v-0.1h5.9l4.7-10.2l6.1,10.2h9.5l8.1-17.8L115.7,56.4L115.7,56.4z M73.1,67.5l5.3-5.1l0.5,5L73.1,67.5L73.1,67.5z
		 M142.4,56.4h-15l-8.2,17.8h15c12,0.1,16.9-4.5,18.5-8C154.5,62.2,152.9,56.4,142.4,56.4z M143.9,65c-1.1,4.5-7.7,4.7-10,4.7h-2.7
		l3.9-8.9h2.7C140.3,60.8,144.9,61.3,143.9,65z"/>
	<path class="st0" d="M171.7,56.3l-7.5,7.4l-2.5-7.3h-9.2l6,13.6l-5.9,5.9h7.8c0,0,1.5-0.2,2.2-0.4c0.6-0.2,1.5-1.1,1.5-1.1l17.9-18
		L171.7,56.3L171.7,56.3z"/>
</g>
</svg>
