<?xml version="1.0" encoding="utf-8"?>
<!-- Generator: Adobe Illustrator 24.0.1, SVG Export Plug-In . SVG Version: 6.00 Build 0)  -->
<svg version="1.1" id="Layer_1" xmlns="http://www.w3.org/2000/svg" xmlns:xlink="http://www.w3.org/1999/xlink" x="0px" y="0px"
	 viewBox="0 0 200 120" style="enable-background:new 0 0 200 120;" xml:space="preserve">
<g id="XMLID_1_">
	<path id="XMLID_2_" d="M67.9,88.9c-3.4-0.4-6.7-1.7-9.3-3.7c-0.5-0.3-0.7-0.5-0.7-0.6c0-0.2,3.6-5.1,3.7-5.1c0.1,0,0.3,0.1,0.5,0.3
		c1.3,0.8,3.3,1.7,4.8,2.1c1.4,0.3,3.4,0.3,4.9-0.1c2.1-0.6,3.9-2.2,4.8-4.3c0.6-1.3,1.1-3.2,1.2-4.9c0-0.7,0-0.8-0.1-0.8
		c-0.1,0-0.2,0.1-0.3,0.1c-0.5,0.5-1.9,1.4-3.3,1.8c-1.4,0.5-2.5,0.6-3.8,0.5c-2.4-0.1-4.2-0.6-6.2-1.6c-4.2-2.1-6.9-5.9-7.6-10.6
		c-0.1-0.5-0.1-2.5-0.1-8.5v-7.8l3.8,0l3.8,0c0,0,0.1,3.7,0.2,7.8c0.1,6.8,0.1,7.5,0.3,8.1c0.6,2.6,2.7,4.6,5.3,5.1
		c0.9,0.2,2.4,0.1,3.2-0.1c2.2-0.7,3.9-2.3,4.6-4.5l0.3-0.8l0-7.7l0-7.7l3.8,0c3,0,3.8,0,3.9,0c0.1,0.2,0.1,18.2,0,21.5
		c-0.1,3-0.3,5.1-0.5,6.9c-0.8,5.1-2.2,8.5-4.8,11c-1.9,1.8-4.3,2.9-7.6,3.5C71.8,88.8,68.7,89,67.9,88.9z M99.6,74.3
		c-0.1,0-0.6-0.1-1.1-0.3c-2.5-0.5-4.8-1.4-6.9-2.4c-1.1-0.5-2.7-1.6-2.8-1.8c0-0.1,3.4-4.6,3.7-5c0.1-0.1,0,0,0.8,0.4
		c1.4,0.8,3.6,1.6,5.4,2c1.3,0.3,3.9,0.3,4.9,0c1.3-0.4,2.1-1,2.1-1.8c0-1-0.8-1.4-5.2-2.7c-1.7-0.5-3.7-1.1-4.3-1.3
		c-3.9-1.4-5.9-3.2-6.6-5.8c-0.2-0.5-0.2-0.9-0.2-1.8c0-2.3,0.7-3.9,2.3-5.6c1.7-1.8,4-2.8,6.9-3.2c3.2-0.4,7.6,0.3,10.7,1.8
		c0.8,0.3,2,1.1,2.4,1.4l0.3,0.2l-1.9,2.4c-1,1.3-1.9,2.4-1.9,2.4s-0.6-0.2-1.1-0.4c-2.1-0.8-3.9-1.1-5.8-1.2
		c-2.4-0.1-3.8,0.3-4.3,1.3c-0.4,0.8,0,1.4,1.3,2c0.4,0.2,2.1,0.7,3.8,1.2c4.5,1.3,6.1,1.9,7.8,3c3.2,2.1,4.1,5.3,2.7,9.1
		c-0.5,1.2-0.9,1.9-1.7,2.7c-1.6,1.6-3.5,2.5-5.9,3c-0.9,0.2-1.2,0.3-3.1,0.3C100.7,74.5,100.4,74.5,99.6,74.3z M36.2,74.2
		c-4.3-0.4-8.1-2.7-10.5-6.3c-1.8-2.7-2.7-5.9-2.4-9.2c0.4-6.1,4.8-11.5,10.8-13c1.7-0.4,2.1-0.5,6.4-0.5l4.1,0l0-7.1l0-7.1l3.8,0
		c3,0,3.8-0.1,3.9,0c0,0,0,3.4,0.1,7.4c0.1,8.6,0,22.4-0.3,23.7c-0.4,2-1,3.7-2,5.4c-1.1,1.8-2.9,3.5-4.8,4.7
		c-1.1,0.7-2.7,1.3-4.1,1.7C39.9,74.2,37.6,74.3,36.2,74.2z M39.1,66.5c2.3-0.5,4.3-2.3,5.1-4.5c0.4-1.1,0.4-1.6,0.4-5.5l0-3.6h-3.9
		c-4.4,0-4.5,0-5.7,0.6c-1.9,0.9-3.2,2.4-3.8,4.5c-0.2,0.5-0.2,0.9-0.2,1.8c0,1.3,0.1,1.9,0.8,3.2c0.4,0.8,0.5,1,1.3,1.8
		c0.9,0.9,1.6,1.3,2.7,1.7C36.6,66.6,38,66.7,39.1,66.5z M128.5,74.2c-1.8-0.2-3.5-0.7-5.3-1.6c-2.7-1.4-4.9-3.5-6.3-6.2
		c-0.8-1.5-1.3-2.9-1.5-4.6c-0.2-0.9-0.2-3.5,0-4.3c0.6-3.4,2-6,4.3-8.2c2.3-2.2,4.9-3.5,8.1-4c4.5-0.7,9.1,0.8,12.3,4.1
		c2.1,2.1,3.3,4.4,4,7.4c0.3,1.2,0.3,3.6,0.1,4.9c-0.6,4.3-3,8-6.7,10.4c-1.5,0.9-3.5,1.7-5.4,2C131.4,74.3,129.5,74.3,128.5,74.2z
		 M131.8,66.4c1.3-0.4,2.2-1,3.1-1.9c2.7-2.9,2.4-7.5-0.6-9.9c-0.7-0.5-2-1.2-2.9-1.4c-0.9-0.2-2.4-0.2-3.3,0
		c-1.9,0.5-3.5,1.8-4.3,3.5c-0.6,1.1-0.8,1.7-0.8,3.2c0,1,0,1.3,0.2,1.9c0.5,1.6,1.5,3,2.9,3.9c0.7,0.5,1.4,0.8,2.6,1.1
		c0.1,0,0.7,0,1.3,0C131,66.6,131.4,66.5,131.8,66.4z M147.6,73.8c0-0.3-0.1-14.1,0-15.2c0.5-5.1,3.3-9.4,8-11.8c4-2.1,9-2.1,13-0.1
		c3.9,1.9,6.7,5.3,7.8,9.3c0.5,1.7,0.5,1.6,0.5,9.8c0,4.5,0.1,7.7,0,7.7c-5.4,0-5.5,0-7.8,0c0,0,0-2.8,0-7.3c0-7.9,0-7.8-0.5-9.1
		c-0.7-1.9-2.6-3.6-4.6-4.1c-1-0.3-2.4-0.3-3.5,0c-2.5,0.6-4.3,2.4-5,5c-0.1,0.4-0.1,1.3-0.2,8l0,7.7c0,0-2.1,0-4,0
		C147.9,73.8,149.6,73.8,147.6,73.8z"/>
</g>
</svg>
