<svg width="200" height="120" viewBox="0 0 200 120" fill="none" xmlns="http://www.w3.org/2000/svg">
<g clip-path="url(#clip0_662_39)">
<path d="M166.638 11.52H34V143.838H166.638V11.52Z" fill="#FF4713"/>
<path d="M108.594 95.8599C108.545 95.3899 108.418 95.0539 108.213 94.8517C108.007 94.6484 107.737 94.5467 107.403 94.5467C107.015 94.5467 106.707 94.7017 106.473 95.0067C106.326 95.1989 106.232 95.4817 106.193 95.8599H108.594ZM111.068 97.023H106.188C106.231 97.4136 106.338 97.7037 106.505 97.8947C106.74 98.17 107.049 98.3064 107.426 98.3064C107.665 98.3064 107.894 98.2469 108.109 98.1266C108.242 98.0509 108.382 97.9195 108.534 97.7273L110.933 97.9468C110.565 98.5841 110.124 99.0405 109.605 99.3182C109.087 99.5935 108.344 99.7311 107.374 99.7311C106.533 99.7311 105.871 99.6133 105.388 99.3765C104.906 99.1397 104.505 98.7627 104.19 98.2481C103.873 97.7323 103.714 97.1271 103.714 96.4315C103.714 95.442 104.032 94.6385 104.667 94.0271C105.305 93.4146 106.182 93.1071 107.303 93.1071C108.212 93.1071 108.93 93.2459 109.456 93.52C109.983 93.7928 110.385 94.192 110.659 94.7116C110.935 95.2324 111.072 95.9107 111.072 96.7465V97.023H111.068ZM99.9585 90.8403H102.401V99.5898H99.9585V90.8403ZM94.0966 96.4389C94.0966 96.9399 94.201 97.3131 94.4135 97.5549C94.6236 97.798 94.8908 97.9195 95.214 97.9195C95.4974 97.9195 95.7348 97.8029 95.9262 97.5686C96.1177 97.3367 96.2146 96.9411 96.2146 96.3844C96.2146 95.871 96.1152 95.4941 95.9151 95.2535C95.7162 95.0105 95.4713 94.8902 95.1854 94.8902C94.8734 94.8902 94.6136 95.0129 94.4073 95.2547C94.1985 95.499 94.0966 95.8946 94.0966 96.4389ZM91.6541 102.002V93.2521H93.9325V94.1896C94.2494 93.794 94.5366 93.5274 94.8001 93.3898C95.1556 93.2025 95.5471 93.1083 95.9784 93.1083C96.8274 93.1083 97.485 93.4344 97.9511 94.0817C98.4147 94.729 98.6471 95.5325 98.6471 96.4873C98.6471 97.5401 98.3936 98.3448 97.8877 98.9016C97.3818 99.4559 96.7404 99.7324 95.9685 99.7324C95.5931 99.7324 95.2501 99.6691 94.9418 99.5427C94.6335 99.4137 94.3563 99.2252 94.1127 98.9747V102.002H91.6541ZM79.3472 93.2521H81.6194V94.1772C81.9476 93.7903 82.277 93.5175 82.6101 93.3526C82.9432 93.1901 83.3459 93.1083 83.817 93.1083C84.3229 93.1083 84.7232 93.1976 85.0178 93.3774C85.3136 93.5572 85.5547 93.8238 85.7424 94.1772C86.124 93.763 86.4733 93.4803 86.7903 93.3315C87.1047 93.1827 87.4925 93.1071 87.9562 93.1071C88.6373 93.1071 89.1706 93.3092 89.5534 93.7147C89.9375 94.1177 90.1277 94.7488 90.1277 95.6094V99.5898H87.6877V95.9801C87.6877 95.6925 87.633 95.4792 87.5199 95.3403C87.3558 95.1221 87.152 95.0129 86.9096 95.0129C86.6237 95.0129 86.3913 95.1171 86.2148 95.3229C86.0395 95.5313 85.9537 95.8623 85.9537 96.3211V99.591H83.5113V96.0992C83.5113 95.8202 83.4951 95.6329 83.464 95.5325C83.4106 95.3738 83.3211 95.2448 83.1943 95.1481C83.065 95.0501 82.9171 95.0018 82.7456 95.0018C82.4659 95.0018 82.2372 95.1072 82.0582 95.318C81.878 95.53 81.7885 95.876 81.7885 96.3571V99.5923H79.3485L79.3472 93.2521ZM75.2777 93.2521H77.7139V99.5898H75.2777V93.2521ZM75.2777 90.8403H77.7139V92.4945H75.2777V90.8403ZM67.2119 97.8364L69.6295 97.6083C69.729 97.8947 69.8682 98.1005 70.0484 98.2233C70.2287 98.3473 70.4673 98.4093 70.7669 98.4093C71.0938 98.4093 71.3473 98.3399 71.5263 98.1997C71.6656 98.0981 71.7339 97.9679 71.7339 97.8129C71.7339 97.638 71.6419 97.5029 71.4605 97.4074C71.3275 97.3404 70.9782 97.2573 70.4126 97.1569C69.5674 97.0081 68.9794 96.8729 68.6501 96.7477C68.3207 96.6212 68.0435 96.4092 67.8185 96.1128C67.5923 95.8152 67.4792 95.4755 67.4792 95.0923C67.4792 94.6744 67.6022 94.3136 67.8446 94.0123C68.087 93.7085 68.4226 93.4828 68.8489 93.334C69.2753 93.1852 69.8471 93.1095 70.5655 93.1095C71.3237 93.1095 71.8831 93.1691 72.2435 93.2831C72.6053 93.3997 72.9048 93.5783 73.146 93.8213C73.3871 94.0643 73.5872 94.3917 73.7488 94.8059L71.4393 95.034C71.3784 94.8307 71.2802 94.6819 71.1398 94.5864C70.9483 94.4574 70.7171 94.3954 70.4449 94.3954C70.1715 94.3954 69.9689 94.4438 69.8446 94.5417C69.7178 94.6397 69.6569 94.7575 69.6569 94.8964C69.6569 95.0526 69.7364 95.1692 69.8955 95.2485C70.0546 95.3279 70.4014 95.3998 70.9372 95.4643C71.7451 95.5561 72.348 95.6825 72.742 95.845C73.1385 96.0074 73.4405 96.2405 73.6481 96.5443C73.8582 96.8457 73.9626 97.178 73.9626 97.5401C73.9626 97.9071 73.852 98.263 73.6295 98.6102C73.4095 98.9561 73.0602 99.2314 72.5841 99.4348C72.1056 99.6406 71.4567 99.7423 70.6364 99.7423C69.4766 99.7423 68.6501 99.5774 68.1566 99.2475C67.6693 98.914 67.3524 98.4428 67.2119 97.8364Z" fill="white"/>
<path d="M151.588 97.6977L152.652 97.5302C152.712 97.9556 152.879 98.2817 153.152 98.5099C153.423 98.7355 153.806 98.8496 154.298 98.8496C154.793 98.8496 155.16 98.7479 155.398 98.5483C155.637 98.3462 155.757 98.1106 155.757 97.8415C155.757 97.5972 155.652 97.4075 155.439 97.2674C155.293 97.1719 154.925 97.0516 154.338 96.9053C153.55 96.7057 153 96.5345 152.696 96.3882C152.391 96.2431 152.159 96.0423 152.001 95.7856C151.845 95.5289 151.765 95.2462 151.765 94.9362C151.765 94.6535 151.831 94.3918 151.961 94.1525C152.089 93.9107 152.267 93.711 152.491 93.5523C152.659 93.4296 152.887 93.3242 153.175 93.2386C153.464 93.1531 153.775 93.1096 154.106 93.1096C154.604 93.1096 155.04 93.1828 155.418 93.3254C155.796 93.468 156.073 93.6615 156.253 93.9057C156.434 94.1525 156.555 94.4786 156.623 94.8878L155.571 95.0329C155.523 94.7068 155.383 94.4526 155.155 94.2691C154.926 94.0855 154.601 93.9938 154.183 93.9938C153.688 93.9938 153.335 94.0756 153.125 94.2381C152.912 94.4005 152.807 94.5927 152.807 94.8109C152.807 94.951 152.851 95.0763 152.94 95.1879C153.028 95.3044 153.165 95.3975 153.352 95.4756C153.46 95.514 153.777 95.6058 154.304 95.7484C155.066 95.9517 155.597 96.1167 155.897 96.2469C156.199 96.3746 156.436 96.5643 156.608 96.811C156.779 97.0578 156.865 97.3629 156.865 97.7299C156.865 98.0883 156.758 98.4243 156.55 98.7417C156.34 99.0579 156.038 99.3022 155.644 99.4758C155.25 99.6482 154.803 99.735 154.304 99.735C153.478 99.735 152.849 99.5638 152.415 99.2216C151.981 98.8769 151.707 98.3697 151.588 97.6977ZM145.847 95.8116H149.395C149.347 95.2796 149.211 94.8791 148.988 94.6138C148.645 94.1996 148.2 93.9925 147.654 93.9925C147.16 93.9925 146.743 94.1574 146.406 94.4873C146.07 94.8171 145.884 95.2586 145.847 95.8116ZM149.382 97.5488L150.495 97.6852C150.319 98.335 149.994 98.8385 149.52 99.1968C149.044 99.5527 148.437 99.7325 147.7 99.7325C146.771 99.7325 146.035 99.4473 145.492 98.8769C144.946 98.3065 144.675 97.5067 144.675 96.475C144.675 95.4074 144.951 94.5803 145.5 93.9913C146.052 93.4023 146.764 93.1072 147.642 93.1072C148.491 93.1072 149.186 93.3961 149.723 93.9727C150.262 94.5493 150.531 95.3615 150.531 96.4068C150.531 96.4725 150.528 96.568 150.524 96.6945H145.787C145.826 97.3914 146.024 97.9246 146.379 98.2941C146.735 98.6648 147.176 98.8496 147.707 98.8496C148.101 98.8496 148.437 98.7455 148.717 98.5384C148.998 98.3325 149.218 98.0027 149.382 97.5488ZM140.772 99.5899V93.2523H141.74V94.212C141.988 93.7644 142.216 93.4668 142.426 93.3242C142.635 93.1816 142.865 93.1084 143.116 93.1084C143.479 93.1084 143.847 93.225 144.222 93.4544L143.851 94.4526C143.59 94.2963 143.326 94.2182 143.063 94.2182C142.827 94.2182 142.615 94.2889 142.428 94.4302C142.24 94.5728 142.107 94.7688 142.027 95.0192C141.907 95.3999 141.848 95.8178 141.848 96.2717V99.5899H140.772ZM137.964 99.5899V98.6587C137.468 99.3754 136.796 99.7325 135.947 99.7325C135.573 99.7325 135.222 99.6606 134.898 99.518C134.573 99.3754 134.332 99.1943 134.174 98.9786C134.015 98.7603 133.904 98.4962 133.841 98.1825C133.798 97.9705 133.775 97.6369 133.775 97.1781V93.2523H134.852V96.7664C134.852 97.3281 134.874 97.7051 134.917 97.901C134.987 98.1837 135.13 98.4044 135.349 98.5669C135.57 98.7281 135.841 98.8074 136.164 98.8074C136.487 98.8074 136.788 98.7256 137.073 98.5607C137.357 98.3958 137.556 98.1689 137.673 97.8861C137.791 97.6009 137.851 97.188 137.851 96.6474V93.251H138.927V99.5887L137.964 99.5899ZM132.577 98.6277L132.732 99.5775C132.43 99.6407 132.158 99.673 131.919 99.673C131.528 99.673 131.225 99.6122 131.008 99.487C130.793 99.3655 130.643 99.2018 130.555 98.9996C130.466 98.8 130.422 98.3759 130.422 97.7324V94.0868H129.631V93.251H130.422V91.6812L131.493 91.0376V93.2523H132.576V94.088H131.493V97.7931C131.493 98.1006 131.512 98.2966 131.548 98.3834C131.586 98.4714 131.647 98.5409 131.733 98.5929C131.819 98.6438 131.942 98.6698 132.101 98.6698C132.224 98.671 132.381 98.6574 132.577 98.6277ZM127.298 96.4081C126.905 96.5693 126.32 96.7032 125.54 96.816C125.097 96.8793 124.782 96.9499 124.601 97.0305C124.417 97.1099 124.274 97.2264 124.176 97.3814C124.076 97.534 124.025 97.7039 124.025 97.8911C124.025 98.1788 124.136 98.4169 124.352 98.6078C124.568 98.7975 124.887 98.893 125.305 98.893C125.719 98.893 126.09 98.8037 126.412 98.6214C126.735 98.4404 126.974 98.1912 127.124 97.8787C127.241 97.6356 127.298 97.2773 127.298 96.8049V96.4081ZM127.387 98.8074C126.987 99.146 126.603 99.3841 126.236 99.5242C125.867 99.6631 125.471 99.7325 125.048 99.7325C124.35 99.7325 123.815 99.5638 123.44 99.2228C123.066 98.8831 122.878 98.4466 122.878 97.9196C122.878 97.6084 122.947 97.3244 123.09 97.0677C123.231 96.811 123.417 96.6052 123.646 96.4502C123.877 96.2952 124.135 96.1774 124.422 96.0981C124.632 96.0435 124.951 95.9877 125.378 95.9369C126.248 95.8327 126.889 95.7112 127.299 95.5661C127.303 95.4198 127.305 95.3255 127.305 95.2871C127.305 94.8494 127.203 94.5394 127 94.362C126.726 94.1178 126.316 93.9975 125.774 93.9975C125.268 93.9975 124.894 94.0855 124.65 94.2628C124.409 94.4402 124.231 94.7539 124.116 95.204L123.064 95.0589C123.16 94.6113 123.318 94.2455 123.537 93.9714C123.755 93.6949 124.074 93.4804 124.488 93.3316C124.901 93.1828 125.382 93.1072 125.929 93.1072C126.473 93.1072 126.911 93.1729 127.251 93.2981C127.59 93.4271 127.839 93.5858 128 93.7792C128.159 93.9727 128.27 94.2145 128.336 94.5109C128.371 94.6944 128.388 95.0242 128.388 95.5004V96.9326C128.388 97.9332 128.41 98.5644 128.458 98.8273C128.502 99.0926 128.594 99.3469 128.73 99.5887H127.605C127.492 99.3679 127.418 99.1075 127.387 98.8074ZM117.071 95.8116H120.617C120.57 95.2796 120.433 94.8791 120.21 94.6138C119.867 94.1996 119.422 93.9925 118.877 93.9925C118.382 93.9925 117.966 94.1574 117.629 94.4873C117.293 94.8171 117.108 95.2586 117.071 95.8116ZM120.606 97.5488L121.718 97.6852C121.543 98.335 121.218 98.8385 120.744 99.1968C120.268 99.5527 119.661 99.7325 118.924 99.7325C117.995 99.7325 117.258 99.4473 116.715 98.8769C116.169 98.3065 115.898 97.5067 115.898 96.475C115.898 95.4074 116.174 94.5803 116.724 93.9913C117.276 93.4023 117.988 93.1072 118.865 93.1072C119.716 93.1072 120.409 93.3961 120.946 93.9727C121.486 94.5493 121.754 95.3615 121.754 96.4068C121.754 96.4725 121.752 96.568 121.748 96.6945H117.011C117.049 97.3914 117.248 97.9246 117.603 98.2941C117.958 98.6648 118.399 98.8496 118.93 98.8496C119.324 98.8496 119.661 98.7455 119.941 98.5384C120.222 98.3325 120.442 98.0027 120.606 97.5488ZM112.939 99.5899V94.088H111.989V93.2523H112.939V92.5789C112.939 92.1536 112.977 91.8349 113.053 91.6291C113.158 91.3501 113.339 91.1244 113.6 90.9508C113.861 90.7772 114.227 90.6917 114.699 90.6917C115.001 90.6917 115.337 90.7264 115.703 90.7995L115.542 91.737C115.319 91.6961 115.107 91.6762 114.907 91.6762C114.58 91.6762 114.35 91.7456 114.214 91.8858C114.077 92.0246 114.01 92.2851 114.01 92.6682V93.2523H115.247V94.088H114.012V99.5899H112.939Z" fill="white"/>
<path d="M61.0404 62.7842V92.1759C61.0404 92.1759 61.2044 95.3491 58.7209 97.4781C55.8148 99.9668 54.2959 99.4398 54.2959 99.4398V62.7842H61.0404Z" fill="white"/>
<path d="M73.6412 62.7842V76.2878C73.6412 77.5575 73.7518 79.265 75.0781 80.4777C75.9072 81.1945 77.2297 81.6905 78.5013 81.6905C79.7704 81.6905 81.0967 81.1945 81.9257 80.4777C83.252 79.265 83.3664 77.5575 83.3664 76.2878V62.7842H90.1034V77.3889C90.1034 79.5391 89.8274 82.4059 87.1761 84.7198C84.9636 86.6492 81.4286 87.423 78.5013 87.423C75.5741 87.423 72.0353 86.6492 69.8265 84.7198C67.1702 82.4059 66.8955 79.5391 66.8955 77.3889V62.7842H73.6412Z" fill="white"/>
<path d="M108.493 68.457C106.892 66.974 105.287 66.8636 104.569 66.8636C102.968 66.8636 101.97 67.6336 101.97 68.793C101.97 69.3994 102.248 70.3331 104.129 70.9432L105.733 71.4392C107.61 72.0456 110.427 72.983 111.81 74.8591C112.529 75.8499 113.022 77.2796 113.022 78.8284C113.022 80.9748 112.306 83.125 110.373 84.8895C108.439 86.6552 106.116 87.4253 103.189 87.4253C98.2169 87.4253 95.3966 85.0544 93.9062 83.456L97.4413 79.3764C98.7676 80.9202 100.758 82.1292 102.745 82.1292C104.626 82.1292 106.061 81.1955 106.061 79.5401C106.061 78.0534 104.847 77.447 103.963 77.1159L102.416 76.5629C100.704 75.9565 98.7129 75.1865 97.276 73.6997C96.1685 72.5403 95.4525 71.0498 95.4525 69.1241C95.4525 66.8066 96.5575 64.8784 97.9373 63.719C99.8167 62.2322 102.248 62.0115 104.181 62.0115C105.951 62.0115 108.766 62.2322 111.809 64.546L108.493 68.457Z" fill="white"/>
<path d="M125.694 68.5142V86.6529H118.953V68.5142H116.301V62.7842H118.953V54.6262H125.694V62.7842H130.334V68.5142H125.694Z" fill="white"/>
<path d="M145.364 72.6434C144.941 72.2218 144.356 71.9601 143.711 71.9601C143.065 71.9601 142.48 72.2218 142.057 72.6434C141.635 73.065 141.372 73.649 141.372 74.2926C141.372 74.9361 141.635 75.5202 142.057 75.9418C142.48 76.3634 143.065 76.625 143.711 76.625C144.356 76.625 144.941 76.3634 145.364 75.9418C145.786 75.5202 146.049 74.9361 146.049 74.2926C146.049 73.6478 145.786 73.065 145.364 72.6434ZM143.711 71.5571C144.468 71.5571 145.154 71.8634 145.65 72.3582C146.146 72.8529 146.453 73.5374 146.453 74.2926C146.453 75.0477 146.146 75.7322 145.65 76.227C145.154 76.7217 144.468 77.028 143.711 77.028C142.955 77.028 142.269 76.7217 141.773 76.227C141.277 75.7322 140.97 75.0477 140.97 74.2926C140.97 73.5387 141.277 72.8542 141.773 72.3582C142.267 71.8634 142.954 71.5571 143.711 71.5571Z" fill="white"/>
<path d="M142.994 72.936V74.1884H143.406C143.535 74.1884 143.644 74.1847 143.735 74.176C143.825 74.1674 143.907 74.1512 143.978 74.1302C144.124 74.0855 144.236 74.0148 144.314 73.9181C144.392 73.8202 144.432 73.6937 144.432 73.5362C144.431 73.3899 144.392 73.2721 144.319 73.1816C144.246 73.0923 144.144 73.0278 144.014 72.9894C143.952 72.9708 143.879 72.9571 143.794 72.9484C143.709 72.941 143.6 72.936 143.469 72.936H142.994ZM142.994 74.5642V75.9802H142.576V72.5591H143.466C143.617 72.5591 143.745 72.564 143.849 72.5752C143.955 72.5864 144.05 72.6037 144.137 72.6273C144.377 72.6918 144.56 72.8034 144.686 72.9596C144.812 73.1146 144.876 73.3093 144.876 73.5436C144.876 73.6813 144.855 73.8053 144.81 73.9144C144.765 74.0235 144.703 74.1178 144.622 74.1984C144.541 74.279 144.446 74.3434 144.334 74.3955C144.222 74.4464 144.098 74.4836 143.961 74.5071V74.517L145.081 75.9802H144.556L143.5 74.5642H142.994Z" fill="white"/>
<path fill-rule="evenodd" clip-rule="evenodd" d="M57.5579 21.5281C59.0992 21.4227 60.5946 22.3093 61.41 23.2256C62.285 24.2176 62.8556 25.7304 62.5883 27.3102C62.2987 29.0338 61.5156 29.9043 60.3397 30.7202C59.2409 31.5051 58.3609 32.6831 58.3895 34.3435C58.4119 35.9307 59.2845 37.1397 60.3435 37.8576C61.3901 38.5533 63.0035 38.7889 64.3857 38.1862C65.6374 37.622 66.413 36.547 66.9264 35.3429C67.2247 34.6225 67.3974 34.1029 67.8126 33.5561C68.2091 33.0328 68.8169 32.5802 69.2532 32.3148C71.9853 30.714 75.0406 31.9875 76.2376 34.3522C77.7491 37.3083 75.8809 40.3054 73.4695 41.1796C72.0176 41.6992 70.357 41.4822 69.2159 40.8299C68.6442 40.4889 68.1693 40.081 67.5143 39.8615C66.8841 39.642 66.1942 39.4647 65.4186 39.5416C63.2098 39.7772 61.5989 41.3867 61.5467 43.739C61.5206 44.473 61.6809 45.186 62.0402 45.8358C62.6281 46.8923 63.7853 47.8024 65.0681 48.1335C65.7579 48.3096 66.6069 48.2811 67.339 48.4559C69.2744 48.9346 70.8766 50.5292 71.1065 52.7748C71.2681 54.4079 70.6354 55.7583 69.7504 56.7032C68.8828 57.6232 67.5006 58.3276 65.9382 58.206C64.3745 58.0833 63.1775 57.3839 62.3696 56.4341C61.5666 55.483 60.9538 53.9094 61.2695 52.4202C61.4236 51.7332 61.7394 51.0426 61.8127 50.3134C61.9942 48.6159 61.1974 47.268 60.2465 46.5054C58.6915 45.2518 56.136 45.2753 54.5723 46.8179C53.6512 47.733 53.0446 49.1726 53.4287 50.8144C53.6077 51.582 53.8762 52.228 53.8998 53.039C53.993 55.4309 52.5487 57.219 50.7675 57.8998C49.394 58.4181 47.6264 58.2556 46.4357 57.5873C45.2884 56.9586 44.4456 55.7682 44.1498 54.486C43.803 52.9385 44.2032 51.4307 45.0012 50.3308C45.747 49.3165 46.7365 48.5576 48.4394 48.3654C49.3119 48.2625 49.9807 48.229 50.627 47.9438C52.2578 47.2345 53.9383 45.5035 53.3417 42.861C53.1689 42.0935 52.7873 41.6421 52.3597 41.161C51.9247 40.6737 51.4486 40.2719 50.8607 39.9793C49.701 39.4188 48.2392 39.5825 47.1864 40.1454C46.642 40.417 46.243 40.8324 45.711 41.068C43.8179 41.9236 41.5992 41.4375 40.3301 40.3066C39.4936 39.5788 38.8223 38.5297 38.6185 37.2637C38.3662 35.6678 38.9392 34.3968 39.5855 33.5573C40.2717 32.6571 41.312 31.9999 42.555 31.7544C43.9671 31.4642 45.3356 31.8424 46.2355 32.4376C47.2324 33.0613 47.8912 33.9479 48.3101 35.0962C48.7874 36.3944 49.2498 37.2054 50.3088 37.8824C51.2212 38.4714 52.6481 38.8174 54.039 38.2991C55.1366 37.88 56.0166 37.0814 56.4778 35.9741C56.9688 34.8358 56.965 33.3453 56.2988 32.2057C56.0017 31.711 55.6288 31.2819 55.2137 30.9025C54.8109 30.5367 54.3485 30.2118 53.9744 29.7728C53.2758 28.952 52.6978 27.7578 52.7973 26.2227C52.9701 23.6311 54.8967 21.7277 57.5579 21.5281Z" fill="white"/>
<path fill-rule="evenodd" clip-rule="evenodd" d="M134.966 77.1508C134.332 76.3634 133.927 75.4247 133.84 75.3169L132.132 82.9292C136.385 86.9394 140.931 87.423 143.813 87.423C153.982 87.423 158.236 80.9725 158.236 74.0235C158.236 66.09 152.656 61.5677 145.414 61.5677C144.475 61.5677 143.703 61.6781 142.984 61.7897L144.314 55.9989H156.578V49.8262H139.561L135.232 69.1206H135.637C138.29 67.1341 140.83 66.7497 142.711 66.7497C148.348 66.7497 151.056 70.2763 151.056 74.1339C151.056 78.3276 148.068 81.2478 143.647 81.2478C139.305 81.2465 136.609 79.1919 134.966 77.1508Z" fill="white"/>
</g>
<rect x="0.5" y="0.5" width="199" height="119" stroke="black"/>
<defs>
<clipPath id="clip0_662_39">
<rect width="133" height="93" fill="white" transform="translate(34 14)"/>
</clipPath>
</defs>
</svg>
