<?xml version="1.0" encoding="utf-8"?>
<!-- Generator: Adobe Illustrator 24.0.1, SVG Export Plug-In . SVG Version: 6.00 Build 0)  -->
<svg version="1.1" id="Слой_1" xmlns="http://www.w3.org/2000/svg" xmlns:xlink="http://www.w3.org/1999/xlink" x="0px" y="0px"
	 viewBox="0 0 200 120" style="enable-background:new 0 0 200 120;" xml:space="preserve">
<style type="text/css">
	.st0{fill-rule:evenodd;clip-rule:evenodd;fill:#CE3736;}
</style>
<g>
	<path class="st0" d="M29.6,56.6c2.3,0,4.1,0,6.4,0c4.8-0.2,7-6,2.1-6.3l-4.4,0c-1.4,0-2.5,0.7-3,2L29.6,56.6L29.6,56.6z M26.1,68.4
		c2.3,0,4.1,0,6.4,0c7.2-0.1,8.5-8.6,2.4-8.3h-6.4l-1.3,4.1L26.1,68.4L26.1,68.4z M32.7,72.5H15.7l7.9-25.7h17.9
		c13.3,0,9,9.8,2.6,11.2c-0.1,0.1-0.1,0.3,0.1,0.3C52.1,60.8,50.1,73,32.7,72.5L32.7,72.5z M58.9,72.6h-8.5c0-0.6,3.7-12.2,3.8-12.6
		c2.4-7.4,13-7.8,19.4-7.2l-0.8,3.4c-8.8-0.4-9.6,2.4-11.7,9L58.9,72.6L58.9,72.6z"/>
	<path class="st0" d="M87.1,66.7c-0.7,2.8-5,2.7-6.5,0.8c-2-2.6-0.6-8.5,9.6-11C89.2,59.8,87.7,64.9,87.1,66.7L87.1,66.7z
		 M94.1,72.5l-16.4-0.1C64,72.2,67.9,50.8,99.9,52.9L94.1,72.5L94.1,72.5z M149.6,66.9c-0.7,2.8-5,2.7-6.5,0.8
		c-2-2.6-0.6-8.5,9.6-11C151.7,60,150.2,65.1,149.6,66.9L149.6,66.9z M156.6,72.7l-16.4-0.1c-12.4-0.2-10.4-17.6,13.7-19.5l1.7-5.9
		l8.6,0L156.6,72.7L156.6,72.7z M109,72.5l-8.6,0.1l3.7-11.6c3.4-8.5,10.3-8.2,19.8-7.9c3.4,0.2,7.8,1,6,6.9
		c-1.3,4.2-2.6,8.3-3.8,12.5l-8.8,0.1l3.7-11.7c1.3-3.6-0.2-4.8-2.2-4.9c-3.4-0.2-5.6,2-6.1,4.3L109,72.5L109,72.5z M181,68.4
		l-1.1,4.1c-3.1,0.5-8.5,1.3-11.8,0.2c-3.4-0.9-4.1-3.3-3.3-5.9c0,0,5.8-17.7,5.8-19.5l8.5,0.1l-1.5,6.2l6.7,0.1l-0.7,3.2l-7.1-0.1
		l-2.5,8.3C172.6,70.1,178.4,68.5,181,68.4L181,68.4z"/>
</g>
</svg>
