<?xml version="1.0" encoding="utf-8"?>
<!-- Generator: Adobe Illustrator 24.0.1, SVG Export Plug-In . SVG Version: 6.00 Build 0)  -->
<svg version="1.1" id="Слой_1" xmlns="http://www.w3.org/2000/svg" xmlns:xlink="http://www.w3.org/1999/xlink" x="0px" y="0px"
	 viewBox="0 0 200 120" style="enable-background:new 0 0 200 120;" xml:space="preserve">
<style type="text/css">
	.st0{fill:#CC2229;}
</style>
<g>
	<path class="st0" d="M28,67.5C30.8,72,35.8,75,41.4,75c8.2,0,12.8-7.1,12.8-7.1l0.6,1.9c-3.8,5-10.6,8-18.3,8
		c-8.8,0-16.4-4.2-19.9-10.2c-1.3-2.3-2-4.8-2-7.5c0-9.8,9.8-17.7,21.9-17.7c8.5,0,15.4,3.7,19,9l-14.3,8.6l8.2-12.6
		c-2.3-1.5-5.2-2.9-8.2-2.9c-8.4,0-15.3,7-15.3,15.4C25.9,62.6,26.7,65.3,28,67.5z M66.4,67.5c0,0.3-0.1,0.6-0.1,0.9
		c0,3.2,2.6,5.8,5.8,5.8c3.2,0,5.8-2.6,5.8-5.8c0-0.3,0-0.6-0.1-0.9c-0.4-2.8-2.8-4.9-5.7-4.9C69.3,62.6,66.9,64.7,66.4,67.5
		L66.4,67.5z M87.9,67.5l2.9,9.7H80.7l-2-6.6c-1.3,3.8-5.8,6.6-11.1,6.6c-6.4,0-11.5-4-11.5-9c0-0.2,0-0.5,0-0.7
		c0.5-4.6,5.4-8.3,11.5-8.3c3.4,0,6.5,1.2,8.6,3l-2.7-9.2H61.9c0,0,1.9-1.2,10.4-4.3c8.5-3.1,11.2,4.3,11.2,4.3L87.9,67.5L87.9,67.5
		z M120,67.5v9.7h-10.4V55.9c0-1.6-1.3-2.8-2.8-2.8l0,0c-1.2,0-2.2,0.7-2.6,1.8v22.3H94.1V53.1h-5.9c0,0,8.2-5,11.1-5
		c2.7,0,4.7,2.1,5,4.7c4-2.2,7.9-4.7,10.7-4.7c2.8,0,5.1,2.2,5.2,5L120,67.5L120,67.5z M136,67.5l1.4,4.8c0,2,1.7,3.7,3.8,3.7
		c2.1,0,3.8-1.7,3.8-3.8c0-0.1,0-0.3,0-0.4l-1.2-4.2l-4.3-14.7c-0.2-1.9-1.8-3.4-3.8-3.4c-1.9,0-3.8,1.8-4,3.7L136,67.5L136,67.5z
		 M152.5,67.5c-2,5.9-7.6,10.2-14.2,10.2c-6.6,0-12.2-4.3-14.2-10.2c-0.5-1.5-0.7-3.1-0.7-4.7c0-8.2,6.7-14.9,14.9-14.9
		c8.2,0,14.9,6.7,14.9,14.9C153.2,64.5,152.9,66,152.5,67.5z M169.6,67.5v9.7h-10.2V53.1h-5.7c0,0,8-5,10.9-5c2.7,0,4.7,2.1,5,4.7
		c4-2.2,7.9-4.7,10.7-4.7c2.8,0,5.1,2.2,5.2,5v24h-10.4V55.9c0-1.6-1.3-2.8-2.8-2.8l0,0c-1.2,0-2.2,0.7-2.6,1.8V67.5L169.6,67.5z"/>
</g>
</svg>
