<svg width="200" height="120" viewBox="0 0 200 120" fill="none" xmlns="http://www.w3.org/2000/svg">
<g clip-path="url(#clip0_662_590)">
<path d="M63.3853 65.0894C63.6657 65.0894 63.8526 65.1353 64.0396 65.1353H73.6197C73.9936 65.1353 74.3674 65.1353 74.7413 65.0435C76.0965 64.814 77.0312 63.7585 77.0779 62.3816C77.1246 61.0048 77.1246 59.6739 77.0779 58.2971C77.0312 56.9203 75.9563 55.8647 74.4609 55.6812C73.9936 55.6353 73.4795 55.6353 73.0122 55.6353H57.684V51H76.5639C79.508 51 82.3119 53.2947 82.6858 56.0483C82.7325 56.2319 82.7325 56.4155 82.7325 56.599V64.4928C82.7325 65.5483 82.4054 66.4662 81.7044 67.2005C80.2557 68.8068 78.5266 69.7705 76.2367 69.7246C70.3017 69.6787 64.3667 69.7246 58.4784 69.7246H57.7774V58.1594H63.3853V65.0894ZM88.2002 65.2271C88.0133 66.4203 88.4806 66.971 89.6489 66.971H101.893V69.6787C101.706 69.6787 101.566 69.7246 101.379 69.7246H88.6675C86.845 69.7246 85.5365 68.8986 84.6953 67.3841C84.4616 66.971 84.3682 66.4662 84.3682 66.0072C84.3214 64.4928 84.3682 62.9783 84.3682 61.5097C84.3682 60.8213 84.6018 60.2246 85.0224 59.7657C85.9571 58.756 87.0786 58.1135 88.5273 58.1594C91.8921 58.2053 95.3035 58.1594 98.6683 58.1594C100.024 58.1594 101.005 58.8019 101.799 59.8116C102.033 60.087 102.08 60.5 102.126 60.8671C102.173 61.6473 102.126 62.4275 102.126 63.2536C102.126 64.6763 101.519 65.2729 100.07 65.2729H88.761C88.6208 65.2271 88.3871 65.2271 88.2002 65.2271ZM88.2002 62.5193H98.3411C98.6215 61.3261 98.2477 60.8671 97.0326 60.8671H89.6022C88.5741 60.8671 88.06 61.4638 88.2002 62.5193ZM150.074 65.2271C149.887 66.3744 150.401 66.971 151.476 66.971H163.72V69.6787C163.58 69.6787 163.439 69.7246 163.299 69.7246H150.401C148.999 69.7246 147.924 69.1739 147.036 68.1184C146.476 67.4758 146.148 66.7415 146.195 65.8696C146.242 64.401 146.242 62.9783 146.195 61.5097C146.195 60.7295 146.475 60.087 146.99 59.5821C147.924 58.6643 148.999 58.1135 150.354 58.1135C153.766 58.1594 157.177 58.1135 160.542 58.1135C161.897 58.1135 162.925 58.8019 163.673 59.8575C163.86 60.087 163.907 60.4541 163.953 60.7295C164 61.6473 163.953 62.5193 163.953 63.4372C163.953 64.5386 163.393 65.1353 162.271 65.2271C161.991 65.2729 161.664 65.2729 161.383 65.2729C157.831 65.2729 154.28 65.2729 150.728 65.2271H150.074ZM150.074 62.5193H160.262C160.402 61.1884 160.168 60.8671 158.86 60.8671H151.476C150.448 60.8671 149.934 61.5097 150.074 62.5193ZM55.5343 58.1135C53.4781 60.087 51.562 61.9686 49.5525 63.8961C51.749 65.8696 53.8519 67.7053 56.0483 69.6787C54.88 69.6787 53.8986 69.587 52.9173 69.6787C51.4218 69.8623 50.3003 69.4034 49.2721 68.3019C48.3375 67.2923 47.2159 66.3744 46.1878 65.4565C46.1411 65.4106 46.1411 65.4106 46.0476 65.3647C45.0195 66.2826 43.8979 67.2005 42.9633 68.2101C41.9352 69.3575 40.7668 69.8623 39.2247 69.6787C38.2433 69.5411 37.2152 69.6787 36.0469 69.6787C38.29 67.7053 40.393 65.8237 42.5427 63.942C40.6734 62.0145 38.8041 60.1328 36.8881 58.1594C37.075 58.1594 37.2152 58.1135 37.3554 58.1135H40.9538C41.2342 58.1135 41.5613 58.2512 41.795 58.4348C43.01 59.5362 44.1783 60.6836 45.3934 61.8309C45.627 62.0145 45.8139 62.244 46.0943 62.4734C46.5617 62.0604 46.9823 61.6473 47.4028 61.2802C48.431 60.3164 49.4123 59.3986 50.4872 58.4348C50.6741 58.2512 51.0012 58.1135 51.2816 58.1135H55.5343ZM144.559 58.1135V60.8213C144.326 60.8213 144.139 60.8671 143.905 60.8671H136.054C135.447 60.8671 134.886 61.0048 134.419 61.4179C133.951 61.785 133.671 62.244 133.718 62.8406C133.764 63.529 133.718 64.2174 133.718 64.9517C133.718 66.1908 134.419 66.8792 135.68 66.8792H144.559V69.7246H134.325C133.25 69.7246 132.269 69.4952 131.381 68.8986C130.353 68.2101 129.792 67.2464 129.839 66.0072C129.885 64.6304 129.885 63.2995 129.839 61.9227C129.745 60.5459 130.4 59.6739 131.428 58.8937C132.129 58.3889 132.923 58.1135 133.858 58.1135C137.176 58.1594 140.494 58.1135 143.812 58.1135H144.559ZM122.876 58.1135C120.96 61.1884 119.09 64.1715 117.221 67.1546C116.987 67.4758 116.8 67.843 116.567 68.1643C114.931 70.8261 110.538 70.4589 109.09 67.9807C107.267 64.814 105.258 61.6932 103.342 58.5725C103.248 58.4348 103.201 58.343 103.108 58.1135H107.174C107.314 58.1135 107.501 58.343 107.594 58.5266C109.136 61.0048 110.678 63.4372 112.267 65.9155C112.781 66.7415 113.109 66.7415 113.623 65.9155C115.165 63.4372 116.754 61.0048 118.296 58.5266C118.483 58.2053 118.67 58.1135 119.044 58.1135H122.876ZM124.278 58.1135H127.923V69.6328H124.278V58.1135Z" fill="black"/>
</g>
<rect x="0.5" y="0.5" width="199" height="119" stroke="black"/>
<defs>
<clipPath id="clip0_662_590">
<rect width="128" height="19" fill="white" transform="translate(36 51)"/>
</clipPath>
</defs>
</svg>
