<?xml version="1.0" encoding="utf-8"?>
<!-- Generator: Adobe Illustrator 24.0.1, SVG Export Plug-In . SVG Version: 6.00 Build 0)  -->
<svg version="1.1" id="logo" xmlns="http://www.w3.org/2000/svg" xmlns:xlink="http://www.w3.org/1999/xlink" x="0px" y="0px"
	 viewBox="0 0 200 120" style="enable-background:new 0 0 200 120;" xml:space="preserve">
<style type="text/css">
	.st0{fill:#1428A0;}
</style>
<path id="svg_1" class="st0" d="M160.6,68.8h-0.1l-6-20.8h-9.6v26.2h6.4l-0.4-21.5h0.1l6.4,21.5h9.3V48h-6.4L160.6,68.8z M37.8,48
	L33,74.5h7l3.6-24.1h0.1l3.5,24.1h7L49.4,48H37.8z M77.1,48l-3.2,20.3h-0.1L70.6,48H60l-0.6,26.5h6.5l0.2-23.8h0.1l4.3,23.8h6.6
	l4.3-23.8l0.1,0l0.2,23.8h6.5L87.7,48H77.1z M16.9,54.8c-0.1-0.5-0.1-1.1,0-1.4c0.2-0.9,0.7-1.8,2.4-1.8c1.5,0,2.4,1,2.4,2.4v1.6
	h6.5v-1.9c0-5.8-5.1-6.7-8.8-6.7c-4.6,0-8.4,1.6-9.1,5.9c-0.2,1.2-0.2,2.2,0.1,3.6c1.1,5.4,10.4,7,11.7,10.4c0.3,0.6,0.2,1.5,0,2
	c-0.2,0.9-0.8,1.8-2.5,1.8c-1.6,0-2.6-0.9-2.6-2.4l0-2.6h-7l0,2c0,5.9,4.6,7.7,9.5,7.7c4.7,0,8.6-1.6,9.2-6c0.3-2.3,0.1-3.8,0-4.4
	C27.5,59.6,17.7,57.9,16.9,54.8z M101.5,54.9c-0.1-0.5-0.1-1.1,0-1.4c0.2-0.8,0.7-1.8,2.4-1.8c1.5,0,2.4,0.9,2.4,2.4v1.6h6.4v-1.8
	c0-5.7-5-6.6-8.7-6.6c-4.6,0-8.3,1.5-9,5.8c-0.2,1.2-0.2,2.2,0.1,3.5c1.1,5.4,10.3,6.9,11.6,10.3c0.2,0.6,0.2,1.5,0.1,1.9
	c-0.2,0.9-0.8,1.7-2.5,1.7c-1.6,0-2.6-0.9-2.6-2.4l0-2.6h-6.9v2c0,5.9,4.5,7.6,9.4,7.6c4.7,0,8.5-1.6,9.1-6c0.3-2.3,0.1-3.8,0-4.3
	C112,59.6,102.2,58,101.5,54.9z M131,67.6c0,0.3,0,0.7-0.1,1c-0.1,0.7-0.7,1.9-2.5,1.9c-1.8,0-2.4-1.2-2.5-1.9
	c-0.1-0.3-0.1-0.7-0.1-1V48h-6.6v19c0,0.5,0,1.5,0.1,1.8c0.4,4.9,4.3,6.5,9.1,6.5c4.8,0,8.6-1.6,9.1-6.5c0-0.3,0.1-1.3,0.1-1.8V48
	H131L131,67.6L131,67.6z M182.7,59.6v3.9h2.7v3.8c0,0.3,0,0.7-0.1,1c-0.1,0.7-0.8,1.9-2.7,1.9c-1.9,0-2.5-1.2-2.7-1.9
	c-0.1-0.3-0.1-0.7-0.1-1V55.2c0-0.4,0-0.9,0.1-1.2c0.1-0.7,0.7-1.9,2.6-1.9c2,0,2.5,1.3,2.6,1.9c0.1,0.4,0.1,1,0.1,1v1.5h6.6v-0.9
	c0,0,0-0.9-0.1-1.7c-0.5-5-4.5-6.6-9.1-6.6c-4.6,0-8.6,1.6-9.1,6.6c-0.1,0.4-0.1,1.3-0.1,1.7l0,11.2c0,0.5,0,0.9,0.1,1.8
	c0.4,4.8,4.5,6.6,9.1,6.6c4.6,0,8.7-1.7,9.1-6.6c0.1-0.9,0.1-1.3,0.1-1.8v-7.1H182.7z"/>
</svg>
