<svg width="200" height="120" viewBox="0 0 200 120" fill="none" xmlns="http://www.w3.org/2000/svg">
<g clip-path="url(#clip0_662_210)">
<path d="M56.4634 75.7707H28.0303C26.354 75.7707 25 74.4118 25 72.7942V48.206C25 46.5236 26.354 45.2295 27.9658 45.2295C29.6421 45.2295 30.9316 46.5883 30.9316 48.206V69.8177H55.045L59.4937 64.5118C60.5898 63.2177 62.4595 63.0883 63.6845 64.1883C64.974 65.2883 65.103 67.1648 64.0069 68.3942L58.6556 74.8001C58.1398 75.3824 57.3016 75.7707 56.4634 75.7707Z" fill="black"/>
<path d="M156.076 75.9647C155.561 75.9647 154.98 75.9647 154.4 75.9C152.724 75.8353 151.499 74.4117 151.563 72.7294C151.628 71.047 153.046 69.8176 154.722 69.8823C160.396 70.2059 164.651 68.5235 166.715 65.1588C168.52 62.1823 168.455 58.2353 166.65 55.0647C165.683 53.3176 163.297 50.4706 158.526 50.6H158.462H149.113L149.178 72.6647C149.178 73.4411 148.855 74.2176 148.275 74.8C147.695 75.3823 146.985 75.7059 146.147 75.7059H144.535C143.633 75.7059 142.859 75.3176 142.279 74.6706L120.422 49.1117C119.326 47.8823 119.519 45.9411 120.744 44.9059C121.969 43.8059 123.904 44 124.935 45.2294L143.053 66.5176V47.6235C143.053 46.847 143.375 46.0706 143.955 45.4882C144.535 44.9059 145.245 44.5823 146.083 44.5823H158.333C164.071 44.3882 168.971 47.1059 171.808 52.0235C174.709 57.0706 174.709 63.4117 171.808 68.2647C170.003 71.2411 165.619 75.9647 156.076 75.9647Z" fill="black"/>
<path d="M77.6753 75.7705C76.7726 75.7705 75.9345 75.3823 75.4187 74.7353L55.0448 50.7294H41.9565C40.2802 50.7294 38.9907 49.3706 38.9907 47.7529C38.9907 46.0706 40.3447 44.7764 41.9565 44.7764H56.4632C57.3659 44.7764 58.2041 45.1647 58.7198 45.8117L77.6753 68.2L97.1465 45.2941C97.7268 44.647 98.5649 44.2588 99.4031 44.2588C100.306 44.2588 101.079 44.647 101.66 45.2941L119.584 66.4529V60.4353C119.584 58.7529 120.938 57.4588 122.549 57.4588C124.226 57.4588 125.515 58.8176 125.515 60.4353V72.8588C125.515 74.5411 124.161 75.8353 122.549 75.8353H121.066C120.164 75.8353 119.39 75.447 118.81 74.8L99.4676 51.7647L79.9319 74.7353C79.3516 75.3823 78.5134 75.7705 77.6753 75.7705Z" fill="black"/>
<path d="M52.7237 63.1529H42.021C40.3447 63.1529 39.0552 61.7941 39.0552 60.1764C39.0552 58.4941 40.4091 57.2 42.021 57.2H52.7237C54.4 57.2 55.6895 58.5588 55.6895 60.1764C55.6895 61.7941 54.4 63.1529 52.7237 63.1529Z" fill="black"/>
<path d="M72.7753 56.553C72.0661 56.553 71.3569 56.2942 70.8411 55.8413C69.616 54.7413 69.4871 52.8648 70.5187 51.6354L76.128 45.1001C77.224 43.8707 79.0938 43.7413 80.3188 44.7766C81.5438 45.8766 81.6727 47.753 80.6411 48.9824L75.0319 55.5177C74.4516 56.1648 73.6135 56.553 72.7753 56.553Z" fill="black"/>
<path fill-rule="evenodd" clip-rule="evenodd" d="M107.269 69.1705C107.269 73.5058 103.788 76.9999 99.4679 76.9999C95.1481 76.9999 91.6665 73.5058 91.6665 69.1705C91.6665 64.8352 95.1481 61.3411 99.4679 61.3411C103.788 61.3411 107.269 64.8999 107.269 69.1705Z" fill="#00AD4D"/>
</g>
<rect x="0.5" y="0.5" width="199" height="119" stroke="black"/>
<defs>
<clipPath id="clip0_662_210">
<rect width="149" height="33" fill="white" transform="translate(25 44)"/>
</clipPath>
</defs>
</svg>
