<svg width="200" height="120" viewBox="0 0 200 120" fill="none" xmlns="http://www.w3.org/2000/svg">
<mask id="path-2-outside-1_654_907" maskUnits="userSpaceOnUse" x="7" y="46" width="186" height="28" fill="black">
<rect fill="white" x="7" y="46" width="186" height="28"/>
<path d="M26.64 71.815H9L9.07 71.395C10.2367 71.395 11.0883 71.1733 11.625 70.73C12.2083 70.24 12.5 67.965 12.5 63.905V55.225C12.5 52.7283 12.4183 51.025 12.255 50.115C12.115 49.1817 11.905 48.5983 11.625 48.365C11.0883 47.9217 10.2367 47.7 9.07 47.7L9 47.315H25.345V52.355L24.925 52.285C24.925 50.7217 24.0967 49.6367 22.44 49.03C20.8067 48.4233 18.2983 48.12 14.915 48.12V59.145C17.155 59.145 18.765 59.0283 19.745 58.795C20.725 58.5617 21.355 58.2117 21.635 57.745C21.915 57.255 22.055 56.45 22.055 55.33L22.44 55.26V63.765L22.055 63.695C22.055 62.5517 21.915 61.7467 21.635 61.28C21.355 60.8133 20.725 60.475 19.745 60.265C18.765 60.0317 17.155 59.915 14.915 59.915V64.43C14.915 66.9033 14.9967 68.5483 15.16 69.365C15.3467 70.1817 15.7433 70.73 16.35 71.01C22.93 71.01 26.22 69.61 26.22 66.81L26.64 66.74V71.815Z"/>
<path d="M47.3324 71.815H30.6024L30.6724 71.395C31.2324 71.395 31.6757 71.3717 32.0024 71.325C32.3524 71.2783 32.6674 71.15 32.9474 70.94C33.2274 70.73 33.4257 70.4967 33.5424 70.24C33.6824 69.96 33.7991 69.505 33.8924 68.875C34.0091 68.0583 34.0674 66.4017 34.0674 63.905V55.225C34.0674 51.7483 33.904 49.6367 33.5774 48.89C33.274 48.2367 32.7607 47.8633 32.0374 47.77C31.6874 47.7233 31.2324 47.7 30.6724 47.7L30.6024 47.315H40.0174L39.9474 47.7C38.7807 47.7 37.9291 47.9217 37.3924 48.365C36.8091 48.855 36.5174 51.1417 36.5174 55.225V64.43C36.5174 66.95 36.599 68.63 36.7624 69.47C36.9257 70.2867 37.3107 70.835 37.9174 71.115C43.9374 71.115 46.9474 69.68 46.9474 66.81L47.3324 66.74V71.815Z"/>
<path d="M67.5873 71.815H49.9473L50.0173 71.395C51.1839 71.395 52.0356 71.1733 52.5723 70.73C53.1556 70.24 53.4473 67.965 53.4473 63.905V55.225C53.4473 52.7283 53.3656 51.025 53.2023 50.115C53.0623 49.1817 52.8523 48.5983 52.5723 48.365C52.0356 47.9217 51.1839 47.7 50.0173 47.7L49.9473 47.315H66.2923V52.355L65.8723 52.285C65.8723 50.7217 65.0439 49.6367 63.3873 49.03C61.7539 48.4233 59.2456 48.12 55.8623 48.12V59.145C58.1023 59.145 59.7123 59.0283 60.6923 58.795C61.6723 58.5617 62.3023 58.2117 62.5823 57.745C62.8623 57.255 63.0023 56.45 63.0023 55.33L63.3873 55.26V63.765L63.0023 63.695C63.0023 62.5517 62.8623 61.7467 62.5823 61.28C62.3023 60.8133 61.6723 60.475 60.6923 60.265C59.7123 60.0317 58.1023 59.915 55.8623 59.915V64.43C55.8623 66.9033 55.9439 68.5483 56.1073 69.365C56.2939 70.1817 56.6906 70.73 57.2973 71.01C63.8773 71.01 67.1673 69.61 67.1673 66.81L67.5873 66.74V71.815Z"/>
<path d="M93.4596 55.19V71.99H92.3746L75.8896 51.165V63.835C75.8896 66.1683 75.9947 67.8483 76.2047 68.875C76.4147 69.9017 76.7646 70.5783 77.2546 70.905C77.7446 71.2317 78.5496 71.395 79.6696 71.395L79.7396 71.815H71.1297L71.1996 71.395C72.3196 71.395 73.1246 71.2317 73.6146 70.905C74.1046 70.5783 74.4547 69.9017 74.6646 68.875C74.898 67.8483 75.0146 66.1683 75.0146 63.835V55.19C75.0146 52.8567 74.898 51.1883 74.6646 50.185C74.4547 49.1583 74.1046 48.4933 73.6146 48.19C73.148 47.8633 72.343 47.7 71.1996 47.7L71.1297 47.315H75.8896L92.5846 68.14V55.19C92.5846 52.88 92.468 51.2117 92.2346 50.185C92.0246 49.1583 91.6746 48.4933 91.1846 48.19C90.6946 47.8633 89.878 47.7 88.7346 47.7L88.6646 47.315H97.3447L97.2747 47.7C96.1313 47.7 95.3146 47.8633 94.8246 48.19C94.3346 48.4933 93.9847 49.1583 93.7747 50.185C93.5647 51.2117 93.4596 52.88 93.4596 55.19Z"/>
<path d="M118.7 64.955C118.7 67.2883 117.802 69.015 116.005 70.135C114.232 71.255 111.793 71.815 108.69 71.815H100.465L100.535 71.395C101.118 71.395 101.573 71.3717 101.9 71.325C102.227 71.2783 102.53 71.15 102.81 70.94C103.113 70.73 103.323 70.4967 103.44 70.24C103.58 69.96 103.697 69.505 103.79 68.875C103.907 68.0583 103.965 66.4017 103.965 63.905V55.225C103.965 51.725 103.802 49.625 103.475 48.925C103.335 48.645 103.113 48.4 102.81 48.19C102.53 47.98 102.227 47.8517 101.9 47.805C101.573 47.7583 101.118 47.735 100.535 47.735L100.465 47.315H108.305C110.032 47.315 111.782 47.6183 113.555 48.225C114.558 48.5517 115.375 49.1233 116.005 49.94C116.635 50.7333 116.95 51.7017 116.95 52.845C116.95 54.4083 116.39 55.6333 115.27 56.52C114.15 57.4067 112.808 58.025 111.245 58.375C113.065 58.5617 114.698 59.1217 116.145 60.055C116.915 60.5683 117.533 61.245 118 62.085C118.467 62.925 118.7 63.8817 118.7 64.955ZM113.905 52.845C113.905 49.695 111.408 48.12 106.415 48.12V58.13H106.73C111.513 58.13 113.905 56.3683 113.905 52.845ZM115.655 64.955C115.655 60.8717 112.75 58.83 106.94 58.83H106.415V64.43C106.415 66.9733 106.485 68.6417 106.625 69.435C106.788 70.205 107.173 70.73 107.78 71.01C108.947 71.01 110.02 70.87 111 70.59C112.003 70.31 112.797 69.9717 113.38 69.575C113.987 69.1783 114.512 68.5833 114.955 67.79C115.422 66.9967 115.655 66.0517 115.655 64.955Z"/>
<path d="M139.741 71.815H122.101L122.171 71.395C123.337 71.395 124.189 71.1733 124.726 70.73C125.309 70.24 125.601 67.965 125.601 63.905V55.225C125.601 52.7283 125.519 51.025 125.356 50.115C125.216 49.1817 125.006 48.5983 124.726 48.365C124.189 47.9217 123.337 47.7 122.171 47.7L122.101 47.315H138.446V52.355L138.026 52.285C138.026 50.7217 137.197 49.6367 135.541 49.03C133.907 48.4233 131.399 48.12 128.016 48.12V59.145C130.256 59.145 131.866 59.0283 132.846 58.795C133.826 58.5617 134.456 58.2117 134.736 57.745C135.016 57.255 135.156 56.45 135.156 55.33L135.541 55.26V63.765L135.156 63.695C135.156 62.5517 135.016 61.7467 134.736 61.28C134.456 60.8133 133.826 60.475 132.846 60.265C131.866 60.0317 130.256 59.915 128.016 59.915V64.43C128.016 66.9033 128.097 68.5483 128.261 69.365C128.447 70.1817 128.844 70.73 129.451 71.01C136.031 71.01 139.321 69.61 139.321 66.81L139.741 66.74V71.815Z"/>
<path d="M161.553 71.815C160.97 71.815 160.386 71.5233 159.803 70.94C159.243 70.3333 158.73 69.5867 158.263 68.7C157.82 67.8133 157.295 66.8567 156.688 65.83C156.081 64.78 155.475 63.8 154.868 62.89C154.261 61.98 153.491 61.21 152.558 60.58C151.625 59.95 150.633 59.6117 149.583 59.565V63.905C149.583 66.425 149.653 68.14 149.793 69.05C149.956 69.9367 150.178 70.4967 150.458 70.73C151.018 71.1733 151.881 71.395 153.048 71.395L153.118 71.815H143.738L143.808 71.395C144.951 71.395 145.791 71.185 146.328 70.765C146.771 70.415 147.028 69.2717 147.098 67.335C147.145 66.565 147.168 65.4217 147.168 63.905V55.05C147.168 52.46 147.098 50.745 146.958 49.905C146.818 49.065 146.608 48.54 146.328 48.33C145.791 47.9333 144.951 47.735 143.808 47.735L143.738 47.315H151.858C157.738 47.315 160.678 49.2983 160.678 53.265C160.678 54.9683 160.071 56.4033 158.858 57.57C157.668 58.7133 156.221 59.3783 154.518 59.565C156.221 60.5683 157.796 62.4117 159.243 65.095C159.803 66.145 160.398 67.1483 161.028 68.105C162.405 70.2983 164.178 71.395 166.348 71.395L166.418 71.815H161.553ZM149.583 48.12V58.865H151.788C153.561 58.865 155.031 58.41 156.198 57.5C157.365 56.59 157.948 55.2367 157.948 53.44C157.948 49.8933 155.918 48.12 151.858 48.12H149.583Z"/>
<path d="M188.097 65.27V69.61C186.93 70.3333 185.518 70.94 183.862 71.43C182.228 71.92 180.56 72.165 178.857 72.165C175.147 72.165 172.148 70.9633 169.862 68.56C167.575 66.1567 166.432 63.1583 166.432 59.565C166.432 55.9717 167.528 52.985 169.722 50.605C171.938 48.2017 174.913 47 178.647 47C180.28 47 181.925 47.2333 183.582 47.7C185.238 48.1433 186.463 48.6217 187.257 49.135V53.615L186.872 53.545C186.615 51.6783 185.705 50.255 184.142 49.275C182.578 48.295 180.747 47.805 178.647 47.805C175.66 47.805 173.385 48.8783 171.822 51.025C170.258 53.1717 169.477 56.0183 169.477 59.565C169.477 63.0883 170.293 65.935 171.927 68.105C173.56 70.275 175.928 71.36 179.032 71.36C182.158 71.36 184.363 70.38 185.647 68.42V65.69C185.647 63.1 185.495 61.5133 185.192 60.93C184.912 60.3233 184.072 60.02 182.672 60.02L182.602 59.67H191.177L191.107 60.02C189.777 60.02 188.937 60.335 188.587 60.965C188.26 61.595 188.097 63.03 188.097 65.27Z"/>
</mask>
<path d="M26.64 71.815H9L9.07 71.395C10.2367 71.395 11.0883 71.1733 11.625 70.73C12.2083 70.24 12.5 67.965 12.5 63.905V55.225C12.5 52.7283 12.4183 51.025 12.255 50.115C12.115 49.1817 11.905 48.5983 11.625 48.365C11.0883 47.9217 10.2367 47.7 9.07 47.7L9 47.315H25.345V52.355L24.925 52.285C24.925 50.7217 24.0967 49.6367 22.44 49.03C20.8067 48.4233 18.2983 48.12 14.915 48.12V59.145C17.155 59.145 18.765 59.0283 19.745 58.795C20.725 58.5617 21.355 58.2117 21.635 57.745C21.915 57.255 22.055 56.45 22.055 55.33L22.44 55.26V63.765L22.055 63.695C22.055 62.5517 21.915 61.7467 21.635 61.28C21.355 60.8133 20.725 60.475 19.745 60.265C18.765 60.0317 17.155 59.915 14.915 59.915V64.43C14.915 66.9033 14.9967 68.5483 15.16 69.365C15.3467 70.1817 15.7433 70.73 16.35 71.01C22.93 71.01 26.22 69.61 26.22 66.81L26.64 66.74V71.815Z" fill="black"/>
<path d="M47.3324 71.815H30.6024L30.6724 71.395C31.2324 71.395 31.6757 71.3717 32.0024 71.325C32.3524 71.2783 32.6674 71.15 32.9474 70.94C33.2274 70.73 33.4257 70.4967 33.5424 70.24C33.6824 69.96 33.7991 69.505 33.8924 68.875C34.0091 68.0583 34.0674 66.4017 34.0674 63.905V55.225C34.0674 51.7483 33.904 49.6367 33.5774 48.89C33.274 48.2367 32.7607 47.8633 32.0374 47.77C31.6874 47.7233 31.2324 47.7 30.6724 47.7L30.6024 47.315H40.0174L39.9474 47.7C38.7807 47.7 37.9291 47.9217 37.3924 48.365C36.8091 48.855 36.5174 51.1417 36.5174 55.225V64.43C36.5174 66.95 36.599 68.63 36.7624 69.47C36.9257 70.2867 37.3107 70.835 37.9174 71.115C43.9374 71.115 46.9474 69.68 46.9474 66.81L47.3324 66.74V71.815Z" fill="black"/>
<path d="M67.5873 71.815H49.9473L50.0173 71.395C51.1839 71.395 52.0356 71.1733 52.5723 70.73C53.1556 70.24 53.4473 67.965 53.4473 63.905V55.225C53.4473 52.7283 53.3656 51.025 53.2023 50.115C53.0623 49.1817 52.8523 48.5983 52.5723 48.365C52.0356 47.9217 51.1839 47.7 50.0173 47.7L49.9473 47.315H66.2923V52.355L65.8723 52.285C65.8723 50.7217 65.0439 49.6367 63.3873 49.03C61.7539 48.4233 59.2456 48.12 55.8623 48.12V59.145C58.1023 59.145 59.7123 59.0283 60.6923 58.795C61.6723 58.5617 62.3023 58.2117 62.5823 57.745C62.8623 57.255 63.0023 56.45 63.0023 55.33L63.3873 55.26V63.765L63.0023 63.695C63.0023 62.5517 62.8623 61.7467 62.5823 61.28C62.3023 60.8133 61.6723 60.475 60.6923 60.265C59.7123 60.0317 58.1023 59.915 55.8623 59.915V64.43C55.8623 66.9033 55.9439 68.5483 56.1073 69.365C56.2939 70.1817 56.6906 70.73 57.2973 71.01C63.8773 71.01 67.1673 69.61 67.1673 66.81L67.5873 66.74V71.815Z" fill="black"/>
<path d="M93.4596 55.19V71.99H92.3746L75.8896 51.165V63.835C75.8896 66.1683 75.9947 67.8483 76.2047 68.875C76.4147 69.9017 76.7646 70.5783 77.2546 70.905C77.7446 71.2317 78.5496 71.395 79.6696 71.395L79.7396 71.815H71.1297L71.1996 71.395C72.3196 71.395 73.1246 71.2317 73.6146 70.905C74.1046 70.5783 74.4547 69.9017 74.6646 68.875C74.898 67.8483 75.0146 66.1683 75.0146 63.835V55.19C75.0146 52.8567 74.898 51.1883 74.6646 50.185C74.4547 49.1583 74.1046 48.4933 73.6146 48.19C73.148 47.8633 72.343 47.7 71.1996 47.7L71.1297 47.315H75.8896L92.5846 68.14V55.19C92.5846 52.88 92.468 51.2117 92.2346 50.185C92.0246 49.1583 91.6746 48.4933 91.1846 48.19C90.6946 47.8633 89.878 47.7 88.7346 47.7L88.6646 47.315H97.3447L97.2747 47.7C96.1313 47.7 95.3146 47.8633 94.8246 48.19C94.3346 48.4933 93.9847 49.1583 93.7747 50.185C93.5647 51.2117 93.4596 52.88 93.4596 55.19Z" fill="black"/>
<path d="M118.7 64.955C118.7 67.2883 117.802 69.015 116.005 70.135C114.232 71.255 111.793 71.815 108.69 71.815H100.465L100.535 71.395C101.118 71.395 101.573 71.3717 101.9 71.325C102.227 71.2783 102.53 71.15 102.81 70.94C103.113 70.73 103.323 70.4967 103.44 70.24C103.58 69.96 103.697 69.505 103.79 68.875C103.907 68.0583 103.965 66.4017 103.965 63.905V55.225C103.965 51.725 103.802 49.625 103.475 48.925C103.335 48.645 103.113 48.4 102.81 48.19C102.53 47.98 102.227 47.8517 101.9 47.805C101.573 47.7583 101.118 47.735 100.535 47.735L100.465 47.315H108.305C110.032 47.315 111.782 47.6183 113.555 48.225C114.558 48.5517 115.375 49.1233 116.005 49.94C116.635 50.7333 116.95 51.7017 116.95 52.845C116.95 54.4083 116.39 55.6333 115.27 56.52C114.15 57.4067 112.808 58.025 111.245 58.375C113.065 58.5617 114.698 59.1217 116.145 60.055C116.915 60.5683 117.533 61.245 118 62.085C118.467 62.925 118.7 63.8817 118.7 64.955ZM113.905 52.845C113.905 49.695 111.408 48.12 106.415 48.12V58.13H106.73C111.513 58.13 113.905 56.3683 113.905 52.845ZM115.655 64.955C115.655 60.8717 112.75 58.83 106.94 58.83H106.415V64.43C106.415 66.9733 106.485 68.6417 106.625 69.435C106.788 70.205 107.173 70.73 107.78 71.01C108.947 71.01 110.02 70.87 111 70.59C112.003 70.31 112.797 69.9717 113.38 69.575C113.987 69.1783 114.512 68.5833 114.955 67.79C115.422 66.9967 115.655 66.0517 115.655 64.955Z" fill="black"/>
<path d="M139.741 71.815H122.101L122.171 71.395C123.337 71.395 124.189 71.1733 124.726 70.73C125.309 70.24 125.601 67.965 125.601 63.905V55.225C125.601 52.7283 125.519 51.025 125.356 50.115C125.216 49.1817 125.006 48.5983 124.726 48.365C124.189 47.9217 123.337 47.7 122.171 47.7L122.101 47.315H138.446V52.355L138.026 52.285C138.026 50.7217 137.197 49.6367 135.541 49.03C133.907 48.4233 131.399 48.12 128.016 48.12V59.145C130.256 59.145 131.866 59.0283 132.846 58.795C133.826 58.5617 134.456 58.2117 134.736 57.745C135.016 57.255 135.156 56.45 135.156 55.33L135.541 55.26V63.765L135.156 63.695C135.156 62.5517 135.016 61.7467 134.736 61.28C134.456 60.8133 133.826 60.475 132.846 60.265C131.866 60.0317 130.256 59.915 128.016 59.915V64.43C128.016 66.9033 128.097 68.5483 128.261 69.365C128.447 70.1817 128.844 70.73 129.451 71.01C136.031 71.01 139.321 69.61 139.321 66.81L139.741 66.74V71.815Z" fill="black"/>
<path d="M161.553 71.815C160.97 71.815 160.386 71.5233 159.803 70.94C159.243 70.3333 158.73 69.5867 158.263 68.7C157.82 67.8133 157.295 66.8567 156.688 65.83C156.081 64.78 155.475 63.8 154.868 62.89C154.261 61.98 153.491 61.21 152.558 60.58C151.625 59.95 150.633 59.6117 149.583 59.565V63.905C149.583 66.425 149.653 68.14 149.793 69.05C149.956 69.9367 150.178 70.4967 150.458 70.73C151.018 71.1733 151.881 71.395 153.048 71.395L153.118 71.815H143.738L143.808 71.395C144.951 71.395 145.791 71.185 146.328 70.765C146.771 70.415 147.028 69.2717 147.098 67.335C147.145 66.565 147.168 65.4217 147.168 63.905V55.05C147.168 52.46 147.098 50.745 146.958 49.905C146.818 49.065 146.608 48.54 146.328 48.33C145.791 47.9333 144.951 47.735 143.808 47.735L143.738 47.315H151.858C157.738 47.315 160.678 49.2983 160.678 53.265C160.678 54.9683 160.071 56.4033 158.858 57.57C157.668 58.7133 156.221 59.3783 154.518 59.565C156.221 60.5683 157.796 62.4117 159.243 65.095C159.803 66.145 160.398 67.1483 161.028 68.105C162.405 70.2983 164.178 71.395 166.348 71.395L166.418 71.815H161.553ZM149.583 48.12V58.865H151.788C153.561 58.865 155.031 58.41 156.198 57.5C157.365 56.59 157.948 55.2367 157.948 53.44C157.948 49.8933 155.918 48.12 151.858 48.12H149.583Z" fill="black"/>
<path d="M188.097 65.27V69.61C186.93 70.3333 185.518 70.94 183.862 71.43C182.228 71.92 180.56 72.165 178.857 72.165C175.147 72.165 172.148 70.9633 169.862 68.56C167.575 66.1567 166.432 63.1583 166.432 59.565C166.432 55.9717 167.528 52.985 169.722 50.605C171.938 48.2017 174.913 47 178.647 47C180.28 47 181.925 47.2333 183.582 47.7C185.238 48.1433 186.463 48.6217 187.257 49.135V53.615L186.872 53.545C186.615 51.6783 185.705 50.255 184.142 49.275C182.578 48.295 180.747 47.805 178.647 47.805C175.66 47.805 173.385 48.8783 171.822 51.025C170.258 53.1717 169.477 56.0183 169.477 59.565C169.477 63.0883 170.293 65.935 171.927 68.105C173.56 70.275 175.928 71.36 179.032 71.36C182.158 71.36 184.363 70.38 185.647 68.42V65.69C185.647 63.1 185.495 61.5133 185.192 60.93C184.912 60.3233 184.072 60.02 182.672 60.02L182.602 59.67H191.177L191.107 60.02C189.777 60.02 188.937 60.335 188.587 60.965C188.26 61.595 188.097 63.03 188.097 65.27Z" fill="black"/>
<path d="M26.64 71.815H9L9.07 71.395C10.2367 71.395 11.0883 71.1733 11.625 70.73C12.2083 70.24 12.5 67.965 12.5 63.905V55.225C12.5 52.7283 12.4183 51.025 12.255 50.115C12.115 49.1817 11.905 48.5983 11.625 48.365C11.0883 47.9217 10.2367 47.7 9.07 47.7L9 47.315H25.345V52.355L24.925 52.285C24.925 50.7217 24.0967 49.6367 22.44 49.03C20.8067 48.4233 18.2983 48.12 14.915 48.12V59.145C17.155 59.145 18.765 59.0283 19.745 58.795C20.725 58.5617 21.355 58.2117 21.635 57.745C21.915 57.255 22.055 56.45 22.055 55.33L22.44 55.26V63.765L22.055 63.695C22.055 62.5517 21.915 61.7467 21.635 61.28C21.355 60.8133 20.725 60.475 19.745 60.265C18.765 60.0317 17.155 59.915 14.915 59.915V64.43C14.915 66.9033 14.9967 68.5483 15.16 69.365C15.3467 70.1817 15.7433 70.73 16.35 71.01C22.93 71.01 26.22 69.61 26.22 66.81L26.64 66.74V71.815Z" stroke="black" stroke-width="2" mask="url(#path-2-outside-1_654_907)"/>
<path d="M47.3324 71.815H30.6024L30.6724 71.395C31.2324 71.395 31.6757 71.3717 32.0024 71.325C32.3524 71.2783 32.6674 71.15 32.9474 70.94C33.2274 70.73 33.4257 70.4967 33.5424 70.24C33.6824 69.96 33.7991 69.505 33.8924 68.875C34.0091 68.0583 34.0674 66.4017 34.0674 63.905V55.225C34.0674 51.7483 33.904 49.6367 33.5774 48.89C33.274 48.2367 32.7607 47.8633 32.0374 47.77C31.6874 47.7233 31.2324 47.7 30.6724 47.7L30.6024 47.315H40.0174L39.9474 47.7C38.7807 47.7 37.9291 47.9217 37.3924 48.365C36.8091 48.855 36.5174 51.1417 36.5174 55.225V64.43C36.5174 66.95 36.599 68.63 36.7624 69.47C36.9257 70.2867 37.3107 70.835 37.9174 71.115C43.9374 71.115 46.9474 69.68 46.9474 66.81L47.3324 66.74V71.815Z" stroke="black" stroke-width="2" mask="url(#path-2-outside-1_654_907)"/>
<path d="M67.5873 71.815H49.9473L50.0173 71.395C51.1839 71.395 52.0356 71.1733 52.5723 70.73C53.1556 70.24 53.4473 67.965 53.4473 63.905V55.225C53.4473 52.7283 53.3656 51.025 53.2023 50.115C53.0623 49.1817 52.8523 48.5983 52.5723 48.365C52.0356 47.9217 51.1839 47.7 50.0173 47.7L49.9473 47.315H66.2923V52.355L65.8723 52.285C65.8723 50.7217 65.0439 49.6367 63.3873 49.03C61.7539 48.4233 59.2456 48.12 55.8623 48.12V59.145C58.1023 59.145 59.7123 59.0283 60.6923 58.795C61.6723 58.5617 62.3023 58.2117 62.5823 57.745C62.8623 57.255 63.0023 56.45 63.0023 55.33L63.3873 55.26V63.765L63.0023 63.695C63.0023 62.5517 62.8623 61.7467 62.5823 61.28C62.3023 60.8133 61.6723 60.475 60.6923 60.265C59.7123 60.0317 58.1023 59.915 55.8623 59.915V64.43C55.8623 66.9033 55.9439 68.5483 56.1073 69.365C56.2939 70.1817 56.6906 70.73 57.2973 71.01C63.8773 71.01 67.1673 69.61 67.1673 66.81L67.5873 66.74V71.815Z" stroke="black" stroke-width="2" mask="url(#path-2-outside-1_654_907)"/>
<path d="M93.4596 55.19V71.99H92.3746L75.8896 51.165V63.835C75.8896 66.1683 75.9947 67.8483 76.2047 68.875C76.4147 69.9017 76.7646 70.5783 77.2546 70.905C77.7446 71.2317 78.5496 71.395 79.6696 71.395L79.7396 71.815H71.1297L71.1996 71.395C72.3196 71.395 73.1246 71.2317 73.6146 70.905C74.1046 70.5783 74.4547 69.9017 74.6646 68.875C74.898 67.8483 75.0146 66.1683 75.0146 63.835V55.19C75.0146 52.8567 74.898 51.1883 74.6646 50.185C74.4547 49.1583 74.1046 48.4933 73.6146 48.19C73.148 47.8633 72.343 47.7 71.1996 47.7L71.1297 47.315H75.8896L92.5846 68.14V55.19C92.5846 52.88 92.468 51.2117 92.2346 50.185C92.0246 49.1583 91.6746 48.4933 91.1846 48.19C90.6946 47.8633 89.878 47.7 88.7346 47.7L88.6646 47.315H97.3447L97.2747 47.7C96.1313 47.7 95.3146 47.8633 94.8246 48.19C94.3346 48.4933 93.9847 49.1583 93.7747 50.185C93.5647 51.2117 93.4596 52.88 93.4596 55.19Z" stroke="black" stroke-width="2" mask="url(#path-2-outside-1_654_907)"/>
<path d="M118.7 64.955C118.7 67.2883 117.802 69.015 116.005 70.135C114.232 71.255 111.793 71.815 108.69 71.815H100.465L100.535 71.395C101.118 71.395 101.573 71.3717 101.9 71.325C102.227 71.2783 102.53 71.15 102.81 70.94C103.113 70.73 103.323 70.4967 103.44 70.24C103.58 69.96 103.697 69.505 103.79 68.875C103.907 68.0583 103.965 66.4017 103.965 63.905V55.225C103.965 51.725 103.802 49.625 103.475 48.925C103.335 48.645 103.113 48.4 102.81 48.19C102.53 47.98 102.227 47.8517 101.9 47.805C101.573 47.7583 101.118 47.735 100.535 47.735L100.465 47.315H108.305C110.032 47.315 111.782 47.6183 113.555 48.225C114.558 48.5517 115.375 49.1233 116.005 49.94C116.635 50.7333 116.95 51.7017 116.95 52.845C116.95 54.4083 116.39 55.6333 115.27 56.52C114.15 57.4067 112.808 58.025 111.245 58.375C113.065 58.5617 114.698 59.1217 116.145 60.055C116.915 60.5683 117.533 61.245 118 62.085C118.467 62.925 118.7 63.8817 118.7 64.955ZM113.905 52.845C113.905 49.695 111.408 48.12 106.415 48.12V58.13H106.73C111.513 58.13 113.905 56.3683 113.905 52.845ZM115.655 64.955C115.655 60.8717 112.75 58.83 106.94 58.83H106.415V64.43C106.415 66.9733 106.485 68.6417 106.625 69.435C106.788 70.205 107.173 70.73 107.78 71.01C108.947 71.01 110.02 70.87 111 70.59C112.003 70.31 112.797 69.9717 113.38 69.575C113.987 69.1783 114.512 68.5833 114.955 67.79C115.422 66.9967 115.655 66.0517 115.655 64.955Z" stroke="black" stroke-width="2" mask="url(#path-2-outside-1_654_907)"/>
<path d="M139.741 71.815H122.101L122.171 71.395C123.337 71.395 124.189 71.1733 124.726 70.73C125.309 70.24 125.601 67.965 125.601 63.905V55.225C125.601 52.7283 125.519 51.025 125.356 50.115C125.216 49.1817 125.006 48.5983 124.726 48.365C124.189 47.9217 123.337 47.7 122.171 47.7L122.101 47.315H138.446V52.355L138.026 52.285C138.026 50.7217 137.197 49.6367 135.541 49.03C133.907 48.4233 131.399 48.12 128.016 48.12V59.145C130.256 59.145 131.866 59.0283 132.846 58.795C133.826 58.5617 134.456 58.2117 134.736 57.745C135.016 57.255 135.156 56.45 135.156 55.33L135.541 55.26V63.765L135.156 63.695C135.156 62.5517 135.016 61.7467 134.736 61.28C134.456 60.8133 133.826 60.475 132.846 60.265C131.866 60.0317 130.256 59.915 128.016 59.915V64.43C128.016 66.9033 128.097 68.5483 128.261 69.365C128.447 70.1817 128.844 70.73 129.451 71.01C136.031 71.01 139.321 69.61 139.321 66.81L139.741 66.74V71.815Z" stroke="black" stroke-width="2" mask="url(#path-2-outside-1_654_907)"/>
<path d="M161.553 71.815C160.97 71.815 160.386 71.5233 159.803 70.94C159.243 70.3333 158.73 69.5867 158.263 68.7C157.82 67.8133 157.295 66.8567 156.688 65.83C156.081 64.78 155.475 63.8 154.868 62.89C154.261 61.98 153.491 61.21 152.558 60.58C151.625 59.95 150.633 59.6117 149.583 59.565V63.905C149.583 66.425 149.653 68.14 149.793 69.05C149.956 69.9367 150.178 70.4967 150.458 70.73C151.018 71.1733 151.881 71.395 153.048 71.395L153.118 71.815H143.738L143.808 71.395C144.951 71.395 145.791 71.185 146.328 70.765C146.771 70.415 147.028 69.2717 147.098 67.335C147.145 66.565 147.168 65.4217 147.168 63.905V55.05C147.168 52.46 147.098 50.745 146.958 49.905C146.818 49.065 146.608 48.54 146.328 48.33C145.791 47.9333 144.951 47.735 143.808 47.735L143.738 47.315H151.858C157.738 47.315 160.678 49.2983 160.678 53.265C160.678 54.9683 160.071 56.4033 158.858 57.57C157.668 58.7133 156.221 59.3783 154.518 59.565C156.221 60.5683 157.796 62.4117 159.243 65.095C159.803 66.145 160.398 67.1483 161.028 68.105C162.405 70.2983 164.178 71.395 166.348 71.395L166.418 71.815H161.553ZM149.583 48.12V58.865H151.788C153.561 58.865 155.031 58.41 156.198 57.5C157.365 56.59 157.948 55.2367 157.948 53.44C157.948 49.8933 155.918 48.12 151.858 48.12H149.583Z" stroke="black" stroke-width="2" mask="url(#path-2-outside-1_654_907)"/>
<path d="M188.097 65.27V69.61C186.93 70.3333 185.518 70.94 183.862 71.43C182.228 71.92 180.56 72.165 178.857 72.165C175.147 72.165 172.148 70.9633 169.862 68.56C167.575 66.1567 166.432 63.1583 166.432 59.565C166.432 55.9717 167.528 52.985 169.722 50.605C171.938 48.2017 174.913 47 178.647 47C180.28 47 181.925 47.2333 183.582 47.7C185.238 48.1433 186.463 48.6217 187.257 49.135V53.615L186.872 53.545C186.615 51.6783 185.705 50.255 184.142 49.275C182.578 48.295 180.747 47.805 178.647 47.805C175.66 47.805 173.385 48.8783 171.822 51.025C170.258 53.1717 169.477 56.0183 169.477 59.565C169.477 63.0883 170.293 65.935 171.927 68.105C173.56 70.275 175.928 71.36 179.032 71.36C182.158 71.36 184.363 70.38 185.647 68.42V65.69C185.647 63.1 185.495 61.5133 185.192 60.93C184.912 60.3233 184.072 60.02 182.672 60.02L182.602 59.67H191.177L191.107 60.02C189.777 60.02 188.937 60.335 188.587 60.965C188.26 61.595 188.097 63.03 188.097 65.27Z" stroke="black" stroke-width="2" mask="url(#path-2-outside-1_654_907)"/>
<rect x="0.5" y="0.5" width="199" height="119" stroke="black"/>
</svg>
