<?xml version="1.0" encoding="utf-8"?>
<!-- Generator: Adobe Illustrator 24.0.1, SVG Export Plug-In . SVG Version: 6.00 Build 0)  -->
<svg version="1.1" id="Слой_1" xmlns="http://www.w3.org/2000/svg" xmlns:xlink="http://www.w3.org/1999/xlink" x="0px" y="0px"
	 viewBox="0 0 200 120" style="enable-background:new 0 0 200 120;" xml:space="preserve">
<style type="text/css">
	.st0{fill:#999999;}
</style>
<path class="st0" d="M103.4,26.6c5.3-7,12.7-7,12.7-7s1.1,6.6-4.2,12.9c-5.6,6.8-12.1,5.7-12.1,5.7S98.7,32.8,103.4,26.6z
	 M100.6,42.8c2.7,0,7.8-3.8,14.4-3.8c11.4,0,15.9,8.1,15.9,8.1s-8.8,4.5-8.8,15.3c0,12.3,10.9,16.5,10.9,16.5s-7.6,21.5-17.9,21.5
	c-4.7,0-8.4-3.2-13.4-3.2c-5.1,0-10.1,3.3-13.4,3.3c-9.4,0-21.3-20.4-21.3-36.7c0-16.1,10.1-24.5,19.5-24.5
	C92.6,39.2,97.4,42.8,100.6,42.8z"/>
</svg>
