<?xml version="1.0" encoding="utf-8"?>
<!-- Generator: Adobe Illustrator 24.0.1, SVG Export Plug-In . SVG Version: 6.00 Build 0)  -->
<svg version="1.1" id="Слой_1" xmlns="http://www.w3.org/2000/svg" xmlns:xlink="http://www.w3.org/1999/xlink" x="0px" y="0px"
	 viewBox="0 0 200 120" style="enable-background:new 0 0 200 120;" xml:space="preserve">
<style type="text/css">
	.st0{display:none;fill-rule:evenodd;clip-rule:evenodd;fill:#FFFFFF;}
	.st1{fill-rule:evenodd;clip-rule:evenodd;}
	.st2{fill-rule:evenodd;clip-rule:evenodd;fill:#FFFFFF;}
</style>
<g>
	<path class="st0" d="M20.8-19.2h158.4v158.4H20.8V-19.2z"/>
	<path class="st1" d="M50.5,53.1c2.1-7.6,4.1-15.9,9.7-21.8c3.4-3.6,8.3-5.8,13.3-5.8c5.4,0,9.2,4.2,9.2,9.5
		c0,11.1-10.6,19.4-20.8,21.3l-0.6,2.2l-1.5,5.7c-1.4,5.2-3.2,10.2-6.3,14.7c5.1,1.4,10.1,3.1,15.3,4.2c14.9,3.2,30.2,4.7,45.5,4.7
		c12.8,0,25.5-0.4,38.3-2c8-1,15.9-2.2,23.6-4.4l0.7,3c-10,3.3-20.2,5.6-30.7,7.2c-12.8,2-25.9,3.1-38.8,3.1
		c-19.5,0-39.2-4.1-57.3-11.4c-3.6,3.5-9.1,5.8-14.1,5.8c-4.3,0-12.7-2.4-12.7-8c0-4.6,6.2-6.5,9.9-6.5c3.6,0,7.3,0.8,10.8,1.5
		c3.3-5.9,4.6-12.8,5.9-19.4c-3-0.2-5.9-0.9-8.7-1.9l1.1-3.1C44.9,52.6,47.6,53,50.5,53.1L50.5,53.1z"/>
	<path class="st1" d="M75.7,69.4V70c0,3.4,2.5,4.4,5.6,4.4c5.3,0,10.4-2.2,15.1-4.5l3.7-14.5h10.8l-3.7,15c-0.1,0.4-0.2,0.8-0.2,1.3
		c0,1.2,0.6,1.9,1.9,1.9c2.5,0,5-1.5,6.9-3c0-0.4-0.1-0.8-0.1-1.1c0-8.7,8.6-14.5,16.7-14.5c2.1,0,4.3,0.6,6,1.8l-1.2,4.5
		c-1.1-1.3-2.4-2.3-4.1-2.3c-4.7,0-6.6,7.3-6.6,11c0,2.5,1.7,4,4.1,4c3.5,0,6.3-2.3,8.8-4.5c0.1-2.7,0.8-5,2.3-7.3
		c3-4.4,7.7-7.2,13-7.2c2.7,0,5.1,0.9,6.8,2.9l0.5-2.2h10L168,70.4c-0.1,0.4-0.2,0.9-0.2,1.3c0,1.3,1.2,1.8,2.3,1.8
		c1.4,0,2.6-0.7,3.8-1.4l0.8,3.1l-5.9,2.9c-1.5,0.7-3.2,1.1-4.9,1.1c-2.8,0-5-1.7-6-4.2c-2.4,2.9-4.9,4.3-8.7,4.3
		c-4.1,0-7.4-2.3-9.1-6c-3.4,3.3-8.1,6.1-13,6.1c-4.1,0-8.3-1.6-10.3-5.3c-3.8,2.8-8.6,5.3-13.4,5.3c-3.4,0-6.1-2.2-7.1-5.4
		c-5.4,3.1-11.1,5.3-17.5,5.3c-6.5,0-14.2-3.2-14.2-10.8c0-8.5,10.1-14,17.6-14c3.9,0,10.4,1.4,10.4,6.4c0,6-8.7,8.8-13.5,8.8
		C78,69.8,76.8,69.6,75.7,69.4L75.7,69.4z M101.9,46.7c0-3.3,3.7-4.5,6.4-4.5c2.5,0,5.5,1.3,5.5,4.1c0,3.4-3.6,4.5-6.5,4.5
		C104.9,50.9,101.9,49.6,101.9,46.7z"/>
	<path class="st2" d="M62.8,52.3c7.3-1.3,15.5-9.2,15.5-16.9c0-2.4-0.9-5.4-3.8-5.4c-3.4,0-5.9,3.4-7,6.3
		C65.3,41.4,64.2,46.9,62.8,52.3L62.8,52.3z M40.7,80.4c-2.6-1-5.2-1.7-8-1.7c-1.5,0-4.9,0.4-4.9,2.6c0,2.2,3.4,2.9,5.1,2.9
		C35.9,84.2,38.7,82.6,40.7,80.4z M76.1,66.3c0.6,0.1,1.1,0.2,1.7,0.2c3.5,0,7.7-1.8,7.7-5.9c0-1.5-1.1-2.6-2.6-2.6
		C78.8,58,77,63,76.1,66.3z M158.1,69.5l1.5-5.8c0.1-0.5,0.3-1.1,0.3-1.7c0-1.9-2-3.2-3.7-3.2c-2.1,0-3.3,1.7-4.2,3.4
		c-1,2.2-2.3,6.2-2.3,8.6c0,1.8,1.1,3.6,3,3.6C155.6,74.4,157.5,72,158.1,69.5L158.1,69.5z"/>
</g>
</svg>
