<?xml version="1.0" encoding="utf-8"?>
<!-- Generator: Adobe Illustrator 24.0.1, SVG Export Plug-In . SVG Version: 6.00 Build 0)  -->
<svg version="1.1" id="Слой_1" xmlns="http://www.w3.org/2000/svg" xmlns:xlink="http://www.w3.org/1999/xlink" x="0px" y="0px"
	 viewBox="0 0 200 120" style="enable-background:new 0 0 200 120;" xml:space="preserve">
<style type="text/css">
	.st0{fill:#333333;}
	.st1{fill:#FFFFFF;}
	.st2{fill:#ED1C24;}
</style>
<g>
	<path class="st0" d="M174.1,76.7l7.8-21.5c0,0-5.8,0-11.7,1.2l-7.4,20.4L174.1,76.7L174.1,76.7L174.1,76.7z M172.8,49.4l-1.5,4.1
		c5.9-1.2,11.7-1.2,11.7-1.2l1.5-4.1C184.4,48.2,178.6,48.2,172.8,49.4L172.8,49.4z M130.6,75.6c4,0.8,8.1,1.2,12.2,1.2h0
		c6.6,0,9.4-0.7,12.8-2.4c2.9-1.5,4.9-3.1,5.7-5.8c0.7-2.4-0.2-4.6-2.3-6c-2.1-1.4-4.2-2.1-6.6-3.4c-2.1-1.2-3.3-2.1-3.1-3.3
		c0.3-2.6,3.1-3.4,6.8-3.4c3.7,0,7.3,0.3,10.8,1l1.4-3.9c-4-0.8-8.1-1.2-12.3-1.2c-6.6,0-9.4,0.7-12.8,2.4c-2.9,1.5-4.9,3.1-5.7,5.8
		c-0.7,2.4,0.2,4.6,2.3,6c2.1,1.4,4.2,2.1,6.6,3.4c2.1,1.2,3.3,2.1,3.1,3.3c-0.3,2.6-3.1,3.4-6.8,3.4h0c-3.7,0-7.3-0.3-10.8-1
		L130.6,75.6L130.6,75.6z M126.4,76.7l7.2-20c0.6-1.6,0.6-4.5-1-6.1c-1.6-1.6-3.6-2.4-7.1-2.4c-3.6,0-6.5,0.9-8.8,1.9
		c-1.3,0.5-3.1,1.4-5.2,2.7c-0.2-0.8-0.6-1.6-1.2-2.2c-1.6-1.6-3.6-2.4-7.1-2.4c-3.6,0-6.5,0.9-8.8,1.9c-1.3,0.5-3.1,1.4-5.2,2.7
		c-0.2-0.8-0.6-1.6-1.2-2.2c-1.6-1.6-3.6-2.4-7.1-2.4L70.4,76.7h11.2l5.2-14.3c0.9-2.6,3.5-5,4.9-6.1c1.8-1.4,9.7-3.6,7.6,2.4
		l-6.5,18H104l5.2-14.3c0.9-2.6,3.5-5,4.9-6.1c1.8-1.4,9.7-3.6,7.6,2.4l-6.5,18H126.4z"/>
	<g>
		<path class="st0" d="M189.7,48.7h-0.7v1.7h-0.6v-1.7h-0.7v-0.4h1.9L189.7,48.7C189.7,48.7,189.7,48.7,189.7,48.7z M192.4,50.4
			h-0.6v-1.4l-0.4,0.9h-0.4l-0.4-0.9v1.4h-0.5v-2.2h0.6l0.5,1.1l0.5-1.1h0.6L192.4,50.4L192.4,50.4L192.4,50.4z"/>
	</g>
</g>
<g>
	<path class="st1" d="M41.8,34.6c2.1,0,4.2,0,6.3,0c-0.5,0.5-0.9,1-1.4,1.5c-1.5,0-2.9,0-4.4,0v3.6h3.6v-1.1h-1.4
		c-0.4-0.4-0.9-0.9-1.3-1.3c1.6,0,3.1,0,4.7,0c0,0.8,0,1.6,0,2.5c-0.4,0.4-0.8,0.8-1.2,1.2c-0.1,0.1-0.2,0.3-0.4,0.2
		c-1.5,0-3,0-4.5,0c-0.5-0.5-1-0.9-1.4-1.4c-0.1-1.2,0-2.4,0-3.6C40.7,35.5,41.3,35.1,41.8,34.6L41.8,34.6z M37,36.9
		c0.8-0.3,1.6-0.5,2.4-0.7c-0.2,0.4-0.4,0.8-0.5,1.2c-0.5,0.2-1.1,0.3-1.6,0.5c0,0.8,0,1.6,0,2.5c0.4-0.1,0.9-0.3,1.3-0.4
		c0-0.2,0-0.5,0-0.7c-0.2,0-0.3,0.1-0.5,0.1c-0.2-0.3-0.3-0.5-0.5-0.8c0.6-0.2,1.2-0.4,1.8-0.5c0,0.6,0.1,1.2,0,1.7
		c-0.1,0.4-0.3,0.8-0.5,1.2c-0.6,0.2-1.2,0.3-1.7,0.5c-0.2-0.3-0.5-0.6-0.6-0.9c0-0.8-0.1-1.6,0-2.4C36.6,37.7,36.8,37.3,37,36.9
		L37,36.9z M49.5,36.6c1,0.2,1.9,0.5,2.9,0.8c-0.2,0.2-0.5,0.4-0.7,0.6c-0.5-0.1-1.1-0.3-1.6-0.5c-0.1,0.1-0.2,0.3-0.3,0.4
		c0.1,0.2,0.1,0.3,0.2,0.5c0.6,0.2,1.2,0.3,1.8,0.5c0.1,0.5,0.4,1,0.4,1.5c-0.1,0.4-0.3,0.7-0.5,1.1c-0.9-0.3-1.9-0.5-2.9-0.7
		c0.2-0.3,0.4-0.5,0.6-0.8c0.6,0.1,1.1,0.3,1.7,0.4c0-0.1,0.1-0.2,0.2-0.3c-0.1-0.2-0.1-0.3-0.2-0.5c-0.6-0.2-1.1-0.3-1.7-0.5
		c-0.2-0.5-0.4-0.9-0.6-1.4C49,37.3,49.3,36.9,49.5,36.6L49.5,36.6z M35.3,37.3c0.2-0.1,0.4-0.1,0.6-0.2c0.1,1.5,0,3,0.1,4.5
		c-0.2,0-0.3,0.1-0.5,0.1c-0.5-0.7-1-1.4-1.5-2.1c0,0.8,0,1.7,0,2.5c-0.2,0.3-0.4,0.7-0.6,1c0-1.7,0-3.5-0.1-5.2
		c0.2-0.1,0.3-0.1,0.5-0.2c0.5,0.7,1,1.4,1.5,2.1C35.3,39,35.2,38.2,35.3,37.3L35.3,37.3z M52.7,37.5c1,0.3,2,0.7,2.9,1
		c-0.2,0.2-0.5,0.4-0.7,0.5c-0.5-0.2-1-0.3-1.4-0.5c0,0.3,0,0.6-0.1,0.9c0.6,0.2,1.3,0.5,1.9,0.7c-0.3,0.2-0.5,0.5-0.9,0.6
		c-0.4-0.1-0.7-0.3-1.1-0.4c0,0.2,0,0.5,0,0.7c0.7,0.2,1.3,0.4,2,0.7c-0.3,0.2-0.7,0.7-1.1,0.5c-0.6-0.2-1.1-0.4-1.7-0.5
		C52.5,40.3,52.6,38.9,52.7,37.5L52.7,37.5z M32.1,38.5c0.2-0.1,0.5-0.2,0.7-0.3c0,1.5,0.1,3,0.1,4.4c-0.2,0.3-0.4,0.7-0.7,1
		C32.2,41.9,32.2,40.2,32.1,38.5L32.1,38.5z M56.1,38.7c0.8,0.3,1.5,0.6,2.2,1c0.1,0.4,0.2,0.9,0.3,1.3c-0.2,0.2-0.3,0.5-0.5,0.7
		c0.1,0.3,0.3,0.5,0.4,0.8c0,0.5,0,0.9-0.1,1.4c-0.2-0.1-0.4-0.2-0.6-0.3c0-0.4,0.2-0.9-0.1-1.2c-0.2-0.5-0.7-0.6-1.1-0.8
		c0,0.5,0,0.9-0.1,1.4c-0.2,0.3-0.5,0.6-0.7,0.9C56,42.1,56.1,40.4,56.1,38.7 M56.7,39.7c0,0.3,0,0.6,0,0.9c0.3,0.2,0.8,0.4,1.1,0.5
		c0-0.2,0.2-0.3,0.1-0.5C57.9,40,57.2,40,56.7,39.7L56.7,39.7z M30.8,39c0.2-0.1,0.5-0.2,0.7-0.3c0,1.4,0,2.9,0.1,4.3
		c-0.2,0.1-0.4,0.2-0.7,0.3c0-0.9,0-1.8-0.1-2.7c-0.1,0.8-0.4,1.6-0.6,2.4c-0.1,0.1-0.3,0.1-0.4,0.2c-0.2-0.6-0.5-1.1-0.7-1.7
		c0,0.9,0.1,1.7,0,2.6c-0.2,0.3-0.4,0.7-0.6,1c-0.1-1.6-0.1-3.3-0.1-4.9c0.2-0.2,0.4-0.3,0.7-0.4c0.3,0.7,0.6,1.3,0.9,2
		C30.3,41,30.6,40,30.8,39L30.8,39z M59.2,40.1c0.2,0.1,0.4,0.2,0.7,0.3c0,1.3-0.1,2.6-0.1,3.9c-0.2,0.2-0.5,0.4-0.7,0.6
		C59.1,43.3,59.1,41.7,59.2,40.1L59.2,40.1z M26,41.7c0.5-0.4,1-0.6,1.5-0.9c0.2,0.3,0.5,0.6,0.5,1c0,1,0,1.9,0,2.9
		c-0.2,0.1-0.4,0.2-0.6,0.3c0-0.4,0-0.8,0-1.2c-0.4,0.2-0.8,0.5-1.2,0.7c0,0.4,0.1,0.8,0,1.1c-0.2,0.4-0.4,0.7-0.6,1.1
		c0-1.3,0-2.5-0.1-3.8C25.6,42.5,25.8,42.1,26,41.7 M26.1,42.5c0,0.3,0,0.7,0,1c0.4-0.2,0.8-0.5,1.2-0.7c0-0.3,0-0.7,0-1
		C26.9,42,26.5,42.3,26.1,42.5L26.1,42.5z M60.5,40.8c0.9,0.4,1.7,0.8,2.5,1.2c-0.3,0.1-0.5,0.3-0.8,0.4c-0.4-0.2-0.7-0.3-1.1-0.5
		c0,0.3,0,0.5,0,0.8c0.6,0.2,1.1,0.5,1.7,0.7c-0.3,0.2-0.6,0.3-0.9,0.5c-0.3-0.1-0.5-0.2-0.8-0.3c0,0.2,0,0.4,0,0.6
		c0.6,0.2,1.2,0.5,1.7,0.8c-0.3,0.1-0.5,0.3-0.8,0.4c-0.5-0.2-1-0.5-1.6-0.7C60.4,43.4,60.5,42.1,60.5,40.8L60.5,40.8z M63.5,42.2
		c0.7,0.4,1.3,0.7,2,1.1c-0.2,0.1-0.4,0.3-0.6,0.4c-0.3-0.2-0.7-0.4-1-0.6c0,0.2,0,0.4,0,0.6c0.5,0.2,0.9,0.4,1.4,0.7
		c0.1,0.4,0.2,0.8,0.2,1.2c-0.2,0.3-0.3,0.7-0.5,1c-0.6-0.3-1.3-0.6-2-0.9c0.2-0.2,0.5-0.3,0.7-0.5c0.4,0.2,0.7,0.4,1.1,0.5
		c0.1-0.2,0-0.4,0-0.6c-0.5-0.2-1-0.5-1.4-0.7c-0.1-0.4-0.2-0.7-0.3-1.1C63.2,43,63.4,42.6,63.5,42.2L63.5,42.2z M23.3,43.4
		c0.5-0.4,1.2-0.8,1.8-1.2c-0.2,0.5-0.2,1.1-0.7,1.4c-0.3,0.2-0.6,0.4-0.9,0.6c0,0.7,0.1,1.4,0,2.1c0.3-0.2,0.7-0.4,1-0.6
		c0-0.2,0-0.4,0-0.6c-0.1,0-0.3,0.1-0.4,0.2c-0.1-0.2-0.3-0.4-0.4-0.6c0.4-0.3,0.9-0.5,1.3-0.8c0,0.5,0,1.1,0,1.6
		c-0.1,0.4-0.2,0.7-0.4,1.1c-0.4,0.2-0.9,0.5-1.3,0.7C23.2,47,23,46.8,23,46.5c0-0.7,0-1.3,0-2C23.1,44.1,23.2,43.8,23.3,43.4
		L23.3,43.4z M43.3,43.6c0.2,0.2,0.4,0.4,0.6,0.7c1.3,1.6,2.9,2.9,4.7,3.7c0.6,0.3,1.2,0.5,1.8,0.5c0.5,0,1-0.3,1.5-0.2
		c0.4,0,0.9,0.2,1.2,0.5c0.2,0.5,0.2,1,0.6,1.4c0.3,0.3,0.7,0.3,1.1,0.3c0.1,0.3,0.2,0.6,0.5,0.6c0.3,0,0.6-0.2,0.9-0.2
		c0.2,0.3,0.3,0.6,0.6,0.7c0.6,0.3,1.1,0.9,1.4,1.5c-0.4-0.4-0.7-0.8-1.3-1.1c0,0.8,0.1,1.7-0.5,2.4c0-0.5-0.1-1-0.3-1.5
		c-0.5,0.4-0.9,0.8-1.5,0.9c0.2-0.2,0.5-0.5,0.5-0.8c0-0.2-0.2-0.3-0.4-0.3c-0.7-0.1-1.3,0.3-1.9,0.7c-0.1-0.3-0.2-0.5-0.3-0.8
		c-0.4,0.1-0.8,0.2-1,0.5c-0.2,0.3,0.1,0.5,0.4,0.6c0.4,0.2,0.8,0.1,1.2,0.1c0.3,0.1,0.4,0.3,0.6,0.5c0-0.2,0-0.4,0-0.6
		c0.5,0.5,0.9,1.1,1.2,1.7c0.5-0.2,0.7-0.7,0.7-1.2c0.2,0.3,0.2,0.7,0.2,1.1c0.1-0.1,0.2-0.3,0.4-0.4c0.1,0.6,0.1,1.1-0.2,1.6
		c-0.2,0.4-0.6,0.7-1,0.8c0.1-0.3,0.3-0.8-0.2-1c-0.8-0.2-1.5,0.2-2.3,0.2c0.4-0.2,0.9-0.5,1.2-0.9c0-0.1-0.1-0.2-0.1-0.2
		c-0.4-0.3-0.9-0.4-1.3-0.5c-0.3-0.1-0.5,0.1-0.7,0.1c-0.4-0.2-1-0.3-1.4,0c-1.1,0.8-3-0.3-2.7-1.7c0.2-0.7,1-1,1.6-1.3
		c-0.6-0.1-1.2,0-1.6,0.4c-0.3,0.3-0.5,0.8-0.5,1.3c-2.1-0.6-4.4-0.7-6.6-0.3c-2.1,0.4-4.1,1.4-5.6,3.1c-1.5,1.6-2.4,3.7-2.8,5.9
		c-0.5,2.6-0.1,5.3,1.1,7.6c0.3,0.6,0.7,1.2,1.1,1.8c-1.8-1.5-3-3.5-3.8-5.6c-0.3,0.3-0.2,0.7-0.3,1.1c-0.6-0.9-0.5-2-0.3-3
		c0.3-1.8,1-3.6,1.7-5.3c-0.6,0.4-1.1,0.9-1.6,1.4c0-1.8,1-3.4,2.1-4.8c0.7-0.8,1.5-1.6,2.2-2.3c-0.6,0.2-1.2,0.5-1.8,0.7
		c1.3-1.3,2.9-2.2,4.6-2.8c1.7-0.6,3.4-0.9,5.1-0.9c-0.9-0.2-1.9-0.4-2.9-0.4l-0.2,0.1c0-0.1,0-0.2,0.1-0.2c1.8-0.4,3.6-0.5,5.3-1.2
		c0.4-0.2,0.8-0.4,1.1-0.7c0.7,0.5,1.5,1.1,2.4,1.1c-1.4-1.2-2.9-2.4-3.9-3.9C43.8,44.7,43.5,44.2,43.3,43.6 M51.4,49.5
		c0.4,0.5,0.8,1.1,1.6,1c-0.1-0.3-0.1-0.6-0.4-0.7C52.2,49.7,51.8,49.7,51.4,49.5z"/>
	<path class="st1" d="M41.8,45.9c1.2,0.6,2.3,1.4,3.5,2c-0.3,0.2-0.7,0.7-1.1,0.4C43.2,47.7,42.5,46.8,41.8,45.9z M27.7,51.3
		c0.9-0.3,2.1,0.4,2.1,1.4c-0.1,0-0.3,0-0.4,0c0,0.8,0.3,1.5,0.7,2.1c0-0.7-0.1-1.4,0.3-2c0.2,0,0.4,0.1,0.6,0.2
		c0.3-0.2,0.2-0.5,0-0.7c-0.2-0.2-0.4-0.4-0.6-0.7c0.5,0.3,1,0.6,1.3,1.1c0.2,0.3,0.2,0.8-0.1,1.1c-0.2,0.2-0.6,0-0.7,0.3
		c-0.2,0.4-0.1,1,0,1.4c0.5-0.1,0.8-0.5,1.2-0.6c-0.8,0.9-1.6,1.8-2.1,2.9c0-0.3,0.2-0.7-0.1-1c-0.4-0.4-1.1-0.4-1.6-0.7
		c-0.3-0.2-0.4-0.5-0.7-0.8c-0.2-0.2-0.6-0.1-0.7-0.4c-0.1-0.4,0-0.9-0.4-1.3c-0.4-0.3-0.9-0.2-1.4-0.3c0.8-0.4,1.8-0.2,2.3,0.4
		c0.3,0.3,0.2,0.8,0.6,1c0.3,0.2,0.7,0.5,1.1,0.6c0.1-0.6-0.5-1-0.6-1.5c-0.2-0.5-0.3-1.2,0-1.7c0.1-0.2,0.3-0.4,0-0.5
		C28.5,51.4,28.1,51.4,27.7,51.3L27.7,51.3z M38.9,54.8c0.1,0,0.2-0.1,0.4-0.1c-0.9,0.8-1.6,1.9-2.3,2.9c-0.2,0.4-0.6,0.7-0.5,1.2
		c0,0.1,0.1,0.4,0.3,0.3c0.4-0.2,0.7-0.7,1-1.1c0.2,0.7,0.9,1.1,1.5,1.3c1.1,0.4,2.3,0.3,3.5,0.1c2.2-0.3,4.5-0.9,6.3-2.2
		c0.5-0.3,0.8-0.8,1.3-1.2c-0.1,0.6-0.5,1-0.9,1.4c-1.3,1.3-3,2-4.7,2.5c-1.7,0.4-3.4,0.6-5.1,0.7c-0.4,0-0.8,0.1-1.2,0.3
		c-0.2,0.2,0,0.4,0.2,0.6c0.6,0.4,1.3,0.8,2,1c1.7,0.6,3.7,0.3,5.4-0.2c1.2-0.3,2.3-0.9,3.4-1.5c-1.3,1.2-3.1,2-4.9,2.3
		c-2.4,0.4-4.9,0.1-7.2-0.8c-0.2-0.1-0.6-0.1-0.8,0.1c-0.2,0.4,0.2,0.8,0.4,1.2c0.7,1.3,1.6,2.7,2.9,3.5c0.5,0.3,1.1,0.5,1.7,0.7
		c-1,0-1.9-0.4-2.7-0.9c-1.7-1-2.7-2.7-3.4-4.4c0.1,2.3,1.6,4.3,3.3,5.8c0,0.3-0.3,0.3-0.5,0.3c-0.8,0.2-1.7,0.2-2.3,0.8
		c-0.5,0.9-0.5,2-1.1,2.9c-1-1.8-1.7-3.8-2-5.8c-0.4-2.7,0.2-5.4,1.6-7.7C35.4,57,37,55.6,38.9,54.8L38.9,54.8z"/>
	<path class="st1" d="M49.5,59.2c0.6-0.3,1.1-0.8,1.7-1.2c-0.1,0.4-0.5,0.6-0.7,0.9c-2.4,2.2-5.8,3.1-9.1,3c-0.6,0-1.3-0.1-1.8-0.5
		c-0.1-0.3,0.3-0.4,0.5-0.3C43.3,61.2,46.7,60.8,49.5,59.2L49.5,59.2z M48.3,62.5c1.1-0.1,2.3,0.1,3.3,0.6c1,0.5,1.7,1.4,2.1,2.4
		c-0.6-0.5-1.5-0.7-2.3-0.5c0,0.2,0,0.5,0.2,0.7c-1,0.1-2.1-0.3-2.8-1.1c0.5,0.2,0.9,0.5,1.5,0.4c0.4-0.1,0.9-0.3,1.1-0.6
		c0.2-0.3-0.1-0.5-0.3-0.7C50.2,63.1,49.2,62.8,48.3,62.5L48.3,62.5z M37.4,62.8c0.2,0,0.5,0,0.6,0.2c1,1.2,2.5,1.8,4,2.1
		c1.1,0.2,2.3,0.3,3.5,0.2c-1.9,0.5-4,0.4-5.8-0.4c-0.8-0.3-1.6-0.9-2.1-1.6C37.4,63.2,37.4,63,37.4,62.8z"/>
	<path class="st1" d="M48.3,65.4c-0.3-0.6-0.5-1.3-0.3-1.9c0.1,0.7,0.4,1.5,1,2c0.7,0.6,1.8,0.7,2.7,0.7c1.3-0.1,2.6-0.4,3.9-0.3
		c0.6,0.1,1.1,0.5,1.4,1c0.3,0.5,0.5,1,0.7,1.5c0.1,0.7-0.4,1.1-0.6,1.7c-0.3,1-0.3,2.1-0.7,3.1c-0.2,0.6-0.8,0.9-1.1,1.5
		c-0.6,1-0.9,2.1-1.1,3.2c-0.1,0.5-0.3,1.1-0.8,1.4c-0.9,0.5-1.9,0.6-2.8,1c-0.9,0.4-1.5,1.1-2.3,1.6c-0.6,0.4-1.4,0.4-2.1,0.2
		c-0.5-0.2-1.1-0.3-1.7-0.1c-0.5,0.1-1,0.4-1.5,0.3c-0.7-0.2-0.7-1.1-1.3-1.4c-0.6-0.3-1.3-0.3-1.9-0.4c-0.3,0-0.6-0.2-0.7-0.5
		c-0.2-0.4-0.2-0.9-0.4-1.3c-0.5-0.8-1.7-1-2.2-1.9c-0.2-0.4-0.2-0.9,0-1.3c0.2-0.5,0.2-1.1-0.1-1.5c-0.4-0.4-1-0.5-1.5-0.5
		c0.6-0.8,0.9-1.7,1.1-2.7c0.1-0.6,0.4-1.1,1-1.3c0.8-0.2,1.8-0.6,2.6-0.1c0.9,0.7,0.8,2.2,0,3c-0.5,0.4-1.4,0.6-2,0.2
		c-0.4-0.2-0.4-0.7-0.4-1.1c0.3,0.2,0.5,0.5,0.8,0.5c0.3-0.1,0.7-0.2,0.6-0.5c-0.2-0.5-0.8-0.8-1.2-0.6c-0.5,0.3-1.1,0.7-1.2,1.3
		c0,0.7,0.7,1.1,1.4,1.1c1,0,1.9-0.6,2.6-1.3c-0.1,2,0,4.1,0.9,5.8c0.5,0.9,1.3,1.5,2.3,1.8c2,0.5,4.1,0.1,6-0.5
		c1.1-0.4,2.3-0.9,3.2-1.7c0.5-0.4,0.8-0.9,1.1-1.4c0.9-1.4,1.6-3,2.1-4.5c0.4-1.1,0.6-2.4,0.2-3.6c-0.3-0.8-1.2-1.1-2-1.2
		c-1-0.2-2,0.2-3,0.1c-0.2,0.3-0.2,0.8,0.2,1.1c0.7,0.4,1.5,0.3,2.2,0.3c-1.4,0.5-2.9,0.8-4.3,0.1c-1.2-0.5-2.1-1.6-2.5-2.8
		c0.6,0.8,1.2,1.7,2.2,2.1c0.5,0.2,1.1,0.3,1.5-0.1c0.3-0.3,0-0.6-0.2-0.9C49.3,66.3,48.6,66,48.3,65.4L48.3,65.4z M57.4,67
		c0.2-0.2,0.5-0.2,0.7-0.3c-0.1,0.2-0.2,0.5-0.5,0.6C57.4,67.3,57.4,67.2,57.4,67z M57.3,70.2c0.4-0.2,0.8,0,1.2-0.1
		c-0.3,0.3-0.8,0.6-1.2,0.4C57.3,70.5,57.3,70.3,57.3,70.2z"/>
	<path class="st1" d="M42,71.4c0.6-0.4,1.3-0.5,2-0.6c-0.5,0.2-1.1,0.3-1.4,0.9c0.2,0.3,0.7,0.1,0.8,0.4c0,0.7-0.6,1.3-0.8,1.9
		c0.6-0.4,1.3-0.8,1.7-1.5c0.1-0.2-0.2-0.3-0.3-0.4c0.3-0.5,1-0.7,1.5-0.7c0.4,0,0.9,0.1,1.2,0.5c-0.4-0.1-0.9-0.4-1.3-0.2
		c-0.1,0.3,0,0.6-0.2,0.9c-0.3,0.7-0.9,1.2-1.6,1.5c-0.2,0.1-0.6,0.3-0.5,0.6c0.4,0,0.9,0.1,1.3,0c0.5-0.1,0.7-0.6,1.1-0.7
		c0.8-0.2,1.8,0.1,2.2,0.9c-0.4-0.2-0.9-0.6-1.4-0.5c-0.5,0.1-0.7,0.6-1,1c-0.3,0.1-0.5-0.1-0.8-0.1c-0.4,0.1-0.7,0.3-1.1,0.3
		c-0.7,0.1-1.3-0.4-2-0.2c-0.4,0.1-0.3,0.5-0.4,0.8c-0.4-1.2-0.6-2.5-0.5-3.7c0.3,0.3,0.3,0.7,0.4,1.1c0.1,0.2,0.3,0.2,0.5,0.1
		c0.4-0.3,0.7-0.8,0.7-1.4C41.7,72.5,41.5,71.8,42,71.4L42,71.4z M35.1,74.1c0.3-0.3,1-0.1,1,0.4c0,0.3,0,0.8-0.3,0.9
		C35,75.9,34,76,33.6,76.9C33.7,75.8,34.2,74.7,35.1,74.1z M55.1,75.4c0.2-0.3,0.6-0.2,0.8-0.1c0.3,0.2,0.7,0.3,1,0.3
		c-0.5,0.3-1,0.5-1.6,0.3C55.1,75.9,54.9,75.6,55.1,75.4z M37.9,78.5c0.4-0.1,0.9,0.2,0.8,0.7c0,0.3-0.3,0.5-0.6,0.6
		c-0.6,0.3-1.4,0.5-1.7,1.1C36.4,79.9,37,78.9,37.9,78.5L37.9,78.5z M50.2,81.1c-0.2-0.4,0.2-0.8,0.6-0.7c0.4,0.1,0.4,0.6,0.4,0.9
		c0,0.4,0.2,0.7,0.4,1.1C51,82.2,50.5,81.7,50.2,81.1L50.2,81.1z M40.6,81.2c0.2-0.3,0.6-0.4,0.9-0.3c0.4,0.2,0.5,0.9,0.1,1.2
		c-0.6,0.5-1.4,0.7-1.6,1.5C39.8,82.8,40,81.8,40.6,81.2L40.6,81.2z M44.9,82.2c0.5-0.3,1.1,0.3,0.8,0.8c-0.4,0.6-1.2,0.9-1.3,1.6
		C44.3,83.8,44.3,82.8,44.9,82.2L44.9,82.2z"/>
</g>
<path d="M43.7,32.6c0.4-0.1,0.8,0,1.2,0l0,0.1c0.1,0,0.3,0,0.4,0c0.8,0.2,1.6,0.4,2.5,0.6c0.6,0.2,1.1,0.3,1.7,0.5
	c0.1,0,0.2,0.1,0.4,0.1c0.1,0,0.2,0.1,0.4,0.1c0.5,0.2,1,0.3,1.5,0.5c0.1,0,0.2,0.1,0.4,0.1c0.1,0,0.2,0.1,0.4,0.1
	c0.2,0.1,0.4,0.2,0.6,0.2c0.2,0.1,0.4,0.2,0.6,0.3c0.1,0,0.2,0.1,0.4,0.1c0.3,0.1,0.6,0.3,0.9,0.4c0.2,0.1,0.4,0.2,0.6,0.2
	c0.3,0.2,0.7,0.3,1.1,0.5c0.1,0,0.2,0.1,0.3,0.1l0,0.1c0.5,0.2,1,0.5,1.5,0.7c0.1,0,0.2,0.1,0.2,0.1c0.1,0,0.2,0.1,0.2,0.1
	c0.1,0,0.2,0.1,0.2,0.1c0.2,0.1,0.3,0.2,0.5,0.2c0.2,0.1,0.3,0.2,0.5,0.3c0.1,0,0.2,0.1,0.2,0.1c0.1,0,0.2,0.1,0.2,0.1
	c0.5,0.3,1.1,0.6,1.6,0.9c0.3,0.2,0.6,0.3,0.9,0.5c0.4,0.3,0.8,0.5,1.2,0.7c0.3,0.2,0.6,0.4,1,0.6c0.4,0.3,0.9,0.5,1.3,0.9
	c0.1,1.7,0,3.4,0,5.1c-0.1,1-0.2,1.9-0.2,2.9c-0.1,0-0.1-0.1-0.2-0.1c-3.8-2-7.8-3.7-11.9-5.1c-2.8-0.9-5.6-1.6-8.5-2.2
	c-0.5-0.1-1.1-0.3-1.6-0.3c-0.6,0-1.2,0.2-1.7,0.3c-2.6,0.6-5.2,1.2-7.7,2c-2.6,0.8-5.1,1.8-7.6,2.9c-1.6,0.8-3.3,1.5-4.9,2.4
	c0-0.1,0-0.3-0.1-0.4c0-0.7,0-1.3-0.1-2c-0.1-0.7,0-1.4-0.1-2.1c0-0.9,0-1.7,0-2.6c0.1-0.3,0.1-0.6,0.1-0.9c0.7-0.4,1.3-0.9,2-1.3
	c1.1-0.7,2.3-1.3,3.4-2c0.3-0.2,0.6-0.3,1-0.5c0.1,0,0.2-0.1,0.2-0.1c0.4-0.2,0.8-0.4,1.2-0.6c0.2-0.1,0.4-0.2,0.7-0.3l0-0.1
	c0.1,0,0.2,0,0.2,0l0-0.1c0.5-0.1,0.9-0.4,1.3-0.5l0-0.1c0.4-0.1,0.8-0.3,1.1-0.5c0.2-0.1,0.4-0.1,0.6-0.3c0.2-0.1,0.4-0.1,0.6-0.2
	c0.2-0.1,0.4-0.1,0.6-0.2c0.4-0.2,0.9-0.3,1.3-0.5c0.1,0,0.2-0.1,0.4-0.1c0.6-0.2,1.2-0.4,1.8-0.6c0.1,0,0.2-0.1,0.4-0.1
	c0.6-0.2,1.1-0.3,1.7-0.5c0.2,0,0.3-0.1,0.5-0.1c0.3-0.1,0.7-0.2,1-0.2c0.2,0,0.3-0.1,0.5-0.1c0.2,0,0.3-0.1,0.5-0.1
	C43.3,32.7,43.5,32.7,43.7,32.6 M41.8,34.6c-0.5,0.5-1,1-1.5,1.5c0,1.2,0,2.4,0,3.6c0.5,0.5,1,0.9,1.4,1.4c1.5,0,3,0,4.5,0
	c0.2,0,0.3-0.1,0.4-0.2c0.4-0.4,0.8-0.8,1.2-1.2c0-0.8,0-1.6,0-2.5c-1.6,0-3.1,0-4.7,0c0.4,0.4,0.9,0.9,1.3,1.3h1.4v1.1h-3.6V36
	c1.5,0,2.9,0,4.4,0c0.5-0.5,0.9-1,1.4-1.5C46,34.6,43.9,34.6,41.8,34.6 M37,36.9c-0.2,0.4-0.4,0.8-0.5,1.2c-0.1,0.8,0,1.6,0,2.4
	c0.1,0.3,0.4,0.6,0.6,0.9c0.6-0.2,1.2-0.4,1.7-0.5c0.2-0.4,0.4-0.8,0.5-1.2c0-0.6,0-1.2,0-1.7c-0.6,0.2-1.2,0.3-1.8,0.5
	c0.2,0.3,0.3,0.5,0.5,0.8c0.2,0,0.3-0.1,0.5-0.1c0,0.2,0,0.5,0,0.7c-0.4,0.1-0.9,0.3-1.3,0.4c0-0.8,0-1.6,0-2.5
	c0.5-0.2,1.1-0.3,1.6-0.5c0.2-0.4,0.4-0.8,0.5-1.2C38.6,36.4,37.8,36.6,37,36.9 M49.5,36.6c-0.2,0.4-0.5,0.7-0.7,1.1
	c0.2,0.5,0.4,0.9,0.6,1.4c0.6,0.1,1.1,0.3,1.7,0.5c0.1,0.2,0.1,0.3,0.2,0.5c0,0.1-0.1,0.2-0.2,0.3c-0.6-0.2-1.1-0.3-1.7-0.4
	c-0.2,0.3-0.4,0.5-0.6,0.8c1,0.2,1.9,0.4,2.9,0.7c0.2-0.4,0.3-0.7,0.5-1.1c-0.1-0.5-0.3-1-0.4-1.5c-0.6-0.2-1.2-0.4-1.8-0.5
	c-0.1-0.2-0.1-0.3-0.2-0.5c0.1-0.1,0.2-0.3,0.3-0.4c0.5,0.1,1.1,0.3,1.6,0.5c0.2-0.2,0.5-0.4,0.7-0.6C51.4,37.1,50.4,36.8,49.5,36.6
	 M35.3,37.3c0,0.9,0.1,1.7,0,2.6c-0.5-0.7-1-1.4-1.5-2.1c-0.2,0.1-0.3,0.1-0.5,0.2c0.1,1.7,0.1,3.5,0.1,5.2c0.2-0.3,0.4-0.7,0.6-1
	c0-0.8,0-1.7,0-2.5c0.5,0.7,1,1.4,1.5,2.1c0.2,0,0.3-0.1,0.5-0.1c-0.1-1.5,0-3-0.1-4.5C35.7,37.2,35.5,37.3,35.3,37.3 M52.7,37.5
	c-0.1,1.4-0.2,2.8-0.2,4.2c0.6,0.2,1.2,0.3,1.7,0.5c0.4,0.2,0.8-0.3,1.1-0.5c-0.7-0.2-1.3-0.5-2-0.7c0-0.2,0-0.5,0-0.7
	c0.4,0.1,0.7,0.3,1.1,0.4c0.3-0.1,0.6-0.4,0.9-0.6c-0.6-0.3-1.3-0.5-1.9-0.7c0-0.3,0-0.6,0.1-0.9c0.5,0.2,1,0.3,1.4,0.5
	c0.2-0.2,0.5-0.4,0.7-0.5C54.7,38.1,53.7,37.8,52.7,37.5 M32.1,38.5c0.1,1.7,0.1,3.4,0.1,5.2c0.2-0.3,0.4-0.7,0.7-1
	c0-1.5-0.1-3-0.1-4.4C32.6,38.3,32.3,38.4,32.1,38.5 M56.1,38.7c0,1.7-0.1,3.4-0.2,5.1c0.2-0.3,0.5-0.6,0.7-0.9c0-0.5,0-0.9,0.1-1.4
	c0.4,0.2,1,0.3,1.1,0.8c0.3,0.4,0.1,0.8,0.1,1.2c0.2,0.1,0.4,0.2,0.6,0.3c0-0.5,0.1-0.9,0.1-1.4c-0.1-0.3-0.3-0.5-0.4-0.8
	c0.2-0.2,0.3-0.5,0.5-0.7c-0.1-0.4-0.2-0.9-0.3-1.3C57.6,39.3,56.9,38.9,56.1,38.7 M30.8,39c-0.3,1-0.5,2-0.8,2.9
	c-0.3-0.7-0.6-1.4-0.9-2c-0.2,0.1-0.5,0.2-0.7,0.4c0,1.6,0,3.3,0.1,4.9c0.2-0.3,0.4-0.7,0.6-1c0.1-0.9,0-1.7,0-2.6
	c0.3,0.5,0.5,1.1,0.7,1.7c0.1-0.1,0.3-0.1,0.4-0.2c0.2-0.8,0.5-1.6,0.6-2.4c0.1,0.9,0.1,1.8,0.1,2.7c0.2-0.1,0.4-0.2,0.7-0.3
	c-0.1-1.4-0.1-2.9-0.1-4.3C31.3,38.8,31.1,38.9,30.8,39 M59.2,40.1c-0.1,1.6-0.1,3.2-0.2,4.8c0.3-0.2,0.5-0.4,0.7-0.6
	c0-1.3,0.1-2.6,0.1-3.9C59.7,40.4,59.5,40.2,59.2,40.1 M26,41.7c-0.2,0.4-0.3,0.8-0.5,1.3c0,1.3,0.1,2.5,0.1,3.8
	c0.2-0.4,0.4-0.7,0.6-1.1c0.1-0.4,0-0.8,0-1.1c0.4-0.2,0.8-0.5,1.2-0.7c0,0.4,0,0.8,0,1.2c0.2-0.1,0.4-0.2,0.6-0.3
	c0-1-0.1-1.9,0-2.9c0.1-0.4-0.3-0.7-0.5-1C27,41,26.4,41.3,26,41.7 M60.5,40.8c-0.1,1.3-0.1,2.6-0.2,3.9c0.5,0.2,1.1,0.4,1.6,0.7
	c0.3-0.1,0.5-0.3,0.8-0.4c-0.6-0.3-1.1-0.5-1.7-0.8c0-0.2,0-0.4,0-0.6c0.3,0.1,0.5,0.2,0.8,0.3c0.3-0.2,0.6-0.3,0.9-0.5
	c-0.6-0.2-1.1-0.5-1.7-0.7c0-0.3,0-0.5,0-0.8c0.4,0.2,0.7,0.4,1.1,0.5c0.3,0,0.6-0.2,0.8-0.4C62.2,41.6,61.4,41.1,60.5,40.8
	 M63.5,42.2c-0.1,0.4-0.3,0.8-0.4,1.2c0.1,0.4,0.2,0.7,0.3,1.1c0.5,0.2,1,0.4,1.4,0.7c0.1,0.2,0.1,0.4,0,0.6
	c-0.4-0.2-0.7-0.4-1.1-0.5c-0.2,0.1-0.5,0.3-0.7,0.5c0.7,0.3,1.3,0.6,2,0.9c0.2-0.3,0.3-0.7,0.5-1c-0.1-0.4-0.2-0.8-0.2-1.2
	c-0.5-0.2-0.9-0.5-1.4-0.7c-0.1-0.2-0.1-0.4,0-0.6c0.4,0.2,0.7,0.4,1,0.6c0.2-0.1,0.4-0.3,0.6-0.4C64.8,42.9,64.2,42.6,63.5,42.2
	 M23.3,43.4c-0.2,0.4-0.3,0.7-0.4,1.1c0,0.7,0,1.3,0,2c0,0.3,0.3,0.6,0.4,0.9c0.4-0.2,0.9-0.5,1.3-0.7c0.1-0.4,0.3-0.7,0.4-1.1
	c0-0.5,0-1.1,0-1.6c-0.5,0.2-0.9,0.5-1.3,0.8c0.1,0.2,0.3,0.4,0.4,0.6c0.1,0,0.3-0.1,0.4-0.2c0,0.2,0,0.4,0,0.6
	c-0.3,0.2-0.6,0.4-1,0.6c0-0.7,0-1.4,0-2.1c0.3-0.2,0.6-0.4,0.9-0.6c0.5-0.2,0.5-0.9,0.7-1.4C24.5,42.6,23.9,42.9,23.3,43.4
	L23.3,43.4z"/>
<path d="M56.7,39.7c0.4,0.2,1.1,0.3,1.2,0.9c0.1,0.2-0.1,0.3-0.1,0.5c-0.4-0.2-0.8-0.3-1.1-0.5C56.7,40.3,56.7,40,56.7,39.7
	L56.7,39.7z M26.1,42.5c0.4-0.3,0.8-0.5,1.2-0.7c0,0.4,0,0.7,0,1c-0.4,0.2-0.8,0.5-1.2,0.7C26.2,43.2,26.1,42.9,26.1,42.5L26.1,42.5
	z"/>
<g>
	<path class="st2" d="M42.4,42.7c0.6-0.1,1.2-0.2,1.7-0.3c0.5,0,1.1,0.2,1.6,0.3c2.9,0.6,5.7,1.2,8.5,2.2c4.1,1.4,8,3.1,11.9,5.1
		c0.1,0.1,0.2,0.3,0.2,0.5c-0.2,0.4-0.1,0.8-0.1,1.2c-0.1,0.3-0.1,0.7-0.1,1c-0.1,0.6-0.2,1.2-0.2,1.8c-0.1,0.2-0.1,0.5-0.1,0.7
		c-0.2,0.9-0.3,1.9-0.5,2.8c-0.1,0.6-0.3,1.1-0.4,1.7c-0.2,1-0.5,2-0.7,2.9c-0.1,0.3-0.2,0.6-0.2,0.9c-0.2,0.5-0.3,1.1-0.5,1.6
		c0,0.1-0.1,0.2-0.1,0.4c-0.2,0.6-0.4,1.1-0.6,1.7c0,0.1-0.1,0.2-0.1,0.4c-0.1,0.2-0.2,0.4-0.2,0.6c-0.1,0.2-0.2,0.4-0.2,0.6
		c-0.2,0.4-0.3,0.7-0.5,1.1c-1.7,3.7-3.8,7.3-6.7,10.3c-2.2,2.4-4.9,4.4-7.8,5.8c-0.1,0-0.2,0.1-0.2,0.1c-0.1,0-0.2,0.1-0.2,0.1
		c-0.5,0.2-0.9,0.4-1.3,0.6c-0.2,0.1-0.4,0.2-0.6,0.2c-0.1,0.1-0.3,0.1-0.4,0.2c-0.3-0.1-0.7-0.3-1-0.4c-3.8-1.6-7.2-4-9.9-7.1
		c-2.2-2.4-3.9-5.1-5.4-8c-0.1-0.2-0.2-0.3-0.2-0.5l-0.1-0.2l-0.1-0.2c-0.3-0.7-0.7-1.5-1-2.2c-0.1-0.2-0.2-0.4-0.2-0.6
		c-0.2-0.4-0.3-0.9-0.5-1.3c-0.4-1.3-0.8-2.6-1.2-3.9c-0.2-0.6-0.3-1.2-0.5-1.9c-0.1-0.5-0.2-1.1-0.4-1.6c-0.2-1-0.4-2.1-0.6-3.1
		c0-0.2,0-0.5-0.1-0.7c-0.1-0.5-0.1-1.1-0.3-1.6c0-0.3,0-0.6-0.1-0.9c0-0.4,0-0.7-0.1-1.1c0-0.4,0-0.8-0.1-1.1c0-0.3,0-0.6,0-0.9
		c1.6-0.9,3.3-1.6,4.9-2.4c2.5-1.1,5-2.1,7.6-2.9C37.2,43.8,39.8,43.2,42.4,42.7 M43.3,43.6c0.2,0.6,0.5,1.1,0.8,1.6
		c1,1.6,2.5,2.8,3.9,3.9c-0.9,0-1.7-0.6-2.4-1.1c-0.3,0.3-0.7,0.5-1.1,0.7c-1.7,0.7-3.6,0.8-5.3,1.2c-0.1,0-0.1,0.1-0.1,0.2l0.2-0.1
		c1,0,1.9,0.2,2.9,0.4c-1.7,0-3.5,0.4-5.1,0.9c-1.7,0.6-3.3,1.5-4.6,2.8c0.6-0.2,1.2-0.5,1.8-0.7c-0.8,0.8-1.6,1.5-2.2,2.3
		c-1.1,1.4-2.2,2.9-2.1,4.8c0.5-0.5,1-1.1,1.6-1.4c-0.8,1.7-1.4,3.5-1.7,5.3c-0.2,1-0.3,2.1,0.3,3c0.1-0.4,0-0.8,0.3-1.1
		c0.8,2.1,2,4.2,3.8,5.6c-0.4-0.6-0.8-1.2-1.1-1.8c-1.2-2.3-1.6-5-1.1-7.6c0.4-2.1,1.3-4.2,2.8-5.9c1.4-1.6,3.4-2.7,5.6-3.1
		c2.2-0.4,4.4-0.3,6.6,0.3c0.1-0.5,0.2-0.9,0.5-1.3c0.4-0.5,1.1-0.6,1.6-0.4c-0.6,0.3-1.4,0.6-1.6,1.3c-0.3,1.4,1.6,2.5,2.7,1.7
		c0.4-0.3,1-0.2,1.4,0c0.2-0.1,0.5-0.3,0.7-0.1c0.4,0.2,0.9,0.3,1.3,0.5c0,0.1,0.1,0.2,0.1,0.2c-0.3,0.5-0.8,0.7-1.2,0.9
		c0.8-0.1,1.5-0.4,2.3-0.2c0.4,0.1,0.3,0.7,0.2,1c0.4-0.1,0.8-0.4,1-0.8c0.3-0.5,0.2-1.1,0.2-1.6c-0.1,0.1-0.2,0.3-0.4,0.4
		c0-0.4,0-0.7-0.2-1.1c0,0.5-0.2,0.9-0.7,1.2c-0.4-0.6-0.7-1.2-1.2-1.7c0,0.2,0,0.4,0,0.6c-0.2-0.2-0.3-0.4-0.6-0.5
		c-0.4-0.1-0.8,0.1-1.2-0.1c-0.2-0.1-0.5-0.3-0.4-0.6c0.2-0.3,0.7-0.4,1-0.5c0.1,0.3,0.2,0.5,0.3,0.8c0.6-0.4,1.2-0.8,1.9-0.7
		c0.2,0,0.5,0.1,0.4,0.3c-0.1,0.3-0.4,0.5-0.5,0.8c0.6-0.1,1-0.6,1.5-0.9c0.2,0.5,0.3,1,0.3,1.5c0.6-0.6,0.5-1.6,0.5-2.4
		c0.5,0.2,0.9,0.6,1.3,1.1c-0.3-0.6-0.8-1.2-1.4-1.5c-0.3-0.1-0.4-0.5-0.6-0.7c-0.3,0.1-0.6,0.2-0.9,0.2c-0.3,0-0.4-0.4-0.5-0.6
		c-0.4,0.1-0.9,0.1-1.1-0.3c-0.4-0.4-0.4-0.9-0.6-1.4c-0.3-0.3-0.8-0.5-1.2-0.5c-0.5-0.1-1,0.3-1.5,0.2c-0.6,0-1.2-0.3-1.8-0.5
		c-1.8-0.9-3.4-2.2-4.7-3.7C43.7,44.1,43.5,43.8,43.3,43.6 M41.8,45.9c0.7,0.9,1.4,1.8,2.4,2.4c0.4,0.3,0.8-0.2,1.1-0.4
		C44.1,47.3,43,46.5,41.8,45.9 M27.7,51.3c0.4,0.1,0.8,0.1,1.1,0.3c0.2,0.1,0,0.4,0,0.5c-0.3,0.5-0.2,1.2,0,1.7
		c0.2,0.5,0.7,0.9,0.6,1.5c-0.4-0.1-0.8-0.3-1.1-0.6c-0.3-0.2-0.3-0.7-0.6-1c-0.6-0.6-1.6-0.8-2.3-0.4c0.5,0,1,0,1.4,0.3
		c0.4,0.3,0.3,0.8,0.4,1.3c0.1,0.3,0.5,0.2,0.7,0.4c0.2,0.2,0.4,0.6,0.7,0.8c0.5,0.3,1.1,0.3,1.6,0.7c0.2,0.3,0.1,0.7,0.1,1
		c0.5-1.1,1.3-2,2.1-2.9c-0.4,0.2-0.8,0.5-1.2,0.6c-0.2-0.4-0.3-0.9,0-1.4c0.1-0.3,0.5-0.1,0.7-0.3c0.3-0.3,0.2-0.8,0.1-1.1
		c-0.3-0.5-0.8-0.8-1.3-1.1c0.2,0.2,0.4,0.4,0.6,0.7c0.2,0.2,0.2,0.6,0,0.7c-0.2-0.1-0.4-0.2-0.6-0.2c-0.3,0.6-0.2,1.3-0.3,2
		c-0.4-0.6-0.7-1.3-0.7-2.1c0.1,0,0.3,0,0.4,0C29.9,51.7,28.7,51,27.7,51.3 M38.9,54.8c-1.8,0.9-3.4,2.2-4.5,3.9
		c-1.4,2.3-2,5.1-1.6,7.7c0.3,2,1,4.1,2,5.8c0.6-0.9,0.6-2,1.1-2.9c0.6-0.6,1.5-0.6,2.3-0.8c0.2-0.1,0.5-0.1,0.5-0.3
		c-1.7-1.5-3.1-3.5-3.3-5.8c0.7,1.8,1.8,3.4,3.4,4.4c0.8,0.5,1.7,0.9,2.7,0.9c-0.6-0.2-1.2-0.3-1.7-0.7c-1.3-0.8-2.2-2.1-2.9-3.5
		c-0.2-0.4-0.6-0.8-0.4-1.2c0.1-0.3,0.5-0.2,0.8-0.1c2.3,0.8,4.8,1.2,7.2,0.8c1.8-0.3,3.6-1,4.9-2.3c-1.1,0.5-2.2,1.1-3.4,1.5
		c-1.7,0.5-3.6,0.8-5.4,0.2c-0.7-0.2-1.4-0.6-2-1c-0.2-0.1-0.4-0.4-0.2-0.6c0.3-0.3,0.8-0.3,1.2-0.3c1.7-0.1,3.4-0.2,5.1-0.7
		c1.7-0.5,3.4-1.2,4.7-2.5c0.4-0.4,0.8-0.8,0.9-1.4c-0.5,0.4-0.8,0.9-1.3,1.2c-1.8,1.3-4.1,1.9-6.3,2.2c-1.1,0.1-2.4,0.3-3.5-0.1
		c-0.7-0.2-1.3-0.6-1.5-1.3c-0.3,0.4-0.6,0.8-1,1.1c-0.2,0.1-0.3-0.2-0.3-0.3c-0.1-0.5,0.2-0.9,0.5-1.2c0.7-1,1.4-2,2.3-2.9
		C39.1,54.7,39,54.7,38.9,54.8 M49.5,59.2c-2.8,1.7-6.2,2.1-9.4,1.9c-0.2,0-0.6,0-0.5,0.3c0.5,0.4,1.2,0.4,1.8,0.5
		c3.2,0.1,6.6-0.8,9.1-3c0.3-0.3,0.6-0.5,0.7-0.9C50.6,58.4,50.1,58.8,49.5,59.2 M48.3,62.5c0.9,0.3,1.9,0.6,2.7,1.1
		c0.2,0.2,0.5,0.4,0.3,0.7c-0.2,0.4-0.7,0.6-1.1,0.6c-0.5,0.1-1-0.2-1.5-0.4c0.6,0.9,1.7,1.3,2.8,1.1c-0.1-0.2-0.2-0.5-0.2-0.7
		c0.8-0.2,1.7,0,2.3,0.5c-0.3-1-1.1-2-2.1-2.4C50.6,62.6,49.5,62.4,48.3,62.5 M37.4,62.8c0,0.2,0,0.4,0.2,0.6
		c0.5,0.7,1.3,1.2,2.1,1.6c1.8,0.8,3.9,0.9,5.8,0.4c-1.2,0-2.3,0-3.5-0.2c-1.5-0.3-3-0.9-4-2.1C37.8,62.8,37.6,62.9,37.4,62.8
		 M48.3,65.4c0.4,0.6,1,0.9,1.7,1.1c0.1,0.3,0.4,0.6,0.2,0.9c-0.4,0.3-1,0.2-1.5,0.1c-1-0.4-1.6-1.3-2.2-2.1
		c0.4,1.2,1.3,2.3,2.5,2.8c1.4,0.6,3,0.4,4.3-0.1c-0.7,0-1.5,0-2.2-0.3c-0.4-0.2-0.4-0.7-0.2-1.1c1,0.2,2-0.2,3-0.1
		c0.8,0.1,1.7,0.4,2,1.2c0.5,1.1,0.2,2.4-0.2,3.6c-0.6,1.6-1.3,3.1-2.1,4.5c-0.3,0.5-0.7,1-1.1,1.4c-0.9,0.8-2,1.3-3.2,1.7
		c-1.9,0.6-4,1-6,0.5c-1-0.2-1.9-0.9-2.3-1.8c-0.9-1.8-1-3.9-0.9-5.8c-0.7,0.7-1.6,1.3-2.6,1.3c-0.6,0-1.4-0.4-1.4-1.1
		c0.1-0.6,0.6-1.1,1.2-1.3c0.5-0.2,1.1,0.1,1.2,0.6c0,0.3-0.4,0.5-0.6,0.5c-0.3-0.1-0.5-0.4-0.8-0.5c-0.1,0.4,0,0.8,0.4,1.1
		c0.6,0.3,1.4,0.2,2-0.2c0.8-0.8,0.9-2.3,0-3c-0.8-0.5-1.7-0.2-2.6,0.1c-0.6,0.2-0.9,0.7-1,1.3c-0.2,1-0.5,1.9-1.1,2.7
		c0.5,0,1.2,0.1,1.5,0.5c0.3,0.4,0.3,1,0.1,1.5c-0.2,0.4-0.2,0.9,0,1.3c0.5,0.9,1.6,1.1,2.2,1.9c0.2,0.4,0.2,0.9,0.4,1.3
		c0.1,0.3,0.4,0.4,0.7,0.5c0.6,0.1,1.3,0.1,1.9,0.4c0.6,0.3,0.6,1.2,1.3,1.4c0.5,0.1,1-0.2,1.5-0.3c0.6-0.2,1.2,0,1.7,0.1
		c0.7,0.2,1.5,0.2,2.1-0.2c0.7-0.6,1.4-1.2,2.3-1.6c0.9-0.4,1.9-0.5,2.8-1c0.5-0.3,0.7-0.8,0.8-1.4c0.2-1.1,0.5-2.2,1.1-3.2
		c0.3-0.5,0.9-0.9,1.1-1.5c0.4-1,0.4-2,0.7-3.1c0.1-0.6,0.7-1.1,0.6-1.7c-0.1-0.5-0.4-1-0.7-1.5c-0.3-0.5-0.8-0.9-1.4-1
		c-1.3-0.1-2.6,0.1-3.9,0.3c-0.9,0.1-1.9-0.1-2.7-0.7c-0.6-0.5-0.9-1.2-1-2C47.8,64.1,47.9,64.8,48.3,65.4 M57.4,67
		c0,0.2,0.1,0.3,0.2,0.3c0.3-0.1,0.4-0.3,0.5-0.6C57.8,66.8,57.6,66.9,57.4,67 M57.3,70.2c0,0.1,0,0.3,0,0.3
		c0.4,0.2,0.9-0.1,1.2-0.4C58.1,70.2,57.7,70.1,57.3,70.2 M42,71.4c-0.4,0.4-0.3,1.1,0.2,1.3c0,0.5-0.2,1.1-0.7,1.4
		c-0.2,0.1-0.5,0.1-0.5-0.1c-0.1-0.4-0.1-0.8-0.4-1.1c-0.1,1.3,0.1,2.5,0.5,3.7c0-0.3,0-0.7,0.4-0.8c0.7-0.2,1.3,0.3,2,0.2
		c0.4,0,0.7-0.3,1.1-0.3c0.3,0,0.5,0.1,0.8,0.1c0.3-0.4,0.5-0.9,1-1c0.5-0.1,1,0.3,1.4,0.5c-0.4-0.8-1.4-1.1-2.2-0.9
		c-0.5,0.1-0.7,0.6-1.1,0.7c-0.4,0.1-0.9,0-1.3,0c-0.1-0.3,0.2-0.5,0.5-0.6c0.7-0.3,1.4-0.7,1.6-1.5c0.1-0.3,0.1-0.6,0.2-0.9
		c0.4-0.3,0.9,0.1,1.3,0.2c-0.3-0.4-0.7-0.5-1.2-0.5c-0.6,0-1.2,0.2-1.5,0.7c0.1,0.1,0.4,0.2,0.3,0.4c-0.4,0.7-1.1,1-1.7,1.5
		c0.2-0.7,0.8-1.2,0.8-1.9c-0.1-0.4-0.6-0.2-0.8-0.4c0.2-0.6,0.8-0.7,1.4-0.9C43.3,70.9,42.5,71,42,71.4 M35.1,74.1
		c-0.9,0.6-1.4,1.7-1.4,2.8c0.4-0.9,1.4-1,2.2-1.5c0.4-0.2,0.4-0.6,0.3-0.9C36.1,74,35.4,73.8,35.1,74.1 M55.1,75.4
		c-0.2,0.2,0,0.5,0.3,0.6c0.5,0.2,1.1-0.1,1.6-0.3c-0.4,0-0.7-0.1-1-0.3C55.6,75.2,55.2,75.1,55.1,75.4 M37.9,78.5
		c-0.9,0.4-1.5,1.4-1.5,2.4c0.4-0.7,1.1-0.8,1.7-1.1c0.3-0.1,0.6-0.3,0.6-0.6C38.7,78.7,38.3,78.3,37.9,78.5 M50.2,81.1
		c0.3,0.6,0.8,1.1,1.4,1.3c-0.2-0.3-0.4-0.7-0.4-1.1c-0.1-0.3,0-0.8-0.4-0.9C50.4,80.3,50,80.7,50.2,81.1 M40.6,81.2
		c-0.5,0.7-0.7,1.6-0.7,2.4c0.2-0.8,1.1-1.1,1.6-1.5c0.4-0.3,0.3-1-0.1-1.2C41.1,80.8,40.8,80.9,40.6,81.2 M44.9,82.2
		c-0.6,0.6-0.7,1.6-0.5,2.4c0.2-0.7,0.9-1.1,1.3-1.6C46.1,82.5,45.4,81.9,44.9,82.2L44.9,82.2z"/>
	<path class="st2" d="M51.4,49.5c0.4,0.1,0.8,0.2,1.2,0.3c0.2,0.2,0.3,0.5,0.4,0.7C52.2,50.6,51.8,50,51.4,49.5z"/>
</g>
</svg>
