<?xml version="1.0" encoding="utf-8"?>
<!-- Generator: Adobe Illustrator 24.0.1, SVG Export Plug-In . SVG Version: 6.00 Build 0)  -->
<svg version="1.1" id="Слой_1" xmlns="http://www.w3.org/2000/svg" xmlns:xlink="http://www.w3.org/1999/xlink" x="0px" y="0px"
	 viewBox="0 0 200 120" style="enable-background:new 0 0 200 120;" xml:space="preserve">
<style type="text/css">
	.st0{display:none;fill:#FFFFFF;}
	.st1{fill:#A70B52;}
	.st2{fill:#FFFFFF;}
	.st3{fill:#808183;}
</style>
<path class="st0" d="M20.1-19.9h159.8v159.8H20.1V-19.9z"/>
<path class="st1" d="M64,92.7c18.1,0,32.7-14.6,32.7-32.7S82.1,27.3,64,27.3S31.3,41.9,31.3,60S46,92.7,64,92.7z"/>
<path class="st2" d="M72,71.5h-6.8V45.9h-2.5V74h2.5v0H72V71.5z"/>
<path class="st2" d="M88.9,61H72v-2.5h19.3c0,0.5,0,1,0,1.5c0,15.1-12.3,27.4-27.4,27.4S36.6,75.1,36.6,60S48.9,32.6,64,32.6
	c0.4,0,0.8,0,1.2,0l0,2.5c-0.4,0-0.8,0-1.2,0c-13.7,0-24.9,11.1-24.9,24.9c0,13.7,11.1,24.9,24.9,24.9C77.4,84.9,88.3,74.3,88.9,61
	L88.9,61z"/>
<path class="st2" d="M53.8,53.5c2.1,0,3.8-1.7,3.8-3.8c0-2.1-1.7-3.8-3.8-3.8c-2.1,0-3.8,1.7-3.8,3.8S51.7,53.5,53.8,53.5L53.8,53.5
	z"/>
<path class="st3" d="M113,76.1h23.4V69h-14.8V43.7H113V76.1z M164.6,46c-2.7-2.1-6.1-3.1-10.2-3.1c-4.9,0-9,1.5-11.8,4.3
	c-3,3-4.5,7.3-4.5,12.6c0,5.7,1.7,10.4,4.7,13.5c2.4,2.4,5.5,3.6,9.1,3.6c7.9,0,9.7-4.7,9.7-4.7v3.9h7.1V57.8h-14.2v5.7h6.5
	c0,0,0.1,7.2-6.7,7.2c-1.7,0-3.2-0.6-4.4-1.8c-1.8-1.8-2.8-4.9-2.8-8.9c0-6.6,2.6-10.6,7-10.6c2.8,0,4.8,1.7,5.4,4.3h9.1
	C168.1,49.9,167.1,48,164.6,46L164.6,46z"/>
</svg>
