<?xml version="1.0" encoding="utf-8"?>
<!-- Generator: Adobe Illustrator 24.0.1, SVG Export Plug-In . SVG Version: 6.00 Build 0)  -->
<svg version="1.1" id="Слой_1" xmlns="http://www.w3.org/2000/svg" xmlns:xlink="http://www.w3.org/1999/xlink" x="0px" y="0px"
	 viewBox="0 0 200 120" style="enable-background:new 0 0 200 120;" xml:space="preserve">
<style type="text/css">
	.st0{fill:#1D1D1B;}
</style>
<polygon class="st0" points="42.2,70.1 37.6,70.1 32.9,51.1 28.1,70.1 23.6,70.1 17.9,42.7 23.1,42.7 26.5,62.1 31.6,42.7 
	35.9,42.7 40.5,62 43.9,42.7 48.7,42.7 "/>
<path class="st0" d="M62.7,61.2H52.5c0.1,4.1,1.9,5.6,4.9,5.6c1.9,0,4.7-1.7,4.7-1.7v3.8c-1.9,0.9-3.9,1.4-6,1.5
	c-4.7,0-8.4-3-8.4-9.6c0-8.3,5.3-10,8.3-10s6.9,1.4,6.9,7C63,59,62.9,60.1,62.7,61.2 M58.5,57.8c0-2-0.8-3.7-2.6-3.7
	c-1.2,0-3.2,0.3-3.2,4.2h5.9V57.8z"/>
<path class="st0" d="M68.3,49.2c-1.4,0-2.6-1.2-2.7-2.6c0-1.5,1.2-2.7,2.7-2.7s2.7,1.2,2.7,2.7C70.9,48,69.8,49.2,68.3,49.2
	 M65.9,70.1V51.3h4.6v18.8H65.9z"/>
<path class="st0" d="M79.8,70.4c-3.7,0-5.6-1.2-5.6-1.2v-4.1c0,0,2.8,1.7,5.1,1.7c1.8,0,3.2-0.6,3.2-2.2c0-1.8-2.2-2.1-4.2-3.1
	c-2.2-1.1-4.4-2.3-4.4-5.4c0-2.8,1.8-5.3,7.4-5.3c1.5,0,3,0.2,4.5,0.5v4.2c0,0-2.6-1-4.3-1c-1.5,0-2.9,0.2-2.9,1.8
	c0,1.4,1.8,2,3.3,2.6c2.4,1,5.3,2,5.3,5.7C87.2,68.5,84.1,70.4,79.8,70.4"/>
<path class="st0" d="M95.2,70.4c-3.7,0-5.6-1.2-5.6-1.2v-4.1c0,0,2.8,1.7,5.1,1.7c1.8,0,3.2-0.6,3.2-2.2c0-1.8-2.2-2.1-4.2-3.1
	c-2.2-1.1-4.4-2.3-4.4-5.4c0-2.8,1.8-5.3,7.4-5.3c1.5,0,3,0.2,4.5,0.5v4.2c0,0-2.6-1-4.3-1c-1.5,0-2.9,0.2-2.9,1.8
	c0,1.4,1.8,2,3.3,2.6c2.4,1,5.3,2,5.3,5.7C102.7,68.5,99.5,70.4,95.2,70.4"/>
<path class="st0" d="M118.9,76.6c-1.3,1-2.7,1.6-5.1,1.7c-0.4,0-0.8,0-1.3,0c-1.9,0-3.7-0.7-5.1-1.9V73c0.4,0.6,2.9,1.9,5.1,1.9h0.6
	c1.5,0,3.4-1,3.4-4.5v-1.2c-1.1,0.9-2.2,1.2-4.3,1.2c-4.6,0-7.1-4-7.1-9.3c0-7.9,4-10.3,7.9-10.3c1.6-0.1,3.1,0.3,4.5,1l0.3-0.5h3.5
	v18.7C121.2,73.2,120.5,75.4,118.9,76.6 M116.6,55.6c-0.6-1-1.7-1.6-2.9-1.5c-2.6,0-3.8,2.2-3.8,6.6c0,3,0.7,6.3,3.4,6.3
	c1.3,0.1,2.5-0.4,3.3-1.4L116.6,55.6z"/>
<path class="st0" d="M137.5,70.3c-1.2,0.1-2.2-0.7-2.5-1.8c-0.9,1.3-2.9,2.2-5.2,2.2c-2.7,0-5.3-1.6-5.3-5.9c0-4.8,3.3-6.3,8.5-6.3
	h1.6v-1.1c0-2.6-1.7-3-3.5-3c-1.7-0.1-3.3,0.4-4.6,1.4v-3.4c1.5-1,3.4-1.6,5.2-1.5c1-0.1,1.9,0,2.9,0.1c4.3,0.6,4.7,4.2,4.7,8.1v5.8
	c0,1.6,0.2,2.2,1.7,2.2v2.8C139.8,70.2,138.7,70.4,137.5,70.3 M134.5,61.4h-1.7c-1.9,0-3.7,0.7-3.7,3.1c0,1.4,0.7,2.5,2.3,2.5
	c2.5,0,3.1-1.9,3.1-1.9V61.4z"/>
<path class="st0" d="M154.2,70.1l-0.2-1.2c-1.5,1.1-3.4,1.6-5.2,1.5c-2.1,0-5.3-0.9-5.3-5.9V51.3h4.6v12.6c0,2.2,0.7,3.1,2.5,3.1
	c1.3,0,2.4-0.8,3-1.9V51.3h4.6v18.8H154.2z"/>
<path class="st0" d="M169.2,45.7c-1,0-1.5,0.8-1.5,2.8v2.8h3.8V55h-3.8v15.2h-4.6V55h-2.2v-3.6h2.2V50c0-3.3,0.1-8.4,5.6-8.4
	c1,0,2.1,0.2,3,0.4v4C170.9,45.9,170.1,45.8,169.2,45.7"/>
<path class="st0" d="M179.6,45.7c-1,0-1.5,0.8-1.5,2.8v2.8h3.8V55h-3.8v15.2h-4.6V55h-2.2v-3.6h2.2V50c0-3.3,0.1-8.4,5.6-8.4
	c1,0,2.1,0.2,3,0.4v4C181.3,45.9,180.4,45.8,179.6,45.7"/>
</svg>
