<?xml version="1.0" encoding="utf-8"?>
<!-- Generator: Adobe Illustrator 24.0.1, SVG Export Plug-In . SVG Version: 6.00 Build 0)  -->
<svg version="1.1" id="Слой_1" xmlns="http://www.w3.org/2000/svg" xmlns:xlink="http://www.w3.org/1999/xlink" x="0px" y="0px"
	 viewBox="0 0 200 120" style="enable-background:new 0 0 200 120;" xml:space="preserve">
<style type="text/css">
	.st0{fill:#2B2B2B;}
</style>
<path class="st0" d="M197.6,50.3v-2.9h-21.1c-2.4,0-4.2,1.9-4.2,4.2v17c0,2.4,1.9,4.2,4.2,4.2h21.1V70h-21.1c-0.7,0-1.4-0.6-1.4-1.4
	v-17c0-0.7,0.6-1.4,1.4-1.4L197.6,50.3z"/>
<path class="st0" d="M144.3,60.6v12.3h2.9v-9.6c0.5,0.1,1.1,0.1,1.4,0.1h16.9c2.4,0,4.2-1.9,4.2-4.2v-7.5c0-2.3-1.9-4.2-4.2-4.2
	h-21.2v2.9l21.2,0c0.7,0,1.4,0.6,1.4,1.4v7.5c0,0.7-0.6,1.3-1.4,1.3L144.3,60.6z"/>
<path class="st0" d="M115.1,53l19.9,0v6l-19.9,0.1v13.8h5.5v-8.2c0,0,0.1,0,0.1,0c0-0.1,0-0.2-0.1-0.2l7.3,0l7,8.4h5.6V71
	c-1.8-2.1-3.7-4.4-5.5-6.5h0.2c2.9,0,5.3-2.4,5.3-5.2v-6.6c0-2.9-2.4-5.2-5.3-5.2h-20.2V53z"/>
<polygon class="st0" points="111.7,47.5 88.2,47.5 88.2,72.9 111.7,72.9 111.7,67.4 93.7,67.4 93.7,62.9 108.2,62.9 108.2,57.4 
	93.7,57.4 93.7,53 111.7,53 "/>
<path class="st0" d="M60.2,59.1v13.8h5.5v-8.2c0,0,0.1,0,0.1,0c0-0.1,0-0.2-0.1-0.2l14.7,0c2.9,0,5.3-2.4,5.3-5.2v-6.6
	c0-2.9-2.4-5.2-5.3-5.2H60.2V53l19.9,0v6L60.2,59.1z"/>
<path class="st0" d="M52.8,47.4c-2.5,3.3-5.4,6.8-7.9,10l-8-10h-6.5c2,2.7,4.9,6.8,7.1,9.7l4.6,6.2v9.5h5.5v-9.5l11.8-16H52.8z"/>
<polygon class="st0" points="23.6,47.4 23.6,57.4 8.6,57.4 8.6,47.4 3.1,47.4 3.1,72.9 8.6,72.9 8.6,62.9 23.6,62.9 23.6,72.9 
	29.1,72.9 29.1,47.4 "/>
</svg>
