<?xml version="1.0" encoding="utf-8"?>
<!-- Generator: Adobe Illustrator 24.0.1, SVG Export Plug-In . SVG Version: 6.00 Build 0)  -->
<svg version="1.1" id="Слой_1" xmlns="http://www.w3.org/2000/svg" xmlns:xlink="http://www.w3.org/1999/xlink" x="0px" y="0px"
	 viewBox="0 0 200 120" style="enable-background:new 0 0 200 120;" xml:space="preserve">
<style type="text/css">
	.st0{display:none;fill-rule:evenodd;clip-rule:evenodd;fill:#FFFFFF;}
	.st1{fill-rule:evenodd;clip-rule:evenodd;fill:#900D35;}
</style>
<g>
	<path class="st0" d="M-4.5-44.5h209v209h-209V-44.5z"/>
	<path class="st1" d="M6.4,70.8h8.9l5.6-15.3c0,0,1.3-5.2,10.1-5.2c8.1,0,7.4,2.9,7.4,3.4c0,0.5-0.5,3.1-6.8,3.1
		c-6.3,0-9.1-1.1-9.1-1.1l1.4,6.5c0,0,6.1,0.8,8.8,0.8c2.4,0,14.6-1.4,14.6-9.9c0-5.4-7.3-8.9-16.1-8.9c-10.3,0-16.1,3.9-18.7,10.4
		L6.4,70.8L6.4,70.8z M49.3,55.6l-5.7,15.2h8.3l5.7-15.2H49.3z M87.2,62.8c0,6.1-10.2,8.8-16.1,8.8c-2.9,0-14-1.6-14-8.1
		c0-6.5,11.1-8.7,15.6-8.7C77.7,54.8,87.2,56.7,87.2,62.8L87.2,62.8z M72.1,59.6c-2,0-6.2,1.1-6.2,3.7c0,2.6,3.7,3.5,5.9,3.5
		s6.5-1.1,6.5-3.7S74.4,59.6,72.1,59.6L72.1,59.6z M86.7,70.8h8.1l3.3-8.8c0.2-0.7,1.4-2.5,4.9-2.5c4.1,0,3.6,2.5,3.4,3.1l-3,8.2h8
		l3.1-8.4c0,0,2.6-7.4-9.8-7.4c-12.7,0-14.5,6.5-14.5,6.5L86.7,70.8L86.7,70.8z M132.5,58.9c4.8,0,5,1.5,5,1.5s0.9,1-4.5,1
		c-5.4,0-7.5-1.3-7.5-1.3S128.2,58.9,132.5,58.9L132.5,58.9z M131.6,54.9c-5.7,0-15.3,2.4-15.3,9c0,5.7,10.5,7.7,13.7,7.7
		c8.4,0,12.1-1.3,12.1-1.3l1.7-4.7c0,0-4.8,1.8-11.7,1.8c-10.5,0-9.7-4.4-9.7-4.4s2.9,2.4,9.9,2.4c7,0,13.1-1.5,13.1-4.3
		C145.4,58.2,139.5,54.9,131.6,54.9L131.6,54.9z M175.4,70.8h8.1l2.9-8.2c0,0,0.6-2.3,2.7-2.3h6.3l1.5-4.7h-11.4
		c0,0-4.6,0.3-6.6,5.3C177,66,175.4,70.8,175.4,70.8L175.4,70.8z M176,61.2c0,2.8-6.1,4.3-13.1,4.3c-7,0-9.9-2.4-9.9-2.4
		s-0.8,4.4,9.7,4.4c6.9,0,11.7-1.8,11.7-1.8l-1.7,4.7c0,0-3.7,1.3-12.1,1.3c-3.2,0-13.7-2.1-13.7-7.7c0-6.7,9.7-9,15.3-9
		C170,55,176,58.3,176,61.2L176,61.2z M156,60.2c0,0,2.1,1.3,7.5,1.3s4.5-1,4.5-1s-0.2-1.5-5-1.5C158.8,59,156,60.2,156,60.2
		L156,60.2z"/>
</g>
</svg>
