<?xml version="1.0" encoding="utf-8"?>
<!-- Generator: Adobe Illustrator 24.0.1, SVG Export Plug-In . SVG Version: 6.00 Build 0)  -->
<svg version="1.1"
	 id="Слой_1" image-rendering="optimizeQuality" text-rendering="geometricPrecision" shape-rendering="geometricPrecision"
	 xmlns="http://www.w3.org/2000/svg" xmlns:xlink="http://www.w3.org/1999/xlink" x="0px" y="0px" viewBox="0 0 200 120"
	 style="enable-background:new 0 0 200 120;" xml:space="preserve">
<style type="text/css">
	.st0{fill-rule:evenodd;clip-rule:evenodd;fill:#005CAB;}
</style>
<g>
	<path class="st0" d="M187.8,46.4c-10.2,0-15.7,5.7-15.9,13.2c-1.5-7.8-8.4-13.5-16.3-13.3c-7.9-0.1-14.7,5.4-16.1,13.2
		c0.1-7.2-5.7-13.1-12.8-13.2c-3,0-5.9,1.2-8.1,3.3V39.2h-7.7v23.1l-0.1,2.3c-0.5,4.8-3.7,7.1-7.2,7.1c-3.6,0-7-1.7-7-7.1l-0.2-2
		v-8.6h12v-7.3H96.4v-7.6h-7.8v20.3c-1.8-8.9-10.5-14.7-19.4-12.9c-3.7,0.7-7.1,2.8-9.5,5.7v-5.9h-0.9c-10,0-15.4,5.6-15.8,12.8
		c-1.3-7.4-7.8-12.8-15.3-12.8c-3.6-0.1-7.1,1.3-9.6,3.9V39.2h-7.5v23.5c0.1,9.1,6.4,16.4,16.3,16.4c8.4,0,14.5-5.5,16.1-12.8v12
		h7.7V63.4v-2.1c0.2-4.8,3.2-7.5,7.9-7.6c-4.9,7.6-2.8,17.8,4.9,22.8c7.6,4.9,17.8,2.8,22.8-4.9c1.2-1.8,2-3.8,2.4-5.9
		c0,8,6.3,13.3,14,13.3c3.2,0,6-1.4,8.2-3.6v2.8h7.7V62v-1c0.2-5.3,3.3-7.5,6.7-7.5s6.3,2.2,6.3,7.4l0.1,1.3v16.1h7.8V66.2
		c1.4,7.8,8.1,13,16.1,13c7.4,0.3,13.9-4.7,15.5-11.8h-7.6c-1.2,3.3-4.4,5.5-7.9,5.5c-4.2,0-7.8-2.8-8.7-7.6h25v13.2h7.7v-15
		l0.1-2.1c0.1-4.7,3.2-7.4,8.1-7.4h0.8v-7.4H187.8L187.8,46.4z M26.8,71.7c-4.9,0-8.9-3.9-9-8.8c0,0,0-0.1,0-0.1c0-4.9,3.9-9,9-9
		s9,3.9,9,9c0,4.9-3.9,8.9-8.8,9C27.1,71.7,27,71.7,26.8,71.7L26.8,71.7z M72.4,71.7c-4.9,0-8.9-4.1-8.8-9c0,0,0,0,0,0
		c-0.1-4.9,3.8-9,8.9-9c5.1,0,9,3.9,9,9c0,4.9-3.9,8.9-8.8,9C72.6,71.7,72.5,71.7,72.4,71.7L72.4,71.7z M147.2,59.1
		c1.1-3.7,4.5-6.3,8.3-6.3c4.9,0,7.7,3.9,8.3,6.3H147.2z"/>
</g>
</svg>
