<?xml version="1.0" encoding="utf-8"?>
<!-- Generator: Adobe Illustrator 24.0.1, SVG Export Plug-In . SVG Version: 6.00 Build 0)  -->
<svg version="1.1" id="Слой_1" xmlns="http://www.w3.org/2000/svg" xmlns:xlink="http://www.w3.org/1999/xlink" x="0px" y="0px"
	 viewBox="0 0 200 120" style="enable-background:new 0 0 200 120;" xml:space="preserve">
<style type="text/css">
	.st0{fill:#0F7C10;}
</style>
<path class="st0" d="M176.6,75.1l-9.4-12.7l-9.4,12.7H154l11.3-15.4l-10.3-14h3.9l8.4,11.4l8.4-11.4h3.9l-10.3,14l11.3,15.4
	L176.6,75.1z M103.6,75.1L92.3,59.7l10.3-14h-3.9l-8.4,11.4L82,45.7h-3.8l10.3,14L77.1,75.1H81l9.4-12.7l9.4,12.7H103.6z"/>
<path class="st0" d="M125,60.8c-0.6-0.5-1.2-0.9-1.9-1.2c2.2-1.2,3.5-3.4,3.5-5.9c0-1.9-0.7-8-9.5-8h-11.9v12.7h-4
	c-0.5,0.7-1.7,2.3-2.1,2.9h6.1v13.7l11.9,0c6.5,0,10.5-3.3,10.5-8.6C127.6,64.2,126.7,62.2,125,60.8 M108.5,48.8h8.6
	c2.3,0,6.2,0.6,6.2,4.7c0,3.1-2.3,4.9-6.2,4.9h-8.6V48.8L108.5,48.8z M117.1,72h-8.6V61.3h8.6c3.3,0,7.2,0.9,7.2,5.1
	C124.3,71.3,119.8,72,117.1,72 M143.1,45.1c-8.2,0-14,6.3-14,15.3c0,9,5.8,15.3,14,15.3c8.2,0,14-6.3,14-15.3
	C157,51.4,151.3,45.1,143.1,45.1 M143.1,72.6c-6.3,0-10.7-5-10.7-12.2s4.4-12.2,10.7-12.2c6.3,0,10.6,5,10.6,12.2
	S149.3,72.6,143.1,72.6 M26.8,42.6L26.8,42.6L26.8,42.6c-4.7,4.6-7.3,10.9-7.3,17.4c0,5.4,1.7,10.6,5,14.8c0,0,0.1,0.1,0.1,0
	c0,0,0-0.1,0-0.1C22.8,69,32.3,55,37.3,49.2c0,0,0,0,0-0.1c0,0,0-0.1,0-0.1C29,40.8,26.8,42.6,26.8,42.6 M61.1,42.6L61.1,42.6
	L61.1,42.6c4.7,4.6,7.3,10.9,7.3,17.4c0,5.4-1.7,10.6-5,14.8c0,0-0.1,0.1-0.1,0c0,0,0-0.1,0-0.1C65.1,69,55.6,55,50.7,49.1
	c0,0,0,0,0-0.1c0,0,0-0.1,0-0.1C59,40.7,61.2,42.6,61.1,42.6 M44,35.6c4.9,0,9,1.4,12.7,3.6c0,0,0.1,0.1,0,0.1c0,0-0.1,0.1-0.1,0
	c-4.7-1-11.9,3.1-12.6,3.5c0,0,0,0-0.1,0c0,0,0,0-0.1,0c-1.8-1-8.5-4.5-12.6-3.5c0,0-0.1,0-0.1,0c0,0,0-0.1,0-0.1
	C34.9,36.9,39.1,35.6,44,35.6 M44,55.2C44,55.2,44,55.2,44,55.2c7.4,5.6,19.9,19.4,16.1,23.3l0,0l0,0h0c-4.5,3.9-10.2,6.1-16.1,6.1
	c-5.9,0-11.6-2.1-16.1-6.1l0,0l0,0C24.1,74.5,36.6,60.8,44,55.2C43.9,55.2,43.9,55.2,44,55.2"/>
</svg>
