<svg width="200" height="120" viewBox="0 0 200 120" fill="none" xmlns="http://www.w3.org/2000/svg">
<g clip-path="url(#clip0_662_474)">
<path d="M128.128 45.1699L134.52 45.3751C135.041 44.4644 136.248 44.2305 137.261 44.2305C139.315 44.2305 140.227 45.5227 140.227 47.2288C140.227 48.755 138.923 49.9608 136.934 49.9608C135.63 49.9608 134.226 49.2841 133.935 48.0819L127.112 48.6974C128.415 52.5201 131.676 54.5466 136.697 54.5466C141.947 54.5466 147.004 52.664 147.004 46.9337C147.004 42.7907 143.578 40.379 139.178 40.379C137.447 40.379 135.849 40.5554 134.416 41.4949L135.174 38.3993H145.151V33.3852H130.426L128.128 45.1699ZM124.555 54.1038V49.1078H113.828C117.778 46.5521 124.555 45.0835 124.555 39.7923C124.555 34.9726 120.087 33.0901 115.329 33.0901C109.346 33.0901 105.578 35.4693 105.578 41.6388H111.684C111.684 39.6411 112.402 37.6794 115.009 37.6794C116.377 37.6794 117.782 38.4425 117.782 39.7671C117.782 43.2046 111.748 44.6156 107.898 48.2295C106.074 49.9356 105.162 51.6094 105.162 54.1074L124.555 54.1038ZM101.423 33.0901H96.2698C95.5192 36.6896 92.8473 37.8522 89.3242 37.8522V42.024H94.6393V54.1038H101.423V33.0901Z" fill="white"/>
<path d="M128.128 45.1699L134.52 45.3751C135.041 44.4644 136.248 44.2305 137.261 44.2305C139.315 44.2305 140.227 45.5227 140.227 47.2288C140.227 48.755 138.923 49.9608 136.934 49.9608C135.63 49.9608 134.226 49.2841 133.935 48.0819L127.112 48.6974C128.415 52.5201 131.676 54.5466 136.697 54.5466C141.947 54.5466 147.004 52.664 147.004 46.9337C147.004 42.7907 143.578 40.379 139.178 40.379C137.447 40.379 135.849 40.5554 134.416 41.4949L135.174 38.3993H145.151V33.3852H130.426L128.128 45.1699ZM124.555 54.1038V49.1078H113.828C117.778 46.5521 124.555 45.0835 124.555 39.7923C124.555 34.9726 120.087 33.0901 115.329 33.0901C109.346 33.0901 105.578 35.4693 105.578 41.6388H111.684C111.684 39.6411 112.402 37.6794 115.009 37.6794C116.377 37.6794 117.782 38.4425 117.782 39.7671C117.782 43.2046 111.748 44.6156 107.898 48.2295C106.074 49.9356 105.162 51.6094 105.162 54.1074L124.555 54.1038ZM101.423 33.0901H96.2698C95.5192 36.6896 92.8473 37.8522 89.3242 37.8522V42.024H94.6393V54.1038H101.423V33.0901Z" fill="url(#paint0_linear_662_474)" stroke="#4B4900" stroke-width="0.5" stroke-miterlimit="10"/>
<path d="M150.71 33.342H150.063V54.1002H150.71V33.342Z" fill="white"/>
<path d="M171.514 40.2601C171.514 39.3891 172.233 38.8203 173.425 38.8203C174.617 38.8203 175.335 39.3675 175.335 40.2601C175.335 41.1528 174.667 41.6747 173.425 41.6747C172.182 41.6747 171.514 41.1636 171.514 40.2601ZM171.816 37.0962C171.816 36.3439 172.351 35.948 173.425 35.948C174.499 35.948 175.034 36.3439 175.034 37.0962C175.034 37.8485 174.488 38.212 173.425 38.212C172.362 38.212 171.834 37.8233 171.834 37.0962H171.816ZM172.286 38.536C171.862 38.5927 171.475 38.8116 171.208 39.1468C170.94 39.4821 170.812 39.908 170.85 40.3357C170.85 41.5811 171.762 42.355 173.439 42.355C175.116 42.355 176.028 41.5811 176.028 40.3357C176.066 39.908 175.938 39.4821 175.671 39.1468C175.403 38.8116 175.017 38.5927 174.592 38.536C174.924 38.4473 175.217 38.2494 175.423 37.9739C175.63 37.6984 175.738 37.3615 175.73 37.017C175.73 35.9768 174.894 35.3289 173.454 35.3289C172.013 35.3289 171.173 35.9768 171.173 37.017C171.165 37.3575 171.27 37.6912 171.471 37.9654C171.673 38.2397 171.96 38.4392 172.286 38.5324V38.536ZM165.488 40.6201H164.809C164.885 41.6315 165.779 42.3586 167.126 42.3586C168.99 42.3586 169.873 41.178 169.873 38.7916C169.873 36.4591 169.065 35.3289 167.237 35.3289C165.61 35.3289 164.601 36.2323 164.601 37.6469C164.601 39.0615 165.535 39.9218 167.011 39.9218C168.009 39.9218 168.753 39.5618 169.166 38.8419V39.0291C169.166 40.8289 168.519 41.7395 167.144 41.7395C166.174 41.7395 165.607 41.3436 165.477 40.6237M165.269 37.6613C165.269 36.6319 165.987 35.9804 167.19 35.9804C168.329 35.9804 169.043 36.6427 169.043 37.5965C169.043 38.6764 168.325 39.2955 167.075 39.2955C165.941 39.2883 165.28 38.6836 165.28 37.6541L165.269 37.6613ZM159.225 40.2673C159.225 39.3963 159.943 38.8275 161.135 38.8275C162.328 38.8275 163.046 39.3747 163.046 40.2673C163.046 41.16 162.378 41.6819 161.135 41.6819C159.893 41.6819 159.225 41.1708 159.225 40.2673ZM159.527 37.1034C159.527 36.3511 160.062 35.9552 161.135 35.9552C162.209 35.9552 162.744 36.3511 162.744 37.1034C162.744 37.8557 162.198 38.2192 161.135 38.2192C160.072 38.2192 159.537 37.8233 159.537 37.0962L159.527 37.1034ZM159.997 38.5432C159.572 38.5999 159.186 38.8188 158.918 39.154C158.651 39.4893 158.523 39.9152 158.561 40.3429C158.561 41.5883 159.473 42.3622 161.15 42.3622C162.827 42.3622 163.739 41.5883 163.739 40.3429C163.777 39.9152 163.649 39.4893 163.381 39.154C163.114 38.8188 162.727 38.5999 162.303 38.5432C162.635 38.4552 162.929 38.2575 163.136 37.982C163.343 37.7065 163.452 37.3691 163.445 37.0242C163.445 35.984 162.604 35.3361 161.164 35.3361C159.724 35.3361 158.887 35.984 158.887 37.0242C158.881 37.3645 158.988 37.6971 159.191 37.9701C159.393 38.243 159.681 38.4408 160.008 38.5324L159.997 38.5432ZM156.032 42.1751H156.7V35.3361H156.144C156.144 36.2791 155.731 36.6067 154.707 36.6067H154.028V37.1754H156.032V42.1751Z" fill="white"/>
<path d="M172.286 50.4143C172.304 51.8865 173.227 52.7143 174.911 52.7143C176.596 52.7143 177.454 51.9225 177.454 50.6302C177.472 50.4274 177.448 50.2231 177.385 50.0296C177.321 49.8362 177.219 49.6577 177.085 49.5049C176.951 49.3521 176.787 49.2282 176.603 49.1408C176.42 49.0533 176.221 49.0041 176.018 48.9961C176.362 48.9223 176.668 48.7259 176.88 48.4434C177.091 48.1609 177.193 47.8112 177.167 47.4591C177.167 46.3793 176.366 45.6846 174.886 45.6846C173.407 45.6846 172.581 46.4693 172.487 47.9306H173.173C173.158 47.7081 173.19 47.4847 173.268 47.2759C173.347 47.067 173.469 46.8777 173.628 46.7207C173.786 46.5638 173.976 46.4431 174.185 46.3667C174.395 46.2904 174.618 46.2603 174.84 46.2785C175.917 46.2785 176.481 46.7032 176.481 47.5239C176.481 48.3446 175.878 48.7333 174.567 48.7333H174.409V49.338H174.653C176.111 49.338 176.754 49.6692 176.754 50.6302C176.754 51.5913 176.104 52.07 174.886 52.07C173.669 52.07 172.987 51.4941 172.969 50.4215L172.286 50.4143ZM166.145 52.538H171.116V51.8649H166.899C166.957 51.3106 167.765 50.839 169.176 50.0435C170.44 49.3452 171.184 48.8953 171.184 47.7435C171.184 46.516 170.29 45.6846 168.781 45.6846C167.212 45.6846 166.239 46.5916 166.239 48.053V48.0926H166.889C166.889 46.948 167.567 46.3253 168.803 46.3253C169.88 46.3253 170.505 46.8652 170.505 47.7219C170.516 47.9201 170.479 48.118 170.398 48.2991C170.317 48.4801 170.193 48.6389 170.038 48.7621C169.624 49.0641 169.186 49.3302 168.727 49.5576C168.052 49.8921 167.417 50.3027 166.835 50.7814C166.611 51.005 166.434 51.2717 166.315 51.5656C166.197 51.8594 166.139 52.1743 166.145 52.4912V52.538ZM160.701 49.1977C160.701 47.2947 161.335 46.3421 162.604 46.3397C163.873 46.3373 164.508 47.2899 164.508 49.1977C164.508 51.1054 163.875 52.0484 162.608 52.0484C161.34 52.0484 160.701 51.1018 160.701 49.1977ZM160.022 49.1977C160.022 51.5013 160.956 52.7179 162.604 52.7179C164.253 52.7179 165.183 51.5013 165.183 49.1977C165.183 46.894 164.249 45.6882 162.604 45.6882C160.959 45.6882 160.026 46.894 160.026 49.1977H160.022ZM153.877 52.538H158.855V51.8649H154.621C154.678 51.3106 155.486 50.839 156.901 50.0435C158.162 49.3452 158.905 48.8953 158.905 47.7579C158.905 46.5304 158.011 45.699 156.506 45.699C154.933 45.699 153.964 46.606 153.964 48.0674V48.107H154.614C154.614 46.9624 155.289 46.3397 156.524 46.3397C157.602 46.3397 158.226 46.8796 158.226 47.7363C158.239 47.9329 158.205 48.1297 158.127 48.3105C158.049 48.4914 157.929 48.6511 157.777 48.7765C157.359 49.0823 156.914 49.3509 156.449 49.5792C155.774 49.9148 155.139 50.3253 154.556 50.803C154.335 51.0257 154.162 51.2905 154.045 51.5817C153.929 51.8729 153.871 52.1846 153.877 52.4984V52.538Z" fill="white"/>
<path fill-rule="evenodd" clip-rule="evenodd" d="M54.6287 76.5538L54.6035 76.9138L54.5245 77.2737L54.3988 77.6337L54.2192 77.954L53.993 78.2528L53.7236 78.5299L53.4148 78.7855L53.0557 79.0195L52.6965 79.2318L52.3087 79.4118L51.9029 79.5666L51.4791 79.689L51.0446 79.7862L50.5921 79.8545L50.1288 79.8941H49.6583H36.9847V87.7446H21.2549V62.5159H49.6475H50.1431L50.6244 62.5591L51.0912 62.6311L51.5401 62.7282L51.9675 62.8542L52.3733 63.0126L52.7612 63.1998L53.1203 63.4157L53.4543 63.6533L53.7524 63.9089L54.0074 64.1824L54.2264 64.474L54.3988 64.7871L54.5209 65.1147L54.5963 65.4746L54.6215 65.8094V76.5538H54.6287ZM39.064 76.1939H39.5991L40.0516 76.1435L40.4108 76.0607L40.6837 75.9599L40.8669 75.8519L40.9746 75.7439L41.0321 75.6324L41.068 75.4596V75.1896V74.8765V74.5525V74.2106V73.8506V73.4907V68.9949V68.635V68.275V67.9151V67.5875V67.2744V67.008L41.0321 66.8352L40.9746 66.7237L40.8669 66.6157L40.6837 66.5077L40.4108 66.4069L40.0516 66.3241L39.5991 66.2737H39.064H38.5684L38.1447 66.3241L37.7855 66.4033L37.5234 66.5041L37.3438 66.6157L37.2289 66.7309L37.1571 66.8532L37.1104 67.0332L37.0817 67.2996L37.0529 67.6091L37.0242 67.9331L37.0062 68.2678V68.6278V68.9877V69.3477V73.0839V73.4439V73.8038V74.1638L37.0242 74.4985L37.0529 74.8225L37.0817 75.132L37.1104 75.3984L37.1607 75.5784L37.2289 75.7044L37.3438 75.8195L37.5234 75.9311L37.7855 76.0319L38.1447 76.1111L38.5649 76.1615H39.064V76.1939ZM75.9465 68.707V68.473V68.2534V68.0411L75.9249 67.8359L75.9034 67.6415L75.8747 67.4544L75.8459 67.278V67.2204L75.7202 67.0656L75.2893 66.8928L74.571 66.7668L73.7055 66.7309L72.8257 66.7812L72.0571 66.918L71.5436 67.1052L71.3389 67.2924L71.3066 67.3644L71.2455 67.5299L71.1916 67.7027L71.1485 67.8863L71.1162 68.0771L71.0911 68.275V68.4874V82.1654V82.3958L71.109 82.6117L71.1378 82.8169L71.1701 83.0113L71.2096 83.1949L71.2563 83.3676V83.4252L71.4251 83.5944L71.9207 83.778L72.7 83.9112L73.6014 83.9616L74.4992 83.922L75.257 83.796L75.7095 83.6196L75.8387 83.4648V83.4108L75.8711 83.2345L75.8962 83.0437L75.9213 82.8421L75.9393 82.6297V82.4066V82.1726V68.707H75.9465ZM90.5738 84.3863L90.5486 84.7462L90.4696 85.1062L90.3403 85.4445L90.1608 85.7613L89.9345 86.06L89.6688 86.3408L89.3599 86.6L89.0008 86.8411L88.6417 87.0607L88.2466 87.2479L87.8336 87.4098L87.4063 87.5394L86.9609 87.6402L86.5013 87.7122L86.0236 87.7554H85.5388H61.5814H61.0858L60.6009 87.7122L60.1377 87.6402L59.6924 87.5394L59.265 87.4098L58.8628 87.2479L58.4785 87.0535L58.1194 86.8339L57.7926 86.5892L57.5017 86.3264L57.2503 86.0492L57.042 85.7505L56.8732 85.4337L56.7511 85.099L56.6793 84.739L56.6577 84.4007V65.8094L56.6793 65.4782L56.7547 65.1183L56.8768 64.7907L57.042 64.4812L57.2575 64.186L57.5089 63.9125L57.7998 63.6605L58.1266 63.4193L58.4857 63.2034L58.87 63.0162L59.2722 62.8578L59.6995 62.7282L60.1449 62.6311L60.6081 62.5591L61.0894 62.5195L61.5814 62.5159H85.5424H86.0164L86.4833 62.5555L86.9358 62.6275L87.3739 62.7246L87.7977 62.8758L88.2071 63.0306L88.6022 63.2142L88.9828 63.4265L89.342 63.6641L89.6544 63.9161L89.9309 64.1896L90.1608 64.4812L90.3439 64.7943L90.4768 65.1255L90.5594 65.4854L90.5845 65.8238V84.4007L90.5738 84.3863ZM92.8794 87.7446V82.2374L102.619 69.0237H92.8901V62.5159H122.834V67.8899L112.983 81.2763H122.834V87.7554L92.8794 87.7446ZM141.552 62.5159V87.7374H125.032L124.989 62.5159H141.552ZM172.71 62.5159H173.18L173.647 62.5555L174.1 62.6275L174.538 62.7246L174.965 62.8542L175.375 63.009L175.77 63.1926L176.15 63.4049L176.51 63.6425L176.826 63.8945L177.098 64.168L177.328 64.4596L177.511 64.7727L177.648 65.1039L177.727 65.4638L177.752 65.7986V71.0574L162.978 71.0862V68.4658V68.2498V68.0411L162.952 67.8431L162.924 67.6487L162.884 67.4651L162.845 67.2888L162.823 67.2168L162.672 67.044L162.234 66.864L161.516 66.7309L160.683 66.6841L159.853 66.7309L159.135 66.864L158.697 67.044L158.546 67.2168L158.524 67.2888L158.481 67.4651L158.445 67.6487L158.417 67.8431L158.392 68.0447V68.2534V68.4694V71.5434V71.7989L158.435 72.0329L158.506 72.2417L158.611 72.4144L158.761 72.5584L158.973 72.6808L159.286 72.7708L159.742 72.8104H173.712L174.674 72.886L175.526 73.1055L176.244 73.4655L176.826 73.9694L177.264 74.5921L177.558 75.312L177.723 76.0859L177.774 76.903V84.3791L177.752 84.739L177.673 85.099L177.544 85.4373L177.361 85.7577L177.138 86.0528L176.869 86.3336L176.56 86.5928L176.201 86.8339L175.824 87.0535L175.432 87.2443L175.019 87.4062L174.588 87.5358L174.146 87.6366L173.683 87.705L173.209 87.7482H172.724H148.745H148.25L147.769 87.705L147.305 87.6366L146.856 87.5322L146.433 87.4026L146.027 87.2407L145.646 87.0499L145.287 86.8267L144.96 86.582L144.669 86.3228L144.418 86.042L144.206 85.7433L144.041 85.4265L143.919 85.0918L143.847 84.7318L143.822 84.3719V79.0195H158.348V82.1042V82.3274V82.5434L158.37 82.7449L158.402 82.9321L158.438 83.1085L158.478 83.274V83.328L158.621 83.4756L159.067 83.6484L159.785 83.7708L160.618 83.814L161.455 83.7708L162.173 83.6484L162.618 83.4756L162.762 83.3244L162.78 83.274L162.82 83.1085L162.855 82.9357L162.888 82.7485L162.913 82.5506V82.3382V82.1114V79.3326L162.891 78.9439L162.823 78.5839L162.708 78.2672L162.539 77.9972L162.324 77.7776L162.04 77.6049L161.681 77.4861L161.168 77.4393H147.32H146.788L146.332 77.3997L145.93 77.3241L145.571 77.1945L145.247 77.0182L144.953 76.7986L144.662 76.5466L144.26 76.1867L144.127 75.8267L144.055 75.366L144.005 74.8117L143.965 74.2034L143.933 73.5915L143.908 73.0515L143.886 72.6448L143.868 72.4468L143.85 72.3496L143.832 72.2201V72.0905V71.9537V71.8133V71.6657V65.8094L143.854 65.4782L143.929 65.1183L144.052 64.7907L144.217 64.4812L144.432 64.186L144.684 63.9125L144.974 63.6605L145.301 63.4193L145.66 63.2034L146.041 63.0162L146.447 62.8578L146.871 62.7282L147.316 62.6311L147.779 62.5591L148.261 62.5195H148.756L172.71 62.5159Z" fill="#2C2B2A" stroke="#2C2B2A" stroke-width="1.42" stroke-linecap="round" stroke-linejoin="round"/>
<path fill-rule="evenodd" clip-rule="evenodd" d="M54.6287 76.5538L54.6035 76.9138L54.5281 77.2737L54.3988 77.6337L54.2192 77.954L53.993 78.2528L53.7236 78.5299L53.4148 78.7855L53.0557 79.0195L52.6965 79.2318L52.3051 79.4118L51.8993 79.5666L51.4755 79.689L51.041 79.7862L50.5885 79.8545L50.1252 79.8941H49.6547H36.9847V87.7446H21.2549V62.5159H49.6475H50.1431L50.628 62.5591L51.0912 62.6311L51.5401 62.7282L51.9675 62.8542L52.3733 63.0126L52.7612 63.1998L53.1203 63.4157L53.4543 63.6533L53.7524 63.9089L54.0109 64.1824L54.2264 64.474L54.3988 64.7871L54.5245 65.1147L54.5999 65.4746L54.6215 65.8094V76.5538H54.6287ZM39.064 76.1939H39.6027L40.0516 76.1435L40.4108 76.0607L40.6837 75.9599L40.8669 75.8519L40.9746 75.7439L41.0357 75.6324L41.068 75.4596V75.1896V74.8765V74.5525V74.2106V73.8506V73.4907V68.9949V68.635V68.275V67.9151V67.5875V67.2744V67.008L41.0392 66.8352L40.9782 66.7237L40.8705 66.6157L40.6873 66.5077L40.418 66.4069L40.0588 66.3241L39.6063 66.2737H39.0712H38.5756L38.1519 66.3241L37.7927 66.4033L37.5342 66.5041L37.3546 66.6157L37.2361 66.7309L37.1678 66.8532L37.1212 67.0332L37.0888 67.2996L37.0601 67.6091L37.035 67.9331L37.0134 68.2678V68.6278V68.9877V69.3477V73.0839V73.4439V73.8038V74.1638L37.035 74.4985L37.0601 74.8225L37.0888 75.132L37.1212 75.3984L37.1678 75.5784L37.2397 75.7044L37.3546 75.8195L37.5342 75.9311L37.7927 76.0319L38.1519 76.1111L38.5756 76.1615H39.0712L39.064 76.1939ZM75.9465 68.707V68.473V68.2534V68.0411L75.9285 67.8359L75.9034 67.6415L75.8783 67.4544L75.8459 67.278V67.2204L75.7202 67.0656L75.2893 66.8928L74.571 66.7668L73.7055 66.7309L72.8257 66.7812L72.0571 66.918L71.5436 67.1052L71.3389 67.2924L71.3066 67.3644L71.2455 67.5299L71.1952 67.7027L71.1485 67.8863L71.1162 68.0771L71.0911 68.275V68.4874V82.1654V82.3958L71.1126 82.6117L71.1378 82.8169L71.1701 83.0113L71.2096 83.1949L71.2563 83.3676L71.2778 83.4252L71.443 83.5944L71.9386 83.778L72.7179 83.9112L73.6229 83.9616L74.5172 83.922L75.2749 83.796L75.7274 83.6196L75.8567 83.4648V83.4108L75.889 83.2345L75.9142 83.0437L75.9393 82.8421L75.9573 82.6297V82.4066V82.1726V68.707H75.9465ZM90.5738 84.3863L90.5486 84.7462L90.4696 85.1062L90.3403 85.4445L90.1608 85.7613L89.9381 86.06L89.6688 86.3408L89.3599 86.6L89.0008 86.8411L88.6417 87.0607L88.2466 87.2479L87.8372 87.4098L87.4063 87.5394L86.9609 87.6402L86.5013 87.7122L86.0236 87.7554H85.5388H61.5814H61.0858L60.6009 87.7122L60.1377 87.6402L59.6924 87.5394L59.2686 87.4098L58.8628 87.2479L58.4785 87.0535L58.1194 86.8339L57.789 86.5892L57.5017 86.3264L57.2503 86.0492L57.0384 85.7505L56.8696 85.4337L56.7511 85.099L56.6757 84.739L56.6541 84.4007V65.8094L56.6757 65.4782L56.7511 65.1183L56.8732 64.7907L57.042 64.4812L57.2539 64.186L57.5053 63.9125L57.7962 63.6605L58.123 63.4193L58.4821 63.2034L58.8628 63.0162L59.2686 62.8578L59.6924 62.7282L60.1377 62.6311L60.6009 62.5591L61.0822 62.5195L61.5814 62.5159H85.5424H86.0164L86.4833 62.5555L86.9358 62.6275L87.3739 62.7246L87.7977 62.8758L88.2071 63.0306L88.6022 63.2142L88.9828 63.4265L89.342 63.6641L89.6544 63.9161L89.9309 64.1896L90.1608 64.4812L90.3439 64.7943L90.4768 65.1255L90.5594 65.4854L90.5845 65.8238V84.4007L90.5738 84.3863ZM92.8794 87.7446V82.2374L102.619 69.0237H92.8901V62.5159H122.834V67.8899L112.983 81.2763H122.834V87.7554L92.8794 87.7446ZM141.552 62.5159V87.7374H125.05L124.993 62.5159H141.552ZM172.71 62.5159H173.18L173.647 62.5555L174.1 62.6275L174.538 62.7246L174.965 62.8542L175.375 63.009L175.773 63.1926L176.132 63.4049L176.492 63.6425L176.804 63.8945L177.077 64.168L177.307 64.4596L177.49 64.7727L177.626 65.1039L177.709 65.4638L177.731 65.7986V71.0574L162.956 71.0862V68.4658V68.2498L162.938 68.0411L162.913 67.8431L162.884 67.6487L162.845 67.4651L162.805 67.2888L162.784 67.2168L162.633 67.044L162.195 66.864L161.476 66.7309L160.643 66.6841L159.814 66.7309L159.095 66.864L158.657 67.044L158.506 67.2168L158.485 67.2888L158.442 67.4651L158.406 67.6487L158.377 67.8431L158.352 68.0447V68.2534V68.4694V71.5434V71.7989L158.395 72.0329L158.467 72.2417L158.571 72.4144L158.722 72.5584L158.934 72.6808L159.246 72.7708L159.702 72.8104H173.672L174.635 72.886L175.486 73.1055L176.204 73.4655L176.786 73.9694L177.224 74.5921L177.519 75.312L177.684 76.0859L177.734 76.903V84.3791L177.713 84.739L177.634 85.099L177.504 85.4373L177.325 85.7577L177.098 86.0528L176.829 86.3336L176.524 86.5928L176.165 86.8339L175.806 87.0535L175.411 87.2443L174.998 87.4062L174.567 87.5358L174.125 87.6366L173.662 87.705L173.188 87.7482H172.703H148.745H148.25L147.769 87.705L147.305 87.6366L146.86 87.5322L146.433 87.4026L146.027 87.2407L145.646 87.0499L145.287 86.8267L144.96 86.582L144.669 86.3228L144.418 86.042L144.206 85.7433L144.041 85.4265L143.919 85.0918L143.847 84.7318L143.822 84.3719V79.0195H158.348V82.1042V82.3274V82.5434L158.37 82.7449L158.402 82.9321L158.438 83.1085L158.478 83.274V83.328L158.621 83.4756L159.067 83.6484L159.785 83.7708L160.618 83.814L161.455 83.7708L162.173 83.6484L162.618 83.4756L162.762 83.3244L162.78 83.274L162.82 83.1085L162.859 82.9357L162.888 82.7485L162.913 82.5506V82.3382V82.1114V79.3326L162.891 78.9439L162.823 78.5839L162.708 78.2672L162.539 77.9972L162.324 77.7776L162.04 77.6049L161.681 77.4861L161.168 77.4393H147.32H146.788L146.332 77.3997L145.93 77.3241L145.571 77.1945L145.247 77.0182L144.953 76.7986L144.662 76.5466L144.26 76.1867L144.127 75.8267L144.055 75.366L144.005 74.8117L143.965 74.2034L143.933 73.5915L143.908 73.0515L143.886 72.6448L143.868 72.4468L143.85 72.3496L143.832 72.2201V72.0905V71.9537V71.8133V71.6657V65.8094L143.854 65.4782L143.929 65.1183L144.052 64.7907L144.217 64.4812L144.432 64.186L144.684 63.9125L144.974 63.6605L145.301 63.4193L145.66 63.2034L146.041 63.0162L146.447 62.8578L146.871 62.7282L147.316 62.6311L147.779 62.5591L148.261 62.5195H148.756L172.71 62.5159Z" fill="url(#paint1_linear_662_474)"/>
</g>
<rect x="0.5" y="0.5" width="199" height="119" stroke="black"/>
<defs>
<linearGradient id="paint0_linear_662_474" x1="89.3242" y1="43.8165" x2="147.011" y2="43.8165" gradientUnits="userSpaceOnUse">
<stop stop-color="#B2B2B2"/>
<stop offset="0.18" stop-color="#D9DADA"/>
<stop offset="0.38" stop-color="#FEFEFE"/>
<stop offset="0.54" stop-color="#C5C6C6"/>
<stop offset="0.73" stop-color="#FEFEFE"/>
<stop offset="1" stop-color="#9D9E9E"/>
</linearGradient>
<linearGradient id="paint1_linear_662_474" x1="76.136" y1="149.165" x2="121.083" y2="0.300053" gradientUnits="userSpaceOnUse">
<stop stop-color="#8A8A8A"/>
<stop offset="0.24" stop-color="#D9DADA"/>
<stop offset="0.38" stop-color="#FEFEFE"/>
<stop offset="0.54" stop-color="#C5C6C6"/>
<stop offset="0.73" stop-color="#FEFEFE"/>
<stop offset="1" stop-color="#9D9E9E"/>
</linearGradient>
<clipPath id="clip0_662_474">
<rect width="157" height="55" fill="white" transform="translate(21 33)"/>
</clipPath>
</defs>
</svg>
