<?xml version="1.0" encoding="utf-8"?>
<!-- Generator: Adobe Illustrator 24.0.1, SVG Export Plug-In . SVG Version: 6.00 Build 0)  -->
<svg version="1.1" id="Слой_1" xmlns="http://www.w3.org/2000/svg" xmlns:xlink="http://www.w3.org/1999/xlink" x="0px" y="0px"
	 viewBox="0 0 200 120" style="enable-background:new 0 0 200 120;" xml:space="preserve">
<style type="text/css">
	.st0{fill:#FE4230;}
</style>
<g id="layer101">
	<path class="st0" d="M56.5,60V34.8h11.4c12.4,0,15.6,0.6,18.9,3.4c3.1,2.5,4.3,5.3,4.3,9.5c0,4.4-0.9,6.8-3.2,8.9l-1.7,1.7l2.1,1.4
		c5.8,3.9,6.6,14.6,1.6,20c-3.5,3.6-7.1,5-14.1,5.4l-6.3,0.4v-4.7v-4.6l5.2-0.9c5.8-0.9,7.8-2.4,7.8-5.9c0-3.2-2.3-4.6-8-4.9l-5-0.3
		v-4.9v-4.9l4-0.3c2.5-0.2,4.5-0.9,5.4-1.7c1.4-1.3,1.9-4.3,0.9-6c-0.9-1.2-4.9-2.3-8.9-2.3h-3.5v20.5v20.5H62h-5.5V60z"/>
	<path class="st0" d="M113.1,84.3c-6.6-2.1-10.8-5.6-13.9-11.6c-1.6-3-1.9-4.8-2.2-10.8c-0.4-8.8,1.2-13.6,6-19
		c4.8-5.3,10.5-7.6,18.4-7.6c13.6,0,22.5,7.4,24.6,20.5c0.8,4.8-0.1,11.7-1.9,15.3c-1,2-1.2,2-7.6,2H130l1.7-2.3
		c2.4-3.2,3.4-6.6,3.4-11C135,45,117.4,39.5,110,52c-1.6,2.8-1.9,4.3-1.9,8.4c0,6.4,2.1,10.5,6.8,13.2c3.2,1.9,3.5,1.9,19,2.2
		l15.6,0.2v4.6v4.6l-16.7-0.1C121.4,85.2,115,84.9,113.1,84.3z"/>
</g>
</svg>
