<svg width="200" height="120" viewBox="0 0 200 120" fill="none" xmlns="http://www.w3.org/2000/svg">
<g clip-path="url(#clip0_662_307)">
<path d="M31.0564 47.2363C26.358 47.2401 22.694 48.5513 20.0653 51.1694C17.4336 53.7869 16.1222 57.4445 16.126 62.1398C16.1287 65.5031 16.7976 68.3009 18.1277 70.5344C19.4602 72.77 21.1951 74.4027 23.336 75.4345C25.4763 76.4648 28.1754 76.9796 31.4394 76.9747C34.6496 76.9731 37.3332 76.3718 39.4817 75.1724C41.6328 73.9742 43.2739 72.2965 44.4123 70.1444C45.5479 67.9949 46.1139 65.2377 46.1112 61.8734C46.1068 57.2449 44.7992 53.6461 42.1922 51.0827C39.5862 48.5117 35.8726 47.2316 31.0564 47.2363ZM35.5962 68.4576C34.5451 69.7018 33.057 70.3241 31.1378 70.3262C29.269 70.3268 27.7906 69.6939 26.7045 68.4276C25.6175 67.1587 25.0731 65.0734 25.0699 62.1697C25.066 59.2413 25.6114 57.1443 26.7018 55.87C27.7943 54.6016 29.2373 53.9689 31.0434 53.964C32.9229 53.9624 34.4141 54.5841 35.5169 55.8321C36.6142 57.0812 37.169 59.0579 37.1706 61.7663C37.1743 64.9826 36.6488 67.2143 35.5962 68.4576Z" fill="#0060AA"/>
<path d="M74.6643 51.7819C73.6084 50.4652 72.276 49.4494 70.6632 48.7465C69.0518 48.0398 66.9333 47.6904 64.3185 47.6914L51.0332 47.7054L51.0628 76.4647L64.3464 76.452C65.9386 76.452 67.7141 76.1887 69.6748 75.6613C71.1076 75.282 72.4483 74.5217 73.6982 73.3754C74.9471 72.229 75.9221 70.8071 76.6227 69.1133C77.3267 67.4197 77.6766 65.0366 77.6749 61.96C77.6729 59.9982 77.4334 58.1441 76.9597 56.3921C76.484 54.6374 75.7169 53.1032 74.6643 51.7819ZM68.0268 67.1405C67.582 68.1685 66.9616 68.8904 66.1738 69.2996C65.3844 69.712 64.055 69.9217 62.1877 69.9232L59.9971 69.9249L59.9808 54.2116L62.2127 54.2084C64.5287 54.2073 66.1827 54.7686 67.1857 55.8897C68.1871 57.0132 68.6881 59.0984 68.6921 62.1503C68.6934 64.4497 68.4735 66.1129 68.0268 67.1405Z" fill="#0060AA"/>
<path d="M91.3184 64.2442L105.235 64.2293L105.227 58.3651L91.3114 58.3779L91.3071 53.8057L106.308 53.7906L106.301 47.6519L82.3369 47.675L82.3669 76.4343L106.765 76.4098L106.76 69.8982L91.3237 69.9116L91.3184 64.2442Z" fill="#0060AA"/>
<path d="M125.371 47.1421C120.673 47.1459 117.01 48.4591 114.379 51.0766C111.75 53.6948 110.437 57.3496 110.443 62.047C110.445 65.4083 111.112 68.2094 112.445 70.4412C113.777 72.6756 115.51 74.3105 117.65 75.3409C119.789 76.3718 122.493 76.8868 125.756 76.8831C128.966 76.8799 131.648 76.2786 133.796 75.0792C135.95 73.882 137.591 72.2023 138.727 70.0522C139.864 67.9023 140.429 65.1445 140.426 61.7817C140.42 57.1533 139.116 53.5519 136.506 50.9864C133.899 48.4185 130.188 47.1367 125.371 47.1421ZM129.91 68.3644C128.858 69.6093 127.374 70.232 125.45 70.232C123.584 70.2357 122.105 69.5998 121.019 68.3345C119.931 67.0666 119.389 64.9798 119.388 62.0761C119.384 59.1483 119.926 57.0491 121.017 55.7775C122.105 54.5096 123.555 53.8757 125.356 53.8746C127.238 53.8719 128.728 54.4919 129.832 55.7368C130.931 56.9886 131.483 58.9658 131.484 61.6721C131.487 64.891 130.963 67.1211 129.91 68.3644Z" fill="#0060AA"/>
<path d="M164.549 63.5049L153.635 47.6054L145.286 47.6135L145.314 76.3718L153.725 76.3648L153.712 60.5739L164.558 76.3525L172.987 76.3456L172.963 47.5857L164.533 47.5958L164.549 63.5049Z" fill="#0060AA"/>
<path d="M183.182 43.8296C182.859 43.2481 182.404 42.8021 181.82 42.4907C181.235 42.1809 180.638 42.0254 180.027 42.0254C179.411 42.0267 178.814 42.1849 178.236 42.4939C177.65 42.8073 177.19 43.2534 176.869 43.8365C176.543 44.4176 176.378 45.0221 176.378 45.6512C176.378 46.2745 176.543 46.8757 176.865 47.452C177.189 48.0269 177.636 48.4737 178.216 48.792C178.794 49.106 179.401 49.2664 180.036 49.2664C180.662 49.2664 181.269 49.1043 181.844 48.7882C182.425 48.4704 182.876 48.0222 183.197 47.4465C183.515 46.8726 183.673 46.2686 183.673 45.6437C183.673 45.0147 183.509 44.4101 183.182 43.8296ZM182.67 47.1442C182.404 47.6231 182.028 47.9986 181.546 48.2656C181.064 48.5331 180.556 48.6662 180.036 48.6662C179.506 48.6674 179.002 48.5346 178.518 48.2672C178.034 48.0018 177.657 47.6253 177.386 47.1486C177.122 46.673 176.988 46.1712 176.988 45.6496C176.983 45.1248 177.119 44.622 177.396 44.1373C177.665 43.6515 178.046 43.2795 178.528 43.0186C179.017 42.7571 179.517 42.626 180.027 42.626C180.535 42.6244 181.035 42.7548 181.519 43.0167C182.007 43.2748 182.384 43.6473 182.659 44.1319C182.934 44.6166 183.068 45.1195 183.068 45.6437C183.068 46.1674 182.936 46.6687 182.67 47.1442Z" fill="#0060AA"/>
<path d="M180.667 46.1151C180.586 46.0336 180.472 45.9652 180.334 45.9074C180.676 45.8818 180.944 45.7619 181.148 45.5501C181.35 45.3399 181.455 45.0916 181.455 44.8097C181.455 44.6065 181.394 44.4176 181.269 44.2347C181.148 44.0592 180.981 43.9328 180.777 43.8589C180.57 43.7863 180.234 43.7522 179.775 43.7522L178.429 43.7575L178.433 47.6518H179.063L179.059 45.994H179.435C179.659 45.994 179.824 46.0384 179.941 46.1278C180.109 46.2482 180.334 46.5515 180.606 47.035L180.955 47.6493H181.73L181.247 46.886C181.02 46.5237 180.824 46.267 180.667 46.1151ZM179.831 45.4575H179.059V44.2817H179.781C180.091 44.2817 180.303 44.3041 180.418 44.3443C180.531 44.3914 180.62 44.4576 180.684 44.5528C180.752 44.6432 180.783 44.7466 180.783 44.8606C180.783 45.0392 180.719 45.183 180.58 45.2912C180.449 45.4007 180.197 45.4575 179.831 45.4575Z" fill="#0060AA"/>
</g>
<rect x="0.5" y="0.5" width="199" height="119" stroke="black"/>
<defs>
<clipPath id="clip0_662_307">
<rect width="168" height="35" fill="white" transform="translate(16 42)"/>
</clipPath>
</defs>
</svg>
