<?xml version="1.0" encoding="utf-8"?>
<!-- Generator: Adobe Illustrator 24.0.1, SVG Export Plug-In . SVG Version: 6.00 Build 0)  -->
<svg version="1.1" id="Слой_1" xmlns="http://www.w3.org/2000/svg" xmlns:xlink="http://www.w3.org/1999/xlink" x="0px" y="0px"
	 viewBox="0 0 200 120" style="enable-background:new 0 0 200 120;" xml:space="preserve">
<style type="text/css">
	.st0{display:none;fill-rule:evenodd;clip-rule:evenodd;fill:#FFFFFF;}
	.st1{fill-rule:evenodd;clip-rule:evenodd;fill:#353535;}
	.st2{fill-rule:evenodd;clip-rule:evenodd;fill:#FFFFFF;}
</style>
<g>
	<path class="st0" d="M12-28h176v176H12V-28z"/>
	<path class="st1" d="M55.1,73.1c3.2,1.5,6.9,2.2,11.1,2.2c3.9,0,7.1-1.1,9.2-3.2c1.7-1.7,2.7-4.1,2.7-6.6c0-5.7-4.7-8.1-8.2-9.9
		c-2.1-1.1-4-2-4-3.3c0-0.4,0.1-0.8,0.4-1c0.4-0.4,1.2-0.7,2.2-0.7c2.2,0,4.6,1.2,7.6,4l0.7,0.7v-9.5l-0.2-0.1
		c-3.2-2.4-6.3-3.5-10.2-3.5c-9.1,0-11.6,6.2-11.6,9.9c0,6,4.7,8.5,8.2,10.3c1.9,1,3.5,1.8,3.5,2.9c0,1.1-1,1.7-2.7,1.7
		c-2.6,0-5.4-1-8.3-3.1l-0.7-0.5V73L55.1,73.1z M105.5,67.9c-2.4,0-2.5-0.5-2.5-2.8v-6.9c0-2.4-0.8-4.3-2.3-5.8c-2-2-5.2-3-9.1-3
		c-4.5,0-8.2,1.4-11.8,4.3l-0.2,0.1v8.2l0.7-0.5c4-3,6.4-4.1,9.5-4.1c2.6,0,3.3,0.8,3.4,2.3c-1.1,0.8-3.1,1.3-5.2,1.9
		c-2.8,0.7-5.7,1.5-7.2,3c-1.3,1.3-2,2.9-2,4.5c0,1.6,0.6,3.1,1.7,4.2c1.4,1.4,3.7,2.2,6.5,2.2c2.9,0,5.6-0.7,7.9-2.2
		c1.5,1.9,3.9,2.4,8.8,2.1l0.3,0l0.1-0.3l1.8-6.5l0.1-0.5L105.5,67.9z"/>
	<path class="st2" d="M93.3,64.7c-0.7,0.4-1.6,0.6-2.4,0.9c-2.4,0.7-3.8,1.3-3.8,3c0,0.6,0.2,1.2,0.6,1.6c0.4,0.4,1,0.6,1.6,0.6
		c1.3,0,2.9-0.5,4.1-1.4c-0.1-0.6-0.2-1.2-0.2-2.1V64.7z"/>
	<path class="st1" d="M131.4,70l-1.8-4l-0.2-0.5l-0.4,0.3c-2.7,1.9-5,2.7-7.6,2.7c-3.1,0-5.8-1.8-6.2-4H131l0-0.4
		c0.5-4.1-0.5-7.9-3-10.7c-2.4-2.7-5.8-4.2-9.6-4.2c-7.4,0-13,5.6-13,12.9c0,3.5,1.3,6.7,3.7,9.1c2.6,2.6,6.4,4,10.6,4
		c4.8,0,8.8-1.7,11.6-4.9l0.2-0.2L131.4,70z"/>
	<path class="st2" d="M118.6,55.5c-1.1,0-2.1,0.4-2.7,1c-0.7,0.8-1.1,2-1.1,3.5h7.5C122.1,57,120.9,55.5,118.6,55.5
		C118.6,55.5,120.9,55.5,118.6,55.5L118.6,55.5z"/>
	<path class="st1" d="M153.9,65.1c-2.6,1.1-4.1,1.5-5.8,1.5c-1.9,0-3.5-0.6-4.5-1.6c-0.7-0.7-1.1-1.7-1.1-2.7c0-1.1,0.4-2.1,1.1-2.8
		c1-1,2.4-1.5,4.1-1.5c2,0,3.8,0.4,5.9,1.4l0.6,0.3v-9.1l-0.3-0.1c-2.5-0.8-5.3-1.3-8-1.3c-9.6,0-14,6.8-14,13.2
		c0,3.5,1.2,6.6,3.5,8.9c2.6,2.6,6.4,4,10.7,4c2.7,0,4.7-0.4,7.9-1.5l0.3-0.1v-8.9L153.9,65.1z M155.8,62.3c0,3.5,1.3,6.7,3.6,9
		c2.6,2.6,6.5,4,11.3,4c4.6,0,8.5-1.4,11.1-4c2.3-2.3,3.6-5.5,3.6-9c0-3.5-1.3-6.7-3.6-9c-2.6-2.6-6.5-4-11.2-4
		C160.4,49.3,155.8,55.8,155.8,62.3C155.8,62.3,155.8,55.8,155.8,62.3L155.8,62.3z"/>
	<path class="st2" d="M166.3,62.3c0-1.2,0.4-2.3,1.2-3.1c0.8-0.8,1.9-1.2,3.1-1.2s2.4,0.4,3.1,1.2c0.8,0.8,1.2,1.8,1.2,3.1
		c0,2.6-1.7,4.3-4.3,4.3c-1.3,0-2.4-0.4-3.1-1.2C166.7,64.6,166.3,63.5,166.3,62.3C166.3,62.3,166.3,63.5,166.3,62.3L166.3,62.3z"/>
	<path class="st1" d="M20.6,66.5c-1-2-1.5-4.2-1.5-6.5c0-8.1,6.6-14.7,14.7-14.7c3,0,5.9,0.9,8.2,2.5l4.7-2c-3.5-3.2-8.2-5-13-5
		c-10.6,0-19.3,8.6-19.3,19.3c0,5.4,2.2,10.2,5.7,13.7L46,62.6l0.9-7.4L20.6,66.5L20.6,66.5z"/>
	<path class="st1" d="M47.7,54.9c-0.1-0.4-0.3-0.7-0.4-1L21,65.1l0.9-7.4l25.8-11.1c1.8,1.9,3.2,4.1,4.1,6.5
		c0.8,2.2,1.3,4.5,1.3,6.9c0,10.6-8.6,19.3-19.3,19.3c-4.5,0-8.9-1.6-12.4-4.5l4.9-2.1c2.3,1.4,4.9,2.1,7.5,2.1
		c8.1,0,14.7-6.6,14.7-14.7C48.6,58.2,48.2,56.5,47.7,54.9C47.7,54.9,48.2,56.5,47.7,54.9L47.7,54.9z"/>
</g>
</svg>
