<?xml version="1.0" encoding="utf-8"?>
<!-- Generator: Adobe Illustrator 24.0.1, SVG Export Plug-In . SVG Version: 6.00 Build 0)  -->
<svg version="1.1" id="Слой_1" xmlns="http://www.w3.org/2000/svg" xmlns:xlink="http://www.w3.org/1999/xlink" x="0px" y="0px"
	 viewBox="0 0 200 120" style="enable-background:new 0 0 200 120;" xml:space="preserve">
<style type="text/css">
	.st0{display:none;fill-rule:evenodd;clip-rule:evenodd;fill:#FFFFFF;}
	.st1{fill-rule:evenodd;clip-rule:evenodd;fill:#5C6D7C;}
	.st2{display:none;fill-rule:evenodd;clip-rule:evenodd;}
</style>
<g>
	<path class="st0" d="M19-21h162v162H19V-21z"/>
	<path class="st1" d="M82.2,44.5l-0.9,7.8H70.5l-0.5,4h7.3l-0.8,7.4h-7.4l-1.3,10.4h-9.1l3.9-29.6H82.2L82.2,44.5z M172.7,53.9
		l-2.5,5.4c0,0-3.2-2.2-5.8-2.2c-2.8,0-2.1,2.8-0.7,3.2c4.1,0.9,8.3,2.2,8.3,6.5c0,5.3-4.7,8.5-10,8.5c-6.7-0.1-11.4-4.2-11.4-4.2
		l3.5-5.8c3.5,4.7,9.4,4.5,9.9,2.6c0.6-2.7-5.1-1.4-8-4.7c-3.1-3.5-1.3-8.9,2.8-10.7C162.5,50.6,166.6,50.7,172.7,53.9L172.7,53.9z"
		/>
	<path class="st1" d="M144.6,51.9l-1.5,13.3c-0.4,1.8-2,3.2-3.8,3.1c-2,0-3.5-1.1-3.2-3.1l1.7-13.3h-8.5l-0.7,5.5
		c-2.4-4.7-7.9-6.3-11.8-6.3c-5.3,0-11.2,2.5-13.1,8c-1.8-6.1-8.1-7.9-12.4-7.9c-6.5,0-13.8,3.7-13.8,12.3c0,8.1,6,11.6,12.7,11.6
		c6.4,0,11.4-3,13.2-8.3c1.4,5.7,6.7,8.1,12.3,8.1c5.3,0,9.7-2,12-5.7c0.8,4,4.4,6.1,10.9,6.1c8.6,0,12.3-4.2,12.9-9.7l1.8-13.9
		L144.6,51.9L144.6,51.9L144.6,51.9z M90.2,68.6c-3,0-4.6-2.2-4.6-5.1c0-3.1,2-5.3,5.5-5.3c2,0,4.5,1.1,4.7,4.2v0.6
		C95.9,66.3,93.3,68.6,90.2,68.6L90.2,68.6z M120.2,66.5c-1.1,1.2-2.7,2-4.4,2c-2.5,0-4-1.5-4.5-3.5l-8.4-1.5v0.1l-6.7-1.1l6.8-0.6
		h0.1l0.8-0.1l7.7-0.8c0.7-1.8,2.5-2.8,5-2.8c1.4,0,3.1,0.5,4,1.9l7.7-0.8l-0.8,6.6v1.9L120.2,66.5L120.2,66.5z M56.6,74.2l1.9-15.1
		c1.1-8.1-9.6-11.1-14.9-4.5l0.5-3.2h-8.7l-2.8,22.8h8.7l1.7-13.5c0.5-3.7,7.3-3.5,6.8,0l-1.7,13.5H56.6z M33.9,44.8l-3.5,29.4h-9
		l3.5-29.4H33.9z"/>
	<path class="st2" d="M174.8,51.6h-0.7v-3.4h1.3c0.8,0,1.4,0.4,1.4,1.1c0,0.7-0.5,0.8-0.8,0.9l0.8,1.4H176l-0.8-1.4h-0.4L174.8,51.6
		L174.8,51.6L174.8,51.6z M175.5,49.6c0.2,0,0.5,0,0.5-0.4s-0.4-0.5-0.7-0.5h-0.5v0.8L175.5,49.6L175.5,49.6z M175.4,53.2
		c-1.8,0-3.2-1.2-3.2-3.2c0-2,1.4-3.2,3.2-3.2c1.7,0,3.2,1.2,3.2,3.2C178.6,52,177.1,53.2,175.4,53.2z M175.4,47.5
		c-1.3,0-2.4,1.1-2.4,2.5c0,1.4,1.1,2.5,2.4,2.5c1.2,0,2.2-1.1,2.2-2.5C177.7,48.6,176.6,47.5,175.4,47.5z"/>
</g>
</svg>
