<?xml version="1.0" encoding="utf-8"?>
<!-- Generator: Adobe Illustrator 24.0.1, SVG Export Plug-In . SVG Version: 6.00 Build 0)  -->
<svg version="1.1" id="Слой_1" xmlns="http://www.w3.org/2000/svg" xmlns:xlink="http://www.w3.org/1999/xlink" x="0px" y="0px"
	 viewBox="0 0 200 120" style="enable-background:new 0 0 200 120;" xml:space="preserve">
<style type="text/css">
	.st0{fill:#020202;}
	.st1{fill:#EAAB4D;}
</style>
<path class="st0" d="M61.8,49.1l-2.9,6.6L65.7,71c0.6,1.3,2.2,1.9,3.5,1.4c1.3-0.6,1.9-2.2,1.4-3.5L61.8,49.1z M55,46.7l-9.8,22.2
	c-0.6,1.3,0,2.9,1.4,3.5c1.2,0.5,2.7,0.1,3.3-1.1l10.9-24.6H55z M79.6,46.7H85v19.4h-5.3V46.7z M79.6,73.4h17.9
	c1.5,0,2.6-1.2,2.6-2.6c0-1.5-1.2-2.6-2.6-2.6H79.6V73.4L79.6,73.4z"/>
<path class="st1" d="M31.4,46.7h5.3v11.1h-5.3V46.7z M12,46.7h5.3v11.1H12V46.7z M12,59.8v10.8c0,1.5,1.2,2.6,2.6,2.6
	s2.6-1.2,2.6-2.6v-5.5h14.2v5.5c0,1.5,1.2,2.6,2.6,2.6c1.5,0,2.6-1.2,2.6-2.6V59.8C36.7,59.8,12,59.8,12,59.8z"/>
<path class="st0" d="M109.5,70.7c0,1.5,1.2,2.6,2.6,2.6s2.6-1.2,2.6-2.6V54h-5.3L109.5,70.7L109.5,70.7z M99.4,46.7H125V52H99.4
	V46.7z M151.7,52.1c1.5,0,2.6-1.2,2.6-2.6c0-1.5-1.2-2.6-2.6-2.6h-18.9v26.5h18.9c1.5,0,2.6-1.2,2.6-2.6c0-1.5-1.2-2.6-2.6-2.6
	h-13.6V52.1H151.7z"/>
<path class="st0" d="M151.7,62.7c1.5,0,2.6-1.2,2.6-2.6c0-1.5-1.2-2.6-2.6-2.6h-11.6v5.3H151.7z M188.1,49.4c0-1.5-1.2-2.6-2.6-2.6
	c-1.5,0-2.6,1.2-2.6,2.6v12.8l5.3,7.7L188.1,49.4L188.1,49.4z M163.3,46.7l18.3,26.6h6.4l-18.3-26.6H163.3z M163.3,70.7
	c0,1.5,1.2,2.6,2.6,2.6c1.5,0,2.6-1.2,2.6-2.6V57.9l-5.3-7.7L163.3,70.7L163.3,70.7z"/>
</svg>
