<svg width="200" height="120" viewBox="0 0 200 120" fill="none" xmlns="http://www.w3.org/2000/svg">
<path d="M33.4 68.2H29.8V73.7H22.5V46.3C24.3 46.3 30.5 46.3 33.4 46.3C42 46.3 46.2 49.9001 46.2 57.2001C46.2 64.0001 41.2 68.2 33.4 68.2ZM31.6 51.8C31.2 51.8 30.3 51.8 29.8 51.8V62.7001H31.6C35.9 62.7001 38.9 60.6001 38.9 57.2001C38.9 54.0001 35.7 51.8 31.6 51.8ZM66.2 73.7V62.7001H57.1V73.6H49.8V46.3H57.1V57.2001H66.2V46.3H73.5V73.7H66.2ZM80.8 73.7V46.3H88.1V73.7H80.8ZM110 73.7H95.4V46.3H102.7V68.2H111.8L110 73.7ZM115.5 73.7V46.3H122.8V73.7H115.5ZM141.1 68.2H137.5V73.7H130.2V46.3C132 46.3 138.2 46.3 141.1 46.3C149.7 46.3 153.9 49.9001 153.9 57.2001C153.8 64.0001 148.8 68.2 141.1 68.2ZM139.2 51.8C138.8 51.8 137.9 51.8 137.4 51.8V62.7001H139.2C143.5 62.7001 146.5 60.6001 146.5 57.2001C146.5 54.0001 143.3 51.8 139.2 51.8ZM164.4 53.6C164.4 57.8 177.5 56.1001 177.5 64.9001C177.5 71.5001 171.8 73.7 164.8 73.7C162.1 73.7 158.6 73.3001 156.1 72.4001L155.2 66.4001C157.7 67.6001 161.9 68.5 164.7 68.5C167.8 68.5 169 67.6 169 66C169 61.7 156 63.6001 156 54.4001C156 49.0001 160.6 46.5 167.3 46.5C170.8 46.5 172.8 46.8 174.9 47.3L175.6 53C173.7 52.2 170.8 51.7001 168.2 51.7001C165.9 51.5001 164.4 52.1 164.4 53.6Z" fill="white"/>
<rect x="0.5" y="0.5" width="199" height="119" stroke="black"/>
</svg>
