<?xml version="1.0" encoding="utf-8"?>
<!-- Generator: Adobe Illustrator 24.0.1, SVG Export Plug-In . SVG Version: 6.00 Build 0)  -->
<svg version="1.1" id="Слой_1" xmlns="http://www.w3.org/2000/svg" xmlns:xlink="http://www.w3.org/1999/xlink" x="0px" y="0px"
	 viewBox="0 0 200 120" style="enable-background:new 0 0 200 120;" xml:space="preserve">
<style type="text/css">
	.st0{fill:#83B81A;}
</style>
<path class="st0" d="M178.2,43c-0.5-0.7-1.1-1.3-3.8-1.5c-0.7,0-2.9-0.2-6.8-0.2c-10,0-17,3.1-20.5,9.1c0.9-6-4.9-9.1-17.7-9.1
	c-15,0-24.5,6-28.3,18.3c-1.5,4.6-1.5,8.2-0.4,11.1h-3.7c-2.7,0.2-6.4,0.4-8.8,0.4c-5.5,0-9-0.9-10.2-2.7c-1.1-1.7-1.1-4.8,0.4-9.3
	c2.4-7.5,8-10.8,17.2-10.8c4.8,0,9.3,0.5,9.3,0.5c0.5,0,0.9-0.7,0.9-1.3l-0.2-0.6l-0.4-2.6c-0.2-1.6-1.5-2.6-3.7-2.9
	c-2-0.2-3.7-0.2-5.8-0.2h-0.2c-11.9,0-20.3,4-24.8,11.7c1.6-7.9-3.8-11.7-16.4-11.7c-7.1,0-12.2,0.2-15.2,0.5
	c-2.4,0.4-3.8,1.3-4.4,2.9l-1.1,3.3c-0.2,0.5,0.2,0.9,0.9,0.9c0.5,0,2.7-0.4,6.4-0.5c4.9-0.4,8.4-0.6,10.8-0.6c6.9,0,10,1.8,9,5.3
	c-0.2,0.7-0.7,1.3-1.6,1.5c-6.6,1.1-11.9,1.8-15.7,2.4c-11,1.5-17.4,4.8-19,10.2c-2.4,7.5,3.5,11.1,17.5,11.1c6.9,0,13-0.4,17.7-1.3
	c2.7-0.6,4.2-1.1,4.8-2.9l2.6-8.4c-0.2,8.4,5.5,12.6,17.5,12.6c5.1,0,10-0.2,12.4-0.5c2.4-0.4,3.7-0.9,4.2-2.7l0.6-2.6
	c2.6,4,8.2,6,16.8,6c9.1,0,14.4-0.2,15.9-0.7c1.3-0.4,2-1.1,2.4-2c0-0.2,0-0.4,0.2-0.5l1.1-3.5c0.2-0.5-0.2-0.9-0.9-0.9l-5.8,0.4
	c-3.8,0.2-6.9,0.4-9.1,0.4c-4.2,0-6.9-0.4-8.6-0.9c-2.4-0.9-3.5-2.6-3.3-5.3l18.5-2.4c8.2-1.1,13.9-3.7,16.6-7.7l-6.4,21.4
	c-0.2,0.4,0,0.7,0.2,0.9c0.2,0.2,0.5,0.4,1.3,0.4h7.7c1.3,0,1.8-0.7,2-1.3l6.8-23.6c0.9-3.1,3.7-4.6,8.8-4.6c4.6,0,7.9,0,10,0.2h0.2
	c0.4,0,1.1-0.2,1.6-1.1l1.1-3.3C178.5,43.9,178.5,43.4,178.2,43L178.2,43z M55,71.1c-2.4,0.4-5.8,0.5-10.2,0.5
	c-7.9,0-11.1-1.6-10.2-4.8c0.7-2.2,2.7-3.7,6-4l17.7-2.4L55,71.1z M136.7,52.1c-0.7,2.4-4.2,4-10.4,4.9l-14.8,2l0.4-1.3
	c1.3-4,2.9-6.6,5.1-8c2.2-1.5,5.8-2.2,11-2.2C134.7,47.8,137.6,49.2,136.7,52.1z"/>
</svg>
