<?xml version="1.0" encoding="utf-8"?>
<!-- Generator: Adobe Illustrator 24.0.1, SVG Export Plug-In . SVG Version: 6.00 Build 0)  -->
<svg version="1.1" id="Слой_1" xmlns="http://www.w3.org/2000/svg" xmlns:xlink="http://www.w3.org/1999/xlink" x="0px" y="0px"
	 viewBox="0 0 200 120" style="enable-background:new 0 0 200 120;" xml:space="preserve">
<style type="text/css">
	.st0{display:none;fill-rule:evenodd;clip-rule:evenodd;fill:#FFFFFF;}
	.st1{fill-rule:evenodd;clip-rule:evenodd;fill:#CF4044;}
</style>
<g>
	<path class="st0" d="M0-40h200v200H0V-40z"/>
	<path class="st1" d="M144.5,46.9h6.9v10.4h14V46.9h6.9V73h-6.9V61.5h-14V73h-6.9V46.9z M15.2,46.9h6.9v10.4h14V46.9H43V73H36V61.5
		h-14V73h-6.9L15.2,46.9L15.2,46.9z M48.7,46.9h7V73h-7V46.9z M177.8,46.9h7V73h-7V46.9z M58.2,46.9h27.1v4.3H75.2V73h-6.9V51.3
		H58.2L58.2,46.9L58.2,46.9z M91.3,63l4.8-11.6l4.8,11.6H91.3z M102.6,67.2L105,73h7.8l-12.3-26h-8.7L79.4,73h7.7l2.4-5.8H102.6z
		 M133.8,55.8h7.1c-0.1-4.7-4.2-9.2-13.7-9.3c-7.1,0-15.6,2.9-15.7,13.5c0,10.5,8.7,13.8,15.7,13.6c6.4-0.2,13.6-2,13.9-9.9l-7.1,0
		c-0.2,4.9-4.2,5.9-6.8,6c-2.7,0-8.2-0.6-8.3-9.6c-0.1-8.5,4.9-9.7,8.3-9.7C130.5,50.4,133.8,51.9,133.8,55.8z"/>
</g>
</svg>
