<?xml version="1.0" encoding="utf-8"?>
<!-- Generator: Adobe Illustrator 24.0.1, SVG Export Plug-In . SVG Version: 6.00 Build 0)  -->
<svg version="1.1" id="Layer_1" xmlns="http://www.w3.org/2000/svg" xmlns:xlink="http://www.w3.org/1999/xlink" x="0px" y="0px"
	 viewBox="0 0 200 120" style="enable-background:new 0 0 200 120;" xml:space="preserve">
<style type="text/css">
	.st0{fill:#00447B;}
</style>
<path class="st0" d="M97.6,85.1c13.3,0,22.7-2.9,22.7-18V53.2c0-15.1-9.4-18-22.7-18c-13.3,0-22.7,2.9-22.7,18v13.9
	C74.9,82.2,84.4,85.1,97.6,85.1z M97.6,73.7c-6.8,0-9-0.7-9.2-8V54.6c0.2-7.3,2.4-8,9.2-8c6.8,0,9.2,0.7,9.2,8v11.1
	C106.9,73,104.4,73.7,97.6,73.7"/>
<path class="st0" d="M168.4,66.1v1.4c0,5.4-0.1,10.2-4.5,13.9c-4.4,3.7-9.9,3.6-15.6,3.6c-13.3,0-23.1-0.7-23.1-18.6V53.8
	c0-16.2,8.7-18.6,23.1-18.6c13.5,0,19.8,1.4,20,16.1v1.9h-13.5v-1.9c-0.5-4.4-3.5-4.7-8-4.7c-7.5,0-8.2,2.3-8.2,9.3v7.7
	c0,7.3,0.3,10.1,8.2,10.1c5.4,0,8-0.4,8-6.1v-1.4L168.4,66.1L168.4,66.1z"/>
<path class="st0" d="M34.3,84.7l14.3-31.1c2.3-5,3.6-6.6,8.7-6.6v13.7v11.4v12.6h13.1V35.6H55.6c-12.2,0-14.6,5.2-20.5,18L20.8,84.7
	H34.3z"/>
</svg>
