<?xml version="1.0" encoding="utf-8"?>
<!-- Generator: Adobe Illustrator 24.0.1, SVG Export Plug-In . SVG Version: 6.00 Build 0)  -->
<svg version="1.1"
	 id="Слой_1" text-rendering="geometricPrecision" image-rendering="optimizeQuality" shape-rendering="geometricPrecision"
	 xmlns="http://www.w3.org/2000/svg" xmlns:xlink="http://www.w3.org/1999/xlink" x="0px" y="0px" viewBox="0 0 200 120"
	 style="enable-background:new 0 0 200 120;" xml:space="preserve">
<style type="text/css">
	.st0{fill:#00B0F0;}
</style>
<g>
	<path class="st0" d="M93.1,59.3v23.3h5.5V59.3H93.1z M83.2,50.4h-5.6C76.9,50.4,77,51,77,51c0.1,0.7,0.3,1.9,0.3,4.4
		c0,5.5-0.7,13.5-6.7,21.1L70.1,77c0,0-3.7-25.5-3.7-26c0,0,0-0.6-0.5-0.6h-5.7c-0.5,0-0.5,0.6-0.5,0.6C59.5,54,57.9,78.6,40,82.5
		c3.8,0.4,8.4-0.8,12.4-3.2c5-3.1,8.3-7.6,9.4-12.9c0,0,2.2,13.7,2.5,16.8v0.2l-0.2,0.1c-5,2.7-10.7,4.1-16.4,4.1
		c-14.1,0-26.6-8.4-32.1-21.1c3.2,15,16.6,25.9,32.3,25.9c18.2,0,29.1-15.3,31-26.1c0,0,2.5,15.8,2.5,16.4h7.5
		c-0.1-0.7-5.1-31.1-5.1-31.6c0,0,0-0.6-0.5-0.6V50.4z M20,63.8C20,47,34.1,33.4,51.4,33.4c10.7,0,20.7,5.4,26.5,14.1
		c-4.2-11.9-16.1-20.1-29.3-20.1c-17.1,0-31,13.3-31,29.7c0,4.5,1.1,8.9,3.1,12.9C20.3,68.1,20,65.9,20,63.8L20,63.8z M151,62.7
		c-2-2.3-4.8-3.5-8.1-3.5c-3.4,0-6.3,1.1-8.6,3.3c-2.2,2.1-3.4,5-3.4,8.6c0,3.5,1.1,6.3,3.3,8.4s5.4,3.1,9.4,3.1
		c7.7,0,9.4-5.3,10-7.1l-2-0.6c-1.8,3.2-5.8,3.5-8.1,3.3c-1.7-0.1-3.2-0.7-4.4-1.5c-1.2-0.9-2-2.1-2.4-4.1l-0.1-0.7H154
		C153.9,68.1,152.9,65,151,62.7L151,62.7z M137,68.6c-0.3,0-0.3-0.3-0.3-0.4c0.2-1.4,0.7-2.4,1.7-3.3c1-1.1,2.7-1.7,4.4-1.7
		c1.6,0,2.8,0.5,3.9,1.4c0.9,0.8,1.5,1.9,1.9,3.4c0.1,0.2,0.2,0.6-0.3,0.6L137,68.6L137,68.6z M168.5,59.1c-6.6,0-8.9,4-9.7,5.9
		c0,0.1-0.3,0.7-0.3,0.7l2.2,0.7c0,0,1.4-4.1,7-3.8c5.6,0.2,5,4.9,5,5.6c-3.1-0.9-7.6-0.8-10.5,0.5c-3.7,1.7-4.2,5-4.1,7.5
		c0.2,3.7,3.4,6.2,7.6,6.4c3.8,0.2,5.4-0.6,7-2.1l-0.1,2.1h5V66.5C177.7,63.7,175.8,59,168.5,59.1L168.5,59.1z M172.6,77.1
		c0,0.4-0.1,0.6-0.4,0.8c-0.9,0.5-2.9,1.1-5.4,0.9c-2.6-0.2-3.6-2-3.7-2.8c-0.1-0.3-0.6-3.7,2.7-4.8c2.1-0.7,4.9-0.3,6.3,0.2
		c0.4,0.1,0.5,0.4,0.5,0.9V77.1L172.6,77.1z M98.2,50.4h-4.5c-0.7,0-0.6,0.7-0.6,0.7V56h5.6v-5C98.7,51.1,98.7,50.5,98.2,50.4
		L98.2,50.4z M126.1,50.4h-4.7c-0.5,0-0.5,0.5-0.5,0.5v9.6l-0.7-0.4c-0.7-0.4-1.5-0.6-2.2-0.8s-1.7-0.2-2.8-0.2
		c-3.7,0-6.6,1-8.8,3.2c-2.1,2.1-3.3,5.1-3.3,8.8c0,3.3,0.9,6.1,2.8,8.3c1.8,2.1,4.5,3.2,8,3.2c5,0,7-3,7-3v2.9h5.6v-5.5V51
		C126.6,51,126.6,50.4,126.1,50.4z M120.7,76.3c-0.5,0.5-1.2,0.8-2,1.2c-0.9,0.4-1.9,0.5-3.1,0.5c-1.9,0-3.4-0.6-4.5-1.9
		s-1.6-3.1-1.6-5.5c0-2.4,0.5-4.2,1.5-5.3c1-1.2,2.6-1.7,4.7-1.7c1.1,0,2.1,0.2,3.1,0.5c0.8,0.3,1.5,0.6,1.9,1
		c0.2,0.2,0.3,0.4,0.3,0.8v9.6C121,75.8,120.8,76.1,120.7,76.3L120.7,76.3z M181,46.6c-1.9,0-3.4,1.5-3.4,3.4c0,1.9,1.5,3.4,3.4,3.4
		c1.9,0,3.4-1.5,3.4-3.4C184.4,48.1,182.9,46.6,181,46.6z M181,47c1.6,0,2.9,1.3,2.9,2.9c0,1.6-1.2,2.9-2.9,2.9
		c-1.6,0-2.9-1.3-2.9-2.9C178.1,48.3,179.3,47,181,47z M180.3,50.2h0.8l1.1,1.7h0.6l-1.2-1.7c0.5-0.1,1-0.4,1-1.1s-0.4-1.1-1.3-1.1
		h-1.5v3.9h0.5L180.3,50.2L180.3,50.2z M180.3,49.8v-1.4h0.9c0.5,0,0.9,0.1,0.9,0.7c0,0.7-0.6,0.7-1.2,0.7H180.3L180.3,49.8z"/>
</g>
</svg>
