<svg width="200" height="120" viewBox="0 0 200 120" fill="none" xmlns="http://www.w3.org/2000/svg">
<path d="M73.5635 54.3841C73.4669 53.4102 73.0524 52.6536 72.3199 52.1143C71.5874 51.575 70.5933 51.3053 69.3376 51.3053C68.4844 51.3053 67.764 51.426 67.1764 51.6675C66.5888 51.901 66.1381 52.2269 65.8241 52.6455C65.5183 53.0641 65.3653 53.539 65.3653 54.0702C65.3492 54.5129 65.4418 54.8993 65.643 55.2293C65.8523 55.5593 66.1381 55.8451 66.5003 56.0866C66.8625 56.32 67.281 56.5252 67.7559 56.7023C68.2309 56.8714 68.738 57.0162 69.2773 57.137L71.4988 57.6682C72.5774 57.9097 73.5675 58.2317 74.469 58.6341C75.3705 59.0366 76.1513 59.5316 76.8113 60.1192C77.4714 60.7068 77.9825 61.3991 78.3447 62.1959C78.715 62.9928 78.9041 63.9064 78.9122 64.9367C78.9041 66.45 78.5178 67.762 77.7531 68.8728C76.9965 69.9755 75.9018 70.8328 74.469 71.4445C73.0443 72.0482 71.3258 72.3501 69.3135 72.3501C67.3173 72.3501 65.5786 72.0442 64.0976 71.4324C62.6246 70.8207 61.4735 69.9152 60.6444 68.7158C59.8234 67.5084 59.3928 66.0153 59.3525 64.2364H64.4115C64.4678 65.0655 64.7053 65.7577 65.1238 66.3131C65.5505 66.8605 66.1179 67.275 66.8263 67.5567C67.5426 67.8304 68.3516 67.9672 69.2531 67.9672C70.1385 67.9672 70.9072 67.8385 71.5592 67.5809C72.2193 67.3233 72.7304 66.9651 73.0926 66.5063C73.4548 66.0475 73.6359 65.5203 73.6359 64.9246C73.6359 64.3692 73.4709 63.9024 73.1409 63.5241C72.8189 63.1457 72.344 62.8238 71.7162 62.5582C71.0964 62.2925 70.3357 62.051 69.4342 61.8337L66.7417 61.1576C64.657 60.6505 63.0109 59.8576 61.8035 58.779C60.5961 57.7004 59.9965 56.2475 60.0045 54.4204C59.9965 52.9232 60.3949 51.6152 61.1998 50.4964C62.0128 49.3775 63.1276 48.5042 64.5443 47.8763C65.961 47.2485 67.5708 46.9346 69.3738 46.9346C71.2091 46.9346 72.8109 47.2485 74.1792 47.8763C75.5557 48.5042 76.6262 49.3775 77.3909 50.4964C78.1556 51.6152 78.55 52.9111 78.5741 54.3841H73.5635Z" fill="white"/>
<path d="M82.4287 71.9999V47.2726H87.6567V67.6895H98.2575V71.9999H82.4287Z" fill="white"/>
<path d="M106.948 47.2726V71.9999H101.72V47.2726H106.948Z" fill="white"/>
<path d="M111.249 47.2726H117.696L124.506 63.8863H124.796L131.606 47.2726H138.053V71.9999H132.982V55.9055H132.777L126.378 71.8792H122.924L116.525 55.8451H116.32V71.9999H111.249V47.2726Z" fill="white"/>
<rect x="0.5" y="0.5" width="199" height="119" stroke="black"/>
</svg>
