<svg width="200" height="120" viewBox="0 0 200 120" fill="none" xmlns="http://www.w3.org/2000/svg">
<g clip-path="url(#clip0_654_608)">
<path d="M182.34 50.9301C181.814 50.9301 181.3 50.7741 180.862 50.4818C180.425 50.1895 180.084 49.7741 179.883 49.288C179.681 48.802 179.629 48.2672 179.731 47.7512C179.834 47.2352 180.087 46.7612 180.459 46.3892C180.831 46.0172 181.305 45.7639 181.821 45.6612C182.337 45.5586 182.872 45.6113 183.358 45.8126C183.844 46.0139 184.26 46.3549 184.552 46.7923C184.844 47.2297 185 47.744 185 48.2701C185 48.9756 184.72 49.6522 184.221 50.151C183.722 50.6499 183.046 50.9301 182.34 50.9301ZM182.34 45.9901C181.889 45.9901 181.448 46.1238 181.073 46.3744C180.699 46.6249 180.406 46.981 180.234 47.3976C180.061 47.8142 180.016 48.2726 180.104 48.7149C180.192 49.1572 180.409 49.5634 180.728 49.8823C181.047 50.2012 181.453 50.4183 181.895 50.5063C182.338 50.5943 182.796 50.5491 183.213 50.3766C183.629 50.204 183.985 49.9118 184.236 49.5368C184.486 49.1619 184.62 48.721 184.62 48.2701C184.618 47.6671 184.376 47.0898 183.949 46.6644C183.522 46.2389 182.943 46.0001 182.34 46.0001V45.9901Z" fill="#CC0000"/>
<path fill-rule="evenodd" clip-rule="evenodd" d="M181.79 47.16V48.08H182.48C182.547 48.0838 182.614 48.0743 182.678 48.052C182.741 48.0296 182.8 47.995 182.85 47.95C182.9 47.9071 182.94 47.8532 182.966 47.7925C182.992 47.7318 183.003 47.6659 183 47.6C183 47.31 182.84 47.16 182.51 47.16H181.79ZM181.32 49.8V46.8H182.51C182.734 46.7888 182.954 46.8599 183.13 47C183.227 47.0781 183.305 47.1771 183.359 47.2896C183.413 47.4021 183.44 47.5253 183.44 47.65C183.441 47.8356 183.385 48.017 183.28 48.17C183.174 48.3197 183.024 48.4318 182.85 48.49L183.55 49.85H183L182.38 48.54H181.79V49.8H181.32Z" fill="#CC0000"/>
<path fill-rule="evenodd" clip-rule="evenodd" d="M174.44 55.72C172.44 55.72 171.44 56.9667 171.44 59.46C171.412 60.2618 171.675 61.0465 172.18 61.67C172.462 61.998 172.814 62.2582 173.211 62.4313C173.607 62.6044 174.038 62.686 174.47 62.67C176.63 62.67 177.72 61.58 177.72 59.28C177.72 56.98 176.6 55.74 174.44 55.72ZM15 70.92C15.43 70.92 174.16 70.86 174.64 70.79C175.555 70.7859 176.433 70.4275 177.09 69.79C177.524 68.8517 177.727 67.8228 177.68 66.79V65.41C176.113 66.6609 174.143 67.2973 172.14 67.2C171.005 67.2502 169.871 67.0735 168.804 66.6803C167.738 66.2871 166.761 65.6853 165.93 64.91C165.202 64.1932 164.63 63.3338 164.25 62.3857C163.87 61.4375 163.689 60.4211 163.72 59.4C163.624 57.2246 164.394 55.0999 165.86 53.49C166.708 52.6395 167.727 51.978 168.849 51.5488C169.971 51.1197 171.171 50.9327 172.37 51C173.486 50.9656 174.594 51.1865 175.612 51.6458C176.629 52.105 177.528 52.7905 178.24 53.65V51.51H185V66.2C185 69.2 184.5 71.27 183.48 72.46C182.03 74.16 179.41 75.56 175.07 75.56L15 75.37C15 75.37 15 70.88 15 70.92ZM150.84 66.92V52H157.16V55H157.22C157.623 53.9198 158.365 52.999 159.335 52.3753C160.304 51.7517 161.45 51.4586 162.6 51.54L163.5 51.63V57.63L162.06 57.46C161.44 57.3958 160.813 57.4701 160.225 57.6776C159.637 57.8851 159.102 58.2207 158.66 58.66C158.004 59.584 157.695 60.7105 157.79 61.84V67L150.84 66.92ZM149.46 60.3H135.56C135.552 60.7268 135.637 61.1502 135.81 61.5406C135.983 61.931 136.239 62.2789 136.56 62.56C137.287 63.1588 138.208 63.4717 139.15 63.44C139.691 63.4925 140.236 63.3885 140.72 63.1404C141.204 62.8922 141.607 62.5103 141.88 62.04H148.88C148.56 62.9791 148.035 63.8352 147.344 64.5461C146.652 65.257 145.81 65.8049 144.88 66.15C142.923 66.9724 140.812 67.3679 138.69 67.31C136.047 67.4344 133.436 66.6859 131.26 65.18C130.291 64.4801 129.51 63.5515 128.986 62.4768C128.463 61.402 128.213 60.2145 128.26 59.02C128.222 57.8201 128.468 56.6281 128.979 55.5417C129.49 54.4554 130.251 53.5055 131.2 52.77C133.34 51.1482 135.976 50.3178 138.66 50.42C141.568 50.2603 144.422 51.2477 146.61 53.17C147.582 54.0813 148.342 55.1949 148.836 56.4321C149.33 57.6693 149.546 59 149.47 60.33L149.46 60.3ZM135.56 57.1H142.18C142.175 56.7198 142.083 56.3458 141.909 56.0075C141.736 55.6692 141.486 55.3756 141.18 55.15C140.578 54.6192 139.803 54.3274 139 54.33C136.7 54.33 135.56 55.25 135.56 57.1ZM116 63.25C118.2 63.25 119.31 62.03 119.31 59.59C119.344 58.7259 119.091 57.8749 118.59 57.17C118.289 56.7761 117.894 56.463 117.442 56.2588C116.99 56.0547 116.495 55.9657 116 56C115.515 55.9752 115.03 56.0646 114.586 56.2608C114.141 56.457 113.749 56.7547 113.44 57.13C112.926 57.7952 112.66 58.6196 112.69 59.46C112.659 60.3485 112.911 61.2239 113.41 61.96C113.691 62.3829 114.078 62.7247 114.533 62.9511C114.987 63.1775 115.493 63.2805 116 63.25ZM112.89 45.82V53.24C114.451 51.859 116.488 51.1414 118.57 51.24C119.761 51.1816 120.95 51.378 122.059 51.816C123.168 52.254 124.171 52.9236 125 53.78C126.426 55.2908 127.199 57.3031 127.15 59.38C127.279 61.5323 126.561 63.6498 125.15 65.28C123.62 66.91 121.32 67.72 118.27 67.72C115.39 67.72 113.37 66.8367 112.21 65.07H112.1V67.28H105.1V45.82H112.89ZM71 67.08V51.93H77.7V54.19C78.3943 53.3524 79.2742 52.6882 80.27 52.25C81.2882 51.7632 82.4014 51.5071 83.53 51.5C86.53 51.5 88.53 52.4267 89.53 54.28C90.3167 53.3702 91.2972 52.6482 92.3995 52.1671C93.5019 51.686 94.698 51.4581 95.9 51.5C98.4667 51.5 100.317 52.0867 101.45 53.26C102.576 54.6185 103.131 56.3605 103 58.12V67.12H95.65V59.36C95.7025 58.6291 95.5826 57.8961 95.3 57.22C95.0802 56.8695 94.7648 56.5892 94.391 56.412C94.0171 56.2348 93.6004 56.1682 93.19 56.22C91.48 56.22 90.63 57.34 90.63 59.57V67.06H83.32V59.36C83.382 58.6315 83.2724 57.8985 83 57.22C82.781 56.8712 82.4672 56.592 82.0953 56.4149C81.7234 56.2378 81.3089 56.1702 80.9 56.22C79.19 56.22 78.33 57.34 78.33 59.57V67.06L71 67.08ZM47.17 59.51C47.1185 58.2557 47.3729 57.0076 47.9112 55.8735C48.4495 54.7393 49.2556 53.7532 50.26 53C52.26 51.48 54.9633 50.72 58.37 50.72C61.1944 50.5959 63.9883 51.3468 66.37 52.87C67.4023 53.5664 68.241 54.5133 68.8077 55.6221C69.3743 56.731 69.6504 57.9654 69.61 59.21C69.6752 60.4585 69.4363 61.7041 68.9137 62.8398C68.3912 63.9755 67.6006 64.9674 66.61 65.73C64.1962 67.3581 61.3174 68.155 58.41 68C55.5888 68.1323 52.7954 67.3921 50.41 65.88C49.3706 65.1836 48.527 64.2324 47.9598 63.1173C47.3926 62.0021 47.1207 60.7602 47.17 59.51ZM58.49 55.05C57.9516 55.0257 57.4158 55.1387 56.933 55.3784C56.4502 55.618 56.0362 55.9765 55.73 56.42C55.2195 57.244 54.9654 58.2012 55 59.17C55 62.1233 56.13 63.6 58.39 63.6C60.65 63.6 61.79 62.12 61.79 59.17C61.8153 58.2131 61.5654 57.2691 61.07 56.45C60.8116 56.0007 60.4337 55.632 59.9782 55.3848C59.5227 55.1376 59.0075 55.0217 58.49 55.05ZM45.8 67H38.69V45.38H45.8V67ZM26.74 67.65H15V45H26.5C32.9867 45 36.23 46.9 36.23 50.7C36.2243 51.7432 35.9273 52.764 35.3725 53.6474C34.8177 54.5309 34.0272 55.2418 33.09 55.7C34.2472 55.9495 35.2784 56.6015 36 57.54C36.7134 58.4944 37.0897 59.6586 37.07 60.85C37.0967 65.41 33.6533 67.69 26.74 67.69V67.65ZM25.68 50.29H22.9V54.07H26.18C27.98 54.07 28.89 53.41 28.89 52.07C28.9268 51.7323 28.848 51.3921 28.6663 51.1051C28.4847 50.8181 28.211 50.6012 27.89 50.49C27.1665 50.319 26.4224 50.2517 25.68 50.29ZM25.41 58.2H22.9V62.39H26.34C28.62 62.39 29.75 61.7 29.75 60.31C29.7802 59.916 29.6747 59.5236 29.4509 59.1979C29.2271 58.8723 28.8986 58.633 28.52 58.52C27.5055 58.2566 26.4569 58.1487 25.41 58.2Z" fill="#CC0000"/>
</g>
<rect x="0.5" y="0.5" width="199" height="119" stroke="black"/>
<defs>
<clipPath id="clip0_654_608">
<rect width="170" height="31" fill="white" transform="translate(15 45)"/>
</clipPath>
</defs>
</svg>
