<?xml version="1.0" encoding="utf-8"?>
<!-- Generator: Adobe Illustrator 24.0.1, SVG Export Plug-In . SVG Version: 6.00 Build 0)  -->
<svg version="1.1" id="Слой_1" xmlns="http://www.w3.org/2000/svg" xmlns:xlink="http://www.w3.org/1999/xlink" x="0px" y="0px"
	 viewBox="0 0 200 120" style="enable-background:new 0 0 200 120;" xml:space="preserve">
<style type="text/css">
	.st0{fill:#8CC751;}
</style>
<path class="st0" d="M159,76c-7.5,0-14.6,0.1-16.6-0.1c-4-0.3-6.7-3-7-6.8c-0.2-2.5-0.2-4.6,0-6.6c0.4-3.7,3.5-7.3,7-7.5
	c1.3-0.1,4.6-0.1,10.7,0l17.7,0v-7.3c0,0-14.1,0-18.3,0c-5.7,0-8.5,0-10.3,0c-4,0.2-7.3,1.6-9.9,4.2c-2.5,2.5-3.9,6.4-4.1,10.4
	c-0.1,2.2-0.2,5,0,6.7c0.4,4.3,1.8,7.7,4.1,10.1c2.5,2.5,6.3,4.2,9.9,4.2c3,0,28.6,0,28.6,0V76C170.8,76,163,76,159,76 M79.3,48.1
	v7.3h17.4v27.7h7.4V55.4h17.4v-7.3L79.3,48.1z M71.6,62c-0.1-3.9-1.4-7.3-4.1-10.1c-2.8-2.9-7.1-4-9.9-4.2c-2.4-0.1-12.1-0.1-14.3,0
	c-3.2,0.1-5.5,1.1-6.7,2c0,0,0,0,0,0V36.3h-7.4v47h7.3c0,0-0.1-19.2,0-21.3c0.3-3.7,3.1-6.6,6.7-7c2.9-0.2,11.5-0.2,14.3,0
	c3.7,0.3,6.5,3.2,6.7,7.1c0.1,1.4,0,21.2,0,21.2h7.4C71.6,83.3,71.7,63.6,71.6,62"/>
</svg>
