<?xml version="1.0" encoding="utf-8"?>
<!-- Generator: Adobe Illustrator 24.0.1, SVG Export Plug-In . SVG Version: 6.00 Build 0)  -->
<svg version="1.1" id="Слой_1" xmlns="http://www.w3.org/2000/svg" xmlns:xlink="http://www.w3.org/1999/xlink" x="0px" y="0px"
	 viewBox="0 0 200 120" style="enable-background:new 0 0 200 120;" xml:space="preserve">
<style type="text/css">
	.st0{display:none;fill-rule:evenodd;clip-rule:evenodd;fill:#FFFFFF;}
	.st1{fill-rule:evenodd;clip-rule:evenodd;fill:#CC2229;}
</style>
<g>
	<path class="st0" d="M48.2,8.2h103.5v103.5H48.2V8.2z"/>
	<path class="st1" d="M70.5,70.8H58.8v-7.3h-9.1v9c0,4.2,2.5,7,6.5,7h16.4c5.6,0,7.1-3.8,7.1-6.7V40.6h-9.2V70.8L70.5,70.8z
		 M100.3,65.1l-8.5-24.6h-9.8l13.4,38.9h9.9l12.9-38.9h-9.8L100.3,65.1L100.3,65.1z M150.2,55.4V49c0-7.8-2.5-8.4-9.2-8.4h-11.7
		c-7.9,0-9.4,1.3-9.4,8.5v21.8c0,6.9,3.2,8.7,9.4,8.7h14.5c4.6,0,6.4-3.1,6.4-7.1v-8.1h-9.2v6.5h-11.7V49h11.7v6.4H150.2z"/>
</g>
</svg>
