<svg width="200" height="120" viewBox="0 0 200 120" fill="none" xmlns="http://www.w3.org/2000/svg">
<g clip-path="url(#clip0_662_27)">
<path d="M140.514 51.5683L135.8 75.591C135.329 78.2955 132.657 80.5228 129.986 80.5228C127.314 80.5228 125.586 78.2955 126.057 75.591L130.771 51.5683H113.329C108.929 51.5683 104.529 53.1592 100.757 55.7046C98.0858 53.1592 94.3143 51.5683 89.9143 51.5683L86.9286 66.6819C89.2858 66.6819 90.8572 68.591 90.3858 70.9774L85.8286 94.3637H100.6L105.157 70.9774C105.629 68.591 107.514 65.8865 110.971 64.9319C114.271 64.1365 124.014 63.9774 124.014 63.9774C124.014 63.9774 114.429 66.3637 112.386 74.6365L112.229 75.4319C110.186 85.7728 116.786 94.2046 127 94.2046C137.214 94.2046 147.271 85.7728 149.314 75.4319L154.029 51.4092H140.514V51.5683Z" fill="#ED3A37"/>
<path d="M35.7002 54.1136L77.9716 56.9773L34.7573 59.0455L76.5573 61.75L33.8145 63.8182L68.3859 66.0455L62.8859 94.3636H77.8145L86.3002 51.25L35.7002 54.1136Z" fill="#ED3A37"/>
<path d="M79.5428 45.0455C84.7501 45.0455 88.9714 40.7719 88.9714 35.5C88.9714 30.2282 84.7501 25.9546 79.5428 25.9546C74.3356 25.9546 70.1143 30.2282 70.1143 35.5C70.1143 40.7719 74.3356 45.0455 79.5428 45.0455Z" fill="#ED3A37"/>
</g>
<rect x="0.5" y="0.5" width="199" height="119" stroke="black"/>
<defs>
<clipPath id="clip0_662_27">
<rect width="121" height="70" fill="white" transform="translate(33.5 25)"/>
</clipPath>
</defs>
</svg>
