<?xml version="1.0" encoding="utf-8"?>
<!-- Generator: Adobe Illustrator 24.0.1, SVG Export Plug-In . SVG Version: 6.00 Build 0)  -->
<svg version="1.1" id="Слой_1" xmlns="http://www.w3.org/2000/svg" xmlns:xlink="http://www.w3.org/1999/xlink" x="0px" y="0px"
	 viewBox="0 0 200 120" style="enable-background:new 0 0 200 120;" xml:space="preserve">
<style type="text/css">
	.st0{fill:#E60012;}
</style>
<path class="st0" d="M85.5,49.5c-3.2,0-6.9,1.5-9.1,4.5l0,0l0,0l0-4h-7.7V78h7.7V62c0-2.9,2.2-5.9,6.4-5.9c3.2,0,6.5,2.2,6.5,5.9v16
	h7.7V60.6C96.9,54.1,92.3,49.5,85.5,49.5 M151.7,49.9l-7,19.1l-7-19.1h-8.8l11.5,28h8.4l11.5-28L151.7,49.9z M45.7,58.4
	c1.3-1.8,3.4-2.8,5.9-2.8c2.8,0,4.9,1.6,6,3.9l-13.5,5.6C43.8,62.2,44.5,60,45.7,58.4 M60.5,69.4c-3.2,2.4-5.1,3-8.1,3
	c-2.7,0-4.7-0.8-6.2-2.3l19.7-8.2c-0.4-3-1.6-5.8-3.4-7.8c-2.6-3-6.4-4.6-11.1-4.6c-8.5,0-14.9,6.2-14.9,14.5
	c0,8.5,6.4,14.5,15.7,14.5c5.2,0,10.5-2.5,13-5.4L60.5,69.4z M35.9,70.9H18.4V41.5h-7.8V78h25.3V70.9z M174.3,56.1
	c-4.3,0-7.4,3.3-7.4,7.9c0,4.4,3.3,7.9,7.5,7.9c4.3,0,7.4-3.3,7.4-7.9C181.8,59.5,178.5,56.1,174.3,56.1 M174.3,78.5
	c-8.4,0-15-6.3-15-14.5c0-8.1,6.6-14.5,15.1-14.5c8.4,0,15,6.3,15,14.5C189.4,72.1,182.8,78.5,174.3,78.5 M115,56.1
	c-4.3,0-7.4,3.3-7.4,7.9c0,4.4,3.3,7.9,7.5,7.9c4.3,0,7.4-3.3,7.4-7.9C122.5,59.5,119.2,56.1,115,56.1 M115,78.5
	c-8.4,0-15-6.3-15-14.5c0-8.1,6.6-14.5,15.1-14.5c8.4,0,15,6.3,15,14.5C130.1,72.1,123.5,78.5,115,78.5"/>
</svg>
