<?xml version="1.0" encoding="utf-8"?>
<!-- Generator: Adobe Illustrator 24.0.1, SVG Export Plug-In . SVG Version: 6.00 Build 0)  -->
<svg version="1.1" id="Слой_1" xmlns="http://www.w3.org/2000/svg" xmlns:xlink="http://www.w3.org/1999/xlink" x="0px" y="0px"
	 viewBox="0 0 200 120" style="enable-background:new 0 0 200 120;" xml:space="preserve">
<style type="text/css">
	.st0{display:none;fill-rule:evenodd;clip-rule:evenodd;fill:#FFFFFF;}
	.st1{fill-rule:evenodd;clip-rule:evenodd;fill:#CC1B59;}
</style>
<g>
	<path class="st0" d="M16.8-23.2h166.4v166.4H16.8V-23.2z"/>
	<path class="st1" d="M119.2,45.9l-5.8,30.7h-12.1L95,60.8c-1.7,8.2-3.5,16.3-5.2,24.5c-0.1,0.4-0.5,0.4-0.5-0.1L97.2,43h1.6
		l6.3,15.8c2.4-11.3,5.1-23.8,5.1-24c0.1-0.4,0.5-0.4,0.5,0.1l-4.8,25.8l1,2.4c2-9.4,4-18.9,6-28.3c0.1-0.4,0.5-0.4,0.5,0.1
		l-5.7,30.3l0.9,2.2c2.6-12.2,6.9-32.2,6.9-32.6c0.1-0.4,0.5-0.4,0.5,0.1l-6.5,34.7l0.8,2.1c2.4-11,7.8-36.5,7.9-36.8
		c0.1-0.4,0.5-0.4,0.5,0.1L111.3,74l0.7,1.9c1.1-5.3,8.7-40.7,8.8-41.2c0.1-0.4,0.5-0.4,0.5,0.1l-1.5,8.1l8.8,0l4.2,12.6l8.5-12.6
		h11.2l-16.6,21.7l-2.5,12h-9l2.5-12.4L119.2,45.9L119.2,45.9z M29.2,65.3h-9.9c-1.2,8,4.9,12.1,13.7,12c10-0.1,14.6-2.1,16.6-10.8
		c1.4-9.7-10.4-10.4-13.1-11.1c-2-0.4-3.2-1.6-3-3.1c0.2-1.2,1.7-2.8,4.1-2.8c1.1,0,2,0.2,2.7,0.6c0.7,0.4,1.6,1.6,1.3,3.5h10.4
		c0.2-5.9-3.6-10.9-12.9-10.9c-8.4,0-14.8,3.1-16.1,10.2c-0.8,4.4,1.6,7.2,4.4,8.7c1.6,0.8,6.8,2.3,9.3,2.8c2.5,0.5,2.6,2.3,2.6,3.6
		c-0.6,2-2.9,2.9-5.6,2.9C30.8,70.7,28.4,68.2,29.2,65.3L29.2,65.3z M89.1,43l-7.9,42.2c-0.1,0.5,0.4,0.5,0.5,0.1
		c0.1-0.5,9-42.3,9-42.3L89.1,43L89.1,43z M91.8,43l-7.9,42.2c-0.1,0.5,0.4,0.5,0.5,0.1c0.1-0.5,9-42.3,9-42.3L91.8,43L91.8,43z
		 M94.4,43l-7.9,42.2c-0.1,0.5,0.4,0.5,0.5,0.1c0.1-0.5,9-42.3,9-42.3L94.4,43L94.4,43z M166.5,42c-10-0.1-17.3,4.8-20,17.2
		c-2.2,10.1,4.3,17.3,14.9,17.3c9.9,0,17-5.8,19-17.2C182,50.5,178,42.1,166.5,42z M170.4,59.3c-0.7,4.1-3.6,9.9-8.3,9.9
		c-6.1,0-6.2-5.7-5.5-9.9c0.8-5.1,3.7-10,8.7-10C170.2,49.1,171.2,54.8,170.4,59.3L170.4,59.3z M86.4,43l-5.4,28.6l-5.3-28.7
		L66.5,43L46.8,76.6h9.5l2.6-4.5H72v0l0.7,4.5h7.5l-1.6,8.6c-0.1,0.5,0.4,0.5,0.5,0.1c0.1-0.5,9-42.3,9-42.3L86.4,43L86.4,43z
		 M62.5,65.3l6.7-11.9L71,65.3H62.5z"/>
</g>
</svg>
