<svg width="200" height="120" viewBox="0 0 200 120" fill="none" xmlns="http://www.w3.org/2000/svg">
<g clip-path="url(#clip0_654_530)">
<path d="M116.733 71.2493C108.897 76.9191 97.5398 79.9441 87.7613 79.9441C74.0502 79.9441 61.7068 74.9658 52.3685 66.6859C51.6348 66.0348 52.2922 65.1474 53.1726 65.6545C63.2505 71.4107 75.7113 74.8736 88.583 74.8736C97.2639 74.8736 106.813 73.1104 115.594 69.4516C116.921 68.8985 118.03 70.3044 116.733 71.2493Z" fill="#FF9900"/>
<path d="M119.991 67.5905C118.993 66.3344 113.37 66.997 110.846 67.2909C110.077 67.3831 109.96 66.7262 110.652 66.2537C115.131 63.1596 122.479 64.0527 123.336 65.0898C124.193 66.1327 123.113 73.364 118.905 76.8154C118.259 77.3455 117.643 77.0631 117.93 76.3602C118.875 74.0439 120.994 68.8524 119.991 67.5905Z" fill="#FF9900"/>
<path d="M111.022 44.4102V41.4024C111.022 40.9472 111.374 40.6418 111.797 40.6418H125.513C125.954 40.6418 126.306 40.953 126.306 41.4024V43.978C126.3 44.4102 125.93 44.9748 125.273 45.8679L118.165 55.8303C120.806 55.767 123.594 56.153 125.989 57.4782C126.529 57.7779 126.676 58.2158 126.717 58.6479V61.8573C126.717 62.2952 126.224 62.808 125.707 62.543C121.487 60.3707 115.882 60.1345 111.216 62.566C110.74 62.8196 110.241 62.3125 110.241 61.8746V58.8265C110.241 58.3368 110.247 57.5013 110.746 56.758L118.981 45.165H111.814C111.374 45.165 111.022 44.8596 111.022 44.4102Z" fill="#221F1F"/>
<path d="M60.985 63.1769H56.8118C56.4127 63.1481 56.0958 62.8542 56.0664 62.4797V41.4543C56.0664 41.0337 56.4244 40.6995 56.8705 40.6995H60.762C61.167 40.7168 61.4898 41.0222 61.5191 41.4025V44.1509H61.5954C62.6108 41.4947 64.5184 40.2559 67.0892 40.2559C69.7011 40.2559 71.3328 41.4947 72.5067 44.1509C73.5163 41.4947 75.8112 40.2559 78.2705 40.2559C80.0196 40.2559 81.933 40.9646 83.1011 42.5549C84.4217 44.3238 84.1517 46.8936 84.1517 49.1465L84.1458 62.4163C84.1458 62.8369 83.7878 63.1769 83.3417 63.1769H79.1744C78.7577 63.1481 78.4231 62.8196 78.4231 62.4163V51.2727C78.4231 50.3854 78.5053 48.1728 78.3057 47.3315C77.9946 45.9199 77.0614 45.5223 75.8523 45.5223C74.8428 45.5223 73.7863 46.1849 73.3578 47.2451C72.9293 48.3053 72.9704 50.08 72.9704 51.2727V62.4163C72.9704 62.8369 72.6124 63.1769 72.1663 63.1769H67.999C67.5764 63.1481 67.2477 62.8196 67.2477 62.4163L67.2418 51.2727C67.2418 48.9276 67.6351 45.4762 64.671 45.4762C61.6717 45.4762 61.7891 48.8412 61.7891 51.2727V62.4163C61.7891 62.8369 61.4311 63.1769 60.985 63.1769Z" fill="#221F1F"/>
<path d="M138.115 40.2559C144.307 40.2559 147.659 45.4762 147.659 52.1139C147.659 58.527 143.955 63.6148 138.115 63.6148C132.034 63.6148 128.724 58.3945 128.724 51.8892C128.724 45.3437 132.076 40.2559 138.115 40.2559ZM138.15 44.5485C135.075 44.5485 134.881 48.6625 134.881 51.2266C134.881 53.7964 134.84 59.2818 138.115 59.2818C141.349 59.2818 141.502 54.8566 141.502 52.16C141.502 50.3854 141.426 48.265 140.88 46.5825C140.41 45.1189 139.477 44.5485 138.15 44.5485Z" fill="#221F1F"/>
<path d="M155.688 63.1769H151.533C151.116 63.1481 150.781 62.8196 150.781 62.4163L150.775 41.3852C150.811 40.9991 151.157 40.6995 151.579 40.6995H155.447C155.811 40.7168 156.111 40.9588 156.193 41.2872V44.5024H156.269C157.437 41.6272 159.075 40.2559 161.957 40.2559C163.829 40.2559 165.654 40.9185 166.828 42.7335C167.92 44.416 167.92 47.2451 167.92 49.2791V62.5143C167.873 62.883 167.527 63.1769 167.116 63.1769H162.931C162.549 63.1481 162.233 62.8715 162.191 62.5143V51.0941C162.191 48.7951 162.461 45.4301 159.58 45.4301C158.564 45.4301 157.631 46.0985 157.167 47.1126C156.58 48.3975 156.504 49.6766 156.504 51.0941V62.4163C156.498 62.8369 156.134 63.1769 155.688 63.1769Z" fill="#221F1F"/>
<path d="M100.087 53.1336V52.2462C97.0701 52.2462 93.883 52.88 93.883 56.3718C93.883 58.1407 94.8162 59.3392 96.4186 59.3392C97.5925 59.3392 98.6431 58.6305 99.3064 57.4781C100.128 56.0606 100.087 54.7296 100.087 53.1336ZM104.295 63.119C104.02 63.361 103.62 63.3783 103.309 63.217C101.924 62.0876 101.678 61.5633 100.915 60.4858C98.6255 62.7791 97.0056 63.4647 94.0356 63.4647C90.5257 63.4647 87.7905 61.3386 87.7905 57.0805C87.7905 53.7559 89.6277 51.4914 92.2396 50.3851C94.5052 49.4056 97.6688 49.2327 100.087 48.9619V48.4318C100.087 47.4581 100.163 46.3057 99.5822 45.4644C99.0716 44.7096 98.0973 44.3985 97.2403 44.3985C95.6497 44.3985 94.2293 45.1994 93.883 46.8588C93.8126 47.2276 93.5367 47.5906 93.1611 47.6079L89.1112 47.1815C88.7707 47.1066 88.3951 46.8358 88.489 46.323C89.4222 41.506 93.8537 40.054 97.8214 40.054C99.8522 40.054 102.505 40.5841 104.108 42.0937C106.138 43.9548 105.945 46.4382 105.945 49.1405V55.5248C105.945 57.4435 106.755 58.2847 107.518 59.3219C107.788 59.6907 107.846 60.1343 107.506 60.4109C106.655 61.1081 105.141 62.4045 104.307 63.1305L104.295 63.119Z" fill="#221F1F"/>
<path d="M45.378 53.1336V52.2462C42.3611 52.2462 39.174 52.88 39.174 56.3718C39.174 58.1407 40.1073 59.3392 41.7096 59.3392C42.8835 59.3392 43.9341 58.6305 44.5974 57.4781C45.4191 56.0606 45.378 54.7296 45.378 53.1336ZM49.5864 63.119C49.3106 63.361 48.9114 63.3783 48.6003 63.217C47.2152 62.0876 46.9686 61.5633 46.2056 60.4858C43.9165 62.7791 42.2966 63.4647 39.3266 63.4647C35.8167 63.4647 33.0815 61.3386 33.0815 57.0805C33.0815 53.7559 34.9187 51.4914 37.5306 50.3851C39.7962 49.4056 42.9598 49.2327 45.378 48.9619V48.4318C45.378 47.4581 45.4543 46.3057 44.8733 45.4644C44.3626 44.7096 43.3883 44.3985 42.5313 44.3985C40.9407 44.3985 39.5203 45.1994 39.174 46.8588C39.1036 47.2276 38.8277 47.5906 38.4521 47.6079L34.4022 47.1815C34.0617 47.1066 33.6861 46.8358 33.78 46.323C34.7132 41.506 39.1447 40.054 43.1124 40.054C45.1432 40.054 47.7962 40.5841 49.3986 42.0937C51.4294 43.9548 51.2357 46.4382 51.2357 49.1405V55.5248C51.2357 57.4435 52.0457 58.2847 52.8087 59.3219C53.0787 59.6907 53.1374 60.1343 52.797 60.4109C51.9459 61.1081 50.4316 62.4045 49.5982 63.1305L49.5864 63.119Z" fill="#221F1F"/>
</g>
<rect x="0.5" y="0.5" width="199" height="119" stroke="black"/>
<defs>
<clipPath id="clip0_654_530">
<rect width="135" height="40" fill="white" transform="translate(33 40)"/>
</clipPath>
</defs>
</svg>
