<?xml version="1.0" encoding="utf-8"?>
<!-- Generator: Adobe Illustrator 24.0.1, SVG Export Plug-In . SVG Version: 6.00 Build 0)  -->
<svg version="1.1" id="Слой_1" xmlns="http://www.w3.org/2000/svg" xmlns:xlink="http://www.w3.org/1999/xlink" x="0px" y="0px"
	 viewBox="0 0 200 120" style="enable-background:new 0 0 200 120;" xml:space="preserve">
<style type="text/css">
	.st0{display:none;fill-rule:evenodd;clip-rule:evenodd;fill:#FFFFFF;}
	.st1{fill-rule:evenodd;clip-rule:evenodd;fill:#CC2229;}
</style>
<g>
	<path class="st0" d="M6.5-33.5h186.9v186.9H6.5V-33.5z"/>
	<path class="st1" d="M186.2,66.5l-3.7,4.9h-25.9c-0.4-0.2-0.8-0.7-0.9-1.1V48.2h13.4v18.3H186.2L186.2,66.5z M51.7,53.3H41v18.5
		H27.3V53.6H17v-5.3h34.7V53.3z M124.9,49.5c0.7-0.8,1.4-1.2,2.4-1.3h12.5l13.7,23.5l-14.7,0l-2.8-4.6h-16.1l-2.8,4.4h-5.3
		L124.9,49.5L124.9,49.5z M127.4,54.5l-4.6,7.9H133c-1.3-2.7-3.1-5.2-4.5-7.9C128.2,54.2,127.7,54.1,127.4,54.5L127.4,54.5z
		 M55.8,71.7c-1.8,0-1.7-1-1.7-2.6V50.8c0-1.6-0.1-2.6,1.7-2.6h25.8v5.1h-14V58L80.3,58v4.7H67.6v4.1h15.7v4.9L55.8,71.7L55.8,71.7z
		 M116.8,48.2l-28,0c-1.8,0-1.7,1-1.7,2.6l0,20.8h13.7v-9.1h13.1v-4.6h-13.2v-4.7h16.1L116.8,48.2L116.8,48.2z M184.5,48.4
		c0.5,0,1,0.1,1.5,0.4c0.5,0.3,0.8,0.6,1.1,1.1c0.3,0.5,0.4,1,0.4,1.5c0,0.5-0.1,1-0.4,1.5c-0.3,0.5-0.6,0.8-1.1,1.1
		c-0.4,0.3-1,0.4-1.5,0.4c-0.5,0-1-0.1-1.5-0.4c-0.5-0.3-0.8-0.6-1.1-1.1c-0.3-0.4-0.4-1-0.4-1.5c0-0.5,0.1-1,0.4-1.5
		c0.3-0.5,0.6-0.8,1.1-1.1C183.5,48.6,184,48.4,184.5,48.4L184.5,48.4z M184.5,48.9c-0.4,0-0.8,0.1-1.2,0.3
		c-0.4,0.2-0.7,0.5-0.9,0.9c-0.2,0.4-0.3,0.8-0.3,1.2c0,0.4,0.1,0.8,0.3,1.2c0.2,0.4,0.5,0.7,0.9,0.9c0.4,0.2,0.8,0.3,1.2,0.3
		c0.4,0,0.8-0.1,1.2-0.3c0.4-0.2,0.7-0.5,0.9-0.9c0.4-0.8,0.4-1.7,0-2.5c-0.2-0.4-0.5-0.7-0.9-0.9C185.3,49,184.9,48.9,184.5,48.9z
		 M183.2,53v-3.2h1.1c0.4,0,0.6,0,0.8,0.1c0.2,0.1,0.3,0.2,0.4,0.3c0.1,0.1,0.1,0.3,0.1,0.5c0,0.2-0.1,0.4-0.3,0.6
		c-0.2,0.2-0.4,0.3-0.7,0.3c0.1,0,0.2,0.1,0.3,0.2c0.1,0.1,0.3,0.3,0.5,0.6l0.4,0.6h-0.6l-0.3-0.5c-0.2-0.4-0.4-0.6-0.5-0.7
		c-0.1-0.1-0.2-0.1-0.4-0.1h-0.3V53L183.2,53L183.2,53z M183.7,51.2h0.6c0.3,0,0.5,0,0.6-0.1c0.1-0.1,0.2-0.2,0.2-0.4
		c0-0.2-0.1-0.4-0.3-0.4c-0.1,0-0.3-0.1-0.5-0.1h-0.6V51.2z"/>
</g>
</svg>
