<?xml version="1.0" encoding="utf-8"?>
<!-- Generator: Adobe Illustrator 24.0.1, SVG Export Plug-In . SVG Version: 6.00 Build 0)  -->
<svg version="1.1" id="Слой_1" xmlns="http://www.w3.org/2000/svg" xmlns:xlink="http://www.w3.org/1999/xlink" x="0px" y="0px"
	 viewBox="0 0 200 120" style="enable-background:new 0 0 200 120;" xml:space="preserve">
<style type="text/css">
	.st0{display:none;fill-rule:evenodd;clip-rule:evenodd;fill:#FFFFFF;}
	.st1{fill-rule:evenodd;clip-rule:evenodd;fill:#CC212F;}
</style>
<g>
	<path class="st0" d="M-10.5-50.3h221v221h-221V-50.3z"/>
	<path class="st1" d="M41,67.2c-0.1,2.3-2.3,3.1-3.1,3.1h-8.3v-6.7h8.2C38.1,63.6,41,64.3,41,67.2L41,67.2z M50.4,68
		c0-7.2-5.5-8.3-5.5-8.3s4-1.9,4-6.7c0-7.9-6.7-10.2-9.4-10.2H21.1v34.8h19.6C44.3,77.5,50.4,73.8,50.4,68L50.4,68z M39.8,53.3
		c0,2.2-2.1,3.3-2.8,3.3h-7.4V50h6.7C37.1,50,39.8,50.8,39.8,53.3L39.8,53.3z M76.8,60.1c0,5-2.8,9.9-7.7,9.9
		c-4.9,0-7.7-4.9-7.7-9.9c0-4.8,2.8-9.6,7.7-9.5C74,50.6,76.8,55.5,76.8,60.1z M85.4,60.1c0-9.6-6.5-17.8-16.2-17.8
		c-9.9,0-16.5,8.2-16.5,17.8c0.1,9.9,6.6,18.4,16.5,18.4C78.9,78.5,85.6,70.1,85.4,60.1z M115.2,67.1c0-14.1-19.1-8.2-18-14.8
		c0.4-2.5,3-2.8,5.2-2.8c3.8,0,6.4,3,6.4,3L114,47c-3.9-3.6-6.7-5.2-12.2-5.2c-7,0-13.5,4.4-13.5,11.6c0,10.1,11.1,10.1,15,11.3
		c2.3,0.6,3,1.3,2.8,2.8c0,1.7-2.7,3.3-4.5,3.3c-4,0.3-6.3-1.8-9.1-4.5L87.2,72c4.8,4.7,9.1,6.5,14.4,6.3
		C108.5,78.2,115.2,74.3,115.2,67.1L115.2,67.1z M147.8,70.2l-7-4.4c0,0-2.8,4.3-6.1,4.3c-5.2,0.1-8-5-8-10.1c0-5,2.6-9.4,7.5-9.4
		c2.8,0,4.8,1.7,6.1,4l6.7-4.4c-1.1-1.7-3.8-7.8-12.3-8.1C125.4,42,118,50.6,118,60c0,10.1,6,18,17,18
		C140.5,78.2,144.9,74.6,147.8,70.2z M178.9,77.5V42.8h-8.7v13h-10.6v-13h-8.9v34.8h8.7v-14h10.8v13.9H178.9z"/>
</g>
</svg>
