<?xml version="1.0" encoding="utf-8"?>
<!-- Generator: Adobe Illustrator 24.0.1, SVG Export Plug-In . SVG Version: 6.00 Build 0)  -->
<svg version="1.1" id="Слой_1" xmlns="http://www.w3.org/2000/svg" xmlns:xlink="http://www.w3.org/1999/xlink" x="0px" y="0px"
	 viewBox="0 0 200 120" style="enable-background:new 0 0 200 120;" xml:space="preserve">
<style type="text/css">
	.st0{fill:#60BED4;}
</style>
<g>
	<path class="st0" d="M122,67.7h-12.9V46.3h-5.5v26.4H122V67.7z M167.3,51v0.5h8.2v21.3h5.5V51.4h8.2V51v-4.7h-21.9V51L167.3,51z
		 M196.7,51c-0.5,0.5-1.3,0.9-2.1,0.9c-0.8,0-1.5-0.3-2.1-0.9c-0.5-0.5-0.8-1.3-0.8-2.1c0-0.8,0.3-1.6,0.8-2.1
		c0.5-0.5,1.2-0.8,2.1-0.8c0.8,0,1.5,0.3,2.1,0.9c0.5,0.5,0.8,1.3,0.8,2.1C197.5,49.7,197.2,50.4,196.7,51 M197.3,46.2
		c-0.7-0.7-1.6-1.1-2.7-1.1c-1,0-2,0.5-2.7,1.1c-0.7,0.7-1.1,1.6-1.1,2.7c0,1.1,0.4,2,1.1,2.7c0.7,0.7,1.6,1.1,2.7,1.1
		c1,0,2-0.5,2.7-1.1s1.1-1.6,1.1-2.7C198.3,47.8,197.9,46.9,197.3,46.2 M195.2,48.6c-0.2,0.2-0.4,0.2-0.6,0.2h-0.8v-1.3h0.8
		c0.3,0,0.6,0.1,0.7,0.3c0.1,0.2,0.1,0.2,0.1,0.3C195.4,48.3,195.3,48.4,195.2,48.6 M195.9,49c0.2-0.2,0.4-0.5,0.4-0.9
		c0-0.2-0.1-0.4-0.2-0.6c-0.3-0.5-0.9-0.8-1.5-0.8H193v4.1h0.8v-1.3h0.8l0.9,1.4h1l-1.1-1.5C195.7,49.3,195.8,49.1,195.9,49
		 M152.3,72.7h5.5V51.4h8.2V51v-4.7h-21.9V51v0.5h8.2V72.7L152.3,72.7z M8.7,53.2c0-3.3,4.6-2.7,6.6-2.2c1.5,0.4,3.5,1,4.8,1.9
		l0.1,0.1l2.5-4.1l-0.1-0.1c-2.1-1.7-4.8-2.6-7.4-3c-3.6-0.5-8.5,0-10.9,3.1c-1,1.2-1.5,2.8-1.5,4.4c0,9.7,14.5,7.5,14.5,11.7
		c0,0.8-0.2,1.6-0.8,2.2c-1.6,1.8-5.1,1.5-7.2,0.8c-1.6-0.5-3.5-1.2-4.8-2.4l-0.1-0.1l-2.8,4.3l0.1,0.1c4.5,3.9,12.4,5.1,17.5,1.8
		c2.4-1.5,3.9-3.9,3.9-6.7C23.2,55.6,8.7,58,8.7,53.2 M124.1,72.7h19.1v-5h-13.6v-5.8h6.8v-5.2h-6.8v-5.4h13.3v-5.1h-18.8v10.5h-6.4
		v5.1h6.4L124.1,72.7L124.1,72.7z M45.4,66.3c-1.9,1.3-3.9,2.1-6.3,2.1c-5.3,0-9-3.5-9-9s3.7-9,9-9c2.1,0,4.3,0.8,6,1.9l0,0l2.5-4.2
		l0,0c-2.5-1.8-5.8-2.8-8.9-2.8c-8.1,0-14.3,5.5-14.3,14s6.1,14,14.3,14c3.1,0,6.6-1,9.1-3.1l0.2-0.2L45.4,66.3L45.4,66.3z
		 M58.1,62.6l4.2-10.3l4.2,10.3H58.1z M70.5,72.7h5.9L65.6,46.3h-6.7L48.2,72.7h5.9l2-5.1h12.4L70.5,72.7z M92.4,57.7
		c-1.1,0.9-2.5,1.3-3.8,1.3h-5.1v-8h5.1c1.8,0,3.8,0.5,4.7,2.1c0.3,0.5,0.4,1.1,0.4,1.8C93.7,56.1,93.1,57,92.4,57.7 M94.6,62.6
		c0.8-0.4,1.6-0.9,2.3-1.6c1.7-1.6,2.5-3.6,2.5-6c0-1.4-0.3-2.7-0.9-3.9c-1.9-3.7-6.1-4.8-9.9-4.8H78v26.4h5.5v-8.8H89l6.1,8.8h6.4
		L94.6,62.6z"/>
</g>
</svg>
