<?xml version="1.0" encoding="utf-8"?>
<!-- Generator: Adobe Illustrator 24.0.1, SVG Export Plug-In . SVG Version: 6.00 Build 0)  -->
<svg version="1.1" id="Слой_1" xmlns="http://www.w3.org/2000/svg" xmlns:xlink="http://www.w3.org/1999/xlink" x="0px" y="0px"
	 viewBox="0 0 200 120" style="enable-background:new 0 0 200 120;" xml:space="preserve">
<style type="text/css">
	.st0{fill:#21BBEF;}
</style>
<path class="st0" d="M15.8,61.4L16,47.7l1.3-1.3l1.3-1.3L37.2,45c18.1-0.1,18.6-0.1,19.7,0.6c0.7,0.4,1.4,1.3,1.8,2.2
	c0.6,1.4,0.7,2.4,0.7,14.4l0,13h-6.3V63c0-10.6-0.1-12.2-0.5-12.7c-0.5-0.5-1.5-0.5-6.3-0.5h-5.7v25.4h-5.9V49.8h-5.9
	c-5.2,0-5.9,0.1-6.4,0.6c-0.5,0.6-0.6,2-0.6,12.7v12.1h-3l-3,0L15.8,61.4L15.8,61.4z M68.1,74.5c-0.6-0.4-1.4-1.2-1.8-1.8
	c-0.7-1.1-0.7-1.8-0.7-12.6c0-10.9,0-11.6,0.7-12.6c0.4-0.6,1.2-1.4,1.8-1.8c1.1-0.7,1.8-0.7,14.8-0.7l13.7,0v4.9h-24l-0.5,0.8
	c-0.4,0.6-0.5,1.6-0.5,3.8v3.1l11.9,0.1l11.9,0.1v4.9l-11.9,0.1l-11.9,0.1v3.1c0,2.2,0.2,3.3,0.5,3.8l0.5,0.8h24v4.9l-13.7,0
	C69.9,75.2,69.2,75.1,68.1,74.5L68.1,74.5z M103.2,60V44.9h6.3v30.3h-6.3V60z M116.6,74.7c-1.2-0.8-1.7-2.4-1.2-3.8
	c0.4-1.2,1.7-2.5,14.1-13.4c2.7-2.4,5.7-5.1,6.7-6l1.9-1.7h-22v-4.9H144l1,1c1.2,1.2,1.4,3,0.3,4.3c-0.4,0.5-4.7,4.4-9.5,8.7
	c-4.8,4.3-9.6,8.6-10.7,9.6l-1.9,1.8l11.2,0l11.2,0v4.9h-14.2C119.6,75.2,117.2,75.1,116.6,74.7L116.6,74.7z M153.7,74.4
	c-2.4-1.6-2.4-1.7-2.4-16.4l0-13.1h5.9v12c0,11.5,0,12,0.7,12.7c0.7,0.7,1.2,0.7,10,0.7c8.6,0,9.4-0.1,9.9-0.6
	c0.5-0.6,0.6-2,0.6-12.7V44.9h5.9v13.4c0,12.9,0,13.5-0.7,14.6c-1.4,2.2-1.6,2.3-15.9,2.3C154.9,75.2,154.8,75.2,153.7,74.4
	L153.7,74.4z"/>
</svg>
