<?xml version="1.0" encoding="utf-8"?>
<!-- Generator: Adobe Illustrator 24.0.1, SVG Export Plug-In . SVG Version: 6.00 Build 0)  -->
<svg version="1.1" id="Layer_1" xmlns="http://www.w3.org/2000/svg" xmlns:xlink="http://www.w3.org/1999/xlink" x="0px" y="0px"
	 viewBox="0 0 200 120" style="enable-background:new 0 0 200 120;" xml:space="preserve">
<style type="text/css">
	.st0{fill:#3780FF;}
	.st1{fill:#38B137;}
	.st2{fill:#FA3913;}
	.st3{fill:#FCBD06;}
</style>
<path class="st0" d="M36.4,32.6h1.5c5.2,0.1,10.3,2.2,14,5.9c-1.4,1.4-2.7,2.7-4.1,4.1c-2.1-1.9-4.6-3.3-7.3-3.8
	c-4-0.8-8.3-0.1-11.7,2.2c-3.7,2.4-6.2,6.5-6.7,10.8c-0.6,4.3,0.6,8.8,3.4,12.2c2.7,3.3,6.8,5.3,11,5.4c4,0.2,8.1-1,11-3.8
	c2.3-2,3.3-4.9,3.7-7.8c-4.7,0-9.4,0-14.1,0V52H57c1,6.3-0.5,13.3-5.2,17.8c-3.2,3.2-7.6,5-12,5.4c-4.3,0.4-8.8-0.4-12.6-2.5
	c-4.6-2.5-8.3-6.6-10.1-11.5c-1.7-4.5-1.7-9.6-0.1-14.1c1.4-4.1,4.2-7.8,7.8-10.3C28,34.2,32.2,32.8,36.4,32.6z"/>
<path class="st1" d="M149.9,34h6.1v40.4c-2,0-4,0-6.1,0C149.9,61,149.9,47.5,149.9,34L149.9,34z"/>
<path class="st2" d="M70.4,48c3.7-0.7,7.8,0.1,10.9,2.3c2.8,2,4.8,5.1,5.3,8.5c0.8,3.9-0.2,8.2-2.7,11.3c-2.7,3.5-7.2,5.3-11.6,5.1
	c-4-0.2-7.9-2.2-10.3-5.5c-2.7-3.6-3.3-8.6-1.9-12.8C61.6,52.3,65.7,48.9,70.4,48 M71.3,53.4c-1.5,0.4-2.9,1.3-4,2.5
	c-2.7,3.3-2.6,8.6,0.5,11.7c1.7,1.8,4.3,2.6,6.7,2.1c2.2-0.4,4.2-1.9,5.3-3.9c1.9-3.4,1.3-8-1.5-10.6C76.4,53.5,73.7,52.8,71.3,53.4
	L71.3,53.4z"/>
<path class="st3" d="M100.4,48c4.3-0.8,8.9,0.4,12.1,3.4c5.2,4.7,5.8,13.4,1.3,18.8c-2.7,3.4-7,5.3-11.3,5.1
	c-4.1-0.1-8.2-2.2-10.6-5.5c-2.7-3.7-3.3-8.8-1.8-13.1C91.7,52.2,95.8,48.8,100.4,48 M101.3,53.4c-1.5,0.4-2.9,1.3-4,2.5
	c-2.7,3.2-2.6,8.5,0.3,11.6c1.7,1.8,4.4,2.7,6.9,2.2c2.2-0.4,4.2-1.9,5.3-3.9c1.8-3.4,1.3-8-1.6-10.7
	C106.4,53.5,103.7,52.8,101.3,53.4L101.3,53.4z"/>
<path class="st0" d="M125.9,49.7c3.3-2,7.6-2.6,11.1-0.8c1.1,0.5,2,1.3,2.9,2.1c0-0.8,0-1.6,0-2.3c1.9,0,3.8,0,5.7,0v25
	c0,3.8-1,7.8-3.7,10.5c-3,3-7.5,4-11.6,3.3c-4.4-0.7-8.2-3.8-9.9-7.9c1.7-0.8,3.5-1.5,5.2-2.2c1,2.3,3,4.3,5.5,4.8
	c2.5,0.5,5.4-0.2,7.1-2.3c1.8-2.2,1.8-5.1,1.7-7.7c-1.3,1.3-2.8,2.4-4.6,2.8c-3.9,1.1-8.3-0.3-11.3-2.9c-3.1-2.7-4.9-6.8-4.7-10.8
	C119.3,56.5,121.9,52.1,125.9,49.7 M131.7,53.3c-1.7,0.3-3.3,1.2-4.4,2.6c-2.7,3.2-2.7,8.2,0,11.3c1.5,1.8,4,2.9,6.4,2.6
	c2.2-0.2,4.3-1.6,5.4-3.6c1.9-3.3,1.6-7.8-1-10.7C136.6,53.8,134.1,52.9,131.7,53.3L131.7,53.3z"/>
<path class="st2" d="M163.2,51.1c3.4-3.2,8.6-4.2,13-2.6c4.1,1.6,6.8,5.5,8.1,9.5c-6.1,2.5-12.3,5.1-18.4,7.6
	c0.8,1.6,2.2,3.1,3.9,3.7c2.5,0.9,5.4,0.6,7.5-1.1c0.8-0.6,1.5-1.4,2.1-2.2c1.6,1,3.1,2.1,4.7,3.1c-2.2,3.3-5.9,5.6-9.9,6
	c-4.4,0.5-9.1-1.2-12-4.6C157.5,65.1,158,56,163.2,51.1 M166.3,56.4c-1,1.4-1.4,3.1-1.3,4.8c4.1-1.7,8.2-3.4,12.3-5.1
	c-0.7-1.6-2.3-2.5-4-2.8C170.6,52.7,167.8,54.2,166.3,56.4z"/>
</svg>
