<svg width="200" height="120" viewBox="0 0 200 120" fill="none" xmlns="http://www.w3.org/2000/svg">
<path d="M79.8015 40.519V78.481H72.8583L56.317 54.5879H56.0386V78.481H48V40.519H55.0546L71.4659 64.3935H71.8001V40.519H79.8015Z" fill="black"/>
<path d="M86.4431 78.481V40.519H112.062V47.1364H94.4816V56.182H110.744V62.7994H94.4816V71.8636H112.137V78.481H86.4431Z" fill="black"/>
<path d="M152 53.8094H143.869C143.72 52.759 143.417 51.826 142.959 51.0105C142.501 50.1825 141.913 49.4781 141.195 48.8973C140.477 48.3165 139.648 47.8717 138.708 47.5627C137.779 47.2538 136.771 47.0993 135.682 47.0993C133.714 47.0993 132 47.5875 130.539 48.5637C129.079 49.5276 127.946 50.9363 127.142 52.7899C126.337 54.6312 125.935 56.8679 125.935 59.5C125.935 62.2063 126.337 64.48 127.142 66.3213C127.959 68.1625 129.097 69.5528 130.558 70.4919C132.018 71.4311 133.707 71.9007 135.626 71.9007C136.703 71.9007 137.699 71.7586 138.615 71.4743C139.543 71.1901 140.366 70.7761 141.084 70.2324C141.802 69.6763 142.396 69.0029 142.866 68.212C143.349 67.4211 143.683 66.519 143.869 65.5057L152 65.5428C151.79 67.2852 151.264 68.9658 150.422 70.5846C149.593 72.1911 148.473 73.6307 147.062 74.9035C145.663 76.164 143.992 77.1649 142.049 77.9064C140.119 78.6355 137.934 79 135.496 79C132.105 79 129.072 78.2338 126.399 76.7015C123.738 75.1692 121.634 72.951 120.087 70.0471C118.552 67.1431 117.785 63.6274 117.785 59.5C117.785 55.3603 118.565 51.8384 120.124 48.9344C121.684 46.0304 123.8 43.8184 126.473 42.2985C129.147 40.7662 132.154 40 135.496 40C137.699 40 139.741 40.3089 141.622 40.9268C143.516 41.5447 145.193 42.4468 146.653 43.6331C148.114 44.807 149.302 46.2467 150.218 47.952C151.146 49.6573 151.74 51.6098 152 53.8094Z" fill="black"/>
<rect x="0.5" y="0.5" width="199" height="119" stroke="black"/>
</svg>
