<?xml version="1.0" encoding="utf-8"?>
<!-- Generator: Adobe Illustrator 24.0.1, SVG Export Plug-In . SVG Version: 6.00 Build 0)  -->
<svg version="1.1" id="Слой_1" xmlns="http://www.w3.org/2000/svg" xmlns:xlink="http://www.w3.org/1999/xlink" x="0px" y="0px"
	 viewBox="0 0 200 120" style="enable-background:new 0 0 200 120;" xml:space="preserve">
<style type="text/css">
	.st0{fill:#0D723A;}
</style>
<g>
	<path class="st0" d="M170.6,59.2h6.1l1.5-7.1h-6.1l1.6-7.8h-9L160,66.9c-0.3,1.3-0.4,2.3-0.4,3.2c0,1.1,0.5,2.1,1.3,3
		c0.7,0.8,1.5,1.4,2.3,1.7c0.8,0.3,1.8,0.5,2.9,0.5h7l1.4-6.8H171c-0.9,0-1.6-0.2-1.9-0.4c-0.1-0.1-0.3-0.3-0.2-0.9L170.6,59.2z
		 M20.7,44.1l-1.5,7.5h9.8l1.6-7.5H20.7z M41.9,56.9l0.7-3H32.6l-4.5,21.2h10l2.3-10.9h9.9l6,10.9h11.2l-6.9-12.2
		c1.1-0.6,2.2-1.4,3.2-2.2c1.3-1.1,2.9-3.6,3.4-5.8c0.6-3,0.1-5.5-1.6-7.6c-1.9-2.3-5.5-3.1-8-3.1h-23l-1.6,7.5h11.1l8.2,0
		c1.6,0,2.8,0.3,3.5,0.8c0.4,0.3,0.7,0.7,0.5,1.6c-0.2,0.8-0.8,1.5-2,2.1c-1.1,0.6-2.3,0.8-3.5,0.8H41.9z M18.7,53.9l-4.5,21.2H24
		l4.4-21.2H18.7z"/>
	<path class="st0" d="M86.1,63.1c-0.4,1.9-1.2,3.4-2.3,4.4c-1.1,1-2.5,1.5-4.4,1.5c-1.5,0-2.6-0.4-3.4-1.4c-0.7-0.9-0.9-2.2-0.6-3.8
		c0.3-1.5,1-2.6,2.2-3.6c1.2-1,2.6-1.4,4.2-1.4c1.7,0,2.8,0.4,3.5,1.2C86.2,60.9,86.4,61.9,86.1,63.1 M93.8,54.9
		c-2.3-2-5.8-3.1-10.2-3.1c-3.9,0-7.5,0.9-10.6,2.7c-3.6,2.1-5.8,4.9-6.6,8.5c-0.9,4.4,0.1,7.8,2.9,10.1c2.3,1.8,5.8,2.8,10.2,2.8
		c4.1,0,7.7-0.9,10.6-2.7c3.2-2,5.3-4.8,6-8.3l0.3-1.2C97.2,60,96.3,57,93.8,54.9 M149.4,63.1c-0.4,1.9-1.2,3.3-2.3,4.4
		c-1.1,1-2.5,1.5-4.4,1.5c-1.5,0-2.6-0.4-3.4-1.4c-0.7-0.9-0.9-2.2-0.6-3.8c0.3-1.5,1-2.6,2.2-3.6c1.2-1,2.6-1.4,4.2-1.4
		c1.6,0,2.8,0.4,3.5,1.2C149.5,60.9,149.7,61.9,149.4,63.1 M156.5,54.9c-2.3-2-5.8-3.1-10.2-3.1c-3.9,0-7.5,0.9-10.6,2.7
		c-3.6,2.1-5.8,4.9-6.6,8.5c-0.9,4.4,0.1,7.8,2.9,10.1c2.3,1.8,5.8,2.8,10.2,2.8c4.1,0,7.7-0.9,10.6-2.7c3.2-2,5.3-4.8,6-8.3
		l0.2-1.2C159.8,60,159,57,156.5,54.9 M117.9,63.1c-0.4,1.9-1.2,3.4-2.3,4.4c-1.1,1-2.5,1.5-4.4,1.5c-1.5,0-2.6-0.4-3.4-1.4
		c-0.2-0.2-0.2-0.5-0.2-1.2c0-1.1,0.7-4.1,1-4.8c0.3-0.7,0.4-1,0.8-1.3c1.2-1,2.6-1.4,4.2-1.4c1.7,0,2.8,0.4,3.5,1.2
		C117.9,60.9,118.1,61.9,117.9,63.1 M124.9,54.9c-2.4-2-5.8-3-10.2-3c-1.7,0-3.3,0.2-4.9,0.5l1.9-8.3h-9.6l-3.5,16
		c-0.1,0.5-1.1,5.4-1.1,7.3c0,2.3,1.1,4.4,2.9,5.8c2.3,1.8,5.8,2.8,10.2,2.8c4.1,0,7.7-0.9,10.6-2.7c3.2-2,5.3-4.8,6-8.3l0,0
		C127.3,64.7,128.9,58.1,124.9,54.9 M181.9,48.3c-0.4,0.4-1,0.7-1.6,0.7c-0.6,0-1.1-0.2-1.6-0.7c-0.4-0.4-0.7-1-0.6-1.6
		c0-0.6,0.2-1.1,0.6-1.6c0.4-0.4,1-0.7,1.6-0.7c0.6,0,1.1,0.2,1.6,0.7c0.4,0.4,0.6,0.9,0.6,1.6C182.5,47.4,182.3,47.9,181.9,48.3
		 M182.1,45c-0.5-0.5-1.1-0.8-1.8-0.8c-0.7,0-1.3,0.3-1.8,0.8c-0.5,0.5-0.8,1.1-0.8,1.8c0,0.7,0.3,1.3,0.8,1.8
		c0.5,0.5,1.1,0.8,1.8,0.8c0.7,0,1.3-0.3,1.8-0.8c0.5-0.5,0.8-1.1,0.8-1.8C182.9,46.1,182.6,45.5,182.1,45"/>
	<path class="st0" d="M180.4,46.6h-0.8v-1h0.8c0.2,0,0.3,0,0.4,0.1c0.1,0.1,0.2,0.2,0.2,0.3s-0.1,0.3-0.2,0.4
		C180.7,46.6,180.6,46.6,180.4,46.6 M180.9,46.9c0.2-0.1,0.3-0.2,0.4-0.3c0.1-0.1,0.1-0.3,0.1-0.5c0-0.2-0.1-0.4-0.3-0.6
		c-0.2-0.2-0.4-0.3-0.8-0.3h-1.3v3h0.4V47h0.8l0.6,1.3h0.5L180.9,46.9z"/>
</g>
</svg>
