<?xml version="1.0" encoding="utf-8"?>
<!-- Generator: Adobe Illustrator 24.0.1, SVG Export Plug-In . SVG Version: 6.00 Build 0)  -->
<svg version="1.1" id="Слой_1" xmlns="http://www.w3.org/2000/svg" xmlns:xlink="http://www.w3.org/1999/xlink" x="0px" y="0px"
	 viewBox="0 0 200 120" style="enable-background:new 0 0 200 120;" xml:space="preserve">
<style type="text/css">
	.st0{fill:none;}
	.st1{fill-rule:evenodd;clip-rule:evenodd;fill:#009999;}
</style>
<g id="BoundingBox">
	<polygon class="st0" points="-400,139.5 600,139.5 600,-19.5 -400,-19.5 -400,-19.5 	"/>
</g>
<g id="SIEMENS">
	<g>
		<path class="st1" d="M11.5,72.6v-5.4c3,1,5.7,1.4,8.1,1.4c3.2,0,4.9-0.9,4.9-2.6c0-0.6-0.2-1.2-0.7-1.6c-0.5-0.5-1.7-1.1-3.7-1.9
			c-3.6-1.5-5.9-2.7-7-3.8c-1.4-1.4-2.1-3.1-2.1-5.2c0-2.7,1-4.7,3.1-6.1c2-1.4,4.7-2.1,7.9-2.1c1.8,0,4.4,0.3,7.8,1v5.2
			c-2.5-1-4.9-1.5-7-1.5c-3,0-4.6,0.8-4.6,2.5c0,0.6,0.3,1.1,0.9,1.5c0.5,0.3,1.9,1,4.2,2c3.3,1.5,5.5,2.7,6.6,3.8c1.3,1.3,2,3,2,5
			c0,2.9-1.3,5.2-3.8,6.7c-2.1,1.3-4.8,1.9-8,1.9C17.2,73.6,14.4,73.3,11.5,72.6L11.5,72.6z"/>
		<polygon class="st1" points="36.1,46 36.1,46 43.7,46 43.7,73.1 36.1,73.1 		"/>
		<polygon class="st1" points="50.6,73.1 50.6,46 70,46 70,50.9 57.9,50.9 57.9,57 68.5,57 68.5,61.5 57.9,61.5 57.9,67.9 
			70.4,67.9 70.4,73.1 		"/>
		<polygon class="st1" points="75.3,73.1 75.3,46 85.1,46 91.9,63.3 98.9,46 108.3,46 108.3,73.1 101.1,73.1 101.1,53.9 93.1,73.4 
			88.4,73.4 80.6,53.9 80.6,73.1 		"/>
		<polygon class="st1" points="115.2,73.1 115.2,46 134.6,46 134.6,50.9 122.5,50.9 122.5,57 133.1,57 133.1,61.5 122.5,61.5 
			122.5,67.9 134.9,67.9 134.9,73.1 		"/>
		<polygon class="st1" points="139.9,73.1 139.9,46 148.7,46 158,64.1 158,46 163.4,46 163.4,73.1 154.8,73.1 145.3,54.7 
			145.3,73.1 		"/>
		<path class="st1" d="M168.7,72.6v-5.4c3,1,5.7,1.4,8.1,1.4c3.2,0,4.9-0.9,4.9-2.6c0-0.6-0.2-1.2-0.7-1.6c-0.5-0.5-1.7-1.1-3.7-1.9
			c-3.6-1.5-5.9-2.7-7-3.8c-1.4-1.4-2.1-3.1-2.1-5.2c0-2.7,1-4.7,3.1-6.1c2-1.4,4.7-2.1,7.9-2.1c1.8,0,4.2,0.3,7.1,0.9l0.7,0.1v5.2
			c-2.5-1-4.9-1.5-7-1.5c-3,0-4.5,0.8-4.5,2.5c0,0.6,0.3,1.1,0.9,1.5c0.5,0.3,1.9,1,4.2,2c3.3,1.5,5.5,2.7,6.6,3.8c1.3,1.3,2,3,2,5
			c0,2.9-1.3,5.2-3.8,6.7c-2.1,1.3-4.8,1.9-8.1,1.9C174.4,73.6,171.6,73.3,168.7,72.6L168.7,72.6z"/>
	</g>
</g>
</svg>
