<?xml version="1.0" encoding="utf-8"?>
<!-- Generator: Adobe Illustrator 24.0.1, SVG Export Plug-In . SVG Version: 6.00 Build 0)  -->
<svg version="1.1" id="Слой_1" xmlns="http://www.w3.org/2000/svg" xmlns:xlink="http://www.w3.org/1999/xlink" x="0px" y="0px"
	 viewBox="0 0 200 120" style="enable-background:new 0 0 200 120;" xml:space="preserve">
<style type="text/css">
	.st0{fill:#231F20;}
</style>
<title>logo_blue</title>
<path class="st0" d="M18.6,70H14V44.6h4.6v8c0.5-0.4,1.1-0.7,1.7-0.9c0.6-0.2,1.2-0.3,1.8-0.3c1.1,0,2.2,0.2,3.2,0.6
	c1,0.4,1.8,1,2.6,1.8c0.7,0.7,1.3,1.6,1.7,2.6c0.4,1,0.6,2,0.6,3.1V70h-4.7V59.5l0,0c0-0.5-0.1-0.9-0.3-1.3c-0.4-0.9-1-1.5-1.9-1.9
	C23,56.1,22.5,56,22.1,56c-0.5,0-0.9,0.1-1.4,0.3c-0.9,0.4-1.5,1-1.9,1.9c-0.2,0.4-0.2,0.9-0.2,1.3V70z"/>
<path class="st0" d="M39,46.9c0,0.4-0.1,0.8-0.2,1.2c-0.2,0.4-0.4,0.7-0.7,0.9c-0.3,0.3-0.6,0.5-0.9,0.7c-0.8,0.3-1.6,0.3-2.4,0
	c-0.4-0.2-0.7-0.4-0.9-0.7c-0.3-0.3-0.5-0.6-0.7-0.9c-0.3-0.8-0.3-1.6,0-2.4c0.3-0.7,0.9-1.3,1.6-1.6c0.8-0.3,1.6-0.3,2.4,0
	c0.4,0.2,0.7,0.4,0.9,0.7c0.3,0.3,0.5,0.6,0.7,0.9C38.9,46,39,46.5,39,46.9z M38.2,70h-4.7V51.8h4.7L38.2,70z"/>
<path class="st0" d="M59.3,67.7c0,1.2-0.2,2.5-0.7,3.6c-0.5,1.1-1.1,2.1-2,2.9c-0.9,0.8-1.9,1.5-3,2c-1.1,0.5-2.4,0.7-3.6,0.7h-2.3
	v-4.7H50c0.6,0,1.3-0.1,1.9-0.3c0.9-0.3,1.7-1,2.1-1.9c0.2-0.4,0.4-0.9,0.5-1.3c-0.2,0.3-0.5,0.6-0.8,0.7c-0.4,0.2-0.7,0.3-1.1,0.5
	c-0.4,0.1-0.9,0.2-1.3,0.2c-0.4,0-0.9,0.1-1.2,0.1c-1.2,0-2.5-0.2-3.6-0.7c-2.3-0.9-4.1-2.6-4.9-4.9c-0.5-1.3-0.8-2.6-0.7-4
	c0-1.3,0.2-2.6,0.7-3.8c0.4-1.1,1.1-2.1,1.9-3c0.8-0.9,1.8-1.5,3-2c1.1-0.5,2.4-0.7,3.6-0.7c0.6,0,1.2,0.1,1.7,0.2
	c0.6,0.1,1.1,0.3,1.7,0.6c0.5,0.3,1.1,0.6,1.6,0.9c0.5,0.3,0.9,0.7,1.4,1.1l1.8-2.1h1.2V67.7z M54.6,60.7c0-0.6-0.1-1.3-0.4-1.8
	c-0.2-0.6-0.5-1.1-0.9-1.6c-0.4-0.5-0.9-0.8-1.5-1.1c-0.6-0.3-1.2-0.4-1.8-0.4c-0.6,0-1.2,0.1-1.8,0.3c-0.5,0.2-1,0.5-1.5,0.9
	c-0.4,0.4-0.7,1-0.9,1.6c-0.2,0.7-0.4,1.4-0.4,2.1c0,0.7,0.1,1.4,0.4,2c0.2,0.6,0.5,1.1,0.9,1.6c0.4,0.4,0.9,0.7,1.5,0.9
	c0.6,0.2,1.2,0.4,1.8,0.4c0.6,0,1.2-0.1,1.8-0.4c0.6-0.3,1.1-0.6,1.5-1.1c0.4-0.5,0.7-1,0.9-1.6C54.4,62,54.6,61.3,54.6,60.7z"/>
<path class="st0" d="M67.4,70h-4.6V44.6h4.6v8c0.5-0.4,1.1-0.7,1.7-0.9c0.6-0.2,1.2-0.3,1.8-0.3c1.1,0,2.2,0.2,3.2,0.6
	c1,0.4,1.8,1,2.6,1.8c0.7,0.7,1.3,1.6,1.7,2.6c0.4,1,0.6,2,0.6,3.1V70h-4.7V59.5l0,0c0-0.5-0.1-0.9-0.3-1.3c-0.4-0.9-1-1.5-1.9-1.9
	c-0.4-0.2-0.9-0.3-1.3-0.3c-0.5,0-0.9,0.1-1.4,0.3c-0.9,0.4-1.5,1-1.9,1.9c-0.1,0.4-0.2,0.9-0.2,1.3V70z"/>
<path class="st0" d="M92.3,70H81.7v-4.6h10.6c0.6,0,1.2-0.5,1.2-1.2l0,0c0-0.3-0.1-0.5-0.3-0.6c-0.3-0.1-0.5-0.2-0.8-0.2h-4.8
	c-0.8,0-1.5-0.1-2.3-0.5c-1.4-0.6-2.5-1.7-3.1-3.1c-0.6-1.4-0.6-3.1,0-4.5c0.6-1.4,1.7-2.5,3.1-3.1c0.7-0.3,1.5-0.5,2.3-0.4h9.4v4.6
	h-9.4c-0.6,0-1.2,0.5-1.2,1.2l0,0c0,0.3,0.1,0.6,0.3,0.8c0.2,0.2,0.5,0.4,0.8,0.4h4.8c0.8,0,1.5,0.1,2.2,0.4
	c0.7,0.3,1.3,0.6,1.8,1.1c0.5,0.5,0.9,1.1,1.2,1.7c0.3,0.7,0.5,1.4,0.5,2.2c0,0.8-0.1,1.5-0.5,2.2c-0.3,0.7-0.7,1.3-1.2,1.8
	c-0.5,0.5-1.1,0.9-1.8,1.2C93.8,69.8,93,70,92.3,70z"/>
<path class="st0" d="M116.3,55.4l-3.4,3.4c-0.2-0.5-0.4-0.9-0.7-1.3c-0.3-0.4-0.6-0.7-0.9-0.9c-0.4-0.3-0.8-0.5-1.2-0.6
	c-0.4-0.1-0.9-0.2-1.3-0.2c-0.6,0-1.2,0.1-1.8,0.4c-0.6,0.3-1.1,0.6-1.5,1.1c-0.4,0.5-0.7,1.1-0.9,1.7c-0.2,0.7-0.4,1.4-0.4,2.1
	c0,0.6,0.1,1.2,0.4,1.8c0.2,0.5,0.5,1,0.9,1.5c0.4,0.4,0.9,0.7,1.5,0.9c1,0.4,2.1,0.5,3.1,0.2c0.4-0.1,0.8-0.3,1.2-0.5
	c0.4-0.2,0.7-0.5,0.9-0.9c0.3-0.3,0.5-0.7,0.7-1.1l3.4,3.4c-0.4,0.6-0.9,1.2-1.5,1.7c-0.6,0.5-1.2,0.9-1.8,1.2
	c-0.7,0.3-1.3,0.6-2.1,0.8c-0.7,0.2-1.5,0.3-2.2,0.3c-1.2,0-2.5-0.2-3.6-0.7c-2.2-0.9-4-2.7-4.9-4.9c-0.5-1.1-0.7-2.4-0.7-3.6
	c0-1.3,0.2-2.7,0.7-3.9c0.5-1.2,1.1-2.2,2-3.2c0.8-0.9,1.8-1.6,3-2.1c1.1-0.5,2.4-0.8,3.6-0.8c0.8,0,1.5,0.1,2.2,0.3
	c1.5,0.4,2.8,1.1,3.9,2.2C115.5,54.2,115.9,54.8,116.3,55.4z"/>
<path class="st0" d="M123.2,70h-4.6V51.8h1.1l1.5,2.1c1.5-1.4,3.5-2.1,5.5-2.1h4.1v4.6h-4.1c-0.5,0-0.9,0.1-1.4,0.3
	c-0.9,0.3-1.5,1-1.9,1.9c-0.2,0.4-0.3,0.9-0.3,1.4L123.2,70z"/>
<path class="st0" d="M139.9,65.5c0.2,0.1,0.4,0.1,0.5,0.1h0.5c0.4,0,0.9-0.1,1.3-0.2c0.4-0.1,0.8-0.3,1.2-0.5c0.7-0.5,1.3-1.2,1.7-2
	l3.4,3.4c-0.4,0.6-0.9,1.2-1.5,1.7c-0.6,0.5-1.2,0.9-1.8,1.2c-0.7,0.3-1.3,0.6-2.1,0.8c-0.7,0.2-1.5,0.3-2.2,0.3
	c-2.5,0-4.8-1-6.5-2.7c-0.9-0.9-1.5-1.9-2-3c-0.5-1.2-0.7-2.5-0.7-3.9c0-1.3,0.2-2.7,0.7-3.9c0.9-2.3,2.7-4.1,4.9-5
	c1.1-0.5,2.4-0.7,3.6-0.7c0.7,0,1.5,0.1,2.2,0.3c1.4,0.4,2.8,1.1,3.9,2c0.6,0.5,1.1,1,1.5,1.7L139.9,65.5z M142.2,56
	c-0.2-0.1-0.4-0.1-0.6-0.2c-0.2,0-0.4,0-0.7,0c-0.6,0-1.2,0.1-1.8,0.4c-0.5,0.2-1,0.5-1.5,0.9c-0.4,0.5-0.7,1-0.9,1.6
	c-0.2,0.7-0.4,1.3-0.4,2c0,0.2,0,0.4,0,0.6c0,0.2,0,0.4,0.1,0.7c0,0.2,0.1,0.4,0.1,0.6c0,0.2,0.1,0.4,0.2,0.5L142.2,56z"/>
<path class="st0" d="M157.9,65.5c0.2,0.1,0.4,0.1,0.5,0.1h0.5c0.4,0,0.9-0.1,1.3-0.2c0.4-0.1,0.8-0.3,1.2-0.5
	c0.4-0.2,0.7-0.5,0.9-0.9c0.3-0.3,0.5-0.7,0.7-1.1l3.4,3.4c-0.4,0.6-0.9,1.2-1.4,1.7c-0.6,0.5-1.2,0.9-1.8,1.2
	c-0.7,0.3-1.3,0.6-2.1,0.8c-0.7,0.2-1.5,0.3-2.2,0.3c-2.5,0-4.8-1-6.5-2.7c-0.9-0.9-1.5-1.9-2-3c-0.5-1.2-0.7-2.5-0.7-3.9
	c0-1.3,0.2-2.7,0.7-3.9c0.9-2.3,2.7-4.1,4.9-5c1.1-0.5,2.4-0.7,3.6-0.7c0.7,0,1.5,0.1,2.2,0.3c1.4,0.4,2.8,1.1,3.9,2
	c0.6,0.5,1.1,1,1.5,1.7L157.9,65.5z M160.3,56c-0.2-0.1-0.4-0.1-0.6-0.2c-0.2,0-0.4,0-0.7,0c-0.6,0-1.2,0.1-1.8,0.4
	c-0.5,0.2-1,0.5-1.5,0.9c-0.4,0.5-0.7,1-0.9,1.6c-0.2,0.7-0.4,1.3-0.4,2c0,0.2,0,0.4,0,0.6c0,0.2,0,0.4,0.1,0.7
	c0,0.2,0.1,0.4,0.1,0.6c0,0.2,0.1,0.4,0.2,0.5L160.3,56z"/>
<path class="st0" d="M173.6,70h-4.6V51.8h1.1l1.5,1.8c1.5-1.4,3.5-2.1,5.5-2.1c1.1,0,2.1,0.2,3.1,0.6c1,0.4,1.9,1,2.6,1.8
	c0.7,0.7,1.3,1.6,1.7,2.6c0.4,1,0.6,2,0.6,3.1V70h-4.6V59.5c0-0.5-0.1-0.9-0.3-1.3c-0.4-0.9-1-1.5-1.9-1.9c-0.4-0.2-0.9-0.3-1.3-0.3
	c-0.5,0-0.9,0.1-1.4,0.3c-0.9,0.3-1.5,1-1.9,1.9c-0.2,0.4-0.3,0.9-0.3,1.3L173.6,70z"/>
</svg>
