<svg width="200" height="120" viewBox="0 0 200 120" fill="none" xmlns="http://www.w3.org/2000/svg">
<g clip-path="url(#clip0_662_472)">
<g clip-path="url(#clip1_662_472)">
<path d="M81.215 80.2336C81.215 78.5229 81.215 77.0566 81.215 75.2411C75.09 80.5129 68.125 81.8396 60.635 80.5129C52.9 79.1164 47.65 74.5778 45.165 67.281C42.855 68.1538 40.65 69.1314 38.34 69.8297C37.045 70.2137 35.575 70.2835 34.21 70.2835C33.055 70.2835 32.705 70.7025 32.74 71.8197C32.81 74.5429 32.775 77.2661 32.775 80.094C26.125 80.094 19.615 80.094 13.035 80.094C13 66.6875 13 53.3159 13 39.7349C13.7 39.7349 14.33 39.7349 14.925 39.7349C20.98 39.7349 27.07 39.8047 33.125 39.7C39.46 39.5952 44.745 41.4107 48.035 47.4157C52.06 42.074 57.45 39.4905 63.925 39.0716C70.26 38.6526 76.07 40.0142 81.11 44.7274C81.11 42.9818 81.11 41.5154 81.11 39.9095C87.69 39.9095 94.06 39.9095 100.675 39.9095C100.675 47.2062 100.675 54.5728 100.675 62.1139C104.245 62.1139 107.64 62.1489 111 62.0441C111.42 62.0441 112.015 61.3459 112.19 60.8571C114.605 54.3284 117.02 47.7997 119.33 41.2361C119.785 39.9444 120.38 39.4556 121.815 39.4905C126.82 39.5952 131.86 39.5603 136.865 39.5254C137.985 39.5254 138.615 39.7698 139 40.9568C140.75 46.0192 142.64 51.0117 144.495 56.0042C144.74 56.7025 145.02 57.3658 145.615 57.9593C145.615 51.9543 145.615 45.9494 145.615 39.8396C146.28 39.8047 146.77 39.7349 147.295 39.7349C154.05 39.7349 160.84 39.7 167.595 39.7349C175.575 39.7698 181.035 44.7972 182.05 52.7224C182.68 57.5404 181.525 61.5553 177.675 64.8022C181.07 69.8646 184.43 74.892 187.965 80.1289C187.23 80.1638 186.67 80.2336 186.145 80.2336C168.575 80.2336 151.04 80.2336 133.47 80.3035C131.93 80.3035 131.51 79.7449 131.16 78.4531C130.95 77.5803 130.495 76.3932 129.83 76.1139C128.71 75.6601 127.59 75.9045 127.135 77.5803C126.435 80.2686 126.295 80.2336 123.495 80.2336C110.125 80.2336 96.79 80.2336 83.42 80.2336C82.825 80.2336 82.125 80.2336 81.215 80.2336ZM65.465 77.1613C71.765 77.1613 76.56 75.1364 79.815 71.0167C83.28 66.6875 84.085 61.695 83.07 56.3883C82.335 52.5129 80.55 49.2312 77.54 46.5429C71.8 41.4107 60.845 41.7947 55.245 45.4955C48.875 49.685 46.145 58.483 48.84 66.4082C51.15 73.2511 57.135 77.1264 65.465 77.1613ZM172.32 63.4755C175.085 62.3932 177.29 60.892 177.92 58.2386C178.375 56.3883 178.305 54.3284 178.13 52.4082C177.675 47.5204 174 43.8197 169.1 43.5753C162.695 43.296 156.29 43.4007 149.885 43.3309C149.78 43.3309 149.675 43.4356 149.395 43.6102C149.395 54.3982 149.395 65.291 149.395 76.2885C153.35 76.2885 157.34 76.2885 161.54 76.2885C161.54 73.1115 161.54 70.0391 161.54 66.9668C163.395 69.7249 164.9 72.5179 166.51 75.276C166.79 75.7648 167.385 76.3583 167.84 76.3932C172.11 76.4631 176.415 76.4282 181.035 76.4282C178.025 71.9942 175.225 67.8047 172.32 63.4755ZM147.715 76.4631C147.645 75.9394 147.68 75.7299 147.61 75.5204C143.83 65.1164 140.015 54.7125 136.165 44.3434C135.99 43.8546 135.115 43.296 134.555 43.2611C131.125 43.1563 127.66 43.296 124.23 43.1563C122.9 43.1214 122.445 43.6451 122.06 44.7623C119.155 52.7923 116.215 60.7873 113.275 68.7823C112.365 71.2611 111.49 73.7399 110.51 76.4282C114.71 76.4282 118.665 76.4631 122.62 76.3932C123.04 76.3932 123.67 75.9394 123.845 75.5204C125.315 72.2037 125.28 72.2037 128.955 72.2037C129.55 72.2037 130.11 72.2037 130.705 72.2037C133.365 72.2037 133.295 72.2037 134.135 74.7873C134.345 75.4157 135.01 76.3932 135.5 76.3932C139.525 76.5329 143.515 76.4631 147.715 76.4631ZM28.785 66.6177C30.92 66.6177 32.775 66.6526 34.63 66.6177C41.21 66.5129 44.955 63.4406 45.69 56.9818C46.53 49.4406 42.925 43.296 34.21 43.5055C30.465 43.6102 26.755 43.5055 23.01 43.5055C20.98 43.5055 18.95 43.5055 16.815 43.5055C16.815 54.5728 16.815 65.4656 16.815 76.3583C20.84 76.3583 24.725 76.3583 28.75 76.3583C28.785 73.1115 28.785 70.0042 28.785 66.6177ZM96.93 43.6102C92.8 43.6102 88.985 43.6102 85.1 43.6102C85.1 54.5728 85.1 65.4307 85.1 76.2536C92.975 76.2536 100.745 76.2536 108.48 76.2536C108.48 72.7274 108.48 69.3758 108.48 65.8147C104.595 65.8147 100.85 65.8147 96.93 65.8147C96.93 58.3434 96.93 51.0117 96.93 43.6102Z" fill="#22ACD4"/>
<path d="M71.3796 60.0192C71.3796 63.7548 69.0346 66.2685 65.6046 66.2685C62.2096 66.2685 59.8296 63.6501 59.8646 59.9842C59.8996 56.074 62.0346 53.7 65.5346 53.7C69.2096 53.7 71.3796 56.074 71.3796 60.0192Z" fill="#18ABD3"/>
<path d="M161.47 51.9543C162.275 51.9543 162.905 51.9543 163.535 51.9543C166.335 51.9543 167.49 53.5603 166.685 56.2486C166.195 57.8895 163.115 58.9718 161.785 57.9244C161.575 57.7499 161.435 57.3309 161.435 57.0167C161.4 55.9344 161.4 54.8172 161.435 53.7349C161.4 53.2112 161.435 52.7224 161.47 51.9543Z" fill="#2FAED5"/>
<path d="M131.475 64.4182C129.865 64.4182 128.43 64.4182 126.785 64.4182C127.555 60.892 128.325 57.4356 129.095 53.9792C129.2 53.9792 129.34 53.9792 129.445 53.9792C130.11 57.4356 130.775 60.8571 131.475 64.4182Z" fill="#28ADD5"/>
<path d="M28.75 52.6526C29.835 52.6526 30.64 52.6526 31.445 52.6526C33.475 52.6875 34.245 53.4556 34.245 55.3758C34.245 57.2262 33.37 58.099 31.445 58.1339C28.75 58.1688 28.75 58.1688 28.75 55.5154C28.75 54.6775 28.75 53.8047 28.75 52.6526Z" fill="#33AFD6"/>
</g>
</g>
<rect x="0.5" y="0.5" width="199" height="119" stroke="black"/>
<defs>
<clipPath id="clip0_662_472">
<rect width="200" height="120" fill="white"/>
</clipPath>
<clipPath id="clip1_662_472">
<rect width="175" height="42" fill="white" transform="translate(13 39)"/>
</clipPath>
</defs>
</svg>
