<?xml version="1.0" encoding="utf-8"?>
<!-- Generator: Adobe Illustrator 24.0.1, SVG Export Plug-In . SVG Version: 6.00 Build 0)  -->
<svg version="1.1" id="Слой_1" xmlns="http://www.w3.org/2000/svg" xmlns:xlink="http://www.w3.org/1999/xlink" x="0px" y="0px"
	 viewBox="0 0 200 120" style="enable-background:new 0 0 200 120;" xml:space="preserve">
<path d="M25,47.5h0.7c2,0,2.6,0.7,2.6,2.9v11.1c0,2.1-0.6,2.9-2.6,2.9H25V47.5z M14.6,41.1v5.2c1.1,0.5,1.1,1.3,1.2,2.3V63
	c0,1-0.1,1.9-1.2,2.3v5.2h13c2.8,0,5.4-0.2,7.5-2.2c2.2-2.1,2.4-4.3,2.4-7.2v-11c0-2.8-0.2-5.5-2.6-7.4c-2.1-1.6-5-1.6-7.5-1.6
	L14.6,41.1z M51.1,56.5H48v-0.8c0-0.9,0.1-2.2,1.6-2.2s1.6,1.3,1.6,2.2V56.5z M39.8,62.7c0,2.6,0.1,5,2.4,6.7
	c1.8,1.3,5.1,1.9,8.4,1.7c3.3-0.2,6.7-1.2,8.5-2.8v-5.4H51v0.8c0,1.1-0.1,2.4-1.5,2.4s-1.6-1.4-1.5-2.5v-2h11.2v-5.1
	c0.1-5.3-1.8-8-9.8-7.9c-7.6,0-9.6,2.4-9.5,8.3L39.8,62.7L39.8,62.7z M61,70.6v-5.2c1.1-0.7,1-1.8,1-2.9V49.2c0-1.1,0.1-2.2-1-2.9
	v-5.2h11.2v5.2c-1.1,0.7-1,1.8-1,2.9v15.1h0.9c2.3,0,2.3-1.4,2.3-3.3v-4.8h8.1v14.3L61,70.6z M92.7,56.7c0-1.2-0.2-3.2,1.6-3.2
	s1.5,2.1,1.5,3.2V63c0,1.2,0.1,3-1.6,3c-1.6,0-1.5-1.8-1.5-3V56.7z M103.9,56.7c0-2.8-0.2-5.4-2.8-7c-1.9-1.1-5.2-1.3-7.4-1.3
	c-2.4,0-5.1,0.2-7.1,1.8c-2,1.6-2.1,4.1-2.1,6.5v5.6c0,2.9,0,5.5,2.6,7.3c1.9,1.3,5.1,1.4,7.3,1.4c2.5,0,5.4-0.2,7.3-1.9
	c2-1.7,2-4.4,2-6.8L103.9,56.7z M114.7,50.2c2.2-1.5,4.1-1.9,5.9-1.8c1.7,0.1,3.2,0.6,4,1.4c1.5,1.4,1.7,3,1.7,4.9v8.1
	c0,1.1-0.1,2.3,1,2.9v4.9h-8.6c-0.5-2.2-0.5-4.5-0.5-6.7v-6.3c0-0.1,0.1-1.1-0.2-1.9c-0.6-0.8-1.4-1.4-2.8-0.8v8.1
	c0,1.1-0.1,2.3,1,2.9v4.9H106v-4.9c1.1-0.6,1-1.6,1-2.7v-6.6c0-1.2,0-1.9-1-2.7v-4.9h8.8L114.7,50.2z M140.6,64.5
	c-0.4,0.2-0.9,0.4-1.4,0.4c-1.7,0-1.7-1.9-1.7-3.1V57c0-1.2,0-2.7,1.6-2.7c0.5,0,1.1,0.2,1.5,0.4V64.5z M149.8,48.9h-8.9v1.2
	c-1.6-1.2-3.4-1.7-5.4-1.7c-4.9,0-6.1,3-6.1,7.7v8.2c0,4.7,2.3,6.7,6.4,6.7c1.6,0,3.3-0.5,4.8-1.6v1.4c0,1.2,0.2,3.4-1.6,3.4
	c-0.7,0-1-0.3-1.3-0.8c-0.2-0.5-0.2-1.1-0.2-1.6H130V77c3.2,1.8,5.9,2.3,9.5,2.3c2.5,0,5.6-0.3,7.5-2.1c1.9-1.8,1.8-5.1,1.8-7.6
	V56.4c0-1.1-0.1-2,1-2.7L149.8,48.9z M161.1,49.9c1.7-1,3.6-1.5,5.5-1.4c1.7,0.1,3.2,0.6,4,1.4c1.5,1.4,1.7,3,1.7,4.9v8.1
	c0,1.1-0.1,2.3,1,2.9v4.9h-8.6c-0.5-2.2-0.5-4.5-0.5-6.7v-6.3c0-0.1,0.1-1.1-0.2-1.9c-0.6-0.8-1.4-1.4-2.8-0.8v8.1
	c0,1.1-0.1,2.3,1,2.9v4.9H152v-4.9c1.1-0.6,1-1.6,1-2.7V48.8c0-1.1,0.1-2.3-1-2.9v-4.9h9.2L161.1,49.9z M184.3,62.9
	c0,1.1-0.1,2.2,1,2.9v4.9h-10.2v-4.9c1.1-0.7,1-1.6,1-2.7v-6.4c0-1.1,0.1-2.2-1-2.9v-4.9h9.1L184.3,62.9z M175.5,44.1
	c0-2.3,2.4-3.3,4.4-3.3c2,0,4.4,1.1,4.4,3.4c0,2.3-2.3,3.3-4.3,3.3C177.9,47.6,175.5,46.6,175.5,44.1z M40.9,44.4h17.5v1.5H40.9
	V44.4z"/>
</svg>
