<svg width="200" height="120" viewBox="0 0 200 120" fill="none" xmlns="http://www.w3.org/2000/svg">
<path d="M14.5771 59.7125C14.6314 55.9926 16.1539 51.5668 18.4377 48.6615C19.2533 57.4045 23.4402 64.2198 29.3942 70.2747C30.6992 67.3151 31.8411 64.4098 33.2005 61.6131C35.2124 57.486 37.5233 53.5489 41.2208 50.6707C46.1417 46.8423 51.5249 48.1727 54.1621 53.8476C57.0983 60.1741 55.603 68.537 50.4917 74.1575C37.8159 88.1689 14.2768 78.553 14.5771 59.7125Z" fill="#1475B9"/>
<path d="M187 73.9404C183.955 73.9404 180.937 73.9404 177.838 73.9404C174.847 70.5735 171.829 67.2066 168.567 63.541C168.567 67.2066 168.567 70.4649 168.567 73.8046C165.794 73.8046 163.211 73.8046 160.492 73.8046C160.492 64.9529 160.492 56.1284 160.492 47.1682C163.102 47.1682 165.685 47.1682 168.458 47.1682C168.458 50.4265 168.458 53.6847 168.458 56.9702C168.567 57.0245 168.703 57.1059 168.812 57.1602C171.802 53.8477 174.766 50.5079 177.838 47.0596C180.856 47.0596 183.928 47.0596 187 47.0596C187 47.2496 187 47.4126 187 47.6026C186.619 47.8741 186.184 48.0914 185.885 48.4172C182.297 52.4086 178.735 56.4271 175.201 60.4185C175.309 60.6086 175.364 60.7443 175.445 60.8529C179.061 64.9258 182.704 69.0258 186.347 73.0986C186.483 73.2616 186.782 73.3159 187 73.3973C187 73.5874 187 73.7503 187 73.9404Z" fill="#1475B9"/>
<path d="M39.9701 40.543C41.6557 41.1675 43.3413 41.7377 45.2716 42.4165C34.1248 46.1907 30.237 54.9337 28.062 65.2244C25.6695 62.1019 23.7119 58.9794 22.6516 55.341C20.6669 48.4715 23.5216 43.0138 30.2641 40.6244C33.8797 40 36.4897 39.5635 39.9701 40.543Z" fill="#1475B9"/>
<path d="M87.766 47.1411C90.8382 47.1411 93.8016 47.1411 96.9825 47.1411C92.986 56.1285 89.0166 64.9802 85.0472 73.859C81.9478 73.859 78.93 73.859 75.7763 73.859C71.8341 65.0345 67.8919 56.1828 63.8682 47.1954C67.0219 47.1954 69.9853 47.1954 73.0847 47.1954C75.45 52.4901 77.8425 57.8391 80.3982 63.514C82.9538 57.8663 85.3463 52.4901 87.766 47.1411Z" fill="#1475B9"/>
<path d="M157.991 68.157C157.991 70.1934 157.991 71.9855 157.991 73.8318C150.95 73.8318 143.99 73.8318 136.921 73.8318C136.921 64.953 136.921 56.0742 136.921 47.1411C143.962 47.1411 150.922 47.1411 157.991 47.1411C157.991 48.9875 157.991 50.8067 157.991 52.7345C153.696 52.7345 149.454 52.7345 145.077 52.7345C145.077 54.4722 145.077 56.1014 145.077 57.9206C148.421 57.9206 151.792 57.9206 155.272 57.9206C155.272 59.6312 155.272 61.206 155.272 62.9166C151.928 62.9166 148.557 62.9166 145.077 62.9166C145.077 64.7358 145.077 66.365 145.077 68.157C149.346 68.157 153.614 68.157 157.991 68.157Z" fill="#1475B9"/>
<path d="M126.345 73.8589C123.518 73.8589 120.962 73.8589 118.243 73.8589C118.243 66.8807 118.243 59.9297 118.243 52.843C115.389 52.843 112.697 52.843 109.924 52.843C109.924 50.9152 109.924 49.1231 109.924 47.1953C117.999 47.1953 126.128 47.1953 134.365 47.1953C134.365 48.9874 134.365 50.8066 134.365 52.7615C131.728 52.7615 129.118 52.7615 126.372 52.7615C126.345 59.8754 126.345 66.7993 126.345 73.8589Z" fill="#1475B9"/>
<path d="M107.368 73.859C104.676 73.859 102.094 73.859 99.4292 73.859C99.4292 64.9259 99.4292 56.0471 99.4292 47.1411C102.066 47.1411 104.649 47.1411 107.368 47.1411C107.368 56.0199 107.368 64.8987 107.368 73.859Z" fill="#1475B9"/>
<rect x="0.5" y="0.5" width="199" height="119" stroke="black"/>
</svg>
