<svg width="200" height="120" viewBox="0 0 200 120" fill="none" xmlns="http://www.w3.org/2000/svg">
<path d="M20 41.4922H29.486L39.5048 65.6784H39.9312L49.95 41.4922H59.436V77.4903H51.9751V54.0599H51.6731L42.2582 77.3145H37.1778L27.7629 53.972H27.4609V77.4903H20V41.4922Z" fill="#3AA0FF"/>
<path d="M73.4651 41.4922V77.4903H65.7733V41.4922H73.4651Z" fill="#3AA0FF"/>
<path d="M110.223 41.4922V77.4903H103.579L87.7518 54.8333H87.4853V77.4903H79.7935V41.4922H86.5438L102.247 64.1316H102.567V41.4922H110.223Z" fill="#3AA0FF"/>
<path d="M136.314 51.8451C136.172 50.4272 135.562 49.3257 134.484 48.5406C133.407 47.7555 131.944 47.3629 130.097 47.3629C128.841 47.3629 127.781 47.5387 126.917 47.8903C126.052 48.2301 125.389 48.7047 124.927 49.314C124.477 49.9234 124.252 50.6147 124.252 51.3881C124.229 52.0326 124.365 52.5951 124.661 53.0755C124.969 53.556 125.389 53.972 125.922 54.3235C126.455 54.6633 127.071 54.9622 127.77 55.22C128.468 55.466 129.214 55.677 130.008 55.8527L133.276 56.6261C134.863 56.9777 136.32 57.4464 137.646 58.0323C138.973 58.6182 140.121 59.3389 141.092 60.1943C142.064 61.0497 142.816 62.0575 143.349 63.2176C143.893 64.3777 144.172 65.7077 144.183 67.2076C144.172 69.4106 143.603 71.3207 142.478 72.9378C141.365 74.5432 139.754 75.7911 137.646 76.6817C135.55 77.5606 133.022 78 130.061 78C127.124 78 124.566 77.5547 122.387 76.6641C120.22 75.7736 118.526 74.4553 117.307 72.7093C116.099 70.9515 115.465 68.7778 115.406 66.1881H122.849C122.932 67.3951 123.281 68.4028 123.897 69.2114C124.525 70.0082 125.36 70.6117 126.402 71.0219C127.456 71.4203 128.646 71.6195 129.972 71.6195C131.275 71.6195 132.406 71.432 133.365 71.057C134.336 70.682 135.088 70.1606 135.621 69.4926C136.154 68.8247 136.421 68.0572 136.421 67.19C136.421 66.3815 136.178 65.7018 135.692 65.1511C135.219 64.6003 134.52 64.1316 133.596 63.7449C132.684 63.3582 131.565 63.0067 130.239 62.6903L126.277 61.7059C123.21 60.9677 120.788 59.8135 119.012 58.2432C117.235 56.673 116.353 54.5579 116.365 51.8979C116.353 49.7183 116.939 47.8141 118.124 46.1853C119.32 44.5565 120.96 43.285 123.044 42.371C125.129 41.457 127.497 41 130.15 41C132.85 41 135.207 41.457 137.22 42.371C139.245 43.285 140.82 44.5565 141.945 46.1853C143.07 47.8141 143.65 49.7007 143.686 51.8451H136.314Z" fill="#3AA0FF"/>
<path d="M149.357 77.4903V41.4922H157.049V57.3644H157.529L170.621 41.4922H179.84L166.34 57.6105L180 77.4903H170.798L160.833 62.6903L157.049 67.2603V77.4903H149.357Z" fill="#3AA0FF"/>
<rect x="0.5" y="0.5" width="199" height="119" stroke="black"/>
</svg>
