<svg width="200" height="120" viewBox="0 0 200 120" fill="none" xmlns="http://www.w3.org/2000/svg">
<g clip-path="url(#clip0_654_531)">
<path d="M186.742 86C186.641 85.9668 186.54 85.9003 186.405 85.9003C184.687 85.9003 182.934 85.8671 181.216 85.8671C181.081 85.8671 180.946 85.8671 180.778 85.8671C180.778 85.6676 180.778 85.5014 180.778 85.3684C180.778 80.2152 180.778 75.0287 180.744 69.8755C180.71 66.1519 178.52 63.2595 175.352 62.0959C170.735 60.4336 165.714 63.06 164.501 67.7478C163.321 72.3358 166.422 77.0568 171.14 77.7882C174.038 78.2204 176.531 77.356 178.587 75.2615C178.655 75.195 178.688 75.0952 178.722 75.0287C178.756 75.062 178.823 75.0952 178.857 75.0952C178.857 75.2282 178.857 75.3279 178.857 75.4609C178.857 78.0542 178.89 80.6474 178.89 83.2738C178.89 83.5398 178.789 83.6728 178.553 83.8058C176.161 84.9362 173.6 85.5014 170.937 85.3684C163.928 85.0691 157.525 80.5476 155.907 72.9342C154.661 67.1493 156.312 62.1291 160.693 58.0731C163.187 55.7791 166.186 54.416 169.589 54.0502C174.307 53.5848 178.756 54.416 182.631 57.3416C184.249 58.5718 185.597 60.0014 186.641 61.7302C187.551 63.2595 188.158 64.9551 188.528 66.7171C188.697 67.4818 188.764 68.2797 188.899 69.0776C188.899 69.1441 188.967 69.2106 189.034 69.2771C189.034 69.4101 189.034 69.5431 189.034 69.7093C189 69.7758 189 69.8423 188.967 69.9088C189 69.942 189 70.0085 189.034 70.0418C189.034 70.607 189.034 71.1721 189.034 71.7373C189.034 71.7706 189 71.7706 189 71.8038C189 71.8038 189.034 71.8038 189.034 71.8371C189.034 76.5581 189.034 81.3123 189.034 86.0333C188.259 86 187.484 86 186.742 86Z" fill="#CD2529"/>
<path d="M11 85.3684C11.0674 85.3019 11.1685 85.2022 11.2022 85.1357C11.8088 83.7061 12.3817 82.2432 12.9883 80.8136C15.6505 74.3638 18.2791 67.8808 20.975 61.431C21.8175 59.4029 22.997 57.5411 24.4797 55.8788C24.5471 55.8123 24.5808 55.7458 24.6819 55.6793C25.0526 56.3775 25.4233 57.0424 25.7603 57.7074C26.5691 59.2367 27.3779 60.766 28.2204 62.2954C28.3215 62.4949 28.3552 62.6943 28.2541 62.9271C26.7039 66.7172 25.1537 70.5072 23.6036 74.2973C23.5699 74.4303 23.5025 74.5301 23.4688 74.6963C28.9618 74.6963 34.4211 74.6963 39.914 74.6963C39.8466 74.5633 39.8129 74.4636 39.7792 74.3971C36.0723 67.4486 32.3991 60.5001 28.6922 53.5848C28.0519 52.4212 26.9735 51.6565 25.7603 51.0581C24.6819 50.5262 23.5362 50.2934 22.3567 50.3267C22.3567 48.2321 22.3567 46.1376 22.3567 44.0099C22.5926 43.9766 22.7948 43.9434 22.997 43.9434C28.6248 44.0431 32.9383 46.5033 35.7353 51.2908C37.791 54.7817 39.6445 58.4056 41.599 61.9629C45.8114 69.7093 50.0575 77.4225 54.27 85.1689C54.3374 85.3351 54.4385 85.4681 54.5396 85.6676C54.3711 85.6676 54.27 85.7009 54.1352 85.7009C51.4729 85.7009 48.8107 85.7009 46.1484 85.7009C45.8788 85.7009 45.744 85.6011 45.6429 85.4016C44.3961 83.1741 43.1492 80.9799 41.9023 78.7524C41.7675 78.5196 41.599 78.4199 41.3294 78.4199C35.0276 78.4199 28.6922 78.4199 22.3904 78.4199C22.0871 78.4199 21.9523 78.5196 21.8512 78.7856C20.9413 80.9799 20.0314 83.1409 19.1552 85.3351C19.0541 85.6011 18.9193 85.6676 18.6498 85.6676C16.2571 85.6676 13.8644 85.6676 11.4718 85.6676C11.337 85.6676 11.2022 85.6676 11.0674 85.7009C11 85.5679 11 85.4681 11 85.3684Z" fill="#CD2529"/>
<path d="M138.687 86C138.619 85.9668 138.552 85.8671 138.485 85.8671C135.519 85.4681 132.789 84.4375 130.464 82.5424C127.431 80.1487 125.51 77.0568 124.769 73.2999C124.061 69.9088 124.466 66.5841 125.982 63.459C127.431 60.4003 129.689 58.0398 132.688 56.3775C134.677 55.2804 136.8 54.6154 139.057 54.4492C143 54.15 146.64 55.1474 149.841 57.4746C150.717 58.1063 151.492 58.8377 152.301 59.5359C150.448 61.298 148.695 63.0268 146.909 64.7223C143.371 60.7993 137.372 61.5972 134.575 65.0216C131.778 68.4127 132.183 73.4329 135.62 76.3253C138.889 79.0848 144.315 78.9186 147.415 74.9622C149.268 76.6246 151.122 78.2869 152.975 79.9824C152.166 81.0131 151.257 81.8775 150.246 82.6422C148.123 84.2712 145.764 85.2686 143.135 85.7341C142.865 85.7673 142.63 85.8006 142.36 85.8338C142.293 85.8338 142.225 85.9336 142.158 85.9668C141.989 85.9668 141.821 85.9668 141.652 85.9668C141.551 85.9668 141.45 85.9668 141.383 85.9668C140.709 85.9668 140.001 85.9668 139.327 85.9668C139.26 85.9668 139.192 85.9668 139.125 85.9668C138.923 86 138.788 86 138.687 86Z" fill="#CD2529"/>
<path d="M118.434 35C118.501 35.0332 118.569 35.133 118.636 35.133C123.084 35.8977 126.185 38.3579 127.937 42.4472C128.105 42.8462 128.207 43.2451 128.308 43.6441C128.341 43.7771 128.375 43.8768 128.375 44.043C120.759 44.043 113.177 44.043 105.527 44.043C105.695 43.4778 105.83 42.9126 106.066 42.3807C107.818 38.3246 110.851 35.8644 115.3 35.133C115.367 35.133 115.434 35.0332 115.502 35C115.603 35 115.704 35 115.771 35C115.839 35 115.974 35 116.041 35C116.648 35 117.288 35 117.895 35C117.928 35 117.996 35 118.029 35C118.198 35 118.333 35 118.434 35Z" fill="#CD2529"/>
<path d="M188.966 69.9087C189 69.8422 189 69.7757 189.034 69.7092C189.034 69.7757 189.034 69.8422 189.034 69.9087C189 69.9087 188.966 69.9087 188.966 69.9087Z" fill="#030203"/>
<path d="M188.966 69.9087C189 69.9087 189 69.9087 189.034 69.9087C189.034 69.9419 189.034 70.0084 189.034 70.0417C189 70.0084 188.966 69.9419 188.966 69.9087Z" fill="#721618"/>
<path d="M189 71.8038C189 71.8038 188.966 71.8038 188.966 71.7706C188.966 71.7373 189 71.7373 189 71.7041C189 71.7706 189 71.7706 189 71.8038Z" fill="#721618"/>
<path d="M65.5591 74.7295C62.7621 74.7295 59.965 74.7295 57.168 74.7295C57.168 74.5632 57.168 74.4303 57.168 74.2973C57.168 72.0033 57.168 69.676 57.168 67.382C57.168 64.7223 57.9094 62.3286 59.4258 60.1343C61.4815 57.1421 64.2785 55.2471 67.8507 54.5157C68.5584 54.3827 69.2997 54.3162 70.0411 54.2829C71.5239 54.2164 73.0067 54.2164 74.4894 54.4492C76.8147 54.8481 78.9378 55.6793 80.8586 56.9759C81.4315 57.3416 81.9707 57.7738 82.4762 58.1395C83.285 57.5411 84.0264 56.9094 84.8351 56.4107C87.5985 54.6819 90.5977 53.9837 93.8666 54.2497C94.8775 54.3162 95.8885 54.3494 96.8658 54.5489C99.3933 55.0143 101.651 56.1115 103.606 57.7738C105.762 59.6024 107.245 61.8631 108.054 64.5561C108.425 65.8527 108.593 67.1493 108.593 68.5124C108.593 70.4407 108.593 72.369 108.593 74.2973C108.593 74.4303 108.593 74.5632 108.593 74.7295C108.425 74.7295 108.324 74.7627 108.189 74.7627C105.527 74.7627 102.864 74.7627 100.168 74.7627C99.8651 74.7627 99.764 74.6962 99.764 74.3638C99.7977 72.4022 99.7977 70.4407 99.764 68.5124C99.7303 65.8527 98.7193 63.6917 96.1918 62.4283C93.1926 60.899 89.3509 62.2621 87.9692 65.2875C87.3963 66.5176 87.093 67.8142 87.093 69.2106C87.093 70.9061 87.093 72.6017 87.093 74.2973C87.093 74.4303 87.093 74.5632 87.093 74.7295C84.1612 74.7295 81.2967 74.7295 78.3312 74.7295C78.3312 74.5965 78.3312 74.4635 78.3312 74.3305C78.3312 72.3357 78.3312 70.3409 78.3312 68.3462C78.3312 66.6173 77.8594 65.0215 76.6462 63.6917C74.9612 61.8964 72.8382 61.2314 70.4455 61.7966C68.0866 62.3618 66.5701 63.8911 65.8961 66.1851C65.6265 67.116 65.5254 68.0802 65.5254 69.0443C65.5254 70.8064 65.5254 72.5685 65.5254 74.2973C65.5591 74.4303 65.5591 74.5632 65.5591 74.7295Z" fill="#CD2529"/>
<path d="M120.927 67.1824C120.927 73.3995 120.927 79.5501 120.927 85.7007C118.097 85.7007 115.299 85.7007 112.469 85.7007C112.469 85.5344 112.469 85.4015 112.469 85.2685C112.469 79.3839 112.469 73.4992 112.469 67.6146C112.469 67.2822 112.536 67.1492 112.907 67.1492C115.434 67.1824 117.995 67.1492 120.523 67.1492C120.624 67.1824 120.759 67.1824 120.927 67.1824Z" fill="#CD2529"/>
<path d="M99.7642 85.6011C99.7642 83.2074 99.7642 80.8137 99.7642 78.4199C102.696 78.4199 105.594 78.4199 108.56 78.4199C108.56 80.8137 108.56 83.1742 108.56 85.6011C105.628 85.6011 102.73 85.6011 99.7642 85.6011Z" fill="#CD2529"/>
<path d="M78.3315 85.5346C78.3315 83.1741 78.3315 80.8136 78.3315 78.4531C81.2634 78.4531 84.1615 78.4531 87.0934 78.4531C87.0934 80.8136 87.0934 83.1409 87.0934 85.5346C84.1952 85.5346 81.2634 85.5346 78.3315 85.5346Z" fill="#CD2529"/>
<path d="M57.168 78.4199C59.9313 78.4199 62.6947 78.4199 65.4917 78.4199C65.4917 80.8137 65.4917 83.1742 65.4917 85.5679C62.7284 85.5679 59.965 85.5679 57.168 85.5679C57.168 83.1742 57.168 80.8137 57.168 78.4199Z" fill="#CD2529"/>
<path d="M128.678 46.4036C128.678 46.7693 128.712 47.0685 128.678 47.3677C128.611 47.8997 128.577 47.8664 128.038 47.8664C120.657 47.8664 113.244 47.8664 105.863 47.8664C105.526 47.8664 105.392 47.7667 105.358 47.4675C105.324 47.135 105.257 46.7693 105.189 46.4036C113.041 46.4036 120.86 46.4036 128.678 46.4036Z" fill="#CD2529"/>
<path d="M128.139 50.4929C127.971 50.8586 127.802 51.2243 127.634 51.5236C127.6 51.5901 127.398 51.6233 127.297 51.6565C126.454 51.6565 125.645 51.6565 124.803 51.6565C118.838 51.6565 112.907 51.6565 106.942 51.6565C106.538 51.6565 106.336 51.5568 106.201 51.1911C106.133 50.9584 105.999 50.7589 105.897 50.4929C113.278 50.4929 120.658 50.4929 128.139 50.4929Z" fill="#CD2529"/>
</g>
<rect x="0.5" y="0.5" width="199" height="119" stroke="black"/>
<defs>
<clipPath id="clip0_654_531">
<rect width="178" height="51" fill="white" transform="translate(11 35)"/>
</clipPath>
</defs>
</svg>
