<?xml version="1.0" encoding="utf-8"?>
<!-- Generator: Adobe Illustrator 24.0.1, SVG Export Plug-In . SVG Version: 6.00 Build 0)  -->
<svg version="1.1" id="Слой_1" xmlns="http://www.w3.org/2000/svg" xmlns:xlink="http://www.w3.org/1999/xlink" x="0px" y="0px"
	 viewBox="0 0 200 120" style="enable-background:new 0 0 200 120;" xml:space="preserve">
<style type="text/css">
	.st0{fill-rule:evenodd;clip-rule:evenodd;fill:#F659A0;}
	.st1{fill-rule:evenodd;clip-rule:evenodd;fill:#3998CE;}
	.st2{fill-rule:evenodd;clip-rule:evenodd;fill:#111111;}
	.st3{fill:#111111;}
</style>
<path class="st0" d="M126.1,56.3c0.5,1.2,1.2,2.2,2.1,3c0.9,0.9,2,1.5,3.2,2c1.2,0.5,2.5,0.8,3.9,0.8c1.4,0,2.7-0.3,3.9-0.8
	c1.2-0.5,2.3-1.2,3.2-2c0.9-0.9,1.6-1.9,2.1-3c0.5-1.2,0.8-2.4,0.8-3.7c0-1.3-0.3-2.5-0.8-3.7c-0.5-1.2-1.2-2.2-2.1-3
	c-0.9-0.9-2-1.5-3.2-2c-1.2-0.5-2.5-0.8-3.9-0.8c-1.4,0-2.7,0.2-3.9,0.8c-1.2,0.5-2.3,1.2-3.2,2c-0.9,0.9-1.6,1.9-2.1,3
	c-0.5,1.2-0.8,2.4-0.8,3.7C125.3,53.9,125.6,55.1,126.1,56.3 M131.6,51.1c0.2-0.5,0.5-0.9,0.9-1.2c0.4-0.3,0.8-0.6,1.3-0.8
	c0.5-0.2,1-0.3,1.6-0.3c0.6,0,1.1,0.1,1.6,0.3c0.5,0.2,0.9,0.5,1.3,0.8c0.4,0.3,0.6,0.8,0.9,1.2c0.2,0.5,0.3,1,0.3,1.5
	c0,0.5-0.1,1-0.3,1.5c-0.2,0.5-0.5,0.9-0.9,1.2c-0.4,0.3-0.8,0.6-1.3,0.8c-0.5,0.2-1,0.3-1.6,0.3c-0.6,0-1.1-0.1-1.6-0.3
	c-0.5-0.2-0.9-0.5-1.3-0.8c-0.4-0.3-0.6-0.8-0.9-1.2c-0.2-0.5-0.3-1-0.3-1.5C131.3,52,131.4,51.5,131.6,51.1"/>
<path class="st1" d="M152.5,56.3c0.5,1.2,1.2,2.2,2.1,3c0.9,0.9,2,1.5,3.2,2s2.5,0.8,3.9,0.8c1.4,0,2.7-0.3,3.9-0.8s2.3-1.2,3.2-2
	c0.9-0.9,1.6-1.9,2.1-3c0.5-1.2,0.8-2.4,0.8-3.7c0-1.3-0.3-2.5-0.8-3.7c-0.5-1.2-1.2-2.2-2.1-3c-0.9-0.9-2-1.5-3.2-2
	c-1.2-0.5-2.5-0.8-3.9-0.8c-1.4,0-2.7,0.2-3.9,0.8c-1.2,0.5-2.3,1.2-3.2,2c-0.9,0.9-1.6,1.9-2.1,3c-0.5,1.2-0.8,2.4-0.8,3.7
	C151.7,53.9,151.9,55.1,152.5,56.3 M158,51.1c0.2-0.5,0.5-0.9,0.9-1.2c0.4-0.3,0.8-0.6,1.3-0.8c0.5-0.2,1-0.3,1.6-0.3
	c0.6,0,1.1,0.1,1.6,0.3c0.5,0.2,0.9,0.5,1.3,0.8c0.4,0.3,0.6,0.8,0.9,1.2c0.2,0.5,0.3,1,0.3,1.5c0,0.5-0.1,1-0.3,1.5
	c-0.2,0.5-0.5,0.9-0.9,1.2c-0.4,0.3-0.8,0.6-1.3,0.8c-0.5,0.2-1,0.3-1.6,0.3c-0.6,0-1.1-0.1-1.6-0.3c-0.5-0.2-0.9-0.5-1.3-0.8
	c-0.4-0.3-0.6-0.8-0.9-1.2c-0.2-0.5-0.3-1-0.3-1.5C157.7,52,157.8,51.5,158,51.1"/>
<path class="st2" d="M184.6,63c1.8,0,3.5-0.2,4.9-0.6c1.4-0.4,2.7-1.1,3.6-1.9c1-0.8,1.7-1.9,2.3-3.1c0.5-1.2,0.8-2.7,0.8-4.3
	c0-1.6-0.3-3-0.8-4.3c-0.5-1.2-1.3-2.3-2.3-3.1c-1-0.8-2.2-1.5-3.6-1.9c-1.4-0.4-3.1-0.6-4.9-0.6h-5.4V63H184.6z M185.4,48.9
	c1.5,0,2.6,0.3,3.4,1c0.8,0.7,1.2,1.8,1.2,3.2c0,1.4-0.4,2.5-1.2,3.2c-0.8,0.7-1.9,1.1-3.4,1.1V48.9z"/>
<path class="st2" d="M113.7,43l-5.2,7.3l-5.2-7.3H98v19.1h6.4v-6.9l4.1,5.7l4.1-5.7v6.9h6.4V43H113.7z"/>
<path class="st2" d="M75.4,43.2V63H88v-5.2h-6.5v-2.3h6.2v-4.9h-6.2v-2.2h6.3v-5.2H75.4z"/>
<path class="st2" d="M59,43v7.4L53.4,43H48v19.1h6.4v-7.3l5.6,7.3h5.4V43H59z"/>
<path class="st2" d="M32.6,62.1H39V43h-6.4V62.1z"/>
<path class="st2" d="M4.3,56.4c0.5,1.2,1.3,2.2,2.2,3c0.9,0.8,2,1.5,3.3,1.9c1.3,0.5,2.7,0.7,4.2,0.7c1.1,0,2.1-0.1,3-0.3
	c0.9-0.2,1.6-0.5,2.2-0.7c0.7-0.3,4.8-2.1,5.2-7.3h-6.3c-0.2,1.1-0.7,1.7-1.1,1.9c-0.3,0.2-0.7,0.3-1.2,0.5c-0.5,0.1-1,0.2-1.7,0.2
	c-0.6,0-1.2-0.1-1.7-0.3c-0.5-0.2-1-0.5-1.4-0.8c-0.4-0.3-0.7-0.7-0.9-1.2c-0.2-0.5-0.3-1-0.3-1.5c0-0.5,0.1-1,0.3-1.5
	c0.2-0.5,0.5-0.9,0.9-1.2c0.4-0.3,0.8-0.6,1.3-0.8c0.5-0.2,1.1-0.3,1.7-0.3c0.6,0,1.1,0.1,1.6,0.2c0.5,0.1,0.9,0.3,1.2,0.4
	c0.4,0.2,1.3,0.8,1.4,1.8h6.3c-0.5-5.2-4.7-6.9-5.5-7.1c-0.6-0.3-1.4-0.5-2.2-0.7c-0.9-0.2-1.9-0.3-3-0.3c-1.4,0-2.7,0.2-4,0.7
	c-1.2,0.4-2.3,1.1-3.3,1.9c-0.9,0.8-1.7,1.8-2.2,3c-0.5,1.2-0.8,2.5-0.8,3.9C3.5,54,3.8,55.3,4.3,56.4"/>
<path class="st3" d="M3.5,75h0.9v-4.1h2.3V75h0.9v-4.9h-4V75z"/>
<path class="st3" d="M8.7,75h0.9v-1.6h1c1.1,0,2-0.6,2-1.7c0-1-0.7-1.6-1.9-1.6H8.7V75z M9.6,72.6v-1.8h1c0.6,0,1.1,0.3,1.1,0.9
	c0,0.5-0.4,0.9-1.1,0.9H9.6z"/>
<path class="st3" d="M15.7,75c1.5,0,2.6-1.2,2.6-2.5c0-1.4-1-2.5-2.5-2.5s-2.6,1.2-2.6,2.5C13.2,73.9,14.2,75,15.7,75z M15.7,74.3
	c-1,0-1.7-0.8-1.7-1.7c0-1,0.7-1.7,1.6-1.7c1,0,1.7,0.8,1.7,1.7C17.4,73.5,16.7,74.3,15.7,74.3z"/>
<path class="st3" d="M19.3,75h0.8l2.5-3.6V75h0.8v-4.9h-0.8l-2.5,3.6v-3.6h-0.8V75z"/>
<path class="st3" d="M26.4,70c-0.9,0-1.4,0.3-1.9,0.7l0.5,0.6c0.4-0.4,0.8-0.5,1.4-0.5c0.5,0,0.9,0.3,0.9,0.7c0,0.5-0.4,0.7-1,0.7
	h-0.5v0.7h0.6c0.6,0,1.1,0.2,1.1,0.7c0,0.5-0.4,0.7-1,0.7c-0.7,0-1.2-0.2-1.6-0.6l-0.5,0.6c0.5,0.5,1.2,0.8,2.1,0.8
	c1.1,0,1.8-0.6,1.8-1.4c0-0.6-0.4-1-1-1.2c0.4-0.2,0.8-0.5,0.8-1.1C28.1,70.6,27.4,70,26.4,70z"/>
<path class="st3" d="M29.2,75h2.3c1.1,0,1.8-0.5,1.8-1.3c0-0.7-0.4-1-1-1.2c0.4-0.2,0.7-0.5,0.7-1.1c0-0.3-0.1-0.6-0.3-0.8
	c-0.3-0.3-0.7-0.4-1.3-0.4h-2.2V75z M30.1,72.1v-1.3h1.2c0.6,0,0.9,0.2,0.9,0.6c0,0.5-0.4,0.7-0.9,0.7H30.1z M30.1,74.2v-1.3h1.4
	c0.7,0,1,0.2,1,0.7c0,0.5-0.4,0.7-0.9,0.7H30.1z"/>
<path class="st3" d="M36.6,75c1.5,0,2.6-1.2,2.6-2.5c0-1.4-1-2.5-2.5-2.5S34,71.2,34,72.5C34,73.9,35.1,75,36.6,75z M36.6,74.3
	c-1,0-1.7-0.8-1.7-1.7c0-1,0.7-1.7,1.6-1.7c1,0,1.7,0.8,1.7,1.7C38.2,73.5,37.6,74.3,36.6,74.3z"/>
<path class="st3" d="M39.6,76h0.8l0.1-1h3.4v1h0.7l0.1-1.8h-0.6v-4.1h-3.4v0.7c0,1.6-0.2,2.6-0.6,3.4h-0.5V76z M41,74.2
	c0.3-0.7,0.5-1.7,0.5-2.8v-0.6h1.7v3.3H41z"/>
<path class="st3" d="M45.5,75h0.8l2.5-3.6V75h0.8v-4.9h-0.8l-2.5,3.6v-3.6h-0.8V75z"/>
<path class="st3" d="M52.1,75h0.9v-4.1h1.5v-0.8h-4v0.8h1.5V75z"/>
<path class="st3" d="M55.4,75H59v-0.8h-2.8v-1.3h2.4v-0.8h-2.4v-1.3H59v-0.8h-3.6V75z"/>
<path class="st3" d="M60.1,75c1,0,1.5-0.6,1.5-3.7v-0.4h1.7V75h0.9v-4.9h-3.3v1c0,2.9-0.5,3.2-1,3.2c-0.1,0-0.2,0-0.3,0l-0.1,0.7
	C59.6,75,59.9,75,60.1,75z"/>
<path class="st3" d="M65.4,75h2c1.1,0,1.8-0.6,1.8-1.6s-0.7-1.5-1.8-1.5h-1.1v-1.8h-0.9V75z M66.2,74.2v-1.6h1.1c0.6,0,1,0.3,1,0.8
	c0,0.6-0.4,0.8-1,0.8H66.2z"/>
<path class="st3" d="M72.2,75H73l2.5-3.6V75h0.8v-4.9h-0.8L73,73.6v-3.6h-0.8V75z"/>
<path class="st3" d="M77.6,75h0.9v-2.1h2.3V75h0.9v-4.9h-0.9v2h-2.3v-2h-0.9V75z"/>
<path class="st3" d="M82.9,75h0.9v-2.1H86V75h0.9v-4.9H86v2h-2.3v-2h-0.9V75z"/>
<path class="st3" d="M90.5,75c1.5,0,2.6-1.2,2.6-2.5c0-1.4-1-2.5-2.5-2.5c-1.5,0-2.6,1.2-2.6,2.5C87.9,73.9,89,75,90.5,75z
	 M90.5,74.3c-1,0-1.7-0.8-1.7-1.7c0-1,0.7-1.7,1.6-1.7c1,0,1.7,0.8,1.7,1.7C92.1,73.5,91.5,74.3,90.5,74.3z"/>
<path class="st3" d="M94.1,75h2.3c1.1,0,1.8-0.5,1.8-1.3c0-0.7-0.4-1-1-1.2c0.4-0.2,0.7-0.5,0.7-1.1c0-0.3-0.1-0.6-0.3-0.8
	c-0.3-0.3-0.7-0.4-1.3-0.4h-2.2V75z M94.9,72.1v-1.3h1.2c0.6,0,0.9,0.2,0.9,0.6c0,0.5-0.4,0.7-0.9,0.7H94.9z M94.9,74.2v-1.3h1.4
	c0.7,0,1,0.2,1,0.7c0,0.5-0.4,0.7-0.9,0.7H94.9z"/>
<path class="st3" d="M98.7,75h0.9l0.5-1.2h2.3l0.5,1.2h0.9l-2.1-4.9h-0.8L98.7,75z M100.4,73l0.8-2l0.8,2H100.4z"/>
<path class="st3" d="M108.4,76h0.7l0.1-1.8h-0.6v-4.1h-0.9v4.1h-2.3v-4.1h-0.9V75h3.8V76z"/>
<path class="st3" d="M110,75h0.8l2.5-3.6V75h0.8v-4.9h-0.8l-2.5,3.6v-3.6H110V75z"/>
<path class="st3" d="M117.7,75c1.5,0,2.6-1.2,2.6-2.5c0-1.4-1-2.5-2.5-2.5c-1.5,0-2.6,1.2-2.6,2.5C115.2,73.9,116.2,75,117.7,75z
	 M117.7,74.3c-1,0-1.7-0.8-1.7-1.7c0-1,0.7-1.7,1.6-1.7c1,0,1.7,0.8,1.7,1.7C119.4,73.5,118.7,74.3,117.7,74.3z"/>
<path class="st3" d="M121.3,75h0.9v-2.1h2.3V75h0.9v-4.9h-0.9v2h-2.3v-2h-0.9V75z"/>
<path class="st3" d="M126.6,75h0.9v-2.1h2.3V75h0.9v-4.9h-0.9v2h-2.3v-2h-0.9V75z"/>
<path class="st3" d="M131.9,75h2c1.1,0,1.8-0.6,1.8-1.6s-0.7-1.5-1.8-1.5h-1.1v-1.8h-0.9V75z M132.7,74.2v-1.6h1.1
	c0.6,0,1,0.3,1,0.8c0,0.6-0.4,0.8-1,0.8H132.7z M136.3,75h0.9v-4.9h-0.9V75z"/>
<path class="st3" d="M138,75h1l1.3-1.8l1.3,1.8h1l-1.8-2.5l1.7-2.4h-1l-1.2,1.8l-1.2-1.8h-1l1.7,2.4L138,75z"/>
<path class="st3" d="M145.6,75h0.9v-4.1h2.3V75h0.9v-4.9h-4V75z"/>
<path class="st3" d="M150.8,75h0.9v-1.6h1c1.1,0,2-0.6,2-1.7c0-1-0.7-1.6-1.9-1.6h-1.9V75z M151.7,72.6v-1.8h1
	c0.6,0,1.1,0.3,1.1,0.9c0,0.5-0.4,0.9-1.1,0.9H151.7z"/>
<path class="st3" d="M157.8,75c1.5,0,2.6-1.2,2.6-2.5c0-1.4-1-2.5-2.5-2.5c-1.5,0-2.6,1.2-2.6,2.5C155.2,73.9,156.3,75,157.8,75z
	 M157.8,74.3c-1,0-1.7-0.8-1.7-1.7c0-1,0.7-1.7,1.6-1.7c1,0,1.7,0.8,1.7,1.7C159.4,73.5,158.8,74.3,157.8,74.3z"/>
<path class="st3" d="M161.4,75h3.7v-0.8h-2.8v-1.3h2.4v-0.8h-2.4v-1.3h2.8v-0.8h-3.6V75z"/>
<path class="st3" d="M166.1,75h0.9v-1.4l0.8-0.8l1.7,2.2h1l-2.1-2.8l2-2.1h-1.1l-2.3,2.5v-2.5h-0.9V75z"/>
<path class="st3" d="M172.3,75h0.9v-4.1h1.5v-0.8h-4v0.8h1.5V75z"/>
<path class="st3" d="M178,75c1.5,0,2.6-1.2,2.6-2.5c0-1.4-1-2.5-2.5-2.5c-1.5,0-2.6,1.2-2.6,2.5C175.4,73.9,176.5,75,178,75z
	 M178,74.3c-1,0-1.7-0.8-1.7-1.7c0-1,0.7-1.7,1.6-1.7c1,0,1.7,0.8,1.7,1.7C179.6,73.5,178.9,74.3,178,74.3z"/>
<path class="st3" d="M181.6,75h0.9v-1.6h1c1.1,0,2-0.6,2-1.7c0-1-0.7-1.6-1.9-1.6h-1.9V75z M182.4,72.6v-1.8h1
	c0.6,0,1.1,0.3,1.1,0.9c0,0.5-0.4,0.9-1.1,0.9H182.4z"/>
<path class="st3" d="M188.5,75c1.5,0,2.6-1.2,2.6-2.5c0-1.4-1-2.5-2.5-2.5c-1.5,0-2.6,1.2-2.6,2.5C186,73.9,187,75,188.5,75z
	 M188.6,74.3c-1,0-1.7-0.8-1.7-1.7c0-1,0.7-1.7,1.6-1.7c1,0,1.7,0.8,1.7,1.7C190.2,73.5,189.5,74.3,188.6,74.3z"/>
<path class="st3" d="M192.1,75h2.3c1.1,0,1.8-0.5,1.8-1.3c0-0.7-0.4-1-1-1.2c0.4-0.2,0.7-0.5,0.7-1.1c0-0.3-0.1-0.6-0.3-0.8
	c-0.3-0.3-0.7-0.4-1.3-0.4h-2.2V75z M193,72.1v-1.3h1.2c0.6,0,0.9,0.2,0.9,0.6c0,0.5-0.4,0.7-0.9,0.7H193z M193,74.2v-1.3h1.4
	c0.7,0,1,0.2,1,0.7c0,0.5-0.4,0.7-0.9,0.7H193z"/>
</svg>
