<?xml version="1.0" encoding="utf-8"?>
<!-- Generator: Adobe Illustrator 24.0.1, SVG Export Plug-In . SVG Version: 6.00 Build 0)  -->
<svg version="1.1" id="Слой_1" xmlns="http://www.w3.org/2000/svg" xmlns:xlink="http://www.w3.org/1999/xlink" x="0px" y="0px"
	 viewBox="0 0 200 120" style="enable-background:new 0 0 200 120;" xml:space="preserve">
<style type="text/css">
	.st0{fill:#231F20;}
	.st1{fill:#D92231;}
</style>
<path class="st0" d="M184.7,44.5h-1.2v-0.8h3.3v0.8h-1.2v4.1h-0.8L184.7,44.5z M187.5,43.8h1.4l1.2,4.1h0.1l1.2-4.1h1.4v4.8H192
	v-4.1h-0.1l-1.2,4.1h-1.1l-1.2-4.1h-0.1v4.1h-0.8L187.5,43.8z"/>
<path class="st1" d="M135.1,61.8c0-6.3-2.4-11.8-8.8-11.8c-6.4,0-8.9,5.5-8.9,11.8s2.5,11.8,8.9,11.8
	C132.7,73.6,135.1,68,135.1,61.8 M144.6,61.8c0,10.7-7.6,18.6-18.3,18.6c-10.9,0-18.3-7.6-18.3-18.6c0-10.4,7.3-18.6,18.3-18.6
	C137,43.2,144.6,51.1,144.6,61.8 M71.7,58.3H55.1c0.2-1.2,0.5-2.3,1-3.4c1.5-3,4.3-4.9,7.8-4.9c4.8,0,7.7,3.3,7.7,8.1V58.3z
	 M80.3,58.5c-0.4-4.8-2.2-8.7-5.2-11.4c-2.9-2.5-6.7-3.9-11.4-3.9c-3.5,0-7.9,1.2-11.2,3.9c-3.9,3.2-6.9,8.2-6.9,14.9
	c0,5.8,1.9,10.5,5.3,13.6c3.3,3.1,8,4.8,13.8,4.8c4.7,0,10.3-1.8,12.8-3.3c0.9-0.5,1.1-0.8,0.9-1.6l-1.5-4.3c-0.2-0.7-1-0.9-1.6-0.6
	c-1,0.5-1.9,0.9-2.9,1.3c-2.1,0.8-4.3,1.3-6.3,1.3c-4.3,0-6.8-1.2-8.7-3.4c-1.2-1.4-1.9-3.1-2.1-5.2h24c0.9,0,1.3-0.6,1.3-1.6v-1.7
	C80.4,60.6,80.4,59.3,80.3,58.5 M88.9,48.3c2.7-3.5,7-5.1,13.9-5.1c1.6,0,3.3,0.2,4.9,0.5c0.8,0.2,0.9,0.8,0.8,1.7l-0.8,4
	c-0.2,0.8-0.4,1-1,1c-0.2,0-0.3,0-0.5,0c-0.6-0.1-2.2-0.3-2.9-0.3c-3.4,0-5.1,0.9-6.3,2.2c-1.4,1.5-1.5,3.8-1.5,7.8v18
	c0,1.2-0.5,1.8-1.8,1.8h-5.5c-1.2,0-1.7-0.6-1.8-1.8V60.4C86.5,54,86.8,51,88.9,48.3 M163.3,55.8c1.2-1.3,4.1-4.8,7.3-10.8
	c0.5-1,1-1.3,1.7-1.3h5.9c0.5,0,1.2,0.3,0.8,1.3c-2.3,6.9-7.7,13-10.6,16.2c3.2,3.1,8.9,10.3,11.6,17.4c0.2,0.6,0.1,1.4-1.2,1.4h-7
	c-0.7,0-1.3-0.1-1.8-1.3c-1.7-4.3-4.5-8.9-7.6-11.9c-3.4,3.6-6,8.1-7.7,11.9c-0.4,0.9-0.9,1.3-1.8,1.3h-6.5c-0.4,0-0.9-0.5-0.6-1.3
	c1.9-5.3,5.7-11.8,11.2-16.8c-4.3-5.2-8.5-11.5-10.1-16.9c-0.3-0.8,0.2-1.3,0.8-1.3h7.6c0.8,0,1.3,0.3,1.7,1.3
	C158.8,49.3,161.4,53.5,163.3,55.8 M27.5,55.8c1.2-1.3,4.1-4.8,7.3-10.8c0.5-1,1-1.3,1.7-1.3h5.9c0.5,0,1.2,0.3,0.8,1.3
	c-2.4,6.9-7.7,13-10.6,16.2c3.2,3.1,8.9,10.3,11.6,17.4c0.2,0.6,0.1,1.4-1.2,1.4h-7c-0.7,0-1.3-0.1-1.8-1.3
	c-1.7-4.3-4.5-8.9-7.6-11.9c-3.4,3.6-6,8.1-7.8,11.9c-0.4,0.9-0.8,1.3-1.8,1.3h-6.5c-0.4,0-0.9-0.5-0.6-1.3
	c1.9-5.3,5.8-11.8,11.2-16.8c-4.3-5.2-8.4-11.5-10.1-16.9c-0.2-0.8,0.2-1.3,0.8-1.3h7.6c0.8,0,1.2,0.3,1.7,1.3
	C23,49.3,25.5,53.5,27.5,55.8"/>
</svg>
