<?xml version="1.0" encoding="utf-8"?>
<!-- Generator: Adobe Illustrator 24.0.1, SVG Export Plug-In . SVG Version: 6.00 Build 0)  -->
<svg version="1.1"
	 id="Слой_1" text-rendering="geometricPrecision" image-rendering="optimizeQuality" shape-rendering="geometricPrecision"
	 xmlns="http://www.w3.org/2000/svg" xmlns:xlink="http://www.w3.org/1999/xlink" x="0px" y="0px" viewBox="0 0 200 120"
	 style="enable-background:new 0 0 200 120;" xml:space="preserve">
<style type="text/css">
	.st0{fill:#0C3C60;}
</style>
<path class="st0" d="M34.6,53.2h-2.1L28,61h0h-3.5l-0.4,1.1h3.3l-2.7,4.7h1.7l2.7-4.7h4l0.9,4.7h3.2L34.6,53.2z M31.6,61h-1.9
	l2.4-4.1l0.7,4.1H31.6z M96.6,54.4l0.3-1.2h-8.9l-2,6.3h-2l-0.4,1.1h2l-1.9,6.1h8.9l0.4-1.2h-5.5l1.6-4.8h3.6l0.4-1.1h-3.6l1.6-5.1
	H96.6z M107.8,65.6l3.9-12.3h-3.3l-4.3,13.5h7.8l0.4-1.2H107.8z M149,65.6l3.9-12.3h-3.3l-4.3,13.5h7.8l0.4-1.2H149z M173.3,53.2
	h-2.1l-4.5,7.8h0h-3.5l-0.4,1.1h3.3l-2.7,4.7h1.7l2.7-4.7h4l0.9,4.7h3.2L173.3,53.2z M171.5,61h-3.1l2.4-4.1L171.5,61z M13.8,53.2
	l-2,6.4h-5l2-6.4H5.6l-2,6.4H0.3L0,60.8h3.3l-1.9,5.9h3.2l1.9-5.9h5l-1.9,5.9h3.2L17,53.2H13.8z M54.6,59.3
	c-1.2-0.9-1.9-1.1-2.9-1.6c-3.3-1.4,0-5.1,3.9-2.5l0.7-1.1c-6.4-3.5-10.9,3.3-6.4,6.2c0.7,0.5,1.8,0.9,2.9,1.7
	c2.7,1.8-1.3,5.7-5.5,2.2l-0.9,1.1c3.2,2.8,8.5,1.8,9.5-2.4C56.2,61.4,55.8,60.2,54.6,59.3L54.6,59.3z M72.7,59.3
	c-1.2-0.9-1.9-1.1-2.9-1.6c-3.3-1.4,0-5.1,3.9-2.5l0.7-1.1c-6.4-3.5-10.9,3.3-6.4,6.2c0.8,0.5,1.8,0.9,2.9,1.7
	c2.7,1.8-1.3,5.7-5.5,2.2l-0.9,1.1c3.2,2.8,8.5,1.8,9.5-2.4C74.4,61.4,73.9,60.2,72.7,59.3L72.7,59.3z M131.3,53.2c-4,0-4.4,0-4.4,0
	l-2.1,6.2h-1.3h-0.8l-0.4,1.2h2h0.1l-1.6,4.8l-0.4,1.2h6c6.2-0.1,8.3-5.7,3.6-6.8C137.4,58.3,136.7,53.2,131.3,53.2L131.3,53.2z
	 M128.4,65.6h-1.1h-1.2l1.6-4.9h1.9C133.4,60.7,130.9,65.5,128.4,65.6z M129.8,59.5h-1.7l1.6-5h0.7C134,54.4,133.2,59.4,129.8,59.5z
	 M194,53.2h-4l-4.4,13.5h5.2C201.4,66.4,203.3,53.1,194,53.2z M190.7,65.5h-1.5l3.8-11h1.1C199,54.5,196.7,65.5,190.7,65.5z"/>
</svg>
