<svg width="200" height="120" viewBox="0 0 200 120" fill="none" xmlns="http://www.w3.org/2000/svg">
<g clip-path="url(#clip0_654_1032)">
<path d="M70.2656 90H129.73V30H70.2656V90ZM102.079 67.5415H104.117V52.4585H102.162V47.4H111.169L120.511 60.2585V52.4585H118.474V47.4H127.651V52.4585H125.696V72.6H118.731L109.554 58.9708V67.5415H111.762V72.6H102.079V67.5415ZM72.3448 67.5415H74.3826L79.3092 52.4538H75.9972V47.3954H95.6208V52.4538H92.479L97.1526 67.5415H99.2778V72.6H86.4484V67.5415H88.8266L87.8928 64.3708H81.0112L79.99 67.5415H82.3682V72.6H72.3448V67.5415Z" fill="#E63741"/>
<path d="M84.4978 52.3708L82.1196 60.3416H87.0462L84.4978 52.3708Z" fill="#E63741"/>
<path d="M8 90H67.4642V30H8V90ZM36.0784 67.5415H38.544V52.4585H36.0784V47.4H53.9172C59.014 47.4 63.3472 49.8 63.3472 54.4292C63.3472 57.6877 60.969 59.4 59.3544 60.0877L62.5836 67.5462H64.7916V72.6046H55.702L51.7092 62.0631H47.5462V67.5508H50.0118V72.6092H36.0784V67.5508V67.5415ZM10.6726 67.5415H13.221V52.4585H10.6726V47.4H33.438V55.0292H28.5114V52.4585H22.2232V57.2585H26.9796V62.3169H22.2232V67.5462H25.1948V72.6046H10.6726V67.5462V67.5415Z" fill="#E63741"/>
<path d="M132.536 30V90H192V30H132.536ZM164.308 72.6H151.396V67.5415H153.521L146.046 60V67.5415H148.254V72.6H135.089V67.5415H137.72V52.4585H135.089V47.4H148.341V52.4585H146.046V59.4877L153.521 52.4585H151.653V47.4H162.868V52.4585H161.083L153.778 58.8877L162.528 67.5462H164.312V72.6046L164.308 72.6ZM189.451 55.1123H184.102V52.4538H178.071V57.5123H182.998V62.1415H178.071V67.5415H184.102V64.2H189.451V72.6H167.109V67.5415H169.745V52.4585H167.109V47.4H189.451V55.1123Z" fill="#E63741"/>
<path d="M53.7472 55.3707C53.7472 53.483 52.1326 52.5415 49.3312 52.5415H47.6338V58.2H49.3312C52.1326 58.2 53.7472 57.2584 53.7472 55.3707Z" fill="#E63741"/>
</g>
<rect x="0.5" y="0.5" width="199" height="119" stroke="black"/>
<defs>
<clipPath id="clip0_654_1032">
<rect width="184" height="60" fill="white" transform="translate(8 30)"/>
</clipPath>
</defs>
</svg>
