<?xml version="1.0" encoding="utf-8"?>
<!-- Generator: Adobe Illustrator 24.0.1, SVG Export Plug-In . SVG Version: 6.00 Build 0)  -->
<svg version="1.1"
	 id="svg8" inkscape:version="0.92.4 (5da689c313, 2019-01-14)" sodipodi:docname="Huawei logo 2018.svg" xmlns:cc="http://creativecommons.org/ns#" xmlns:dc="http://purl.org/dc/elements/1.1/" xmlns:inkscape="http://www.inkscape.org/namespaces/inkscape" xmlns:rdf="http://www.w3.org/1999/02/22-rdf-syntax-ns#" xmlns:sodipodi="http://sodipodi.sourceforge.net/DTD/sodipodi-0.dtd" xmlns:svg="http://www.w3.org/2000/svg"
	 xmlns="http://www.w3.org/2000/svg" xmlns:xlink="http://www.w3.org/1999/xlink" x="0px" y="0px" viewBox="0 0 200 120"
	 style="enable-background:new 0 0 200 120;" xml:space="preserve">
<style type="text/css">
	.st0{clip-path:url(#SVGID_2_);}
	.st1{fill:#232527;}
	.st2{fill:#CF0A2C;}
</style>
<sodipodi:namedview  bordercolor="#666666" borderopacity="1.0" id="base" inkscape:current-layer="layer1" inkscape:cx="70.447952" inkscape:cy="66.002304" inkscape:document-units="mm" inkscape:pageopacity="0.0" inkscape:pageshadow="2" inkscape:window-height="1016" inkscape:window-maximized="1" inkscape:window-width="1850" inkscape:window-x="70" inkscape:window-y="27" inkscape:zoom="3.3239458" pagecolor="#ffffff" showgrid="false">
	</sodipodi:namedview>
<g id="g1569" transform="matrix(3.6832037,0,0,-3.6831561,82.457251,261.08177)">
	<g>
		<defs>
			<path id="SVGID_1_" d="M117.3,109.8c0,0-15.7-8.4-23.8-13.8v0l-0.1-0.3l0.2-0.1v0c2.9,0,13.9,0,14.2,0c0,0,1.4,0.1,3.2,0.7
				c0,0,3.9,1.2,5.9,5.7C116.9,102,118.7,105.6,117.3,109.8"/>
		</defs>
		<clipPath id="SVGID_2_">
			<use xlink:href="#SVGID_1_"  style="overflow:visible;"/>
		</clipPath>
		<g id="g1571" class="st0">
		</g>
	</g>
</g>
<g id="g1133" transform="matrix(0.35277777,0,0,0.35277777,111.58742,140.59444)">
</g>
<g id="g11533" transform="translate(-21.07066,138.86342)">
	<path id="path4250" inkscape:connector-curvature="0" class="st1" d="M135.3-88.4v10.7c0,3-1.5,4.7-4.3,4.7c-2.8,0-4.3-1.7-4.3-4.8
		v-10.6h-3.8v10.7c0,5.3,2.9,8.3,8,8.3c5.2,0,8.1-3.1,8.1-8.5v-10.6L135.3-88.4z M149.3-88.4L141-69.6h3.9l1.6-3.6l0.1-0.3h8.6
		l1.7,3.9h4l-8.2-18.6l-0.1-0.1L149.3-88.4z M171.9-88.4l-4.3,12.9l-4.1-12.9h-4l6.5,18.7h3.1l4.3-12.3l4.3,12.3h3.2l6.5-18.7h-3.9
		l-4.2,12.9L175-88.4H171.9z M209.1-88.4v18.7h3.8v-18.7H209.1z M101.5-88.4v18.7h3.8v-7.6h8.6v7.6h3.8v-18.7h-3.8v7.6h-8.6v-7.6
		H101.5z M190.4-88.4v18.7h14.2v-3.4h-10.4v-4.6h6.9v-3.4h-6.9v-3.8h10v-3.4L190.4-88.4z M150.9-83.6l2.7,6.3h0l0.2,0.4H148l0.2-0.4
		h0L150.9-83.6z"/>
	<path id="path4252" inkscape:connector-curvature="0" class="st2" d="M58.2-106.8c-0.8,0.1-3,0.6-3,0.6h0c-5,1.3-6.2,5.8-6.2,5.8
		c-0.2,0.8-0.4,1.5-0.4,2.3v1c0.1,1.5,0.4,2.7,0.4,2.7c1.7,7.4,9.9,19.6,11.6,22.1c0.1,0.1,0.2,0.1,0.2,0.1c0.2-0.1,0.2-0.2,0.2-0.2
		l0,0C63.8-99.7,58.2-106.8,58.2-106.8L58.2-106.8z M67.2-106.8c0,0-5.6,7.2-2.9,34.4h0c0,0.2,0.1,0.2,0.1,0.2
		c0.2,0.1,0.3-0.1,0.3-0.1l0,0c1.8-2.6,10-14.7,11.6-22.1c0,0,0.9-3.6,0-6c0,0-1.2-4.6-6.2-5.8C70.1-106.3,68.7-106.6,67.2-106.8
		L67.2-106.8z M41.4-98.7c0,0-4.8,4.5-5,9.3h0v0.7c0,0.1,0,0.1,0,0.2c0.2,3.9,3.1,6.1,3.1,6.1c4.7,4.6,16,10.3,18.7,11.6
		c0,0,0.2,0.1,0.3,0c0,0,0,0,0.1-0.1V-71c0,0,0,0,0,0h0C51.2-86.7,41.4-98.7,41.4-98.7L41.4-98.7z M84-98.7c0,0-9.8,11.9-17.1,27.6
		l0,0c0,0-0.1,0.2,0.1,0.3c0,0,0,0,0.1,0h0.1c0,0,0,0,0.1,0v0c2.7-1.3,14-7.1,18.6-11.6c0,0,3-2.4,3.1-6.2
		C89.3-93.8,84-98.7,84-98.7L84-98.7z M92.8-83c0,0-16,8.6-24.3,14.2l0,0l0,0c0,0-0.2,0.1-0.1,0.3c0,0,0.1,0.1,0.2,0.1v0
		c3,0,14.2,0,14.5,0c0,0,1.5-0.1,3.3-0.7c0,0,4-1.3,6.1-5.8c0,0,0.9-1.9,1-4.6v-0.1C93.4-80.7,93.2-81.9,92.8-83L92.8-83z M32.5-83
		C31-78.5,33-74.8,33-74.8c2,4.3,6,5.6,6,5.6c1.8,0.7,3.6,0.8,3.6,0.8c0.3,0.1,11.2,0,14.2,0c0.1,0,0.2-0.1,0.2-0.1c0,0,0,0,0,0
		v-0.1c0-0.1-0.1-0.1-0.1-0.1l0,0C48.6-74.4,32.5-83,32.5-83L32.5-83z M56.4-67l-18.9,0.7c2,3.6,5.5,6.5,9.1,5.6
		c2.5-0.6,8.1-4.5,9.9-5.9l0,0c0.1-0.1,0.1-0.2,0.1-0.2C56.6-67,56.4-67,56.4-67L56.4-67z M68.9-67L68.9-67c0,0-0.2,0-0.2,0.2
		c0,0,0,0.2,0.1,0.3l0,0c1.8,1.3,7.3,5.1,9.9,5.9c0,0,0.4,0.1,1.1,0.2h0.4c1.8-0.1,4.8-1,7.6-5.8L68.9-67z"/>
</g>
</svg>
