<?xml version="1.0" encoding="utf-8"?>
<!-- Generator: Adobe Illustrator 24.0.1, SVG Export Plug-In . SVG Version: 6.00 Build 0)  -->
<svg version="1.1" id="Слой_1" xmlns="http://www.w3.org/2000/svg" xmlns:xlink="http://www.w3.org/1999/xlink" x="0px" y="0px"
	 viewBox="0 0 200 120" style="enable-background:new 0 0 200 120;" xml:space="preserve">
<style type="text/css">
	.st0{fill:#0065D3;}
</style>
<path id="Philips_wordmark" class="st0" d="M33.4,68.2h-3.6v5.5h-7.3V46.3c1.8,0,8,0,10.9,0c8.6,0,12.8,3.6,12.8,10.9
	C46.2,64,41.2,68.2,33.4,68.2z M31.6,51.8c-0.4,0-1.3,0-1.8,0v10.9h1.8c4.3,0,7.3-2.1,7.3-5.5C38.9,54,35.7,51.8,31.6,51.8z
	 M66.2,73.7V62.7h-9.1v10.9h-7.3V46.3h7.3v10.9h9.1V46.3h7.3v27.4H66.2z M80.8,73.7V46.3h7.3v27.4H80.8z M110,73.7H95.4V46.3h7.3
	v21.9h9.1L110,73.7z M115.5,73.7V46.3h7.3v27.4H115.5z M141.1,68.2h-3.6v5.5h-7.3V46.3c1.8,0,8,0,10.9,0c8.6,0,12.8,3.6,12.8,10.9
	C153.8,64,148.8,68.2,141.1,68.2z M139.2,51.8c-0.4,0-1.3,0-1.8,0v10.9h1.8c4.3,0,7.3-2.1,7.3-5.5C146.5,54,143.3,51.8,139.2,51.8z
	 M164.4,53.6c0,4.2,13.1,2.5,13.1,11.3c0,6.6-5.7,8.8-12.7,8.8c-2.7,0-6.2-0.4-8.7-1.3l-0.9-6c2.5,1.2,6.7,2.1,9.5,2.1
	c3.1,0,4.3-0.9,4.3-2.5c0-4.3-13-2.4-13-11.6c0-5.4,4.6-7.9,11.3-7.9c3.5,0,5.5,0.3,7.6,0.8l0.7,5.7c-1.9-0.8-4.8-1.3-7.4-1.3
	C165.9,51.5,164.4,52.1,164.4,53.6z"/>
</svg>
