<?xml version="1.0" encoding="utf-8"?>
<!-- Generator: Adobe Illustrator 24.0.1, SVG Export Plug-In . SVG Version: 6.00 Build 0)  -->
<svg version="1.1" id="Слой_1" xmlns="http://www.w3.org/2000/svg" xmlns:xlink="http://www.w3.org/1999/xlink" x="0px" y="0px"
	 viewBox="0 0 200 120" style="enable-background:new 0 0 200 120;" xml:space="preserve">
<style type="text/css">
	.st0{display:none;fill-rule:evenodd;clip-rule:evenodd;fill:#FFFFFF;}
	.st1{fill-rule:evenodd;clip-rule:evenodd;fill:#2F489A;}
</style>
<g>
	<path class="st0" d="M17.9-22.1h164.2v164.2H17.9V-22.1z"/>
	<path class="st1" d="M36.1,64.2h15.4v-5.4H36.1V52h16.7v-5.9H29.1v31.7h24.1V72H36.1V64.2L36.1,64.2z M69.3,46.2H55v31.7h7V66.6
		h7.3c7.9,0,11-5,11-10.2S77.2,46.2,69.3,46.2L69.3,46.2z M67.4,61.2h-5.4v-9.5h5.4c3.2,0,6.1,0.7,6.1,4.8
		C73.5,60.5,70.6,61.2,67.4,61.2L67.4,61.2z M98.1,59.5c-7.9-2-9.5-2.4-9.5-4.8c0-2.7,2.6-3.6,4.8-3.6c3.3,0,6,1,6.3,4.8h6.8
		c0-7.3-6.1-10.2-12.7-10.2c-5.7,0-11.9,3.1-11.9,9.6c0,6,4.8,7.8,9.5,9c4.7,1.2,9.4,1.8,9.4,5.2c0,3.2-3.7,4-6.2,4
		c-3.7,0-7-1.6-7-5.9h-6.7c-0.1,7.8,6.5,11.3,13.5,11.3c8.6,0,13.2-4.3,13.2-10.2C107.5,61.6,100.4,60.1,98.1,59.5L98.1,59.5z
		 M124.1,45.6c-9.8,0-15.6,7.3-15.6,16.7c0,9.1,5.8,16.5,15.6,16.5c9.8,0,15.6-7.3,15.6-16.5C139.7,52.9,133.9,45.6,124.1,45.6
		L124.1,45.6z M124.1,72.9c-6.3,0-8.6-5.3-8.6-10.6c0-5.6,2.4-10.9,8.6-10.9c6.3,0,8.6,5.3,8.6,10.9
		C132.7,67.6,130.4,72.9,124.1,72.9z M168.3,46.3h-6.5v21.3h-0.1l-13.2-21.3h-6.9V78h6.5V56.8h0.1L161.3,78h7L168.3,46.3L168.3,46.3
		z M176.2,45.7c-1.9,0-3.5-1.6-3.5-3.5c0-1.9,1.6-3.5,3.5-3.5s3.5,1.6,3.5,3.5C179.7,44.1,178.1,45.7,176.2,45.7z M179.2,42.2
		c0-1.6-1.3-3-3-3c-1.6,0-3,1.3-3,3c0,1.6,1.3,3,3,3C177.9,45.2,179.2,43.8,179.2,42.2z M177.7,44h-0.7l-0.6-1.5h-0.8V44h-0.7v-3.7
		h1.2c0.7,0,1.5,0.1,1.5,1.2c0,0.7-0.4,0.8-0.6,0.9L177.7,44l-1.3-2.1c0.3,0,0.6-0.1,0.6-0.5c0-0.3-0.2-0.5-0.6-0.5h-0.7v1h0.8
		L177.7,44L177.7,44z"/>
</g>
</svg>
