<svg width="200" height="120" viewBox="0 0 200 120" fill="none" xmlns="http://www.w3.org/2000/svg">
<path d="M17.4024 62.9725V67.2308H26.8567V72.5192H12V48.4808H26.6879V53.7692H17.4024V57.7527H25.8438V62.9725H17.4024Z" fill="#ED1C24"/>
<path d="M29.736 64.7582V48.4808H35.1385V64.2775C35.1385 66.5211 36.3765 67.6429 38.8526 67.6429C41.3288 67.6429 42.5668 66.5211 42.5668 64.2775V48.4808H47.9693V64.7582C47.9693 67.2994 47.1139 69.3027 45.4031 70.7679C43.6698 72.256 41.4863 73 38.8526 73C36.2189 73 34.0355 72.256 32.3022 70.7679C30.5914 69.3027 29.736 67.2994 29.736 64.7582Z" fill="#ED1C24"/>
<path d="M70.0987 72.5192H64.2911L59.8341 64.6209H57.2679V72.5192H51.8655V48.4808H61.3197C63.5708 48.4808 65.4841 49.2821 67.0598 50.8846C68.6355 52.4872 69.4234 54.4332 69.4234 56.7225C69.4234 58.1648 69.0182 59.5156 68.2079 60.7747C67.42 62.0339 66.3733 63.0069 65.0677 63.6937L70.0987 72.5192ZM61.3197 53.6319H57.2679V59.8132H61.3197C62.0626 59.8132 62.6929 59.5156 63.2106 58.9203C63.7508 58.3251 64.021 57.5925 64.021 56.7225C64.021 55.8526 63.7508 55.12 63.2106 54.5247C62.6929 53.9295 62.0626 53.6319 61.3197 53.6319Z" fill="#ED1C24"/>
<path d="M92.2983 69.3942C89.9123 71.7981 87.0084 73 83.5869 73C80.1653 73 77.2615 71.7981 74.8754 69.3942C72.4894 66.9904 71.2963 64.0256 71.2963 60.5C71.2963 56.9744 72.4894 54.0096 74.8754 51.6058C77.2615 49.2019 80.1653 48 83.5869 48C87.0084 48 89.9123 49.2019 92.2983 51.6058C94.6844 54.0096 95.8775 56.9744 95.8775 60.5C95.8775 64.0256 94.6844 66.9904 92.2983 69.3942ZM76.6988 60.5C76.6988 62.6062 77.3516 64.3233 78.6572 65.6511C79.9628 66.9789 81.606 67.6429 83.5869 67.6429C85.5453 67.6429 87.1773 66.9789 88.4829 65.6511C89.811 64.3004 90.475 62.5833 90.475 60.5C90.475 58.4167 89.811 56.6996 88.4829 55.3489C87.1773 54.0211 85.5453 53.3571 83.5869 53.3571C81.606 53.3571 79.9628 54.0211 78.6572 55.3489C77.3516 56.6767 76.6988 58.3938 76.6988 60.5Z" fill="#ED1C24"/>
<path d="M112.088 61.5302V48.4808H117.49V72.5192H113.438L104.322 59.4698V72.5192H98.9192V48.4808H102.971L112.088 61.5302Z" fill="#ED1C24"/>
<path d="M141.528 69.3942C139.142 71.7981 136.238 73 132.817 73C129.395 73 126.492 71.7981 124.106 69.3942C121.719 66.9904 120.526 64.0256 120.526 60.5C120.526 56.9744 121.719 54.0096 124.106 51.6058C126.492 49.2019 129.395 48 132.817 48C136.238 48 139.142 49.2019 141.528 51.6058C143.914 54.0096 145.108 56.9744 145.108 60.5C145.108 64.0256 143.914 66.9904 141.528 69.3942ZM125.929 60.5C125.929 62.6062 126.582 64.3233 127.887 65.6511C129.193 66.9789 130.836 67.6429 132.817 67.6429C134.775 67.6429 136.407 66.9789 137.713 65.6511C139.041 64.3004 139.705 62.5833 139.705 60.5C139.705 58.4167 139.041 56.6996 137.713 55.3489C136.407 54.0211 134.775 53.3571 132.817 53.3571C130.836 53.3571 129.193 54.0211 127.887 55.3489C126.582 56.6767 125.929 58.3938 125.929 60.5Z" fill="#ED1C24"/>
<path d="M159.688 72.5192H152.8L145.101 48.4808H151.01L156.244 66.1662L161.477 48.4808H167.386L159.688 72.5192Z" fill="#ED1C24"/>
<path d="M189 72.5192H183.091L181.909 68.7418H173.13L171.949 72.5192H166.04L174.076 48.4808H180.964L189 72.5192ZM177.52 54.7651L174.751 63.5907H180.289L177.52 54.7651Z" fill="#ED1C24"/>
<rect x="0.5" y="0.5" width="199" height="119" stroke="black"/>
</svg>
