<svg width="20" height="20" viewBox="0 0 20 20" fill="none" xmlns="http://www.w3.org/2000/svg">
<path d="M9.99984 13.3332C11.8382 13.3332 13.3332 11.8382 13.3332 9.99984C13.3332 8.1615 11.8382 6.6665 9.99984 6.6665C8.1615 6.6665 6.6665 8.1615 6.6665 9.99984C6.6665 11.8382 8.1615 13.3332 9.99984 13.3332ZM9.99984 8.33317C10.9032 8.33317 11.6665 9.0965 11.6665 9.99984C11.6665 10.9032 10.9032 11.6665 9.99984 11.6665C9.0965 11.6665 8.33317 10.9032 8.33317 9.99984C8.33317 9.0965 9.0965 8.33317 9.99984 8.33317Z" fill="white"/>
<path d="M2.37065 13.4465L3.20399 14.8882C3.64649 15.6523 4.71149 15.939 5.47899 15.4965L5.91982 15.2415C6.40193 15.6207 6.93349 15.9325 7.49982 16.1682V16.6665C7.49982 17.5857 8.24732 18.3332 9.16649 18.3332H10.8332C11.7523 18.3332 12.4998 17.5857 12.4998 16.6665V16.1682C13.0659 15.9325 13.5975 15.621 14.0798 15.2423L14.5207 15.4973C15.2898 15.939 16.3523 15.654 16.7965 14.8882L17.629 13.4473C17.8498 13.0646 17.9097 12.6098 17.7955 12.183C17.6813 11.7561 17.4023 11.392 17.0198 11.1707L16.599 10.9273C16.6885 10.3128 16.6885 9.68854 16.599 9.074L17.0198 8.83067C17.4021 8.6092 17.681 8.24511 17.7952 7.8183C17.9094 7.39149 17.8496 6.9368 17.629 6.554L16.7965 5.11317C16.354 4.3465 15.2898 4.059 14.5207 4.50317L14.0798 4.75817C13.5977 4.37893 13.0661 4.06717 12.4998 3.8315V3.33317C12.4998 2.414 11.7523 1.6665 10.8332 1.6665H9.16649C8.24732 1.6665 7.49982 2.414 7.49982 3.33317V3.8315C6.93369 4.0672 6.40217 4.37866 5.91982 4.75734L5.47899 4.50234C4.70899 4.05984 3.64565 4.3465 3.20315 5.11234L2.37065 6.55317C2.1498 6.93592 2.08991 7.39068 2.20413 7.81756C2.31835 8.24443 2.59734 8.60852 2.97982 8.82984L3.40065 9.07317C3.31085 9.6874 3.31085 10.3114 3.40065 10.9257L2.97982 11.169C2.59745 11.3906 2.31859 11.7549 2.2044 12.1818C2.0902 12.6088 2.14999 13.0636 2.37065 13.4465ZM5.14232 11.1482C5.04822 10.7726 5.00037 10.387 4.99982 9.99984C4.99982 9.61484 5.04815 9.22817 5.14149 8.8515C5.18544 8.67594 5.17098 8.49084 5.10031 8.32423C5.02963 8.15763 4.90659 8.01859 4.74982 7.92817L3.81399 7.3865L4.64565 5.94567L5.59982 6.49734C5.75542 6.58738 5.93604 6.62452 6.11454 6.60318C6.29305 6.58184 6.45982 6.50318 6.58982 6.379C7.15359 5.8428 7.83343 5.44385 8.57649 5.21317C8.74717 5.16106 8.89662 5.05553 9.00283 4.91211C9.10905 4.76869 9.16641 4.59497 9.16649 4.4165V3.33317H10.8332V4.4165C10.8332 4.59497 10.8906 4.76869 10.9968 4.91211C11.103 5.05553 11.2525 5.16106 11.4232 5.21317C12.1661 5.44418 12.8458 5.84309 13.4098 6.379C13.54 6.50294 13.7067 6.58144 13.8851 6.60277C14.0636 6.6241 14.2441 6.58711 14.3998 6.49734L15.3532 5.9465L16.1865 7.38734L15.2498 7.92817C15.0931 8.01869 14.9702 8.15774 14.8995 8.32432C14.8289 8.49089 14.8143 8.67594 14.8582 8.8515C14.9515 9.22817 14.9998 9.61484 14.9998 9.99984C14.9998 10.384 14.9515 10.7707 14.8573 11.1482C14.8136 11.3238 14.8282 11.5089 14.899 11.6755C14.9699 11.8421 15.093 11.9811 15.2498 12.0715L16.1857 12.6123L15.354 14.0532L14.3998 13.5023C14.2443 13.4122 14.0636 13.3749 13.8851 13.3963C13.7065 13.4176 13.5397 13.4964 13.4098 13.6207C12.8461 14.1569 12.1662 14.5558 11.4232 14.7865C11.2525 14.8386 11.103 14.9441 10.9968 15.0876C10.8906 15.231 10.8332 15.4047 10.8332 15.5832L10.8348 16.6665H9.16649V15.5832C9.16641 15.4047 9.10905 15.231 9.00283 15.0876C8.89662 14.9441 8.74717 14.8386 8.57649 14.7865C7.83357 14.5555 7.1538 14.1566 6.58982 13.6207C6.46007 13.496 6.2932 13.4171 6.11452 13.3959C5.93585 13.3747 5.75514 13.4123 5.59982 13.5032L4.64649 14.0548L3.81315 12.614L4.74982 12.0715C4.90665 11.9811 5.02978 11.8421 5.10059 11.6755C5.17141 11.5089 5.18605 11.3238 5.14232 11.1482Z" fill="white"/>
</svg>
